<svg width="138" height="200" viewBox="0 0 138 200" fill="none" xmlns="http://www.w3.org/2000/svg">
<path d="M42.7403 118.225C43.7558 117.626 44.701 117.166 45.4825 116.97C45.684 115.908 46.4191 113.652 47.9524 110.946C48.7366 109.562 49.7295 108.06 50.9667 106.539C52.8212 104.26 52.2676 101.915 50.2526 100.12C49.3286 99.2971 48.0974 98.5899 46.6501 98.0578C45.6156 97.6775 44.4707 97.3868 43.2487 97.2072C42.3545 97.0758 41.4189 97.0039 40.4552 97.0002C39.4788 96.9963 38.4735 97.0624 37.4528 97.2072C36.6331 97.3235 35.8035 97.4905 34.9711 97.7129C34.1749 97.9256 33.4129 98.1821 32.6859 98.4779C31.805 98.8363 30.9755 99.2526 30.1993 99.7189C29.4553 100.166 28.7603 100.659 28.1157 101.191C27.4604 101.732 26.8573 102.314 26.3081 102.928C25.8679 103.421 25.4624 103.935 25.0922 104.467C24.5826 105.199 24.14 105.965 23.7669 106.754C23.3093 107.722 22.956 108.727 22.7109 109.749C22.4841 110.695 22.3501 111.656 22.3119 112.619C22.272 113.627 22.3372 114.637 22.5111 115.631C22.6649 116.511 22.9037 117.38 23.2301 118.225C23.3275 118.478 23.4326 118.728 23.5456 118.976C24.686 121.479 25.9469 123.028 27.2017 123.944C29.9701 125.964 32.7087 124.902 34.057 124.192C35.7839 123.282 39.5988 120.081 42.7403 118.225Z" fill="#2E7A48"/>
<g style="mix-blend-mode:multiply">
<path d="M43.5538 97.2545C43.4527 97.238 43.3511 97.2222 43.2489 97.2072C43.1591 97.194 43.0688 97.1814 42.9781 97.1694C42.9714 97.2058 42.9743 97.2441 42.9881 97.2815C43.9032 99.7546 43.8298 103.056 43.351 106.203C42.8757 109.327 42.0064 112.265 41.3477 114.023C38.9884 115.033 35.3465 116.408 31.8647 117.346C30.0786 117.827 28.3438 118.19 26.8506 118.333C25.3453 118.476 24.1361 118.389 23.3626 118.015C23.2931 117.981 23.2143 117.977 23.1444 117.997C23.1724 118.073 23.201 118.149 23.2303 118.225C23.2721 118.334 23.3152 118.441 23.3598 118.549C24.2725 118.896 25.5184 118.944 26.9097 118.811C28.4512 118.665 30.2228 118.292 32.0256 117.806C35.632 116.835 39.3994 115.402 41.7689 114.378C41.8967 114.323 41.9537 114.192 41.9045 114.077C42.5678 112.285 43.4229 109.367 43.8946 106.267C44.3688 103.151 44.461 99.8175 43.5538 97.2545Z" fill="#2E7A48"/>
<path d="M46.9451 98.1698C46.8479 98.1317 46.7496 98.0944 46.6503 98.0578C46.5664 98.027 46.4817 97.9967 46.3963 97.967C46.3785 98.0053 46.3717 98.0481 46.3789 98.0919C47.6501 105.896 45.0598 112.817 43.5556 115.407C43.5352 115.414 43.5153 115.423 43.4965 115.435C41.529 116.653 38.233 118.402 34.7508 119.686C33.01 120.328 31.2294 120.851 29.5495 121.135C27.8672 121.418 26.3036 121.459 24.9875 121.151C24.8971 121.13 24.8052 121.151 24.739 121.2C24.8404 121.359 24.9423 121.512 25.0447 121.66C26.4248 121.944 28.0062 121.885 29.653 121.607C31.3817 121.316 33.2001 120.78 34.9632 120.13C38.447 118.846 41.7407 117.104 43.7415 115.872C43.8367 115.869 43.9274 115.823 43.9749 115.743C45.5016 113.189 48.1981 106.147 46.9451 98.1698Z" fill="#2E7A48"/>
<path d="M50.5634 100.413C50.4641 100.314 50.3606 100.216 50.2528 100.12C50.1891 100.063 50.1239 100.007 50.0572 99.9514C50.0009 100.002 49.9703 100.073 49.9806 100.149C50.238 102.035 49.9167 104.209 49.4023 106.172C48.8885 108.132 48.1873 109.862 47.7009 110.85C47.6427 110.969 47.7011 111.106 47.8315 111.162C47.8713 111.09 47.9117 111.018 47.9527 110.946C48.2576 110.408 48.5941 109.851 48.9643 109.283C49.3012 108.411 49.6481 107.381 49.9367 106.28C50.4292 104.401 50.7565 102.298 50.5634 100.413Z" fill="#2E7A48"/>
<path d="M38.9615 120.766C40.2157 119.858 41.5282 118.942 42.7405 118.225C42.8171 118.18 42.8932 118.136 42.9689 118.092C42.9662 118.089 42.9634 118.085 42.9604 118.082C42.8699 117.975 42.6981 117.953 42.5766 118.032C40.6815 119.273 37.634 121.045 34.656 122.331C33.1664 122.974 31.7044 123.49 30.4187 123.76C29.1226 124.032 28.0568 124.041 27.322 123.727C27.2076 123.679 27.0736 123.706 26.9943 123.786C27.0635 123.841 27.1327 123.893 27.2019 123.944C27.4324 124.112 27.6626 124.259 27.8919 124.386C28.667 124.509 29.5781 124.431 30.5462 124.228C31.8874 123.947 33.3903 123.413 34.898 122.763C36.2791 122.166 37.6727 121.468 38.9615 120.766Z" fill="#2E7A48"/>
<path d="M22.5655 115.923C23.4238 116.263 24.6055 116.341 25.9275 116.261C27.357 116.175 28.9961 115.9 30.6618 115.53C33.9941 114.79 37.4668 113.658 39.649 112.841L39.7754 112.793L39.8079 112.676C40.2678 111.013 40.8643 108.238 41.1627 105.304C41.4576 102.404 41.4645 99.3219 40.741 97.0033C40.6461 97.0016 40.5509 97.0005 40.4555 97.0002C40.3643 96.9998 40.2728 97.0001 40.1812 97.0009C40.1812 97.0222 40.1846 97.0438 40.1915 97.0653C40.9087 99.3042 40.9128 102.347 40.6165 105.261C40.3277 108.101 39.7566 110.792 39.3071 112.445C37.1373 113.251 33.7614 114.345 30.5272 115.064C28.8779 115.43 27.274 115.697 25.8899 115.781C24.4951 115.865 23.3683 115.76 22.6404 115.419C22.5867 115.394 22.5278 115.386 22.4718 115.393C22.4843 115.473 22.4975 115.552 22.5113 115.631C22.5283 115.729 22.5464 115.826 22.5655 115.923Z" fill="#2E7A48"/>
<path d="M22.3237 112.379C22.3192 112.459 22.3153 112.539 22.3122 112.619C22.3085 112.712 22.3057 112.805 22.3038 112.897C22.5431 113.009 22.8509 113.076 23.1915 113.117C23.6188 113.168 24.1348 113.18 24.7112 113.163C25.8647 113.13 27.291 112.979 28.795 112.767C31.8047 112.343 35.1564 111.67 37.3248 111.179L37.4855 111.143L37.5233 111.001C38.1174 108.771 38.9847 102.903 37.7242 97.1705C37.634 97.1821 37.5436 97.1943 37.453 97.2072C37.363 97.22 37.2729 97.2333 37.1827 97.2473C37.183 97.2492 37.1834 97.251 37.1838 97.2529C38.4028 102.786 37.6062 108.464 37.0262 110.749C34.8659 111.234 31.6222 111.881 28.7081 112.292C27.2134 112.503 25.8131 112.65 24.6931 112.682C24.1328 112.698 23.6504 112.686 23.2651 112.64C22.8716 112.593 22.6143 112.515 22.4744 112.425C22.4288 112.396 22.3762 112.381 22.3237 112.379Z" fill="#2E7A48"/>
<path d="M22.7695 109.513C22.7494 109.592 22.73 109.67 22.7112 109.749C22.6907 109.834 22.6709 109.92 22.652 110.005C22.7148 110.037 22.7825 110.061 22.8497 110.08C22.969 110.114 23.1083 110.14 23.2606 110.159C23.5653 110.197 23.9491 110.212 24.3864 110.21C25.2627 110.207 26.3867 110.136 27.5915 110.028C30.003 109.814 32.7644 109.452 34.5716 109.184L34.7891 109.151L34.7998 108.958C34.8745 107.599 34.8717 105.443 34.6198 103.385C34.4939 102.356 34.3051 101.346 34.03 100.47C33.7658 99.6278 33.4152 98.8873 32.9448 98.3748C32.8581 98.4086 32.7719 98.443 32.6862 98.4779C32.6031 98.5117 32.5204 98.546 32.4382 98.5808C32.4482 98.5993 32.4611 98.617 32.4768 98.6334C32.8955 99.0675 33.2353 99.7501 33.5013 100.598C33.7658 101.44 33.9505 102.422 34.0746 103.436C34.3111 105.369 34.3249 107.395 34.2618 108.741C32.463 109.004 29.8367 109.345 27.5362 109.549C26.3376 109.656 25.234 109.725 24.384 109.729C23.9583 109.73 23.6044 109.715 23.3375 109.682C23.204 109.666 23.0989 109.645 23.0207 109.623C22.9388 109.599 22.9053 109.578 22.8968 109.572C22.8596 109.542 22.8156 109.522 22.7695 109.513Z" fill="#2E7A48"/>
<path d="M23.8834 106.514C23.8439 106.594 23.8051 106.674 23.7671 106.754C23.732 106.829 23.6976 106.903 23.6638 106.977C23.6957 106.989 23.7305 106.995 23.7671 106.995H31.8563L30.4701 99.6794C30.4634 99.6443 30.4484 99.6122 30.4272 99.5845C30.3508 99.6288 30.2749 99.6736 30.1996 99.7189C30.1159 99.7692 30.0329 99.82 29.9505 99.8714L31.2092 106.514H23.8834Z" fill="#2E7A48"/>
<path d="M25.2633 104.226C25.2056 104.306 25.1486 104.386 25.0925 104.467C25.0448 104.535 24.9977 104.604 24.9512 104.673C24.9924 104.695 25.0408 104.708 25.0924 104.708H28.4091C28.5606 104.708 28.6833 104.6 28.6833 104.467C28.6833 104.422 28.6695 104.38 28.6453 104.345L28.3895 101.174C28.3849 101.117 28.3582 101.066 28.3172 101.028C28.2496 101.082 28.1825 101.136 28.116 101.191C28.0293 101.263 27.9435 101.335 27.8586 101.408L28.086 104.226H25.2633Z" fill="#2E7A48"/>
</g>
<path d="M28.0857 104.753L26.0306 103.248C26.1216 103.14 26.2142 103.034 26.3083 102.928C26.4023 102.823 26.4978 102.719 26.5949 102.616L26.6011 102.62L28.6713 104.136C28.6713 104.136 28.6712 104.136 28.6713 104.136C28.6764 104.14 28.6815 104.144 28.6864 104.148C28.6916 104.151 28.6968 104.155 28.702 104.159L45.799 116.679L55.874 126.328C56.0446 126.491 56.032 126.745 55.8459 126.895C55.6599 127.044 55.3708 127.033 55.2002 126.87L45.1666 117.261L44.9793 117.124C44.9793 117.124 44.9793 117.124 44.9793 117.124L28.1164 104.775C28.1113 104.771 28.1062 104.767 28.1013 104.764C28.0961 104.76 28.0909 104.756 28.0857 104.753Z" fill="#2E7A48"/>
<g style="mix-blend-mode:multiply">
<path d="M26.6011 102.62L28.6714 104.137C28.6764 104.14 28.6813 104.145 28.686 104.148C28.6912 104.152 28.6966 104.155 28.7017 104.159L45.5825 116.522C45.5407 116.689 45.5079 116.839 45.4829 116.971C45.3219 117.011 45.1541 117.064 44.98 117.126L44.979 117.124L28.1157 104.775C28.1106 104.772 28.1059 104.768 28.1011 104.764C28.0959 104.76 28.0905 104.757 28.0854 104.753L26.0317 103.249C26.1227 103.142 26.2139 103.034 26.3081 102.929C26.4021 102.824 26.5 102.721 26.5972 102.618L26.6011 102.62Z" fill="#2E7A48"/>
</g>
<path d="M60.7145 156.858C60.7145 164.713 53.7178 168.314 50.2195 169.132C47.9805 180.915 43.2229 182.633 39.7245 182.633C19.0144 181.16 20.1338 158.699 25.0315 153.79C35.5265 142.129 60.7145 147.039 60.7145 156.858Z" fill="#2E7A48"/>
<g style="mix-blend-mode:multiply">
<path fill-rule="evenodd" clip-rule="evenodd" d="M25.9117 154.093C26.138 153.813 26.5826 153.746 26.9049 153.942L60.4115 174.38C60.7337 174.577 60.8115 174.963 60.5853 175.243C60.359 175.523 59.9144 175.591 59.5922 175.394L26.0855 154.956C25.7633 154.759 25.6855 154.373 25.9117 154.093Z" fill="#2E7A48"/>
</g>
<g style="mix-blend-mode:multiply">
<path fill-rule="evenodd" clip-rule="evenodd" d="M42.3785 147.039C42.7393 146.921 43.1415 147.081 43.2768 147.396C44.1487 149.432 44.7946 153.002 45.2529 156.572C45.7143 160.166 45.9944 163.838 46.1112 166.125L46.1345 166.58L45.6431 166.729C43.0736 167.51 38.9424 168.681 34.8899 169.657C30.8698 170.625 26.826 171.428 24.4838 171.428C24.0984 171.428 23.7861 171.154 23.7861 170.817C23.7861 170.48 24.0984 170.206 24.4838 170.206C26.6067 170.206 30.4699 169.454 34.5197 168.479C38.2873 167.572 42.1289 166.493 44.6928 165.724C44.5649 163.445 44.294 160.04 43.8663 156.708C43.406 153.123 42.7728 149.699 41.9703 147.825C41.835 147.509 42.0178 147.157 42.3785 147.039ZM34.1765 148.225C34.5596 148.189 34.9036 148.431 34.945 148.767L36.4131 160.674L23.1832 162.262C22.8014 162.308 22.4495 162.074 22.3972 161.74C22.3448 161.406 22.6119 161.097 22.9936 161.052L34.8803 159.625L33.5577 148.898C33.5163 148.562 33.7934 148.261 34.1765 148.225ZM52.8883 148.858C53.2574 148.761 53.6463 148.944 53.757 149.267C57.1977 159.306 52.3096 166.026 50.1737 168.722C48.5433 170.78 45.6809 173.183 42.1787 175.194C38.6737 177.207 34.4756 178.857 30.1574 179.361C29.7755 179.406 29.4246 179.171 29.3737 178.837C29.3227 178.502 29.5911 178.195 29.973 178.151C34.027 177.678 38.0281 176.117 41.4133 174.173C44.8014 172.227 47.5205 169.928 49.027 168.026C51.0772 165.438 55.6776 159.122 52.4205 149.618C52.3098 149.295 52.5192 148.955 52.8883 148.858Z" fill="#2E7A48"/>
</g>
<path d="M63.9205 128.629C69.0015 127.532 73.2598 126.298 76.8068 124.979C77.6323 124.671 78.4192 124.36 79.1691 124.044C80.5934 123.444 81.8837 122.83 83.0498 122.206C85.0702 121.124 86.7174 120.013 88.0413 118.895C89.4845 117.676 90.5436 116.449 91.2835 115.244C92.1867 113.774 92.6142 112.336 92.684 110.986C92.7788 109.151 92.2135 107.478 91.2835 106.103C90.627 105.132 89.7887 104.31 88.8728 103.685C86.4317 102.292 84.1125 101.824 81.9415 102.057C80.7394 102.187 79.5827 102.531 78.476 103.053C77.7525 103.394 77.0505 103.811 76.371 104.293C75.1928 105.129 74.0825 106.162 73.0468 107.335C71.9204 108.611 70.8821 110.055 69.9404 111.594C69.0653 113.024 68.2737 114.538 67.5721 116.078C66.9628 117.415 66.4215 118.772 65.9527 120.111C64.8738 123.194 64.1784 126.184 63.9205 128.629Z" fill="#F4586E"/>
<g style="mix-blend-mode:multiply">
<path d="M91.0236 105.739L86.6134 105.753L82.4739 102.015C82.2955 102.024 82.118 102.038 81.9416 102.057C81.8038 102.072 81.6665 102.09 81.5299 102.11C81.5421 102.184 81.5798 102.255 81.6432 102.312L86.2632 106.484L91.2849 106.468C91.3589 106.468 91.4284 106.451 91.4885 106.421C91.4224 106.313 91.354 106.207 91.2835 106.103C91.1998 105.979 91.113 105.858 91.0236 105.739Z" fill="#F4586E"/>
<path d="M92.6567 111.35C92.6687 111.228 92.6778 111.106 92.6841 110.986C92.6905 110.861 92.6939 110.737 92.6943 110.614L83.6425 108.835L78.8494 102.885C78.7243 102.938 78.5999 102.995 78.476 103.053C78.3544 103.11 78.2334 103.17 78.113 103.232C78.12 103.243 78.1278 103.253 78.1363 103.264L83.1482 109.486L92.593 111.342C92.6143 111.346 92.6356 111.349 92.6567 111.35Z" fill="#F4586E"/>
<path d="M91.0682 115.582C91.1428 115.469 91.2146 115.357 91.2835 115.244C91.35 115.136 91.4139 115.028 91.4752 114.92C91.4384 114.904 91.398 114.891 91.355 114.885L79.5014 113.066L76.7723 104.198C76.7573 104.149 76.7315 104.105 76.6979 104.068C76.5883 104.141 76.4794 104.216 76.371 104.293C76.2531 104.377 76.1358 104.463 76.0192 104.55L78.8365 113.705L91.0682 115.582Z" fill="#F4586E"/>
<path d="M87.6408 119.225C87.7775 119.115 87.911 119.005 88.0413 118.895C88.1422 118.81 88.2411 118.724 88.3382 118.639C88.2729 118.581 88.1848 118.541 88.0847 118.532L75.237 117.344L73.4576 107.279C73.4408 107.184 73.3837 107.104 73.304 107.049C73.2177 107.143 73.132 107.239 73.0468 107.335C72.9294 107.468 72.8129 107.603 72.6973 107.74L74.5132 118.012L87.6408 119.225Z" fill="#F4586E"/>
<path d="M82.403 122.544C82.6227 122.432 82.8383 122.319 83.0498 122.206C83.169 122.142 83.287 122.078 83.4036 122.014C83.3339 121.915 83.2116 121.847 83.0693 121.841L71.2372 121.351L70.3548 111.565C70.3433 111.438 70.2582 111.33 70.1389 111.273C70.0723 111.38 70.0061 111.487 69.9404 111.594C69.8179 111.794 69.697 111.996 69.5777 112.2L70.4659 122.05L82.403 122.544Z" fill="#F4586E"/>
<path d="M78.0516 124.501C78.4329 124.349 78.8054 124.197 79.1691 124.044C79.2949 123.991 79.4196 123.938 79.5433 123.885C79.4699 123.752 79.3083 123.666 79.1309 123.681L67.9879 124.579V116.078C67.9879 115.924 67.8804 115.793 67.728 115.739C67.6756 115.852 67.6236 115.965 67.5722 116.078C67.4298 116.39 67.2911 116.704 67.1561 117.018V125.379L78.0516 124.501Z" fill="#F4586E"/>
</g>
<g style="mix-blend-mode:multiply">
<path d="M64.0239 127.789C64.0239 127.788 64.0238 127.789 64.0239 127.789L88.3964 103.424C88.5548 103.507 88.7137 103.594 88.8732 103.685C89.0176 103.783 89.1601 103.887 89.3003 103.995L89.2898 104.006L64.3421 128.946L56.0247 137.463C55.8254 137.667 55.4753 137.691 55.2428 137.516C55.0103 137.341 54.9834 137.034 55.1827 136.83L63.5001 128.312L64.0239 127.789Z" fill="#F4586E"/>
</g>
<path d="M55.5265 144.522C55.4195 142.392 55.3515 140.314 55.3188 138.288L55.3036 137.106C55.1048 116.144 60.7697 87.4949 63.936 80.2872C64.0492 80.0295 64.3796 79.9009 64.674 80C64.9683 80.0991 65.1152 80.3884 65.002 80.6462C61.8575 87.8044 56.1457 116.65 56.4565 137.994C56.4831 139.819 56.5385 141.689 56.6256 143.601L56.6822 144.765C57.4927 160.415 60.4198 178.854 66.9375 199.366C67.022 199.632 66.8442 199.908 66.5403 199.982C66.2365 200.056 65.9216 199.9 65.8371 199.634C59.2558 178.921 56.3197 160.308 55.5265 144.522Z" fill="#0A3019"/>
<path d="M82.428 14.0034C66.7537 10.3262 64.22 32.8371 64.9125 44.5521C57.7103 35.0475 46.7169 16.3287 30.9597 25.8836C21.0827 33.7599 45.5055 49.5131 58.9516 56.4052C17.6446 49.5687 14.128 63.7281 17.533 71.6624C26.3176 87.1787 49.8648 74.6604 60.5404 66.4618C49.8861 78.403 33.5515 99.3751 52.4167 106.349C71.0667 110.215 75.0903 84.9956 74.5074 72.2869C82.834 82.565 103.594 95.4202 114.016 86.1428C125.64 72.56 99.1773 66.0122 84.4933 64.4361C97.9811 64.2025 121.514 57.831 119.128 46.568C116.143 32.4828 89.0951 42.4104 76.9934 48.9154C85.3359 38.8102 98.1023 17.6807 82.428 14.0034Z" fill="white"/>
<path fill-rule="evenodd" clip-rule="evenodd" d="M81.8209 21.1458C81.9766 21.3813 81.8845 21.6824 81.6151 21.8183C81.3313 21.9614 80.954 22.3242 80.5083 22.9662C80.0746 23.5907 79.6169 24.4185 79.1448 25.4102C78.2015 27.3922 77.2244 29.9799 76.2828 32.7949C74.4008 38.422 72.6772 44.9094 71.6657 49.1657C71.6025 49.4319 71.3042 49.6027 70.9996 49.5471C70.6949 49.4915 70.4993 49.2307 70.5625 48.9645C71.5778 44.6921 73.3083 38.1776 75.2013 32.5177C76.1474 29.6891 77.138 27.0619 78.1045 25.0312C78.5873 24.0167 79.07 23.1386 79.5449 22.4546C80.0077 21.788 80.5072 21.2395 81.0512 20.9652C81.3206 20.8294 81.6652 20.9102 81.8209 21.1458ZM49.2545 38.0827C53.4953 41.4934 57.0451 45.3562 59.0234 47.8803C59.1993 48.1048 59.1338 48.4112 58.8772 48.5647C58.6206 48.7182 58.2699 48.6607 58.094 48.4362C56.1568 45.9645 52.6615 42.1603 48.492 38.807C44.3064 35.4407 39.5198 32.5931 34.999 31.9257C34.6921 31.8804 34.4851 31.6263 34.5366 31.3581C34.5882 31.09 34.8787 30.9094 35.1855 30.9547C40.0409 31.6715 45.0298 34.6849 49.2545 38.0827ZM112.394 49.4468C112.392 49.7187 112.139 49.9375 111.828 49.9356C106.565 49.9028 99.9352 51.2836 93.7516 53.0446C87.5796 54.8024 81.9061 56.9229 78.5754 58.3361C78.2956 58.4549 77.9584 58.3528 77.8223 58.1081C77.6862 57.8635 77.8027 57.5689 78.0824 57.4502C81.4555 56.019 87.1767 53.8811 93.4015 52.1083C99.6149 50.3388 106.385 48.9169 111.834 48.9509C112.146 48.9528 112.396 49.1748 112.394 49.4468ZM55.0468 61.4554C55.0584 61.7271 54.8157 61.9554 54.5048 61.9653C50.7067 62.0854 44.598 62.6279 38.6446 63.8631C32.662 65.1043 26.959 67.0212 23.8549 69.8253C23.6387 70.0207 23.282 70.0257 23.0583 69.8365C22.8346 69.6473 22.8285 69.3356 23.0447 69.1402C26.3902 66.1181 32.3755 64.1514 38.3833 62.9049C44.4202 61.6524 50.6037 61.1032 54.4629 60.9811C54.7738 60.9713 55.0352 61.1836 55.0468 61.4554ZM79.0335 69.0772C79.2223 68.8612 79.5758 68.8201 79.8231 68.9853C82.5359 70.7972 87.3754 73.5272 93.0417 75.8013C98.7148 78.0781 105.166 79.8771 111.116 79.8736C111.428 79.8734 111.68 80.0937 111.681 80.3657C111.681 80.6376 111.43 80.8582 111.118 80.8584C104.934 80.862 98.3113 78.9994 92.5724 76.6961C86.8267 74.3902 81.9158 71.6218 79.1395 69.7675C78.8922 69.6023 78.8447 69.2932 79.0335 69.0772ZM65.7137 72.2645C66.0201 72.312 66.2247 72.5675 66.1707 72.8353C65.4142 76.5839 63.905 82.4729 61.8317 87.9707C60.7951 90.7195 59.6134 93.3813 58.3086 95.6329C57.0097 97.8744 55.5635 99.7542 53.977 100.895C53.7369 101.068 53.3818 101.038 53.1839 100.828C52.9861 100.618 53.0203 100.308 53.2604 100.135C54.6659 99.1238 56.0271 97.3895 57.3033 95.1873C58.5737 92.9951 59.7351 90.3835 60.7615 87.6616C62.8144 82.218 64.3118 76.3764 65.0611 72.6633C65.1151 72.3955 65.4073 72.217 65.7137 72.2645Z" fill="#CDCDCD"/>
<ellipse cx="6.14926" cy="5.47033" rx="6.14926" ry="5.47033" transform="matrix(0.973567 0.228401 -0.292639 0.956223 65.105 51.7328)" fill="#CDCDCD"/>
<ellipse cx="2.79512" cy="2.48652" rx="2.79512" ry="2.48652" transform="matrix(0.973567 0.228401 -0.292639 0.956223 67.4971 55.3521)" fill="#9B9B9B"/>
<g style="mix-blend-mode:multiply">
<path d="M82.428 14.0034C66.7537 10.3262 64.22 32.8371 64.9125 44.5521C57.7103 35.0475 46.7169 16.3287 30.9597 25.8836C21.0827 33.7599 45.5055 49.5131 58.9516 56.4052C17.6446 49.5687 14.128 63.7281 17.533 71.6624C26.3176 87.1787 49.8648 74.6604 60.5404 66.4618C49.8861 78.403 33.5515 99.3751 52.4167 106.349C71.0667 110.215 75.0903 84.9956 74.5074 72.2869C82.834 82.565 103.594 95.4202 114.016 86.1428C125.64 72.56 99.1773 66.0122 84.4933 64.4361C97.9811 64.2025 121.514 57.831 119.128 46.568C116.143 32.4828 89.0951 42.4104 76.9934 48.9154C85.3359 38.8102 98.1023 17.6807 82.428 14.0034Z" fill="#F4586E"/>
<path fill-rule="evenodd" clip-rule="evenodd" d="M81.8209 21.1458C81.9766 21.3813 81.8845 21.6824 81.6151 21.8183C81.3313 21.9614 80.954 22.3242 80.5083 22.9662C80.0746 23.5907 79.6169 24.4185 79.1448 25.4102C78.2015 27.3922 77.2244 29.9799 76.2828 32.7949C74.4008 38.422 72.6772 44.9094 71.6657 49.1657C71.6025 49.4319 71.3042 49.6027 70.9996 49.5471C70.6949 49.4915 70.4993 49.2307 70.5625 48.9645C71.5778 44.6921 73.3083 38.1776 75.2013 32.5177C76.1474 29.6891 77.138 27.0619 78.1045 25.0312C78.5873 24.0167 79.07 23.1386 79.5449 22.4546C80.0077 21.788 80.5072 21.2395 81.0512 20.9652C81.3206 20.8294 81.6652 20.9102 81.8209 21.1458ZM49.2545 38.0827C53.4953 41.4934 57.0451 45.3562 59.0234 47.8803C59.1993 48.1048 59.1338 48.4112 58.8772 48.5647C58.6206 48.7182 58.2699 48.6607 58.094 48.4362C56.1568 45.9645 52.6615 42.1603 48.492 38.807C44.3064 35.4407 39.5198 32.5931 34.999 31.9257C34.6921 31.8804 34.4851 31.6263 34.5366 31.3581C34.5882 31.09 34.8787 30.9094 35.1855 30.9547C40.0409 31.6715 45.0298 34.6849 49.2545 38.0827ZM112.394 49.4468C112.392 49.7187 112.139 49.9375 111.828 49.9356C106.565 49.9028 99.9352 51.2836 93.7516 53.0446C87.5796 54.8024 81.9061 56.9229 78.5754 58.3361C78.2956 58.4549 77.9584 58.3528 77.8223 58.1081C77.6862 57.8635 77.8027 57.5689 78.0824 57.4502C81.4555 56.019 87.1767 53.8811 93.4015 52.1083C99.6149 50.3388 106.385 48.9169 111.834 48.9509C112.146 48.9528 112.396 49.1748 112.394 49.4468ZM55.0468 61.4554C55.0584 61.7271 54.8157 61.9554 54.5048 61.9653C50.7067 62.0854 44.598 62.6279 38.6446 63.8631C32.662 65.1043 26.959 67.0212 23.8549 69.8253C23.6387 70.0207 23.282 70.0257 23.0583 69.8365C22.8346 69.6473 22.8285 69.3356 23.0447 69.1402C26.3902 66.1181 32.3755 64.1514 38.3833 62.9049C44.4202 61.6524 50.6037 61.1032 54.4629 60.9811C54.7738 60.9713 55.0352 61.1836 55.0468 61.4554ZM79.0335 69.0772C79.2223 68.8612 79.5758 68.8201 79.8231 68.9853C82.5359 70.7972 87.3754 73.5272 93.0417 75.8013C98.7148 78.0781 105.166 79.8771 111.116 79.8736C111.428 79.8734 111.68 80.0937 111.681 80.3657C111.681 80.6376 111.43 80.8582 111.118 80.8584C104.934 80.862 98.3113 78.9994 92.5724 76.6961C86.8267 74.3902 81.9158 71.6218 79.1395 69.7675C78.8922 69.6023 78.8447 69.2932 79.0335 69.0772ZM65.7137 72.2645C66.0201 72.312 66.2247 72.5675 66.1707 72.8353C65.4142 76.5839 63.905 82.4729 61.8317 87.9707C60.7951 90.7195 59.6134 93.3813 58.3086 95.6329C57.0097 97.8744 55.5635 99.7542 53.977 100.895C53.7369 101.068 53.3818 101.038 53.1839 100.828C52.9861 100.618 53.0203 100.308 53.2604 100.135C54.6659 99.1238 56.0271 97.3895 57.3033 95.1873C58.5737 92.9951 59.7351 90.3835 60.7615 87.6616C62.8144 82.218 64.3118 76.3764 65.0611 72.6633C65.1151 72.3955 65.4073 72.217 65.7137 72.2645Z" fill="#F4586E"/>
<ellipse cx="6.14926" cy="5.47033" rx="6.14926" ry="5.47033" transform="matrix(0.973567 0.228401 -0.292639 0.956223 65.105 51.7328)" fill="#F4586E"/>
<ellipse cx="2.79512" cy="2.48652" rx="2.79512" ry="2.48652" transform="matrix(0.973567 0.228401 -0.292639 0.956223 67.4971 55.3521)" fill="#F4586E"/>
</g>
<g style="mix-blend-mode:soft-light">
<path d="M82.428 14.0034C66.7537 10.3262 64.22 32.8371 64.9125 44.5521C57.7103 35.0475 46.7169 16.3287 30.9597 25.8836C21.0827 33.7599 45.5055 49.5131 58.9516 56.4052C17.6446 49.5687 14.128 63.7281 17.533 71.6624C26.3176 87.1787 49.8648 74.6604 60.5404 66.4618C49.8861 78.403 33.5515 99.3751 52.4167 106.349C71.0667 110.215 75.0903 84.9956 74.5074 72.2869C82.834 82.565 103.594 95.4202 114.016 86.1428C125.64 72.56 99.1773 66.0122 84.4933 64.4361C97.9811 64.2025 121.514 57.831 119.128 46.568C116.143 32.4828 89.0951 42.4104 76.9934 48.9154C85.3359 38.8102 98.1023 17.6807 82.428 14.0034Z" fill="#F4586E"/>
<path fill-rule="evenodd" clip-rule="evenodd" d="M81.8209 21.1458C81.9766 21.3813 81.8845 21.6824 81.6151 21.8183C81.3313 21.9614 80.954 22.3242 80.5083 22.9662C80.0746 23.5907 79.6169 24.4185 79.1448 25.4102C78.2015 27.3922 77.2244 29.9799 76.2828 32.7949C74.4008 38.422 72.6772 44.9094 71.6657 49.1657C71.6025 49.4319 71.3042 49.6027 70.9996 49.5471C70.6949 49.4915 70.4993 49.2307 70.5625 48.9645C71.5778 44.6921 73.3083 38.1776 75.2013 32.5177C76.1474 29.6891 77.138 27.0619 78.1045 25.0312C78.5873 24.0167 79.07 23.1386 79.5449 22.4546C80.0077 21.788 80.5072 21.2395 81.0512 20.9652C81.3206 20.8294 81.6652 20.9102 81.8209 21.1458ZM49.2545 38.0827C53.4953 41.4934 57.0451 45.3562 59.0234 47.8803C59.1993 48.1048 59.1338 48.4112 58.8772 48.5647C58.6206 48.7182 58.2699 48.6607 58.094 48.4362C56.1568 45.9645 52.6615 42.1603 48.492 38.807C44.3064 35.4407 39.5198 32.5931 34.999 31.9257C34.6921 31.8804 34.4851 31.6263 34.5366 31.3581C34.5882 31.09 34.8787 30.9094 35.1855 30.9547C40.0409 31.6715 45.0298 34.6849 49.2545 38.0827ZM112.394 49.4468C112.392 49.7187 112.139 49.9375 111.828 49.9356C106.565 49.9028 99.9352 51.2836 93.7516 53.0446C87.5796 54.8024 81.9061 56.9229 78.5754 58.3361C78.2956 58.4549 77.9584 58.3528 77.8223 58.1081C77.6862 57.8635 77.8027 57.5689 78.0824 57.4502C81.4555 56.019 87.1767 53.8811 93.4015 52.1083C99.6149 50.3388 106.385 48.9169 111.834 48.9509C112.146 48.9528 112.396 49.1748 112.394 49.4468ZM55.0468 61.4554C55.0584 61.7271 54.8157 61.9554 54.5048 61.9653C50.7067 62.0854 44.598 62.6279 38.6446 63.8631C32.662 65.1043 26.959 67.0212 23.8549 69.8253C23.6387 70.0207 23.282 70.0257 23.0583 69.8365C22.8346 69.6473 22.8285 69.3356 23.0447 69.1402C26.3902 66.1181 32.3755 64.1514 38.3833 62.9049C44.4202 61.6524 50.6037 61.1032 54.4629 60.9811C54.7738 60.9713 55.0352 61.1836 55.0468 61.4554ZM79.0335 69.0772C79.2223 68.8612 79.5758 68.8201 79.8231 68.9853C82.5359 70.7972 87.3754 73.5272 93.0417 75.8013C98.7148 78.0781 105.166 79.8771 111.116 79.8736C111.428 79.8734 111.68 80.0937 111.681 80.3657C111.681 80.6376 111.43 80.8582 111.118 80.8584C104.934 80.862 98.3113 78.9994 92.5724 76.6961C86.8267 74.3902 81.9158 71.6218 79.1395 69.7675C78.8922 69.6023 78.8447 69.2932 79.0335 69.0772ZM65.7137 72.2645C66.0201 72.312 66.2247 72.5675 66.1707 72.8353C65.4142 76.5839 63.905 82.4729 61.8317 87.9707C60.7951 90.7195 59.6134 93.3813 58.3086 95.6329C57.0097 97.8744 55.5635 99.7542 53.977 100.895C53.7369 101.068 53.3818 101.038 53.1839 100.828C52.9861 100.618 53.0203 100.308 53.2604 100.135C54.6659 99.1238 56.0271 97.3895 57.3033 95.1873C58.5737 92.9951 59.7351 90.3835 60.7615 87.6616C62.8144 82.218 64.3118 76.3764 65.0611 72.6633C65.1151 72.3955 65.4073 72.217 65.7137 72.2645Z" fill="#F4586E"/>
<ellipse cx="6.14926" cy="5.47033" rx="6.14926" ry="5.47033" transform="matrix(0.973567 0.228401 -0.292639 0.956223 65.105 51.7328)" fill="#F4586E"/>
<ellipse cx="2.79512" cy="2.48652" rx="2.79512" ry="2.48652" transform="matrix(0.973567 0.228401 -0.292639 0.956223 67.4971 55.3521)" fill="#F4586E"/>
</g>
</svg>
