<svg width="184" height="205" viewBox="0 0 184 205" fill="none" xmlns="http://www.w3.org/2000/svg">
<path d="M71.3513 55C73.8107 69.6465 77.2539 103.883 71.3513 123.655C63.973 148.371 57.1622 184.072 66.8108 200" stroke="#0A3019" stroke-linecap="round"/>
<path d="M62.5727 122.419C58.2949 121.496 54.7098 120.457 51.7236 119.346C51.0286 119.087 50.366 118.825 49.7347 118.559C48.5356 118.054 47.4492 117.537 46.4675 117.011C44.7665 116.101 43.3798 115.165 42.2651 114.224C41.0501 113.198 40.1584 112.165 39.5355 111.151C38.7751 109.912 38.4151 108.702 38.3564 107.565C38.2765 106.021 38.7525 104.612 39.5355 103.454C40.0882 102.637 40.7939 101.945 41.5651 101.419C43.6202 100.246 45.5728 99.8517 47.4006 100.048C48.4127 100.157 49.3865 100.447 50.3183 100.886C50.9274 101.174 51.5184 101.525 52.0905 101.931C53.0825 102.635 54.0172 103.504 54.8892 104.492C55.8375 105.566 56.7117 106.781 57.5045 108.077C58.2412 109.282 58.9077 110.556 59.4984 111.852C60.0113 112.978 60.4671 114.12 60.8618 115.248C61.7701 117.844 62.3556 120.361 62.5727 122.419Z" fill="#51B022"/>
<g style="mix-blend-mode:multiply">
<path d="M39.7543 103.148L43.4672 103.16L46.9524 100.012C47.1026 100.02 47.252 100.032 47.4005 100.048C47.5166 100.061 47.6321 100.076 47.7471 100.093C47.7369 100.155 47.7051 100.214 47.6517 100.263L43.7621 103.775L39.5343 103.762C39.4719 103.762 39.4135 103.747 39.3629 103.722C39.4185 103.631 39.4761 103.542 39.5354 103.454C39.6059 103.35 39.679 103.248 39.7543 103.148Z" fill="#51B022"/>
<path d="M38.3794 107.872C38.3692 107.769 38.3616 107.667 38.3563 107.565C38.3509 107.46 38.348 107.356 38.3477 107.252L45.9685 105.754L50.0039 100.745C50.1092 100.79 50.214 100.837 50.3183 100.887C50.4206 100.935 50.5225 100.985 50.6239 101.037C50.6179 101.046 50.6114 101.055 50.6043 101.064L46.3846 106.303L38.4329 107.865C38.415 107.869 38.3971 107.871 38.3794 107.872Z" fill="#51B022"/>
<path d="M39.7167 111.435C39.6539 111.34 39.5935 111.245 39.5354 111.151C39.4795 111.06 39.4257 110.969 39.3741 110.878C39.4051 110.864 39.439 110.853 39.4753 110.848L49.455 109.317L51.7526 101.851C51.7653 101.809 51.787 101.772 51.8153 101.741C51.9075 101.803 51.9992 101.866 52.0905 101.931C52.1898 102.001 52.2885 102.073 52.3867 102.147L50.0147 109.855L39.7167 111.435Z" fill="#51B022"/>
<path d="M42.6023 114.502C42.4872 114.409 42.3748 114.317 42.2651 114.224C42.1802 114.152 42.0969 114.081 42.0152 114.009C42.0701 113.959 42.1443 113.926 42.2285 113.918L53.0452 112.919L54.5433 104.445C54.5575 104.365 54.6055 104.297 54.6726 104.25C54.7452 104.33 54.8174 104.411 54.8892 104.492C54.988 104.604 55.0861 104.717 55.1834 104.833L53.6546 113.48L42.6023 114.502Z" fill="#51B022"/>
<path d="M47.0121 117.297C46.8271 117.202 46.6455 117.107 46.4675 117.012C46.3671 116.958 46.2678 116.904 46.1697 116.85C46.2283 116.767 46.3313 116.71 46.4511 116.705L56.4127 116.292L57.1556 108.053C57.1653 107.946 57.2369 107.855 57.3373 107.807C57.3934 107.897 57.4491 107.987 57.5045 108.077C57.6076 108.246 57.7094 108.416 57.8098 108.587L57.0621 116.88L47.0121 117.297Z" fill="#51B022"/>
<path d="M50.6756 118.944C50.3545 118.816 50.0409 118.688 49.7347 118.559C49.6288 118.515 49.5238 118.47 49.4197 118.425C49.4815 118.313 49.6175 118.241 49.7669 118.253L59.1483 119.009V111.852C59.1483 111.723 59.2388 111.613 59.3671 111.567C59.4112 111.662 59.455 111.757 59.4983 111.852C59.6182 112.115 59.735 112.379 59.8486 112.644V119.683L50.6756 118.944Z" fill="#51B022"/>
</g>
<g style="mix-blend-mode:multiply">
<path d="M62.4861 121.712C62.4861 121.712 62.4861 121.712 62.4861 121.712L41.9665 101.199C41.8332 101.269 41.6994 101.342 41.5652 101.418C41.4436 101.501 41.3236 101.589 41.2056 101.68L41.2144 101.689L62.2182 122.686L69.2207 129.857C69.3885 130.029 69.6832 130.049 69.879 129.901C70.0748 129.754 70.0974 129.495 69.9296 129.324L62.9271 122.153L62.4861 121.712Z" fill="#51B022"/>
</g>
<path d="M108.371 117.137C114.141 116.77 126.872 113.073 131.631 101.22C125.463 101.344 112.177 104.701 108.371 117.137Z" fill="#51B022"/>
<path d="M114.004 131.085C119.077 132.997 130.128 134.787 133.748 126.657C130.581 124.68 122.198 122.797 114.004 131.085Z" fill="#51B022"/>
<path d="M96.3122 117.875C99.9257 116.644 106.616 111.314 104.471 99.8365C100.323 103.02 92.8847 111.085 96.3122 117.875Z" fill="#51B022"/>
<path d="M109.218 142.102C108.078 146.615 102.735 154.797 90.4873 151.425C94.5233 143.892 104.656 142.071 109.218 142.102Z" fill="#51B022"/>
<path d="M71.991 122.769C75.2904 123.543 85.5309 127.941 75.0124 143.43C68.5348 129.44 71.6349 123.932 71.991 122.769Z" fill="#51B022"/>
<path d="M64.1574 148.366C60.5691 151.681 54.8377 160.271 60.6191 168.111C68.3204 162.436 66.1868 152.583 64.1574 148.366Z" fill="#51B022"/>
<path d="M94.7117 161.769C89.5406 160.947 78.0928 162.918 73.6693 177.372C84.9061 179.481 92.3795 167.849 94.7117 161.769Z" fill="#51B022"/>
<path fill-rule="evenodd" clip-rule="evenodd" d="M120.743 107.704C120.598 107.529 120.318 107.49 120.119 107.617C114.217 111.374 104.852 118.889 94.93 129.711C94.6496 128.245 94.6331 125.781 95.4009 122.436C96.3213 118.428 98.3629 113.182 102.389 106.931C102.51 106.743 102.434 106.504 102.219 106.398C102.004 106.292 101.731 106.358 101.61 106.547C97.5427 112.862 95.465 118.185 94.5242 122.282C93.6277 126.187 93.7585 129.002 94.2078 130.504C88.4152 136.899 82.4553 144.416 76.9032 152.965C76.371 151.729 75.8001 149.587 75.5673 146.531C75.2835 142.806 75.5043 137.748 76.8927 131.371C76.939 131.159 76.7798 130.954 76.5372 130.913C76.2947 130.873 76.0605 131.012 76.0143 131.225C74.613 137.661 74.3857 142.786 74.6751 146.584C74.9484 150.172 75.6849 152.598 76.3473 153.826C71.1351 161.958 66.3027 171.007 62.3339 180.9C60.9482 175.984 59.6984 165.707 63.7617 155.788C63.8451 155.585 63.7242 155.361 63.4918 155.288C63.2594 155.215 63.0034 155.32 62.92 155.524C58.4048 166.546 60.3248 177.974 61.8569 182.334L61.9941 182.725L62.4339 182.588C67.4186 181.037 79.2293 176.112 86.6156 168.779C86.7789 168.617 86.7612 168.369 86.576 168.226C86.3907 168.083 86.1082 168.099 85.9449 168.261C79.1043 175.053 68.3341 179.772 63.0158 181.564C66.9967 171.558 71.8684 162.413 77.1296 154.206C80.0405 153.928 84.655 153.258 89.3561 152.117C94.1718 150.948 99.1332 149.273 102.435 146.988C102.629 146.854 102.662 146.608 102.509 146.438C102.356 146.269 102.075 146.24 101.881 146.374C98.7229 148.559 93.9033 150.201 89.1172 151.362C84.7994 152.41 80.5537 153.057 77.6735 153.363C83.1953 144.859 89.1226 137.381 94.8839 131.017C97.8102 131.472 102.64 131.915 107.99 131.822C113.502 131.726 119.602 131.061 124.751 129.235C124.98 129.153 125.09 128.925 124.997 128.725C124.905 128.524 124.644 128.428 124.415 128.509C119.408 130.285 113.431 130.944 107.973 131.039C102.966 131.126 98.4246 130.738 95.5201 130.318C105.442 119.476 114.798 111.972 120.645 108.25C120.844 108.123 120.889 107.878 120.743 107.704Z" fill="#0A3019"/>
<path d="M86.7381 97.245C79.8501 98.9623 75.9282 107.633 73.7757 112.732C76.1332 110.227 81.6416 105.355 84.2307 104.413C87.9206 103.072 91.7055 102.957 97.193 109.857C98.423 103.417 95.348 95.0983 86.7381 97.245Z" fill="#51B022"/>
<g style="mix-blend-mode:multiply">
<path fill-rule="evenodd" clip-rule="evenodd" d="M83.9179 102.091C79.6453 104.346 75.7694 109.012 73.5064 112.602C73.4246 112.732 73.4789 112.895 73.6277 112.967C73.7765 113.038 73.9635 112.991 74.0453 112.861C76.2923 109.296 80.1039 104.731 84.2362 102.55C86.2962 101.463 88.3978 100.987 90.4134 101.479C92.4295 101.97 94.4367 103.449 96.2598 106.418C96.34 106.549 96.5263 106.598 96.676 106.528C96.8257 106.458 96.8821 106.296 96.8019 106.165C94.935 103.124 92.8165 101.507 90.5789 100.962C88.3407 100.416 86.0605 100.96 83.9179 102.091Z" fill="#51B022"/>
</g>
<path d="M85.0577 0C78.3478 0 74.1286 11.0979 72.8578 16.6469C68.2828 11.5419 56.3875 2.13081 48.4575 5.32701C40.5276 8.52322 43.6284 20.4202 46.17 25.9692C40.0701 22.8618 26.8027 19.0441 22.5327 28.6327C18.2627 38.2213 30.4119 44.6137 37.0202 46.6114C29.9035 49.2749 16.8903 56.8659 21.7703 65.9218C26.6502 74.9777 38.0371 71.9147 43.1205 69.2512C42.6121 76.3539 43.7305 90.8256 52.2704 91.891C60.8104 92.9564 65.487 83.9005 66.7578 79.2393C69.5536 86.564 77.4324 97.218 88.8702 95.8862C100.78 94.4995 98.5285 80.793 96.4951 75.9099C103.612 76.1319 118.608 74.9777 121.657 68.5853C124.707 62.1929 113.27 54.8238 107.17 51.9384C114.287 50.6066 128.52 46.2118 128.52 39.2867C128.52 32.3616 117.337 31.0742 111.745 31.2962C116.32 28.6327 123.945 21.7076 117.845 15.3152C111.745 8.92275 101.07 13.5395 96.4951 16.6469C95.4785 11.0979 91.7677 0 85.0577 0Z" fill="#CDCDCD"/>
<path d="M75.5439 41.5814C75.5439 43.7879 74.5197 45.5767 73.2564 45.5767C71.993 45.5767 70.9689 43.7879 70.9689 41.5814C70.9689 39.3749 71.993 37.5861 73.2564 37.5861C74.5197 37.5861 75.5439 39.3749 75.5439 41.5814Z" fill="#9B9B9B"/>
<path d="M86.5905 40.9955C85.9172 43.19 84.3528 44.7307 83.0963 44.4367C81.8398 44.1427 81.3671 42.1253 82.0405 39.9308C82.7138 37.7363 84.2782 36.1956 85.5347 36.4897C86.7912 36.7837 87.2639 38.801 86.5905 40.9955Z" fill="#9B9B9B"/>
<path d="M69.1377 40.5826C70.4011 42.4935 70.5383 44.4898 69.4442 45.0414C68.3501 45.593 66.439 44.4911 65.1757 42.5802C63.9124 40.6693 63.7752 38.673 64.8692 38.1214C65.9633 37.5698 67.8744 38.6717 69.1377 40.5826Z" fill="#9B9B9B"/>
<path d="M74.0887 50.3492C74.1295 52.366 73.2264 54.0154 72.0717 54.0332C70.917 54.051 69.9479 52.4305 69.9071 50.4137C69.8664 48.3969 70.7694 46.7476 71.9241 46.7298C73.0788 46.712 74.0479 48.3325 74.0887 50.3492Z" fill="#9B9B9B"/>
<path d="M70.5819 54.0666C71.7368 55.8135 71.8622 57.6384 70.8621 58.1426C69.8619 58.6469 68.1149 57.6396 66.96 55.8928C65.8051 54.1459 65.6797 52.321 66.6799 51.8167C67.68 51.3125 69.427 52.3198 70.5819 54.0666Z" fill="#9B9B9B"/>
<path d="M66.6546 46.9222C67.6322 48.4008 67.7383 49.9454 66.8918 50.3722C66.0452 50.7991 64.5665 49.9465 63.5889 48.4679C62.6114 46.9893 62.5052 45.4446 63.3518 45.0178C64.1984 44.5909 65.6771 45.4436 66.6546 46.9222Z" fill="#9B9B9B"/>
<path d="M79.7992 54.5554C79.84 56.5721 78.937 58.2215 77.7823 58.2393C76.6276 58.2571 75.6584 56.6366 75.6177 54.6198C75.5769 52.6031 76.4799 50.9537 77.6346 50.9359C78.7893 50.9181 79.7585 52.5386 79.7992 54.5554Z" fill="#9B9B9B"/>
<path d="M84.3072 49.234C83.1523 50.9808 81.4053 51.9882 80.4051 51.4839C79.405 50.9796 79.5304 49.1547 80.6853 47.4079C81.8402 45.661 83.5872 44.6537 84.5873 45.158C85.5875 45.6622 85.4621 47.4871 84.3072 49.234Z" fill="#9B9B9B"/>
<path d="M85.0887 55.2436C84.0841 56.7632 82.5644 57.6394 81.6943 57.2008C80.8243 56.7621 80.9334 55.1747 81.938 53.6551C82.9427 52.1355 84.4624 51.2593 85.3324 51.6979C86.2024 52.1366 86.0933 53.7241 85.0887 55.2436Z" fill="#9B9B9B"/>
<path d="M78.9887 47.2531C77.9841 48.7727 76.4644 49.6489 75.5944 49.2103C74.7243 48.7716 74.8334 47.1841 75.8381 45.6646C76.8427 44.145 78.3624 43.2688 79.2324 43.7074C80.1024 44.1461 79.9933 45.7335 78.9887 47.2531Z" fill="#9B9B9B"/>
<path d="M80.7069 39.4315C80.7069 41.1861 79.8925 42.6085 78.8879 42.6085C77.8832 42.6085 77.0688 41.1861 77.0688 39.4315C77.0688 37.6768 77.8832 36.2544 78.8879 36.2544C79.8925 36.2544 80.7069 37.6768 80.7069 39.4315Z" fill="#9B9B9B"/>
<g style="mix-blend-mode:multiply">
<path d="M85.0577 0C78.3478 0 74.1286 11.0979 72.8578 16.6469C68.2828 11.5419 56.3875 2.13081 48.4575 5.32701C40.5276 8.52322 43.6284 20.4202 46.17 25.9692C40.0701 22.8618 26.8027 19.0441 22.5327 28.6327C18.2627 38.2213 30.4119 44.6137 37.0202 46.6114C29.9035 49.2749 16.8903 56.8659 21.7703 65.9218C26.6502 74.9777 38.0371 71.9147 43.1205 69.2512C42.6121 76.3539 43.7305 90.8256 52.2704 91.891C60.8104 92.9564 65.487 83.9005 66.7578 79.2393C69.5536 86.564 77.4324 97.218 88.8702 95.8862C100.78 94.4995 98.5285 80.793 96.4951 75.9099C103.612 76.1319 118.608 74.9777 121.657 68.5853C124.707 62.1929 113.27 54.8238 107.17 51.9384C114.287 50.6066 128.52 46.2118 128.52 39.2867C128.52 32.3616 117.337 31.0742 111.745 31.2962C116.32 28.6327 123.945 21.7076 117.845 15.3152C111.745 8.92275 101.07 13.5395 96.4951 16.6469C95.4785 11.0979 91.7677 0 85.0577 0Z" fill="#FE7940"/>
<path d="M75.5439 41.5814C75.5439 43.7879 74.5197 45.5767 73.2564 45.5767C71.993 45.5767 70.9689 43.7879 70.9689 41.5814C70.9689 39.3749 71.993 37.5861 73.2564 37.5861C74.5197 37.5861 75.5439 39.3749 75.5439 41.5814Z" fill="#FE7940"/>
<path d="M86.5905 40.9955C85.9172 43.19 84.3528 44.7307 83.0963 44.4367C81.8398 44.1427 81.3671 42.1253 82.0405 39.9308C82.7138 37.7363 84.2782 36.1956 85.5347 36.4897C86.7912 36.7837 87.2639 38.801 86.5905 40.9955Z" fill="#FE7940"/>
<path d="M69.1377 40.5826C70.4011 42.4935 70.5383 44.4898 69.4442 45.0414C68.3501 45.593 66.439 44.4911 65.1757 42.5802C63.9124 40.6693 63.7752 38.673 64.8692 38.1214C65.9633 37.5698 67.8744 38.6717 69.1377 40.5826Z" fill="#FE7940"/>
<path d="M74.0887 50.3492C74.1295 52.366 73.2264 54.0154 72.0717 54.0332C70.917 54.051 69.9479 52.4305 69.9071 50.4137C69.8664 48.3969 70.7694 46.7476 71.9241 46.7298C73.0788 46.712 74.0479 48.3325 74.0887 50.3492Z" fill="#FE7940"/>
<path d="M70.5819 54.0666C71.7368 55.8135 71.8622 57.6384 70.8621 58.1426C69.8619 58.6469 68.1149 57.6396 66.96 55.8928C65.8051 54.1459 65.6797 52.321 66.6799 51.8167C67.68 51.3125 69.427 52.3198 70.5819 54.0666Z" fill="#FE7940"/>
<path d="M66.6546 46.9222C67.6322 48.4008 67.7383 49.9454 66.8918 50.3722C66.0452 50.7991 64.5665 49.9465 63.5889 48.4679C62.6114 46.9893 62.5052 45.4446 63.3518 45.0178C64.1984 44.5909 65.6771 45.4436 66.6546 46.9222Z" fill="#FE7940"/>
<path d="M79.7992 54.5554C79.84 56.5721 78.937 58.2215 77.7823 58.2393C76.6276 58.2571 75.6584 56.6366 75.6177 54.6198C75.5769 52.6031 76.4799 50.9537 77.6346 50.9359C78.7893 50.9181 79.7585 52.5386 79.7992 54.5554Z" fill="#FE7940"/>
<path d="M84.3072 49.234C83.1523 50.9808 81.4053 51.9882 80.4051 51.4839C79.405 50.9796 79.5304 49.1547 80.6853 47.4079C81.8402 45.661 83.5872 44.6537 84.5873 45.158C85.5875 45.6622 85.4621 47.4871 84.3072 49.234Z" fill="#FE7940"/>
<path d="M85.0887 55.2436C84.0841 56.7632 82.5644 57.6394 81.6943 57.2008C80.8243 56.7621 80.9334 55.1747 81.938 53.6551C82.9427 52.1355 84.4624 51.2593 85.3324 51.6979C86.2024 52.1366 86.0933 53.7241 85.0887 55.2436Z" fill="#FE7940"/>
<path d="M78.9887 47.2531C77.9841 48.7727 76.4644 49.6489 75.5944 49.2103C74.7243 48.7716 74.8334 47.1841 75.8381 45.6646C76.8427 44.145 78.3624 43.2688 79.2324 43.7074C80.1024 44.1461 79.9933 45.7335 78.9887 47.2531Z" fill="#FE7940"/>
<path d="M80.7069 39.4315C80.7069 41.1861 79.8925 42.6085 78.8879 42.6085C77.8832 42.6085 77.0688 41.1861 77.0688 39.4315C77.0688 37.6768 77.8832 36.2544 78.8879 36.2544C79.8925 36.2544 80.7069 37.6768 80.7069 39.4315Z" fill="#FE7940"/>
</g>
<g style="mix-blend-mode:soft-light">
<path d="M85.0577 0C78.3478 0 74.1286 11.0979 72.8578 16.6469C68.2828 11.5419 56.3875 2.13081 48.4575 5.32701C40.5276 8.52322 43.6284 20.4202 46.17 25.9692C40.0701 22.8618 26.8027 19.0441 22.5327 28.6327C18.2627 38.2213 30.4119 44.6137 37.0202 46.6114C29.9035 49.2749 16.8903 56.8659 21.7703 65.9218C26.6502 74.9777 38.0371 71.9147 43.1205 69.2512C42.6121 76.3539 43.7305 90.8256 52.2704 91.891C60.8104 92.9564 65.487 83.9005 66.7578 79.2393C69.5536 86.564 77.4324 97.218 88.8702 95.8862C100.78 94.4995 98.5285 80.793 96.4951 75.9099C103.612 76.1319 118.608 74.9777 121.657 68.5853C124.707 62.1929 113.27 54.8238 107.17 51.9384C114.287 50.6066 128.52 46.2118 128.52 39.2867C128.52 32.3616 117.337 31.0742 111.745 31.2962C116.32 28.6327 123.945 21.7076 117.845 15.3152C111.745 8.92275 101.07 13.5395 96.4951 16.6469C95.4785 11.0979 91.7677 0 85.0577 0Z" fill="#FE7940"/>
<path d="M75.5439 41.5814C75.5439 43.7879 74.5197 45.5767 73.2564 45.5767C71.993 45.5767 70.9689 43.7879 70.9689 41.5814C70.9689 39.3749 71.993 37.5861 73.2564 37.5861C74.5197 37.5861 75.5439 39.3749 75.5439 41.5814Z" fill="#FE7940"/>
<path d="M86.5905 40.9955C85.9172 43.19 84.3528 44.7307 83.0963 44.4367C81.8398 44.1427 81.3671 42.1253 82.0405 39.9308C82.7138 37.7363 84.2782 36.1956 85.5347 36.4897C86.7912 36.7837 87.2639 38.801 86.5905 40.9955Z" fill="#FE7940"/>
<path d="M69.1377 40.5826C70.4011 42.4935 70.5383 44.4898 69.4442 45.0414C68.3501 45.593 66.439 44.4911 65.1757 42.5802C63.9124 40.6693 63.7752 38.673 64.8692 38.1214C65.9633 37.5698 67.8744 38.6717 69.1377 40.5826Z" fill="#FE7940"/>
<path d="M74.0887 50.3492C74.1295 52.366 73.2264 54.0154 72.0717 54.0332C70.917 54.051 69.9479 52.4305 69.9071 50.4137C69.8664 48.3969 70.7694 46.7476 71.9241 46.7298C73.0788 46.712 74.0479 48.3325 74.0887 50.3492Z" fill="#FE7940"/>
<path d="M70.5819 54.0666C71.7368 55.8135 71.8622 57.6384 70.8621 58.1426C69.8619 58.6469 68.1149 57.6396 66.96 55.8928C65.8051 54.1459 65.6797 52.321 66.6799 51.8167C67.68 51.3125 69.427 52.3198 70.5819 54.0666Z" fill="#FE7940"/>
<path d="M66.6546 46.9222C67.6322 48.4008 67.7383 49.9454 66.8918 50.3722C66.0452 50.7991 64.5665 49.9465 63.5889 48.4679C62.6114 46.9893 62.5052 45.4446 63.3518 45.0178C64.1984 44.5909 65.6771 45.4436 66.6546 46.9222Z" fill="#FE7940"/>
<path d="M79.7992 54.5554C79.84 56.5721 78.937 58.2215 77.7823 58.2393C76.6276 58.2571 75.6584 56.6366 75.6177 54.6198C75.5769 52.6031 76.4799 50.9537 77.6346 50.9359C78.7893 50.9181 79.7585 52.5386 79.7992 54.5554Z" fill="#FE7940"/>
<path d="M84.3072 49.234C83.1523 50.9808 81.4053 51.9882 80.4051 51.4839C79.405 50.9796 79.5304 49.1547 80.6853 47.4079C81.8402 45.661 83.5872 44.6537 84.5873 45.158C85.5875 45.6622 85.4621 47.4871 84.3072 49.234Z" fill="#FE7940"/>
<path d="M85.0887 55.2436C84.0841 56.7632 82.5644 57.6394 81.6943 57.2008C80.8243 56.7621 80.9334 55.1747 81.938 53.6551C82.9427 52.1355 84.4624 51.2593 85.3324 51.6979C86.2024 52.1366 86.0933 53.7241 85.0887 55.2436Z" fill="#FE7940"/>
<path d="M78.9887 47.2531C77.9841 48.7727 76.4644 49.6489 75.5944 49.2103C74.7243 48.7716 74.8334 47.1841 75.8381 45.6646C76.8427 44.145 78.3624 43.2688 79.2324 43.7074C80.1024 44.1461 79.9933 45.7335 78.9887 47.2531Z" fill="#FE7940"/>
<path d="M80.7069 39.4315C80.7069 41.1861 79.8925 42.6085 78.8879 42.6085C77.8832 42.6085 77.0688 41.1861 77.0688 39.4315C77.0688 37.6768 77.8832 36.2544 78.8879 36.2544C79.8925 36.2544 80.7069 37.6768 80.7069 39.4315Z" fill="#FE7940"/>
</g>
</svg>
