<svg width="151" height="226" viewBox="0 0 151 226" fill="none" xmlns="http://www.w3.org/2000/svg">
<path fill-rule="evenodd" clip-rule="evenodd" d="M125.235 114.502C125.55 114.525 125.783 114.767 125.756 115.042C124.185 131.319 117.491 143.592 110.357 151.984C105.099 158.17 99.5937 162.259 95.7097 164.288C95.677 166.314 95.609 168.392 95.5019 170.522C94.7087 186.308 91.7727 204.921 85.1913 225.634C85.1068 225.9 84.792 226.056 84.4881 225.982C84.1843 225.908 84.0065 225.632 84.091 225.366C90.6086 204.854 93.5357 186.415 94.3463 170.765C91.0904 168.916 86.9756 166.233 82.5526 162.856C77.9054 159.308 72.9119 154.989 68.2127 150.058C66.6415 148.41 65.103 146.692 63.6211 144.912C56.9559 136.907 51.4256 127.618 49.2448 117.594C49.1858 117.322 49.3891 117.061 49.699 117.009C50.0088 116.957 50.3078 117.135 50.3668 117.406C52.5065 127.242 57.9434 136.395 64.5441 144.323C66.0103 146.085 67.5334 147.785 69.0896 149.418C73.7452 154.303 78.6952 158.584 83.3033 162.102C87.4367 165.258 91.2902 167.796 94.4029 169.601C94.4899 167.689 94.5454 165.819 94.5719 163.994C94.8827 142.65 89.171 113.804 86.0265 106.646C85.9133 106.388 86.0601 106.099 86.3545 106C86.6489 105.901 86.9793 106.029 87.0925 106.287C90.2587 113.495 95.9237 142.144 95.7248 163.106C99.4243 161.054 104.529 157.166 109.441 151.387C116.459 143.13 123.067 131.032 124.618 114.958C124.645 114.683 124.921 114.479 125.235 114.502Z" fill="#0A3019"/>
<path fill-rule="evenodd" clip-rule="evenodd" d="M114.386 106.181C114.607 106.287 114.689 106.53 114.568 106.724C113.766 109.5 113.873 109.639 112.871 115.659C112.02 120.772 111.43 126.528 111.038 132.123C112.818 127.64 115.222 121.871 117.631 116.65C119.101 113.467 118.12 115.513 119.458 113.145C120.127 111.961 120.765 110.926 121.354 110.096C121.938 109.273 122.493 108.622 123.003 108.231C123.193 108.086 123.482 108.102 123.648 108.269C123.814 108.435 123.795 108.688 123.605 108.833C123.201 109.142 122.704 109.709 122.13 110.518C121.562 111.318 120.939 112.329 120.277 113.5C118.954 115.842 119.944 113.775 118.479 116.95C115.559 123.275 112.646 130.413 110.847 135.076C110.471 141.439 110.342 147.389 110.356 151.685C110.357 151.905 110.153 152.085 109.901 152.086C109.648 152.086 109.443 151.908 109.443 151.687C109.428 147.365 109.559 141.378 109.938 134.979C110.322 128.494 110.962 121.579 111.967 115.543C112.968 109.525 112.624 109.5 113.766 106.34C113.887 106.147 114.164 106.075 114.386 106.181ZM41.0131 117.153C41.2322 117.043 41.5113 117.11 41.6365 117.302C43.4651 120.103 50.7198 133.222 54.1628 139.511C58.0373 141.846 61.7513 143.434 64.2415 144.243C64.4781 144.32 64.5987 144.55 64.511 144.757C64.4233 144.964 64.1604 145.07 63.9238 144.993C61.3374 144.153 57.5134 142.513 53.5435 140.109C47.7345 136.59 41.5626 131.404 38.5303 124.646C38.438 124.441 38.5536 124.208 38.7885 124.128C39.0233 124.047 39.2885 124.148 39.3807 124.354C42.0747 130.358 47.3472 135.12 52.62 138.545C48.9681 131.892 42.5332 120.288 40.8431 117.698C40.718 117.507 40.7941 117.262 41.0131 117.153ZM60.3475 123.205C60.5335 123.056 60.8225 123.067 60.993 123.23C62.307 124.485 63.424 126.358 64.3721 128.533C65.3231 130.715 66.1176 133.233 66.7701 135.802C68.075 140.941 68.82 146.32 69.1068 149.708C69.1255 149.929 68.9366 150.12 68.685 150.137C68.4334 150.153 68.2143 149.988 68.1956 149.767C67.9114 146.41 67.1716 141.07 65.8781 135.976C65.2314 133.429 64.4483 130.952 63.5184 128.819C62.5855 126.678 61.5182 124.915 60.3195 123.77C60.149 123.607 60.1615 123.354 60.3475 123.205ZM74.9084 128.601C75.1603 128.589 75.3756 128.758 75.3892 128.978C75.8406 136.29 79.2669 143.602 83.3917 149.786C87.5146 155.967 92.3137 160.989 95.4642 163.715C95.6436 163.871 95.6453 164.124 95.468 164.281C95.2906 164.438 95.0013 164.44 94.8219 164.284C91.6164 161.511 86.7673 156.433 82.6027 150.189C78.4399 143.948 74.9391 136.51 74.4768 129.022C74.4632 128.801 74.6564 128.613 74.9084 128.601ZM123.843 140.763C123.992 140.942 123.948 141.192 123.744 141.323C120.408 143.464 117.472 147.352 115.151 151.392C113.178 154.829 111.672 158.336 110.758 160.882C115.344 157.61 120.259 153.553 124.836 148.744C124.998 148.574 125.286 148.551 125.48 148.693C125.674 148.834 125.7 149.086 125.538 149.256C120.532 154.516 115.128 158.882 110.183 162.313C103.797 166.745 98.1645 169.626 95.124 170.863C94.8951 170.956 94.6235 170.869 94.5171 170.669C94.4108 170.468 94.5101 170.23 94.739 170.137C97.6855 168.939 103.208 166.12 109.5 161.766C110.355 159.154 112.029 155.048 114.335 151.033C116.671 146.965 119.687 142.936 123.204 140.677C123.407 140.547 123.693 140.585 123.843 140.763ZM51.6702 146.842C51.7696 146.639 52.0382 146.545 52.2701 146.632C53.138 146.958 54.4296 147.778 55.9157 148.849C57.4176 149.931 59.1636 151.302 60.9539 152.767C64.4854 155.656 68.2052 158.924 70.5932 161.089C75.7163 161.96 80.264 162.163 82.9116 162.08C83.1638 162.072 83.3755 162.244 83.3846 162.465C83.3936 162.686 83.1966 162.871 82.9444 162.879C80.1995 162.965 75.5224 162.753 70.2763 161.849C64.8306 160.912 58.7422 159.226 53.5581 156.337C53.3452 156.219 53.2825 155.972 53.4179 155.785C53.5534 155.599 53.8358 155.544 54.0486 155.663C58.6522 158.227 64.0133 159.833 68.9972 160.798C66.6435 158.689 63.4133 155.874 60.33 153.351C58.5463 151.892 56.816 150.533 55.3352 149.467C53.8387 148.389 52.6413 147.642 51.9102 147.368C51.6783 147.281 51.5708 147.045 51.6702 146.842Z" fill="#0A3019"/>
<ellipse cx="41.3539" cy="117.5" rx="2.85536" ry="2.5" fill="#FD5936"/>
<ellipse cx="59.6283" cy="122.5" rx="2.85536" ry="2.5" fill="#FD5936"/>
<ellipse cx="74.476" cy="128.5" rx="2.85536" ry="2.5" fill="#FD5936"/>
<ellipse cx="123.588" cy="140.5" rx="2.85536" ry="2.5" fill="#FD5936"/>
<ellipse cx="125.872" cy="148.5" rx="2.85536" ry="2.5" fill="#FD5936"/>
<ellipse cx="52.7753" cy="146.5" rx="2.85536" ry="2.5" fill="#FD5936"/>
<ellipse cx="53.9174" cy="155.5" rx="2.85536" ry="2.5" fill="#FD5936"/>
<ellipse cx="38.4985" cy="124" rx="3.42643" ry="3" fill="#FD5936"/>
<ellipse cx="113.309" cy="108.5" rx="2.85536" ry="2.5" fill="#FD5936"/>
<ellipse cx="123.588" cy="109.5" rx="2.85536" ry="2.5" fill="#FD5936"/>
<path d="M85.6445 195.766C81.3196 193.175 77.8213 190.707 75.0246 188.378C74.3737 187.836 73.7608 187.301 73.1844 186.774C72.0893 185.774 71.1257 184.801 70.2827 183.856C68.822 182.22 67.7234 180.671 66.9306 179.215C66.0663 177.628 65.5655 176.152 65.3551 174.794C65.0984 173.137 65.2745 171.657 65.7511 170.369C66.3985 168.62 67.6003 167.225 69.0244 166.221C70.0297 165.513 71.1458 165 72.2559 164.695C75.1042 164.14 77.4672 164.415 79.4095 165.302C80.485 165.793 81.4315 166.472 82.26 167.302C82.8015 167.844 83.2926 168.451 83.7363 169.113C84.5056 170.259 85.1325 171.569 85.6328 172.988C86.1769 174.532 86.5714 176.205 86.8366 177.938C87.0831 179.549 87.2181 181.212 87.258 182.872C87.2927 184.313 87.2556 185.753 87.1576 187.153C86.9321 190.376 86.3839 193.394 85.6445 195.766Z" fill="#FD5936"/>
<g style="mix-blend-mode:multiply">
<path d="M69.4142 165.96L73.5446 167.33L78.9274 165.098C79.0908 165.161 79.2515 165.23 79.4094 165.302C79.5327 165.358 79.6543 165.417 79.7742 165.478C79.7333 165.543 79.6695 165.598 79.5871 165.632L73.5796 168.123L68.8765 166.563C68.8071 166.54 68.7489 166.503 68.7045 166.456C68.8097 166.376 68.9163 166.297 69.0242 166.221C69.1525 166.131 69.2826 166.044 69.4142 165.96Z" fill="#FD5936"/>
<path d="M65.6304 170.719C65.6681 170.601 65.7084 170.485 65.751 170.369C65.795 170.25 65.8416 170.133 65.8907 170.017L75.0937 171.134L81.9773 167.029C82.073 167.118 82.1671 167.209 82.2599 167.302C82.3509 167.393 82.4405 167.486 82.5287 167.581C82.5177 167.589 82.5061 167.597 82.4939 167.604L75.2959 171.897L65.6933 170.731C65.6717 170.729 65.6507 170.725 65.6304 170.719Z" fill="#FD5936"/>
<path d="M65.4215 175.177C65.3967 175.049 65.3746 174.921 65.355 174.794C65.3361 174.672 65.3196 174.551 65.3053 174.431C65.3466 174.427 65.3893 174.428 65.4323 174.435L77.2791 176.377L83.398 168.9C83.4318 168.859 83.4736 168.825 83.5202 168.8C83.5934 168.903 83.6654 169.007 83.7361 169.113C83.8132 169.227 83.8888 169.344 83.963 169.462L77.6461 177.181L65.4215 175.177Z" fill="#FD5936"/>
<path d="M67.1735 179.648C67.0895 179.503 67.0085 179.359 66.9304 179.215C66.87 179.105 66.8114 178.994 66.7546 178.884C66.8393 178.85 66.9379 178.839 67.0354 178.862L79.5611 181.701L85.2699 172.809C85.3238 172.726 85.4097 172.667 85.5066 172.64C85.5495 172.756 85.5915 172.872 85.6327 172.988C85.6894 173.149 85.7445 173.312 85.798 173.475L79.972 182.55L67.1735 179.648Z" fill="#FD5936"/>
<path d="M70.7533 184.373C70.5924 184.2 70.4355 184.028 70.2826 183.856C70.1964 183.76 70.1115 183.664 70.0278 183.568C70.1329 183.496 70.2748 183.47 70.4107 183.509L81.7041 186.689L86.4594 177.784C86.5215 177.667 86.6443 177.593 86.7791 177.576C86.7989 177.697 86.818 177.817 86.8365 177.938C86.871 178.164 86.9034 178.39 86.9336 178.618L82.1469 187.582L70.7533 184.373Z" fill="#FD5936"/>
<path d="M74.049 187.547C73.752 187.287 73.4639 187.03 73.1842 186.774C73.0875 186.686 72.9919 186.598 72.8972 186.51C73.0194 186.408 73.2053 186.377 73.3659 186.445L83.4558 190.716L86.868 182.744C86.9295 182.6 87.0829 182.51 87.2476 182.506C87.2515 182.628 87.2549 182.75 87.2579 182.872C87.266 183.209 87.2702 183.546 87.2706 183.882L83.9146 191.723L74.049 187.547Z" fill="#FD5936"/>
</g>
<g style="mix-blend-mode:multiply">
<path d="M85.8852 194.947C85.8852 194.947 85.8852 194.947 85.8852 194.947L72.8076 164.597C72.6257 164.626 72.4418 164.659 72.2557 164.695C72.0807 164.743 71.9055 164.797 71.7306 164.855L71.7361 164.868L85.1223 195.934L89.5038 206.481C89.6088 206.734 89.9276 206.864 90.2159 206.771C90.5042 206.679 90.6527 206.399 90.5478 206.146L86.1662 195.599L85.8852 194.947Z" fill="#FD5936"/>
</g>
<path d="M100.407 182.925C104.4 182.063 107.746 181.093 110.533 180.056C111.182 179.815 111.8 179.57 112.389 179.322C113.508 178.85 114.522 178.368 115.439 177.877C117.026 177.027 118.32 176.154 119.361 175.276C120.495 174.318 121.327 173.354 121.908 172.407C122.618 171.252 122.954 170.122 123.009 169.061C123.083 167.619 122.639 166.304 121.908 165.224C121.393 164.461 120.734 163.815 120.014 163.324C118.096 162.23 116.274 161.862 114.568 162.045C113.623 162.147 112.714 162.417 111.844 162.827C111.276 163.095 110.724 163.423 110.19 163.802C109.265 164.459 108.392 165.27 107.578 166.192C106.693 167.195 105.877 168.329 105.137 169.539C104.45 170.663 103.828 171.852 103.276 173.062C102.798 174.113 102.372 175.179 102.004 176.232C101.156 178.654 100.61 181.004 100.407 182.925Z" fill="#FD5936"/>
<g style="mix-blend-mode:multiply">
<path d="M121.704 164.938L118.239 164.949L114.986 162.011C114.846 162.019 114.706 162.03 114.568 162.045C114.459 162.057 114.352 162.071 114.244 162.087C114.254 162.144 114.283 162.2 114.333 162.245L117.964 165.524L121.91 165.511C121.968 165.511 122.022 165.497 122.07 165.474C122.018 165.389 121.964 165.306 121.909 165.224C121.843 165.127 121.775 165.031 121.704 164.938Z" fill="#FD5936"/>
<path d="M122.987 169.347C122.997 169.251 123.004 169.156 123.009 169.061C123.014 168.963 123.017 168.865 123.017 168.768L115.904 167.371L112.138 162.695C112.04 162.737 111.942 162.782 111.845 162.827C111.749 162.872 111.654 162.919 111.559 162.968C111.565 162.976 111.571 162.985 111.578 162.993L115.516 167.882L122.937 169.341C122.954 169.344 122.971 169.346 122.987 169.347Z" fill="#FD5936"/>
<path d="M121.739 172.672C121.798 172.584 121.854 172.495 121.909 172.407C121.961 172.322 122.011 172.237 122.059 172.153C122.03 172.139 121.998 172.13 121.965 172.125L112.65 170.695L110.506 163.727C110.494 163.689 110.474 163.654 110.447 163.625C110.361 163.682 110.276 163.742 110.19 163.802C110.098 163.868 110.006 163.935 109.914 164.004L112.128 171.198L121.739 172.672Z" fill="#FD5936"/>
<path d="M119.046 175.535C119.154 175.449 119.258 175.362 119.361 175.276C119.44 175.209 119.518 175.142 119.594 175.075C119.543 175.029 119.474 174.998 119.395 174.99L109.299 174.057L107.901 166.148C107.888 166.074 107.843 166.01 107.78 165.967C107.713 166.041 107.645 166.116 107.578 166.192C107.486 166.297 107.395 166.403 107.304 166.51L108.731 174.582L119.046 175.535Z" fill="#FD5936"/>
<path d="M114.93 178.143C115.103 178.055 115.272 177.966 115.439 177.877C115.532 177.827 115.625 177.777 115.717 177.727C115.662 177.649 115.566 177.596 115.454 177.591L106.156 177.205L105.463 169.516C105.454 169.416 105.387 169.332 105.293 169.287C105.241 169.37 105.189 169.454 105.137 169.539C105.041 169.696 104.946 169.855 104.852 170.015L105.55 177.755L114.93 178.143Z" fill="#FD5936"/>
<path d="M111.511 179.681C111.811 179.562 112.103 179.442 112.389 179.322C112.488 179.28 112.586 179.238 112.683 179.197C112.626 179.092 112.499 179.025 112.359 179.036L103.603 179.742V173.062C103.603 172.942 103.519 172.839 103.399 172.796C103.358 172.885 103.317 172.973 103.276 173.062C103.165 173.308 103.056 173.554 102.95 173.801V180.371L111.511 179.681Z" fill="#FD5936"/>
</g>
<g style="mix-blend-mode:multiply">
<path d="M100.488 182.264C100.488 182.264 100.488 182.264 100.488 182.264L119.639 163.119C119.764 163.184 119.889 163.252 120.014 163.324C120.127 163.401 120.239 163.483 120.35 163.568L120.341 163.576L100.738 183.174L94.2021 189.866C94.0455 190.027 93.7704 190.045 93.5877 189.908C93.405 189.77 93.3839 189.529 93.5405 189.369L100.076 182.676L100.488 182.264Z" fill="#FD5936"/>
</g>
<path d="M18.0068 41.5361C-6.30381 77.8166 55.4156 104.362 89.3141 113.099C142.667 78.1916 140.371 39.6602 129.623 30.9806C121.025 24.0369 108.191 29.4657 102.849 33.048C85.5265 12.8737 69.1358 25.0989 63.1058 33.7334C39.118 25.3958 23.0449 35.4612 18.0068 41.5361Z" fill="#CDCDCD"/>
<path d="M41.2083 55.3871C56.9484 43.9023 75.5048 53.045 82.8155 59.0519C89.4492 42.2915 99.556 41.7692 105.624 44.876C132.515 61.2725 99.3907 95.3633 78.3672 107.167C48.5401 104.603 21.5331 69.743 41.2083 55.3871Z" fill="white"/>
<path fill-rule="evenodd" clip-rule="evenodd" d="M47.5144 61.9018C47.9306 61.6914 48.4633 61.817 48.7043 62.1824L52.1941 67.4746C52.435 67.84 52.2929 68.3067 51.8766 68.5171C51.4604 68.7275 50.9277 68.6019 50.6867 68.2366L47.1969 62.9443C46.956 62.579 47.0981 62.1122 47.5144 61.9018ZM58.8583 62.3418C59.2745 62.1314 59.8072 62.257 60.0481 62.6224L63.9742 68.5761C64.2151 68.9415 64.073 69.4082 63.6567 69.6186C63.2405 69.8291 62.7078 69.7034 62.4668 69.3381L58.5408 63.3843C58.2999 63.019 58.442 62.5522 58.8583 62.3418ZM45.3396 72.7376C45.6736 72.4349 46.2249 72.4274 46.5709 72.7209L51.1318 76.5897C51.4778 76.8832 51.4875 77.3665 51.1535 77.6692C50.8194 77.9718 50.2682 77.9793 49.9222 77.6858L45.3613 73.817C45.0153 73.5235 45.0056 73.0402 45.3396 72.7376ZM94.8696 52.1928C95.3505 52.1913 95.7425 52.532 95.7452 52.9536L95.7841 59.1082C95.7868 59.5298 95.3991 59.8727 94.9182 59.8742C94.4372 59.8756 94.0452 59.5349 94.0425 59.1133L94.0036 52.9587C94.001 52.5371 94.3887 52.1942 94.8696 52.1928ZM56.755 71.3434C57.1712 71.133 57.7039 71.2586 57.9449 71.6239L60.9984 76.2547C61.2393 76.62 61.0972 77.0868 60.681 77.2972C60.2647 77.5076 59.732 77.382 59.4911 77.0166L56.4375 72.3859C56.1966 72.0205 56.3387 71.5538 56.755 71.3434ZM74.659 65.8924C75.1365 65.843 75.5701 66.1423 75.6276 66.561L76.4202 72.3346C76.4777 72.7533 76.1372 73.1328 75.6597 73.1823C75.1822 73.2318 74.7485 72.9325 74.6911 72.5138L73.8985 66.7401C73.841 66.3214 74.1815 65.9419 74.659 65.8924ZM83.4034 68.5203C83.8793 68.4606 84.3212 68.7506 84.3903 69.1679L85.064 73.2375C85.1331 73.6549 84.8033 74.0416 84.3274 74.1013C83.8515 74.161 83.4096 73.871 83.3405 73.4536L82.6667 69.384C82.5976 68.9667 82.9274 68.5799 83.4034 68.5203ZM94.8991 64.5033C95.3792 64.4785 95.7921 64.7996 95.8214 65.2205L96.2966 72.0366C96.3259 72.4575 95.9605 72.8188 95.4805 72.8436C95.0005 72.8684 94.5875 72.5473 94.5582 72.1264L94.0831 65.3103C94.0537 64.8894 94.4191 64.5281 94.8991 64.5033ZM58.3783 84.6408C58.7654 84.3914 59.3106 84.4647 59.596 84.8045L64.2757 90.3774C64.5611 90.7172 64.4787 91.195 64.0916 91.4445C63.7045 91.6939 63.1593 91.6206 62.8739 91.2807L58.1942 85.7079C57.9088 85.3681 57.9913 84.8903 58.3783 84.6408ZM65.2419 81.1659C65.6581 80.9555 66.1909 81.0811 66.4318 81.4465L70.794 88.0618C71.0349 88.4272 70.8928 88.8939 70.4766 89.1043C70.0603 89.3147 69.5276 89.1891 69.2867 88.8238L64.9244 82.2084C64.6835 81.8431 64.8256 81.3763 65.2419 81.1659ZM76.1495 80.9444C76.5658 80.734 77.0985 80.8596 77.3394 81.2249L81.2654 87.1787C81.5064 87.5441 81.3642 88.0108 80.948 88.2212C80.5318 88.4316 79.999 88.306 79.7581 87.9407L75.8321 81.9869C75.5912 81.6215 75.7333 81.1548 76.1495 80.9444ZM103.03 69.2137C103.51 69.1889 103.923 69.51 103.952 69.9309L104.19 73.339C104.219 73.7599 103.854 74.1212 103.373 74.146C102.893 74.1708 102.481 73.8497 102.451 73.4288L102.214 70.0207C102.184 69.5998 102.55 69.2386 103.03 69.2137ZM95.0852 76.8129C95.5651 76.8405 95.9296 77.2039 95.8991 77.6246L95.5018 83.1177C95.4714 83.5384 95.0576 83.8571 94.5777 83.8295C94.0977 83.8019 93.7333 83.4385 93.7637 83.0178L94.161 77.5247C94.1914 77.104 94.6052 76.7853 95.0852 76.8129ZM101.465 77.1862C101.937 77.2684 102.244 77.6703 102.151 78.0838L100.366 86.0429C100.273 86.4564 99.815 86.7249 99.3431 86.6427C98.8712 86.5605 98.5639 86.1586 98.6566 85.7451L100.443 77.786C100.535 77.3725 100.993 77.1039 101.465 77.1862Z" fill="#CDCDCD"/>
<path d="M84.6874 96.3422C68.695 95.2531 54.7408 97.6615 50.1396 98.8113L70.2879 108.031L90.9522 113.462L105.034 102.816L115.983 91.9889C108.273 88.8301 91.9066 93.5749 84.6874 96.3422Z" fill="#9B9B9B"/>
<g style="mix-blend-mode:multiply">
<path d="M18.0068 41.5361C-6.30381 77.8166 55.4156 104.362 89.3141 113.099C142.667 78.1916 140.371 39.6602 129.623 30.9806C121.025 24.0369 108.191 29.4657 102.849 33.048C85.5265 12.8737 69.1358 25.0989 63.1058 33.7334C39.118 25.3958 23.0449 35.4612 18.0068 41.5361Z" fill="#FD5936"/>
<path d="M41.2083 55.3871C56.9484 43.9023 75.5048 53.045 82.8155 59.0519C89.4492 42.2915 99.556 41.7692 105.624 44.876C132.515 61.2725 99.3907 95.3633 78.3672 107.167C48.5401 104.603 21.5331 69.743 41.2083 55.3871Z" fill="#FD5936"/>
<path fill-rule="evenodd" clip-rule="evenodd" d="M47.5144 61.9018C47.9306 61.6914 48.4633 61.817 48.7043 62.1824L52.1941 67.4746C52.435 67.84 52.2929 68.3067 51.8766 68.5171C51.4604 68.7275 50.9277 68.6019 50.6867 68.2366L47.1969 62.9443C46.956 62.579 47.0981 62.1122 47.5144 61.9018ZM58.8583 62.3418C59.2745 62.1314 59.8072 62.257 60.0481 62.6224L63.9742 68.5761C64.2151 68.9415 64.073 69.4082 63.6567 69.6186C63.2405 69.8291 62.7078 69.7034 62.4668 69.3381L58.5408 63.3843C58.2999 63.019 58.442 62.5522 58.8583 62.3418ZM45.3396 72.7376C45.6736 72.4349 46.2249 72.4274 46.5709 72.7209L51.1318 76.5897C51.4778 76.8832 51.4875 77.3665 51.1535 77.6692C50.8194 77.9718 50.2682 77.9793 49.9222 77.6858L45.3613 73.817C45.0153 73.5235 45.0056 73.0402 45.3396 72.7376ZM94.8696 52.1928C95.3505 52.1913 95.7425 52.532 95.7452 52.9536L95.7841 59.1082C95.7868 59.5298 95.3991 59.8727 94.9182 59.8742C94.4372 59.8756 94.0452 59.5349 94.0425 59.1133L94.0036 52.9587C94.001 52.5371 94.3887 52.1942 94.8696 52.1928ZM56.755 71.3434C57.1712 71.133 57.7039 71.2586 57.9449 71.6239L60.9984 76.2547C61.2393 76.62 61.0972 77.0868 60.681 77.2972C60.2647 77.5076 59.732 77.382 59.4911 77.0166L56.4375 72.3859C56.1966 72.0205 56.3387 71.5538 56.755 71.3434ZM74.659 65.8924C75.1365 65.843 75.5701 66.1423 75.6276 66.561L76.4202 72.3346C76.4777 72.7533 76.1372 73.1328 75.6597 73.1823C75.1822 73.2318 74.7485 72.9325 74.6911 72.5138L73.8985 66.7401C73.841 66.3214 74.1815 65.9419 74.659 65.8924ZM83.4034 68.5203C83.8793 68.4606 84.3212 68.7506 84.3903 69.1679L85.064 73.2375C85.1331 73.6549 84.8033 74.0416 84.3274 74.1013C83.8515 74.161 83.4096 73.871 83.3405 73.4536L82.6667 69.384C82.5976 68.9667 82.9274 68.5799 83.4034 68.5203ZM94.8991 64.5033C95.3792 64.4785 95.7921 64.7996 95.8214 65.2205L96.2966 72.0366C96.3259 72.4575 95.9605 72.8188 95.4805 72.8436C95.0005 72.8684 94.5875 72.5473 94.5582 72.1264L94.0831 65.3103C94.0537 64.8894 94.4191 64.5281 94.8991 64.5033ZM58.3783 84.6408C58.7654 84.3914 59.3106 84.4647 59.596 84.8045L64.2757 90.3774C64.5611 90.7172 64.4787 91.195 64.0916 91.4445C63.7045 91.6939 63.1593 91.6206 62.8739 91.2807L58.1942 85.7079C57.9088 85.3681 57.9913 84.8903 58.3783 84.6408ZM65.2419 81.1659C65.6581 80.9555 66.1909 81.0811 66.4318 81.4465L70.794 88.0618C71.0349 88.4272 70.8928 88.8939 70.4766 89.1043C70.0603 89.3147 69.5276 89.1891 69.2867 88.8238L64.9244 82.2084C64.6835 81.8431 64.8256 81.3763 65.2419 81.1659ZM76.1495 80.9444C76.5658 80.734 77.0985 80.8596 77.3394 81.2249L81.2654 87.1787C81.5064 87.5441 81.3642 88.0108 80.948 88.2212C80.5318 88.4316 79.999 88.306 79.7581 87.9407L75.8321 81.9869C75.5912 81.6215 75.7333 81.1548 76.1495 80.9444ZM103.03 69.2137C103.51 69.1889 103.923 69.51 103.952 69.9309L104.19 73.339C104.219 73.7599 103.854 74.1212 103.373 74.146C102.893 74.1708 102.481 73.8497 102.451 73.4288L102.214 70.0207C102.184 69.5998 102.55 69.2386 103.03 69.2137ZM95.0852 76.8129C95.5651 76.8405 95.9296 77.2039 95.8991 77.6246L95.5018 83.1177C95.4714 83.5384 95.0576 83.8571 94.5777 83.8295C94.0977 83.8019 93.7333 83.4385 93.7637 83.0178L94.161 77.5247C94.1914 77.104 94.6052 76.7853 95.0852 76.8129ZM101.465 77.1862C101.937 77.2684 102.244 77.6703 102.151 78.0838L100.366 86.0429C100.273 86.4564 99.815 86.7249 99.3431 86.6427C98.8712 86.5605 98.5639 86.1586 98.6566 85.7451L100.443 77.786C100.535 77.3725 100.993 77.1039 101.465 77.1862Z" fill="#FD5936"/>
<path d="M84.6874 96.3422C68.695 95.2531 54.7408 97.6615 50.1396 98.8113L70.2879 108.031L90.9522 113.462L105.034 102.816L115.983 91.9889C108.273 88.8301 91.9066 93.5749 84.6874 96.3422Z" fill="#FD5936"/>
</g>
<g style="mix-blend-mode:soft-light">
<path d="M18.0068 41.5361C-6.30381 77.8166 55.4156 104.362 89.3141 113.099C142.667 78.1916 140.371 39.6602 129.623 30.9806C121.025 24.0369 108.191 29.4657 102.849 33.048C85.5265 12.8737 69.1358 25.0989 63.1058 33.7334C39.118 25.3958 23.0449 35.4612 18.0068 41.5361Z" fill="#FD5936"/>
<path d="M41.2083 55.3871C56.9484 43.9023 75.5048 53.045 82.8155 59.0519C89.4492 42.2915 99.556 41.7692 105.624 44.876C132.515 61.2725 99.3907 95.3633 78.3672 107.167C48.5401 104.603 21.5331 69.743 41.2083 55.3871Z" fill="#FD5936"/>
<path fill-rule="evenodd" clip-rule="evenodd" d="M47.5144 61.9018C47.9306 61.6914 48.4633 61.817 48.7043 62.1824L52.1941 67.4746C52.435 67.84 52.2929 68.3067 51.8766 68.5171C51.4604 68.7275 50.9277 68.6019 50.6867 68.2366L47.1969 62.9443C46.956 62.579 47.0981 62.1122 47.5144 61.9018ZM58.8583 62.3418C59.2745 62.1314 59.8072 62.257 60.0481 62.6224L63.9742 68.5761C64.2151 68.9415 64.073 69.4082 63.6567 69.6186C63.2405 69.8291 62.7078 69.7034 62.4668 69.3381L58.5408 63.3843C58.2999 63.019 58.442 62.5522 58.8583 62.3418ZM45.3396 72.7376C45.6736 72.4349 46.2249 72.4274 46.5709 72.7209L51.1318 76.5897C51.4778 76.8832 51.4875 77.3665 51.1535 77.6692C50.8194 77.9718 50.2682 77.9793 49.9222 77.6858L45.3613 73.817C45.0153 73.5235 45.0056 73.0402 45.3396 72.7376ZM94.8696 52.1928C95.3505 52.1913 95.7425 52.532 95.7452 52.9536L95.7841 59.1082C95.7868 59.5298 95.3991 59.8727 94.9182 59.8742C94.4372 59.8756 94.0452 59.5349 94.0425 59.1133L94.0036 52.9587C94.001 52.5371 94.3887 52.1942 94.8696 52.1928ZM56.755 71.3434C57.1712 71.133 57.7039 71.2586 57.9449 71.6239L60.9984 76.2547C61.2393 76.62 61.0972 77.0868 60.681 77.2972C60.2647 77.5076 59.732 77.382 59.4911 77.0166L56.4375 72.3859C56.1966 72.0205 56.3387 71.5538 56.755 71.3434ZM74.659 65.8924C75.1365 65.843 75.5701 66.1423 75.6276 66.561L76.4202 72.3346C76.4777 72.7533 76.1372 73.1328 75.6597 73.1823C75.1822 73.2318 74.7485 72.9325 74.6911 72.5138L73.8985 66.7401C73.841 66.3214 74.1815 65.9419 74.659 65.8924ZM83.4034 68.5203C83.8793 68.4606 84.3212 68.7506 84.3903 69.1679L85.064 73.2375C85.1331 73.6549 84.8033 74.0416 84.3274 74.1013C83.8515 74.161 83.4096 73.871 83.3405 73.4536L82.6667 69.384C82.5976 68.9667 82.9274 68.5799 83.4034 68.5203ZM94.8991 64.5033C95.3792 64.4785 95.7921 64.7996 95.8214 65.2205L96.2966 72.0366C96.3259 72.4575 95.9605 72.8188 95.4805 72.8436C95.0005 72.8684 94.5875 72.5473 94.5582 72.1264L94.0831 65.3103C94.0537 64.8894 94.4191 64.5281 94.8991 64.5033ZM58.3783 84.6408C58.7654 84.3914 59.3106 84.4647 59.596 84.8045L64.2757 90.3774C64.5611 90.7172 64.4787 91.195 64.0916 91.4445C63.7045 91.6939 63.1593 91.6206 62.8739 91.2807L58.1942 85.7079C57.9088 85.3681 57.9913 84.8903 58.3783 84.6408ZM65.2419 81.1659C65.6581 80.9555 66.1909 81.0811 66.4318 81.4465L70.794 88.0618C71.0349 88.4272 70.8928 88.8939 70.4766 89.1043C70.0603 89.3147 69.5276 89.1891 69.2867 88.8238L64.9244 82.2084C64.6835 81.8431 64.8256 81.3763 65.2419 81.1659ZM76.1495 80.9444C76.5658 80.734 77.0985 80.8596 77.3394 81.2249L81.2654 87.1787C81.5064 87.5441 81.3642 88.0108 80.948 88.2212C80.5318 88.4316 79.999 88.306 79.7581 87.9407L75.8321 81.9869C75.5912 81.6215 75.7333 81.1548 76.1495 80.9444ZM103.03 69.2137C103.51 69.1889 103.923 69.51 103.952 69.9309L104.19 73.339C104.219 73.7599 103.854 74.1212 103.373 74.146C102.893 74.1708 102.481 73.8497 102.451 73.4288L102.214 70.0207C102.184 69.5998 102.55 69.2386 103.03 69.2137ZM95.0852 76.8129C95.5651 76.8405 95.9296 77.2039 95.8991 77.6246L95.5018 83.1177C95.4714 83.5384 95.0576 83.8571 94.5777 83.8295C94.0977 83.8019 93.7333 83.4385 93.7637 83.0178L94.161 77.5247C94.1914 77.104 94.6052 76.7853 95.0852 76.8129ZM101.465 77.1862C101.937 77.2684 102.244 77.6703 102.151 78.0838L100.366 86.0429C100.273 86.4564 99.815 86.7249 99.3431 86.6427C98.8712 86.5605 98.5639 86.1586 98.6566 85.7451L100.443 77.786C100.535 77.3725 100.993 77.1039 101.465 77.1862Z" fill="#FD5936"/>
<path d="M84.6874 96.3422C68.695 95.2531 54.7408 97.6615 50.1396 98.8113L70.2879 108.031L90.9522 113.462L105.034 102.816L115.983 91.9889C108.273 88.8301 91.9066 93.5749 84.6874 96.3422Z" fill="#FD5936"/>
</g>
</svg>
