<svg width="138" height="200" viewBox="0 0 138 200" fill="none" xmlns="http://www.w3.org/2000/svg">
<path fill-rule="evenodd" clip-rule="evenodd" d="M98.2849 88.5018C98.5601 88.5251 98.7643 88.767 98.7411 89.0422C97.3655 105.319 91.5041 117.592 85.2586 125.984C80.655 132.17 75.8345 136.259 72.4338 138.288C72.4052 140.314 72.3456 142.392 72.2519 144.522C71.5574 160.308 68.9868 178.921 63.2245 199.634C63.1505 199.9 62.8749 200.056 62.6088 199.982C62.3428 199.908 62.1871 199.632 62.2611 199.366C67.9676 178.854 70.5304 160.415 71.2401 144.765C68.3894 142.916 64.7868 140.233 60.9142 136.856C56.8454 133.308 52.4733 128.989 48.3589 124.058C46.9833 122.41 45.6362 120.692 44.3388 118.912C38.5031 110.907 33.6611 101.618 31.7517 91.5936C31.7 91.3223 31.878 91.0606 32.1493 91.0089C32.4205 90.9572 32.6823 91.1352 32.734 91.4065C34.6074 101.242 39.3676 110.395 45.1469 118.323C46.4306 120.085 47.7642 121.785 49.1267 123.418C53.2029 128.303 57.5369 132.584 61.5714 136.102C65.1905 139.258 68.5644 141.796 71.2897 143.601C71.3659 141.689 71.4144 139.819 71.4377 137.994C71.7098 116.65 66.7089 87.8044 63.9557 80.6462C63.8566 80.3884 63.9852 80.0991 64.2429 80C64.5007 79.9009 64.79 80.0295 64.8891 80.2872C67.6613 87.4949 72.6212 116.144 72.4471 137.106C75.6861 135.054 80.1557 131.166 84.4564 125.387C90.6012 117.13 96.3862 105.032 97.7446 88.9579C97.7679 88.6828 98.0098 88.4786 98.2849 88.5018Z" fill="#0A3019"/>
<path fill-rule="evenodd" clip-rule="evenodd" d="M88.7856 80.1809C88.9796 80.2867 89.051 80.5296 88.9452 80.7236C88.2429 83.5 88.3365 83.6391 87.4592 89.6585C86.7139 94.7718 86.1981 100.528 85.8541 106.123C87.413 101.64 89.5178 95.871 91.6274 90.6502C92.9137 87.4669 92.0553 89.5135 93.2267 87.1453C93.8123 85.9615 94.3708 84.9263 94.8867 84.0956C95.3978 83.2726 95.8842 82.6217 96.3307 82.231C96.4969 82.0855 96.7496 82.1024 96.8951 82.2686C97.0406 82.4349 97.0237 82.6876 96.8575 82.8331C96.504 83.1424 96.0684 83.7091 95.5663 84.5177C95.0691 85.3184 94.5232 86.3286 93.9438 87.5C92.7852 89.8422 93.6521 87.7748 92.3691 90.9499C89.8132 97.2753 87.2624 104.413 85.6872 109.076C85.3583 115.439 85.245 121.389 85.2576 125.685C85.2582 125.905 85.0797 126.085 84.8587 126.086C84.6378 126.086 84.4582 125.908 84.4576 125.687C84.4449 121.365 84.5592 115.378 84.8911 108.979C85.2276 102.494 85.7878 95.5787 86.6675 89.5431C87.5447 83.5253 87.2429 83.5 88.2429 80.3405C88.3487 80.1465 88.5917 80.0751 88.7856 80.1809ZM24.5444 91.1527C24.7362 91.0431 24.9806 91.1098 25.0902 91.3016C26.6913 94.1035 33.043 107.222 36.0576 113.511C39.4499 115.846 42.7017 117.434 44.8819 118.243C45.0891 118.32 45.1947 118.55 45.1179 118.757C45.0411 118.964 44.811 119.07 44.6038 118.993C42.3392 118.153 38.9912 116.513 35.5153 114.109C30.4293 110.59 25.0255 105.404 22.3706 98.6463C22.2898 98.4407 22.391 98.2085 22.5966 98.1277C22.8022 98.0469 23.0344 98.1481 23.1152 98.3538C25.4739 104.358 30.0902 109.12 34.7067 112.545C31.5093 105.892 25.8753 94.288 24.3956 91.6985C24.286 91.5067 24.3526 91.2623 24.5444 91.1527ZM41.4726 97.2052C41.6354 97.0559 41.8885 97.0669 42.0377 97.2297C43.1882 98.4848 44.1662 100.358 44.9963 102.533C45.829 104.715 46.5246 107.233 47.0958 109.802C48.2383 114.941 48.8907 120.32 49.1418 123.708C49.1581 123.929 48.9928 124.12 48.7724 124.137C48.5521 124.153 48.3603 123.988 48.344 123.767C48.0951 120.41 47.4474 115.07 46.3149 109.976C45.7487 107.429 45.063 104.952 44.2489 102.819C43.4321 100.678 42.4975 98.9152 41.448 97.7703C41.2987 97.6075 41.3097 97.3544 41.4726 97.2052ZM54.2213 102.601C54.4419 102.589 54.6304 102.758 54.6423 102.978C55.0375 110.29 58.0374 117.602 61.6488 123.786C65.2587 129.967 69.4605 134.989 72.2189 137.715C72.376 137.871 72.3775 138.124 72.2222 138.281C72.0669 138.438 71.8136 138.44 71.6565 138.284C68.8499 135.511 64.6044 130.433 60.958 124.189C57.3133 117.948 54.2482 110.51 53.8435 103.022C53.8315 102.801 54.0007 102.613 54.2213 102.601ZM97.0654 114.763C97.1961 114.942 97.1576 115.192 96.9794 115.323C94.0586 117.464 91.4875 121.352 89.4558 125.392C87.7278 128.829 86.4096 132.336 85.6096 134.882C89.6247 131.61 93.9282 127.553 97.9356 122.744C98.077 122.574 98.3292 122.551 98.499 122.693C98.6687 122.834 98.6916 123.086 98.5502 123.256C94.1668 128.516 89.4355 132.882 85.106 136.313C79.5149 140.745 74.5831 143.626 71.921 144.863C71.7207 144.956 71.4828 144.869 71.3897 144.669C71.2966 144.468 71.3836 144.23 71.5839 144.137C74.1638 142.939 78.9991 140.12 84.5082 135.766C85.2566 133.154 86.7222 129.048 88.741 125.033C90.7865 120.965 93.4271 116.936 96.5063 114.677C96.6845 114.547 96.9348 114.585 97.0654 114.763ZM33.8752 120.842C33.9622 120.639 34.1974 120.545 34.4004 120.632C35.1604 120.958 36.2911 121.778 37.5923 122.849C38.9073 123.931 40.436 125.302 42.0035 126.767C45.0955 129.656 48.3524 132.924 50.4432 135.089C54.9286 135.96 58.9104 136.163 61.2285 136.08C61.4493 136.072 61.6347 136.244 61.6426 136.465C61.6506 136.686 61.478 136.871 61.2572 136.879C58.8539 136.965 54.759 136.753 50.1657 135.849C45.3978 134.912 40.0671 133.226 35.5281 130.337C35.3418 130.219 35.2868 129.972 35.4054 129.785C35.524 129.599 35.7713 129.544 35.9576 129.663C39.9883 132.227 44.6821 133.833 49.0458 134.798C46.985 132.689 44.1568 129.874 41.4573 127.351C39.8956 125.892 38.3806 124.533 37.0841 123.467C35.7738 122.389 34.7254 121.642 34.0853 121.368C33.8823 121.281 33.7882 121.045 33.8752 120.842Z" fill="#0A3019"/>
<circle cx="24.8428" cy="91.5" r="2.5" fill="#FD6565"/>
<circle cx="40.8428" cy="96.5" r="2.5" fill="#FD6565"/>
<circle cx="53.8428" cy="102.5" r="2.5" fill="#FD6565"/>
<circle cx="96.8428" cy="114.5" r="2.5" fill="#FD6565"/>
<circle cx="98.8428" cy="122.5" r="2.5" fill="#FD6565"/>
<circle cx="34.8428" cy="120.5" r="2.5" fill="#FD6565"/>
<circle cx="35.8428" cy="129.5" r="2.5" fill="#FD6565"/>
<circle cx="22.3428" cy="98" r="3" fill="#FD6565"/>
<circle cx="87.8428" cy="82.5" r="2.5" fill="#FD6565"/>
<circle cx="96.8428" cy="83.5" r="2.5" fill="#FD6565"/>
<path d="M76.7688 95.0033C98.0363 64.4559 94.7311 38.0399 90.4201 28.6503C76.0501 -13.9158 42.3401 0.478724 35.0959 11.749C10.9545 49.3073 53.0584 83.5271 76.7688 95.0033Z" fill="#CDCDCD"/>
<path d="M78.1939 92.8501C93.9998 64.387 93.1936 43.3837 89.9897 34.6348C79.3101 -5.02693 50.9282 7.1081 47.2229 15.2764C29.2812 50.272 60.5725 82.157 78.1939 92.8501Z" fill="white"/>
<path d="M44.9077 71.1576C44.9077 81.1731 66.4625 92.4406 77.2399 96.8224C83.7064 87.4328 95.9208 67.5269 93.0468 63.0199C90.1728 58.513 87.2989 67.4017 84.4249 69.9056C85.8619 67.6104 84.4249 60.5161 82.9879 59.8901C80.1139 58.6381 76.7609 67.6104 75.8029 73.0355C75.8029 67.819 74.6534 57.6366 70.055 58.6381C65.4566 59.6397 66.223 70.3229 67.181 75.5394C65.5045 71.1576 61.2894 62.7696 57.8406 64.2719C54.3918 65.7742 56.8826 74.4961 58.5591 78.6692C48.7876 68.1529 45.3867 69.2796 44.9077 71.1576Z" fill="#9B9B9B"/>
<g style="mix-blend-mode:multiply">
<path d="M76.7688 95.0033C98.0363 64.4559 94.7311 38.0399 90.4201 28.6503C76.0501 -13.9158 42.3401 0.478724 35.0959 11.749C10.9545 49.3073 53.0584 83.5271 76.7688 95.0033Z" fill="#FD6565"/>
<path d="M78.1939 92.8501C93.9998 64.387 93.1936 43.3837 89.9897 34.6348C79.3101 -5.02693 50.9282 7.1081 47.2229 15.2764C29.2812 50.272 60.5725 82.157 78.1939 92.8501Z" fill="#FD6565"/>
<path d="M44.9077 71.1576C44.9077 81.1731 66.4625 92.4406 77.2399 96.8224C83.7064 87.4328 95.9208 67.5269 93.0468 63.0199C90.1728 58.513 87.2989 67.4017 84.4249 69.9056C85.8619 67.6104 84.4249 60.5161 82.9879 59.8901C80.1139 58.6381 76.7609 67.6104 75.8029 73.0355C75.8029 67.819 74.6534 57.6366 70.055 58.6381C65.4566 59.6397 66.223 70.3229 67.181 75.5394C65.5045 71.1576 61.2894 62.7696 57.8406 64.2719C54.3918 65.7742 56.8826 74.4961 58.5591 78.6692C48.7876 68.1529 45.3867 69.2796 44.9077 71.1576Z" fill="#FD6565"/>
</g>
<g style="mix-blend-mode:soft-light">
<path d="M76.7688 95.0033C98.0363 64.4559 94.7311 38.0399 90.4201 28.6503C76.0501 -13.9158 42.3401 0.478724 35.0959 11.749C10.9545 49.3073 53.0584 83.5271 76.7688 95.0033Z" fill="#FD6565"/>
<path d="M78.1939 92.8501C93.9998 64.387 93.1936 43.3837 89.9897 34.6348C79.3101 -5.02693 50.9282 7.1081 47.2229 15.2764C29.2812 50.272 60.5725 82.157 78.1939 92.8501Z" fill="#FD6565"/>
<path d="M44.9077 71.1576C44.9077 81.1731 66.4625 92.4406 77.2399 96.8224C83.7064 87.4328 95.9208 67.5269 93.0468 63.0199C90.1728 58.513 87.2989 67.4017 84.4249 69.9056C85.8619 67.6104 84.4249 60.5161 82.9879 59.8901C80.1139 58.6381 76.7609 67.6104 75.8029 73.0355C75.8029 67.819 74.6534 57.6366 70.055 58.6381C65.4566 59.6397 66.223 70.3229 67.181 75.5394C65.5045 71.1576 61.2894 62.7696 57.8406 64.2719C54.3918 65.7742 56.8826 74.4961 58.5591 78.6692C48.7876 68.1529 45.3867 69.2796 44.9077 71.1576Z" fill="#FD6565"/>
</g>
</svg>
