<svg width="138" height="200" viewBox="0 0 138 200" fill="none" xmlns="http://www.w3.org/2000/svg">
<path fill-rule="evenodd" clip-rule="evenodd" d="M22.6408 88.5018C22.3657 88.5251 22.1615 88.767 22.1847 89.0422C23.5602 105.319 29.4216 117.592 35.6671 125.984C40.2708 132.17 45.0913 136.259 48.492 138.288C48.5206 140.314 48.5801 142.392 48.6739 144.522C49.3683 160.308 51.939 178.921 57.7012 199.634C57.7753 199.9 58.0509 200.056 58.317 199.982C58.583 199.908 58.7387 199.632 58.6647 199.366C52.9582 178.854 50.3953 160.415 49.6857 144.765C52.5364 142.916 56.139 140.233 60.0116 136.856C64.0804 133.308 68.4525 128.989 72.5669 124.058C73.9425 122.41 75.2896 120.692 76.587 118.912C82.4227 110.907 87.2647 101.618 89.1741 91.5936C89.2258 91.3223 89.0478 91.0606 88.7765 91.0089C88.5052 90.9572 88.2435 91.1352 88.1918 91.4065C86.3184 101.242 81.5582 110.395 75.7789 118.323C74.4951 120.085 73.1616 121.785 71.799 123.418C67.7229 128.303 63.3889 132.584 59.3543 136.102C55.7353 139.258 52.3614 141.796 49.6361 143.601C49.5599 141.689 49.5114 139.819 49.4881 137.994C49.216 116.65 54.2169 87.8044 56.97 80.6462C57.0692 80.3884 56.9406 80.0991 56.6829 80C56.4251 79.9009 56.1358 80.0295 56.0367 80.2872C53.2645 87.4949 48.3046 116.144 48.4787 137.106C45.2397 135.054 40.7701 131.166 36.4694 125.387C30.3246 117.13 24.5396 105.032 23.1812 88.9579C23.1579 88.6828 22.916 88.4786 22.6408 88.5018Z" fill="#0A3019"/>
<path fill-rule="evenodd" clip-rule="evenodd" d="M32.1402 80.1809C31.9462 80.2867 31.8748 80.5296 31.9805 80.7236C32.6829 83.5 32.5892 83.6391 33.4666 89.6585C34.2119 94.7718 34.7277 100.528 35.0717 106.123C33.5127 101.64 31.408 95.871 29.2984 90.6502C28.0121 87.4669 28.8705 89.5135 27.6991 87.1453C27.1135 85.9615 26.5549 84.9263 26.0391 84.0956C25.528 83.2726 25.0416 82.6217 24.5951 82.231C24.4288 82.0855 24.1761 82.1024 24.0307 82.2686C23.8852 82.4349 23.902 82.6876 24.0683 82.8331C24.4218 83.1424 24.8573 83.7091 25.3594 84.5177C25.8567 85.3184 26.4026 86.3286 26.982 87.5C28.1406 89.8422 27.2737 87.7748 28.5566 90.9499C31.1125 97.2753 33.6634 104.413 35.2386 109.076C35.5675 115.439 35.6808 121.389 35.6682 125.685C35.6676 125.905 35.8461 126.085 36.067 126.086C36.2879 126.086 36.4676 125.908 36.4682 125.687C36.4809 121.365 36.3665 115.378 36.0346 108.979C35.6982 102.494 35.1379 95.5787 34.2582 89.5431C33.3811 83.5253 33.6829 83.5 32.6829 80.3405C32.5771 80.1465 32.3341 80.0751 32.1402 80.1809ZM96.3814 91.1527C96.1895 91.0431 95.9452 91.1098 95.8356 91.3016C94.2345 94.1035 87.8828 107.222 84.8682 113.511C81.4759 115.846 78.2241 117.434 76.0438 118.243C75.8367 118.32 75.7311 118.55 75.8079 118.757C75.8847 118.964 76.1148 119.07 76.322 118.993C78.5865 118.153 81.9346 116.513 85.4105 114.109C90.4964 110.59 95.9002 105.404 98.5552 98.6463C98.636 98.4407 98.5348 98.2085 98.3292 98.1277C98.1235 98.0469 97.8914 98.1481 97.8106 98.3538C95.4519 104.358 90.8356 109.12 86.219 112.545C89.4164 105.892 95.0504 94.288 96.5302 91.6985C96.6398 91.5067 96.5732 91.2623 96.3814 91.1527ZM79.4532 97.2052C79.2903 97.0559 79.0373 97.0669 78.888 97.2297C77.7376 98.4848 76.7596 100.358 75.9295 102.533C75.0968 104.715 74.4012 107.233 73.8299 109.802C72.6874 114.941 72.0351 120.32 71.784 123.708C71.7677 123.929 71.933 124.12 72.1533 124.137C72.3736 124.153 72.5655 123.988 72.5818 123.767C72.8307 120.41 73.4784 115.07 74.6109 109.976C75.1771 107.429 75.8628 104.952 76.6769 102.819C77.4937 100.678 78.4282 98.9152 79.4778 97.7703C79.627 97.6075 79.616 97.3544 79.4532 97.2052ZM66.7045 102.601C66.4839 102.589 66.2954 102.758 66.2835 102.978C65.8883 110.29 62.8884 117.602 59.2769 123.786C55.6671 129.967 51.4653 134.989 48.7069 137.715C48.5498 137.871 48.5483 138.124 48.7036 138.281C48.8589 138.438 49.1121 138.44 49.2693 138.284C52.0758 135.511 56.3214 130.433 59.9678 124.189C63.6124 117.948 66.6775 110.51 67.0823 103.022C67.0942 102.801 66.9251 102.613 66.7045 102.601ZM23.8603 114.763C23.7297 114.942 23.7682 115.192 23.9464 115.323C26.8671 117.464 29.4382 121.352 31.47 125.392C33.198 128.829 34.5161 132.336 35.3162 134.882C31.3011 131.61 26.9976 127.553 22.9902 122.744C22.8488 122.574 22.5965 122.551 22.4268 122.693C22.2571 122.834 22.2342 123.086 22.3756 123.256C26.759 128.516 31.4903 132.882 35.8197 136.313C41.4109 140.745 46.3427 143.626 49.0048 144.863C49.2051 144.956 49.443 144.869 49.5361 144.669C49.6292 144.468 49.5422 144.23 49.3419 144.137C46.762 142.939 41.9267 140.12 36.4176 135.766C35.6692 133.154 34.2036 129.048 32.1848 125.033C30.1393 120.965 27.4986 116.936 24.4194 114.677C24.2413 114.547 23.991 114.585 23.8603 114.763ZM87.0506 120.842C86.9635 120.639 86.7284 120.545 86.5253 120.632C85.7654 120.958 84.6347 121.778 83.3335 122.849C82.0185 123.931 80.4898 125.302 78.9223 126.767C75.8302 129.656 72.5734 132.924 70.4826 135.089C65.9971 135.96 62.0153 136.163 59.6973 136.08C59.4765 136.072 59.2911 136.244 59.2832 136.465C59.2752 136.686 59.4478 136.871 59.6685 136.879C62.0719 136.965 66.1668 136.753 70.7601 135.849C75.528 134.912 80.8587 133.226 85.3977 130.337C85.584 130.219 85.639 129.972 85.5204 129.785C85.4018 129.599 85.1545 129.544 84.9682 129.663C80.9375 132.227 76.2437 133.833 71.88 134.798C73.9408 132.689 76.769 129.874 79.4685 127.351C81.0302 125.892 82.5452 124.533 83.8417 123.467C85.152 122.389 86.2004 121.642 86.8405 121.368C87.0435 121.281 87.1376 121.045 87.0506 120.842Z" fill="#0A3019"/>
<circle cx="2.5" cy="2.5" r="2.5" transform="matrix(-1 0 0 1 98.583 89)" fill="#FE7940"/>
<circle cx="2.5" cy="2.5" r="2.5" transform="matrix(-1 0 0 1 82.583 94)" fill="#FE7940"/>
<circle cx="2.5" cy="2.5" r="2.5" transform="matrix(-1 0 0 1 69.583 100)" fill="#FE7940"/>
<circle cx="2.5" cy="2.5" r="2.5" transform="matrix(-1 0 0 1 26.583 112)" fill="#FE7940"/>
<circle cx="2.5" cy="2.5" r="2.5" transform="matrix(-1 0 0 1 24.583 120)" fill="#FE7940"/>
<circle cx="2.5" cy="2.5" r="2.5" transform="matrix(-1 0 0 1 88.583 118)" fill="#FE7940"/>
<circle cx="2.5" cy="2.5" r="2.5" transform="matrix(-1 0 0 1 87.583 127)" fill="#FE7940"/>
<circle cx="3" cy="3" r="3" transform="matrix(-1 0 0 1 101.583 95)" fill="#FE7940"/>
<circle cx="2.5" cy="2.5" r="2.5" transform="matrix(-1 0 0 1 35.583 80)" fill="#FE7940"/>
<circle cx="2.5" cy="2.5" r="2.5" transform="matrix(-1 0 0 1 26.583 81)" fill="#FE7940"/>
<path d="M79.5582 0C72.8482 0 68.6291 11.0979 67.3583 16.6469C62.7833 11.5419 50.888 2.13081 42.958 5.32701C35.0281 8.52322 38.1289 20.4202 40.6705 25.9692C34.5706 22.8618 21.3032 19.0441 17.0332 28.6327C12.7632 38.2213 24.9123 44.6137 31.5207 46.6114C24.404 49.2749 11.3908 56.8659 16.2708 65.9218C21.1507 74.9777 32.5375 71.9147 37.621 69.2512C37.1126 76.3539 38.231 90.8256 46.7709 91.891C55.3108 92.9564 59.9875 83.9005 61.2583 79.2393C64.0541 86.564 71.9328 97.218 83.3707 95.8862C95.2808 94.4995 93.029 80.793 90.9956 75.9099C98.1123 76.1319 113.108 74.9777 116.158 68.5853C119.208 62.1929 107.771 54.8238 101.671 51.9384C108.787 50.6066 123.02 46.2118 123.02 39.2867C123.02 32.3616 111.837 31.0742 106.246 31.2962C110.821 28.6327 118.445 21.7076 112.345 15.3152C106.246 8.92275 95.5706 13.5395 90.9956 16.6469C89.979 11.0979 86.2682 0 79.5582 0Z" fill="#CDCDCD"/>
<path d="M70.0443 41.5814C70.0443 43.7879 69.0202 45.5767 67.7569 45.5767C66.4935 45.5767 65.4694 43.7879 65.4694 41.5814C65.4694 39.3749 66.4935 37.5861 67.7569 37.5861C69.0202 37.5861 70.0443 39.3749 70.0443 41.5814Z" fill="#9B9B9B"/>
<path d="M81.091 40.9955C80.4177 43.19 78.8533 44.7307 77.5968 44.4367C76.3403 44.1427 75.8676 42.1253 76.5409 39.9308C77.2143 37.7363 78.7787 36.1956 80.0352 36.4897C81.2917 36.7837 81.7644 38.801 81.091 40.9955Z" fill="#9B9B9B"/>
<path d="M63.6382 40.5826C64.9016 42.4935 65.0388 44.4898 63.9447 45.0414C62.8506 45.593 60.9395 44.4911 59.6762 42.5802C58.4129 40.6693 58.2756 38.673 59.3697 38.1214C60.4638 37.5698 62.3749 38.6717 63.6382 40.5826Z" fill="#9B9B9B"/>
<path d="M68.5892 50.3492C68.63 52.366 67.7269 54.0154 66.5722 54.0332C65.4175 54.051 64.4484 52.4305 64.4076 50.4137C64.3669 48.3969 65.2699 46.7476 66.4246 46.7298C67.5793 46.712 68.5484 48.3325 68.5892 50.3492Z" fill="#9B9B9B"/>
<path d="M65.0824 54.0666C66.2373 55.8135 66.3627 57.6384 65.3626 58.1426C64.3624 58.6469 62.6154 57.6396 61.4605 55.8928C60.3056 54.1459 60.1802 52.321 61.1804 51.8167C62.1805 51.3125 63.9275 52.3198 65.0824 54.0666Z" fill="#9B9B9B"/>
<path d="M61.1551 46.9222C62.1327 48.4008 62.2388 49.9454 61.3923 50.3722C60.5457 50.7991 59.067 49.9465 58.0894 48.4679C57.1119 46.9893 57.0057 45.4446 57.8523 45.0178C58.6989 44.5909 60.1776 45.4436 61.1551 46.9222Z" fill="#9B9B9B"/>
<path d="M74.2997 54.5554C74.3405 56.5721 73.4375 58.2215 72.2828 58.2393C71.128 58.2571 70.1589 56.6366 70.1182 54.6198C70.0774 52.6031 70.9804 50.9537 72.1351 50.9359C73.2898 50.9181 74.2589 52.5386 74.2997 54.5554Z" fill="#9B9B9B"/>
<path d="M78.8077 49.234C77.6528 50.9808 75.9058 51.9882 74.9056 51.4839C73.9055 50.9796 74.0309 49.1547 75.1858 47.4079C76.3407 45.661 78.0877 44.6537 79.0878 45.158C80.088 45.6622 79.9626 47.4871 78.8077 49.234Z" fill="#9B9B9B"/>
<path d="M79.5892 55.2436C78.5845 56.7632 77.0648 57.6394 76.1948 57.2008C75.3248 56.7621 75.4339 55.1747 76.4385 53.6551C77.4431 52.1355 78.9628 51.2593 79.8329 51.6979C80.7029 52.1366 80.5938 53.7241 79.5892 55.2436Z" fill="#9B9B9B"/>
<path d="M73.4892 47.2531C72.4846 48.7727 70.9649 49.6489 70.0949 49.2103C69.2248 48.7716 69.3339 47.1841 70.3386 45.6646C71.3432 44.145 72.8629 43.2688 73.7329 43.7074C74.6029 44.1461 74.4938 45.7335 73.4892 47.2531Z" fill="#9B9B9B"/>
<path d="M75.2074 39.4315C75.2074 41.1861 74.393 42.6085 73.3884 42.6085C72.3837 42.6085 71.5693 41.1861 71.5693 39.4315C71.5693 37.6768 72.3837 36.2544 73.3884 36.2544C74.393 36.2544 75.2074 37.6768 75.2074 39.4315Z" fill="#9B9B9B"/>
<g style="mix-blend-mode:multiply">
<path d="M79.5582 0C72.8482 0 68.6291 11.0979 67.3583 16.6469C62.7833 11.5419 50.888 2.13081 42.958 5.32701C35.0281 8.52322 38.1289 20.4202 40.6705 25.9692C34.5706 22.8618 21.3032 19.0441 17.0332 28.6327C12.7632 38.2213 24.9123 44.6137 31.5207 46.6114C24.404 49.2749 11.3908 56.8659 16.2708 65.9218C21.1507 74.9777 32.5375 71.9147 37.621 69.2512C37.1126 76.3539 38.231 90.8256 46.7709 91.891C55.3108 92.9564 59.9875 83.9005 61.2583 79.2393C64.0541 86.564 71.9328 97.218 83.3707 95.8862C95.2808 94.4995 93.029 80.793 90.9956 75.9099C98.1123 76.1319 113.108 74.9777 116.158 68.5853C119.208 62.1929 107.771 54.8238 101.671 51.9384C108.787 50.6066 123.02 46.2118 123.02 39.2867C123.02 32.3616 111.837 31.0742 106.246 31.2962C110.821 28.6327 118.445 21.7076 112.345 15.3152C106.246 8.92275 95.5706 13.5395 90.9956 16.6469C89.979 11.0979 86.2682 0 79.5582 0Z" fill="#FE7940"/>
<path d="M70.0443 41.5814C70.0443 43.7879 69.0202 45.5767 67.7569 45.5767C66.4935 45.5767 65.4694 43.7879 65.4694 41.5814C65.4694 39.3749 66.4935 37.5861 67.7569 37.5861C69.0202 37.5861 70.0443 39.3749 70.0443 41.5814Z" fill="#FE7940"/>
<path d="M81.091 40.9955C80.4177 43.19 78.8533 44.7307 77.5968 44.4367C76.3403 44.1427 75.8676 42.1253 76.5409 39.9308C77.2143 37.7363 78.7787 36.1956 80.0352 36.4897C81.2917 36.7837 81.7644 38.801 81.091 40.9955Z" fill="#FE7940"/>
<path d="M63.6382 40.5826C64.9016 42.4935 65.0388 44.4898 63.9447 45.0414C62.8506 45.593 60.9395 44.4911 59.6762 42.5802C58.4129 40.6693 58.2756 38.673 59.3697 38.1214C60.4638 37.5698 62.3749 38.6717 63.6382 40.5826Z" fill="#FE7940"/>
<path d="M68.5892 50.3492C68.63 52.366 67.7269 54.0154 66.5722 54.0332C65.4175 54.051 64.4484 52.4305 64.4076 50.4137C64.3669 48.3969 65.2699 46.7476 66.4246 46.7298C67.5793 46.712 68.5484 48.3325 68.5892 50.3492Z" fill="#FE7940"/>
<path d="M65.0824 54.0666C66.2373 55.8135 66.3627 57.6384 65.3626 58.1426C64.3624 58.6469 62.6154 57.6396 61.4605 55.8928C60.3056 54.1459 60.1802 52.321 61.1804 51.8167C62.1805 51.3125 63.9275 52.3198 65.0824 54.0666Z" fill="#FE7940"/>
<path d="M61.1551 46.9222C62.1327 48.4008 62.2388 49.9454 61.3923 50.3722C60.5457 50.7991 59.067 49.9465 58.0894 48.4679C57.1119 46.9893 57.0057 45.4446 57.8523 45.0178C58.6989 44.5909 60.1776 45.4436 61.1551 46.9222Z" fill="#FE7940"/>
<path d="M74.2997 54.5554C74.3405 56.5721 73.4375 58.2215 72.2828 58.2393C71.128 58.2571 70.1589 56.6366 70.1182 54.6198C70.0774 52.6031 70.9804 50.9537 72.1351 50.9359C73.2898 50.9181 74.2589 52.5386 74.2997 54.5554Z" fill="#FE7940"/>
<path d="M78.8077 49.234C77.6528 50.9808 75.9058 51.9882 74.9056 51.4839C73.9055 50.9796 74.0309 49.1547 75.1858 47.4079C76.3407 45.661 78.0877 44.6537 79.0878 45.158C80.088 45.6622 79.9626 47.4871 78.8077 49.234Z" fill="#FE7940"/>
<path d="M79.5892 55.2436C78.5845 56.7632 77.0648 57.6394 76.1948 57.2008C75.3248 56.7621 75.4339 55.1747 76.4385 53.6551C77.4431 52.1355 78.9628 51.2593 79.8329 51.6979C80.7029 52.1366 80.5938 53.7241 79.5892 55.2436Z" fill="#FE7940"/>
<path d="M73.4892 47.2531C72.4846 48.7727 70.9649 49.6489 70.0949 49.2103C69.2248 48.7716 69.3339 47.1841 70.3386 45.6646C71.3432 44.145 72.8629 43.2688 73.7329 43.7074C74.6029 44.1461 74.4938 45.7335 73.4892 47.2531Z" fill="#FE7940"/>
<path d="M75.2074 39.4315C75.2074 41.1861 74.393 42.6085 73.3884 42.6085C72.3837 42.6085 71.5693 41.1861 71.5693 39.4315C71.5693 37.6768 72.3837 36.2544 73.3884 36.2544C74.393 36.2544 75.2074 37.6768 75.2074 39.4315Z" fill="#FE7940"/>
</g>
<g style="mix-blend-mode:soft-light">
<path d="M79.5582 0C72.8482 0 68.6291 11.0979 67.3583 16.6469C62.7833 11.5419 50.888 2.13081 42.958 5.32701C35.0281 8.52322 38.1289 20.4202 40.6705 25.9692C34.5706 22.8618 21.3032 19.0441 17.0332 28.6327C12.7632 38.2213 24.9123 44.6137 31.5207 46.6114C24.404 49.2749 11.3908 56.8659 16.2708 65.9218C21.1507 74.9777 32.5375 71.9147 37.621 69.2512C37.1126 76.3539 38.231 90.8256 46.7709 91.891C55.3108 92.9564 59.9875 83.9005 61.2583 79.2393C64.0541 86.564 71.9328 97.218 83.3707 95.8862C95.2808 94.4995 93.029 80.793 90.9956 75.9099C98.1123 76.1319 113.108 74.9777 116.158 68.5853C119.208 62.1929 107.771 54.8238 101.671 51.9384C108.787 50.6066 123.02 46.2118 123.02 39.2867C123.02 32.3616 111.837 31.0742 106.246 31.2962C110.821 28.6327 118.445 21.7076 112.345 15.3152C106.246 8.92275 95.5706 13.5395 90.9956 16.6469C89.979 11.0979 86.2682 0 79.5582 0Z" fill="#FE7940"/>
<path d="M70.0443 41.5814C70.0443 43.7879 69.0202 45.5767 67.7569 45.5767C66.4935 45.5767 65.4694 43.7879 65.4694 41.5814C65.4694 39.3749 66.4935 37.5861 67.7569 37.5861C69.0202 37.5861 70.0443 39.3749 70.0443 41.5814Z" fill="#FE7940"/>
<path d="M81.091 40.9955C80.4177 43.19 78.8533 44.7307 77.5968 44.4367C76.3403 44.1427 75.8676 42.1253 76.5409 39.9308C77.2143 37.7363 78.7787 36.1956 80.0352 36.4897C81.2917 36.7837 81.7644 38.801 81.091 40.9955Z" fill="#FE7940"/>
<path d="M63.6382 40.5826C64.9016 42.4935 65.0388 44.4898 63.9447 45.0414C62.8506 45.593 60.9395 44.4911 59.6762 42.5802C58.4129 40.6693 58.2756 38.673 59.3697 38.1214C60.4638 37.5698 62.3749 38.6717 63.6382 40.5826Z" fill="#FE7940"/>
<path d="M68.5892 50.3492C68.63 52.366 67.7269 54.0154 66.5722 54.0332C65.4175 54.051 64.4484 52.4305 64.4076 50.4137C64.3669 48.3969 65.2699 46.7476 66.4246 46.7298C67.5793 46.712 68.5484 48.3325 68.5892 50.3492Z" fill="#FE7940"/>
<path d="M65.0824 54.0666C66.2373 55.8135 66.3627 57.6384 65.3626 58.1426C64.3624 58.6469 62.6154 57.6396 61.4605 55.8928C60.3056 54.1459 60.1802 52.321 61.1804 51.8167C62.1805 51.3125 63.9275 52.3198 65.0824 54.0666Z" fill="#FE7940"/>
<path d="M61.1551 46.9222C62.1327 48.4008 62.2388 49.9454 61.3923 50.3722C60.5457 50.7991 59.067 49.9465 58.0894 48.4679C57.1119 46.9893 57.0057 45.4446 57.8523 45.0178C58.6989 44.5909 60.1776 45.4436 61.1551 46.9222Z" fill="#FE7940"/>
<path d="M74.2997 54.5554C74.3405 56.5721 73.4375 58.2215 72.2828 58.2393C71.128 58.2571 70.1589 56.6366 70.1182 54.6198C70.0774 52.6031 70.9804 50.9537 72.1351 50.9359C73.2898 50.9181 74.2589 52.5386 74.2997 54.5554Z" fill="#FE7940"/>
<path d="M78.8077 49.234C77.6528 50.9808 75.9058 51.9882 74.9056 51.4839C73.9055 50.9796 74.0309 49.1547 75.1858 47.4079C76.3407 45.661 78.0877 44.6537 79.0878 45.158C80.088 45.6622 79.9626 47.4871 78.8077 49.234Z" fill="#FE7940"/>
<path d="M79.5892 55.2436C78.5845 56.7632 77.0648 57.6394 76.1948 57.2008C75.3248 56.7621 75.4339 55.1747 76.4385 53.6551C77.4431 52.1355 78.9628 51.2593 79.8329 51.6979C80.7029 52.1366 80.5938 53.7241 79.5892 55.2436Z" fill="#FE7940"/>
<path d="M73.4892 47.2531C72.4846 48.7727 70.9649 49.6489 70.0949 49.2103C69.2248 48.7716 69.3339 47.1841 70.3386 45.6646C71.3432 44.145 72.8629 43.2688 73.7329 43.7074C74.6029 44.1461 74.4938 45.7335 73.4892 47.2531Z" fill="#FE7940"/>
<path d="M75.2074 39.4315C75.2074 41.1861 74.393 42.6085 73.3884 42.6085C72.3837 42.6085 71.5693 41.1861 71.5693 39.4315C71.5693 37.6768 72.3837 36.2544 73.3884 36.2544C74.393 36.2544 75.2074 37.6768 75.2074 39.4315Z" fill="#FE7940"/>
</g>
<path d="M13.6849 77.6204C12.9251 78.7726 14.9334 80.7538 16.0325 81.6004C14.3709 81.808 10.9157 82.785 10.7338 84.5087C10.5518 86.2323 13.568 87.047 15.0988 87.2389C13.712 87.9345 11.3544 89.7806 13.0188 91.5996C14.6833 93.4186 17.491 92.0562 18.6868 91.1476C18.4775 92.6713 18.7044 95.7656 21.2856 95.953C23.8669 96.1405 24.4701 93.8383 24.4491 92.6637C25.9826 93.5553 29.3511 95.002 30.5568 93.6561C31.7625 92.3103 30.2634 90.4817 29.3632 89.7357C31.3205 90.085 34.5993 89.9385 35.5962 87.8235C36.6342 85.6212 33.3088 84.4559 31.9847 84.2521C32.8403 83.0551 34.2798 80.3493 33.1932 79.1017C32.1066 77.8541 29.1607 78.9837 27.8236 79.7045C28.3311 78.3316 28.9584 75.3898 27.4071 74.6056C25.8558 73.8214 24.3011 75.5961 23.7176 76.5814C23.639 75.4942 22.9511 73.4006 20.8284 73.7243C18.7057 74.0479 18.5311 76.4038 18.7092 77.5413C17.351 77.0876 14.4447 76.4681 13.6849 77.6204Z" fill="#CDCDCD"/>
<path d="M21.9223 83.9626C22.4166 84.2124 22.7013 84.5908 22.5583 84.8078C22.4152 85.0247 21.8985 84.9981 21.4043 84.7482C20.91 84.4983 20.6252 84.1199 20.7683 83.903C20.9114 83.686 21.428 83.7127 21.9223 83.9626Z" fill="#9B9B9B"/>
<path d="M23.042 81.9993C23.4573 82.3634 23.6253 82.8065 23.4171 82.989C23.209 83.1714 22.7036 83.0242 22.2882 82.66C21.8729 82.2959 21.7049 81.8528 21.913 81.6703C22.1212 81.4879 22.6266 81.6351 23.042 81.9993Z" fill="#9B9B9B"/>
<path d="M20.9732 84.9495C21.5443 84.949 22.007 85.1515 22.0067 85.4018C22.0064 85.6522 21.5431 85.8556 20.972 85.8561C20.4009 85.8567 19.9381 85.6542 19.9385 85.4038C19.9388 85.1535 20.402 84.9501 20.9732 84.9495Z" fill="#9B9B9B"/>
<path d="M23.7216 85.2053C24.178 85.4267 24.4452 85.7685 24.3185 85.9688C24.1917 86.1691 23.7189 86.152 23.2625 85.9307C22.8062 85.7093 22.5389 85.3674 22.6657 85.1671C22.7925 84.9668 23.2652 84.9839 23.7216 85.2053Z" fill="#9B9B9B"/>
<path d="M24.1573 86.2284C24.6793 86.2279 25.1023 86.413 25.102 86.6419C25.1018 86.8707 24.6783 87.0567 24.1562 87.0572C23.6341 87.0577 23.2111 86.8726 23.2114 86.6437C23.2117 86.4149 23.6352 86.2289 24.1573 86.2284Z" fill="#9B9B9B"/>
<path d="M22.1121 86.0938C22.554 86.0934 22.9121 86.2501 22.9118 86.4438C22.9116 86.6375 22.5531 86.7949 22.1112 86.7953C21.6693 86.7957 21.3112 86.639 21.3115 86.4453C21.3117 86.2516 21.6702 86.0942 22.1121 86.0938Z" fill="#9B9B9B"/>
<path d="M25.3105 84.701C25.7669 84.9223 26.0341 85.2642 25.9073 85.4645C25.7806 85.6648 25.3078 85.6477 24.8514 85.4263C24.395 85.2049 24.1278 84.8631 24.2546 84.6628C24.3813 84.4625 24.8541 84.4796 25.3105 84.701Z" fill="#9B9B9B"/>
<path d="M24.6289 83.3243C24.8894 83.7204 24.9173 84.1344 24.691 84.2491C24.4648 84.3637 24.0702 84.1356 23.8097 83.7394C23.5492 83.3433 23.5213 82.9292 23.7476 82.8146C23.9738 82.6999 24.3684 82.9281 24.6289 83.3243Z" fill="#9B9B9B"/>
<path d="M26.0636 83.8706C26.2903 84.2152 26.3145 84.5753 26.1177 84.6751C25.9209 84.7748 25.5776 84.5763 25.351 84.2317C25.1244 83.8871 25.1002 83.5269 25.2969 83.4272C25.4937 83.3275 25.837 83.526 26.0636 83.8706Z" fill="#9B9B9B"/>
<path d="M23.5829 84.0132C23.8096 84.3578 23.8338 84.718 23.637 84.8178C23.4402 84.9175 23.0969 84.719 22.8703 84.3744C22.6437 84.0298 22.6195 83.6696 22.8162 83.5699C23.013 83.4702 23.3563 83.6687 23.5829 84.0132Z" fill="#9B9B9B"/>
<path d="M22.0253 82.8325C22.4184 83.0312 22.6448 83.3321 22.5311 83.5046C22.4173 83.6771 22.0064 83.6559 21.6134 83.4572C21.2203 83.2585 20.9939 82.9576 21.1077 82.7851C21.2214 82.6126 21.6323 82.6338 22.0253 82.8325Z" fill="#9B9B9B"/>
<g style="mix-blend-mode:multiply">
<path d="M13.6849 77.6204C12.9251 78.7726 14.9334 80.7538 16.0325 81.6004C14.3709 81.808 10.9157 82.785 10.7338 84.5087C10.5518 86.2323 13.568 87.047 15.0988 87.2389C13.712 87.9345 11.3544 89.7806 13.0188 91.5996C14.6833 93.4186 17.491 92.0562 18.6868 91.1476C18.4775 92.6713 18.7044 95.7656 21.2856 95.953C23.8669 96.1405 24.4701 93.8383 24.4491 92.6637C25.9826 93.5553 29.3511 95.002 30.5568 93.6561C31.7625 92.3103 30.2634 90.4817 29.3632 89.7357C31.3205 90.085 34.5993 89.9385 35.5962 87.8235C36.6342 85.6212 33.3088 84.4559 31.9847 84.2521C32.8403 83.0551 34.2798 80.3493 33.1932 79.1017C32.1066 77.8541 29.1607 78.9837 27.8236 79.7045C28.3311 78.3316 28.9584 75.3898 27.4071 74.6056C25.8558 73.8214 24.3011 75.5961 23.7176 76.5814C23.639 75.4942 22.9511 73.4006 20.8284 73.7243C18.7057 74.0479 18.5311 76.4038 18.7092 77.5413C17.351 77.0876 14.4447 76.4681 13.6849 77.6204Z" fill="#FE7940"/>
<path d="M21.9223 83.9626C22.4166 84.2124 22.7013 84.5908 22.5583 84.8078C22.4152 85.0247 21.8985 84.9981 21.4043 84.7482C20.91 84.4983 20.6252 84.1199 20.7683 83.903C20.9114 83.686 21.428 83.7127 21.9223 83.9626Z" fill="#FE7940"/>
<path d="M23.042 81.9993C23.4573 82.3634 23.6253 82.8065 23.4171 82.989C23.209 83.1714 22.7036 83.0242 22.2882 82.66C21.8729 82.2959 21.7049 81.8528 21.913 81.6703C22.1212 81.4879 22.6266 81.6351 23.042 81.9993Z" fill="#FE7940"/>
<path d="M20.9732 84.9495C21.5443 84.949 22.007 85.1515 22.0067 85.4018C22.0064 85.6522 21.5431 85.8556 20.972 85.8561C20.4009 85.8567 19.9381 85.6542 19.9385 85.4038C19.9388 85.1535 20.402 84.9501 20.9732 84.9495Z" fill="#FE7940"/>
<path d="M23.7216 85.2053C24.178 85.4267 24.4452 85.7685 24.3185 85.9688C24.1917 86.1691 23.7189 86.152 23.2625 85.9307C22.8062 85.7093 22.5389 85.3674 22.6657 85.1671C22.7925 84.9668 23.2652 84.9839 23.7216 85.2053Z" fill="#FE7940"/>
<path d="M24.1573 86.2284C24.6793 86.2279 25.1023 86.413 25.102 86.6419C25.1018 86.8707 24.6783 87.0567 24.1562 87.0572C23.6341 87.0577 23.2111 86.8726 23.2114 86.6437C23.2117 86.4149 23.6352 86.2289 24.1573 86.2284Z" fill="#FE7940"/>
<path d="M22.1121 86.0938C22.554 86.0934 22.9121 86.2501 22.9118 86.4438C22.9116 86.6375 22.5531 86.7949 22.1112 86.7953C21.6693 86.7957 21.3112 86.639 21.3115 86.4453C21.3117 86.2516 21.6702 86.0942 22.1121 86.0938Z" fill="#FE7940"/>
<path d="M25.3105 84.701C25.7669 84.9223 26.0341 85.2642 25.9073 85.4645C25.7806 85.6648 25.3078 85.6477 24.8514 85.4263C24.395 85.2049 24.1278 84.8631 24.2546 84.6628C24.3813 84.4625 24.8541 84.4796 25.3105 84.701Z" fill="#FE7940"/>
<path d="M24.6289 83.3243C24.8894 83.7204 24.9173 84.1344 24.691 84.2491C24.4648 84.3637 24.0702 84.1356 23.8097 83.7394C23.5492 83.3433 23.5213 82.9292 23.7476 82.8146C23.9738 82.6999 24.3684 82.9281 24.6289 83.3243Z" fill="#FE7940"/>
<path d="M26.0636 83.8706C26.2903 84.2152 26.3145 84.5753 26.1177 84.6751C25.9209 84.7748 25.5776 84.5763 25.351 84.2317C25.1244 83.8871 25.1002 83.5269 25.2969 83.4272C25.4937 83.3275 25.837 83.526 26.0636 83.8706Z" fill="#FE7940"/>
<path d="M23.5829 84.0132C23.8096 84.3578 23.8338 84.718 23.637 84.8178C23.4402 84.9175 23.0969 84.719 22.8703 84.3744C22.6437 84.0298 22.6195 83.6696 22.8162 83.5699C23.013 83.4702 23.3563 83.6687 23.5829 84.0132Z" fill="#FE7940"/>
<path d="M22.0253 82.8325C22.4184 83.0312 22.6448 83.3321 22.5311 83.5046C22.4173 83.6771 22.0064 83.6559 21.6134 83.4572C21.2203 83.2585 20.9939 82.9576 21.1077 82.7851C21.2214 82.6126 21.6323 82.6338 22.0253 82.8325Z" fill="#FE7940"/>
</g>
<g style="mix-blend-mode:soft-light">
<path d="M13.6849 77.6204C12.9251 78.7726 14.9334 80.7538 16.0325 81.6004C14.3709 81.808 10.9157 82.785 10.7338 84.5087C10.5518 86.2323 13.568 87.047 15.0988 87.2389C13.712 87.9345 11.3544 89.7806 13.0188 91.5996C14.6833 93.4186 17.491 92.0562 18.6868 91.1476C18.4775 92.6713 18.7044 95.7656 21.2856 95.953C23.8669 96.1405 24.4701 93.8383 24.4491 92.6637C25.9826 93.5553 29.3511 95.002 30.5568 93.6561C31.7625 92.3103 30.2634 90.4817 29.3632 89.7357C31.3205 90.085 34.5993 89.9385 35.5962 87.8235C36.6342 85.6212 33.3088 84.4559 31.9847 84.2521C32.8403 83.0551 34.2798 80.3493 33.1932 79.1017C32.1066 77.8541 29.1607 78.9837 27.8236 79.7045C28.3311 78.3316 28.9584 75.3898 27.4071 74.6056C25.8558 73.8214 24.3011 75.5961 23.7176 76.5814C23.639 75.4942 22.9511 73.4006 20.8284 73.7243C18.7057 74.0479 18.5311 76.4038 18.7092 77.5413C17.351 77.0876 14.4447 76.4681 13.6849 77.6204Z" fill="#FE7940"/>
<path d="M21.9223 83.9626C22.4166 84.2124 22.7013 84.5908 22.5583 84.8078C22.4152 85.0247 21.8985 84.9981 21.4043 84.7482C20.91 84.4983 20.6252 84.1199 20.7683 83.903C20.9114 83.686 21.428 83.7127 21.9223 83.9626Z" fill="#FE7940"/>
<path d="M23.042 81.9993C23.4573 82.3634 23.6253 82.8065 23.4171 82.989C23.209 83.1714 22.7036 83.0242 22.2882 82.66C21.8729 82.2959 21.7049 81.8528 21.913 81.6703C22.1212 81.4879 22.6266 81.6351 23.042 81.9993Z" fill="#FE7940"/>
<path d="M20.9732 84.9495C21.5443 84.949 22.007 85.1515 22.0067 85.4018C22.0064 85.6522 21.5431 85.8556 20.972 85.8561C20.4009 85.8567 19.9381 85.6542 19.9385 85.4038C19.9388 85.1535 20.402 84.9501 20.9732 84.9495Z" fill="#FE7940"/>
<path d="M23.7216 85.2053C24.178 85.4267 24.4452 85.7685 24.3185 85.9688C24.1917 86.1691 23.7189 86.152 23.2625 85.9307C22.8062 85.7093 22.5389 85.3674 22.6657 85.1671C22.7925 84.9668 23.2652 84.9839 23.7216 85.2053Z" fill="#FE7940"/>
<path d="M24.1573 86.2284C24.6793 86.2279 25.1023 86.413 25.102 86.6419C25.1018 86.8707 24.6783 87.0567 24.1562 87.0572C23.6341 87.0577 23.2111 86.8726 23.2114 86.6437C23.2117 86.4149 23.6352 86.2289 24.1573 86.2284Z" fill="#FE7940"/>
<path d="M22.1121 86.0938C22.554 86.0934 22.9121 86.2501 22.9118 86.4438C22.9116 86.6375 22.5531 86.7949 22.1112 86.7953C21.6693 86.7957 21.3112 86.639 21.3115 86.4453C21.3117 86.2516 21.6702 86.0942 22.1121 86.0938Z" fill="#FE7940"/>
<path d="M25.3105 84.701C25.7669 84.9223 26.0341 85.2642 25.9073 85.4645C25.7806 85.6648 25.3078 85.6477 24.8514 85.4263C24.395 85.2049 24.1278 84.8631 24.2546 84.6628C24.3813 84.4625 24.8541 84.4796 25.3105 84.701Z" fill="#FE7940"/>
<path d="M24.6289 83.3243C24.8894 83.7204 24.9173 84.1344 24.691 84.2491C24.4648 84.3637 24.0702 84.1356 23.8097 83.7394C23.5492 83.3433 23.5213 82.9292 23.7476 82.8146C23.9738 82.6999 24.3684 82.9281 24.6289 83.3243Z" fill="#FE7940"/>
<path d="M26.0636 83.8706C26.2903 84.2152 26.3145 84.5753 26.1177 84.6751C25.9209 84.7748 25.5776 84.5763 25.351 84.2317C25.1244 83.8871 25.1002 83.5269 25.2969 83.4272C25.4937 83.3275 25.837 83.526 26.0636 83.8706Z" fill="#FE7940"/>
<path d="M23.5829 84.0132C23.8096 84.3578 23.8338 84.718 23.637 84.8178C23.4402 84.9175 23.0969 84.719 22.8703 84.3744C22.6437 84.0298 22.6195 83.6696 22.8162 83.5699C23.013 83.4702 23.3563 83.6687 23.5829 84.0132Z" fill="#FE7940"/>
<path d="M22.0253 82.8325C22.4184 83.0312 22.6448 83.3321 22.5311 83.5046C22.4173 83.6771 22.0064 83.6559 21.6134 83.4572C21.2203 83.2585 20.9939 82.9576 21.1077 82.7851C21.2214 82.6126 21.6323 82.6338 22.0253 82.8325Z" fill="#FE7940"/>
</g>
</svg>
