<svg width="157" height="202" viewBox="0 0 157 202" fill="none" xmlns="http://www.w3.org/2000/svg">
<path d="M95.5146 93.0365C95.22 92.9379 94.8899 93.0671 94.7773 93.325C91.9219 100.225 82.2137 110 81.1859 124.95L81.7569 128.4C82.7848 111.725 91.3508 103.1 95.8441 93.682C95.9567 93.4241 95.8092 93.135 95.5146 93.0365Z" fill="#0A3019"/>
<path d="M81.6532 138.2C81.7602 135.751 81.8282 133.361 81.8609 131.032L81.8761 129.672C82.0749 105.566 76.41 72.6192 73.2437 64.3303C73.1305 64.0339 72.8001 63.886 72.5057 64C72.2114 64.114 72.0645 64.4467 72.1777 64.7431C75.3222 72.9751 81.034 106.147 80.7232 130.693C80.6966 132.792 80.6411 134.942 80.5541 137.142L80.4975 138.479C79.687 156.477 76.7598 177.682 70.2422 201.271C70.1577 201.577 70.3355 201.894 70.6394 201.979C70.9432 202.064 71.2581 201.885 71.3426 201.579C77.9239 177.759 80.8599 156.354 81.6532 138.2Z" fill="#0A3019"/>
<g clip-path="url(#clip0_81_2764)">
<path fill-rule="evenodd" clip-rule="evenodd" d="M112.857 99.3819C112.767 99.2783 112.598 99.2586 112.479 99.3379C106.607 103.274 92.2542 114.778 81.7493 129.36C81.6698 129.47 81.7075 129.616 81.8335 129.685C81.9595 129.755 82.126 129.722 82.2055 129.612C92.6689 115.087 106.973 103.623 112.807 99.7129C112.926 99.6336 112.948 99.4854 112.857 99.3819Z" fill="#0A3019"/>
<path d="M126.204 88.0963C115.494 93.0469 111.512 99.2604 109.907 101.52C114.158 101.732 120.27 97.4351 124.269 93.238C129.076 87.4755 127.178 87.9043 126.204 88.0963Z" fill="#51B022"/>
<path d="M116.038 104.871C109.168 102.385 104.114 105.936 102.675 107.193C105.842 108.965 110.34 108.539 113.972 106.985C116.629 105.633 116.789 105.079 116.038 104.871Z" fill="#51B022"/>
<path d="M112.5 91.7305C103.686 98.9433 103.316 103.944 103.037 106.59C106.953 105.097 111.522 100.04 113.405 94.9084C114.625 90.9487 113.274 91.1741 112.5 91.7305Z" fill="#51B022"/>
<path d="M94.6352 107.159C92.4539 112.45 91.6857 117.052 92.9195 117.439C93.5091 116.529 96.9217 113.851 99.103 108.561C101.284 103.271 101.486 99.0941 100.434 98.3649C99.3597 98.4139 96.8165 101.869 94.6352 107.159Z" fill="#51B022"/>
</g>
<g style="mix-blend-mode:multiply">
<path d="M94.3037 157.593C92.9835 156.813 91.7548 156.216 90.7389 155.961C90.4768 154.581 89.5212 151.648 87.5279 148.13C86.5085 146.33 85.2177 144.377 83.6094 142.401C81.1986 139.438 81.9182 136.389 84.5377 134.056C85.7388 132.986 87.3395 132.067 89.221 131.375C90.5658 130.881 92.0542 130.503 93.6427 130.269C94.8053 130.099 96.0215 130.005 97.2743 130C98.5436 129.995 99.8505 130.081 101.177 130.269C102.243 130.421 103.321 130.638 104.404 130.927C105.439 131.203 106.429 131.537 107.374 131.921C108.52 132.387 109.598 132.928 110.607 133.535C111.574 134.116 112.478 134.757 113.316 135.448C114.168 136.152 114.952 136.908 115.666 137.707C116.238 138.347 116.765 139.016 117.246 139.707C117.909 140.659 118.484 141.654 118.969 142.681C119.564 143.939 120.023 145.244 120.342 146.573C120.637 147.803 120.811 149.053 120.861 150.305C120.912 151.615 120.828 152.927 120.602 154.221C120.402 155.365 120.091 156.493 119.667 157.593C119.54 157.921 119.404 158.247 119.257 158.569C117.774 161.822 116.135 163.836 114.504 165.027C110.905 167.654 107.345 166.272 105.592 165.349C103.347 164.167 98.3877 160.006 94.3037 157.593Z" fill="#51B022"/>
</g>
<g style="mix-blend-mode:multiply">
<path d="M93.2466 130.331C93.378 130.309 93.5101 130.289 93.6429 130.269C93.7598 130.252 93.8772 130.236 93.9951 130.22C94.0037 130.268 94 130.317 93.982 130.366C92.7924 133.581 92.8878 137.873 93.5102 141.964C94.1281 146.025 95.2583 149.845 96.1145 152.13C99.1816 153.443 103.916 155.231 108.442 156.45C110.764 157.075 113.02 157.548 114.961 157.732C116.918 157.919 118.49 157.805 119.495 157.319C119.585 157.275 119.688 157.27 119.779 157.296C119.742 157.395 119.705 157.494 119.667 157.593C119.613 157.734 119.557 157.874 119.499 158.013C118.312 158.465 116.693 158.527 114.884 158.355C112.88 158.164 110.577 157.679 108.233 157.048C103.545 155.785 98.6474 153.922 95.5669 152.591C95.4009 152.519 95.3267 152.349 95.3907 152.2C94.5284 149.87 93.4168 146.077 92.8035 142.047C92.1872 137.996 92.0673 133.663 93.2466 130.331Z" fill="#51B022"/>
<path d="M88.8379 131.521C88.9643 131.471 89.0921 131.423 89.2211 131.375C89.3303 131.335 89.4404 131.296 89.5514 131.257C89.5745 131.307 89.5833 131.362 89.574 131.419C87.9214 141.565 91.2889 150.562 93.2442 153.929C93.2709 153.938 93.2967 153.95 93.3211 153.965C95.8788 155.549 100.164 157.823 104.691 159.492C106.954 160.327 109.268 161.007 111.452 161.375C113.639 161.744 115.672 161.796 117.383 161.396C117.5 161.368 117.62 161.396 117.706 161.46C117.574 161.667 117.442 161.866 117.308 162.057C115.514 162.428 113.458 162.351 111.318 161.99C109.07 161.611 106.706 160.914 104.414 160.069C99.8854 158.399 95.6037 156.135 93.0026 154.534C92.8789 154.53 92.7609 154.469 92.6992 154.366C90.7145 151.046 87.209 141.892 88.8379 131.521Z" fill="#51B022"/>
<path d="M84.1342 134.436C84.2632 134.308 84.3978 134.181 84.5379 134.056C84.6207 133.982 84.7055 133.909 84.7922 133.837C84.8653 133.902 84.9052 133.995 84.8918 134.093C84.5572 136.545 84.9749 139.372 85.6436 141.923C86.3114 144.471 87.223 146.72 87.8554 148.006C87.9311 148.159 87.8551 148.337 87.6856 148.41C87.6339 148.317 87.5814 148.224 87.5281 148.13C87.1317 147.43 86.6942 146.707 86.213 145.968C85.775 144.834 85.324 143.495 84.9488 142.064C84.3086 139.621 83.8832 136.887 84.1342 134.436Z" fill="#51B022"/>
<path d="M99.2166 160.896C97.5862 159.715 95.8798 158.524 94.3039 157.593C94.2043 157.534 94.1054 157.477 94.0069 157.42C94.0105 157.415 94.0142 157.411 94.0181 157.406C94.1357 157.267 94.3591 157.239 94.5169 157.342C96.9806 158.954 100.942 161.259 104.814 162.93C106.75 163.766 108.651 164.438 110.322 164.788C112.007 165.141 113.393 165.154 114.348 164.746C114.497 164.682 114.671 164.717 114.774 164.822C114.684 164.893 114.594 164.961 114.504 165.027C114.204 165.246 113.905 165.436 113.607 165.602C112.599 165.762 111.415 165.661 110.157 165.397C108.413 165.031 106.459 164.338 104.499 163.491C102.704 162.716 100.892 161.808 99.2166 160.896Z" fill="#51B022"/>
<path d="M120.531 154.6C119.416 155.042 117.879 155.143 116.161 155.04C114.302 154.927 112.172 154.571 110.006 154.089C105.674 153.127 101.16 151.655 98.3228 150.593L98.1585 150.531L98.1163 150.379C97.5184 148.217 96.7429 144.609 96.355 140.795C95.9717 137.026 95.9627 133.019 96.9033 130.004C97.0266 130.002 97.1504 130.001 97.2745 130C97.393 130 97.5119 130 97.631 130.001C97.6309 130.029 97.6266 130.057 97.6176 130.085C96.6852 132.995 96.6799 136.951 97.0651 140.739C97.4406 144.431 98.1829 147.929 98.7673 150.079C101.588 151.127 105.977 152.548 110.181 153.483C112.325 153.959 114.41 154.306 116.21 154.415C118.023 154.525 119.488 154.388 120.434 153.945C120.504 153.912 120.58 153.902 120.653 153.911C120.637 154.014 120.62 154.118 120.602 154.221C120.58 154.347 120.556 154.474 120.531 154.6Z" fill="#51B022"/>
<path d="M120.846 149.992C120.852 150.097 120.857 150.201 120.861 150.305C120.866 150.426 120.869 150.546 120.872 150.667C120.561 150.811 120.16 150.899 119.718 150.952C119.162 151.018 118.491 151.034 117.742 151.012C116.242 150.969 114.388 150.773 112.433 150.498C108.52 149.946 104.163 149.071 101.344 148.433L101.135 148.385L101.086 148.201C100.314 145.303 99.1864 137.674 100.825 130.222C100.942 130.237 101.06 130.253 101.178 130.269C101.295 130.286 101.412 130.303 101.529 130.322C101.529 130.324 101.528 130.326 101.528 130.329C99.9429 137.522 100.978 144.904 101.733 147.874C104.541 148.505 108.758 149.346 112.546 149.88C114.489 150.153 116.31 150.345 117.765 150.387C118.494 150.408 119.121 150.391 119.622 150.332C120.133 150.271 120.468 150.17 120.65 150.053C120.709 150.015 120.777 149.995 120.846 149.992Z" fill="#51B022"/>
<path d="M120.266 146.268C120.292 146.369 120.318 146.471 120.342 146.573C120.369 146.684 120.394 146.796 120.419 146.907C120.337 146.948 120.249 146.979 120.162 147.004C120.007 147.049 119.826 147.082 119.628 147.106C119.232 147.156 118.733 147.175 118.164 147.173C117.025 147.169 115.564 147.076 113.998 146.937C110.863 146.658 107.273 146.187 104.924 145.839L104.641 145.797L104.627 145.545C104.53 143.778 104.533 140.975 104.861 138.3C105.024 136.963 105.27 135.65 105.627 134.511C105.971 133.416 106.427 132.453 107.038 131.787C107.151 131.831 107.263 131.876 107.375 131.921C107.483 131.965 107.59 132.01 107.697 132.055C107.684 132.079 107.667 132.102 107.647 132.123C107.102 132.688 106.661 133.575 106.315 134.677C105.971 135.772 105.731 137.049 105.57 138.367C105.262 140.88 105.244 143.513 105.326 145.263C107.665 145.605 111.079 146.048 114.069 146.314C115.628 146.453 117.062 146.543 118.167 146.547C118.721 146.549 119.181 146.53 119.528 146.487C119.701 146.465 119.838 146.439 119.94 146.409C120.046 146.379 120.09 146.352 120.101 146.343C120.149 146.304 120.206 146.279 120.266 146.268Z" fill="#51B022"/>
<path d="M118.818 142.368C118.869 142.472 118.92 142.576 118.969 142.681C119.015 142.777 119.06 142.874 119.104 142.971C119.062 142.985 119.017 142.994 118.969 142.994H108.453L110.255 133.483C110.264 133.438 110.284 133.396 110.311 133.36C110.411 133.417 110.509 133.476 110.607 133.535C110.716 133.6 110.824 133.666 110.931 133.733L109.295 142.368H118.818Z" fill="#51B022"/>
<path d="M117.024 139.394C117.099 139.498 117.173 139.602 117.246 139.707C117.308 139.796 117.37 139.885 117.43 139.975C117.376 140.004 117.314 140.02 117.246 140.02H112.935C112.738 140.02 112.578 139.88 112.578 139.707C112.578 139.649 112.596 139.594 112.628 139.548L112.96 135.426C112.966 135.352 113.001 135.286 113.054 135.236C113.142 135.306 113.229 135.377 113.316 135.448C113.429 135.541 113.54 135.635 113.65 135.73L113.355 139.394H117.024Z" fill="#51B022"/>
</g>
<path d="M113.355 140.078L116.027 138.122C115.909 137.982 115.788 137.844 115.666 137.707C115.544 137.57 115.419 137.435 115.293 137.301L115.285 137.306L112.594 139.277C112.594 139.277 112.594 139.277 112.594 139.277C112.587 139.282 112.581 139.287 112.574 139.292C112.567 139.297 112.561 139.302 112.554 139.306L90.3279 155.583L77.2304 168.126C77.0087 168.338 77.025 168.668 77.2669 168.863C77.5088 169.058 77.8846 169.043 78.1063 168.831L91.1501 156.339L91.3935 156.161C91.3935 156.161 91.3936 156.161 91.3935 156.161L113.315 140.107C113.322 140.103 113.328 140.098 113.335 140.092C113.342 140.088 113.348 140.083 113.355 140.078Z" fill="#51B022"/>
<g style="mix-blend-mode:multiply">
<path d="M115.292 137.302C115.418 137.436 115.544 137.57 115.666 137.707L116.026 138.123L113.355 140.078C113.349 140.083 113.342 140.088 113.335 140.093C113.329 140.098 113.322 140.103 113.315 140.107L91.3936 156.161L91.3916 156.162C91.1657 156.082 90.9483 156.013 90.7393 155.961C90.7067 155.79 90.6639 155.594 90.6094 155.377L112.554 139.307C112.56 139.302 112.567 139.297 112.574 139.292C112.581 139.287 112.587 139.282 112.594 139.277L115.285 137.307L115.292 137.302Z" fill="#51B022"/>
</g>
<path d="M14.4965 21.6021C26.5384 9.3154 42.9287 14.2886 49.6186 18.311C52.6291 2.51386 63.4165 -1.43527 73.4514 0.758591C117.605 12.1677 95.1937 68.4085 78.4689 95.1027C29.5489 79.7444 -0.555771 36.9604 14.4965 21.6021Z" fill="#CDCDCD"/>
<path d="M22.0224 28.1844C34.0642 15.8977 47.9449 28.5502 54.6349 32.5726C57.6453 16.7755 65.1494 16.7706 72.1962 18.3112C102.304 24.8934 95.1925 68.4088 78.4677 95.1031C29.5477 79.7447 6.97005 43.5427 22.0224 28.1844Z" fill="white"/>
<path fill-rule="evenodd" clip-rule="evenodd" d="M72.8725 7.46477C72.2579 7.74429 72.0187 8.40665 72.3383 8.94419C78.7125 19.6647 80.9147 36.3465 81.0087 53.0101C81.068 63.5301 80.288 73.9618 79.2325 82.7392C78.7285 73.018 77.8368 61.5723 76.4225 50.524C75.3484 42.1342 73.9707 33.9554 72.2271 26.9269C70.4904 19.9262 68.3669 13.9638 65.7519 10.0759C65.4006 9.55369 64.6318 9.37937 64.0347 9.68656C63.4376 9.99375 63.2383 10.6661 63.5895 11.1883C65.9919 14.7602 68.0496 20.4354 69.7754 27.3921C71.4943 34.3209 72.8605 42.4193 73.9293 50.7682C75.3782 62.0862 76.2764 73.8314 76.7697 83.6898L60.8812 16.9905C60.7399 16.3974 60.0756 16.0167 59.3974 16.1403C58.7192 16.2639 58.284 16.8449 58.4253 17.438L73.1271 79.156L47.0421 12.4711C46.8179 11.8978 46.1047 11.5921 45.4493 11.7882C44.7938 11.9843 44.4442 12.608 44.6685 13.1813L70.6245 79.5365L39.4578 23.3178C39.1556 22.7726 38.4053 22.545 37.7819 22.8093C37.1585 23.0736 36.8982 23.7299 37.2004 24.275L67.445 78.8303C62.0209 71.1552 56.1803 62.7014 50.8292 54.6215C45.9427 47.2431 41.4721 40.1883 38.1012 34.3285C36.4155 31.3981 35.0114 28.778 33.9692 26.5725C32.9186 24.3491 32.2668 22.6106 32.0403 21.422C31.9264 20.8244 31.2801 20.4207 30.5968 20.5203C29.9134 20.6199 29.4518 21.1851 29.5657 21.7827C29.8409 23.227 30.5846 25.1543 31.6507 27.4105C32.7253 29.6846 34.1591 32.3575 35.8601 35.3146C39.2628 41.2295 43.7609 48.3263 48.6583 55.7212C54.8497 65.0698 61.6918 74.9136 67.7907 83.4797C59.8478 75.0771 51.0156 65.3276 43.3904 56.1186C37.5431 49.0569 32.428 42.3397 28.9676 36.8047C27.236 34.035 25.939 31.5931 25.1679 29.572C24.3791 27.5045 24.2135 26.0589 24.487 25.1821C24.6693 24.5976 24.2752 23.9945 23.6069 23.8351C22.9385 23.6757 22.2489 24.0203 22.0667 24.6048C21.5875 26.1414 21.9681 28.1172 22.7881 30.2664C23.6258 32.462 25.0001 35.0321 26.7664 37.8573C30.3016 43.5119 35.4879 50.3155 41.3585 57.4054C48.8821 66.4918 57.5665 76.0923 65.4241 84.419C59.547 79.6443 53.2628 74.3698 47.5029 69.24C42.1007 64.4287 37.178 59.7609 33.4883 55.7612C31.6429 53.7608 30.1212 51.9439 29.0053 50.3714C27.874 48.7774 27.2213 47.5187 27.0155 46.6188C26.8797 46.0247 26.2188 45.6394 25.5395 45.7582C24.8602 45.877 24.4197 46.455 24.5555 47.0491C24.8515 48.3433 25.6988 49.8728 26.8737 51.5284C28.064 53.2057 29.6547 55.0998 31.5358 57.1389C35.2991 61.2183 40.2858 65.9438 45.7129 70.7772C54.0998 78.2467 63.582 86.0126 71.3247 92.1152C61.5116 87.3944 45.8319 77.5235 29.2518 60.3867C28.8043 59.9241 28.0129 59.8665 27.484 60.2578C26.9552 60.6492 26.8892 61.3414 27.3367 61.8039C49.5194 84.7315 70.2723 94.967 78.0719 97.2408L78.9892 97.5082L79.5184 96.8004C83.1296 91.9702 88.3195 83.3845 92.2321 73.2389C96.1419 63.1003 98.8109 51.3152 97.275 40.1211C97.1924 39.5195 96.5679 39.0904 95.8801 39.1626C95.1923 39.2348 94.7016 39.7809 94.7841 40.3825C96.2587 51.1289 93.7012 62.5641 89.8549 72.5377C88.384 76.3517 86.7298 79.939 85.0519 83.1766C86.6627 78.2612 88.1509 72.6592 89.2099 66.6938C91.4523 54.0617 91.7863 39.7072 87.1928 26.7623C86.9875 26.1837 86.2846 25.8602 85.623 26.0398C84.9614 26.2193 84.5915 26.834 84.7968 27.4127C89.2347 39.9188 88.9415 53.9041 86.7309 66.3572C85.3934 73.8917 83.3602 80.8313 81.2776 86.4952C82.5616 76.9853 83.5853 65.0536 83.5174 52.9993C83.4232 36.2951 81.2353 19.152 74.5641 7.93196C74.2445 7.39442 73.4871 7.18525 72.8725 7.46477Z" fill="#0A3019"/>
<g style="mix-blend-mode:multiply">
<path d="M14.4965 21.6021C26.5384 9.3154 42.9287 14.2886 49.6186 18.311C52.6291 2.51386 63.4165 -1.43527 73.4514 0.758591C117.605 12.1677 95.1937 68.4085 78.4689 95.1027C29.5489 79.7444 -0.555771 36.9604 14.4965 21.6021Z" fill="#FD6565"/>
<path d="M22.0224 28.1844C34.0642 15.8977 47.9449 28.5502 54.6349 32.5726C57.6453 16.7755 65.1494 16.7706 72.1962 18.3112C102.304 24.8934 95.1925 68.4088 78.4677 95.1031C29.5477 79.7447 6.97005 43.5427 22.0224 28.1844Z" fill="#FD6565"/>
<path fill-rule="evenodd" clip-rule="evenodd" d="M72.8725 7.46477C72.2579 7.74429 72.0187 8.40665 72.3383 8.94419C78.7125 19.6647 80.9147 36.3465 81.0087 53.0101C81.068 63.5301 80.288 73.9618 79.2325 82.7392C78.7285 73.018 77.8368 61.5723 76.4225 50.524C75.3484 42.1342 73.9707 33.9554 72.2271 26.9269C70.4904 19.9262 68.3669 13.9638 65.7519 10.0759C65.4006 9.55369 64.6318 9.37937 64.0347 9.68656C63.4376 9.99375 63.2383 10.6661 63.5895 11.1883C65.9919 14.7602 68.0496 20.4354 69.7754 27.3921C71.4943 34.3209 72.8605 42.4193 73.9293 50.7682C75.3782 62.0862 76.2764 73.8314 76.7697 83.6898L60.8812 16.9905C60.7399 16.3974 60.0756 16.0167 59.3974 16.1403C58.7192 16.2639 58.284 16.8449 58.4253 17.438L73.1271 79.156L47.0421 12.4711C46.8179 11.8978 46.1047 11.5921 45.4493 11.7882C44.7938 11.9843 44.4442 12.608 44.6685 13.1813L70.6245 79.5365L39.4578 23.3178C39.1556 22.7726 38.4053 22.545 37.7819 22.8093C37.1585 23.0736 36.8982 23.7299 37.2004 24.275L67.445 78.8303C62.0209 71.1552 56.1803 62.7014 50.8292 54.6215C45.9427 47.2431 41.4721 40.1883 38.1012 34.3285C36.4155 31.3981 35.0114 28.778 33.9692 26.5725C32.9186 24.3491 32.2668 22.6106 32.0403 21.422C31.9264 20.8244 31.2801 20.4207 30.5968 20.5203C29.9134 20.6199 29.4518 21.1851 29.5657 21.7827C29.8409 23.227 30.5846 25.1543 31.6507 27.4105C32.7253 29.6846 34.1591 32.3575 35.8601 35.3146C39.2628 41.2295 43.7609 48.3263 48.6583 55.7212C54.8497 65.0698 61.6918 74.9136 67.7907 83.4797C59.8478 75.0771 51.0156 65.3276 43.3904 56.1186C37.5431 49.0569 32.428 42.3397 28.9676 36.8047C27.236 34.035 25.939 31.5931 25.1679 29.572C24.3791 27.5045 24.2135 26.0589 24.487 25.1821C24.6693 24.5976 24.2752 23.9945 23.6069 23.8351C22.9385 23.6757 22.2489 24.0203 22.0667 24.6048C21.5875 26.1414 21.9681 28.1172 22.7881 30.2664C23.6258 32.462 25.0001 35.0321 26.7664 37.8573C30.3016 43.5119 35.4879 50.3155 41.3585 57.4054C48.8821 66.4918 57.5665 76.0923 65.4241 84.419C59.547 79.6443 53.2628 74.3698 47.5029 69.24C42.1007 64.4287 37.178 59.7609 33.4883 55.7612C31.6429 53.7608 30.1212 51.9439 29.0053 50.3714C27.874 48.7774 27.2213 47.5187 27.0155 46.6188C26.8797 46.0247 26.2188 45.6394 25.5395 45.7582C24.8602 45.877 24.4197 46.455 24.5555 47.0491C24.8515 48.3433 25.6988 49.8728 26.8737 51.5284C28.064 53.2057 29.6547 55.0998 31.5358 57.1389C35.2991 61.2183 40.2858 65.9438 45.7129 70.7772C54.0998 78.2467 63.582 86.0126 71.3247 92.1152C61.5116 87.3944 45.8319 77.5235 29.2518 60.3867C28.8043 59.9241 28.0129 59.8665 27.484 60.2578C26.9552 60.6492 26.8892 61.3414 27.3367 61.8039C49.5194 84.7315 70.2723 94.967 78.0719 97.2408L78.9892 97.5082L79.5184 96.8004C83.1296 91.9702 88.3195 83.3845 92.2321 73.2389C96.1419 63.1003 98.8109 51.3152 97.275 40.1211C97.1924 39.5195 96.5679 39.0904 95.8801 39.1626C95.1923 39.2348 94.7016 39.7809 94.7841 40.3825C96.2587 51.1289 93.7012 62.5641 89.8549 72.5377C88.384 76.3517 86.7298 79.939 85.0519 83.1766C86.6627 78.2612 88.1509 72.6592 89.2099 66.6938C91.4523 54.0617 91.7863 39.7072 87.1928 26.7623C86.9875 26.1837 86.2846 25.8602 85.623 26.0398C84.9614 26.2193 84.5915 26.834 84.7968 27.4127C89.2347 39.9188 88.9415 53.9041 86.7309 66.3572C85.3934 73.8917 83.3602 80.8313 81.2776 86.4952C82.5616 76.9853 83.5853 65.0536 83.5174 52.9993C83.4232 36.2951 81.2353 19.152 74.5641 7.93196C74.2445 7.39442 73.4871 7.18525 72.8725 7.46477Z" fill="#FD6565"/>
</g>
<g style="mix-blend-mode:soft-light">
<path d="M14.4965 21.6021C26.5384 9.3154 42.9287 14.2886 49.6186 18.311C52.6291 2.51386 63.4165 -1.43527 73.4514 0.758591C117.605 12.1677 95.1937 68.4085 78.4689 95.1027C29.5489 79.7444 -0.555771 36.9604 14.4965 21.6021Z" fill="#FD6565"/>
<path d="M22.0224 28.1844C34.0642 15.8977 47.9449 28.5502 54.6349 32.5726C57.6453 16.7755 65.1494 16.7706 72.1962 18.3112C102.304 24.8934 95.1925 68.4088 78.4677 95.1031C29.5477 79.7447 6.97005 43.5427 22.0224 28.1844Z" fill="#FD6565"/>
<path fill-rule="evenodd" clip-rule="evenodd" d="M72.8725 7.46477C72.2579 7.74429 72.0187 8.40665 72.3383 8.94419C78.7125 19.6647 80.9147 36.3465 81.0087 53.0101C81.068 63.5301 80.288 73.9618 79.2325 82.7392C78.7285 73.018 77.8368 61.5723 76.4225 50.524C75.3484 42.1342 73.9707 33.9554 72.2271 26.9269C70.4904 19.9262 68.3669 13.9638 65.7519 10.0759C65.4006 9.55369 64.6318 9.37937 64.0347 9.68656C63.4376 9.99375 63.2383 10.6661 63.5895 11.1883C65.9919 14.7602 68.0496 20.4354 69.7754 27.3921C71.4943 34.3209 72.8605 42.4193 73.9293 50.7682C75.3782 62.0862 76.2764 73.8314 76.7697 83.6898L60.8812 16.9905C60.7399 16.3974 60.0756 16.0167 59.3974 16.1403C58.7192 16.2639 58.284 16.8449 58.4253 17.438L73.1271 79.156L47.0421 12.4711C46.8179 11.8978 46.1047 11.5921 45.4493 11.7882C44.7938 11.9843 44.4442 12.608 44.6685 13.1813L70.6245 79.5365L39.4578 23.3178C39.1556 22.7726 38.4053 22.545 37.7819 22.8093C37.1585 23.0736 36.8982 23.7299 37.2004 24.275L67.445 78.8303C62.0209 71.1552 56.1803 62.7014 50.8292 54.6215C45.9427 47.2431 41.4721 40.1883 38.1012 34.3285C36.4155 31.3981 35.0114 28.778 33.9692 26.5725C32.9186 24.3491 32.2668 22.6106 32.0403 21.422C31.9264 20.8244 31.2801 20.4207 30.5968 20.5203C29.9134 20.6199 29.4518 21.1851 29.5657 21.7827C29.8409 23.227 30.5846 25.1543 31.6507 27.4105C32.7253 29.6846 34.1591 32.3575 35.8601 35.3146C39.2628 41.2295 43.7609 48.3263 48.6583 55.7212C54.8497 65.0698 61.6918 74.9136 67.7907 83.4797C59.8478 75.0771 51.0156 65.3276 43.3904 56.1186C37.5431 49.0569 32.428 42.3397 28.9676 36.8047C27.236 34.035 25.939 31.5931 25.1679 29.572C24.3791 27.5045 24.2135 26.0589 24.487 25.1821C24.6693 24.5976 24.2752 23.9945 23.6069 23.8351C22.9385 23.6757 22.2489 24.0203 22.0667 24.6048C21.5875 26.1414 21.9681 28.1172 22.7881 30.2664C23.6258 32.462 25.0001 35.0321 26.7664 37.8573C30.3016 43.5119 35.4879 50.3155 41.3585 57.4054C48.8821 66.4918 57.5665 76.0923 65.4241 84.419C59.547 79.6443 53.2628 74.3698 47.5029 69.24C42.1007 64.4287 37.178 59.7609 33.4883 55.7612C31.6429 53.7608 30.1212 51.9439 29.0053 50.3714C27.874 48.7774 27.2213 47.5187 27.0155 46.6188C26.8797 46.0247 26.2188 45.6394 25.5395 45.7582C24.8602 45.877 24.4197 46.455 24.5555 47.0491C24.8515 48.3433 25.6988 49.8728 26.8737 51.5284C28.064 53.2057 29.6547 55.0998 31.5358 57.1389C35.2991 61.2183 40.2858 65.9438 45.7129 70.7772C54.0998 78.2467 63.582 86.0126 71.3247 92.1152C61.5116 87.3944 45.8319 77.5235 29.2518 60.3867C28.8043 59.9241 28.0129 59.8665 27.484 60.2578C26.9552 60.6492 26.8892 61.3414 27.3367 61.8039C49.5194 84.7315 70.2723 94.967 78.0719 97.2408L78.9892 97.5082L79.5184 96.8004C83.1296 91.9702 88.3195 83.3845 92.2321 73.2389C96.1419 63.1003 98.8109 51.3152 97.275 40.1211C97.1924 39.5195 96.5679 39.0904 95.8801 39.1626C95.1923 39.2348 94.7016 39.7809 94.7841 40.3825C96.2587 51.1289 93.7012 62.5641 89.8549 72.5377C88.384 76.3517 86.7298 79.939 85.0519 83.1766C86.6627 78.2612 88.1509 72.6592 89.2099 66.6938C91.4523 54.0617 91.7863 39.7072 87.1928 26.7623C86.9875 26.1837 86.2846 25.8602 85.623 26.0398C84.9614 26.2193 84.5915 26.834 84.7968 27.4127C89.2347 39.9188 88.9415 53.9041 86.7309 66.3572C85.3934 73.8917 83.3602 80.8313 81.2776 86.4952C82.5616 76.9853 83.5853 65.0536 83.5174 52.9993C83.4232 36.2951 81.2353 19.152 74.5641 7.93196C74.2445 7.39442 73.4871 7.18525 72.8725 7.46477Z" fill="#FD6565"/>
</g>
<path d="M92.4909 55.7993C73.8743 62.0672 86.0619 84.6707 94.4829 95.1889C122.121 95.9478 132.766 82.9198 131.843 77.6666C131.105 73.4641 125.334 72.3181 122.541 72.2705C122.882 61.796 113.947 62.0501 109.437 63.4865C104.115 55.344 95.9222 54.969 92.4909 55.7993Z" fill="#CDCDCD"/>
<path d="M95.9277 65.5533C104.432 65.3921 107.753 72.5651 108.351 76.1717C115.459 72.2344 118.894 74.3552 119.945 76.7389C123.827 88.1551 102.997 91.7151 92.6831 90.7824C83.7586 83.191 85.2971 65.7548 95.9277 65.5533Z" fill="white"/>
<path fill-rule="evenodd" clip-rule="evenodd" d="M96.0489 69.0971C96.2462 69.1231 96.382 69.2846 96.3522 69.4578L95.9206 71.9666C95.8908 72.1398 95.7066 72.2591 95.5093 72.233C95.312 72.207 95.1762 72.0455 95.206 71.8723L95.6377 69.3636C95.6675 69.1904 95.8516 69.0711 96.0489 69.0971ZM99.6012 71.8106C99.7985 71.8366 99.9343 71.9981 99.9045 72.1713L99.4189 74.9937C99.3891 75.1669 99.205 75.2862 99.0077 75.2602C98.8104 75.2341 98.6746 75.0726 98.7044 74.8994L99.19 72.0771C99.2198 71.9039 99.4039 71.7846 99.6012 71.8106ZM92.1397 72.1217C92.3376 72.0991 92.5188 72.2216 92.5443 72.3953L92.8812 74.6847C92.9067 74.8584 92.767 75.0175 92.5691 75.04C92.3712 75.0626 92.19 74.9401 92.1645 74.7664L91.8276 72.477C91.8021 72.3033 91.9418 72.1442 92.1397 72.1217ZM114.291 76.6768C114.448 76.7853 114.474 76.9847 114.35 77.1222L112.544 79.1289C112.42 79.2663 112.193 79.2898 112.036 79.1813C111.88 79.0727 111.853 78.8733 111.977 78.7359L113.784 76.7292C113.907 76.5917 114.135 76.5682 114.291 76.6768ZM96.2574 74.256C96.4547 74.282 96.5905 74.4435 96.5607 74.6167L96.183 76.8119C96.1532 76.9851 95.9691 77.1044 95.7718 77.0784C95.5745 77.0523 95.4387 76.8908 95.4685 76.7176L95.8462 74.5225C95.876 74.3493 96.0601 74.23 96.2574 74.256ZM103.681 76.5438C103.85 76.636 103.903 76.8314 103.797 76.9804L102.348 79.0342C102.243 79.1831 102.02 79.2292 101.851 79.137C101.681 79.0449 101.629 78.8494 101.734 78.7005L103.183 76.6467C103.288 76.4977 103.511 76.4517 103.681 76.5438ZM105.742 79.3785C105.915 79.467 105.972 79.6612 105.871 79.8124L104.887 81.2861C104.786 81.4372 104.565 81.488 104.392 81.3995C104.22 81.3111 104.163 81.1168 104.264 80.9657L105.248 79.4919C105.349 79.3408 105.57 79.29 105.742 79.3785ZM110.662 80.6796C110.825 80.7804 110.864 80.9782 110.749 81.1214L108.888 83.4417C108.773 83.585 108.548 83.6195 108.385 83.5187C108.222 83.418 108.182 83.2202 108.297 83.0769L110.158 80.7566C110.273 80.6134 110.498 80.5789 110.662 80.6796ZM92.8534 78.9404C93.0528 78.9471 93.2081 79.0945 93.2003 79.2695L93.072 82.139C93.0642 82.314 92.8962 82.4504 92.6968 82.4436C92.4974 82.4369 92.3421 82.2896 92.3499 82.1146L92.4782 79.2451C92.4861 79.0701 92.654 78.9336 92.8534 78.9404ZM96.1087 79.3678C96.306 79.3938 96.4418 79.5553 96.412 79.7285L95.8724 82.8644C95.8426 83.0376 95.6585 83.1569 95.4612 83.1309C95.2639 83.1049 95.1281 82.9434 95.1579 82.7702L95.6974 79.6342C95.7272 79.461 95.9114 79.3417 96.1087 79.3678ZM99.7149 81.7677C99.9122 81.7937 100.048 81.9552 100.018 82.1284L99.5326 84.9508C99.5028 85.124 99.3187 85.2433 99.1214 85.2172C98.9241 85.1912 98.7883 85.0297 98.8181 84.8565L99.3037 82.0342C99.3335 81.861 99.5176 81.7417 99.7149 81.7677ZM111.908 84.0512C112.071 84.1519 112.111 84.3497 111.996 84.493L111.065 85.6531C110.95 85.7964 110.725 85.8309 110.562 85.7302C110.399 85.6294 110.36 85.4316 110.475 85.2884L111.405 84.1282C111.52 83.9849 111.745 83.9505 111.908 84.0512ZM107.083 84.7176C107.231 84.8353 107.242 85.0359 107.107 85.1656L105.354 86.8587C105.22 86.9883 104.992 86.998 104.844 86.8803C104.696 86.7626 104.686 86.562 104.82 86.4323L106.573 84.7393C106.707 84.6096 106.935 84.5999 107.083 84.7176ZM109.044 86.2845C109.172 86.4182 109.153 86.6183 109.001 86.7315L106.069 88.9104C105.916 89.0236 105.688 89.0071 105.559 88.8734C105.43 88.7398 105.45 88.5397 105.602 88.4265L108.534 86.2476C108.687 86.1344 108.915 86.1509 109.044 86.2845Z" fill="#CDCDCD"/>
<path d="M97.9348 88.7007C93.0654 84.7231 87.8237 82.3427 85.9902 81.6732L89.805 89.232L94.9074 95.6778L102.626 95.413L109.381 94.3796C107.812 91.607 101.096 89.4384 97.9348 88.7007Z" fill="#9B9B9B"/>
<g style="mix-blend-mode:multiply">
<path d="M92.4909 55.7993C73.8743 62.0672 86.0619 84.6707 94.4829 95.1889C122.121 95.9478 132.766 82.9198 131.843 77.6666C131.105 73.4641 125.334 72.3181 122.541 72.2705C122.882 61.796 113.947 62.0501 109.437 63.4865C104.115 55.344 95.9222 54.969 92.4909 55.7993Z" fill="#FD6565"/>
<path d="M95.9277 65.5533C104.432 65.3921 107.753 72.5651 108.351 76.1717C115.459 72.2344 118.894 74.3552 119.945 76.7389C123.827 88.1551 102.997 91.7151 92.6831 90.7824C83.7586 83.191 85.2971 65.7548 95.9277 65.5533Z" fill="#FD6565"/>
<path fill-rule="evenodd" clip-rule="evenodd" d="M96.0489 69.0971C96.2462 69.1231 96.382 69.2846 96.3522 69.4578L95.9206 71.9666C95.8908 72.1398 95.7066 72.2591 95.5093 72.233C95.312 72.207 95.1762 72.0455 95.206 71.8723L95.6377 69.3636C95.6675 69.1904 95.8516 69.0711 96.0489 69.0971ZM99.6012 71.8106C99.7985 71.8366 99.9343 71.9981 99.9045 72.1713L99.4189 74.9937C99.3891 75.1669 99.205 75.2862 99.0077 75.2602C98.8104 75.2341 98.6746 75.0726 98.7044 74.8994L99.19 72.0771C99.2198 71.9039 99.4039 71.7846 99.6012 71.8106ZM92.1397 72.1217C92.3376 72.0991 92.5188 72.2216 92.5443 72.3953L92.8812 74.6847C92.9067 74.8584 92.767 75.0175 92.5691 75.04C92.3712 75.0626 92.19 74.9401 92.1645 74.7664L91.8276 72.477C91.8021 72.3033 91.9418 72.1442 92.1397 72.1217ZM114.291 76.6768C114.448 76.7853 114.474 76.9847 114.35 77.1222L112.544 79.1289C112.42 79.2663 112.193 79.2898 112.036 79.1813C111.88 79.0727 111.853 78.8733 111.977 78.7359L113.784 76.7292C113.907 76.5917 114.135 76.5682 114.291 76.6768ZM96.2574 74.256C96.4547 74.282 96.5905 74.4435 96.5607 74.6167L96.183 76.8119C96.1532 76.9851 95.9691 77.1044 95.7718 77.0784C95.5745 77.0523 95.4387 76.8908 95.4685 76.7176L95.8462 74.5225C95.876 74.3493 96.0601 74.23 96.2574 74.256ZM103.681 76.5438C103.85 76.636 103.903 76.8314 103.797 76.9804L102.348 79.0342C102.243 79.1831 102.02 79.2292 101.851 79.137C101.681 79.0449 101.629 78.8494 101.734 78.7005L103.183 76.6467C103.288 76.4977 103.511 76.4517 103.681 76.5438ZM105.742 79.3785C105.915 79.467 105.972 79.6612 105.871 79.8124L104.887 81.2861C104.786 81.4372 104.565 81.488 104.392 81.3995C104.22 81.3111 104.163 81.1168 104.264 80.9657L105.248 79.4919C105.349 79.3408 105.57 79.29 105.742 79.3785ZM110.662 80.6796C110.825 80.7804 110.864 80.9782 110.749 81.1214L108.888 83.4417C108.773 83.585 108.548 83.6195 108.385 83.5187C108.222 83.418 108.182 83.2202 108.297 83.0769L110.158 80.7566C110.273 80.6134 110.498 80.5789 110.662 80.6796ZM92.8534 78.9404C93.0528 78.9471 93.2081 79.0945 93.2003 79.2695L93.072 82.139C93.0642 82.314 92.8962 82.4504 92.6968 82.4436C92.4974 82.4369 92.3421 82.2896 92.3499 82.1146L92.4782 79.2451C92.4861 79.0701 92.654 78.9336 92.8534 78.9404ZM96.1087 79.3678C96.306 79.3938 96.4418 79.5553 96.412 79.7285L95.8724 82.8644C95.8426 83.0376 95.6585 83.1569 95.4612 83.1309C95.2639 83.1049 95.1281 82.9434 95.1579 82.7702L95.6974 79.6342C95.7272 79.461 95.9114 79.3417 96.1087 79.3678ZM99.7149 81.7677C99.9122 81.7937 100.048 81.9552 100.018 82.1284L99.5326 84.9508C99.5028 85.124 99.3187 85.2433 99.1214 85.2172C98.9241 85.1912 98.7883 85.0297 98.8181 84.8565L99.3037 82.0342C99.3335 81.861 99.5176 81.7417 99.7149 81.7677ZM111.908 84.0512C112.071 84.1519 112.111 84.3497 111.996 84.493L111.065 85.6531C110.95 85.7964 110.725 85.8309 110.562 85.7302C110.399 85.6294 110.36 85.4316 110.475 85.2884L111.405 84.1282C111.52 83.9849 111.745 83.9505 111.908 84.0512ZM107.083 84.7176C107.231 84.8353 107.242 85.0359 107.107 85.1656L105.354 86.8587C105.22 86.9883 104.992 86.998 104.844 86.8803C104.696 86.7626 104.686 86.562 104.82 86.4323L106.573 84.7393C106.707 84.6096 106.935 84.5999 107.083 84.7176ZM109.044 86.2845C109.172 86.4182 109.153 86.6183 109.001 86.7315L106.069 88.9104C105.916 89.0236 105.688 89.0071 105.559 88.8734C105.43 88.7398 105.45 88.5397 105.602 88.4265L108.534 86.2476C108.687 86.1344 108.915 86.1509 109.044 86.2845Z" fill="#FD6565"/>
<path d="M97.9348 88.7007C93.0654 84.7231 87.8237 82.3427 85.9902 81.6732L89.805 89.232L94.9074 95.6778L102.626 95.413L109.381 94.3796C107.812 91.607 101.096 89.4384 97.9348 88.7007Z" fill="#FD6565"/>
</g>
<g style="mix-blend-mode:soft-light">
<path d="M92.4909 55.7993C73.8743 62.0672 86.0619 84.6707 94.4829 95.1889C122.121 95.9478 132.766 82.9198 131.843 77.6666C131.105 73.4641 125.334 72.3181 122.541 72.2705C122.882 61.796 113.947 62.0501 109.437 63.4865C104.115 55.344 95.9222 54.969 92.4909 55.7993Z" fill="#FD6565"/>
<path d="M95.9277 65.5533C104.432 65.3921 107.753 72.5651 108.351 76.1717C115.459 72.2344 118.894 74.3552 119.945 76.7389C123.827 88.1551 102.997 91.7151 92.6831 90.7824C83.7586 83.191 85.2971 65.7548 95.9277 65.5533Z" fill="#FD6565"/>
<path fill-rule="evenodd" clip-rule="evenodd" d="M96.0489 69.0971C96.2462 69.1231 96.382 69.2846 96.3522 69.4578L95.9206 71.9666C95.8908 72.1398 95.7066 72.2591 95.5093 72.233C95.312 72.207 95.1762 72.0455 95.206 71.8723L95.6377 69.3636C95.6675 69.1904 95.8516 69.0711 96.0489 69.0971ZM99.6012 71.8106C99.7985 71.8366 99.9343 71.9981 99.9045 72.1713L99.4189 74.9937C99.3891 75.1669 99.205 75.2862 99.0077 75.2602C98.8104 75.2341 98.6746 75.0726 98.7044 74.8994L99.19 72.0771C99.2198 71.9039 99.4039 71.7846 99.6012 71.8106ZM92.1397 72.1217C92.3376 72.0991 92.5188 72.2216 92.5443 72.3953L92.8812 74.6847C92.9067 74.8584 92.767 75.0175 92.5691 75.04C92.3712 75.0626 92.19 74.9401 92.1645 74.7664L91.8276 72.477C91.8021 72.3033 91.9418 72.1442 92.1397 72.1217ZM114.291 76.6768C114.448 76.7853 114.474 76.9847 114.35 77.1222L112.544 79.1289C112.42 79.2663 112.193 79.2898 112.036 79.1813C111.88 79.0727 111.853 78.8733 111.977 78.7359L113.784 76.7292C113.907 76.5917 114.135 76.5682 114.291 76.6768ZM96.2574 74.256C96.4547 74.282 96.5905 74.4435 96.5607 74.6167L96.183 76.8119C96.1532 76.9851 95.9691 77.1044 95.7718 77.0784C95.5745 77.0523 95.4387 76.8908 95.4685 76.7176L95.8462 74.5225C95.876 74.3493 96.0601 74.23 96.2574 74.256ZM103.681 76.5438C103.85 76.636 103.903 76.8314 103.797 76.9804L102.348 79.0342C102.243 79.1831 102.02 79.2292 101.851 79.137C101.681 79.0449 101.629 78.8494 101.734 78.7005L103.183 76.6467C103.288 76.4977 103.511 76.4517 103.681 76.5438ZM105.742 79.3785C105.915 79.467 105.972 79.6612 105.871 79.8124L104.887 81.2861C104.786 81.4372 104.565 81.488 104.392 81.3995C104.22 81.3111 104.163 81.1168 104.264 80.9657L105.248 79.4919C105.349 79.3408 105.57 79.29 105.742 79.3785ZM110.662 80.6796C110.825 80.7804 110.864 80.9782 110.749 81.1214L108.888 83.4417C108.773 83.585 108.548 83.6195 108.385 83.5187C108.222 83.418 108.182 83.2202 108.297 83.0769L110.158 80.7566C110.273 80.6134 110.498 80.5789 110.662 80.6796ZM92.8534 78.9404C93.0528 78.9471 93.2081 79.0945 93.2003 79.2695L93.072 82.139C93.0642 82.314 92.8962 82.4504 92.6968 82.4436C92.4974 82.4369 92.3421 82.2896 92.3499 82.1146L92.4782 79.2451C92.4861 79.0701 92.654 78.9336 92.8534 78.9404ZM96.1087 79.3678C96.306 79.3938 96.4418 79.5553 96.412 79.7285L95.8724 82.8644C95.8426 83.0376 95.6585 83.1569 95.4612 83.1309C95.2639 83.1049 95.1281 82.9434 95.1579 82.7702L95.6974 79.6342C95.7272 79.461 95.9114 79.3417 96.1087 79.3678ZM99.7149 81.7677C99.9122 81.7937 100.048 81.9552 100.018 82.1284L99.5326 84.9508C99.5028 85.124 99.3187 85.2433 99.1214 85.2172C98.9241 85.1912 98.7883 85.0297 98.8181 84.8565L99.3037 82.0342C99.3335 81.861 99.5176 81.7417 99.7149 81.7677ZM111.908 84.0512C112.071 84.1519 112.111 84.3497 111.996 84.493L111.065 85.6531C110.95 85.7964 110.725 85.8309 110.562 85.7302C110.399 85.6294 110.36 85.4316 110.475 85.2884L111.405 84.1282C111.52 83.9849 111.745 83.9505 111.908 84.0512ZM107.083 84.7176C107.231 84.8353 107.242 85.0359 107.107 85.1656L105.354 86.8587C105.22 86.9883 104.992 86.998 104.844 86.8803C104.696 86.7626 104.686 86.562 104.82 86.4323L106.573 84.7393C106.707 84.6096 106.935 84.5999 107.083 84.7176ZM109.044 86.2845C109.172 86.4182 109.153 86.6183 109.001 86.7315L106.069 88.9104C105.916 89.0236 105.688 89.0071 105.559 88.8734C105.43 88.7398 105.45 88.5397 105.602 88.4265L108.534 86.2476C108.687 86.1344 108.915 86.1509 109.044 86.2845Z" fill="#FD6565"/>
<path d="M97.9348 88.7007C93.0654 84.7231 87.8237 82.3427 85.9902 81.6732L89.805 89.232L94.9074 95.6778L102.626 95.413L109.381 94.3796C107.812 91.607 101.096 89.4384 97.9348 88.7007Z" fill="#FD6565"/>
</g>
<path d="M57.3428 109.48C52.98 108.153 44.0363 103 43.1637 93C47.8901 94.2111 57.3428 99.2027 57.3428 109.48Z" fill="#51B022"/>
<path d="M49.7079 119.217C45.3451 119.773 36.4014 119.154 35.5288 112.231C38.4373 111.279 45.3451 111.344 49.7079 119.217Z" fill="#51B022"/>
<path d="M66.4665 112.231C63.9706 110.628 60.0695 105.308 64.4323 96.8462C66.8791 100.051 70.7115 107.615 66.4665 112.231Z" fill="#51B022"/>
<path d="M50.7986 128.577C50.6127 132.263 52.801 139.538 63.0409 139.154C61.7065 132.615 54.3233 129.378 50.7986 128.577Z" fill="#51B022"/>
<path d="M84.0649 120.404C81.3381 120.404 72.4043 121.942 76.8596 135.788C85.1556 126.173 84.0649 121.365 84.0649 120.404Z" fill="#51B022"/>
<path d="M84.0649 141.558C86.0495 144.763 88.4417 152.423 82.1337 157.423C77.5347 151.654 81.5049 144.442 84.0649 141.558Z" fill="#51B022"/>
<path d="M57.3428 146.365C61.5238 146.667 69.8858 150.258 69.8858 162.203C60.7239 161.796 57.7063 151.475 57.3428 146.365Z" fill="#51B022"/>
<path fill-rule="evenodd" clip-rule="evenodd" d="M50.029 99.9686C50.1822 99.8601 50.4069 99.8808 50.5309 100.015C54.1948 103.979 59.643 111.468 64.7395 121.607C65.3016 120.528 65.8959 118.63 66.093 115.913C66.3292 112.656 65.9928 108.242 64.3635 102.693C64.3145 102.526 64.4294 102.356 64.6203 102.313C64.8113 102.27 65.0058 102.37 65.0549 102.538C66.7009 108.143 67.0469 112.623 66.8054 115.953C66.5753 119.125 65.8101 121.273 65.1093 122.349C68.0666 128.328 70.8884 135.202 73.1521 142.798C73.8541 141.942 74.7997 140.393 75.7002 138.08C76.7981 135.258 77.8214 131.319 78.2557 126.15C78.2701 125.978 78.4412 125.849 78.6378 125.861C78.8344 125.874 78.9821 126.024 78.9676 126.196C78.5293 131.412 77.4952 135.405 76.3759 138.281C75.3184 140.998 74.1779 142.736 73.3774 143.563C75.4775 150.776 77.0682 158.628 77.794 166.974C80.0224 163.434 83.4112 155.736 82.6187 147.353C82.6025 147.181 82.7485 147.03 82.945 147.016C83.1414 147.001 83.3139 147.129 83.3301 147.301C84.2107 156.617 80.0336 165.081 77.8233 168.166L77.6253 168.442L77.3184 168.257C73.841 166.16 65.8963 160.226 61.9315 153.235C61.8438 153.081 61.9159 152.893 62.0924 152.816C62.269 152.74 62.4832 152.803 62.5708 152.957C66.2427 159.431 73.4336 165.018 77.1114 167.363C76.403 158.927 74.8046 150.995 72.6847 143.714C70.5057 142.974 67.1058 141.622 63.7502 139.892C60.3127 138.12 56.8824 135.93 54.8754 133.571C54.7576 133.433 54.7903 133.237 54.9484 133.134C55.1065 133.031 55.3301 133.06 55.4479 133.198C57.3673 135.454 60.6961 137.592 64.1124 139.353C67.1944 140.942 70.3156 142.209 72.4642 142.966C70.2133 135.41 67.4074 128.572 64.4668 122.623C62.1031 122.444 58.2747 121.912 54.1709 120.872C49.9436 119.801 45.3973 118.186 41.8582 115.846C41.7008 115.742 41.6696 115.546 41.7884 115.408C41.9072 115.27 42.131 115.243 42.2883 115.347C45.7296 117.622 50.1829 119.211 54.3693 120.272C58.2096 121.245 61.8026 121.767 64.1411 121.969C59.0492 111.814 53.6059 104.335 49.976 100.408C49.852 100.274 49.8757 100.077 50.029 99.9686Z" fill="#0A3019"/>
<defs>
<clipPath id="clip0_81_2764">
<rect width="64.2127" height="57.241" fill="white" transform="matrix(0.973567 0.228401 -0.292639 0.956223 93.8252 78)"/>
</clipPath>
</defs>
</svg>
