<svg width="144" height="208" viewBox="0 0 144 208" fill="none" xmlns="http://www.w3.org/2000/svg">
<path d="M55.8156 152.522C55.7086 150.392 55.6405 148.314 55.6078 146.288L55.5927 145.106C55.3938 124.144 61.0588 95.4949 64.225 88.2872C64.3382 88.0295 64.6687 87.9009 64.963 88C65.2574 88.0991 65.4043 88.3884 65.291 88.6462C62.1465 95.8044 56.4348 124.65 56.7456 145.994C56.7722 147.819 56.8276 149.689 56.9146 151.601L56.9712 152.765C57.7818 168.415 60.7089 186.854 67.2265 207.366C67.3111 207.632 67.1333 207.908 66.8294 207.982C66.5255 208.056 66.2107 207.9 66.1262 207.634C59.5448 186.921 56.6088 168.308 55.8156 152.522Z" fill="#0A3019"/>
<path fill-rule="evenodd" clip-rule="evenodd" d="M70.0742 139.284C69.9767 139.244 69.8604 139.28 69.8146 139.366C67.1036 144.417 66.6898 149.05 67.163 152.6C67.5118 155.217 68.3432 157.25 69.0965 158.432C68.711 159.036 68.3255 159.661 67.9416 160.307C65.0963 165.097 62.3333 171.043 60.2392 178.157C60.2123 178.248 60.2751 178.341 60.3794 178.365C60.4838 178.388 60.5902 178.333 60.6171 178.242C62.6909 171.197 65.4224 165.304 68.2362 160.552C69.5604 160.492 71.3013 160.313 73.2689 159.976C75.3363 159.621 77.6566 159.09 80.0091 158.334C80.7957 158.081 81.586 157.803 82.3717 157.498C85.906 156.126 89.3547 154.205 91.9559 151.565C92.0263 151.493 92.0172 151.386 91.9356 151.324C91.854 151.262 91.7308 151.27 91.6605 151.342C89.1083 153.932 85.7137 155.827 82.2136 157.186C81.4361 157.487 80.6537 157.763 79.8746 158.013C77.5439 158.762 75.2438 159.289 73.1939 159.64C71.3551 159.956 69.7197 160.13 68.4465 160.199C68.7938 159.62 69.1422 159.059 69.4906 158.515C73.5632 152.152 80.8814 144.472 83.2085 142.824C83.2923 142.765 83.3053 142.657 83.2376 142.584C83.1698 142.51 83.0469 142.499 82.9632 142.558C80.6199 144.217 73.3537 151.847 69.3227 158.079C68.6284 156.919 67.8765 155.005 67.5506 152.56C67.085 149.067 67.4905 144.499 70.1678 139.511C70.2136 139.426 70.1717 139.324 70.0742 139.284Z" fill="#0A3019"/>
<path fill-rule="evenodd" clip-rule="evenodd" d="M74.908 138.445C74.8219 138.443 74.7503 138.502 74.7482 138.578C74.4438 139.519 74.3851 139.545 73.5071 141.476C72.7613 143.116 71.8123 144.907 70.837 146.622C71.1849 145.029 71.5992 142.962 71.9049 141.057C72.0913 139.895 71.9821 140.647 72.0483 139.747C72.0814 139.296 72.0946 138.895 72.0823 138.561C72.0702 138.23 72.0328 137.954 71.9582 137.762C71.9304 137.691 71.8417 137.653 71.7601 137.677C71.6785 137.701 71.6349 137.779 71.6627 137.85C71.7218 138.002 71.7584 138.244 71.7703 138.569C71.7821 138.891 71.7695 139.283 71.7368 139.729C71.6713 140.62 71.7817 139.86 71.5958 141.019C71.2254 143.327 70.6948 145.875 70.3173 147.524C69.1869 149.463 68.0641 151.243 67.2218 152.511C67.1785 152.577 67.2038 152.66 67.2784 152.698C67.3529 152.736 67.4484 152.714 67.4917 152.649C68.3393 151.372 69.4688 149.581 70.6051 147.631C71.7569 145.655 72.9168 143.513 73.7971 141.577C74.6749 139.646 74.7818 139.69 75.0603 138.585C75.0624 138.509 74.9942 138.446 74.908 138.445ZM94.4776 152.666C94.4342 152.6 94.3386 152.578 94.2642 152.616C93.1764 153.172 88.4702 155.968 86.2243 157.314C84.6222 157.426 83.2134 157.34 82.3188 157.207C82.2338 157.194 82.1532 157.244 82.1388 157.319C82.1243 157.393 82.1815 157.464 82.2665 157.476C83.1956 157.615 84.6471 157.702 86.291 157.584C88.6963 157.412 91.5343 156.8 93.7502 155.254C93.8176 155.207 93.8287 155.121 93.775 155.062C93.7212 155.003 93.623 154.993 93.5556 155.04C91.587 156.414 89.0978 157.034 86.8693 157.259C89.2479 155.837 93.4161 153.366 94.4215 152.853C94.4959 152.814 94.5211 152.731 94.4776 152.666ZM87.5758 151.565C87.5499 151.493 87.4623 151.453 87.38 151.475C86.7463 151.65 86.0503 152.037 85.3454 152.539C84.6382 153.043 83.9119 153.669 83.2175 154.331C81.8287 155.657 80.5588 157.137 79.8128 158.096C79.7643 158.159 79.7828 158.244 79.854 158.286C79.9253 158.329 80.0224 158.313 80.0709 158.25C80.8102 157.299 82.071 155.83 83.4475 154.516C84.1358 153.859 84.8509 153.243 85.5423 152.751C86.2359 152.258 86.8958 151.895 87.4739 151.736C87.5561 151.713 87.6017 151.637 87.5758 151.565ZM82.2146 150.983C82.1424 150.942 82.0457 150.96 81.9986 151.023C80.4384 153.119 77.998 154.77 75.5709 155.983C73.1449 157.195 70.745 157.963 69.2809 158.299C69.1975 158.318 69.1475 158.393 69.1694 158.466C69.1912 158.539 69.2765 158.582 69.3599 158.563C70.8496 158.222 73.2751 157.445 75.7257 156.22C78.1751 154.996 80.6623 153.319 82.2602 151.172C82.3073 151.109 82.2869 151.024 82.2146 150.983ZM65.3622 147.263C65.2833 147.293 65.2475 147.374 65.2822 147.443C65.8514 148.576 65.9619 150.165 65.8601 151.708C65.7736 153.02 65.5348 154.283 65.3082 155.173C64.5898 153.519 63.9271 151.583 63.5111 149.476C63.4964 149.401 63.4156 149.351 63.3307 149.364C63.2457 149.377 63.1888 149.448 63.2034 149.522C63.6585 151.827 64.4056 153.927 65.1992 155.682C66.2241 157.949 67.3286 159.644 67.987 160.464C68.0365 160.526 68.1339 160.541 68.2044 160.498C68.275 160.454 68.292 160.369 68.2424 160.307C67.6045 159.512 66.5202 157.852 65.508 155.623C65.7647 154.722 66.0707 153.256 66.1718 151.724C66.2742 150.17 66.168 148.527 65.568 147.333C65.5333 147.264 65.4412 147.232 65.3622 147.263ZM85.5313 159.857C85.5416 159.782 85.4804 159.714 85.3948 159.705C85.0745 159.671 84.5323 159.721 83.8837 159.815C83.2282 159.911 82.444 160.055 81.6285 160.221C80.0197 160.548 78.2814 160.958 77.1525 161.241C75.4666 160.733 74.0814 160.113 73.3143 159.692C73.2412 159.652 73.1449 159.672 73.0991 159.736C73.0534 159.799 73.0755 159.884 73.1486 159.924C73.9439 160.36 75.3693 160.997 77.0978 161.514C78.8921 162.051 81.0226 162.463 83.1201 162.384C83.2062 162.38 83.273 162.317 83.2693 162.241C83.2656 162.166 83.1928 162.107 83.1067 162.111C81.244 162.181 79.3445 161.854 77.6814 161.394C78.7895 161.122 80.2945 160.772 81.699 160.487C82.5116 160.322 83.2886 160.179 83.9349 160.085C84.588 159.99 85.088 159.948 85.3579 159.976C85.4435 159.985 85.5211 159.931 85.5313 159.857Z" fill="#0A3019"/>
<ellipse cx="0.946688" cy="0.886082" rx="0.946688" ry="0.886082" transform="matrix(-0.892456 -0.451134 -0.550503 0.834833 95.6416 152.405)" fill="#FD5936"/>
<ellipse cx="0.946689" cy="0.886082" rx="0.946689" ry="0.886082" transform="matrix(-0.892456 -0.451134 -0.550503 0.834833 89.2588 151.151)" fill="#FD5936"/>
<ellipse cx="0.946689" cy="0.886082" rx="0.946689" ry="0.886082" transform="matrix(-0.892456 -0.451134 -0.550503 0.834833 83.6948 150.705)" fill="#FD5936"/>
<ellipse cx="0.94669" cy="0.886082" rx="0.94669" ry="0.886082" transform="matrix(-0.892456 -0.451134 -0.550503 0.834833 66.8213 146.91)" fill="#FD5936"/>
<ellipse cx="0.94669" cy="0.886082" rx="0.94669" ry="0.886082" transform="matrix(-0.892456 -0.451134 -0.550503 0.834833 64.5845 148.936)" fill="#FD5936"/>
<ellipse cx="0.946689" cy="0.886082" rx="0.946689" ry="0.886082" transform="matrix(-0.892456 -0.451134 -0.550503 0.834833 86.604 159.277)" fill="#FD5936"/>
<ellipse cx="0.946688" cy="0.886082" rx="0.946688" ry="0.886082" transform="matrix(-0.892456 -0.451134 -0.550503 0.834833 84.5098 161.769)" fill="#FD5936"/>
<ellipse cx="1.13603" cy="1.0633" rx="1.13603" ry="1.0633" transform="matrix(-0.892456 -0.451134 -0.550503 0.834833 95.4849 154.693)" fill="#FD5936"/>
<ellipse cx="0.94669" cy="0.886082" rx="0.94669" ry="0.886082" transform="matrix(-0.892456 -0.451134 -0.550503 0.834833 76.1069 138.979)" fill="#FD5936"/>
<ellipse cx="0.94669" cy="0.886082" rx="0.94669" ry="0.886082" transform="matrix(-0.892456 -0.451134 -0.550503 0.834833 72.8701 137.738)" fill="#FD5936"/>
<path d="M48.2426 125.419C43.9649 124.496 40.3797 123.457 37.3935 122.346C36.6985 122.087 36.036 121.825 35.4047 121.559C34.2055 121.054 33.1192 120.537 32.1374 120.011C30.4364 119.101 29.0497 118.165 27.935 117.224C26.72 116.198 25.8283 115.165 25.2054 114.151C24.445 112.912 24.085 111.702 24.0263 110.565C23.9464 109.021 24.4224 107.612 25.2054 106.454C25.7581 105.637 26.4639 104.945 27.235 104.419C29.2901 103.246 31.2427 102.852 33.0705 103.048C34.0826 103.157 35.0564 103.447 35.9882 103.886C36.5973 104.174 37.1884 104.525 37.7604 104.931C38.7524 105.635 39.6871 106.504 40.5591 107.492C41.5075 108.566 42.3816 109.781 43.1744 111.077C43.9111 112.282 44.5777 113.556 45.1683 114.852C45.6813 115.978 46.137 117.12 46.5317 118.248C47.4401 120.844 48.0255 123.361 48.2426 125.419Z" fill="#87C12F"/>
<g style="mix-blend-mode:multiply">
<path d="M25.4242 106.148L29.1372 106.16L32.6223 103.012C32.7725 103.02 32.9219 103.032 33.0705 103.048C33.1865 103.061 33.302 103.076 33.417 103.093C33.4068 103.155 33.375 103.214 33.3217 103.263L29.432 106.775L25.2042 106.762C25.1419 106.762 25.0834 106.747 25.0328 106.722C25.0885 106.631 25.146 106.542 25.2053 106.454C25.2759 106.35 25.3489 106.248 25.4242 106.148Z" fill="#87C12F"/>
<path d="M24.0493 110.872C24.0391 110.769 24.0315 110.667 24.0262 110.565C24.0208 110.46 24.0179 110.356 24.0176 110.252L31.6385 108.754L35.6738 103.745C35.7791 103.79 35.8839 103.837 35.9882 103.887C36.0906 103.935 36.1924 103.985 36.2938 104.037C36.2879 104.046 36.2813 104.055 36.2742 104.064L32.0546 109.303L24.1029 110.865C24.0849 110.869 24.0671 110.871 24.0493 110.872Z" fill="#87C12F"/>
<path d="M25.3866 114.435C25.3238 114.34 25.2634 114.245 25.2053 114.151C25.1494 114.06 25.0956 113.969 25.044 113.878C25.075 113.864 25.1089 113.853 25.1452 113.848L35.1249 112.317L37.4225 104.851C37.4352 104.809 37.4569 104.772 37.4852 104.741C37.5774 104.803 37.6691 104.866 37.7604 104.931C37.8597 105.001 37.9584 105.073 38.0566 105.147L35.6846 112.855L25.3866 114.435Z" fill="#87C12F"/>
<path d="M28.2722 117.502C28.1571 117.409 28.0447 117.317 27.935 117.224C27.8501 117.152 27.7668 117.081 27.6851 117.009C27.7401 116.959 27.8142 116.926 27.8985 116.918L38.7152 115.919L40.2132 107.445C40.2274 107.365 40.2754 107.297 40.3426 107.25C40.4152 107.33 40.4873 107.411 40.5591 107.492C40.658 107.604 40.7561 107.717 40.8533 107.833L39.3245 116.48L28.2722 117.502Z" fill="#87C12F"/>
<path d="M32.682 120.297C32.497 120.202 32.3155 120.107 32.1374 120.012C32.037 119.958 31.9378 119.904 31.8396 119.85C31.8983 119.767 32.0012 119.71 32.121 119.705L42.0826 119.292L42.8255 111.053C42.8352 110.946 42.9068 110.855 43.0073 110.807C43.0634 110.897 43.1191 110.987 43.1744 111.077C43.2775 111.246 43.3793 111.416 43.4798 111.587L42.732 119.88L32.682 120.297Z" fill="#87C12F"/>
<path d="M36.3455 121.944C36.0244 121.816 35.7109 121.688 35.4046 121.559C35.2987 121.515 35.1937 121.47 35.0896 121.425C35.1514 121.313 35.2874 121.241 35.4368 121.253L44.8183 122.009V114.852C44.8183 114.723 44.9087 114.613 45.037 114.567C45.0812 114.662 45.1249 114.757 45.1683 114.852C45.2882 115.115 45.4049 115.379 45.5185 115.644V122.683L36.3455 121.944Z" fill="#87C12F"/>
</g>
<g style="mix-blend-mode:multiply">
<path d="M48.156 124.712C48.156 124.712 48.156 124.712 48.156 124.712L27.6365 104.199C27.5031 104.269 27.3693 104.342 27.2351 104.418C27.1135 104.501 26.9935 104.589 26.8755 104.68L26.8843 104.689L47.8881 125.686L54.8907 132.857C55.0585 133.029 55.3532 133.049 55.5489 132.901C55.7447 132.754 55.7674 132.495 55.5996 132.324L48.597 125.153L48.156 124.712Z" fill="#87C12F"/>
</g>
<path d="M54.8513 167.934C50.2676 165.723 46.5192 163.566 43.4832 161.487C42.7766 161.004 42.1087 160.524 41.4777 160.049C40.2793 159.147 39.2144 158.262 38.2726 157.394C36.6408 155.892 35.3783 154.445 34.43 153.065C33.3963 151.561 32.7359 150.136 32.3773 148.804C31.9397 147.179 31.9517 145.694 32.2835 144.373C32.7342 142.58 33.7749 141.092 35.0796 139.975C36.0007 139.186 37.0534 138.582 38.123 138.185C40.8925 137.393 43.2712 137.466 45.2992 138.184C46.4221 138.581 47.4376 139.176 48.3523 139.931C48.9503 140.424 49.5052 140.986 50.0189 141.606C50.9099 142.68 51.6771 143.929 52.3307 145.297C53.0414 146.785 53.6177 148.415 54.0723 150.115C54.4947 151.695 54.812 153.336 55.0345 154.982C55.2277 156.412 55.3494 157.846 55.4063 159.246C55.5372 162.468 55.3249 165.514 54.8513 167.934Z" fill="#87C12F"/>
<g style="mix-blend-mode:multiply">
<path d="M35.4387 139.682L39.6944 140.695L44.798 138.022C44.9675 138.071 45.1346 138.125 45.2995 138.184C45.4282 138.229 45.5555 138.277 45.6815 138.328C45.648 138.396 45.5906 138.456 45.5125 138.497L39.8165 141.48L34.9707 140.327C34.8992 140.31 34.8372 140.278 34.788 140.235C34.8837 140.146 34.981 140.059 35.0799 139.975C35.1974 139.874 35.3171 139.776 35.4387 139.682Z" fill="#87C12F"/>
<path d="M32.2025 144.732C32.227 144.611 32.2541 144.492 32.2838 144.373C32.3144 144.252 32.3478 144.131 32.3838 144.012L41.653 144.345L48.0417 139.683C48.1466 139.764 48.2503 139.846 48.3526 139.931C48.4531 140.014 48.5524 140.099 48.6505 140.185C48.6405 140.194 48.6298 140.203 48.6185 140.211L41.938 145.086L32.2664 144.738C32.2446 144.737 32.2233 144.735 32.2025 144.732Z" fill="#87C12F"/>
<path d="M32.4859 149.179C32.4471 149.054 32.4111 148.929 32.3776 148.805C32.3454 148.685 32.3157 148.566 32.2883 148.448C32.3288 148.44 32.3714 148.438 32.4149 148.441L44.4023 149.37L49.6597 141.423C49.6888 141.379 49.7267 141.342 49.7703 141.314C49.8543 141.41 49.9373 141.507 50.0192 141.606C50.1084 141.713 50.1964 141.823 50.2831 141.934L44.8556 150.138L32.4859 149.179Z" fill="#87C12F"/>
<path d="M34.7196 153.475C34.6201 153.338 34.5236 153.201 34.4303 153.065C34.3581 152.96 34.2877 152.855 34.2191 152.751C34.2995 152.709 34.3963 152.691 34.4957 152.705L47.2567 154.469L51.9507 145.15C51.995 145.062 52.074 144.997 52.1673 144.962C52.2226 145.073 52.2772 145.185 52.331 145.297C52.4051 145.453 52.4777 145.609 52.5489 145.767L47.7585 155.278L34.7196 153.475Z" fill="#87C12F"/>
<path d="M38.7976 157.868C38.6186 157.71 38.4438 157.552 38.2729 157.395C38.1766 157.306 38.0816 157.217 37.9879 157.129C38.0845 157.049 38.2227 157.011 38.3619 157.038L49.9358 159.245L53.6808 149.993C53.7297 149.873 53.8436 149.788 53.9756 149.76C54.0085 149.878 54.0408 149.996 54.0726 150.115C54.1317 150.336 54.1888 150.559 54.2439 150.782L50.4742 160.095L38.7976 157.868Z" fill="#87C12F"/>
<path d="M42.4225 160.744C42.0988 160.511 41.7841 160.28 41.478 160.049C41.3722 159.97 41.2674 159.89 41.1637 159.811C41.2738 159.699 41.4552 159.653 41.6224 159.707L52.1203 163.1L54.6332 154.888C54.6785 154.74 54.8211 154.638 54.9842 154.62C55.0016 154.741 55.0184 154.862 55.0348 154.983C55.0799 155.317 55.1212 155.651 55.1586 155.985L52.6871 164.061L42.4225 160.744Z" fill="#87C12F"/>
</g>
<g style="mix-blend-mode:multiply">
<path d="M55.0003 167.099C55.0003 167.099 55.0003 167.099 55.0003 167.099L38.6607 138.041C38.4831 138.085 38.3039 138.133 38.123 138.185C37.9543 138.248 37.7861 138.315 37.6187 138.388L37.6256 138.401L54.3508 168.144L59.867 178.256C59.9992 178.499 60.3304 178.601 60.6067 178.484C60.883 178.368 60.9998 178.077 60.8676 177.835L55.3515 167.723L55.0003 167.099Z" fill="#87C12F"/>
</g>
<path d="M63.3988 22.1959C66.4903 12.0942 78.9255 10.0422 89.0911 12.4271C99.682 14.9117 108.854 22.0329 105.763 32.1346C101.848 44.9274 89.3868 51.8814 77.7405 58.7486C76.3421 59.9194 73.0196 59.1378 72.4822 57.5116C66.4295 46.5312 59.5213 34.8659 63.3988 22.1959Z" fill="#87C12F"/>
<path d="M31.9177 56.7251C21.9001 51.0292 23.5138 40.0403 29.2457 32.3124C35.2174 24.2612 45.787 18.8242 55.8046 24.5201C68.4909 31.7334 72.194 44.2583 76.0546 56.0782C76.8942 57.6044 75.0185 60.1295 73.086 60.0745C59.2882 61.7214 44.4821 63.869 31.9177 56.7251Z" fill="#87C12F"/>
<path d="M59.5247 94.8643C50.242 101.446 38.8041 96.7063 32.181 89.5453C25.2808 82.0848 22.6411 71.6034 31.9238 65.0219C43.6794 56.6871 58.4288 57.474 72.4611 57.9118C74.3784 57.6843 76.5417 60.0265 75.8847 61.6187C73.4098 73.617 71.1674 86.6096 59.5247 94.8643Z" fill="#87C12F"/>
<path d="M109.182 82.7598C113.463 92.5232 104.78 100.583 94.9551 103.885C84.7188 107.325 72.5178 106.285 68.2373 96.5211C62.8163 84.1566 68.2289 72.118 73.0407 60.5687C73.386 58.9019 76.5987 57.8243 78.1252 58.8634C90.3934 64.6319 103.814 70.5141 109.182 82.7598Z" fill="#87C12F"/>
<path d="M111.291 37.6007C123.219 37.0533 129.291 46.774 129.842 55.9758C130.415 65.5626 125.514 75.4007 113.586 75.948C98.4802 76.6412 87.076 68.414 76.0176 60.8384C74.3137 60.0357 74.136 57.0276 75.7364 56.0776C85.7934 47.6444 96.33 38.2872 111.291 37.6007Z" fill="#87C12F"/>
<g style="mix-blend-mode:multiply">
<path d="M75.906 74.5444C78.2683 79.9325 84.6934 88.941 88.3857 87.7C92.0781 86.4591 89.9681 76.0003 87.6059 70.6122C85.2436 65.2241 79.2463 57.1912 75.5539 58.4322C71.8615 59.6731 73.5438 69.1563 75.906 74.5444Z" fill="#87C12F"/>
<path d="M57.8165 63.8878C52.6937 67.5199 44.8937 75.6538 47.3827 78.3449C49.8717 81.0361 60.5805 76.0471 65.7032 72.4151C70.826 68.783 77.6985 61.3068 75.2095 58.6157C72.7205 55.9245 62.9392 60.2558 57.8165 63.8878Z" fill="#87C12F"/>
<path d="M64.3815 45.1858C58.8532 42.0425 47.6074 38.061 45.4534 40.9652C43.2993 43.8694 52.0276 51.2449 57.556 54.3882C63.0843 57.5315 73.329 60.9439 75.4831 58.0397C77.6371 55.1355 69.9098 48.3292 64.3815 45.1858Z" fill="#87C12F"/>
<path d="M85.8002 45.0328C87.5063 39.458 88.3561 28.8634 84.5358 27.9672C80.7155 27.0709 75.4011 36.6181 73.695 42.1929C71.989 47.7676 71.4481 57.3528 75.2684 58.249C79.0887 59.1453 84.0942 50.6075 85.8002 45.0328Z" fill="#87C12F"/>
<path d="M93.0142 62.7297C99.597 62.4276 111.368 59.8613 111.161 56.4032C110.954 52.9451 98.9411 51.4701 92.3584 51.7722C85.7756 52.0742 75.1966 54.5858 75.4036 58.0439C75.6106 61.502 86.4315 63.0317 93.0142 62.7297Z" fill="#87C12F"/>
</g>
<g style="mix-blend-mode:multiply" clip-path="url(#clip0_81_2757)">
<ellipse cx="4.53271" cy="4.04059" rx="4.53271" ry="4.04059" transform="matrix(0.973567 0.228401 -0.292639 0.956223 71.6558 53.8888)" fill="#87C12F"/>
</g>
<path d="M127.264 130.928C127.593 150.026 96.7199 147.973 81.2424 144.56C69.201 120.145 79.8538 105.529 86.2571 104.299C91.3797 103.315 95.0275 108.026 96.211 110.505C108.097 106.101 111.417 114.19 111.59 118.784C123.088 120.356 126.83 127.535 127.264 130.928Z" fill="#CDCDCD"/>
<path d="M114.678 131.672C111.426 124.004 101.849 123.842 97.4678 124.719C99.1148 116.823 95.2919 114.581 92.1307 114.574C77.4568 115.57 81.789 135.588 87.0281 144.444C99.3493 149.454 118.743 141.255 114.678 131.672Z" fill="white"/>
<path fill-rule="evenodd" clip-rule="evenodd" d="M110.561 132.95C110.451 132.784 110.211 132.725 110.024 132.82L107.319 134.187C107.132 134.282 107.07 134.493 107.179 134.659C107.289 134.826 107.529 134.884 107.716 134.789L110.421 133.422C110.608 133.328 110.671 133.116 110.561 132.95ZM106.01 130.836C105.901 130.669 105.66 130.611 105.474 130.705L102.43 132.244C102.243 132.338 102.181 132.55 102.29 132.716C102.4 132.882 102.64 132.94 102.827 132.846L105.871 131.308C106.057 131.213 106.12 131.002 106.01 130.836ZM108.669 137.629C108.615 137.443 108.401 137.329 108.191 137.374L105.427 137.969C105.217 138.014 105.091 138.201 105.145 138.387C105.199 138.572 105.413 138.686 105.623 138.641L108.387 138.047C108.597 138.002 108.723 137.814 108.669 137.629ZM94.4873 119.605C94.2994 119.508 94.0598 119.562 93.952 119.726L92.3787 122.127C92.2709 122.291 92.3358 122.504 92.5237 122.601C92.7115 122.699 92.9512 122.644 93.059 122.48L94.6322 120.079C94.74 119.915 94.6751 119.703 94.4873 119.605ZM104.555 134.782C104.445 134.616 104.205 134.558 104.018 134.652L101.651 135.849C101.464 135.943 101.401 136.154 101.511 136.321C101.621 136.487 101.861 136.545 102.048 136.451L104.415 135.254C104.602 135.16 104.664 134.948 104.555 134.782ZM98.9282 129.04C98.7539 128.924 98.5084 128.954 98.3799 129.106L96.6081 131.206C96.4796 131.358 96.5168 131.576 96.6911 131.691C96.8655 131.807 97.1109 131.777 97.2394 131.625L99.0112 129.525C99.1397 129.373 99.1025 129.156 98.9282 129.04ZM94.841 128.306C94.6698 128.187 94.4235 128.211 94.2908 128.36L92.9969 129.817C92.8642 129.966 92.8954 130.184 93.0665 130.304C93.2377 130.423 93.484 130.398 93.6167 130.249L94.9106 128.792C95.0433 128.643 95.0121 128.425 94.841 128.306ZM91.3592 124.417C91.1777 124.31 90.9348 124.353 90.8168 124.511L88.9053 127.083C88.7873 127.242 88.8388 127.457 89.0204 127.563C89.2019 127.67 89.4448 127.627 89.5628 127.469L91.4743 124.897C91.5923 124.738 91.5408 124.523 91.3592 124.417ZM100.553 139.659C100.465 139.483 100.233 139.402 100.035 139.477L96.793 140.715C96.5953 140.79 96.5066 140.994 96.5949 141.169C96.6833 141.345 96.9152 141.426 97.1129 141.351L100.355 140.113C100.553 140.038 100.641 139.834 100.553 139.659ZM98.7469 136.915C98.6372 136.749 98.397 136.691 98.2102 136.785L94.8284 138.495C94.6416 138.589 94.5791 138.8 94.6887 138.967C94.7983 139.133 95.0386 139.191 95.2254 139.097L98.6072 137.387C98.7939 137.293 98.8565 137.082 98.7469 136.915ZM94.5344 134.63C94.4248 134.464 94.1845 134.405 93.9978 134.5L90.9542 136.038C90.7674 136.133 90.7049 136.344 90.8145 136.51C90.9241 136.677 91.1644 136.735 91.3511 136.64L94.3947 135.102C94.5815 135.007 94.644 134.796 94.5344 134.63ZM86.985 124.621C86.8035 124.515 86.5606 124.557 86.4426 124.716L85.4868 126.002C85.3688 126.16 85.4203 126.375 85.6019 126.482C85.7835 126.588 86.0263 126.546 86.1444 126.387L87.1001 125.101C87.2181 124.943 87.1666 124.728 86.985 124.621ZM88.1702 129.196C87.9754 129.11 87.7408 129.179 87.6462 129.35L86.4111 131.58C86.3165 131.75 86.3977 131.958 86.5926 132.044C86.7874 132.13 87.022 132.062 87.1166 131.891L88.3517 129.661C88.4463 129.49 88.365 129.282 88.1702 129.196ZM85.5791 128.056C85.3736 127.993 85.1516 128.089 85.0832 128.269L83.7672 131.744C83.6989 131.924 83.81 132.122 84.0155 132.185C84.221 132.248 84.443 132.152 84.5114 131.972L85.8274 128.497C85.8958 128.317 85.7846 128.119 85.5791 128.056Z" fill="#CDCDCD"/>
<path d="M87.2954 138.934C93.8294 141.732 98.6804 145.487 100.19 146.865L89.9712 146.411L80.5097 144.371L77.6942 137.366L76.1505 130.923C79.9674 131.241 85.1708 136.396 87.2954 138.934Z" fill="#9B9B9B"/>
<g style="mix-blend-mode:multiply">
<path d="M127.264 130.928C127.593 150.026 96.7199 147.973 81.2424 144.56C69.201 120.145 79.8538 105.529 86.2571 104.299C91.3797 103.315 95.0275 108.026 96.211 110.505C108.097 106.101 111.417 114.19 111.59 118.784C123.088 120.356 126.83 127.535 127.264 130.928Z" fill="#FD5936"/>
<path d="M114.678 131.672C111.426 124.004 101.849 123.842 97.4678 124.719C99.1148 116.823 95.2919 114.581 92.1307 114.574C77.4568 115.57 81.789 135.588 87.0281 144.444C99.3493 149.454 118.743 141.255 114.678 131.672Z" fill="#FD5936"/>
<path fill-rule="evenodd" clip-rule="evenodd" d="M110.561 132.95C110.451 132.784 110.211 132.725 110.024 132.82L107.319 134.187C107.132 134.282 107.07 134.493 107.179 134.659C107.289 134.826 107.529 134.884 107.716 134.789L110.421 133.422C110.608 133.328 110.671 133.116 110.561 132.95ZM106.01 130.836C105.901 130.669 105.66 130.611 105.474 130.705L102.43 132.244C102.243 132.338 102.181 132.55 102.29 132.716C102.4 132.882 102.64 132.94 102.827 132.846L105.871 131.308C106.057 131.213 106.12 131.002 106.01 130.836ZM108.669 137.629C108.615 137.443 108.401 137.329 108.191 137.374L105.427 137.969C105.217 138.014 105.091 138.201 105.145 138.387C105.199 138.572 105.413 138.686 105.623 138.641L108.387 138.047C108.597 138.002 108.723 137.814 108.669 137.629ZM94.4873 119.605C94.2994 119.508 94.0598 119.562 93.952 119.726L92.3787 122.127C92.2709 122.291 92.3358 122.504 92.5237 122.601C92.7115 122.699 92.9512 122.644 93.059 122.48L94.6322 120.079C94.74 119.915 94.6751 119.703 94.4873 119.605ZM104.555 134.782C104.445 134.616 104.205 134.558 104.018 134.652L101.651 135.849C101.464 135.943 101.401 136.154 101.511 136.321C101.621 136.487 101.861 136.545 102.048 136.451L104.415 135.254C104.602 135.16 104.664 134.948 104.555 134.782ZM98.9282 129.04C98.7539 128.924 98.5084 128.954 98.3799 129.106L96.6081 131.206C96.4796 131.358 96.5168 131.576 96.6911 131.691C96.8655 131.807 97.1109 131.777 97.2394 131.625L99.0112 129.525C99.1397 129.373 99.1025 129.156 98.9282 129.04ZM94.841 128.306C94.6698 128.187 94.4235 128.211 94.2908 128.36L92.9969 129.817C92.8642 129.966 92.8954 130.184 93.0665 130.304C93.2377 130.423 93.484 130.398 93.6167 130.249L94.9106 128.792C95.0433 128.643 95.0121 128.425 94.841 128.306ZM91.3592 124.417C91.1777 124.31 90.9348 124.353 90.8168 124.511L88.9053 127.083C88.7873 127.242 88.8388 127.457 89.0204 127.563C89.2019 127.67 89.4448 127.627 89.5628 127.469L91.4743 124.897C91.5923 124.738 91.5408 124.523 91.3592 124.417ZM100.553 139.659C100.465 139.483 100.233 139.402 100.035 139.477L96.793 140.715C96.5953 140.79 96.5066 140.994 96.5949 141.169C96.6833 141.345 96.9152 141.426 97.1129 141.351L100.355 140.113C100.553 140.038 100.641 139.834 100.553 139.659ZM98.7469 136.915C98.6372 136.749 98.397 136.691 98.2102 136.785L94.8284 138.495C94.6416 138.589 94.5791 138.8 94.6887 138.967C94.7983 139.133 95.0386 139.191 95.2254 139.097L98.6072 137.387C98.7939 137.293 98.8565 137.082 98.7469 136.915ZM94.5344 134.63C94.4248 134.464 94.1845 134.405 93.9978 134.5L90.9542 136.038C90.7674 136.133 90.7049 136.344 90.8145 136.51C90.9241 136.677 91.1644 136.735 91.3511 136.64L94.3947 135.102C94.5815 135.007 94.644 134.796 94.5344 134.63ZM86.985 124.621C86.8035 124.515 86.5606 124.557 86.4426 124.716L85.4868 126.002C85.3688 126.16 85.4203 126.375 85.6019 126.482C85.7835 126.588 86.0263 126.546 86.1444 126.387L87.1001 125.101C87.2181 124.943 87.1666 124.728 86.985 124.621ZM88.1702 129.196C87.9754 129.11 87.7408 129.179 87.6462 129.35L86.4111 131.58C86.3165 131.75 86.3977 131.958 86.5926 132.044C86.7874 132.13 87.022 132.062 87.1166 131.891L88.3517 129.661C88.4463 129.49 88.365 129.282 88.1702 129.196ZM85.5791 128.056C85.3736 127.993 85.1516 128.089 85.0832 128.269L83.7672 131.744C83.6989 131.924 83.81 132.122 84.0155 132.185C84.221 132.248 84.443 132.152 84.5114 131.972L85.8274 128.497C85.8958 128.317 85.7846 128.119 85.5791 128.056Z" fill="#FD5936"/>
<path d="M87.2954 138.934C93.8294 141.732 98.6804 145.487 100.19 146.865L89.9712 146.411L80.5097 144.371L77.6942 137.366L76.1505 130.923C79.9674 131.241 85.1708 136.396 87.2954 138.934Z" fill="#FD5936"/>
</g>
<g style="mix-blend-mode:soft-light">
<path d="M127.264 130.928C127.593 150.026 96.7199 147.973 81.2424 144.56C69.201 120.145 79.8538 105.529 86.2571 104.299C91.3797 103.315 95.0275 108.026 96.211 110.505C108.097 106.101 111.417 114.19 111.59 118.784C123.088 120.356 126.83 127.535 127.264 130.928Z" fill="#FD5936"/>
<path d="M114.678 131.672C111.426 124.004 101.849 123.842 97.4678 124.719C99.1148 116.823 95.2919 114.581 92.1307 114.574C77.4568 115.57 81.789 135.588 87.0281 144.444C99.3493 149.454 118.743 141.255 114.678 131.672Z" fill="#FD5936"/>
<path fill-rule="evenodd" clip-rule="evenodd" d="M110.561 132.95C110.451 132.784 110.211 132.725 110.024 132.82L107.319 134.187C107.132 134.282 107.07 134.493 107.179 134.659C107.289 134.826 107.529 134.884 107.716 134.789L110.421 133.422C110.608 133.328 110.671 133.116 110.561 132.95ZM106.01 130.836C105.901 130.669 105.66 130.611 105.474 130.705L102.43 132.244C102.243 132.338 102.181 132.55 102.29 132.716C102.4 132.882 102.64 132.94 102.827 132.846L105.871 131.308C106.057 131.213 106.12 131.002 106.01 130.836ZM108.669 137.629C108.615 137.443 108.401 137.329 108.191 137.374L105.427 137.969C105.217 138.014 105.091 138.201 105.145 138.387C105.199 138.572 105.413 138.686 105.623 138.641L108.387 138.047C108.597 138.002 108.723 137.814 108.669 137.629ZM94.4873 119.605C94.2994 119.508 94.0598 119.562 93.952 119.726L92.3787 122.127C92.2709 122.291 92.3358 122.504 92.5237 122.601C92.7115 122.699 92.9512 122.644 93.059 122.48L94.6322 120.079C94.74 119.915 94.6751 119.703 94.4873 119.605ZM104.555 134.782C104.445 134.616 104.205 134.558 104.018 134.652L101.651 135.849C101.464 135.943 101.401 136.154 101.511 136.321C101.621 136.487 101.861 136.545 102.048 136.451L104.415 135.254C104.602 135.16 104.664 134.948 104.555 134.782ZM98.9282 129.04C98.7539 128.924 98.5084 128.954 98.3799 129.106L96.6081 131.206C96.4796 131.358 96.5168 131.576 96.6911 131.691C96.8655 131.807 97.1109 131.777 97.2394 131.625L99.0112 129.525C99.1397 129.373 99.1025 129.156 98.9282 129.04ZM94.841 128.306C94.6698 128.187 94.4235 128.211 94.2908 128.36L92.9969 129.817C92.8642 129.966 92.8954 130.184 93.0665 130.304C93.2377 130.423 93.484 130.398 93.6167 130.249L94.9106 128.792C95.0433 128.643 95.0121 128.425 94.841 128.306ZM91.3592 124.417C91.1777 124.31 90.9348 124.353 90.8168 124.511L88.9053 127.083C88.7873 127.242 88.8388 127.457 89.0204 127.563C89.2019 127.67 89.4448 127.627 89.5628 127.469L91.4743 124.897C91.5923 124.738 91.5408 124.523 91.3592 124.417ZM100.553 139.659C100.465 139.483 100.233 139.402 100.035 139.477L96.793 140.715C96.5953 140.79 96.5066 140.994 96.5949 141.169C96.6833 141.345 96.9152 141.426 97.1129 141.351L100.355 140.113C100.553 140.038 100.641 139.834 100.553 139.659ZM98.7469 136.915C98.6372 136.749 98.397 136.691 98.2102 136.785L94.8284 138.495C94.6416 138.589 94.5791 138.8 94.6887 138.967C94.7983 139.133 95.0386 139.191 95.2254 139.097L98.6072 137.387C98.7939 137.293 98.8565 137.082 98.7469 136.915ZM94.5344 134.63C94.4248 134.464 94.1845 134.405 93.9978 134.5L90.9542 136.038C90.7674 136.133 90.7049 136.344 90.8145 136.51C90.9241 136.677 91.1644 136.735 91.3511 136.64L94.3947 135.102C94.5815 135.007 94.644 134.796 94.5344 134.63ZM86.985 124.621C86.8035 124.515 86.5606 124.557 86.4426 124.716L85.4868 126.002C85.3688 126.16 85.4203 126.375 85.6019 126.482C85.7835 126.588 86.0263 126.546 86.1444 126.387L87.1001 125.101C87.2181 124.943 87.1666 124.728 86.985 124.621ZM88.1702 129.196C87.9754 129.11 87.7408 129.179 87.6462 129.35L86.4111 131.58C86.3165 131.75 86.3977 131.958 86.5926 132.044C86.7874 132.13 87.022 132.062 87.1166 131.891L88.3517 129.661C88.4463 129.49 88.365 129.282 88.1702 129.196ZM85.5791 128.056C85.3736 127.993 85.1516 128.089 85.0832 128.269L83.7672 131.744C83.6989 131.924 83.81 132.122 84.0155 132.185C84.221 132.248 84.443 132.152 84.5114 131.972L85.8274 128.497C85.8958 128.317 85.7846 128.119 85.5791 128.056Z" fill="#FD5936"/>
<path d="M87.2954 138.934C93.8294 141.732 98.6804 145.487 100.19 146.865L89.9712 146.411L80.5097 144.371L77.6942 137.366L76.1505 130.923C79.9674 131.241 85.1708 136.396 87.2954 138.934Z" fill="#FD5936"/>
</g>
<defs>
<clipPath id="clip0_81_2757">
<rect width="9.06543" height="8.08118" fill="white" transform="matrix(0.973567 0.228401 -0.292639 0.956223 71.6558 53.8888)"/>
</clipPath>
</defs>
</svg>
