<svg width="25" height="25" viewBox="0 0 25 25" fill="none" xmlns="http://www.w3.org/2000/svg">
<path d="M17.75 20.1667H22.75V18.1667C22.75 16.5099 21.4069 15.1667 19.75 15.1667C18.7944 15.1667 17.9431 15.6135 17.3938 16.3096M17.75 20.1667H7.75M17.75 20.1667V18.1667C17.75 17.5105 17.6236 16.8838 17.3938 16.3096M7.75 20.1667H2.75V18.1667C2.75 16.5099 4.09315 15.1667 5.75 15.1667C6.70561 15.1667 7.55686 15.6135 8.10625 16.3096M7.75 20.1667V18.1667C7.75 17.5105 7.87642 16.8838 8.10625 16.3096M8.10625 16.3096C8.8435 14.4678 10.6448 13.1667 12.75 13.1667C14.8552 13.1667 16.6565 14.4678 17.3938 16.3096M15.75 7.16675C15.75 8.8236 14.4069 10.1667 12.75 10.1667C11.0931 10.1667 9.75 8.8236 9.75 7.16675C9.75 5.50989 11.0931 4.16675 12.75 4.16675C14.4069 4.16675 15.75 5.50989 15.75 7.16675ZM21.75 10.1667C21.75 11.2713 20.8546 12.1667 19.75 12.1667C18.6454 12.1667 17.75 11.2713 17.75 10.1667C17.75 9.06218 18.6454 8.16675 19.75 8.16675C20.8546 8.16675 21.75 9.06218 21.75 10.1667ZM7.75 10.1667C7.75 11.2713 6.85457 12.1667 5.75 12.1667C4.64543 12.1667 3.75 11.2713 3.75 10.1667C3.75 9.06218 4.64543 8.16675 5.75 8.16675C6.85457 8.16675 7.75 9.06218 7.75 10.1667Z" stroke="#5D7D5F" stroke-width="2" stroke-linecap="round" stroke-linejoin="round"/>
</svg>
