<svg width="82" height="143" viewBox="0 0 82 143" fill="none" xmlns="http://www.w3.org/2000/svg">
<rect x="32.0244" y="65.3302" width="16.4495" height="77.5479" fill="#93642D"/>
<rect x="32.0244" y="64.6586" width="16" height="59" fill="#714D22"/>
<path d="M41.3418 36.3805C54.1277 36.3807 64.4932 46.7459 64.4932 59.5319V61.1852C64.4932 62.0543 64.4429 62.9122 64.3496 63.7565C73.9859 66.5565 81.0291 75.4503 81.0293 85.9899V87.6442C81.0291 100.43 70.6639 110.796 57.8779 110.796C50.9626 110.795 44.7568 107.762 40.5146 102.955C36.2725 107.762 30.0667 110.795 23.1514 110.796C10.3654 110.796 0.000142631 100.43 0 87.6442V85.9899C0.000184985 74.8712 7.83872 65.5843 18.291 63.3512C18.2249 62.6381 18.1904 61.9155 18.1904 61.1852V59.5319C18.1904 46.7458 28.5557 36.3805 41.3418 36.3805Z" fill="#66A865"/>
<path d="M40.7903 0C51.8715 0 60.8547 8.9832 60.8547 20.0645V21.498C60.8547 22.251 60.8115 22.9941 60.7307 23.7256C69.0823 26.1522 75.1868 33.8606 75.1868 42.9951V44.4287C75.1866 55.5097 66.2033 64.4931 55.1223 64.4932C49.1288 64.4932 43.75 61.8637 40.0735 57.6973C36.397 61.8635 31.0189 64.4931 25.0256 64.4932C13.9445 64.4932 4.96141 55.5098 4.96118 44.4287V42.9951C4.96118 33.3586 11.7547 25.3092 20.8137 23.374C20.7564 22.7564 20.7258 22.1307 20.7258 21.498V20.0645C20.7258 8.98323 29.7091 5.05095e-05 40.7903 0Z" fill="#83C082"/>
<path d="M80.4141 80.6586C80.8312 82.3972 81.0537 84.212 81.0537 86.0785V87.7328C81.0531 100.518 70.6881 110.884 57.9023 110.884C50.9872 110.884 44.7812 107.85 40.5391 103.043C36.2969 107.85 30.0909 110.884 23.1758 110.884C10.3901 110.884 0.024969 100.518 0.0244141 87.7328V86.0785C0.0244451 84.212 0.246015 82.3971 0.663086 80.6586C3.10288 90.8302 12.2561 98.391 23.1758 98.391C30.091 98.3909 36.2969 95.3572 40.5391 90.5502C44.7812 95.3572 50.9871 98.391 57.9023 98.391C68.8219 98.391 77.9742 90.83 80.4141 80.6586Z" fill="#458244"/>
</svg>
