<svg width="83" height="170" viewBox="0 0 83 170" fill="none" xmlns="http://www.w3.org/2000/svg">
<path d="M35.5829 79.5157H47.1585L56.5927 169.625H26L35.5829 79.5157Z" fill="#93642D"/>
<path d="M35.5 79.5157H47L52 128.016H30.5L35.5 79.5157Z" fill="#714D22"/>
<path d="M76.0675 119.784C87.6072 120.947 79.9616 107.07 74.3835 94.7292C68.8053 82.3888 56.7369 59.1747 38.2127 59.1747C23.0331 59.1747 -5.73077 113.644 1.0053 118.769C6.39416 122.869 19.0438 119.652 27.4639 113.199C29.9899 118.893 33.8038 121.558 39.8663 122.014C45.9288 122.469 49.4646 118.323 54.236 113.199C55.92 115.097 66 118.769 76.0675 119.784Z" fill="#83C082"/>
<path d="M37.8418 61.5157C54.9107 61.5159 66.9337 79.6577 73.8896 93.3478C64.8407 91.7562 56.7964 88.6424 55.251 86.9015C51.5004 94.0564 46.5867 100.511 40 100.016C33.4134 99.5208 28.9076 93.0881 26.1631 86.9015C20.545 91.2073 13.1937 94.1858 7.00098 94.8126C16.1004 78.2866 29.0624 61.5158 37.8418 61.5157Z" fill="#458244"/>
<path d="M76.0675 88.4275C87.1116 91.9696 79.9616 75.713 74.3835 63.3726C68.8053 51.0322 56.7369 27.8181 38.2127 27.8181C23.0331 27.8181 -5.73077 82.2879 1.0053 87.4127C6.39416 91.5126 19.0438 81.4638 27.4639 75.0103C29.9899 80.7046 33.8038 90.2016 39.8663 90.6571C45.9288 91.1127 49.4646 80.1352 54.236 75.0103C55.92 76.9084 66 85.1986 76.0675 88.4275Z" fill="#66A865"/>
<path d="M39.8411 25.5157C48.7991 25.5157 56.3666 30.5137 62.5422 37.2413C62.8592 38.0399 63.1764 38.8017 63.5003 39.5157C68.24 49.9656 73.4981 60.5621 73.0003 60.5157C64.4447 59.6563 54.5248 55.8793 53.093 54.2716C50.1594 59.8491 45.6523 63.4014 40.5002 63.0157C35.3481 62.6299 30.647 58.3385 28.5002 53.5157C21.3444 58.9816 8.06781 61.0157 9.00025 59.5157C10.5914 56.9561 12.0775 54.1279 13.4934 51.1554C22.0285 37.4804 32.4259 25.5162 39.8411 25.5157Z" fill="#458244"/>
<path d="M72.4999 51.5157C80.4999 54.2655 74.53 40.0807 70 30.0157C65.4699 19.9508 56.5057 1.08245 41.5 0.0157166C27.4673 -0.981844 2.02957 45.8358 7.49997 50.0157C11.8763 53.3596 23.4655 46.7673 30.3035 41.5037C32.3549 46.1481 35.4523 53.8939 40.3756 54.2655C45.299 54.637 48.1705 45.6836 52.0453 41.5037C53.4129 43.0519 65.3665 49.0638 72.4999 51.5157Z" fill="#83C082"/>
</svg>
