<svg width="25" height="24" viewBox="0 0 25 24" fill="none" xmlns="http://www.w3.org/2000/svg">
<path d="M3.5 5C3.5 3.89543 4.39543 3 5.5 3H8.77924C9.20967 3 9.59181 3.27543 9.72792 3.68377L11.2257 8.17721C11.3831 8.64932 11.1694 9.16531 10.7243 9.38787L8.46701 10.5165C9.56925 12.9612 11.5388 14.9308 13.9835 16.033L15.1121 13.7757C15.3347 13.3306 15.8507 13.1169 16.3228 13.2743L20.8162 14.7721C21.2246 14.9082 21.5 15.2903 21.5 15.7208V19C21.5 20.1046 20.6046 21 19.5 21H18.5C10.2157 21 3.5 14.2843 3.5 6V5Z" stroke="#2E4435" stroke-width="2" stroke-linecap="round" stroke-linejoin="round"/>
</svg>
