<svg width="24" height="24" viewBox="0 0 24 24" fill="none" xmlns="http://www.w3.org/2000/svg">
<rect x="1" y="1" width="22" height="22" rx="11" stroke="#2E4435" stroke-width="2"/>
<path d="M12.3128 13.064H11.7608V15.5H9.7448V8.048H12.1808C13.0368 8.048 13.6728 8.244 14.0888 8.636C14.5048 9.028 14.7128 9.672 14.7128 10.568C14.7128 11.464 14.5168 12.104 14.1248 12.488C13.7328 12.872 13.1288 13.064 12.3128 13.064ZM12.5408 11.444C12.6128 11.308 12.6488 11.064 12.6488 10.712C12.6488 10.36 12.6088 10.112 12.5288 9.968C12.4488 9.824 12.2888 9.752 12.0488 9.752H11.7608V11.648H12.0968C12.3208 11.648 12.4688 11.58 12.5408 11.444Z" fill="#2E4435"/>
</svg>
