<svg width="24" height="25" viewBox="0 0 24 25" fill="none" xmlns="http://www.w3.org/2000/svg">
<rect x="1" y="1.37451" width="22" height="22" rx="11" stroke="#2E4435" stroke-width="2"/>
<path d="M12.3128 13.4385H11.7608V15.8745H9.7448V8.42251H12.1808C13.0368 8.42251 13.6728 8.61851 14.0888 9.01051C14.5048 9.40251 14.7128 10.0465 14.7128 10.9425C14.7128 11.8385 14.5168 12.4785 14.1248 12.8625C13.7328 13.2465 13.1288 13.4385 12.3128 13.4385ZM12.5408 11.8185C12.6128 11.6825 12.6488 11.4385 12.6488 11.0865C12.6488 10.7345 12.6088 10.4865 12.5288 10.3425C12.4488 10.1985 12.2888 10.1265 12.0488 10.1265H11.7608V12.0225H12.0968C12.3208 12.0225 12.4688 11.9545 12.5408 11.8185Z" fill="#2E4435"/>
</svg>
