<svg width="60" height="130" viewBox="0 0 60 130" fill="none" xmlns="http://www.w3.org/2000/svg">
<rect y="70" width="60" height="60" fill="#5D7D5F"/>
<rect x="24.3857" y="54.8146" width="13.3712" height="45.1854" fill="#93642D"/>
<rect x="24.4219" y="38.1084" width="13.3712" height="45.1854" fill="#714D22"/>
<path d="M60 56.3821C60 68.2038 46.6309 77.7871 30.1392 77.7871C13.6475 77.7871 0.27832 68.2038 0.27832 56.3821C0.27832 44.5605 13.6475 20.7072 30.1392 20.7072C46.6308 20.7072 60 44.5605 60 56.3821Z" fill="#66A865"/>
<path d="M59.0938 51.3645C59.5048 53.1824 59.7217 54.8794 59.7217 56.3821C59.7217 68.2036 46.3528 77.7872 29.8613 77.7874C13.3696 77.7874 0 68.2037 0 56.3821C3.7329e-06 54.8794 0.215965 53.1823 0.626953 51.3645C3.44926 61.0831 15.466 68.385 29.8613 68.385C44.2563 68.3849 56.2713 61.0829 59.0938 51.3645Z" fill="#458244"/>
<path d="M55.1122 28.9759C55.1122 38.5777 44.0406 46.3615 30.383 46.3615C16.7255 46.3615 5.65381 38.5777 5.65381 28.9759C5.65381 19.3741 16.7254 -3.05176e-05 30.383 -3.05176e-05C44.0406 -3.05176e-05 55.1122 19.3741 55.1122 28.9759Z" fill="#83C082"/>
</svg>
