<svg width="60" height="130" viewBox="0 0 60 130" fill="none" xmlns="http://www.w3.org/2000/svg">
<rect y="70" width="60" height="60" fill="#5D7D5F"/>
<rect x="4.4873" y="22.3629" width="27.035" height="35.411" rx="13.5175" fill="#66A865"/>
<path d="M24.7632 32.0726C24.7632 28.3399 27.7892 25.3139 31.5219 25.3139V25.3139V27.4079C31.5219 31.1406 28.4959 34.1666 24.7632 34.1666V34.1666V32.0726Z" fill="#66A865"/>
<path d="M14.1588 31.026C10.6929 30.598 8.08657 27.4273 8.33732 23.9441L8.47503 22.0312V22.0312C11.9409 22.4593 14.5473 25.6299 14.2965 29.1131L14.1588 31.026V31.026Z" fill="#66A865"/>
<path d="M8.88082 45.7979C6.21542 48.731 2.32004 48.4044 0.180239 45.0684L-2.00423e-06 44.7874V44.7874C2.6654 41.8543 6.56078 42.1809 8.70058 45.5169L8.88082 45.7979V45.7979Z" fill="#66A865"/>
<path d="M33.9546 48.6179C31.2892 51.551 27.3938 51.2244 25.254 47.8884L25.0737 47.6074V47.6074C27.7391 44.6743 31.6345 45.0008 33.7743 48.3369L33.9546 48.6179V48.6179Z" fill="#66A865"/>
<rect width="33.5329" height="29.3321" rx="14.6661" transform="matrix(-0.401132 0.91602 -0.799505 -0.60066 47.7437 45.4488)" fill="#66A865"/>
<path d="M29.8384 62.6136C33.0763 65.0463 34.3842 70.0257 32.7597 73.7355L32.3384 74.6975V74.6975C29.1005 72.2649 27.7926 67.2855 29.4171 63.5757L29.8384 62.6136V62.6136Z" fill="#66A865"/>
<path d="M37.6423 51.2965C39.4029 48.0304 43.1355 47.5148 45.9793 50.1448V50.1448L45.5314 50.9756C43.7709 54.2417 40.0383 54.7573 37.1944 52.1273V52.1273L37.6423 51.2965Z" fill="#66A865"/>
<path d="M30.0125 38.5966C29.4102 34.2106 31.6994 30.0006 35.1256 29.1934V29.1934L35.151 29.3777C35.7533 33.7637 33.4641 37.9736 30.0378 38.7809V38.7809L30.0125 38.5966Z" fill="#66A865"/>
<path d="M15.6688 65.6824C15.0664 61.2964 17.3556 57.0865 20.7819 56.2792V56.2792L20.8072 56.4635C21.4096 60.8495 19.1203 65.0594 15.6941 65.8667V65.8667L15.6688 65.6824Z" fill="#66A865"/>
<rect width="33.5329" height="29.3321" rx="14.6661" transform="matrix(-0.401132 0.91602 -0.799505 -0.60066 59.7798 37.3414)" fill="#66A865"/>
<path d="M41.8745 54.5062C45.1124 56.9388 46.4203 61.9182 44.7958 65.628L44.3745 66.5901V66.5901C41.1366 64.1574 39.8287 59.178 41.4532 55.4682L41.8745 54.5062V54.5062Z" fill="#66A865"/>
<path d="M49.6789 43.189C51.4395 39.923 55.1721 39.4073 58.0159 42.0373V42.0373L57.568 42.8682C55.8075 46.1342 52.0749 46.6498 49.2311 44.0198V44.0198L49.6789 43.189Z" fill="#66A865"/>
<path d="M27.7054 57.5749C27.103 53.189 29.3923 48.979 32.8185 48.1717V48.1717L32.8438 48.3561C33.4462 52.742 31.157 56.952 27.7307 57.7593V57.7593L27.7054 57.5749Z" fill="#66A865"/>
<path d="M40.5465 13.5776C46.6081 18.1316 49.0566 27.4533 46.0153 34.3982L44.438 38.0001C41.3968 44.945 34.0175 46.8833 27.9559 42.3293V42.3293C21.8944 37.7753 19.4459 28.4536 22.4872 21.5086L24.0644 17.9068C27.1057 10.9618 34.485 9.02359 40.5465 13.5776V13.5776Z" fill="#66A865"/>
<path d="M35.4722 37.6795C38.503 39.9565 39.7273 44.6174 38.2066 48.0899L37.8123 48.9903V48.9903C34.7815 46.7133 33.5573 42.0525 35.0779 38.58L35.4722 37.6795V37.6795Z" fill="#66A865"/>
<path d="M42.7774 27.0863C44.4253 24.0292 47.9191 23.5466 50.581 26.0084V26.0084L50.1618 26.786C48.5139 29.8431 45.0201 30.3258 42.3582 27.864V27.864L42.7774 27.0863Z" fill="#66A865"/>
<path d="M35.6356 15.1989C35.0718 11.0935 37.2146 7.15288 40.4216 6.39725V6.39725L40.4453 6.56979C41.0091 10.6752 38.8664 14.6158 35.6593 15.3714V15.3714L35.6356 15.1989Z" fill="#66A865"/>
<path d="M22.2103 40.552C21.6465 36.4466 23.7893 32.506 26.9963 31.7504V31.7504L27.02 31.9229C27.5838 36.0283 25.4411 39.9689 22.234 40.7245V40.7245L22.2103 40.552Z" fill="#66A865"/>
<rect width="25.5008" height="32.9955" rx="12.7504" transform="matrix(0.981527 0.191322 -0.112889 0.993608 12.772 11.1641)" fill="#66A865"/>
<path d="M30.5137 23.8897C30.9112 20.3913 34.035 18.1013 37.4908 18.775V18.775L37.2793 20.6366C36.8818 24.1351 33.7581 26.425 30.3022 25.7514V25.7514L30.5137 23.8897Z" fill="#66A865"/>
<path d="M20.8149 20.9299C17.6512 19.9081 15.5775 16.4712 16.1832 13.2533L16.4989 11.5765V11.5765C19.6627 12.5983 21.7363 16.0352 21.1306 19.2531L20.8149 20.9299V20.9299Z" fill="#66A865"/>
<path d="M14.3745 33.6537C11.5982 35.8883 8.02353 34.8774 6.39013 31.3958L6.25865 31.1155V31.1155C9.03488 28.881 12.6096 29.8919 14.243 33.3735L14.3745 33.6537V33.6537Z" fill="#66A865"/>
<path d="M37.2924 40.7895C34.5162 43.024 30.9415 42.0131 29.3081 38.5315L29.1766 38.2513V38.2513C31.9529 36.0167 35.5276 37.0276 37.161 40.5092L37.2924 40.7895V40.7895Z" fill="#66A865"/>
<rect width="31.3877" height="27.4556" rx="13.7278" transform="matrix(-0.401132 0.91602 -0.799505 -0.60066 48.2554 32.2263)" fill="#66A865"/>
<path d="M31.4957 48.2929C34.5265 50.5699 35.7507 55.2308 34.2301 58.7033L33.8357 59.6037V59.6037C30.805 57.3267 29.5807 52.6659 31.1014 49.1934L31.4957 48.2929V48.2929Z" fill="#66A865"/>
<path d="M38.8003 37.6998C40.4483 34.6427 43.9421 34.16 46.604 36.6218V36.6218L46.1847 37.3994C44.5368 40.4565 41.043 40.9392 38.3811 38.4774V38.4774L38.8003 37.6998Z" fill="#66A865"/>
<path d="M31.6586 25.8124C31.0948 21.7071 33.2375 17.7664 36.4446 17.0108V17.0108L36.4683 17.1833C37.0321 21.2887 34.8893 25.2293 31.6823 25.985V25.985L31.6586 25.8124Z" fill="#66A865"/>
<path d="M18.2328 51.1654C17.669 47.06 19.8117 43.1194 23.0188 42.3638V42.3638L23.0425 42.5363C23.6063 46.6417 21.4635 50.5823 18.2565 51.338V51.338L18.2328 51.1654Z" fill="#66A865"/>
<path d="M53.8408 36.1348C54.4046 37.5157 54.8196 38.9643 55.0723 40.4366C56.1061 40.6314 57.1471 41.1555 58.0898 42.0274L57.6416 42.8584C57.0521 43.9518 56.2406 44.7353 55.3164 45.1973C55.1759 47.1277 54.7363 49.0173 53.9707 50.7657L52.2861 54.6143C50.8052 57.9959 48.3607 60.2654 45.5264 61.2744C45.6587 62.7681 45.4568 64.2762 44.8691 65.6182L44.4482 66.5801C42.9217 65.4332 41.8242 63.72 41.2607 61.8409C41.0614 61.8259 40.8613 61.8065 40.6611 61.7803L40.25 62.7217C38.7692 66.103 36.3251 68.3726 33.4912 69.3819C33.6236 70.8754 33.4216 72.3837 32.834 73.7256L32.4131 74.6875C30.8867 73.5408 29.7882 71.8282 29.2246 69.9492C27.0204 69.7844 24.756 68.9351 22.6416 67.3467C21.2735 66.3188 20.0779 65.063 19.0732 63.6524C18.1974 64.7575 17.0651 65.552 15.7686 65.8575L15.7432 65.6729C15.4362 63.4375 15.8817 61.248 16.8447 59.5313C16.5988 58.9105 16.3848 58.2759 16.2002 57.6328C10.8029 56.8824 6.42547 52.9466 5.0293 47.7842C3.23629 47.8679 1.46502 46.9451 0.254883 45.0586L0.0742188 44.7774C1.38996 43.3296 3.00551 42.6774 4.56152 42.7881V42.2139C5.76087 42.6689 7.06104 42.9209 8.41992 42.9209C10.5557 42.9208 12.5446 42.301 14.2246 41.2373C13.9435 45.512 15.2732 49.9812 18.0713 53.0284C22.5075 57.8591 28.9528 57.2864 32.4678 51.7491L33.5723 50.0088C33.6759 49.8456 33.7768 49.6798 33.873 49.5117C38.1081 52.467 43.3619 51.4013 46.4111 46.5977L47.5166 44.8575C48.7402 42.9297 49.4454 40.6539 49.6602 38.3028C51.217 37.8856 52.6373 37.1369 53.8408 36.1348Z" fill="#458244"/>
<path d="M26.8326 56.7474H31.0746L34.5318 99.9999H23.3208L26.8326 56.7474Z" fill="#93642D"/>
<path d="M26.802 56.7474H31.1047L32.9265 80.0273H24.9697L26.802 56.7474Z" fill="#714D22"/>
<path fill-rule="evenodd" clip-rule="evenodd" d="M30.6515 68.828C37.2857 62.5715 38.0921 53.1709 37.628 49.0673L34.6307 49.6489C34.9745 52.6891 34.367 60.4336 28.8811 65.6072L30.6515 68.828Z" fill="#714D22"/>
<rect width="26.4172" height="28.2603" rx="13.2086" transform="matrix(0.704078 -0.710123 0.506792 0.862068 13.4395 42.0625)" fill="#66A865"/>
<path d="M31.9295 35.7164C30.081 32.5721 30.6644 27.9234 33.2325 25.3332V25.3332L33.466 25.7304C35.3145 28.8748 34.7311 33.5235 32.163 36.1137V36.1137L31.9295 35.7164Z" fill="#66A865"/>
<path d="M23.5968 41.3115C21.0392 43.422 17.7434 42.5912 16.2354 39.456L16.0484 39.0671V39.0671C18.606 36.9567 21.9018 37.7874 23.4097 40.9227L23.5968 41.3115V41.3115Z" fill="#66A865"/>
<path d="M25.9399 55.1367C25.2924 59.0041 22.4016 61.4598 19.483 60.6216L19.4213 60.6038V60.6038C20.0687 56.7364 22.9596 54.2807 25.8782 55.1189L25.9399 55.1367V55.1367Z" fill="#66A865"/>
<path d="M44.3315 39.678C43.684 43.5455 40.7932 46.0011 37.8746 45.1629L37.8129 45.1452V45.1452C38.4603 41.2777 41.3512 38.822 44.2698 39.6603L44.3315 39.678V39.678Z" fill="#66A865"/>
<rect width="18.6184" height="24.0903" rx="9.3092" transform="matrix(0.981527 0.191322 -0.112889 0.993608 14.2798 11.6836)" fill="#83C082"/>
<path d="M27.2338 20.9747C27.524 18.4204 29.8047 16.7485 32.3279 17.2403V17.2403L32.1735 18.5996C31.8833 21.1538 29.6026 22.8257 27.0794 22.3339V22.3339L27.2338 20.9747Z" fill="#83C082"/>
<path d="M20.1522 18.8136C17.8423 18.0676 16.3283 15.5583 16.7705 13.2089L17.001 11.9846V11.9846C19.3109 12.7306 20.8249 15.24 20.3826 17.5894L20.1522 18.8136V18.8136Z" fill="#83C082"/>
<path d="M15.4504 28.1034C13.4234 29.7349 10.8135 28.9968 9.62096 26.4549L9.52496 26.2502V26.2502C11.5519 24.6187 14.1618 25.3568 15.3544 27.8988L15.4504 28.1034V28.1034Z" fill="#83C082"/>
<path d="M32.1823 33.3133C30.1554 34.9447 27.5454 34.2067 26.3529 31.6647L26.2569 31.4601V31.4601C28.2838 29.8286 30.8938 30.5667 32.0863 33.1086L32.1823 33.3133V33.3133Z" fill="#83C082"/>
</svg>
