<svg width="60" height="130" viewBox="0 0 60 130" fill="none" xmlns="http://www.w3.org/2000/svg">
<rect y="70" width="60" height="60" fill="#5D7D5F"/>
<path d="M19.293 17.2871C25.26 17.2871 30.0977 22.1247 30.0977 28.0918V30.6357C30.0977 30.7775 30.0914 30.9191 30.0859 31.0596C34.5546 32.3842 37.8154 36.5195 37.8154 41.418V43.9619C37.8154 49.9289 32.9778 54.7666 27.0107 54.7666C23.7823 54.7666 20.887 53.3484 18.9072 51.1035C16.9275 53.3481 14.0329 54.7665 10.8047 54.7666C4.83764 54.7666 0 49.9289 0 43.9619V41.418C0 36.244 3.63738 31.9214 8.49414 30.8633C8.49259 30.7879 8.48828 30.7124 8.48828 30.6367V28.0918C8.48828 22.1247 13.3259 17.2871 19.293 17.2871Z" fill="#66A865"/>
<path d="M18.1738 65.9678C13.7692 62.0153 13.1261 55.0106 16.7377 50.3224L17.3945 49.4699C17.6123 49.1871 17.8422 48.9208 18.0799 48.6679C15.5592 44.6636 15.6464 39.2336 18.6204 35.3731L19.2766 34.5213C22.8884 29.8331 29.3872 29.2366 33.7921 33.189C36.1752 35.3272 37.4547 38.3587 37.5576 41.4336C40.3775 40.9816 43.3725 41.7855 45.7554 43.9234C50.1603 47.8759 50.8032 54.8806 47.1915 59.5688L46.5347 60.4214C43.3957 64.4956 38.0774 65.4785 33.847 63.0719C33.6896 63.3136 33.524 63.5519 33.346 63.7829L32.6893 64.6354C29.0775 69.3237 22.5787 69.9202 18.1738 65.9678Z" fill="#66A865"/>
<path d="M41.1167 13.4003C47.1499 13.4004 52.0405 18.2918 52.0405 24.3251V26.8973C52.0405 27.0405 52.0352 27.1833 52.0298 27.3251C56.5477 28.6647 59.8442 32.8461 59.8442 37.7987V40.372C59.8441 46.4052 54.9527 51.2958 48.9194 51.2958C45.6553 51.2958 42.7279 49.8623 40.7261 47.5927C38.7244 49.862 35.7976 51.2956 32.5337 51.2958C26.5004 51.2958 21.609 46.4052 21.6089 40.372V37.7987C21.6089 32.5671 25.2868 28.1966 30.1978 27.1268C30.1962 27.0506 30.1919 26.9739 30.1919 26.8973V24.3251C30.1919 18.2917 35.0833 13.4003 41.1167 13.4003Z" fill="#66A865"/>
<path d="M40.8105 7.92803C46.8439 7.92807 51.7344 12.8195 51.7344 18.8528V21.4251C51.7344 21.5683 51.7291 21.711 51.7236 21.8528C56.2418 23.1923 59.5381 27.3737 59.5381 32.3265V34.8997C59.538 40.9328 54.6474 45.8233 48.6143 45.8235C45.3502 45.8235 42.4217 44.3909 40.4199 42.1214C38.4182 44.3905 35.4912 45.8234 32.2275 45.8235C26.1942 45.8235 21.3028 40.933 21.3027 34.8997V32.3265C21.3028 27.0949 24.9807 22.7243 29.8916 21.6546C29.89 21.5784 29.8857 21.5017 29.8857 21.4251V18.8528C29.8857 12.8195 34.7772 7.92803 40.8105 7.92803Z" fill="#66A865"/>
<path d="M21.1489 6.34245C26.0992 6.34269 30.1118 10.356 30.1118 15.3063V17.4176C30.1118 17.5351 30.1065 17.6519 30.1021 17.7682C33.8095 18.8671 36.5142 22.298 36.5142 26.362V28.4733C36.514 33.4235 32.5015 37.436 27.5513 37.4362C24.8729 37.4362 22.4701 36.2605 20.8276 34.3981C19.1852 36.26 16.7839 37.4361 14.106 37.4362C9.15559 37.4362 5.14221 33.4236 5.14209 28.4733V26.362C5.14209 22.0695 8.15965 18.483 12.189 17.6051C12.1877 17.5428 12.1851 17.4803 12.1851 17.4176V15.3063C12.1851 10.3559 16.1985 6.34245 21.1489 6.34245Z" fill="#66A865"/>
<path d="M38.3028 34.4644C34.7046 38.1338 29.0428 37.9739 25.6574 34.1074L25.1646 33.5446C24.9425 33.2908 24.737 33.0263 24.5455 32.7546C21.0929 34.6712 16.7585 34.0041 13.9687 30.8179L13.4759 30.2551C10.0905 26.3886 10.263 20.279 13.8612 16.6096C15.8077 14.6247 18.358 13.7632 20.825 14.0001C20.7454 11.3282 21.6872 8.62871 23.6338 6.64356C27.232 2.97454 32.8932 3.13486 36.2785 7.00128L36.7713 7.56408C39.7145 10.9259 39.968 15.9825 37.6192 19.6572C37.817 19.8463 38.0096 20.0455 38.1946 20.2568L38.6873 20.8196C42.0726 24.686 41.9006 30.795 38.3028 34.4644Z" fill="#66A865"/>
<path d="M29.5078 21.9927C34.2789 21.9927 38.1473 25.8603 38.1475 30.6314V32.6665C38.1475 32.78 38.142 32.8929 38.1377 33.0054C41.7102 34.0648 44.3172 37.3704 44.3174 41.2866V43.3218C44.3174 48.093 40.4489 51.9605 35.6777 51.9605C33.0968 51.9604 30.7822 50.8271 29.1992 49.0327C27.6162 50.8273 25.3008 51.9605 22.7197 51.9605C17.9487 51.9603 14.0811 48.0928 14.0811 43.3218V41.2866C14.0812 37.1496 16.9896 33.6931 20.873 32.8472C20.8718 32.7871 20.8691 32.7269 20.8691 32.6665V30.6314C20.8693 25.8604 24.7368 21.9928 29.5078 21.9927Z" fill="#66A865"/>
<path d="M59.6431 32.2012C59.6749 32.541 59.6938 32.8854 59.6938 33.2335V35.8067C59.6938 35.9055 59.6886 36.0045 59.686 36.1026C59.8901 36.9369 60.0005 37.8089 60.0005 38.7061V41.2794C60.0001 47.1321 55.3962 51.9083 49.6128 52.1886C49.9242 55.0785 49.1933 58.0802 47.3472 60.4766L46.6909 61.3282C43.5523 65.4021 38.2336 66.3853 34.0034 63.9796C33.8461 64.2212 33.6794 64.4595 33.5015 64.6905L32.8452 65.543C29.2334 70.2307 22.7343 70.8272 18.3296 66.8751C14.9664 63.8572 13.799 59.06 15.0415 54.8731C13.7825 55.3882 12.4051 55.6739 10.9604 55.6739C4.99356 55.6739 0.156017 50.836 0.155762 44.8692V42.3243C0.155829 40.659 0.53333 39.082 1.20654 37.6739C2.94516 41.3125 6.65911 43.8262 10.9604 43.8262C12.4051 43.8262 13.7825 43.5406 15.0415 43.0255C13.799 47.2123 14.9664 52.0095 18.3296 55.0274C22.7345 58.9799 29.2334 58.3827 32.8452 53.6944L33.5015 52.8428C33.6795 52.6117 33.846 52.3727 34.0034 52.1309C38.2338 54.537 43.5522 53.5548 46.6909 49.4805L47.3472 48.629C49.1933 46.2325 49.9243 43.2308 49.6128 40.3409C54.4505 40.1064 58.46 36.726 59.6431 32.2012Z" fill="#458244"/>
<path d="M26.5428 48.2455H32.7032L37.7239 100H21.4429L26.5428 48.2455Z" fill="#93642D"/>
<path d="M26.4988 48.2456H32.7474L35.393 76.1015H23.8379L26.4988 48.2456Z" fill="#714D22"/>
<path fill-rule="evenodd" clip-rule="evenodd" d="M32.5293 67.2957C42.1637 59.8094 43.3348 48.561 42.6607 43.6508L38.308 44.3467C38.8073 47.9845 37.925 57.2513 29.9582 63.4418L32.5293 67.2957Z" fill="#714D22"/>
<path d="M31.4902 20.6768C36.902 20.6768 41.289 25.0638 41.2891 30.4756V32.7842C41.2891 32.9124 41.2842 33.04 41.2793 33.167C45.3322 34.3683 48.2889 38.1189 48.2891 42.5615V44.8701C48.2889 50.2818 43.902 54.6689 38.4902 54.6689C35.5624 54.6689 32.9362 53.3833 31.1406 51.3476C29.345 53.3833 26.7188 54.6689 23.791 54.6689C18.3793 54.6688 13.9923 50.2818 13.9922 44.8701V42.5615C13.9923 37.869 17.2913 33.9488 21.6963 32.9893C21.6949 32.921 21.6914 32.8527 21.6914 32.7842V30.4756C21.6915 25.0639 26.0785 20.6768 31.4902 20.6768Z" fill="#66A865"/>
<path d="M31.1262 31.6829C28.6503 35.6061 23.5642 36.5229 19.8262 33.7754C19.497 33.5334 19.1901 33.2688 18.9028 32.9879C16.2063 35.3567 12.1941 35.5933 9.10234 33.321C5.36417 30.5735 4.29202 25.1294 6.76788 21.206C8.10728 19.0837 10.2107 17.8431 12.4512 17.5845C11.8535 15.2398 12.1528 12.673 13.492 10.5506C15.9678 6.62723 21.0544 5.70982 24.7925 8.45737C28.0523 10.8533 29.2848 15.2993 27.9052 18.9997C28.2073 19.1681 28.5039 19.3564 28.7918 19.5679C32.5299 22.3155 33.6021 27.7595 31.1262 31.6829Z" fill="#83C082"/>
</svg>
