<svg width="60" height="130" viewBox="0 0 60 130" fill="none" xmlns="http://www.w3.org/2000/svg">
<rect y="70" width="60" height="60" fill="#5D7D5F"/>
<path d="M26.0111 46.8773H34.473L41.3695 100H19.0059L26.0111 46.8773Z" fill="#93642D"/>
<path d="M25.9514 46.8772H34.3581L38.0132 75.4696H22.2964L25.9514 46.8772Z" fill="#714D22"/>
<path d="M55.6063 70.6168C64.042 71.3025 58.453 63.1212 54.3753 55.8461C50.2976 48.571 41.4754 34.8855 27.9339 34.8855C16.8375 34.8855 -4.18927 66.9973 0.734889 70.0185C4.67421 72.4356 13.9212 70.539 20.0764 66.7344C21.923 70.0914 24.711 71.6627 29.1428 71.9312C33.5745 72.1998 36.1593 69.7557 39.6472 66.7344C40.8782 67.8534 48.2468 70.0185 55.6063 70.6168Z" fill="#83C082"/>
<path d="M27.6626 36.2656C40.1398 36.2657 48.9282 46.9606 54.0132 55.0313C47.3981 54.0928 41.5172 52.2577 40.3882 51.2315C37.6466 55.4492 34.0553 59.2544 29.2407 58.9629C24.4258 58.6711 21.1317 54.8787 19.1255 51.2315C15.0192 53.7695 9.64617 55.5227 5.11963 55.8926C11.7713 46.1509 21.2453 36.2656 27.6626 36.2656Z" fill="#458244"/>
<path d="M55.6063 52.131C63.6796 54.2192 58.453 44.6354 54.3753 37.3603C50.2975 30.0853 41.4754 16.3997 27.9339 16.3997C16.8375 16.3997 -4.18927 48.5115 0.734889 51.5328C4.67421 53.9498 13.9212 48.0257 20.0764 44.2211C21.923 47.5781 24.711 53.1769 29.1428 53.4455C33.5745 53.714 36.1593 47.2424 39.6472 44.2211C40.8782 45.3401 48.2468 50.2275 55.6063 52.131Z" fill="#66A865"/>
<path d="M29.1245 15.0424C35.6732 15.0425 41.2047 17.99 45.7192 21.9565C45.9508 22.4268 46.1829 22.8757 46.4194 23.2963C49.8834 29.4553 53.7265 35.7004 53.3647 35.6762C47.1103 35.1695 39.8582 32.9423 38.812 31.9946C36.6674 35.2827 33.3723 37.3773 29.606 37.1498C25.8398 36.9222 22.4037 34.3923 20.8345 31.5492C15.6034 34.7715 5.89796 35.9707 6.57959 35.0864C7.7398 33.5812 8.82133 31.9169 9.854 30.1694C16.0951 22.1025 23.7013 15.0424 29.1245 15.0424Z" fill="#458244"/>
<path d="M52.998 30.3702C58.8461 31.9913 54.482 23.6289 51.1705 17.6953C47.859 11.7616 41.3061 0.638141 30.3367 0.00926544C20.0786 -0.57883 1.48329 27.0218 5.48222 29.4859C8.68136 31.4573 17.1532 27.5709 22.1519 24.4679C23.6515 27.2058 25.9157 31.7723 29.5147 31.9913C33.1138 32.2104 35.2129 26.932 38.0454 24.4679C39.0452 25.3805 47.7834 28.9248 52.998 30.3702Z" fill="#83C082"/>
</svg>
