<svg width="74" height="172" viewBox="0 0 74 172" fill="none" xmlns="http://www.w3.org/2000/svg">
<rect x="30" y="94.0736" width="16.4495" height="77.5479" fill="#93642D"/>
<rect x="30.0439" y="65.402" width="16.4495" height="77.5479" fill="#714D22"/>
<path d="M73.8125 96.7639C73.8125 117.052 57.3655 133.499 37.077 133.499C16.7886 133.499 0.341553 117.052 0.341553 96.7639C0.341553 76.4754 16.7886 35.5381 37.077 35.5381C57.3655 35.5381 73.8125 76.4754 73.8125 96.7639Z" fill="#66A865"/>
<path d="M72.6982 88.1526C73.2039 91.2724 73.4707 94.1849 73.4707 96.7639C73.4707 117.052 57.0238 133.499 36.7354 133.499C16.447 133.499 0 117.052 0 96.7639C4.64745e-06 94.1849 0.265864 91.2724 0.771484 88.1526C4.24352 104.832 19.0259 117.363 36.7354 117.364C54.4447 117.364 69.2261 104.832 72.6982 88.1526Z" fill="#458244"/>
<path d="M67.8009 49.729C67.8009 66.2077 54.1803 79.5663 37.3785 79.5663C20.5766 79.5663 6.95605 66.2077 6.95605 49.729C6.95605 33.2502 20.5766 0 37.3785 0C54.1803 0 67.8009 33.2502 67.8009 49.729Z" fill="#83C082"/>
</svg>
