<svg width="60" height="130" viewBox="0 0 60 130" fill="none" xmlns="http://www.w3.org/2000/svg">
<rect y="70" width="60" height="60" fill="#5D7D5F"/>
<path d="M27.4277 55.3827H32.5832L36.785 100H23.1597L27.4277 55.3827Z" fill="#93642D"/>
<path d="M27.39 55.3827H32.5118L34.7387 79.3972H25.1631L27.39 55.3827Z" fill="#714D22"/>
<path d="M19.3438 22.2832C25.3264 22.2832 30.1768 27.1335 30.1768 33.1162V36.3965C30.1768 36.4296 30.1741 36.463 30.1738 36.4961C34.6495 37.8271 37.914 41.971 37.9141 46.8789V50.1601C37.914 56.1428 33.0637 60.9931 27.0811 60.9931C23.8447 60.993 20.9419 59.5714 18.957 57.3213C16.9721 59.5714 14.0693 60.993 10.833 60.9931C4.85035 60.9931 3.67761e-05 56.1428 0 50.1601V46.8789C9.93921e-05 41.6931 3.6446 37.3605 8.51172 36.2978V33.1162C8.51172 27.1335 13.3611 22.2833 19.3438 22.2832Z" fill="#66A865"/>
<path d="M18.2212 72.5613C13.8051 68.4791 13.1448 61.2665 16.7463 56.4503L17.475 55.4759C17.6813 55.2 17.8983 54.9391 18.1226 54.691C15.594 50.5614 15.6686 44.9737 18.6334 41.0093L19.3615 40.0356C22.9633 35.2194 29.4636 34.6244 33.88 38.7065C36.2693 40.915 37.5575 44.04 37.6679 47.2062C40.4877 46.7494 43.4858 47.5855 45.8748 49.7937C50.2912 53.8759 50.9516 61.0898 47.3498 65.906L46.6211 66.8805C43.4918 71.0646 38.1756 72.0614 33.9382 69.5743C33.7899 69.8066 33.6343 70.0359 33.4678 70.2585L32.7391 71.2329C29.1373 76.0489 22.6375 76.6434 18.2212 72.5613Z" fill="#66A865"/>
<path d="M41.2236 18.2688C47.2727 18.2689 52.1768 23.1728 52.1768 29.2219V32.5393C52.1768 32.5729 52.1741 32.6064 52.1738 32.6399C56.6993 33.9857 60 38.1755 60 43.138V46.4553C60 52.5045 55.096 57.4085 49.0469 57.4085C45.7743 57.4084 42.839 55.9711 40.832 53.6956C38.825 55.9708 35.8906 57.4084 32.6182 57.4085C26.569 57.4085 21.665 52.5045 21.665 46.4553V43.138C21.6651 37.8947 25.3496 33.5135 30.2705 32.4387V29.2219C30.2705 23.1728 35.1745 18.2688 41.2236 18.2688Z" fill="#66A865"/>
<path d="M36.603 6.82452C41.1888 8.9352 43.4782 14.4812 41.7167 19.2121L40.9758 21.2017C40.9324 21.3184 40.8846 21.4328 40.8371 21.5463C43.8802 24.1772 45.1654 28.6085 43.7194 32.4921L42.9782 34.4826C41.2164 39.2132 36.0708 41.3373 31.4851 39.227C29.004 38.0851 27.1968 35.9365 26.338 33.4566C24.1538 34.5358 21.5101 34.636 19.0291 33.4942C14.4434 31.3835 12.154 25.8375 13.9154 21.1066L14.6566 19.1161C16.1845 15.0137 20.2566 12.8731 24.3019 13.7527C24.3243 13.6883 24.3452 13.6226 24.3691 13.5585L25.1099 11.5689C26.8717 6.83806 32.0171 4.71388 36.603 6.82452Z" fill="#83C082"/>
<path d="M57.6758 36.5677C59.1311 38.4265 60 40.7668 60 43.3109V46.6283C59.9997 52.4921 55.3913 57.2794 49.5986 57.5667C49.9133 60.5385 49.1876 63.6206 47.3496 66.0784L46.6211 67.0531C43.492 71.2368 38.1757 72.2339 33.9385 69.7474C33.7903 69.9795 33.6341 70.2086 33.4678 70.431L32.7393 71.4056C29.1374 76.2213 22.6369 76.8156 18.2207 72.7337C14.8503 69.618 13.6701 64.6788 14.9004 60.3734C13.6447 60.8833 12.272 61.1653 10.833 61.1654C4.85045 61.1654 0.000191746 56.3149 0 50.3324V47.0511C0.000151964 44.4928 0.887864 42.1423 2.37109 40.2894C4.35628 42.7707 7.4083 44.3616 10.833 44.3616C12.272 44.3616 13.6446 44.0796 14.9004 43.5697C13.6704 47.8753 14.8505 52.8144 18.2207 55.93C22.6371 60.0121 29.1375 59.417 32.7393 54.6009L33.4678 53.6273C33.6341 53.4048 33.7893 53.1748 33.9375 52.9427C38.1749 55.4302 43.4917 54.4334 46.6211 50.2493L47.3496 49.2747C49.1876 46.8169 49.9134 43.7348 49.5986 40.763C52.8783 40.6003 55.7768 38.9939 57.6758 36.5677Z" fill="#458244"/>
</svg>
