<svg width="113" height="175" viewBox="0 0 113 175" fill="none" xmlns="http://www.w3.org/2000/svg">
<path d="M36.2529 30.0981C47.4652 30.0981 56.5547 39.1876 56.5547 50.3999V51.8501C56.5547 52.612 56.5105 53.3639 56.4287 54.104C64.8793 56.5592 71.0557 64.3594 71.0557 73.6021V75.0522C71.0555 86.2644 61.9661 95.354 50.7539 95.354C44.6896 95.3539 39.2473 92.6937 35.5273 88.478C31.8073 92.6934 26.3658 95.354 20.3018 95.354C9.08958 95.354 0.000213606 86.2644 0 75.0522V73.6021C0 63.8515 6.87389 55.7066 16.04 53.7485C15.9821 53.1235 15.9512 52.4903 15.9512 51.8501V50.3999C15.9512 39.1876 25.0406 30.0982 36.2529 30.0981Z" fill="#66A865"/>
<path d="M34.1507 114.857C25.8738 107.975 24.7425 95.6862 31.6241 87.4093L32.5138 86.3392C32.9816 85.7765 33.4762 85.2482 33.991 84.7518C29.2598 77.7528 29.4873 68.2045 35.16 61.3816L36.0497 60.3115C42.9312 52.0347 55.2193 50.903 63.4963 57.7844C67.9729 61.5064 70.3582 66.8103 70.517 72.2054C75.8504 71.3767 81.5001 72.7531 85.9767 76.4749C94.2536 83.3565 95.3848 95.6453 88.5032 103.922L87.6136 104.992C81.6292 112.19 71.5562 113.984 63.5879 109.804C63.2471 110.301 62.8806 110.787 62.4876 111.26L61.598 112.33C54.7164 120.607 42.4276 121.738 34.1507 114.857Z" fill="#66A865"/>
<path d="M77.2595 23.3309C88.5962 23.3312 97.7859 32.5216 97.7859 43.8583V45.3241C97.7859 46.0948 97.7417 46.8557 97.6589 47.6044C106.203 50.0869 112.449 57.9729 112.449 67.3182V68.7841C112.449 80.1209 103.258 89.3113 91.9216 89.3114C85.7897 89.3114 80.2865 86.622 76.5251 82.3593C72.7638 86.6215 67.2621 89.3114 61.1306 89.3114C49.7937 89.3114 40.6033 80.1209 40.6033 68.7841V67.3182C40.6033 57.4596 47.5534 49.2251 56.821 47.245C56.7624 46.6127 56.7322 45.9717 56.7322 45.3241V43.8583C56.7322 32.5214 65.9226 23.3309 77.2595 23.3309Z" fill="#66A865"/>
<path d="M76.6841 13.8031C88.021 13.8031 97.2114 22.9936 97.2114 34.3304V35.7963C97.2114 36.567 97.1672 37.3279 97.0845 38.0765C105.629 40.5591 111.875 48.4451 111.875 57.7904V59.2562C111.875 70.593 102.684 79.7834 91.3472 79.7836C85.2153 79.7836 79.7121 77.0941 75.9507 72.8314C72.1894 77.0936 66.6876 79.7835 60.5562 79.7836C49.2193 79.7836 40.0288 70.5931 40.0288 59.2562V57.7904C40.0288 47.9318 46.9789 39.6972 56.2466 37.7172C56.1879 37.0848 56.1577 36.4439 56.1577 35.7963V34.3304C56.1577 22.9937 65.3474 13.8034 76.6841 13.8031Z" fill="#66A865"/>
<path d="M39.7383 11.0425C49.0403 11.0425 56.581 18.5832 56.5811 27.8853V29.0884C56.5811 29.7206 56.5444 30.3444 56.4766 30.9585C63.4876 32.9953 68.6123 39.4662 68.6123 47.1343V48.3374C68.6123 57.6394 61.0715 65.18 51.7695 65.1802C46.7383 65.1802 42.223 62.9736 39.1367 59.4761C36.0505 62.9733 31.5359 65.1802 26.5049 65.1802C17.2029 65.1801 9.66211 57.6394 9.66211 48.3374V47.1343C9.66215 39.0452 15.3646 32.2883 22.9688 30.6636C22.9207 30.145 22.8955 29.6195 22.8955 29.0884V27.8853C22.8956 18.5834 30.4364 11.0427 39.7383 11.0425Z" fill="#66A865"/>
<path d="M71.972 60.006C65.211 66.3947 54.5503 66.0935 48.1616 59.3325L47.3353 58.458C46.9011 57.9985 46.5 57.5192 46.1275 57.0263C39.6327 60.3612 31.4637 59.1776 26.1971 53.6041L25.3708 52.7296C18.9822 45.9686 19.2841 35.3086 26.045 28.9199C29.7018 25.4644 34.4993 23.9671 39.1446 24.3895C38.9859 19.7279 40.7516 15.0232 44.4083 11.5679C51.1694 5.17917 61.8293 5.48097 68.218 12.242L69.0443 13.1165C74.6 18.996 75.0959 27.8236 70.6848 34.2272C71.0759 34.5711 71.4551 34.9357 71.8199 35.3218L72.6462 36.1962C79.0348 42.9572 78.7328 53.6172 71.972 60.006Z" fill="#66A865"/>
<path d="M55.4458 38.2913C64.411 38.2913 71.6792 45.5594 71.6792 54.5247V55.6838C71.6792 56.2932 71.644 56.8946 71.5786 57.4866C78.3354 59.4499 83.2739 65.6863 83.2739 73.0764V74.2356C83.2739 83.2008 76.0057 90.469 67.0405 90.469C62.1916 90.4689 57.8401 88.3417 54.8657 84.9709C51.8913 88.3415 47.5405 90.4689 42.6919 90.469C33.7267 90.469 26.4585 83.2008 26.4585 74.2356V73.0764C26.4585 65.2801 31.9547 58.7682 39.2837 57.2024C39.2373 56.7024 39.2134 56.1959 39.2134 55.6838V54.5247C39.2134 45.5595 46.4806 38.2913 55.4458 38.2913Z" fill="#66A865"/>
<path d="M111.847 55.7449C112.057 56.9213 112.167 58.1322 112.167 59.3689V60.8347C112.167 61.7128 112.111 62.5784 112.004 63.4275C112.485 65.1687 112.742 67.0033 112.742 68.8972V70.363C112.742 81.3772 104.066 90.3633 93.1763 90.866C93.7467 95.9523 92.3258 101.254 88.7954 105.501L87.9058 106.571C81.9214 113.769 71.8485 115.563 63.8804 111.383C63.5396 111.88 63.1727 112.366 62.7798 112.839L61.8901 113.909C55.0085 122.186 42.7197 123.317 34.4429 116.435C28.1167 111.175 25.9645 102.756 28.3745 95.3845C25.9783 96.3804 23.3511 96.9324 20.5942 96.9324C9.38206 96.9324 0.292694 87.8427 0.29248 76.6306V75.1804C0.292588 71.7127 1.16204 68.4481 2.69482 65.5925C6.11813 71.9696 12.8499 76.3054 20.5942 76.3054C23.3511 76.3054 25.9783 75.7534 28.3745 74.7576C25.9645 82.1293 28.1168 90.5484 34.4429 95.8083C42.7197 102.69 55.0085 101.559 61.8901 93.282L62.7798 92.2117C63.1726 91.7391 63.5396 91.2525 63.8804 90.7556C71.8485 94.9356 81.9214 93.1417 87.9058 85.9441L88.7954 84.8738C92.3258 80.6274 93.7467 75.3253 93.1763 70.239C101.999 69.8318 109.367 63.8562 111.847 55.7449Z" fill="#458244"/>
<path d="M49.8754 84H61.451L70.8852 174.11H40.2925L49.8754 84Z" fill="#93642D"/>
<path d="M49.7925 84H61.5338L66.505 132.5H44.7925L49.7925 84Z" fill="#714D22"/>
<path fill-rule="evenodd" clip-rule="evenodd" d="M61.1236 117.168C79.227 104.134 81.4275 84.5491 80.161 76L71.982 77.2117C72.9203 83.5455 71.2623 99.6799 56.2924 110.458L61.1236 117.168Z" fill="#714D22"/>
<path d="M59.1724 36C69.3414 36.0001 77.5845 44.2441 77.5845 54.4131V55.7275C77.5845 56.4187 77.5454 57.1011 77.4712 57.7725C85.1353 59.9994 90.7368 67.0735 90.7368 75.4561V76.7705C90.7368 86.9394 82.4936 95.1834 72.3247 95.1836C66.8244 95.1836 61.8881 92.771 58.5142 88.9473C55.1403 92.7705 50.2054 95.1835 44.7056 95.1836C34.5365 95.1836 26.2925 86.9396 26.2925 76.7705V75.4561C26.2925 66.6127 32.527 59.226 40.8403 57.4502C40.7877 56.8831 40.7593 56.3084 40.7593 55.7275V54.4131C40.7593 44.244 49.0033 36 59.1724 36Z" fill="#66A865"/>
<path d="M58.4895 55.1629C53.8373 61.9939 44.5281 63.7602 37.697 59.108L36.814 58.5066C36.3497 58.1904 35.9095 57.8513 35.4924 57.4943C30.4903 61.624 23.1753 62.151 17.5442 58.316L16.6612 57.7147C9.83027 53.0625 8.06409 43.7531 12.7161 36.9221C15.2324 33.2274 19.1111 31.0157 23.223 30.4985C22.1981 26.4829 22.8355 22.0637 25.3517 18.3689C30.0039 11.5379 39.3132 9.77157 46.1442 14.4238L47.0273 15.0252C52.9677 19.0709 55.0782 26.6384 52.4679 33.0353C52.8727 33.2593 53.2715 33.5034 53.6614 33.769L54.5444 34.3703C61.3755 39.0226 63.1418 48.3318 58.4895 55.1629Z" fill="#83C082"/>
</svg>
