<svg width="60" height="130" viewBox="0 0 60 130" fill="none" xmlns="http://www.w3.org/2000/svg">
<rect y="70" width="60" height="60" fill="#5D7D5F"/>
<rect x="21.1533" y="44.6954" width="16.5694" height="55.3045" fill="#93642D"/>
<rect x="21.1973" y="24.2477" width="16.5694" height="55.3045" fill="#714D22"/>
<rect x="0.034668" y="27.0359" width="59.9655" height="42.456" rx="21.228" fill="#66A865"/>
<rect x="3.0542" y="4.57764e-05" width="54.8765" height="38.8529" rx="19.4265" fill="#83C082"/>
<path d="M59.8086 45.9679C59.911 46.8133 59.9658 47.6739 59.9658 48.547C59.9658 60.2709 50.4612 69.7755 38.7373 69.7755H21.2275C9.50384 69.7753 0 60.2708 0 48.547C1.86545e-05 47.6739 0.0538294 46.8133 0.15625 45.9679C1.42911 56.475 10.377 64.6161 21.2275 64.6163H38.7373C49.588 64.6163 58.5357 56.4751 59.8086 45.9679Z" fill="#458244"/>
</svg>
