<svg width="60" height="130" viewBox="0 0 60 130" fill="none" xmlns="http://www.w3.org/2000/svg">
<rect y="70" width="60" height="60" fill="#5D7D5F"/>
<rect x="23.7061" y="45.7244" width="12.1768" height="54.2756" fill="#93642D"/>
<rect x="23.7061" y="45.2543" width="11.844" height="41.2939" fill="#714D22"/>
<path d="M30.958 25.4626C40.2265 25.4626 47.7402 32.9763 47.7402 42.2448C47.7402 43.0301 47.6845 43.8026 47.5801 44.5592C54.7243 46.4858 59.9824 53.0103 59.9824 60.7634C59.9822 70.0316 52.4684 77.5453 43.2002 77.5456H42.4883C37.5234 77.5455 33.0628 75.3885 29.9902 71.9616C26.9176 75.3881 22.4578 77.5456 17.4932 77.5456H16.7822C7.5138 77.5456 0.000172153 70.0317 0 60.7634C0 52.5871 5.84709 45.7765 13.5879 44.2848C13.5069 43.6162 13.4648 42.9353 13.4648 42.2448C13.4648 32.9764 20.9787 25.4627 30.2471 25.4626H30.958Z" fill="#66A865"/>
<path d="M30.5024 -3.8147e-05C38.5352 -3.8147e-05 45.0474 6.51215 45.0474 14.5449C45.0473 15.2252 44.9981 15.8943 44.9077 16.5498C51.0999 18.2191 55.6567 23.874 55.6567 30.5937C55.6567 38.6263 49.1453 45.1384 41.1128 45.1386H40.4966C36.1936 45.1386 32.3275 43.2688 29.6646 40.2988C27.0017 43.2687 23.1363 45.1385 18.8335 45.1386H18.2173C10.1846 45.1386 3.67239 38.6264 3.67236 30.5937C3.67236 23.5076 8.73993 17.6052 15.4487 16.3125C15.3785 15.7331 15.3413 15.1432 15.3413 14.5449C15.3413 6.51216 21.8535 -2.11463e-05 29.8862 -3.8147e-05H30.5024Z" fill="#83C082"/>
<path d="M0.594238 56.4522C2.51793 63.6008 9.04419 68.8633 16.8003 68.8633H17.5112C22.476 68.8633 26.9367 66.706 30.0093 63.2793C33.0819 66.706 37.5425 68.8633 42.5073 68.8633H43.2183C50.9732 68.8633 57.4976 63.6021 59.4224 56.4551C59.7973 57.8487 60.0005 59.3132 60.0005 60.8252C60.0001 70.0934 52.4866 77.6074 43.2183 77.6074H42.5073C37.5425 77.6074 33.0819 75.4502 30.0093 72.0235C26.9367 75.4502 22.476 77.6074 17.5112 77.6074H16.8003C7.532 77.6074 0.0184623 70.0934 0.0180664 60.8252C0.0180664 59.3123 0.218899 57.8464 0.594238 56.4522Z" fill="#458244"/>
</svg>
