<svg width="25" height="24" viewBox="0 0 25 24" fill="none" xmlns="http://www.w3.org/2000/svg">
<path d="M11.2999 5.26513C10.0313 4.64692 8.60609 4.30005 7.0999 4.30005C5.59371 4.30005 4.16854 4.64692 2.8999 5.26513V17.2651C4.16854 16.6469 5.59371 16.3 7.0999 16.3C9.10223 16.3 10.9614 16.9131 12.4999 17.9617C14.0384 16.9131 15.8976 16.3 17.8999 16.3C19.4061 16.3 20.8313 16.6469 22.0999 17.2651V5.26513C20.8313 4.64692 19.4061 4.30005 17.8999 4.30005C16.3937 4.30005 14.9685 4.64692 13.6999 5.26513V13.9C13.6999 14.5628 13.1626 15.1 12.4999 15.1C11.8372 15.1 11.2999 14.5628 11.2999 13.9V5.26513Z" fill="#2E4435"/>
</svg>
