<svg width="25" height="24" viewBox="0 0 25 24" fill="none" xmlns="http://www.w3.org/2000/svg">
<path d="M2.5 2.5H8.5C9.56087 2.5 10.5783 2.92143 11.3284 3.67157C12.0786 4.42172 12.5 5.43913 12.5 6.5V20.5C12.5 19.7044 12.1839 18.9413 11.6213 18.3787C11.0587 17.8161 10.2956 17.5 9.5 17.5H2.5V2.5Z" stroke="#2E4435" stroke-width="2" stroke-linecap="round" stroke-linejoin="round"/>
<path d="M22.5 2.5H16.5C15.4391 2.5 14.4217 2.92143 13.6716 3.67157C12.9214 4.42172 12.5 5.43913 12.5 6.5V20.5C12.5 19.7044 12.8161 18.9413 13.3787 18.3787C13.9413 17.8161 14.7044 17.5 15.5 17.5H22.5V2.5Z" stroke="#2E4435" stroke-width="2" stroke-linecap="round" stroke-linejoin="round"/>
</svg>
