<svg width="25" height="24" viewBox="0 0 25 24" fill="none" xmlns="http://www.w3.org/2000/svg">
<path d="M13.3486 2.25137C12.8799 1.78275 12.1201 1.78275 11.6515 2.25137L3.2515 10.6514C2.78287 11.12 2.78287 11.8798 3.2515 12.3484C3.72013 12.8171 4.47992 12.8171 4.94855 12.3484L5.30002 11.997V19.8999C5.30002 20.5626 5.83728 21.0999 6.50002 21.0999H8.90002C9.56277 21.0999 10.1 20.5626 10.1 19.8999V17.4999C10.1 16.8372 10.6373 16.2999 11.3 16.2999H13.7C14.3628 16.2999 14.9 16.8372 14.9 17.4999V19.8999C14.9 20.5626 15.4373 21.0999 16.1 21.0999H18.5C19.1628 21.0999 19.7 20.5626 19.7 19.8999V11.997L20.0515 12.3484C20.5201 12.8171 21.2799 12.8171 21.7486 12.3484C22.2172 11.8798 22.2172 11.12 21.7486 10.6514L13.3486 2.25137Z" fill="#2E4435"/>
</svg>
