<svg width="25" height="24" viewBox="0 0 25 24" fill="none" xmlns="http://www.w3.org/2000/svg">
<path d="M3.5 11.5L5.5 9.5M5.5 9.5L12.5 2.5L19.5 9.5M5.5 9.5V19.5C5.5 20.0523 5.94772 20.5 6.5 20.5H9.5M19.5 9.5L21.5 11.5M19.5 9.5V19.5C19.5 20.0523 19.0523 20.5 18.5 20.5H15.5M9.5 20.5C10.0523 20.5 10.5 20.0523 10.5 19.5V15.5C10.5 14.9477 10.9477 14.5 11.5 14.5H13.5C14.0523 14.5 14.5 14.9477 14.5 15.5V19.5C14.5 20.0523 14.9477 20.5 15.5 20.5M9.5 20.5H15.5" stroke="#2E4435" stroke-width="2" stroke-linecap="round" stroke-linejoin="round"/>
</svg>
