<svg width="25" height="24" viewBox="0 0 25 24" fill="none" xmlns="http://www.w3.org/2000/svg">
<path fill-rule="evenodd" clip-rule="evenodd" d="M14.8999 1.40308L10.0999 6.20308V21.5972L14.8999 16.7972V1.40308Z" fill="#2E4435"/>
<path fill-rule="evenodd" clip-rule="evenodd" d="M4.94843 3.4516C4.60523 3.10841 4.08909 3.00574 3.64068 3.19148C3.19227 3.37721 2.8999 3.81478 2.8999 4.30013V16.3001C2.8999 16.6184 3.02633 16.9236 3.25137 17.1487L7.6999 21.5972V6.20308L4.94843 3.4516Z" fill="#2E4435"/>
<path fill-rule="evenodd" clip-rule="evenodd" d="M21.7484 5.8516L17.2999 1.40308V16.7972L20.0514 19.5487C20.3946 19.8919 20.9107 19.9945 21.3591 19.8088C21.8075 19.623 22.0999 19.1855 22.0999 18.7001V6.70013C22.0999 6.38187 21.9735 6.07665 21.7484 5.8516Z" fill="#2E4435"/>
</svg>
