<svg width="147" height="201" viewBox="0 0 147 201" fill="none" xmlns="http://www.w3.org/2000/svg">
<path d="M80.6579 55C83.1174 69.6465 86.5606 103.883 80.6579 123.655C73.2796 148.371 66.4689 184.072 76.1174 200" stroke="#0A3019" stroke-linecap="round"/>
<path fill-rule="evenodd" clip-rule="evenodd" d="M17.4948 126.984C17.3524 127.07 17.3173 127.242 17.4164 127.366C23.2771 134.741 30.3206 138.975 36.3542 141.255C40.8016 142.935 44.7082 143.557 47.1957 143.589C47.8474 144.545 48.5326 145.519 49.2526 146.508C54.5885 153.836 61.8333 161.995 71.4738 170.276C71.5976 170.382 71.7965 170.381 71.918 170.272C72.0394 170.164 72.0375 169.99 71.9137 169.883C62.3665 161.682 55.181 153.604 49.8792 146.345C50.8493 144.68 51.9667 142.412 53.0128 139.739C54.1119 136.93 55.1338 133.67 55.8234 130.19C56.054 129.026 56.2474 127.838 56.3942 126.633C57.0543 121.215 56.771 115.459 54.6613 110.16C54.6042 110.016 54.4251 109.94 54.2613 109.99C54.0975 110.04 54.011 110.197 54.0681 110.341C56.1381 115.541 56.4233 121.209 55.7696 126.575C55.6243 127.767 55.4328 128.943 55.2045 130.096C54.5213 133.544 53.5084 136.775 52.4185 139.56C51.4409 142.059 50.4025 144.195 49.4869 145.805C48.8448 144.915 48.2312 144.037 47.6451 143.174C40.7931 133.083 34.4537 117.968 33.7032 113.801C33.6761 113.651 33.5153 113.549 33.344 113.573C33.1726 113.596 33.0556 113.737 33.0827 113.887C33.8384 118.083 40.1386 133.093 46.8171 143.029C44.4105 142.942 40.7579 142.32 36.6031 140.75C30.6668 138.507 23.7198 134.335 17.932 127.052C17.833 126.928 17.6372 126.897 17.4948 126.984Z" fill="#0A3019"/>
<path fill-rule="evenodd" clip-rule="evenodd" d="M20.0491 120.408C19.9768 120.512 20.0143 120.647 20.1327 120.71C21.3868 121.84 21.3796 121.932 23.7475 124.557C25.759 126.788 27.8477 129.388 29.7921 131.958C27.5358 130.252 24.5789 128.083 21.7914 126.176C20.0918 125.014 21.2016 125.752 19.8205 124.946C19.1301 124.544 18.5011 124.204 17.9596 123.95C17.423 123.699 16.954 123.523 16.5884 123.459C16.4522 123.436 16.32 123.513 16.2931 123.632C16.2662 123.752 16.3547 123.867 16.4909 123.891C16.7803 123.941 17.1953 124.091 17.7224 124.338C18.2444 124.583 18.8587 124.914 19.5418 125.313C20.9078 126.11 19.7868 125.363 21.482 126.523C24.8592 128.833 28.4888 131.531 30.8103 133.319C32.9878 136.259 34.9184 139.062 36.2606 141.112C36.3297 141.217 36.4832 141.254 36.6036 141.193C36.724 141.133 36.7656 140.998 36.6966 140.893C35.3461 138.831 33.4034 136.011 31.213 133.054C28.993 130.057 26.5162 126.918 24.142 124.285C21.7747 121.66 21.9309 121.565 20.3945 120.335C20.276 120.271 20.1214 120.304 20.0491 120.408ZM58.4436 107.968C58.3049 107.968 58.1929 108.067 58.1935 108.189C58.2025 109.964 58.8674 117.959 59.2027 121.783C58.0908 123.829 56.8206 125.479 55.8884 126.464C55.7998 126.557 55.8146 126.696 55.9215 126.774C56.0283 126.851 56.1867 126.838 56.2753 126.745C57.2435 125.722 58.5498 124.02 59.6855 121.919C61.3472 118.844 62.6582 114.888 61.9799 110.939C61.9593 110.819 61.8313 110.736 61.6941 110.754C61.5568 110.772 61.4623 110.884 61.4829 111.005C62.0856 114.513 61.0698 118.051 59.6343 120.952C59.2841 116.904 58.7044 109.827 58.696 108.187C58.6954 108.065 58.5824 107.967 58.4436 107.968ZM51.1354 115.506C50.9999 115.479 50.8657 115.554 50.8357 115.673C50.604 116.587 50.6604 117.748 50.892 119.013C51.1244 120.281 51.5367 121.671 52.0329 123.052C53.0254 125.814 54.36 128.556 55.2876 130.239C55.3479 130.348 55.4981 130.394 55.6231 130.341C55.7481 130.288 55.8005 130.157 55.7402 130.047C54.8209 128.38 53.4961 125.658 52.5123 122.92C52.0204 121.552 51.6154 120.183 51.3882 118.943C51.1603 117.699 51.1149 116.602 51.3263 115.768C51.3564 115.65 51.2709 115.532 51.1354 115.506ZM45.8945 121.582C45.7708 121.637 45.7214 121.769 45.7842 121.877C47.8657 125.469 48.5302 129.776 48.5078 133.715C48.4855 137.652 47.7771 141.2 47.1327 143.257C47.096 143.374 47.1748 143.495 47.3086 143.527C47.4424 143.559 47.5807 143.49 47.6174 143.373C48.273 141.28 48.9878 137.694 49.0104 133.717C49.0329 129.742 48.3641 125.356 46.2323 121.678C46.1695 121.57 46.0183 121.527 45.8945 121.582ZM26.4067 139.157C26.3916 139.278 26.4912 139.386 26.6291 139.4C28.8909 139.617 31.5105 140.761 33.8849 142.127C35.9043 143.289 37.7229 144.597 38.9581 145.59C35.746 145.135 32.1305 144.386 28.4399 143.198C28.3097 143.156 28.1653 143.214 28.1174 143.328C28.0695 143.442 28.1362 143.569 28.2665 143.61C32.3032 144.911 36.2485 145.689 39.6815 146.133C44.1151 146.706 47.7029 146.722 49.5397 146.579C49.6779 146.568 49.78 146.461 49.7677 146.34C49.7554 146.219 49.6334 146.13 49.4952 146.141C47.7152 146.279 44.1996 146.267 39.8349 145.708C38.6074 144.669 36.5202 143.116 34.1609 141.759C31.7705 140.384 29.0683 139.191 26.6839 138.962C26.5459 138.949 26.4219 139.036 26.4067 139.157ZM62.6927 124.675C62.5816 124.602 62.4241 124.622 62.341 124.72C62.0299 125.084 61.6724 125.785 61.3008 126.653C60.9252 127.53 60.5242 128.603 60.1315 129.732C59.357 131.959 58.6117 134.411 58.154 136.017C55.9875 137.666 53.8851 138.857 52.5979 139.455C52.4753 139.512 52.4286 139.645 52.4936 139.752C52.5587 139.86 52.7107 139.901 52.8333 139.844C54.1679 139.224 56.3288 137.996 58.544 136.303C60.8434 134.545 63.2138 132.276 64.7758 129.652C64.84 129.545 64.7922 129.412 64.6691 129.356C64.5461 129.299 64.3943 129.341 64.3302 129.449C62.943 131.779 60.8937 133.835 58.8231 135.495C59.2816 133.923 59.9361 131.805 60.6123 129.86C61.0035 128.736 61.401 127.672 61.7713 126.808C62.1456 125.934 62.4814 125.29 62.7434 124.983C62.8265 124.886 62.8039 124.748 62.6927 124.675Z" fill="#0A3019"/>
<ellipse cx="1.52394" cy="1.42637" rx="1.52394" ry="1.42637" transform="matrix(-0.892456 0.451134 0.550503 0.834833 58.9653 106.337)" fill="#FD6565"/>
<ellipse cx="1.52394" cy="1.42637" rx="1.52394" ry="1.42637" transform="matrix(-0.892456 0.451134 0.550503 0.834833 51.8315 113.118)" fill="#FD6565"/>
<ellipse cx="1.52394" cy="1.42637" rx="1.52394" ry="1.42637" transform="matrix(-0.892456 0.451134 0.550503 0.834833 46.644 119.551)" fill="#FD6565"/>
<ellipse cx="1.52394" cy="1.42637" rx="1.52394" ry="1.42637" transform="matrix(-0.892456 0.451134 0.550503 0.834833 27.02 137.092)" fill="#FD6565"/>
<ellipse cx="1.52394" cy="1.42638" rx="1.52394" ry="1.42638" transform="matrix(-0.892456 0.451134 0.550503 0.834833 28.4448 141.453)" fill="#FD6565"/>
<ellipse cx="1.52394" cy="1.42638" rx="1.52394" ry="1.42638" transform="matrix(-0.892456 0.451134 0.550503 0.834833 62.6338 122.9)" fill="#FD6565"/>
<ellipse cx="1.52394" cy="1.42638" rx="1.52394" ry="1.42638" transform="matrix(-0.892456 0.451134 0.550503 0.834833 64.9165 127.462)" fill="#FD6565"/>
<ellipse cx="1.82872" cy="1.71165" rx="1.82872" ry="1.71165" transform="matrix(-0.892456 0.451134 0.550503 0.834833 62.4819 108.37)" fill="#FD6565"/>
<ellipse cx="1.52394" cy="1.42637" rx="1.52394" ry="1.42637" transform="matrix(-0.892456 0.451134 0.550503 0.834833 21.8652 119.375)" fill="#FD6565"/>
<ellipse cx="1.52394" cy="1.42637" rx="1.52394" ry="1.42637" transform="matrix(-0.892456 0.451134 0.550503 0.834833 17.2832 122.326)" fill="#FD6565"/>
<path fill-rule="evenodd" clip-rule="evenodd" d="M128.061 140.236C128.197 140.33 128.222 140.502 128.115 140.622C121.794 147.7 114.493 151.584 108.324 153.566C103.776 155.027 99.8361 155.458 97.3505 155.368C96.639 156.292 95.893 157.23 95.1113 158.183C89.3179 165.239 81.5658 173.033 71.4139 180.831C71.2835 180.931 71.085 180.92 70.9706 180.806C70.8562 180.692 70.8692 180.518 70.9996 180.418C81.0532 172.695 88.741 164.979 94.4959 157.99C93.6331 156.28 92.6617 153.961 91.7872 151.241C90.8683 148.383 90.0551 145.078 89.5878 141.57C89.4315 140.397 89.3139 139.201 89.2439 137.991C88.9292 132.549 89.5778 126.816 92.0212 121.627C92.0873 121.487 92.2709 121.42 92.4313 121.478C92.5917 121.536 92.6681 121.697 92.602 121.837C90.2046 126.928 89.5596 132.574 89.8713 137.963C89.9405 139.16 90.0569 140.344 90.2117 141.506C90.6747 144.982 91.4807 148.258 92.3918 151.092C93.2092 153.634 94.1101 155.818 94.922 157.469C95.6197 156.612 96.2881 155.766 96.9282 154.933C104.411 145.19 111.701 130.408 112.715 126.284C112.752 126.136 112.919 126.042 113.089 126.074C113.258 126.106 113.366 126.252 113.329 126.4C112.308 130.552 105.064 145.232 97.7641 154.828C100.172 154.859 103.859 154.415 108.107 153.05C114.177 151.1 121.378 147.273 127.62 140.283C127.727 140.164 127.924 140.143 128.061 140.236Z" fill="#0A3019"/>
<path fill-rule="evenodd" clip-rule="evenodd" d="M125.928 133.546C125.994 133.653 125.948 133.787 125.826 133.844C124.502 134.91 124.503 135.003 121.972 137.509C119.822 139.638 117.571 142.133 115.466 144.604C117.828 143.01 120.918 140.988 123.822 139.22C125.593 138.143 124.438 138.826 125.868 138.089C126.583 137.72 127.233 137.412 127.79 137.185C128.341 136.96 128.821 136.807 129.19 136.761C129.327 136.744 129.454 136.828 129.474 136.949C129.493 137.069 129.397 137.18 129.26 137.197C128.968 137.233 128.544 137.363 128.002 137.584C127.465 137.803 126.831 138.103 126.123 138.468C124.709 139.197 125.875 138.507 124.109 139.582C120.59 141.724 116.795 144.241 114.363 145.913C112.002 148.743 109.896 151.447 108.426 153.428C108.35 153.53 108.195 153.559 108.078 153.493C107.962 153.426 107.929 153.29 108.005 153.188C109.484 151.195 111.603 148.474 113.978 145.629C116.385 142.745 119.058 139.731 121.595 137.218C124.126 134.712 123.976 134.609 125.588 133.456C125.71 133.399 125.863 133.439 125.928 133.546ZM88.384 119.254C88.5225 119.262 88.628 119.366 88.6197 119.487C88.4979 121.259 87.3259 129.209 86.748 133.012C87.7282 135.108 88.8915 136.818 89.7597 137.847C89.8422 137.944 89.8186 138.082 89.707 138.154C89.5954 138.226 89.438 138.206 89.3556 138.108C88.4538 137.04 87.2578 135.277 86.2574 133.123C84.7936 129.973 83.7361 125.959 84.6644 122.049C84.6926 121.93 84.8256 121.854 84.9615 121.878C85.0974 121.903 85.1846 122.02 85.1564 122.139C84.3317 125.612 85.121 129.194 86.3699 132.16C86.9769 128.136 88.0055 121.098 88.1181 119.461C88.1264 119.34 88.2455 119.247 88.384 119.254ZM95.2018 127.137C95.3387 127.117 95.468 127.198 95.4904 127.318C95.6637 128.242 95.5336 129.399 95.2219 130.65C94.9093 131.905 94.4093 133.274 93.826 134.628C92.6596 137.337 91.1527 140.01 90.1197 141.645C90.0525 141.751 89.8996 141.789 89.7782 141.731C89.6567 141.672 89.6127 141.538 89.6799 141.432C90.7038 139.811 92.1995 137.158 93.3558 134.473C93.9339 133.13 94.4253 131.784 94.7309 130.557C95.0376 129.325 95.1526 128.233 94.9945 127.39C94.9721 127.27 95.0649 127.157 95.2018 127.137ZM100.048 133.459C100.168 133.52 100.209 133.654 100.14 133.759C97.8332 137.244 96.896 141.512 96.668 145.446C96.4401 149.378 96.9219 152.955 97.4345 155.04C97.4637 155.159 97.3774 155.276 97.2417 155.301C97.1061 155.327 96.9724 155.251 96.9432 155.132C96.4216 153.011 95.9359 149.395 96.1661 145.424C96.3962 141.454 97.3427 137.107 99.705 133.539C99.7746 133.434 99.9283 133.398 100.048 133.459ZM118.389 151.956C118.396 152.078 118.29 152.181 118.151 152.188C115.879 152.294 113.191 153.309 110.734 154.557C108.643 155.619 106.745 156.836 105.448 157.767C108.684 157.47 112.342 156.898 116.102 155.892C116.235 155.856 116.375 155.921 116.416 156.038C116.456 156.154 116.382 156.277 116.249 156.312C112.136 157.414 108.147 157.999 104.691 158.275C100.228 158.631 96.6449 158.472 94.8201 158.24C94.6828 158.222 94.5876 158.111 94.6076 157.99C94.6276 157.87 94.7551 157.787 94.8924 157.804C96.6608 158.029 100.172 158.188 104.565 157.843C105.857 156.866 108.039 155.417 110.481 154.177C112.955 152.92 115.729 151.861 118.125 151.748C118.263 151.742 118.382 151.835 118.389 151.956ZM83.0796 135.729C83.1952 135.662 83.3511 135.689 83.4279 135.791C83.7154 136.169 84.0277 136.887 84.3437 137.772C84.663 138.666 84.9951 139.757 85.3154 140.903C85.9472 143.164 86.5355 145.649 86.8904 147.275C88.9488 149.026 90.9722 150.318 92.2195 150.978C92.3382 151.041 92.3764 151.176 92.3046 151.28C92.2329 151.384 92.0784 151.417 91.9596 151.354C90.6665 150.671 88.587 149.34 86.4829 147.541C84.2987 145.674 82.0763 143.293 80.6834 140.597C80.6262 140.486 80.6823 140.356 80.8088 140.306C80.9352 140.256 81.0841 140.305 81.1413 140.416C82.3782 142.81 84.2937 144.962 86.2556 146.72C85.8977 145.129 85.3789 142.982 84.8273 141.008C84.5082 139.866 84.1788 138.784 83.8641 137.903C83.5459 137.012 83.2516 136.353 83.0094 136.034C82.9326 135.933 82.964 135.796 83.0796 135.729Z" fill="#0A3019"/>
<ellipse cx="1.51453" cy="1.43636" rx="1.51453" ry="1.43636" transform="matrix(0.867758 0.496986 -0.598519 0.801109 87.9673 117.601)" fill="#FD6565"/>
<ellipse cx="1.51453" cy="1.43636" rx="1.51453" ry="1.43636" transform="matrix(0.867758 0.496986 -0.598519 0.801109 94.6587 124.719)" fill="#FD6565"/>
<ellipse cx="1.51453" cy="1.43636" rx="1.51453" ry="1.43636" transform="matrix(0.867758 0.496986 -0.598519 0.801109 99.4297 131.395)" fill="#FD6565"/>
<ellipse cx="1.51453" cy="1.43636" rx="1.51453" ry="1.43636" transform="matrix(0.867758 0.496986 -0.598519 0.801109 117.908 149.865)" fill="#FD6565"/>
<ellipse cx="1.51453" cy="1.43636" rx="1.51453" ry="1.43636" transform="matrix(0.867758 0.496986 -0.598519 0.801109 116.208 154.149)" fill="#FD6565"/>
<ellipse cx="1.51453" cy="1.43636" rx="1.51453" ry="1.43636" transform="matrix(0.867758 0.496986 -0.598519 0.801109 83.2515 133.959)" fill="#FD6565"/>
<ellipse cx="1.51453" cy="1.43636" rx="1.51453" ry="1.43636" transform="matrix(0.867758 0.496986 -0.598519 0.801109 80.6826 138.403)" fill="#FD6565"/>
<ellipse cx="1.81743" cy="1.72363" rx="1.81743" ry="1.72363" transform="matrix(0.867758 0.496986 -0.598519 0.801109 84.3267 119.459)" fill="#FD6565"/>
<ellipse cx="1.51453" cy="1.43636" rx="1.51453" ry="1.43636" transform="matrix(0.867758 0.496986 -0.598519 0.801109 124.181 132.426)" fill="#FD6565"/>
<ellipse cx="1.51453" cy="1.43636" rx="1.51453" ry="1.43636" transform="matrix(0.867758 0.496986 -0.598519 0.801109 128.568 135.596)" fill="#FD6565"/>
<path d="M34.627 61.9101C31.9418 98.893 67.0732 96.9914 84.9745 91.4178C102.876 99.2865 115.191 94.3458 121.211 88.467C133.084 76.8715 128.242 66.5665 125.253 56.9922C135.322 45.1891 132.93 33.3145 130.846 26.5009C126.688 12.9015 109.83 11.2017 98.4005 12.7307C88.9565 6.36548 88.3308 3.49255 74.9048 3.49255C60.3599 3.49253 56.942 10.1551 54.766 15.6814C36.8556 18.0775 29.4394 22.5665 26.1475 32.4024C20.2221 50.107 28.7271 54.5005 34.627 61.9101Z" fill="#CDCDCD"/>
<path d="M46.8613 59.8894C44.4811 93.1023 75.6217 91.3946 91.4895 86.3891C107.357 93.4556 118.274 89.0187 123.609 83.7391C134.134 73.3257 129.842 64.0711 127.192 55.4728C136.117 44.8729 133.997 34.2089 132.15 28.0898C128.465 15.8768 111.469 9.98824 101.338 11.3614C93.5069 7.42714 84.5566 7.42703 82.5639 7.427H82.5636C69.6711 7.42698 66.6414 13.4103 64.7126 18.3733C48.8367 20.5251 42.263 24.5566 39.345 33.3898C34.0928 49.2896 41.6316 53.2351 46.8613 59.8894Z" fill="white"/>
<path fill-rule="evenodd" clip-rule="evenodd" d="M45.6312 80.4846L117.402 15.6193L119.006 16.9909L47.2352 81.8563L45.6312 80.4846Z" fill="#9B9B9B"/>
<path fill-rule="evenodd" clip-rule="evenodd" d="M37.5349 71.0554L125.957 24.7304L127.102 26.4203L38.6804 72.7452L37.5349 71.0554Z" fill="#9B9B9B"/>
<path fill-rule="evenodd" clip-rule="evenodd" d="M32.4899 60.1051L131.537 35.4775L132.146 37.3704L33.0989 61.998L32.4899 60.1051Z" fill="#9B9B9B"/>
<path fill-rule="evenodd" clip-rule="evenodd" d="M30.8413 48.3801L130.856 47.1636L130.887 49.1306L30.8723 50.3471L30.8413 48.3801Z" fill="#9B9B9B"/>
<path fill-rule="evenodd" clip-rule="evenodd" d="M32.7007 36.6795L126.13 57.4741L125.581 59.3812L32.1515 38.5865L32.7007 36.6795Z" fill="#9B9B9B"/>
<path fill-rule="evenodd" clip-rule="evenodd" d="M37.9413 25.8007L127.787 69.9573L126.695 71.6744L36.8494 27.5178L37.9413 25.8007Z" fill="#9B9B9B"/>
<path fill-rule="evenodd" clip-rule="evenodd" d="M46.2059 16.4849L119.99 79.5798L118.43 80.9899L44.6457 17.895L46.2059 16.4849Z" fill="#9B9B9B"/>
<path fill-rule="evenodd" clip-rule="evenodd" d="M56.9315 9.36708L109.626 87.1004L107.704 88.1075L55.0093 10.3741L56.9315 9.36708Z" fill="#9B9B9B"/>
<path fill-rule="evenodd" clip-rule="evenodd" d="M69.3877 4.93247L97.4017 92.0069L95.2485 92.5423L67.2345 5.46785L69.3877 4.93247Z" fill="#9B9B9B"/>
<path fill-rule="evenodd" clip-rule="evenodd" d="M82.7257 3.48321L84.1078 91.2987L81.8704 91.326L80.4883 3.51042L82.7257 3.48321Z" fill="#9B9B9B"/>
<path fill-rule="evenodd" clip-rule="evenodd" d="M96.0354 5.11795L70.7725 92.8404L68.6032 92.3576L93.8661 4.63515L96.0354 5.11795Z" fill="#9B9B9B"/>
<path fill-rule="evenodd" clip-rule="evenodd" d="M108.41 9.7253L58.1823 88.7105L56.2291 87.7506L106.457 8.76538L108.41 9.7253Z" fill="#9B9B9B"/>
<path fill-rule="evenodd" clip-rule="evenodd" d="M119.006 16.9909L47.2352 81.8563L45.6312 80.4846L117.402 15.6193L119.006 16.9909Z" fill="#9B9B9B"/>
<path fill-rule="evenodd" clip-rule="evenodd" d="M127.102 26.4203L38.6804 72.7452L37.5349 71.0554L125.957 24.7304L127.102 26.4203Z" fill="#9B9B9B"/>
<path fill-rule="evenodd" clip-rule="evenodd" d="M132.146 37.3704L33.0989 61.998L32.4899 60.1051L131.537 35.4775L132.146 37.3704Z" fill="#9B9B9B"/>
<path fill-rule="evenodd" clip-rule="evenodd" d="M128.103 49.1645L30.8735 50.3472L30.8425 48.3802L128.072 47.1975L128.103 49.1645Z" fill="#9B9B9B"/>
<path fill-rule="evenodd" clip-rule="evenodd" d="M123.788 59.0658L23.9033 36.8342L24.4978 34.77L124.383 57.0015L123.788 59.0658Z" fill="#9B9B9B"/>
<path fill-rule="evenodd" clip-rule="evenodd" d="M126.696 71.6746L36.8504 27.518L37.9423 25.801L127.788 69.9576L126.696 71.6746Z" fill="#9B9B9B"/>
<path fill-rule="evenodd" clip-rule="evenodd" d="M118.43 80.9899L44.6457 17.895L46.2059 16.4849L119.99 79.5798L118.43 80.9899Z" fill="#9B9B9B"/>
<path fill-rule="evenodd" clip-rule="evenodd" d="M107.705 88.108L55.0103 10.3746L56.9325 9.36755L109.627 87.1009L107.705 88.108Z" fill="#9B9B9B"/>
<path fill-rule="evenodd" clip-rule="evenodd" d="M95.2485 92.5423L67.2345 5.46785L69.3877 4.93247L97.4017 92.0069L95.2485 92.5423Z" fill="#9B9B9B"/>
<path fill-rule="evenodd" clip-rule="evenodd" d="M81.8488 90.058L80.4867 3.51037L82.7242 3.48315L84.0863 90.0307L81.8488 90.058Z" fill="#9B9B9B"/>
<path fill-rule="evenodd" clip-rule="evenodd" d="M68.6022 92.3575L93.8651 4.63506L96.0343 5.11787L70.7714 92.8403L68.6022 92.3575Z" fill="#9B9B9B"/>
<path fill-rule="evenodd" clip-rule="evenodd" d="M56.2281 87.7504L106.456 8.76516L108.409 9.72508L58.1813 88.7103L56.2281 87.7504Z" fill="#9B9B9B"/>
<path d="M105.814 49.7213C105.814 62.2154 94.2926 72.3438 80.0805 72.3438C65.8685 72.3438 53.2285 62.2154 53.2285 49.7213C53.2285 37.2272 65.8685 27.0988 80.0805 27.0988C94.2926 27.0988 105.814 37.2272 105.814 49.7213Z" fill="#9B9B9B"/>
<g style="mix-blend-mode:multiply">
<path d="M34.627 61.9101C31.9418 98.893 67.0732 96.9914 84.9745 91.4178C102.876 99.2865 115.191 94.3458 121.211 88.467C133.084 76.8715 128.242 66.5665 125.253 56.9922C135.322 45.1891 132.93 33.3145 130.846 26.5009C126.688 12.9015 109.83 11.2017 98.4005 12.7307C88.9565 6.36548 88.3308 3.49255 74.9048 3.49255C60.3599 3.49253 56.942 10.1551 54.766 15.6814C36.8556 18.0775 29.4394 22.5665 26.1475 32.4024C20.2221 50.107 28.7271 54.5005 34.627 61.9101Z" fill="#FD6565"/>
<path d="M46.8613 59.8894C44.4811 93.1023 75.6217 91.3946 91.4895 86.3891C107.357 93.4556 118.274 89.0187 123.609 83.7391C134.134 73.3257 129.842 64.0711 127.192 55.4728C136.117 44.8729 133.997 34.2089 132.15 28.0898C128.465 15.8768 111.469 9.98824 101.338 11.3614C93.5069 7.42714 84.5566 7.42703 82.5639 7.427H82.5636C69.6711 7.42698 66.6414 13.4103 64.7126 18.3733C48.8367 20.5251 42.263 24.5566 39.345 33.3898C34.0928 49.2896 41.6316 53.2351 46.8613 59.8894Z" fill="#FD6565"/>
<path fill-rule="evenodd" clip-rule="evenodd" d="M45.6312 80.4846L117.402 15.6193L119.006 16.9909L47.2352 81.8563L45.6312 80.4846Z" fill="#FD6565"/>
<path fill-rule="evenodd" clip-rule="evenodd" d="M37.5349 71.0554L125.957 24.7304L127.102 26.4203L38.6804 72.7452L37.5349 71.0554Z" fill="#FD6565"/>
<path fill-rule="evenodd" clip-rule="evenodd" d="M32.4899 60.1051L131.537 35.4775L132.146 37.3704L33.0989 61.998L32.4899 60.1051Z" fill="#FD6565"/>
<path fill-rule="evenodd" clip-rule="evenodd" d="M30.8413 48.3801L130.856 47.1636L130.887 49.1306L30.8723 50.3471L30.8413 48.3801Z" fill="#FD6565"/>
<path fill-rule="evenodd" clip-rule="evenodd" d="M32.7007 36.6795L126.13 57.4741L125.581 59.3812L32.1515 38.5865L32.7007 36.6795Z" fill="#FD6565"/>
<path fill-rule="evenodd" clip-rule="evenodd" d="M37.9413 25.8007L127.787 69.9573L126.695 71.6744L36.8494 27.5178L37.9413 25.8007Z" fill="#FD6565"/>
<path fill-rule="evenodd" clip-rule="evenodd" d="M46.2059 16.4849L119.99 79.5798L118.43 80.9899L44.6457 17.895L46.2059 16.4849Z" fill="#FD6565"/>
<path fill-rule="evenodd" clip-rule="evenodd" d="M56.9315 9.36708L109.626 87.1004L107.704 88.1075L55.0093 10.3741L56.9315 9.36708Z" fill="#FD6565"/>
<path fill-rule="evenodd" clip-rule="evenodd" d="M69.3877 4.93247L97.4017 92.0069L95.2485 92.5423L67.2345 5.46785L69.3877 4.93247Z" fill="#FD6565"/>
<path fill-rule="evenodd" clip-rule="evenodd" d="M82.7257 3.48321L84.1078 91.2987L81.8704 91.326L80.4883 3.51042L82.7257 3.48321Z" fill="#FD6565"/>
<path fill-rule="evenodd" clip-rule="evenodd" d="M96.0354 5.11795L70.7725 92.8404L68.6032 92.3576L93.8661 4.63515L96.0354 5.11795Z" fill="#FD6565"/>
<path fill-rule="evenodd" clip-rule="evenodd" d="M108.41 9.7253L58.1823 88.7105L56.2291 87.7506L106.457 8.76538L108.41 9.7253Z" fill="#FD6565"/>
<path fill-rule="evenodd" clip-rule="evenodd" d="M119.006 16.9909L47.2352 81.8563L45.6312 80.4846L117.402 15.6193L119.006 16.9909Z" fill="#FD6565"/>
<path fill-rule="evenodd" clip-rule="evenodd" d="M127.102 26.4203L38.6804 72.7452L37.5349 71.0554L125.957 24.7304L127.102 26.4203Z" fill="#FD6565"/>
<path fill-rule="evenodd" clip-rule="evenodd" d="M132.146 37.3704L33.0989 61.998L32.4899 60.1051L131.537 35.4775L132.146 37.3704Z" fill="#FD6565"/>
<path fill-rule="evenodd" clip-rule="evenodd" d="M128.103 49.1645L30.8735 50.3472L30.8425 48.3802L128.072 47.1975L128.103 49.1645Z" fill="#FD6565"/>
<path fill-rule="evenodd" clip-rule="evenodd" d="M123.788 59.0658L23.9033 36.8342L24.4978 34.77L124.383 57.0015L123.788 59.0658Z" fill="#FD6565"/>
<path fill-rule="evenodd" clip-rule="evenodd" d="M126.696 71.6746L36.8504 27.518L37.9423 25.801L127.788 69.9576L126.696 71.6746Z" fill="#FD6565"/>
<path fill-rule="evenodd" clip-rule="evenodd" d="M118.43 80.9899L44.6457 17.895L46.2059 16.4849L119.99 79.5798L118.43 80.9899Z" fill="#FD6565"/>
<path fill-rule="evenodd" clip-rule="evenodd" d="M107.705 88.108L55.0103 10.3746L56.9325 9.36755L109.627 87.1009L107.705 88.108Z" fill="#FD6565"/>
<path fill-rule="evenodd" clip-rule="evenodd" d="M95.2485 92.5423L67.2345 5.46785L69.3877 4.93247L97.4017 92.0069L95.2485 92.5423Z" fill="#FD6565"/>
<path fill-rule="evenodd" clip-rule="evenodd" d="M81.8488 90.058L80.4867 3.51037L82.7242 3.48315L84.0863 90.0307L81.8488 90.058Z" fill="#FD6565"/>
<path fill-rule="evenodd" clip-rule="evenodd" d="M68.6022 92.3575L93.8651 4.63506L96.0343 5.11787L70.7714 92.8403L68.6022 92.3575Z" fill="#FD6565"/>
<path fill-rule="evenodd" clip-rule="evenodd" d="M56.2281 87.7504L106.456 8.76516L108.409 9.72508L58.1813 88.7103L56.2281 87.7504Z" fill="#FD6565"/>
<path d="M105.814 49.7213C105.814 62.2154 94.2926 72.3438 80.0805 72.3438C65.8685 72.3438 53.2285 62.2154 53.2285 49.7213C53.2285 37.2272 65.8685 27.0988 80.0805 27.0988C94.2926 27.0988 105.814 37.2272 105.814 49.7213Z" fill="#FD6565"/>
</g>
<g style="mix-blend-mode:soft-light">
<path d="M34.627 61.9101C31.9418 98.893 67.0732 96.9914 84.9745 91.4178C102.876 99.2865 115.191 94.3458 121.211 88.467C133.084 76.8715 128.242 66.5665 125.253 56.9922C135.322 45.1891 132.93 33.3145 130.846 26.5009C126.688 12.9015 109.83 11.2017 98.4005 12.7307C88.9565 6.36548 88.3308 3.49255 74.9048 3.49255C60.3599 3.49253 56.942 10.1551 54.766 15.6814C36.8556 18.0775 29.4394 22.5665 26.1475 32.4024C20.2221 50.107 28.7271 54.5005 34.627 61.9101Z" fill="#FD6565"/>
<path d="M46.8613 59.8894C44.4811 93.1023 75.6217 91.3946 91.4895 86.3891C107.357 93.4556 118.274 89.0187 123.609 83.7391C134.134 73.3257 129.842 64.0711 127.192 55.4728C136.117 44.8729 133.997 34.2089 132.15 28.0898C128.465 15.8768 111.469 9.98824 101.338 11.3614C93.5069 7.42714 84.5566 7.42703 82.5639 7.427H82.5636C69.6711 7.42698 66.6414 13.4103 64.7126 18.3733C48.8367 20.5251 42.263 24.5566 39.345 33.3898C34.0928 49.2896 41.6316 53.2351 46.8613 59.8894Z" fill="#FD6565"/>
<path fill-rule="evenodd" clip-rule="evenodd" d="M45.6312 80.4846L117.402 15.6193L119.006 16.9909L47.2352 81.8563L45.6312 80.4846Z" fill="#FD6565"/>
<path fill-rule="evenodd" clip-rule="evenodd" d="M37.5349 71.0554L125.957 24.7304L127.102 26.4203L38.6804 72.7452L37.5349 71.0554Z" fill="#FD6565"/>
<path fill-rule="evenodd" clip-rule="evenodd" d="M32.4899 60.1051L131.537 35.4775L132.146 37.3704L33.0989 61.998L32.4899 60.1051Z" fill="#FD6565"/>
<path fill-rule="evenodd" clip-rule="evenodd" d="M30.8413 48.3801L130.856 47.1636L130.887 49.1306L30.8723 50.3471L30.8413 48.3801Z" fill="#FD6565"/>
<path fill-rule="evenodd" clip-rule="evenodd" d="M32.7007 36.6795L126.13 57.4741L125.581 59.3812L32.1515 38.5865L32.7007 36.6795Z" fill="#FD6565"/>
<path fill-rule="evenodd" clip-rule="evenodd" d="M37.9413 25.8007L127.787 69.9573L126.695 71.6744L36.8494 27.5178L37.9413 25.8007Z" fill="#FD6565"/>
<path fill-rule="evenodd" clip-rule="evenodd" d="M46.2059 16.4849L119.99 79.5798L118.43 80.9899L44.6457 17.895L46.2059 16.4849Z" fill="#FD6565"/>
<path fill-rule="evenodd" clip-rule="evenodd" d="M56.9315 9.36708L109.626 87.1004L107.704 88.1075L55.0093 10.3741L56.9315 9.36708Z" fill="#FD6565"/>
<path fill-rule="evenodd" clip-rule="evenodd" d="M69.3877 4.93247L97.4017 92.0069L95.2485 92.5423L67.2345 5.46785L69.3877 4.93247Z" fill="#FD6565"/>
<path fill-rule="evenodd" clip-rule="evenodd" d="M82.7257 3.48321L84.1078 91.2987L81.8704 91.326L80.4883 3.51042L82.7257 3.48321Z" fill="#FD6565"/>
<path fill-rule="evenodd" clip-rule="evenodd" d="M96.0354 5.11795L70.7725 92.8404L68.6032 92.3576L93.8661 4.63515L96.0354 5.11795Z" fill="#FD6565"/>
<path fill-rule="evenodd" clip-rule="evenodd" d="M108.41 9.7253L58.1823 88.7105L56.2291 87.7506L106.457 8.76538L108.41 9.7253Z" fill="#FD6565"/>
<path fill-rule="evenodd" clip-rule="evenodd" d="M119.006 16.9909L47.2352 81.8563L45.6312 80.4846L117.402 15.6193L119.006 16.9909Z" fill="#FD6565"/>
<path fill-rule="evenodd" clip-rule="evenodd" d="M127.102 26.4203L38.6804 72.7452L37.5349 71.0554L125.957 24.7304L127.102 26.4203Z" fill="#FD6565"/>
<path fill-rule="evenodd" clip-rule="evenodd" d="M132.146 37.3704L33.0989 61.998L32.4899 60.1051L131.537 35.4775L132.146 37.3704Z" fill="#FD6565"/>
<path fill-rule="evenodd" clip-rule="evenodd" d="M128.103 49.1645L30.8735 50.3472L30.8425 48.3802L128.072 47.1975L128.103 49.1645Z" fill="#FD6565"/>
<path fill-rule="evenodd" clip-rule="evenodd" d="M123.788 59.0658L23.9033 36.8342L24.4978 34.77L124.383 57.0015L123.788 59.0658Z" fill="#FD6565"/>
<path fill-rule="evenodd" clip-rule="evenodd" d="M126.696 71.6746L36.8504 27.518L37.9423 25.801L127.788 69.9576L126.696 71.6746Z" fill="#FD6565"/>
<path fill-rule="evenodd" clip-rule="evenodd" d="M118.43 80.9899L44.6457 17.895L46.2059 16.4849L119.99 79.5798L118.43 80.9899Z" fill="#FD6565"/>
<path fill-rule="evenodd" clip-rule="evenodd" d="M107.705 88.108L55.0103 10.3746L56.9325 9.36755L109.627 87.1009L107.705 88.108Z" fill="#FD6565"/>
<path fill-rule="evenodd" clip-rule="evenodd" d="M95.2485 92.5423L67.2345 5.46785L69.3877 4.93247L97.4017 92.0069L95.2485 92.5423Z" fill="#FD6565"/>
<path fill-rule="evenodd" clip-rule="evenodd" d="M81.8488 90.058L80.4867 3.51037L82.7242 3.48315L84.0863 90.0307L81.8488 90.058Z" fill="#FD6565"/>
<path fill-rule="evenodd" clip-rule="evenodd" d="M68.6022 92.3575L93.8651 4.63506L96.0343 5.11787L70.7714 92.8403L68.6022 92.3575Z" fill="#FD6565"/>
<path fill-rule="evenodd" clip-rule="evenodd" d="M56.2281 87.7504L106.456 8.76516L108.409 9.72508L58.1813 88.7103L56.2281 87.7504Z" fill="#FD6565"/>
<path d="M105.814 49.7213C105.814 62.2154 94.2926 72.3438 80.0805 72.3438C65.8685 72.3438 53.2285 62.2154 53.2285 49.7213C53.2285 37.2272 65.8685 27.0988 80.0805 27.0988C94.2926 27.0988 105.814 37.2272 105.814 49.7213Z" fill="#FD6565"/>
</g>
<path d="M37.5914 124.118C41.9935 111.116 37.8227 101.743 35.187 98.6824C25.1409 84.3603 14.3566 92.5306 12.9539 97.2758C8.2795 113.089 27.5893 121.968 37.5914 124.118Z" fill="#CDCDCD"/>
<path d="M37.8744 123.208C40.5015 111.439 37.8552 103.83 35.6983 100.907C27.334 87.3287 18.256 94.2134 17.8075 97.5192C15.1259 111.861 30.1988 120.819 37.8744 123.208Z" fill="white"/>
<path d="M23.2082 118.149C24.3288 121.81 33.5149 124.07 37.9679 124.742C39.295 120.752 41.559 112.421 39.998 111.021C38.437 109.621 38.3748 113.119 37.5982 114.282C37.8698 113.319 36.5477 110.849 35.9493 110.744C34.7525 110.535 34.5235 114.104 34.7782 116.17C34.1946 114.263 32.6326 110.639 31.0539 111.402C29.4752 112.165 30.9523 116.005 31.8881 117.829C30.7815 116.372 28.2931 113.669 27.1931 114.516C26.0931 115.362 27.9848 118.336 29.0681 119.717C24.2986 116.715 23.1742 117.421 23.2082 118.149Z" fill="#9B9B9B"/>
<g style="mix-blend-mode:multiply">
<path d="M37.5914 124.118C41.9935 111.116 37.8227 101.743 35.187 98.6824C25.1409 84.3603 14.3566 92.5306 12.9539 97.2758C8.2795 113.089 27.5893 121.968 37.5914 124.118Z" fill="#FD6565"/>
<path d="M37.8744 123.208C40.5015 111.439 37.8552 103.83 35.6983 100.907C27.334 87.3287 18.256 94.2134 17.8075 97.5192C15.1259 111.861 30.1988 120.819 37.8744 123.208Z" fill="#FD6565"/>
<path d="M23.2082 118.149C24.3288 121.81 33.5149 124.07 37.9679 124.742C39.295 120.752 41.559 112.421 39.998 111.021C38.437 109.621 38.3748 113.119 37.5982 114.282C37.8698 113.319 36.5477 110.849 35.9493 110.744C34.7525 110.535 34.5235 114.104 34.7782 116.17C34.1946 114.263 32.6326 110.639 31.0539 111.402C29.4752 112.165 30.9523 116.005 31.8881 117.829C30.7815 116.372 28.2931 113.669 27.1931 114.516C26.0931 115.362 27.9848 118.336 29.0681 119.717C24.2986 116.715 23.1742 117.421 23.2082 118.149Z" fill="#FD6565"/>
</g>
<g style="mix-blend-mode:soft-light">
<path d="M37.5914 124.118C41.9935 111.116 37.8227 101.743 35.187 98.6824C25.1409 84.3603 14.3566 92.5306 12.9539 97.2758C8.2795 113.089 27.5893 121.968 37.5914 124.118Z" fill="#FD6565"/>
<path d="M37.8744 123.208C40.5015 111.439 37.8552 103.83 35.6983 100.907C27.334 87.3287 18.256 94.2134 17.8075 97.5192C15.1259 111.861 30.1988 120.819 37.8744 123.208Z" fill="#FD6565"/>
<path d="M23.2082 118.149C24.3288 121.81 33.5149 124.07 37.9679 124.742C39.295 120.752 41.559 112.421 39.998 111.021C38.437 109.621 38.3748 113.119 37.5982 114.282C37.8698 113.319 36.5477 110.849 35.9493 110.744C34.7525 110.535 34.5235 114.104 34.7782 116.17C34.1946 114.263 32.6326 110.639 31.0539 111.402C29.4752 112.165 30.9523 116.005 31.8881 117.829C30.7815 116.372 28.2931 113.669 27.1931 114.516C26.0931 115.362 27.9848 118.336 29.0681 119.717C24.2986 116.715 23.1742 117.421 23.2082 118.149Z" fill="#FD6565"/>
</g>
<path d="M109.653 134.958C103.643 125.194 105.19 117.08 106.715 114.243C112.019 101.305 122.215 106.265 124.245 109.859C131.01 121.833 117.249 131.771 109.653 134.958Z" fill="#CDCDCD"/>
<path d="M109.252 134.271C104.899 125.234 105.563 118.755 106.731 116.099C110.831 104.003 119.415 108.184 120.406 110.765C125.294 121.853 114.94 131.233 109.252 134.271Z" fill="white"/>
<path d="M120.026 128.071C119.829 131.167 112.907 134.322 109.471 135.513C107.646 132.513 104.241 126.175 105.223 124.826C106.205 123.477 106.923 126.267 107.767 127.085C107.366 126.354 107.952 124.183 108.411 124.011C109.329 123.668 110.195 126.492 110.386 128.183C110.488 126.571 111.046 123.441 112.456 123.82C113.865 124.2 113.417 127.49 113.017 129.088C113.624 127.759 115.099 125.23 116.142 125.747C117.184 126.263 116.238 128.921 115.635 130.186C118.879 127.084 119.914 127.483 120.026 128.071Z" fill="#9B9B9B"/>
<g style="mix-blend-mode:multiply">
<path d="M109.653 134.958C103.643 125.194 105.19 117.08 106.715 114.243C112.019 101.305 122.215 106.265 124.245 109.859C131.01 121.833 117.249 131.771 109.653 134.958Z" fill="#FD6565"/>
<path d="M109.252 134.271C104.899 125.234 105.563 118.755 106.731 116.099C110.831 104.003 119.415 108.184 120.406 110.765C125.294 121.853 114.94 131.233 109.252 134.271Z" fill="#FD6565"/>
<path d="M120.026 128.071C119.829 131.167 112.907 134.322 109.471 135.513C107.646 132.513 104.241 126.175 105.223 124.826C106.205 123.477 106.923 126.267 107.767 127.085C107.366 126.354 107.952 124.183 108.411 124.011C109.329 123.668 110.195 126.492 110.386 128.183C110.488 126.571 111.046 123.441 112.456 123.82C113.865 124.2 113.417 127.49 113.017 129.088C113.624 127.759 115.099 125.23 116.142 125.747C117.184 126.263 116.238 128.921 115.635 130.186C118.879 127.084 119.914 127.483 120.026 128.071Z" fill="#FD6565"/>
</g>
<g style="mix-blend-mode:soft-light">
<path d="M109.653 134.958C103.643 125.194 105.19 117.08 106.715 114.243C112.019 101.305 122.215 106.265 124.245 109.859C131.01 121.833 117.249 131.771 109.653 134.958Z" fill="#FD6565"/>
<path d="M109.252 134.271C104.899 125.234 105.563 118.755 106.731 116.099C110.831 104.003 119.415 108.184 120.406 110.765C125.294 121.853 114.94 131.233 109.252 134.271Z" fill="#FD6565"/>
<path d="M120.026 128.071C119.829 131.167 112.907 134.322 109.471 135.513C107.646 132.513 104.241 126.175 105.223 124.826C106.205 123.477 106.923 126.267 107.767 127.085C107.366 126.354 107.952 124.183 108.411 124.011C109.329 123.668 110.195 126.492 110.386 128.183C110.488 126.571 111.046 123.441 112.456 123.82C113.865 124.2 113.417 127.49 113.017 129.088C113.624 127.759 115.099 125.23 116.142 125.747C117.184 126.263 116.238 128.921 115.635 130.186C118.879 127.084 119.914 127.483 120.026 128.071Z" fill="#FD6565"/>
</g>
</svg>
