<svg width="146" height="200" viewBox="0 0 146 200" fill="none" xmlns="http://www.w3.org/2000/svg">
<path fill-rule="evenodd" clip-rule="evenodd" d="M70.4648 89.9718C70.7349 89.8293 71.0859 89.9054 71.2487 90.1419C74.0911 94.2708 77.8393 101.403 81.5296 111.244C88.8294 130.711 95.9233 160.831 95.3156 199.407C95.3112 199.683 95.0521 199.904 94.7367 199.9C94.4213 199.896 94.1692 199.669 94.1736 199.393C94.7795 160.93 87.7056 130.919 80.4445 111.556C76.7708 101.759 73.0545 94.7022 70.2705 90.6581C70.1077 90.4216 70.1947 90.1144 70.4648 89.9718Z" fill="#0A3019"/>
<path fill-rule="evenodd" clip-rule="evenodd" d="M116.2 61.1194C116.377 61.2768 116.375 61.5301 116.195 61.685L98.0477 77.3269C102.133 75.5738 107.063 74.388 112.985 74.0011C113.236 73.9847 113.456 74.1499 113.474 74.3702C113.493 74.5905 113.304 74.7824 113.053 74.7989C105.743 75.2765 100.017 76.989 95.56 79.4585C81.5228 87.2361 79.8727 102.668 81.4383 111.338L81.6555 112.54L80.666 111.685C76.2091 107.83 70.1689 102.652 63.7337 97.2093C58.8745 94.2207 50.8896 89.8948 42.7029 86.6137C38.6014 84.9699 34.4607 83.593 30.6445 82.7761C26.8203 81.9574 23.3646 81.7105 20.6119 82.289C20.3666 82.3405 20.1199 82.2082 20.0611 81.9933C20.0022 81.7785 20.1533 81.5626 20.3987 81.511C23.3567 80.8895 26.9779 81.1676 30.8615 81.9989C34.753 82.832 38.9508 84.2301 43.0832 85.8863C49.2463 88.3564 55.2895 91.4109 59.9928 94.0532C54.0517 89.0538 47.974 84.0036 42.6491 79.6938C36.1961 74.4711 30.8748 70.3571 28.2368 68.7268C28.0307 68.5994 27.9816 68.3498 28.1271 68.1693C28.2726 67.9888 28.5576 67.9458 28.7638 68.0732C31.4611 69.7402 36.8297 73.8944 43.2693 79.1064C49.719 84.3266 57.2692 90.6295 64.3429 96.6123C70.3396 101.684 75.9951 106.527 80.3491 110.287C79.1139 101.329 81.1928 86.4996 95.0299 78.8055L115.554 61.115C115.734 60.96 116.023 60.962 116.2 61.1194Z" fill="#0A3019"/>
<path d="M62.6689 101.24C76.1169 104.593 83.7739 121.522 87.9764 131.476C83.3737 126.586 72.6192 117.073 67.5643 115.235C60.3601 112.616 52.9707 112.391 42.2568 125.863C39.8554 113.29 45.859 97.049 62.6689 101.24Z" fill="#2E7A48"/>
<g style="mix-blend-mode:multiply">
<path fill-rule="evenodd" clip-rule="evenodd" d="M68.1753 110.701C76.5172 115.104 84.0843 124.214 88.5025 131.224C88.6623 131.477 88.5564 131.796 88.2658 131.935C87.9753 132.074 87.6102 131.982 87.4505 131.728C83.0635 124.768 75.6217 115.856 67.5539 111.597C63.5321 109.475 59.4289 108.546 55.4938 109.506C51.5575 110.466 47.6387 113.352 44.0794 119.15C43.9228 119.405 43.5589 119.501 43.2667 119.365C42.9744 119.228 42.8644 118.91 43.021 118.655C46.6659 112.718 50.8019 109.562 55.1705 108.497C59.5403 107.431 63.9922 108.493 68.1753 110.701Z" fill="#2E7A48"/>
</g>
<path d="M93.4626 93.5834C82.3507 103.621 85.8179 124.189 88.1529 136.133C89.516 128.997 93.9476 114.214 97.7477 109.87C103.164 103.679 110.324 99.7626 129.703 107.729C123.879 94.0949 107.353 81.0362 93.4626 93.5834Z" fill="#2E7A48"/>
<g style="mix-blend-mode:multiply">
<path fill-rule="evenodd" clip-rule="evenodd" d="M94.1866 105.691C88.8087 114.215 87.2659 127.006 87.4679 136.146C87.4752 136.477 87.7877 136.739 88.1659 136.732C88.5442 136.724 88.8448 136.45 88.8375 136.12C88.637 127.044 90.1845 114.511 95.3857 106.267C97.9784 102.158 101.43 99.1882 105.948 98.1704C110.466 97.1522 116.223 98.0475 123.524 102.002C123.845 102.176 124.267 102.089 124.467 101.807C124.667 101.526 124.569 101.157 124.248 100.983C116.772 96.9341 110.624 95.8809 105.609 97.0109C100.593 98.1413 96.8833 101.417 94.1866 105.691Z" fill="#2E7A48"/>
</g>
<path d="M110.748 66.5219C117.973 66.6588 122.309 63.8782 123.573 62.4709C129.763 56.782 124.272 53.5525 121.66 53.5825C112.954 53.6825 110.67 62.3378 110.748 66.5219Z" fill="#CDCDCD"/>
<path d="M111.251 66.5217C117.629 66.1133 121.237 64.1459 122.487 62.9432C128.493 58.0046 123.867 55.287 122.11 55.5151C114.4 56.2165 111.572 63.2205 111.251 66.5217Z" fill="white"/>
<path d="M112.338 60.0428C110.583 60.9296 110.509 64.8072 110.691 66.6351C112.905 66.6677 117.468 66.5372 118.004 65.7542C118.54 64.9711 116.73 65.3741 116.038 65.2119C116.567 65.2006 117.683 64.3805 117.666 64.1331C117.632 63.6382 115.765 63.9846 114.731 64.337C115.644 63.8751 117.327 62.82 116.746 62.2942C116.165 61.7685 114.362 62.8169 113.532 63.4067C114.152 62.7948 115.25 61.4889 114.683 61.1611C114.116 60.8333 112.808 61.9384 112.225 62.5319C113.206 60.2952 112.709 59.9405 112.338 60.0428Z" fill="#9B9B9B"/>
<path fill-rule="evenodd" clip-rule="evenodd" d="M120.118 56.4408C120.156 56.4923 120.139 56.5609 120.081 56.5941C115.42 59.2286 113.246 62.7736 111.442 65.7163C111.327 65.903 111.214 66.0872 111.102 66.2685C111.54 66.0546 112.027 65.8283 112.546 65.587C112.708 65.5119 112.873 65.4353 113.04 65.3572C113.912 64.9507 114.856 64.5012 115.808 63.9946C117.714 62.9807 119.64 61.7413 121.056 60.1674C121.1 60.1194 121.179 60.1111 121.234 60.149C121.289 60.1868 121.299 60.2565 121.255 60.3046C119.812 61.9088 117.856 63.1645 115.94 64.184C114.982 64.6941 114.032 65.1459 113.159 65.5529C112.991 65.6316 112.825 65.7085 112.663 65.7839C112.219 65.9901 111.801 66.1842 111.418 66.3687C113.82 66.0258 118.441 64.8396 121.951 62.1505C122.004 62.1102 122.084 62.1148 122.13 62.1609C122.176 62.207 122.171 62.277 122.118 62.3173C118.204 65.3159 112.94 66.4661 110.792 66.6676L110.62 66.6839L110.655 66.5348C110.685 66.4105 110.715 66.2805 110.747 66.1453C111.046 64.874 111.454 63.1436 112.144 61.4032C112.907 59.4786 114.02 57.529 115.728 56.1678C115.78 56.1266 115.86 56.1299 115.907 56.1751C115.954 56.2204 115.95 56.2905 115.898 56.3317C114.236 57.6567 113.14 59.5658 112.383 61.4759C111.76 63.0488 111.369 64.6138 111.077 65.8419C111.124 65.7652 111.172 65.6881 111.219 65.6105C113.022 62.6687 115.225 59.0748 119.943 56.4078C120.002 56.3746 120.08 56.3894 120.118 56.4408Z" fill="#0A3019"/>
<g style="mix-blend-mode:multiply">
<path d="M110.748 66.5219C117.973 66.6588 122.309 63.8782 123.573 62.4709C129.763 56.782 124.272 53.5525 121.66 53.5825C112.954 53.6825 110.67 62.3378 110.748 66.5219Z" fill="#FD6565"/>
<path d="M111.251 66.5217C117.629 66.1133 121.237 64.1459 122.487 62.9432C128.493 58.0046 123.867 55.287 122.11 55.5151C114.4 56.2165 111.572 63.2205 111.251 66.5217Z" fill="#FD6565"/>
<path d="M112.338 60.0428C110.583 60.9296 110.509 64.8072 110.691 66.6351C112.905 66.6677 117.468 66.5372 118.004 65.7542C118.54 64.9711 116.73 65.3741 116.038 65.2119C116.567 65.2006 117.683 64.3805 117.666 64.1331C117.632 63.6382 115.765 63.9846 114.731 64.337C115.644 63.8751 117.327 62.82 116.746 62.2942C116.165 61.7685 114.362 62.8169 113.532 63.4067C114.152 62.7948 115.25 61.4889 114.683 61.1611C114.116 60.8333 112.808 61.9384 112.225 62.5319C113.206 60.2952 112.709 59.9405 112.338 60.0428Z" fill="#FD6565"/>
<path fill-rule="evenodd" clip-rule="evenodd" d="M120.118 56.4408C120.156 56.4923 120.139 56.5609 120.081 56.5941C115.42 59.2286 113.246 62.7736 111.442 65.7163C111.327 65.903 111.214 66.0872 111.102 66.2685C111.54 66.0546 112.027 65.8283 112.546 65.587C112.708 65.5119 112.873 65.4353 113.04 65.3572C113.912 64.9507 114.856 64.5012 115.808 63.9946C117.714 62.9807 119.64 61.7413 121.056 60.1674C121.1 60.1194 121.179 60.1111 121.234 60.149C121.289 60.1868 121.299 60.2565 121.255 60.3046C119.812 61.9088 117.856 63.1645 115.94 64.184C114.982 64.6941 114.032 65.1459 113.159 65.5529C112.991 65.6316 112.825 65.7085 112.663 65.7839C112.219 65.9901 111.801 66.1842 111.418 66.3687C113.82 66.0258 118.441 64.8396 121.951 62.1505C122.004 62.1102 122.084 62.1148 122.13 62.1609C122.176 62.207 122.171 62.277 122.118 62.3173C118.204 65.3159 112.94 66.4661 110.792 66.6676L110.62 66.6839L110.655 66.5348C110.685 66.4105 110.715 66.2805 110.747 66.1453C111.046 64.874 111.454 63.1436 112.144 61.4032C112.907 59.4786 114.02 57.529 115.728 56.1678C115.78 56.1266 115.86 56.1299 115.907 56.1751C115.954 56.2204 115.95 56.2905 115.898 56.3317C114.236 57.6567 113.14 59.5658 112.383 61.4759C111.76 63.0488 111.369 64.6138 111.077 65.8419C111.124 65.7652 111.172 65.6881 111.219 65.6105C113.022 62.6687 115.225 59.0748 119.943 56.4078C120.002 56.3746 120.08 56.3894 120.118 56.4408Z" fill="#FD6565"/>
</g>
<g style="mix-blend-mode:soft-light">
<path d="M110.748 66.5219C117.973 66.6588 122.309 63.8782 123.573 62.4709C129.763 56.782 124.272 53.5525 121.66 53.5825C112.954 53.6825 110.67 62.3378 110.748 66.5219Z" fill="#FD6565"/>
<path d="M111.251 66.5217C117.629 66.1133 121.237 64.1459 122.487 62.9432C128.493 58.0046 123.867 55.287 122.11 55.5151C114.4 56.2165 111.572 63.2205 111.251 66.5217Z" fill="#FD6565"/>
<path d="M112.338 60.0428C110.583 60.9296 110.509 64.8072 110.691 66.6351C112.905 66.6677 117.468 66.5372 118.004 65.7542C118.54 64.9711 116.73 65.3741 116.038 65.2119C116.567 65.2006 117.683 64.3805 117.666 64.1331C117.632 63.6382 115.765 63.9846 114.731 64.337C115.644 63.8751 117.327 62.82 116.746 62.2942C116.165 61.7685 114.362 62.8169 113.532 63.4067C114.152 62.7948 115.25 61.4889 114.683 61.1611C114.116 60.8333 112.808 61.9384 112.225 62.5319C113.206 60.2952 112.709 59.9405 112.338 60.0428Z" fill="#FD6565"/>
<path fill-rule="evenodd" clip-rule="evenodd" d="M120.118 56.4408C120.156 56.4923 120.139 56.5609 120.081 56.5941C115.42 59.2286 113.246 62.7736 111.442 65.7163C111.327 65.903 111.214 66.0872 111.102 66.2685C111.54 66.0546 112.027 65.8283 112.546 65.587C112.708 65.5119 112.873 65.4353 113.04 65.3572C113.912 64.9507 114.856 64.5012 115.808 63.9946C117.714 62.9807 119.64 61.7413 121.056 60.1674C121.1 60.1194 121.179 60.1111 121.234 60.149C121.289 60.1868 121.299 60.2565 121.255 60.3046C119.812 61.9088 117.856 63.1645 115.94 64.184C114.982 64.6941 114.032 65.1459 113.159 65.5529C112.991 65.6316 112.825 65.7085 112.663 65.7839C112.219 65.9901 111.801 66.1842 111.418 66.3687C113.82 66.0258 118.441 64.8396 121.951 62.1505C122.004 62.1102 122.084 62.1148 122.13 62.1609C122.176 62.207 122.171 62.277 122.118 62.3173C118.204 65.3159 112.94 66.4661 110.792 66.6676L110.62 66.6839L110.655 66.5348C110.685 66.4105 110.715 66.2805 110.747 66.1453C111.046 64.874 111.454 63.1436 112.144 61.4032C112.907 59.4786 114.02 57.529 115.728 56.1678C115.78 56.1266 115.86 56.1299 115.907 56.1751C115.954 56.2204 115.95 56.2905 115.898 56.3317C114.236 57.6567 113.14 59.5658 112.383 61.4759C111.76 63.0488 111.369 64.6138 111.077 65.8419C111.124 65.7652 111.172 65.6881 111.219 65.6105C113.022 62.6687 115.225 59.0748 119.943 56.4078C120.002 56.3746 120.08 56.3894 120.118 56.4408Z" fill="#FD6565"/>
</g>
<path d="M23.2796 82.024C19.8027 76.4777 14.8846 74.5804 12.8601 74.325C4.13826 72.4761 3.68955 78.2547 5.02538 80.2204C9.47703 86.7715 19.1804 84.1758 23.2796 82.024Z" fill="#CDCDCD"/>
<path d="M23.0283 81.643C19.4354 77.011 15.6855 75.259 13.8708 74.9125C5.98277 72.8277 5.60774 77.6942 6.71202 78.9125C11.261 84.4083 19.6028 83.0506 23.0283 81.643Z" fill="white"/>
<path d="M16.0765 84.0588C17.8308 84.9456 21.7035 83.0633 23.4205 82.0113C22.3456 80.3159 19.9351 76.9215 18.8924 76.9064C17.8498 76.8913 19.1535 78.0624 19.3389 78.6681C19.0634 78.2728 17.6942 77.8367 17.458 77.9733C16.9855 78.2464 18.2616 79.4888 19.1275 80.0972C18.2138 79.6353 16.3289 78.8873 16.0992 79.5904C15.8695 80.2934 17.8083 81.137 18.8064 81.4708C17.8912 81.3069 16.0506 81.1274 16.0099 81.7212C15.9692 82.315 17.7163 82.7544 18.595 82.8999C15.892 83.2744 15.7898 83.8285 16.0765 84.0588Z" fill="#9B9B9B"/>
<path fill-rule="evenodd" clip-rule="evenodd" d="M8.62359 79.9597C8.6555 79.9053 8.7318 79.8838 8.79402 79.9117C13.7301 82.1283 18.3235 82.0041 22.1365 81.901C22.3783 81.8944 22.617 81.888 22.8524 81.8822C22.4222 81.6576 21.9548 81.4014 21.4565 81.1283C21.3013 81.0432 21.1431 80.9565 20.9821 80.8686C20.1443 80.4112 19.2273 79.9194 18.2501 79.4508C16.2947 78.5132 14.1054 77.6719 11.8406 77.3851C11.7714 77.3764 11.7235 77.3202 11.7335 77.2596C11.7435 77.199 11.8077 77.157 11.8769 77.1657C14.1852 77.458 16.4055 78.3135 18.3718 79.2564C19.3555 79.7281 20.2774 80.2225 21.1161 80.6805C21.2783 80.7691 21.4373 80.8562 21.5929 80.9415C22.0188 81.1749 22.4197 81.3947 22.7936 81.5927C21.2535 79.9431 17.7697 77.0321 13.3548 75.7152C13.2886 75.6955 13.2532 75.6325 13.2757 75.5745C13.2983 75.5166 13.3702 75.4856 13.4364 75.5054C18.3593 76.9738 22.1288 80.3897 23.4022 81.9177L23.5047 82.0407L23.3395 82.0883C23.2017 82.128 23.0578 82.1698 22.9081 82.2133C21.501 82.6219 19.5857 83.1781 17.5193 83.5252C15.2341 83.9089 12.7491 84.0397 10.5487 83.4252C10.4821 83.4066 10.4453 83.3443 10.4665 83.2859C10.4878 83.2276 10.559 83.1954 10.6256 83.214C12.7674 83.8121 15.2036 83.6883 17.4716 83.3074C19.3392 82.9938 21.0827 82.5078 22.4429 82.1146C22.3436 82.1173 22.2436 82.12 22.1431 82.1227C18.3317 82.2263 13.6754 82.3529 8.67846 80.109C8.61625 80.081 8.59168 80.0142 8.62359 79.9597Z" fill="#0A3019"/>
<g style="mix-blend-mode:multiply">
<path d="M23.2796 82.024C19.8027 76.4777 14.8846 74.5804 12.8601 74.325C4.13826 72.4761 3.68955 78.2547 5.02538 80.2204C9.47703 86.7715 19.1804 84.1758 23.2796 82.024Z" fill="#FD6565"/>
<path d="M23.0283 81.643C19.4354 77.011 15.6855 75.259 13.8708 74.9125C5.98277 72.8277 5.60774 77.6942 6.71202 78.9125C11.261 84.4083 19.6028 83.0506 23.0283 81.643Z" fill="#FD6565"/>
<path d="M16.0765 84.0588C17.8308 84.9456 21.7035 83.0633 23.4205 82.0113C22.3456 80.3159 19.9351 76.9215 18.8924 76.9064C17.8498 76.8913 19.1535 78.0624 19.3389 78.6681C19.0634 78.2728 17.6942 77.8367 17.458 77.9733C16.9855 78.2464 18.2616 79.4888 19.1275 80.0972C18.2138 79.6353 16.3289 78.8873 16.0992 79.5904C15.8695 80.2934 17.8083 81.137 18.8064 81.4708C17.8912 81.3069 16.0506 81.1274 16.0099 81.7212C15.9692 82.315 17.7163 82.7544 18.595 82.8999C15.892 83.2744 15.7898 83.8285 16.0765 84.0588Z" fill="#FD6565"/>
<path fill-rule="evenodd" clip-rule="evenodd" d="M8.62359 79.9597C8.6555 79.9053 8.7318 79.8838 8.79402 79.9117C13.7301 82.1283 18.3235 82.0041 22.1365 81.901C22.3783 81.8944 22.617 81.888 22.8524 81.8822C22.4222 81.6576 21.9548 81.4014 21.4565 81.1283C21.3013 81.0432 21.1431 80.9565 20.9821 80.8686C20.1443 80.4112 19.2273 79.9194 18.2501 79.4508C16.2947 78.5132 14.1054 77.6719 11.8406 77.3851C11.7714 77.3764 11.7235 77.3202 11.7335 77.2596C11.7435 77.199 11.8077 77.157 11.8769 77.1657C14.1852 77.458 16.4055 78.3135 18.3718 79.2564C19.3555 79.7281 20.2774 80.2225 21.1161 80.6805C21.2783 80.7691 21.4373 80.8562 21.5929 80.9415C22.0188 81.1749 22.4197 81.3947 22.7936 81.5927C21.2535 79.9431 17.7697 77.0321 13.3548 75.7152C13.2886 75.6955 13.2532 75.6325 13.2757 75.5745C13.2983 75.5166 13.3702 75.4856 13.4364 75.5054C18.3593 76.9738 22.1288 80.3897 23.4022 81.9177L23.5047 82.0407L23.3395 82.0883C23.2017 82.128 23.0578 82.1698 22.9081 82.2133C21.501 82.6219 19.5857 83.1781 17.5193 83.5252C15.2341 83.9089 12.7491 84.0397 10.5487 83.4252C10.4821 83.4066 10.4453 83.3443 10.4665 83.2859C10.4878 83.2276 10.559 83.1954 10.6256 83.214C12.7674 83.8121 15.2036 83.6883 17.4716 83.3074C19.3392 82.9938 21.0827 82.5078 22.4429 82.1146C22.3436 82.1173 22.2436 82.12 22.1431 82.1227C18.3317 82.2263 13.6754 82.3529 8.67846 80.109C8.61625 80.081 8.59168 80.0142 8.62359 79.9597Z" fill="#FD6565"/>
</g>
<g style="mix-blend-mode:soft-light">
<path d="M23.2796 82.024C19.8027 76.4777 14.8846 74.5804 12.8601 74.325C4.13826 72.4761 3.68955 78.2547 5.02538 80.2204C9.47703 86.7715 19.1804 84.1758 23.2796 82.024Z" fill="#FD6565"/>
<path d="M23.0283 81.643C19.4354 77.011 15.6855 75.259 13.8708 74.9125C5.98277 72.8277 5.60774 77.6942 6.71202 78.9125C11.261 84.4083 19.6028 83.0506 23.0283 81.643Z" fill="#FD6565"/>
<path d="M16.0765 84.0588C17.8308 84.9456 21.7035 83.0633 23.4205 82.0113C22.3456 80.3159 19.9351 76.9215 18.8924 76.9064C17.8498 76.8913 19.1535 78.0624 19.3389 78.6681C19.0634 78.2728 17.6942 77.8367 17.458 77.9733C16.9855 78.2464 18.2616 79.4888 19.1275 80.0972C18.2138 79.6353 16.3289 78.8873 16.0992 79.5904C15.8695 80.2934 17.8083 81.137 18.8064 81.4708C17.8912 81.3069 16.0506 81.1274 16.0099 81.7212C15.9692 82.315 17.7163 82.7544 18.595 82.8999C15.892 83.2744 15.7898 83.8285 16.0765 84.0588Z" fill="#FD6565"/>
<path fill-rule="evenodd" clip-rule="evenodd" d="M8.62359 79.9597C8.6555 79.9053 8.7318 79.8838 8.79402 79.9117C13.7301 82.1283 18.3235 82.0041 22.1365 81.901C22.3783 81.8944 22.617 81.888 22.8524 81.8822C22.4222 81.6576 21.9548 81.4014 21.4565 81.1283C21.3013 81.0432 21.1431 80.9565 20.9821 80.8686C20.1443 80.4112 19.2273 79.9194 18.2501 79.4508C16.2947 78.5132 14.1054 77.6719 11.8406 77.3851C11.7714 77.3764 11.7235 77.3202 11.7335 77.2596C11.7435 77.199 11.8077 77.157 11.8769 77.1657C14.1852 77.458 16.4055 78.3135 18.3718 79.2564C19.3555 79.7281 20.2774 80.2225 21.1161 80.6805C21.2783 80.7691 21.4373 80.8562 21.5929 80.9415C22.0188 81.1749 22.4197 81.3947 22.7936 81.5927C21.2535 79.9431 17.7697 77.0321 13.3548 75.7152C13.2886 75.6955 13.2532 75.6325 13.2757 75.5745C13.2983 75.5166 13.3702 75.4856 13.4364 75.5054C18.3593 76.9738 22.1288 80.3897 23.4022 81.9177L23.5047 82.0407L23.3395 82.0883C23.2017 82.128 23.0578 82.1698 22.9081 82.2133C21.501 82.6219 19.5857 83.1781 17.5193 83.5252C15.2341 83.9089 12.7491 84.0397 10.5487 83.4252C10.4821 83.4066 10.4453 83.3443 10.4665 83.2859C10.4878 83.2276 10.559 83.1954 10.6256 83.214C12.7674 83.8121 15.2036 83.6883 17.4716 83.3074C19.3392 82.9938 21.0827 82.5078 22.4429 82.1146C22.3436 82.1173 22.2436 82.12 22.1431 82.1227C18.3317 82.2263 13.6754 82.3529 8.67846 80.109C8.61625 80.081 8.59168 80.0142 8.62359 79.9597Z" fill="#FD6565"/>
</g>
<path d="M112.692 74.8068C116.69 76.9299 120.147 76.5999 121.376 76.1696C126.947 74.7351 125.063 71.3699 123.588 70.6467C118.673 68.2367 114.194 72.4398 112.692 74.8068Z" fill="#CDCDCD"/>
<path d="M112.974 74.949C116.699 76.5269 119.448 76.4464 120.593 76.1266C125.783 75.0604 124.195 72.2271 123.126 71.8572C118.546 70.0661 114.374 73.1899 112.974 74.949Z" fill="white"/>
<path d="M115.977 71.6261C114.666 71.6261 113.192 73.7779 112.618 74.8538C113.847 75.4993 116.452 76.7186 117.042 76.4317C117.632 76.1448 116.469 75.8579 116.141 75.571C116.441 75.7145 117.37 75.571 117.452 75.4276C117.616 75.1407 116.441 74.8059 115.731 74.7103C116.414 74.7103 117.747 74.5956 117.616 74.1365C117.484 73.6775 116.086 73.754 115.404 73.8496C115.977 73.6822 117.075 73.2614 116.878 72.9172C116.682 72.5729 115.54 72.8215 114.994 72.9889C116.37 72.0134 116.223 71.6739 115.977 71.6261Z" fill="#9B9B9B"/>
<path fill-rule="evenodd" clip-rule="evenodd" d="M121.668 71.8119C121.67 71.8514 121.635 71.8851 121.59 71.8871C118.005 72.0432 115.477 73.4139 113.378 74.5518C113.245 74.624 113.114 74.6952 112.984 74.7651C113.308 74.7691 113.665 74.7803 114.045 74.7922C114.163 74.7959 114.284 74.7997 114.407 74.8033C115.045 74.8223 115.741 74.8381 116.462 74.8239C117.904 74.7955 119.441 74.6467 120.817 74.1659C120.859 74.1512 120.906 74.1691 120.923 74.2059C120.94 74.2427 120.919 74.2844 120.877 74.2991C119.476 74.7892 117.915 74.9387 116.465 74.9673C115.74 74.9817 115.04 74.9657 114.401 74.9467C114.278 74.943 114.156 74.9392 114.037 74.9355C113.713 74.9253 113.407 74.9157 113.124 74.9107C114.597 75.3988 117.625 76.0432 120.585 75.5305C120.629 75.5229 120.673 75.5481 120.681 75.587C120.69 75.6259 120.661 75.6636 120.617 75.6713C117.316 76.2429 113.941 75.3965 112.663 74.9009L112.56 74.8611L112.635 74.7876C112.698 74.7263 112.763 74.6621 112.831 74.5954C113.468 73.9678 114.336 73.1136 115.366 72.3338C116.504 71.4714 117.848 70.6942 119.309 70.4152C119.353 70.4068 119.396 70.4313 119.406 70.47C119.416 70.5087 119.388 70.5469 119.344 70.5554C117.922 70.8269 116.603 71.5864 115.473 72.4422C114.542 73.147 113.745 73.9132 113.128 74.5189C113.182 74.4893 113.237 74.4594 113.293 74.4294C115.39 73.2917 117.953 71.9018 121.582 71.7438C121.627 71.7418 121.666 71.7723 121.668 71.8119Z" fill="#0A3019"/>
<g style="mix-blend-mode:multiply">
<path d="M112.692 74.8068C116.69 76.9299 120.147 76.5999 121.376 76.1696C126.947 74.7351 125.063 71.3699 123.588 70.6467C118.673 68.2367 114.194 72.4398 112.692 74.8068Z" fill="#FD6565"/>
<path d="M112.974 74.949C116.699 76.5269 119.448 76.4464 120.593 76.1266C125.783 75.0604 124.195 72.2271 123.126 71.8572C118.546 70.0661 114.374 73.1899 112.974 74.949Z" fill="#FD6565"/>
<path d="M115.977 71.6261C114.666 71.6261 113.192 73.7779 112.618 74.8538C113.847 75.4993 116.452 76.7186 117.042 76.4317C117.632 76.1448 116.469 75.8579 116.141 75.571C116.441 75.7145 117.37 75.571 117.452 75.4276C117.616 75.1407 116.441 74.8059 115.731 74.7103C116.414 74.7103 117.747 74.5956 117.616 74.1365C117.484 73.6775 116.086 73.754 115.404 73.8496C115.977 73.6822 117.075 73.2614 116.878 72.9172C116.682 72.5729 115.54 72.8215 114.994 72.9889C116.37 72.0134 116.223 71.6739 115.977 71.6261Z" fill="#FD6565"/>
<path fill-rule="evenodd" clip-rule="evenodd" d="M121.668 71.8119C121.67 71.8514 121.635 71.8851 121.59 71.8871C118.005 72.0432 115.477 73.4139 113.378 74.5518C113.245 74.624 113.114 74.6952 112.984 74.7651C113.308 74.7691 113.665 74.7803 114.045 74.7922C114.163 74.7959 114.284 74.7997 114.407 74.8033C115.045 74.8223 115.741 74.8381 116.462 74.8239C117.904 74.7955 119.441 74.6467 120.817 74.1659C120.859 74.1512 120.906 74.1691 120.923 74.2059C120.94 74.2427 120.919 74.2844 120.877 74.2991C119.476 74.7892 117.915 74.9387 116.465 74.9673C115.74 74.9817 115.04 74.9657 114.401 74.9467C114.278 74.943 114.156 74.9392 114.037 74.9355C113.713 74.9253 113.407 74.9157 113.124 74.9107C114.597 75.3988 117.625 76.0432 120.585 75.5305C120.629 75.5229 120.673 75.5481 120.681 75.587C120.69 75.6259 120.661 75.6636 120.617 75.6713C117.316 76.2429 113.941 75.3965 112.663 74.9009L112.56 74.8611L112.635 74.7876C112.698 74.7263 112.763 74.6621 112.831 74.5954C113.468 73.9678 114.336 73.1136 115.366 72.3338C116.504 71.4714 117.848 70.6942 119.309 70.4152C119.353 70.4068 119.396 70.4313 119.406 70.47C119.416 70.5087 119.388 70.5469 119.344 70.5554C117.922 70.8269 116.603 71.5864 115.473 72.4422C114.542 73.147 113.745 73.9132 113.128 74.5189C113.182 74.4893 113.237 74.4594 113.293 74.4294C115.39 73.2917 117.953 71.9018 121.582 71.7438C121.627 71.7418 121.666 71.7723 121.668 71.8119Z" fill="#FD6565"/>
</g>
<g style="mix-blend-mode:soft-light">
<path d="M112.692 74.8068C116.69 76.9299 120.147 76.5999 121.376 76.1696C126.947 74.7351 125.063 71.3699 123.588 70.6467C118.673 68.2367 114.194 72.4398 112.692 74.8068Z" fill="#FD6565"/>
<path d="M112.974 74.949C116.699 76.5269 119.448 76.4464 120.593 76.1266C125.783 75.0604 124.195 72.2271 123.126 71.8572C118.546 70.0661 114.374 73.1899 112.974 74.949Z" fill="#FD6565"/>
<path d="M115.977 71.6261C114.666 71.6261 113.192 73.7779 112.618 74.8538C113.847 75.4993 116.452 76.7186 117.042 76.4317C117.632 76.1448 116.469 75.8579 116.141 75.571C116.441 75.7145 117.37 75.571 117.452 75.4276C117.616 75.1407 116.441 74.8059 115.731 74.7103C116.414 74.7103 117.747 74.5956 117.616 74.1365C117.484 73.6775 116.086 73.754 115.404 73.8496C115.977 73.6822 117.075 73.2614 116.878 72.9172C116.682 72.5729 115.54 72.8215 114.994 72.9889C116.37 72.0134 116.223 71.6739 115.977 71.6261Z" fill="#FD6565"/>
<path fill-rule="evenodd" clip-rule="evenodd" d="M121.668 71.8119C121.67 71.8514 121.635 71.8851 121.59 71.8871C118.005 72.0432 115.477 73.4139 113.378 74.5518C113.245 74.624 113.114 74.6952 112.984 74.7651C113.308 74.7691 113.665 74.7803 114.045 74.7922C114.163 74.7959 114.284 74.7997 114.407 74.8033C115.045 74.8223 115.741 74.8381 116.462 74.8239C117.904 74.7955 119.441 74.6467 120.817 74.1659C120.859 74.1512 120.906 74.1691 120.923 74.2059C120.94 74.2427 120.919 74.2844 120.877 74.2991C119.476 74.7892 117.915 74.9387 116.465 74.9673C115.74 74.9817 115.04 74.9657 114.401 74.9467C114.278 74.943 114.156 74.9392 114.037 74.9355C113.713 74.9253 113.407 74.9157 113.124 74.9107C114.597 75.3988 117.625 76.0432 120.585 75.5305C120.629 75.5229 120.673 75.5481 120.681 75.587C120.69 75.6259 120.661 75.6636 120.617 75.6713C117.316 76.2429 113.941 75.3965 112.663 74.9009L112.56 74.8611L112.635 74.7876C112.698 74.7263 112.763 74.6621 112.831 74.5954C113.468 73.9678 114.336 73.1136 115.366 72.3338C116.504 71.4714 117.848 70.6942 119.309 70.4152C119.353 70.4068 119.396 70.4313 119.406 70.47C119.416 70.5087 119.388 70.5469 119.344 70.5554C117.922 70.8269 116.603 71.5864 115.473 72.4422C114.542 73.147 113.745 73.9132 113.128 74.5189C113.182 74.4893 113.237 74.4594 113.293 74.4294C115.39 73.2917 117.953 71.9018 121.582 71.7438C121.627 71.7418 121.666 71.7723 121.668 71.8119Z" fill="#FD6565"/>
</g>
<path d="M38.0489 74.1911C38.2801 64.8867 33.6116 59.3032 31.2485 57.6745C21.6966 49.7038 16.2723 56.7767 16.3221 60.1412C16.4883 71.3532 31.0226 74.2935 38.0489 74.1911Z" fill="#CDCDCD"/>
<path d="M38.0487 73.5437C37.3642 65.3294 34.0611 60.6832 32.0417 59.0733C23.7495 51.3389 19.1849 57.2975 19.5677 59.5605C20.744 69.4908 32.5051 73.1317 38.0487 73.5437Z" fill="white"/>
<path d="M27.1691 72.1459C28.6579 74.4051 35.1695 74.5003 38.2391 74.2655C38.2943 71.4136 38.076 65.5371 36.7612 64.8467C35.4463 64.1562 36.1228 66.4874 35.8501 67.3784C35.8314 66.6976 34.4543 65.2604 34.0388 65.2823C33.2079 65.3261 33.7892 67.7305 34.3807 69.063C33.6053 67.8863 31.8337 65.7199 30.9508 66.4678C30.0679 67.2156 31.8279 69.5384 32.8183 70.6064C31.7908 69.8082 29.598 68.3946 29.0475 69.1249C28.497 69.8552 30.3524 71.5399 31.3489 72.2909C27.5931 71.0278 26.9974 71.668 27.1691 72.1459Z" fill="#9B9B9B"/>
<path fill-rule="evenodd" clip-rule="evenodd" d="M21.122 62.1254C21.2084 62.0766 21.3236 62.0983 21.3793 62.174C25.8025 68.1758 31.7551 70.9748 36.6965 73.2983C37.0098 73.4457 37.3191 73.5911 37.6237 73.7353C37.2646 73.1722 36.8847 72.5449 36.4796 71.8761C36.3534 71.6678 36.2248 71.4555 36.0937 71.2399C35.4112 70.1177 34.6566 68.9008 33.806 67.6747C32.1038 65.2212 30.0229 62.7399 27.3802 60.9166C27.2995 60.8609 27.2856 60.7583 27.3492 60.6876C27.4128 60.6168 27.5299 60.6046 27.6106 60.6604C30.3042 62.5188 32.4125 65.0381 34.1242 67.5053C34.9805 68.7396 35.739 69.9631 36.4223 71.0865C36.5544 71.3037 36.6836 71.5171 36.8102 71.726C37.1563 72.2975 37.4822 72.8356 37.792 73.3286C37.2165 70.2355 35.2255 64.284 30.7105 59.7639C30.6428 59.6961 30.6506 59.5931 30.728 59.5338C30.8054 59.4745 30.923 59.4813 30.9907 59.5491C36.0253 64.5893 37.9558 71.368 38.2938 74.1344L38.321 74.3572L38.0707 74.3115C37.862 74.2734 37.6437 74.2339 37.4166 74.193C35.2819 73.8077 32.3762 73.2832 29.4537 72.3949C26.2219 71.4126 22.9482 69.9795 20.6626 67.7799C20.5934 67.7133 20.599 67.6102 20.675 67.5496C20.751 67.4889 20.8688 67.4938 20.9379 67.5603C23.1626 69.7013 26.3683 71.1119 29.5758 72.0868C32.217 72.8896 34.845 73.3929 36.9072 73.7678C36.7785 73.7072 36.6489 73.6463 36.5186 73.585C31.5789 71.2632 25.5442 68.4267 21.0665 62.3509C21.0108 62.2752 21.0356 62.1743 21.122 62.1254Z" fill="#0A3019"/>
<g style="mix-blend-mode:multiply">
<path d="M38.0489 74.1911C38.2801 64.8867 33.6116 59.3032 31.2485 57.6745C21.6966 49.7038 16.2723 56.7767 16.3221 60.1412C16.4883 71.3532 31.0226 74.2935 38.0489 74.1911Z" fill="#FD6565"/>
<path d="M38.0487 73.5437C37.3642 65.3294 34.0611 60.6832 32.0417 59.0733C23.7495 51.3389 19.1849 57.2975 19.5677 59.5605C20.744 69.4908 32.5051 73.1317 38.0487 73.5437Z" fill="#FD6565"/>
<path d="M27.1691 72.1459C28.6579 74.4051 35.1695 74.5003 38.2391 74.2655C38.2943 71.4136 38.076 65.5371 36.7612 64.8467C35.4463 64.1562 36.1228 66.4874 35.8501 67.3784C35.8314 66.6976 34.4543 65.2604 34.0388 65.2823C33.2079 65.3261 33.7892 67.7305 34.3807 69.063C33.6053 67.8863 31.8337 65.7199 30.9508 66.4678C30.0679 67.2156 31.8279 69.5384 32.8183 70.6064C31.7908 69.8082 29.598 68.3946 29.0475 69.1249C28.497 69.8552 30.3524 71.5399 31.3489 72.2909C27.5931 71.0278 26.9974 71.668 27.1691 72.1459Z" fill="#FD6565"/>
<path fill-rule="evenodd" clip-rule="evenodd" d="M21.122 62.1254C21.2084 62.0766 21.3236 62.0983 21.3793 62.174C25.8025 68.1758 31.7551 70.9748 36.6965 73.2983C37.0098 73.4457 37.3191 73.5911 37.6237 73.7353C37.2646 73.1722 36.8847 72.5449 36.4796 71.8761C36.3534 71.6678 36.2248 71.4555 36.0937 71.2399C35.4112 70.1177 34.6566 68.9008 33.806 67.6747C32.1038 65.2212 30.0229 62.7399 27.3802 60.9166C27.2995 60.8609 27.2856 60.7583 27.3492 60.6876C27.4128 60.6168 27.5299 60.6046 27.6106 60.6604C30.3042 62.5188 32.4125 65.0381 34.1242 67.5053C34.9805 68.7396 35.739 69.9631 36.4223 71.0865C36.5544 71.3037 36.6836 71.5171 36.8102 71.726C37.1563 72.2975 37.4822 72.8356 37.792 73.3286C37.2165 70.2355 35.2255 64.284 30.7105 59.7639C30.6428 59.6961 30.6506 59.5931 30.728 59.5338C30.8054 59.4745 30.923 59.4813 30.9907 59.5491C36.0253 64.5893 37.9558 71.368 38.2938 74.1344L38.321 74.3572L38.0707 74.3115C37.862 74.2734 37.6437 74.2339 37.4166 74.193C35.2819 73.8077 32.3762 73.2832 29.4537 72.3949C26.2219 71.4126 22.9482 69.9795 20.6626 67.7799C20.5934 67.7133 20.599 67.6102 20.675 67.5496C20.751 67.4889 20.8688 67.4938 20.9379 67.5603C23.1626 69.7013 26.3683 71.1119 29.5758 72.0868C32.217 72.8896 34.845 73.3929 36.9072 73.7678C36.7785 73.7072 36.6489 73.6463 36.5186 73.585C31.5789 71.2632 25.5442 68.4267 21.0665 62.3509C21.0108 62.2752 21.0356 62.1743 21.122 62.1254Z" fill="#FD6565"/>
</g>
<g style="mix-blend-mode:soft-light">
<path d="M38.0489 74.1911C38.2801 64.8867 33.6116 59.3032 31.2485 57.6745C21.6966 49.7038 16.2723 56.7767 16.3221 60.1412C16.4883 71.3532 31.0226 74.2935 38.0489 74.1911Z" fill="#FD6565"/>
<path d="M38.0487 73.5437C37.3642 65.3294 34.0611 60.6832 32.0417 59.0733C23.7495 51.3389 19.1849 57.2975 19.5677 59.5605C20.744 69.4908 32.5051 73.1317 38.0487 73.5437Z" fill="#FD6565"/>
<path d="M27.1691 72.1459C28.6579 74.4051 35.1695 74.5003 38.2391 74.2655C38.2943 71.4136 38.076 65.5371 36.7612 64.8467C35.4463 64.1562 36.1228 66.4874 35.8501 67.3784C35.8314 66.6976 34.4543 65.2604 34.0388 65.2823C33.2079 65.3261 33.7892 67.7305 34.3807 69.063C33.6053 67.8863 31.8337 65.7199 30.9508 66.4678C30.0679 67.2156 31.8279 69.5384 32.8183 70.6064C31.7908 69.8082 29.598 68.3946 29.0475 69.1249C28.497 69.8552 30.3524 71.5399 31.3489 72.2909C27.5931 71.0278 26.9974 71.668 27.1691 72.1459Z" fill="#FD6565"/>
<path fill-rule="evenodd" clip-rule="evenodd" d="M21.122 62.1254C21.2084 62.0766 21.3236 62.0983 21.3793 62.174C25.8025 68.1758 31.7551 70.9748 36.6965 73.2983C37.0098 73.4457 37.3191 73.5911 37.6237 73.7353C37.2646 73.1722 36.8847 72.5449 36.4796 71.8761C36.3534 71.6678 36.2248 71.4555 36.0937 71.2399C35.4112 70.1177 34.6566 68.9008 33.806 67.6747C32.1038 65.2212 30.0229 62.7399 27.3802 60.9166C27.2995 60.8609 27.2856 60.7583 27.3492 60.6876C27.4128 60.6168 27.5299 60.6046 27.6106 60.6604C30.3042 62.5188 32.4125 65.0381 34.1242 67.5053C34.9805 68.7396 35.739 69.9631 36.4223 71.0865C36.5544 71.3037 36.6836 71.5171 36.8102 71.726C37.1563 72.2975 37.4822 72.8356 37.792 73.3286C37.2165 70.2355 35.2255 64.284 30.7105 59.7639C30.6428 59.6961 30.6506 59.5931 30.728 59.5338C30.8054 59.4745 30.923 59.4813 30.9907 59.5491C36.0253 64.5893 37.9558 71.368 38.2938 74.1344L38.321 74.3572L38.0707 74.3115C37.862 74.2734 37.6437 74.2339 37.4166 74.193C35.2819 73.8077 32.3762 73.2832 29.4537 72.3949C26.2219 71.4126 22.9482 69.9795 20.6626 67.7799C20.5934 67.7133 20.599 67.6102 20.675 67.5496C20.751 67.4889 20.8688 67.4938 20.9379 67.5603C23.1626 69.7013 26.3683 71.1119 29.5758 72.0868C32.217 72.8896 34.845 73.3929 36.9072 73.7678C36.7785 73.7072 36.6489 73.6463 36.5186 73.585C31.5789 71.2632 25.5442 68.4267 21.0665 62.3509C21.0108 62.2752 21.0356 62.1743 21.122 62.1254Z" fill="#FD6565"/>
</g>
<path d="M72.7545 1C66.0445 1 61.8254 12.0979 60.5546 17.6469C55.9796 12.5419 44.0843 3.13081 36.1543 6.32701C28.2244 9.52322 31.3252 21.4202 33.8668 26.9692C27.7669 23.8618 14.4994 20.0441 10.2295 29.6327C5.9595 39.2213 18.1086 45.6137 24.7169 47.6114C17.6003 50.2749 4.58707 57.8659 9.46704 66.9218C14.347 75.9777 25.7338 72.9147 30.8172 70.2512C30.3089 77.3539 31.4272 91.8256 39.9672 92.891C48.5071 93.9564 53.1838 84.9005 54.4546 80.2393C57.2504 87.564 65.1291 98.218 76.567 96.8862C88.4771 95.4995 86.2252 81.793 84.1919 76.9099C91.3085 77.1319 106.304 75.9777 109.354 69.5853C112.404 63.1929 100.967 55.8238 94.8669 52.9384C101.983 51.6066 116.217 47.2118 116.217 40.2867C116.217 33.3616 105.033 32.0742 99.4418 32.2962C104.017 29.6327 111.642 22.7076 105.542 16.3152C99.4418 9.92275 88.7669 14.5395 84.1919 17.6469C83.1753 12.0979 79.4644 1 72.7545 1Z" fill="#CDCDCD"/>
<path d="M63.2406 42.5814C63.2406 44.7879 62.2165 46.5767 60.9531 46.5767C59.6898 46.5767 58.6657 44.7879 58.6657 42.5814C58.6657 40.3749 59.6898 38.5861 60.9531 38.5861C62.2165 38.5861 63.2406 40.3749 63.2406 42.5814Z" fill="#9B9B9B"/>
<path d="M74.2873 41.9955C73.614 44.19 72.0496 45.7307 70.7931 45.4367C69.5366 45.1427 69.0639 43.1253 69.7372 40.9308C70.4106 38.7363 71.975 37.1956 73.2315 37.4897C74.4879 37.7837 74.9607 39.801 74.2873 41.9955Z" fill="#9B9B9B"/>
<path d="M56.8345 41.5826C58.0979 43.4935 58.2351 45.4898 57.141 46.0414C56.0469 46.593 54.1358 45.4911 52.8725 43.5802C51.6091 41.6693 51.4719 39.673 52.566 39.1214C53.6601 38.5698 55.5712 39.6717 56.8345 41.5826Z" fill="#9B9B9B"/>
<path d="M61.7855 51.3492C61.8262 53.366 60.9232 55.0154 59.7685 55.0332C58.6138 55.051 57.6447 53.4305 57.6039 51.4137C57.5632 49.3969 58.4662 47.7476 59.6209 47.7298C60.7756 47.712 61.7447 49.3325 61.7855 51.3492Z" fill="#9B9B9B"/>
<path d="M58.2787 55.0666C59.4336 56.8135 59.559 58.6384 58.5589 59.1426C57.5587 59.6469 55.8117 58.6396 54.6568 56.8928C53.5019 55.1459 53.3765 53.321 54.3766 52.8167C55.3768 52.3125 57.1238 53.3198 58.2787 55.0666Z" fill="#9B9B9B"/>
<path d="M54.3514 47.9222C55.3289 49.4008 55.4351 50.9454 54.5885 51.3722C53.742 51.7991 52.2632 50.9465 51.2857 49.4679C50.3082 47.9893 50.202 46.4446 51.0486 46.0178C51.8951 45.5909 53.3739 46.4436 54.3514 47.9222Z" fill="#9B9B9B"/>
<path d="M67.496 55.5554C67.5368 57.5721 66.6337 59.2215 65.479 59.2393C64.3243 59.2571 63.3552 57.6366 63.3144 55.6198C63.2737 53.6031 64.1767 51.9537 65.3314 51.9359C66.4861 51.9181 67.4552 53.5386 67.496 55.5554Z" fill="#9B9B9B"/>
<path d="M72.004 50.234C70.8491 51.9808 69.1021 52.9882 68.1019 52.4839C67.1018 51.9796 67.2272 50.1547 68.3821 48.4079C69.5369 46.661 71.284 45.6537 72.2841 46.158C73.2843 46.6622 73.1588 48.4871 72.004 50.234Z" fill="#9B9B9B"/>
<path d="M72.7855 56.2436C71.7808 57.7632 70.2611 58.6394 69.3911 58.2008C68.5211 57.7621 68.6302 56.1747 69.6348 54.6551C70.6394 53.1355 72.1591 52.2593 73.0292 52.6979C73.8992 53.1366 73.7901 54.7241 72.7855 56.2436Z" fill="#9B9B9B"/>
<path d="M66.6855 48.2531C65.6809 49.7727 64.1612 50.6489 63.2911 50.2103C62.4211 49.7716 62.5302 48.1841 63.5348 46.6646C64.5395 45.145 66.0592 44.2688 66.9292 44.7074C67.7992 45.1461 67.6901 46.7335 66.6855 48.2531Z" fill="#9B9B9B"/>
<path d="M68.4037 40.4315C68.4037 42.1861 67.5893 43.6085 66.5847 43.6085C65.58 43.6085 64.7656 42.1861 64.7656 40.4315C64.7656 38.6768 65.58 37.2544 66.5847 37.2544C67.5893 37.2544 68.4037 38.6768 68.4037 40.4315Z" fill="#9B9B9B"/>
<g style="mix-blend-mode:multiply">
<path d="M72.7545 1C66.0445 1 61.8254 12.0979 60.5546 17.6469C55.9796 12.5419 44.0843 3.13081 36.1543 6.32701C28.2244 9.52322 31.3252 21.4202 33.8668 26.9692C27.7669 23.8618 14.4994 20.0441 10.2295 29.6327C5.9595 39.2213 18.1086 45.6137 24.7169 47.6114C17.6003 50.2749 4.58707 57.8659 9.46704 66.9218C14.347 75.9777 25.7338 72.9147 30.8172 70.2512C30.3089 77.3539 31.4272 91.8256 39.9672 92.891C48.5071 93.9564 53.1838 84.9005 54.4546 80.2393C57.2504 87.564 65.1291 98.218 76.567 96.8862C88.4771 95.4995 86.2252 81.793 84.1919 76.9099C91.3085 77.1319 106.304 75.9777 109.354 69.5853C112.404 63.1929 100.967 55.8238 94.8669 52.9384C101.983 51.6066 116.217 47.2118 116.217 40.2867C116.217 33.3616 105.033 32.0742 99.4418 32.2962C104.017 29.6327 111.642 22.7076 105.542 16.3152C99.4418 9.92275 88.7669 14.5395 84.1919 17.6469C83.1753 12.0979 79.4644 1 72.7545 1Z" fill="#FD6565"/>
<path d="M63.2406 42.5814C63.2406 44.7879 62.2165 46.5767 60.9531 46.5767C59.6898 46.5767 58.6657 44.7879 58.6657 42.5814C58.6657 40.3749 59.6898 38.5861 60.9531 38.5861C62.2165 38.5861 63.2406 40.3749 63.2406 42.5814Z" fill="#FD6565"/>
<path d="M74.2873 41.9955C73.614 44.19 72.0496 45.7307 70.7931 45.4367C69.5366 45.1427 69.0639 43.1253 69.7372 40.9308C70.4106 38.7363 71.975 37.1956 73.2315 37.4897C74.4879 37.7837 74.9607 39.801 74.2873 41.9955Z" fill="#FD6565"/>
<path d="M56.8345 41.5826C58.0979 43.4935 58.2351 45.4898 57.141 46.0414C56.0469 46.593 54.1358 45.4911 52.8725 43.5802C51.6091 41.6693 51.4719 39.673 52.566 39.1214C53.6601 38.5698 55.5712 39.6717 56.8345 41.5826Z" fill="#FD6565"/>
<path d="M61.7855 51.3492C61.8262 53.366 60.9232 55.0154 59.7685 55.0332C58.6138 55.051 57.6447 53.4305 57.6039 51.4137C57.5632 49.3969 58.4662 47.7476 59.6209 47.7298C60.7756 47.712 61.7447 49.3325 61.7855 51.3492Z" fill="#FD6565"/>
<path d="M58.2787 55.0666C59.4336 56.8135 59.559 58.6384 58.5589 59.1426C57.5587 59.6469 55.8117 58.6396 54.6568 56.8928C53.5019 55.1459 53.3765 53.321 54.3766 52.8167C55.3768 52.3125 57.1238 53.3198 58.2787 55.0666Z" fill="#FD6565"/>
<path d="M54.3514 47.9222C55.3289 49.4008 55.4351 50.9454 54.5885 51.3722C53.742 51.7991 52.2632 50.9465 51.2857 49.4679C50.3082 47.9893 50.202 46.4446 51.0486 46.0178C51.8951 45.5909 53.3739 46.4436 54.3514 47.9222Z" fill="#FD6565"/>
<path d="M67.496 55.5554C67.5368 57.5721 66.6337 59.2215 65.479 59.2393C64.3243 59.2571 63.3552 57.6366 63.3144 55.6198C63.2737 53.6031 64.1767 51.9537 65.3314 51.9359C66.4861 51.9181 67.4552 53.5386 67.496 55.5554Z" fill="#FD6565"/>
<path d="M72.004 50.234C70.8491 51.9808 69.1021 52.9882 68.1019 52.4839C67.1018 51.9796 67.2272 50.1547 68.3821 48.4079C69.5369 46.661 71.284 45.6537 72.2841 46.158C73.2843 46.6622 73.1588 48.4871 72.004 50.234Z" fill="#FD6565"/>
<path d="M72.7855 56.2436C71.7808 57.7632 70.2611 58.6394 69.3911 58.2008C68.5211 57.7621 68.6302 56.1747 69.6348 54.6551C70.6394 53.1355 72.1591 52.2593 73.0292 52.6979C73.8992 53.1366 73.7901 54.7241 72.7855 56.2436Z" fill="#FD6565"/>
<path d="M66.6855 48.2531C65.6809 49.7727 64.1612 50.6489 63.2911 50.2103C62.4211 49.7716 62.5302 48.1841 63.5348 46.6646C64.5395 45.145 66.0592 44.2688 66.9292 44.7074C67.7992 45.1461 67.6901 46.7335 66.6855 48.2531Z" fill="#FD6565"/>
<path d="M68.4037 40.4315C68.4037 42.1861 67.5893 43.6085 66.5847 43.6085C65.58 43.6085 64.7656 42.1861 64.7656 40.4315C64.7656 38.6768 65.58 37.2544 66.5847 37.2544C67.5893 37.2544 68.4037 38.6768 68.4037 40.4315Z" fill="#FD6565"/>
</g>
<g style="mix-blend-mode:soft-light">
<path d="M72.7545 1C66.0445 1 61.8254 12.0979 60.5546 17.6469C55.9796 12.5419 44.0843 3.13081 36.1543 6.32701C28.2244 9.52322 31.3252 21.4202 33.8668 26.9692C27.7669 23.8618 14.4994 20.0441 10.2295 29.6327C5.9595 39.2213 18.1086 45.6137 24.7169 47.6114C17.6003 50.2749 4.58707 57.8659 9.46704 66.9218C14.347 75.9777 25.7338 72.9147 30.8172 70.2512C30.3089 77.3539 31.4272 91.8256 39.9672 92.891C48.5071 93.9564 53.1838 84.9005 54.4546 80.2393C57.2504 87.564 65.1291 98.218 76.567 96.8862C88.4771 95.4995 86.2252 81.793 84.1919 76.9099C91.3085 77.1319 106.304 75.9777 109.354 69.5853C112.404 63.1929 100.967 55.8238 94.8669 52.9384C101.983 51.6066 116.217 47.2118 116.217 40.2867C116.217 33.3616 105.033 32.0742 99.4418 32.2962C104.017 29.6327 111.642 22.7076 105.542 16.3152C99.4418 9.92275 88.7669 14.5395 84.1919 17.6469C83.1753 12.0979 79.4644 1 72.7545 1Z" fill="#FD6565"/>
<path d="M63.2406 42.5814C63.2406 44.7879 62.2165 46.5767 60.9531 46.5767C59.6898 46.5767 58.6657 44.7879 58.6657 42.5814C58.6657 40.3749 59.6898 38.5861 60.9531 38.5861C62.2165 38.5861 63.2406 40.3749 63.2406 42.5814Z" fill="#FD6565"/>
<path d="M74.2873 41.9955C73.614 44.19 72.0496 45.7307 70.7931 45.4367C69.5366 45.1427 69.0639 43.1253 69.7372 40.9308C70.4106 38.7363 71.975 37.1956 73.2315 37.4897C74.4879 37.7837 74.9607 39.801 74.2873 41.9955Z" fill="#FD6565"/>
<path d="M56.8345 41.5826C58.0979 43.4935 58.2351 45.4898 57.141 46.0414C56.0469 46.593 54.1358 45.4911 52.8725 43.5802C51.6091 41.6693 51.4719 39.673 52.566 39.1214C53.6601 38.5698 55.5712 39.6717 56.8345 41.5826Z" fill="#FD6565"/>
<path d="M61.7855 51.3492C61.8262 53.366 60.9232 55.0154 59.7685 55.0332C58.6138 55.051 57.6447 53.4305 57.6039 51.4137C57.5632 49.3969 58.4662 47.7476 59.6209 47.7298C60.7756 47.712 61.7447 49.3325 61.7855 51.3492Z" fill="#FD6565"/>
<path d="M58.2787 55.0666C59.4336 56.8135 59.559 58.6384 58.5589 59.1426C57.5587 59.6469 55.8117 58.6396 54.6568 56.8928C53.5019 55.1459 53.3765 53.321 54.3766 52.8167C55.3768 52.3125 57.1238 53.3198 58.2787 55.0666Z" fill="#FD6565"/>
<path d="M54.3514 47.9222C55.3289 49.4008 55.4351 50.9454 54.5885 51.3722C53.742 51.7991 52.2632 50.9465 51.2857 49.4679C50.3082 47.9893 50.202 46.4446 51.0486 46.0178C51.8951 45.5909 53.3739 46.4436 54.3514 47.9222Z" fill="#FD6565"/>
<path d="M67.496 55.5554C67.5368 57.5721 66.6337 59.2215 65.479 59.2393C64.3243 59.2571 63.3552 57.6366 63.3144 55.6198C63.2737 53.6031 64.1767 51.9537 65.3314 51.9359C66.4861 51.9181 67.4552 53.5386 67.496 55.5554Z" fill="#FD6565"/>
<path d="M72.004 50.234C70.8491 51.9808 69.1021 52.9882 68.1019 52.4839C67.1018 51.9796 67.2272 50.1547 68.3821 48.4079C69.5369 46.661 71.284 45.6537 72.2841 46.158C73.2843 46.6622 73.1588 48.4871 72.004 50.234Z" fill="#FD6565"/>
<path d="M72.7855 56.2436C71.7808 57.7632 70.2611 58.6394 69.3911 58.2008C68.5211 57.7621 68.6302 56.1747 69.6348 54.6551C70.6394 53.1355 72.1591 52.2593 73.0292 52.6979C73.8992 53.1366 73.7901 54.7241 72.7855 56.2436Z" fill="#FD6565"/>
<path d="M66.6855 48.2531C65.6809 49.7727 64.1612 50.6489 63.2911 50.2103C62.4211 49.7716 62.5302 48.1841 63.5348 46.6646C64.5395 45.145 66.0592 44.2688 66.9292 44.7074C67.7992 45.1461 67.6901 46.7335 66.6855 48.2531Z" fill="#FD6565"/>
<path d="M68.4037 40.4315C68.4037 42.1861 67.5893 43.6085 66.5847 43.6085C65.58 43.6085 64.7656 42.1861 64.7656 40.4315C64.7656 38.6768 65.58 37.2544 66.5847 37.2544C67.5893 37.2544 68.4037 38.6768 68.4037 40.4315Z" fill="#FD6565"/>
</g>
</svg>
