<svg width="138" height="201" viewBox="0 0 138 201" fill="none" xmlns="http://www.w3.org/2000/svg">
<path d="M71.5803 55C74.0397 69.6465 77.4829 103.883 71.5803 123.655C64.202 148.371 57.3912 184.072 67.0398 200" stroke="#0A3019" stroke-linecap="round"/>
<path d="M71.4129 108.3C71.4129 114.913 65.5223 117.944 62.577 118.633C60.692 128.553 56.6864 130 53.7411 130C36.305 128.76 37.2475 109.85 41.3709 105.716C50.2068 95.8994 71.4129 100.033 71.4129 108.3Z" fill="#87C12F"/>
<g style="mix-blend-mode:multiply">
<path fill-rule="evenodd" clip-rule="evenodd" d="M42.1115 105.972C42.302 105.736 42.6763 105.679 42.9476 105.845L71.1573 123.052C71.4286 123.217 71.4941 123.542 71.3036 123.778C71.1131 124.014 70.7388 124.071 70.4675 123.905L42.2578 106.698C41.9865 106.533 41.921 106.208 42.1115 105.972Z" fill="#87C12F"/>
</g>
<g style="mix-blend-mode:multiply">
<path fill-rule="evenodd" clip-rule="evenodd" d="M55.9751 100.033C56.2788 99.9332 56.6174 100.068 56.7313 100.334C57.4653 102.047 58.0091 105.053 58.395 108.059C58.7834 111.085 59.0193 114.176 59.1177 116.102L59.1372 116.485L58.7235 116.61C56.5602 117.268 53.0822 118.253 49.6703 119.075C46.2857 119.89 42.8811 120.566 40.9092 120.566C40.5848 120.566 40.3218 120.336 40.3218 120.052C40.3218 119.768 40.5848 119.538 40.9092 119.538C42.6966 119.538 45.949 118.905 49.3586 118.083C52.5306 117.319 55.7649 116.412 57.9235 115.764C57.8158 113.845 57.5877 110.979 57.2276 108.174C56.8401 105.155 56.307 102.272 55.6313 100.695C55.5174 100.429 55.6713 100.133 55.9751 100.033ZM49.0696 101.031C49.3921 101.001 49.6818 101.205 49.7166 101.487L50.9527 111.512L39.8142 112.849C39.4928 112.888 39.1966 112.691 39.1525 112.41C39.1084 112.128 39.3332 111.869 39.6546 111.83L49.6622 110.629L48.5486 101.598C48.5138 101.315 48.7471 101.062 49.0696 101.031ZM64.8233 101.564C65.1341 101.483 65.4615 101.637 65.5547 101.909C68.4515 110.361 64.3361 116.018 62.5379 118.288C61.1653 120.021 58.7554 122.044 55.8068 123.737C52.8559 125.432 49.3215 126.821 45.6859 127.245C45.3644 127.283 45.069 127.085 45.0261 126.804C44.9832 126.522 45.2091 126.264 45.5307 126.226C48.9438 125.828 52.3123 124.514 55.1624 122.877C58.0149 121.239 60.3041 119.303 61.5725 117.702C63.2985 115.524 67.1717 110.205 64.4295 102.204C64.3363 101.932 64.5126 101.646 64.8233 101.564Z" fill="#87C12F"/>
</g>
<path d="M62.276 134.769C62.276 147.335 73.4681 153.094 79.0642 154.403C82.6457 173.251 90.2563 176 95.8523 176C128.981 173.644 127.19 137.714 119.356 129.861C102.568 111.209 62.276 119.062 62.276 134.769Z" fill="#87C12F"/>
<g style="mix-blend-mode:multiply">
<path fill-rule="evenodd" clip-rule="evenodd" d="M117.948 130.347C117.586 129.899 116.875 129.791 116.359 130.105L62.7611 162.798C62.2457 163.113 62.1212 163.731 62.4831 164.179C62.845 164.626 63.5563 164.734 64.0717 164.42L117.67 131.727C118.186 131.412 118.31 130.794 117.948 130.347Z" fill="#87C12F"/>
</g>
<g style="mix-blend-mode:multiply">
<path fill-rule="evenodd" clip-rule="evenodd" d="M91.6072 119.062C91.0301 118.873 90.3868 119.129 90.1704 119.634C88.7757 122.89 87.7425 128.601 87.0093 134.312C86.2713 140.061 85.8232 145.935 85.6363 149.593L85.5991 150.321L86.3852 150.56C90.4954 151.809 97.1037 153.681 103.586 155.242C110.017 156.791 116.486 158.075 120.232 158.075C120.849 158.075 121.348 157.638 121.348 157.099C121.348 156.559 120.849 156.122 120.232 156.122C116.836 156.122 110.657 154.919 104.178 153.359C98.1517 151.907 92.0065 150.182 87.9052 148.952C88.1098 145.305 88.5432 139.86 89.2274 134.53C89.9637 128.795 90.9765 123.317 92.2603 120.32C92.4767 119.815 92.1843 119.252 91.6072 119.062ZM104.728 120.96C104.115 120.902 103.564 121.29 103.498 121.826L101.15 140.873L122.313 143.413C122.923 143.486 123.486 143.113 123.57 142.578C123.654 142.044 123.227 141.551 122.616 141.478L103.602 139.195L105.717 122.036C105.784 121.499 105.34 121.018 104.728 120.96ZM74.7955 121.972C74.2051 121.817 73.5829 122.11 73.4058 122.627C67.902 138.686 75.7211 149.435 79.1379 153.748C81.7458 157.04 86.3246 160.883 91.9268 164.1C97.5336 167.32 104.249 169.96 111.157 170.766C111.767 170.838 112.329 170.462 112.41 169.927C112.492 169.392 112.062 168.901 111.452 168.83C104.967 168.073 98.5664 165.576 93.1512 162.467C87.7315 159.355 83.382 155.676 80.9721 152.634C77.6926 148.495 70.3336 138.39 75.5438 123.188C75.7209 122.672 75.3859 122.127 74.7955 121.972Z" fill="#87C12F"/>
</g>
<path d="M56.8542 166.714C52.5358 164.126 49.0429 161.662 46.2504 159.336C45.6005 158.795 44.9885 158.261 44.4129 157.735C43.3196 156.736 42.3574 155.764 41.5157 154.822C40.0572 153.188 38.9602 151.641 38.1686 150.188C37.3057 148.603 36.8056 147.129 36.5956 145.773C36.3392 144.119 36.5151 142.641 36.9909 141.355C37.6374 139.608 38.8373 138.215 40.2592 137.213C41.2631 136.506 42.3775 135.994 43.4858 135.69C46.3298 135.135 48.6893 135.409 50.6286 136.295C51.7025 136.785 52.6476 137.463 53.4748 138.292C54.0155 138.834 54.5058 139.44 54.9488 140.1C55.717 141.245 56.3429 142.553 56.8425 143.97C57.3858 145.511 57.7796 147.182 58.0445 148.912C58.2906 150.521 58.4254 152.181 58.4652 153.838C58.4998 155.278 58.4628 156.715 58.365 158.113C58.1398 161.331 57.5925 164.345 56.8542 166.714Z" fill="#E27FF0"/>
<g style="mix-blend-mode:multiply">
<path d="M40.6485 136.952L44.7726 138.32L50.1472 136.091C50.3104 136.155 50.4708 136.223 50.6285 136.295C50.7516 136.351 50.873 136.41 50.9928 136.471C50.9519 136.536 50.8882 136.591 50.8059 136.625L44.8075 139.113L40.1115 137.555C40.0423 137.532 39.9841 137.494 39.9399 137.448C40.0449 137.368 40.1514 137.289 40.2591 137.213C40.3872 137.123 40.5171 137.036 40.6485 136.952Z" fill="#E27FF0"/>
<path d="M36.8704 141.705C36.9081 141.587 36.9482 141.47 36.9908 141.355C37.0348 141.236 37.0813 141.119 37.1303 141.004L46.3194 142.119L53.1925 138.02C53.288 138.109 53.3821 138.2 53.4746 138.292C53.5655 138.383 53.655 138.476 53.7431 138.571C53.732 138.579 53.7205 138.587 53.7083 138.594L46.5213 142.881L36.9333 141.717C36.9117 141.714 36.8907 141.71 36.8704 141.705Z" fill="#E27FF0"/>
<path d="M36.6618 146.156C36.6371 146.027 36.615 145.9 36.5954 145.774C36.5766 145.652 36.56 145.531 36.5458 145.411C36.587 145.407 36.6297 145.408 36.6726 145.415L48.5014 147.353L54.611 139.888C54.6448 139.847 54.6865 139.813 54.7331 139.789C54.8062 139.891 54.878 139.995 54.9487 140.1C55.0256 140.215 55.1011 140.331 55.1751 140.449L48.8679 148.156L36.6618 146.156Z" fill="#E27FF0"/>
<path d="M38.4112 150.62C38.3273 150.475 38.2464 150.331 38.1684 150.188C38.1082 150.077 38.0497 149.967 37.9929 149.857C38.0775 149.823 38.1759 149.812 38.2733 149.835L50.78 152.67L56.4801 143.792C56.5339 143.708 56.6197 143.65 56.7165 143.623C56.7593 143.738 56.8012 143.854 56.8423 143.97C56.899 144.131 56.954 144.293 57.0074 144.457L51.1903 153.517L38.4112 150.62Z" fill="#E27FF0"/>
<path d="M41.9855 155.338C41.8249 155.165 41.6682 154.993 41.5155 154.822C41.4295 154.726 41.3447 154.629 41.2611 154.534C41.366 154.462 41.5078 154.436 41.6435 154.474L52.9197 157.65L57.6678 148.758C57.7298 148.642 57.8524 148.568 57.987 148.551C58.0068 148.671 58.0259 148.792 58.0443 148.913C58.0788 149.138 58.1111 149.364 58.1412 149.591L53.3619 158.542L41.9855 155.338Z" fill="#E27FF0"/>
<path d="M45.2762 158.506C44.9797 158.248 44.692 157.991 44.4128 157.736C44.3162 157.647 44.2207 157.559 44.1262 157.471C44.2482 157.37 44.4338 157.339 44.5942 157.407L54.6688 161.671L58.0758 153.711C58.1372 153.568 58.2904 153.478 58.4548 153.474C58.4587 153.595 58.4621 153.717 58.4651 153.839C58.4732 154.175 58.4773 154.511 58.4777 154.847L55.1269 162.676L45.2762 158.506Z" fill="#E27FF0"/>
</g>
<g style="mix-blend-mode:multiply">
<path d="M57.0945 165.895C57.0946 165.895 57.0945 165.895 57.0945 165.895L44.0368 135.592C43.8552 135.621 43.6715 135.653 43.4857 135.69C43.311 135.738 43.136 135.791 42.9614 135.849L42.9669 135.862L56.3328 166.881L60.7077 177.412C60.8125 177.665 61.1308 177.794 61.4187 177.702C61.7065 177.609 61.8548 177.33 61.75 177.078L57.3752 166.546L57.0945 165.895Z" fill="#E27FF0"/>
</g>
<path d="M83.337 104.629C88.418 103.532 92.6763 102.298 96.2233 100.979C97.0488 100.671 97.8357 100.36 98.5856 100.044C100.01 99.4441 101.3 98.8299 102.466 98.2057C104.487 97.1242 106.134 96.0128 107.458 94.8946C108.901 93.6758 109.96 92.449 110.7 91.2443C111.603 89.7737 112.031 88.3359 112.101 86.9855C112.195 85.1511 111.63 83.4779 110.7 82.103C110.043 81.1323 109.205 80.3102 108.289 79.6849C105.848 78.2921 103.529 77.8238 101.358 78.0573C100.156 78.1865 98.9992 78.531 97.8925 79.0529C97.169 79.3941 96.467 79.811 95.7875 80.2932C94.6093 81.1293 93.499 82.1617 92.4633 83.3352C91.3369 84.6114 90.2986 86.0546 89.3569 87.5939C88.4818 89.0244 87.6902 90.5378 86.9886 92.0775C86.3793 93.4148 85.838 94.7718 85.3692 96.1114C84.2903 99.194 83.5949 102.184 83.337 104.629Z" fill="#E27FF0"/>
<g style="mix-blend-mode:multiply">
<path d="M110.44 81.7389L106.03 81.7529L101.89 78.0145C101.712 78.0241 101.535 78.0384 101.358 78.0574C101.22 78.0722 101.083 78.0899 100.946 78.1103C100.959 78.1837 100.996 78.2546 101.06 78.3118L105.68 82.4841L110.701 82.4682C110.775 82.4679 110.845 82.4507 110.905 82.4207C110.839 82.3132 110.771 82.2073 110.7 82.1031C110.616 81.9793 110.53 81.8578 110.44 81.7389Z" fill="#E27FF0"/>
<path d="M112.073 87.35C112.085 87.2279 112.094 87.1064 112.101 86.9857C112.107 86.8609 112.11 86.7369 112.111 86.6137L103.059 84.835L98.2659 78.8846C98.1408 78.9385 98.0164 78.9947 97.8925 79.0531C97.7709 79.1104 97.6499 79.1699 97.5295 79.2315C97.5365 79.2425 97.5443 79.2533 97.5528 79.2638L102.565 85.486L112.01 87.3419C112.031 87.3461 112.052 87.3488 112.073 87.35Z" fill="#E27FF0"/>
<path d="M110.485 91.582C110.559 91.4693 110.631 91.3568 110.7 91.2444C110.766 91.1363 110.83 91.0282 110.892 90.9204C110.855 90.9037 110.815 90.8915 110.771 90.8849L98.9179 89.066L96.1888 80.1982C96.1738 80.1492 96.148 80.1052 96.1144 80.0677C96.0048 80.1412 95.8959 80.2165 95.7875 80.2934C95.6696 80.3771 95.5523 80.4628 95.4357 80.5504L98.253 89.7051L110.485 91.582Z" fill="#E27FF0"/>
<path d="M107.057 95.2249C107.194 95.1149 107.327 95.0049 107.458 94.8948C107.559 94.8097 107.658 94.7245 107.755 94.6393C107.689 94.5807 107.601 94.541 107.501 94.5318L94.6535 93.3444L92.8741 83.2794C92.8573 83.1844 92.8002 83.1037 92.7205 83.0486C92.6343 83.1432 92.5485 83.2388 92.4633 83.3353C92.3459 83.4684 92.2294 83.6033 92.1138 83.7399L93.9297 94.0116L107.057 95.2249Z" fill="#E27FF0"/>
<path d="M101.82 98.5445C102.039 98.4319 102.255 98.3191 102.466 98.2058C102.586 98.142 102.703 98.0781 102.82 98.0141C102.75 97.9152 102.628 97.8471 102.486 97.8412L90.6537 97.3508L89.7714 87.5653C89.7598 87.4375 89.6747 87.3304 89.5554 87.2733C89.4888 87.3798 89.4226 87.4867 89.3569 87.5941C89.2344 87.7944 89.1135 87.9964 88.9942 88.1998L89.8824 98.0497L101.82 98.5445Z" fill="#E27FF0"/>
<path d="M97.4681 100.501C97.8494 100.349 98.2219 100.197 98.5856 100.044C98.7114 99.9911 98.8361 99.938 98.9598 99.8848C98.8864 99.7519 98.7248 99.6662 98.5474 99.6805L87.4044 100.579V92.0777C87.4044 91.9245 87.2969 91.7934 87.1445 91.7392C87.0921 91.8519 87.0401 91.9647 86.9887 92.0777C86.8463 92.3902 86.7076 92.7039 86.5726 93.0181V101.379L97.4681 100.501Z" fill="#E27FF0"/>
</g>
<g style="mix-blend-mode:multiply">
<path d="M83.4404 103.789C83.4404 103.788 83.4404 103.789 83.4404 103.789L107.813 79.4237C107.971 79.5068 108.13 79.5939 108.29 79.6848C108.434 79.7834 108.577 79.887 108.717 79.9952L108.706 80.006L83.7586 104.946L75.4412 113.463C75.2419 113.667 74.8918 113.691 74.6593 113.516C74.4268 113.341 74.3999 113.034 74.5992 112.83L82.9166 104.312L83.4404 103.789Z" fill="#E27FF0"/>
</g>
<path d="M39.524 7.80153C25.5776 13.2321 27.902 28.1662 30.8075 34.9544C24.9965 36.3686 13.5684 42.5912 14.3432 56.1676C15.1179 69.7441 32.7446 71.4411 41.4611 70.5926C39.1367 88.9208 57.2799 94.6342 66.642 95.1999C91.4356 94.5211 94.4056 77.9465 92.7915 69.7441C108.287 79.9264 118.618 72.8553 121.846 68.047C129.594 51.0765 114.098 41.177 105.382 38.3485C117.779 27.4874 110.547 16.8525 105.382 12.8927C86.7868 -0.68373 73.7444 12.327 69.5475 20.5294C65.3507 14.0241 53.4703 2.37096 39.524 7.80153Z" fill="#CDCDCD"/>
<path d="M54.0142 10.6425C42.4345 15.1052 39.1538 31.0751 41.5662 36.6534C36.7414 37.8156 27.2526 42.9291 27.8959 54.0859C28.5392 65.2426 43.1746 66.6372 50.4119 65.9399C48.4819 81.0015 61.7368 83.9996 69.5102 84.4645C86.9431 83.616 90.2203 72.6804 88.8801 65.9399C101.746 74.3075 114.475 67.7994 117.156 63.848C123.589 49.9021 115.565 40.9683 108.328 38.644C118.621 29.7186 111.455 17.6932 108.25 14.8852C94.6911 3.00582 79.1951 3.85438 69.5102 19.9763C67.5732 16.5822 61.7622 7.6565 54.0142 10.6425Z" fill="white"/>
<path d="M45.4155 85.677L64.7486 56.3391L41.4689 76.735C41.3456 75.8819 41.2743 74.9926 41.2601 74.0661L63.1231 54.9113L32.3587 70.473C31.206 70.3368 30.0388 70.1501 28.8814 69.9038L61.977 53.1629L19.3101 63.1793L18.7143 61.2323L61.3813 51.2158L17.2092 51.2159L17.209 49.2004L61.3832 49.2004L21.4098 39.8164C22.1035 39.2345 22.8172 38.706 23.5355 38.2288L61.9765 47.2531L29.4331 30.7916C29.23 29.9665 29.0541 29.0993 28.9172 28.2032L63.1277 45.508L31.8926 18.1421L31.9598 18.0832L30.0945 16.4489C30.3848 15.7804 30.7231 15.1263 31.1141 14.4919L64.5697 43.8033L42.6674 10.5666L44.6596 9.55885L66.746 43.0744L56.2157 8.64292C57.2092 9.11776 58.1661 9.65181 59.0823 10.2289L68.9678 42.5521L68.9678 19.6688C69.1748 19.964 69.3682 20.2514 69.5476 20.5295C70.0138 19.6184 70.5891 18.648 71.2689 17.6614L71.269 42.5501L81.608 8.74382C82.4667 8.35645 83.3622 8.02248 84.2933 7.7533L73.4919 43.0711L95.5761 9.55842L97.5683 10.5661L97.5697 10.5669L75.4846 44.081L106.718 16.717L106.719 16.7178L108.345 18.1427L77.1121 45.5071L112.032 27.8433C111.876 28.7336 111.621 29.6426 111.253 30.5659L78.2642 47.2524L109.36 39.9525C110.251 40.38 111.163 40.8632 112.073 41.4024L78.8563 49.2004L120.764 49.2004C121.208 49.8456 121.617 50.5174 121.982 51.2159L78.8565 51.2158L121.523 61.232L120.928 63.1789L78.2597 53.1623L116.516 72.5134L116.241 72.9301C115.662 73.2362 115.047 73.5186 114.397 73.7691L77.4285 55.0692L96.8608 72.0944C95.5474 71.442 94.1905 70.6634 92.7916 69.7441C92.9139 70.3659 93.0099 71.0357 93.0721 71.7431L75.4831 56.3329L91.8089 81.1072C91.507 81.9087 91.1476 82.7068 90.724 83.4924L73.4907 57.3409L83.7322 90.828C83.0933 91.2246 82.415 91.6009 81.6951 91.9542L71.269 57.8634V94.865C70.5258 94.9553 69.7589 95.0292 68.9678 95.0859L68.9678 57.8638L58.0461 93.5751C57.3308 93.3502 56.6113 93.0999 55.894 92.8226L66.7444 57.3443L46.9712 87.3501C46.4233 86.8241 45.9029 86.2668 45.4155 85.677Z" fill="#9B9B9B"/>
<path d="M80.0475 34.0886C85.4678 36.1643 84.5644 41.8724 83.4352 44.467C85.6936 45.0075 90.1352 47.3859 89.8341 52.5751C89.5329 57.7642 82.6823 58.4129 79.2947 58.0886C80.198 65.094 73.1467 67.2778 69.5081 67.494C59.872 67.2345 58.7177 60.8994 59.3451 57.7642C53.3225 61.6561 49.3075 58.9534 48.0528 57.1156C45.0416 50.6291 51.0641 46.8453 54.4518 45.7643C49.6337 41.6129 52.4442 37.548 54.4518 36.0345C61.6788 30.8454 66.7477 35.8183 68.3788 38.9534C70.01 36.467 74.6272 32.0129 80.0475 34.0886Z" fill="#9B9B9B"/>
<path d="M75.263 42.306C77.9732 43.3438 77.5215 46.1978 76.9568 47.4951C78.0861 47.7654 80.3069 48.9546 80.1563 51.5492C80.0057 54.1438 76.5804 54.4681 74.8866 54.3059C75.3383 57.8086 71.8126 58.9005 69.9933 59.0086C65.1753 58.8789 64.5981 55.7113 64.9118 54.1438C61.9005 56.0897 59.893 54.7384 59.2657 53.8195C57.76 50.5762 60.7713 48.6843 62.4651 48.1438C60.0561 46.0681 61.4614 44.0357 62.4651 43.2789C66.0786 40.6843 68.6131 43.1708 69.4287 44.7384C70.2442 43.4951 72.5529 41.2681 75.263 42.306Z" fill="white"/>
<g style="mix-blend-mode:multiply">
<path d="M39.524 7.80153C25.5776 13.2321 27.902 28.1662 30.8075 34.9544C24.9965 36.3686 13.5684 42.5912 14.3432 56.1676C15.1179 69.7441 32.7446 71.4411 41.4611 70.5926C39.1367 88.9208 57.2799 94.6342 66.642 95.1999C91.4356 94.5211 94.4056 77.9465 92.7915 69.7441C108.287 79.9264 118.618 72.8553 121.846 68.047C129.594 51.0765 114.098 41.177 105.382 38.3485C117.779 27.4874 110.547 16.8525 105.382 12.8927C86.7868 -0.68373 73.7444 12.327 69.5475 20.5294C65.3507 14.0241 53.4703 2.37096 39.524 7.80153Z" fill="#87C12F"/>
<path d="M54.0142 10.6425C42.4345 15.1052 39.1538 31.0751 41.5662 36.6534C36.7414 37.8156 27.2526 42.9291 27.8959 54.0859C28.5392 65.2426 43.1746 66.6372 50.4119 65.9399C48.4819 81.0015 61.7368 83.9996 69.5102 84.4645C86.9431 83.616 90.2203 72.6804 88.8801 65.9399C101.746 74.3075 114.475 67.7994 117.156 63.848C123.589 49.9021 115.565 40.9683 108.328 38.644C118.621 29.7186 111.455 17.6932 108.25 14.8852C94.6911 3.00582 79.1951 3.85438 69.5102 19.9763C67.5732 16.5822 61.7622 7.6565 54.0142 10.6425Z" fill="#87C12F"/>
<path d="M45.4155 85.677L64.7486 56.3391L41.4689 76.735C41.3456 75.8819 41.2743 74.9926 41.2601 74.0661L63.1231 54.9113L32.3587 70.473C31.206 70.3368 30.0388 70.1501 28.8814 69.9038L61.977 53.1629L19.3101 63.1793L18.7143 61.2323L61.3813 51.2158L17.2092 51.2159L17.209 49.2004L61.3832 49.2004L21.4098 39.8164C22.1035 39.2345 22.8172 38.706 23.5355 38.2288L61.9765 47.2531L29.4331 30.7916C29.23 29.9665 29.0541 29.0993 28.9172 28.2032L63.1277 45.508L31.8926 18.1421L31.9598 18.0832L30.0945 16.4489C30.3848 15.7804 30.7231 15.1263 31.1141 14.4919L64.5697 43.8033L42.6674 10.5666L44.6596 9.55885L66.746 43.0744L56.2157 8.64292C57.2092 9.11776 58.1661 9.65181 59.0823 10.2289L68.9678 42.5521L68.9678 19.6688C69.1748 19.964 69.3682 20.2514 69.5476 20.5295C70.0138 19.6184 70.5891 18.648 71.2689 17.6614L71.269 42.5501L81.608 8.74382C82.4667 8.35645 83.3622 8.02248 84.2933 7.7533L73.4919 43.0711L95.5761 9.55842L97.5683 10.5661L97.5697 10.5669L75.4846 44.081L106.718 16.717L106.719 16.7178L108.345 18.1427L77.1121 45.5071L112.032 27.8433C111.876 28.7336 111.621 29.6426 111.253 30.5659L78.2642 47.2524L109.36 39.9525C110.251 40.38 111.163 40.8632 112.073 41.4024L78.8563 49.2004L120.764 49.2004C121.208 49.8456 121.617 50.5174 121.982 51.2159L78.8565 51.2158L121.523 61.232L120.928 63.1789L78.2597 53.1623L116.516 72.5134L116.241 72.9301C115.662 73.2362 115.047 73.5186 114.397 73.7691L77.4285 55.0692L96.8608 72.0944C95.5474 71.442 94.1905 70.6634 92.7916 69.7441C92.9139 70.3659 93.0099 71.0357 93.0721 71.7431L75.4831 56.3329L91.8089 81.1072C91.507 81.9087 91.1476 82.7068 90.724 83.4924L73.4907 57.3409L83.7322 90.828C83.0933 91.2246 82.415 91.6009 81.6951 91.9542L71.269 57.8634V94.865C70.5258 94.9553 69.7589 95.0292 68.9678 95.0859L68.9678 57.8638L58.0461 93.5751C57.3308 93.3502 56.6113 93.0999 55.894 92.8226L66.7444 57.3443L46.9712 87.3501C46.4233 86.8241 45.9029 86.2668 45.4155 85.677Z" fill="#87C12F"/>
<path d="M80.0475 34.0886C85.4678 36.1643 84.5644 41.8724 83.4352 44.467C85.6936 45.0075 90.1352 47.3859 89.8341 52.5751C89.5329 57.7642 82.6823 58.4129 79.2947 58.0886C80.198 65.094 73.1467 67.2778 69.5081 67.494C59.872 67.2345 58.7177 60.8994 59.3451 57.7642C53.3225 61.6561 49.3075 58.9534 48.0528 57.1156C45.0416 50.6291 51.0641 46.8453 54.4518 45.7643C49.6337 41.6129 52.4442 37.548 54.4518 36.0345C61.6788 30.8454 66.7477 35.8183 68.3788 38.9534C70.01 36.467 74.6272 32.0129 80.0475 34.0886Z" fill="#87C12F"/>
<path d="M75.263 42.306C77.9732 43.3438 77.5215 46.1978 76.9568 47.4951C78.0861 47.7654 80.3069 48.9546 80.1563 51.5492C80.0057 54.1438 76.5804 54.4681 74.8866 54.3059C75.3383 57.8086 71.8126 58.9005 69.9933 59.0086C65.1753 58.8789 64.5981 55.7113 64.9118 54.1438C61.9005 56.0897 59.893 54.7384 59.2657 53.8195C57.76 50.5762 60.7713 48.6843 62.4651 48.1438C60.0561 46.0681 61.4614 44.0357 62.4651 43.2789C66.0786 40.6843 68.6131 43.1708 69.4287 44.7384C70.2442 43.4951 72.5529 41.2681 75.263 42.306Z" fill="#87C12F"/>
</g>
<g style="mix-blend-mode:soft-light">
<path d="M39.524 7.80153C25.5776 13.2321 27.902 28.1662 30.8075 34.9544C24.9965 36.3686 13.5684 42.5912 14.3432 56.1676C15.1179 69.7441 32.7446 71.4411 41.4611 70.5926C39.1367 88.9208 57.2799 94.6342 66.642 95.1999C91.4356 94.5211 94.4056 77.9465 92.7915 69.7441C108.287 79.9264 118.618 72.8553 121.846 68.047C129.594 51.0765 114.098 41.177 105.382 38.3485C117.779 27.4874 110.547 16.8525 105.382 12.8927C86.7868 -0.68373 73.7444 12.327 69.5475 20.5294C65.3507 14.0241 53.4703 2.37096 39.524 7.80153Z" fill="#87C12F"/>
<path d="M54.0142 10.6425C42.4345 15.1052 39.1538 31.0751 41.5662 36.6534C36.7414 37.8156 27.2526 42.9291 27.8959 54.0859C28.5392 65.2426 43.1746 66.6372 50.4119 65.9399C48.4819 81.0015 61.7368 83.9996 69.5102 84.4645C86.9431 83.616 90.2203 72.6804 88.8801 65.9399C101.746 74.3075 114.475 67.7994 117.156 63.848C123.589 49.9021 115.565 40.9683 108.328 38.644C118.621 29.7186 111.455 17.6932 108.25 14.8852C94.6911 3.00582 79.1951 3.85438 69.5102 19.9763C67.5732 16.5822 61.7622 7.6565 54.0142 10.6425Z" fill="#87C12F"/>
<path d="M45.4155 85.677L64.7486 56.3391L41.4689 76.735C41.3456 75.8819 41.2743 74.9926 41.2601 74.0661L63.1231 54.9113L32.3587 70.473C31.206 70.3368 30.0388 70.1501 28.8814 69.9038L61.977 53.1629L19.3101 63.1793L18.7143 61.2323L61.3813 51.2158L17.2092 51.2159L17.209 49.2004L61.3832 49.2004L21.4098 39.8164C22.1035 39.2345 22.8172 38.706 23.5355 38.2288L61.9765 47.2531L29.4331 30.7916C29.23 29.9665 29.0541 29.0993 28.9172 28.2032L63.1277 45.508L31.8926 18.1421L31.9598 18.0832L30.0945 16.4489C30.3848 15.7804 30.7231 15.1263 31.1141 14.4919L64.5697 43.8033L42.6674 10.5666L44.6596 9.55885L66.746 43.0744L56.2157 8.64292C57.2092 9.11776 58.1661 9.65181 59.0823 10.2289L68.9678 42.5521L68.9678 19.6688C69.1748 19.964 69.3682 20.2514 69.5476 20.5295C70.0138 19.6184 70.5891 18.648 71.2689 17.6614L71.269 42.5501L81.608 8.74382C82.4667 8.35645 83.3622 8.02248 84.2933 7.7533L73.4919 43.0711L95.5761 9.55842L97.5683 10.5661L97.5697 10.5669L75.4846 44.081L106.718 16.717L106.719 16.7178L108.345 18.1427L77.1121 45.5071L112.032 27.8433C111.876 28.7336 111.621 29.6426 111.253 30.5659L78.2642 47.2524L109.36 39.9525C110.251 40.38 111.163 40.8632 112.073 41.4024L78.8563 49.2004L120.764 49.2004C121.208 49.8456 121.617 50.5174 121.982 51.2159L78.8565 51.2158L121.523 61.232L120.928 63.1789L78.2597 53.1623L116.516 72.5134L116.241 72.9301C115.662 73.2362 115.047 73.5186 114.397 73.7691L77.4285 55.0692L96.8608 72.0944C95.5474 71.442 94.1905 70.6634 92.7916 69.7441C92.9139 70.3659 93.0099 71.0357 93.0721 71.7431L75.4831 56.3329L91.8089 81.1072C91.507 81.9087 91.1476 82.7068 90.724 83.4924L73.4907 57.3409L83.7322 90.828C83.0933 91.2246 82.415 91.6009 81.6951 91.9542L71.269 57.8634V94.865C70.5258 94.9553 69.7589 95.0292 68.9678 95.0859L68.9678 57.8638L58.0461 93.5751C57.3308 93.3502 56.6113 93.0999 55.894 92.8226L66.7444 57.3443L46.9712 87.3501C46.4233 86.8241 45.9029 86.2668 45.4155 85.677Z" fill="#87C12F"/>
<path d="M80.0475 34.0886C85.4678 36.1643 84.5644 41.8724 83.4352 44.467C85.6936 45.0075 90.1352 47.3859 89.8341 52.5751C89.5329 57.7642 82.6823 58.4129 79.2947 58.0886C80.198 65.094 73.1467 67.2778 69.5081 67.494C59.872 67.2345 58.7177 60.8994 59.3451 57.7642C53.3225 61.6561 49.3075 58.9534 48.0528 57.1156C45.0416 50.6291 51.0641 46.8453 54.4518 45.7643C49.6337 41.6129 52.4442 37.548 54.4518 36.0345C61.6788 30.8454 66.7477 35.8183 68.3788 38.9534C70.01 36.467 74.6272 32.0129 80.0475 34.0886Z" fill="#87C12F"/>
<path d="M75.263 42.306C77.9732 43.3438 77.5215 46.1978 76.9568 47.4951C78.0861 47.7654 80.3069 48.9546 80.1563 51.5492C80.0057 54.1438 76.5804 54.4681 74.8866 54.3059C75.3383 57.8086 71.8126 58.9005 69.9933 59.0086C65.1753 58.8789 64.5981 55.7113 64.9118 54.1438C61.9005 56.0897 59.893 54.7384 59.2657 53.8195C57.76 50.5762 60.7713 48.6843 62.4651 48.1438C60.0561 46.0681 61.4614 44.0357 62.4651 43.2789C66.0786 40.6843 68.6131 43.1708 69.4287 44.7384C70.2442 43.4951 72.5529 41.2681 75.263 42.306Z" fill="#87C12F"/>
</g>
</svg>
