<svg width="141" height="213" viewBox="0 0 141 213" fill="none" xmlns="http://www.w3.org/2000/svg">
<path d="M71.323 67C73.7824 81.6465 77.2256 115.883 71.323 135.655C63.9447 160.371 57.1339 196.072 66.7825 212" stroke="#0A3019" stroke-linecap="round"/>
<path d="M54.0853 194.373C52.9442 186.124 46.7157 180.103 43.7441 178.124C47.4527 173.374 55.5117 177.811 59.0776 180.624C56.2248 173.624 56.7003 164.374 57.2946 160.624C61.0032 162.624 65.9717 172.082 67.9924 176.561C65.7102 165.062 68.2301 154.479 69.7753 150.625C73.1986 152.124 75.7185 163.541 76.5506 169.062C76.5506 160.812 85.5842 147.5 90.101 141.875C90.9569 142.875 91.1708 152.291 91.1708 156.874C97.1615 145.375 110.07 134.167 115.776 130C114.635 148.75 109.119 159.687 106.504 162.812C116.489 155.312 123.977 154.062 126.473 154.374C124.476 161.124 109.714 171.353 102.582 175.624C113.707 170.624 119.817 171.249 121.481 172.186C120.055 177.936 106.861 183.54 100.442 185.624C111.568 185.374 118.391 188.019 120.411 189.374C116.988 193.873 100.68 196.248 92.9538 196.873C103.509 198.873 109.714 207.498 111.497 211.561C109 209.477 100.727 206.123 87.6049 209.373C74.4823 212.623 66.2094 212.186 63.7133 211.561C60.9794 209.269 55.2264 202.623 54.0853 194.373Z" fill="#51B022"/>
<g style="mix-blend-mode:multiply">
<path d="M87.9615 171.249C76.2653 185.499 69.5376 200.727 67.6357 206.561C71.3205 199.998 80.8296 184.561 89.3878 175.311C97.946 166.062 106.742 148.333 110.07 140.625C107.574 144.895 99.6577 156.999 87.9615 171.249Z" fill="#51B022"/>
</g>
<path d="M68.9141 200.392C69.6655 194.959 73.7672 190.995 75.7241 189.691C73.2819 186.563 67.9748 189.486 65.6265 191.338C67.5051 186.728 67.192 180.637 66.8006 178.167C64.3584 179.484 61.0865 185.713 59.7558 188.662C61.2587 181.089 59.5992 174.12 58.5816 171.582C56.3273 172.57 54.6678 180.088 54.1199 183.723C54.1199 178.291 48.1709 169.524 45.1964 165.82C44.6328 166.478 44.4919 172.68 44.4919 175.698C40.5468 168.125 32.046 160.744 28.2888 158C29.0402 170.347 32.6722 177.55 34.3943 179.608C27.8191 174.669 22.8877 173.846 21.2439 174.051C22.5589 178.496 32.2808 185.233 36.9774 188.045C29.6508 184.752 25.6274 185.164 24.5315 185.781C25.4708 189.568 34.1595 193.258 38.3864 194.63C31.0597 194.466 26.5667 196.208 25.236 197.1C27.4903 200.063 38.2298 201.627 43.3178 202.039C36.3669 203.356 32.2808 209.035 31.1067 211.711C32.7505 210.339 38.1985 208.13 46.8402 210.27C55.4819 212.41 60.9299 212.122 62.5737 211.711C64.3741 210.201 68.1626 205.825 68.9141 200.392Z" fill="#51B022"/>
<g style="mix-blend-mode:multiply">
<path d="M46.6055 185.164C54.3079 194.548 58.7383 204.577 59.9907 208.418C57.5642 204.096 51.3021 193.931 45.6662 187.839C40.0303 181.748 34.2379 170.073 32.0461 164.997C33.6899 167.809 38.9031 175.78 46.6055 185.164Z" fill="#51B022"/>
</g>
<path d="M60.9517 35.5752C66.6229 28.3204 78.439 13.7631 80.3336 13.5724C82.2283 13.3817 84.2198 33.2799 84.9787 43.2529C96.2533 42.2115 118.85 40.741 119.039 43.1899C119.228 45.6388 101.199 58.1666 92.1613 64.1243C99.5601 68.1472 114.985 78.3173 117.493 86.8147C110.999 86.0662 95.6924 83.2319 86.4263 77.8826C90.4591 85.1422 97.9097 100.593 95.4493 104.318C93.9601 105.169 80.2555 93.9564 74.667 83.4132C73.3066 90.608 68.5561 105.875 60.4377 109.385C56.7992 107.227 55.2148 80.1829 55.2148 80.1829C49.3859 85.397 36.7204 95.7022 34.0248 95.637C30.6972 95.5565 45.2729 71.1073 48.3552 70.0921C40.2682 72.0556 19.6708 73.7842 17.6852 69.5175C17.6602 66.8557 22.7654 61.3219 41.8213 53.3461C33.0253 49.6508 16.9276 41.9416 22.9044 40.667C28.8812 39.3923 40.6091 42.3437 45.726 43.9788C42.5232 36.5421 37.776 17.4971 42.5876 19.7555C47.0154 21.8339 56.987 29.6643 60.9517 35.5752Z" fill="#CDCDCD"/>
<path d="M75.6588 57.97C59.7481 35.9018 49.9106 30.8342 50.725 33.4166C57.1478 39.7812 64.839 54.2915 66.8779 61.7985C48.8618 60.0222 29.1717 63.3501 31.4428 66.0663C32.4523 67.2735 59.6509 62.8063 65.9267 66.8021C75.2234 78.0658 92.1953 91.782 91.5603 90.5839C90.7135 88.9865 78.2856 74.9531 72.7552 67.6572C94.695 56.755 103.394 51.6954 101.84 51.4085C99.3817 50.9548 83.7781 56.031 75.6588 57.97Z" fill="#9B9B9B"/>
<path d="M68.8242 31.1021C61.4494 30.0857 60.8899 41.6534 61.5321 47.5644C60.2636 45.6925 54.4821 45.9491 52.2109 48.7494C47.7983 54.19 52.7586 60.0191 55.7903 62.2535C47.4898 66.5291 52.0407 73.0643 55.3537 75.7975C65.2058 84.2195 69.4971 77.3834 70.9267 72.5077C73.3923 74.241 79.9404 76.2031 86.4075 70.1848C92.8747 64.1664 86.3169 58.7206 82.2296 56.7499C85.1493 54.6412 89.9381 49.1642 85.7355 44.1257C81.533 39.0873 76.1231 42.157 73.9435 44.3218C75.3099 40.3387 76.1991 32.1185 68.8242 31.1021Z" fill="white"/>
<path d="M75.5834 60.7934C74.3029 63.8651 70.4262 65.4482 66.9245 64.3292C63.4228 63.2102 61.622 59.813 62.9025 56.7413C65.0988 51.4722 70.0942 51.7415 73.5959 52.8605C77.0976 53.9794 76.8638 57.7217 75.5834 60.7934Z" fill="#CDCDCD"/>
<path d="M67.6516 56.553C66.9224 56.8507 68.3788 57.2277 69.1981 57.3789C72.6571 58.1525 68.6454 60.5194 69.3128 60.7327C69.9802 60.946 73.0483 59.9361 72.1119 57.6465C71.1754 55.357 68.563 56.1808 67.6516 56.553Z" fill="#9B9B9B"/>
<g style="mix-blend-mode:multiply">
<path d="M60.9517 35.5752C66.6229 28.3204 78.439 13.7631 80.3336 13.5724C82.2283 13.3817 84.2198 33.2799 84.9787 43.2529C96.2533 42.2115 118.85 40.741 119.039 43.1899C119.228 45.6388 101.199 58.1666 92.1613 64.1243C99.5601 68.1472 114.985 78.3173 117.493 86.8147C110.999 86.0662 95.6924 83.2319 86.4263 77.8826C90.4591 85.1422 97.9097 100.593 95.4493 104.318C93.9601 105.169 80.2555 93.9564 74.667 83.4132C73.3066 90.608 68.5561 105.875 60.4377 109.385C56.7992 107.227 55.2148 80.1829 55.2148 80.1829C49.3859 85.397 36.7204 95.7022 34.0248 95.637C30.6972 95.5565 45.2729 71.1073 48.3552 70.0921C40.2682 72.0556 19.6708 73.7842 17.6852 69.5175C17.6602 66.8557 22.7654 61.3219 41.8213 53.3461C33.0253 49.6508 16.9276 41.9416 22.9044 40.667C28.8812 39.3923 40.6091 42.3437 45.726 43.9788C42.5232 36.5421 37.776 17.4971 42.5876 19.7555C47.0154 21.8339 56.987 29.6643 60.9517 35.5752Z" fill="#FDBC15"/>
<path d="M75.6588 57.97C59.7481 35.9018 49.9106 30.8342 50.725 33.4166C57.1478 39.7812 64.839 54.2915 66.8779 61.7985C48.8618 60.0222 29.1717 63.3501 31.4428 66.0663C32.4523 67.2735 59.6509 62.8063 65.9267 66.8021C75.2234 78.0658 92.1953 91.782 91.5603 90.5839C90.7135 88.9865 78.2856 74.9531 72.7552 67.6572C94.695 56.755 103.394 51.6954 101.84 51.4085C99.3817 50.9548 83.7781 56.031 75.6588 57.97Z" fill="#FDBC15"/>
<path d="M68.8242 31.1021C61.4494 30.0857 60.8899 41.6534 61.5321 47.5644C60.2636 45.6925 54.4821 45.9491 52.2109 48.7494C47.7983 54.19 52.7586 60.0191 55.7903 62.2535C47.4898 66.5291 52.0407 73.0643 55.3537 75.7975C65.2058 84.2195 69.4971 77.3834 70.9267 72.5077C73.3923 74.241 79.9404 76.2031 86.4075 70.1848C92.8747 64.1664 86.3169 58.7206 82.2296 56.7499C85.1493 54.6412 89.9381 49.1642 85.7355 44.1257C81.533 39.0873 76.1231 42.157 73.9435 44.3218C75.3099 40.3387 76.1991 32.1185 68.8242 31.1021Z" fill="#FDBC15"/>
<path d="M75.5834 60.7934C74.3029 63.8651 70.4262 65.4482 66.9245 64.3292C63.4228 63.2102 61.622 59.813 62.9025 56.7413C65.0988 51.4722 70.0942 51.7415 73.5959 52.8605C77.0976 53.9794 76.8638 57.7217 75.5834 60.7934Z" fill="#FDBC15"/>
<path d="M67.6516 56.553C66.9224 56.8507 68.3788 57.2277 69.1981 57.3789C72.6571 58.1525 68.6454 60.5194 69.3128 60.7327C69.9802 60.946 73.0483 59.9361 72.1119 57.6465C71.1754 55.357 68.563 56.1808 67.6516 56.553Z" fill="#FDBC15"/>
</g>
<g style="mix-blend-mode:soft-light">
<path d="M60.9517 35.5752C66.6229 28.3204 78.439 13.7631 80.3336 13.5724C82.2283 13.3817 84.2198 33.2799 84.9787 43.2529C96.2533 42.2115 118.85 40.741 119.039 43.1899C119.228 45.6388 101.199 58.1666 92.1613 64.1243C99.5601 68.1472 114.985 78.3173 117.493 86.8147C110.999 86.0662 95.6924 83.2319 86.4263 77.8826C90.4591 85.1422 97.9097 100.593 95.4493 104.318C93.9601 105.169 80.2555 93.9564 74.667 83.4132C73.3066 90.608 68.5561 105.875 60.4377 109.385C56.7992 107.227 55.2148 80.1829 55.2148 80.1829C49.3859 85.397 36.7204 95.7022 34.0248 95.637C30.6972 95.5565 45.2729 71.1073 48.3552 70.0921C40.2682 72.0556 19.6708 73.7842 17.6852 69.5175C17.6602 66.8557 22.7654 61.3219 41.8213 53.3461C33.0253 49.6508 16.9276 41.9416 22.9044 40.667C28.8812 39.3923 40.6091 42.3437 45.726 43.9788C42.5232 36.5421 37.776 17.4971 42.5876 19.7555C47.0154 21.8339 56.987 29.6643 60.9517 35.5752Z" fill="#FDBC15"/>
<path d="M75.6588 57.97C59.7481 35.9018 49.9106 30.8342 50.725 33.4166C57.1478 39.7812 64.839 54.2915 66.8779 61.7985C48.8618 60.0222 29.1717 63.3501 31.4428 66.0663C32.4523 67.2735 59.6509 62.8063 65.9267 66.8021C75.2234 78.0658 92.1953 91.782 91.5603 90.5839C90.7135 88.9865 78.2856 74.9531 72.7552 67.6572C94.695 56.755 103.394 51.6954 101.84 51.4085C99.3817 50.9548 83.7781 56.031 75.6588 57.97Z" fill="#FDBC15"/>
<path d="M68.8242 31.1021C61.4494 30.0857 60.8899 41.6534 61.5321 47.5644C60.2636 45.6925 54.4821 45.9491 52.2109 48.7494C47.7983 54.19 52.7586 60.0191 55.7903 62.2535C47.4898 66.5291 52.0407 73.0643 55.3537 75.7975C65.2058 84.2195 69.4971 77.3834 70.9267 72.5077C73.3923 74.241 79.9404 76.2031 86.4075 70.1848C92.8747 64.1664 86.3169 58.7206 82.2296 56.7499C85.1493 54.6412 89.9381 49.1642 85.7355 44.1257C81.533 39.0873 76.1231 42.157 73.9435 44.3218C75.3099 40.3387 76.1991 32.1185 68.8242 31.1021Z" fill="#FDBC15"/>
<path d="M75.5834 60.7934C74.3029 63.8651 70.4262 65.4482 66.9245 64.3292C63.4228 63.2102 61.622 59.813 62.9025 56.7413C65.0988 51.4722 70.0942 51.7415 73.5959 52.8605C77.0976 53.9794 76.8638 57.7217 75.5834 60.7934Z" fill="#FDBC15"/>
<path d="M67.6516 56.553C66.9224 56.8507 68.3788 57.2277 69.1981 57.3789C72.6571 58.1525 68.6454 60.5194 69.3128 60.7327C69.9802 60.946 73.0483 59.9361 72.1119 57.6465C71.1754 55.357 68.563 56.1808 67.6516 56.553Z" fill="#FDBC15"/>
</g>
<path d="M44.1054 109.24C57.5534 112.593 65.2105 129.522 69.4129 139.476C64.8102 134.586 54.0557 125.073 49.0008 123.235C41.7966 120.616 34.4072 120.391 23.6933 133.863C21.2919 121.29 27.2955 105.049 44.1054 109.24Z" fill="#FDBC15"/>
<g style="mix-blend-mode:multiply">
<path fill-rule="evenodd" clip-rule="evenodd" d="M49.6118 118.701C57.9537 123.104 65.5209 132.214 69.9391 139.224C70.0989 139.477 69.9929 139.796 69.7023 139.935C69.4118 140.074 69.0468 139.982 68.887 139.728C64.5 132.768 57.0582 123.856 48.9904 119.597C44.9687 117.475 40.8654 116.546 36.9303 117.506C32.994 118.466 29.0752 121.352 25.5159 127.15C25.3593 127.405 24.9955 127.501 24.7032 127.365C24.4109 127.228 24.3009 126.91 24.4575 126.655C28.1024 120.718 32.2384 117.562 36.6071 116.497C40.9769 115.431 45.4287 116.493 49.6118 118.701Z" fill="#FDBC15"/>
</g>
<path d="M102.546 118.03C89.2149 118.212 77.3905 132.15 70.714 140.41C76.3317 136.901 88.9186 130.463 94.0924 129.862C101.466 129.007 108.336 130.396 114.406 145.119C120.162 134.058 119.21 117.802 102.546 118.03Z" fill="#FDBC15"/>
<g style="mix-blend-mode:multiply">
<path fill-rule="evenodd" clip-rule="evenodd" d="M94.8082 125.554C85.8838 127.807 76.3463 134.562 70.301 140.064C70.0824 140.263 70.0902 140.579 70.3185 140.77C70.5468 140.962 70.9091 140.955 71.1277 140.756C77.1303 135.293 86.4967 128.693 95.1279 126.514C99.4305 125.428 103.472 125.459 106.825 127.193C110.18 128.928 112.976 132.434 114.62 138.543C114.693 138.811 115.001 138.978 115.308 138.916C115.616 138.853 115.807 138.584 115.735 138.316C114.051 132.06 111.131 128.259 107.408 126.334C103.683 124.408 99.2835 124.424 94.8082 125.554Z" fill="#FDBC15"/>
</g>
</svg>
