<svg width="187" height="201" viewBox="0 0 187 201" fill="none" xmlns="http://www.w3.org/2000/svg">
<path d="M71.3513 55C73.8107 69.6465 77.2539 103.883 71.3513 123.655C63.973 148.371 57.1622 184.072 66.8108 200" stroke="#0A3019" stroke-linecap="round"/>
<path d="M55.7197 159.419C51.4419 158.496 47.8568 157.457 44.8705 156.346C44.1756 156.087 43.513 155.825 42.8817 155.559C41.6826 155.054 40.5962 154.537 39.6145 154.011C37.9135 153.101 36.5267 152.165 35.4121 151.224C34.1971 150.198 33.3054 149.165 32.6824 148.151C31.922 146.912 31.5621 145.702 31.5033 144.565C31.4235 143.021 31.8995 141.612 32.6824 140.454C33.2352 139.637 33.9409 138.945 34.7121 138.419C36.7672 137.246 38.7198 136.852 40.5475 137.048C41.5597 137.157 42.5335 137.447 43.4653 137.886C44.0743 138.174 44.6654 138.525 45.2375 138.931C46.2294 139.635 47.1642 140.504 48.0362 141.492C48.9845 142.566 49.8586 143.781 50.6515 145.077C51.3882 146.282 52.0547 147.556 52.6453 148.852C53.1583 149.978 53.614 151.12 54.0088 152.248C54.9171 154.844 55.5026 157.361 55.7197 159.419Z" fill="#51B022"/>
<g style="mix-blend-mode:multiply">
<path d="M32.9013 140.148L36.6142 140.16L40.0994 137.012C40.2496 137.02 40.3989 137.032 40.5475 137.048C40.6635 137.061 40.7791 137.076 40.8941 137.093C40.8838 137.155 40.8521 137.214 40.7987 137.263L36.9091 140.775L32.6813 140.762C32.6189 140.762 32.5604 140.747 32.5098 140.722C32.5655 140.631 32.6231 140.542 32.6824 140.454C32.7529 140.35 32.8259 140.248 32.9013 140.148Z" fill="#51B022"/>
<path d="M31.5263 144.872C31.5162 144.769 31.5085 144.667 31.5033 144.565C31.4979 144.46 31.495 144.356 31.4946 144.252L39.1155 142.754L43.1508 137.745C43.2561 137.79 43.3609 137.837 43.4652 137.887C43.5676 137.935 43.6695 137.985 43.7708 138.037C43.7649 138.046 43.7584 138.055 43.7512 138.064L39.5316 143.303L31.5799 144.865C31.562 144.869 31.5441 144.871 31.5263 144.872Z" fill="#51B022"/>
<path d="M32.8637 148.435C32.8009 148.34 32.7405 148.245 32.6824 148.151C32.6265 148.06 32.5727 147.969 32.521 147.878C32.552 147.864 32.586 147.853 32.6222 147.848L42.6019 146.317L44.8996 138.851C44.9123 138.809 44.9339 138.772 44.9623 138.741C45.0545 138.803 45.1462 138.866 45.2374 138.931C45.3368 139.001 45.4355 139.073 45.5337 139.147L43.1617 146.855L32.8637 148.435Z" fill="#51B022"/>
<path d="M35.7492 151.502C35.6342 151.409 35.5218 151.317 35.412 151.224C35.3272 151.152 35.2439 151.081 35.1621 151.009C35.2171 150.959 35.2912 150.926 35.3755 150.918L46.1922 149.919L47.6903 141.445C47.7044 141.365 47.7525 141.297 47.8196 141.25C47.8922 141.33 47.9644 141.411 48.0361 141.492C48.135 141.604 48.2331 141.717 48.3304 141.833L46.8015 150.48L35.7492 151.502Z" fill="#51B022"/>
<path d="M40.159 154.297C39.974 154.202 39.7925 154.107 39.6145 154.012C39.5141 153.958 39.4148 153.904 39.3166 153.85C39.3753 153.767 39.4782 153.71 39.5981 153.705L49.5597 153.292L50.3025 145.053C50.3122 144.946 50.3839 144.855 50.4843 144.807C50.5404 144.897 50.5961 144.987 50.6514 145.077C50.7546 145.246 50.8564 145.416 50.9568 145.587L50.209 153.88L40.159 154.297Z" fill="#51B022"/>
<path d="M43.8225 155.944C43.5015 155.816 43.1879 155.688 42.8817 155.559C42.7758 155.515 42.6708 155.47 42.5666 155.425C42.6284 155.313 42.7645 155.241 42.9138 155.253L52.2953 156.009V148.852C52.2953 148.723 52.3858 148.613 52.5141 148.567C52.5582 148.662 52.602 148.757 52.6453 148.852C52.7652 149.115 52.882 149.379 52.9956 149.644V156.683L43.8225 155.944Z" fill="#51B022"/>
</g>
<g style="mix-blend-mode:multiply">
<path d="M55.6331 158.712C55.6331 158.712 55.6331 158.712 55.6331 158.712L35.1135 138.199C34.9802 138.269 34.8464 138.342 34.7121 138.418C34.5905 138.501 34.4706 138.589 34.3525 138.68L34.3614 138.689L55.3652 159.686L62.3677 166.857C62.5355 167.029 62.8302 167.049 63.026 166.901C63.2217 166.754 63.2444 166.495 63.0766 166.324L56.0741 159.153L55.6331 158.712Z" fill="#51B022"/>
</g>
<path d="M71.7659 0C58.4472 0 55.1175 12.7842 55.1175 19.1763C45.406 18.5675 26.6767 15.5237 21.821 28.3079C18.4913 37.0742 25.983 44.136 30.145 46.571C23.9019 48.3974 12.248 55.1547 15.5776 67.5737C18.9073 79.9926 35.0007 77.0096 42.6312 73.9658C41.9375 80.6623 44.5041 94.4205 60.3201 95.8816C76.1361 97.3426 84.2523 84.9237 86.3333 78.5316C92.5765 84.0105 107.144 89.4895 118.59 78.5316C130.035 66.6605 115.468 52.9632 107.144 48.3974C113.387 46.571 124.208 39.6311 117.549 26.4816C110.89 13.3321 93.9638 16.1325 86.3333 19.1763C87.027 12.7842 85.0847 0 71.7659 0Z" fill="#CDCDCD"/>
<path d="M73.2602 0.913237C61.8144 2.73954 62.0872 15.937 62.0872 21.1659C54.2144 20.6679 46.5716 22.2641 41.8429 28.308C36.8418 34.7001 38.4689 41.5839 41.8429 43.5759C36.7818 45.0699 27.3345 50.5976 30.0337 60.7568C32.733 70.916 45.7792 68.4758 51.965 65.9858C51.4026 71.4638 53.4833 82.7185 66.3048 83.9137C79.1262 85.1089 85.7057 74.9497 87.3927 69.7208C92.4538 74.2027 104.263 78.6847 113.542 69.7208C122.82 60.0098 111.011 48.8048 104.263 45.0699C109.324 43.5759 118.097 37.8987 112.698 27.1419C107.3 16.3852 93.5785 18.676 87.3927 21.1659C87.955 15.937 86.7255 -1.23529 73.2602 0.913237Z" fill="white"/>
<path fill-rule="evenodd" clip-rule="evenodd" d="M52.7852 79.5088L88.8548 24.6818L90.427 25.4783L54.3574 80.3054L52.7852 79.5088Z" fill="#9B9B9B"/>
<path d="M92.2999 25.818C91.8018 26.575 90.3423 26.6537 89.0399 25.9938C87.7374 25.3339 87.0853 24.1853 87.5833 23.4283C88.0814 22.6713 89.5409 22.5925 90.8433 23.2525C92.1458 23.9124 92.7979 25.061 92.2999 25.818Z" fill="#9B9B9B"/>
<path d="M56.2304 80.6451C55.7323 81.4021 54.2728 81.4808 52.9704 80.8209C51.6679 80.161 51.0158 79.0123 51.5138 78.2553C52.0119 77.4983 53.4714 77.4196 54.7738 78.0795C56.0763 78.7394 56.7284 79.8881 56.2304 80.6451Z" fill="#9B9B9B"/>
<path fill-rule="evenodd" clip-rule="evenodd" d="M44.4504 73.4674L101.91 23.0412L103.194 24.1678L45.7341 74.5939L44.4504 73.4674Z" fill="#9B9B9B"/>
<path d="M104.956 24.8741C104.163 25.5703 102.658 25.3782 101.594 24.4449C100.531 23.5117 100.312 22.1907 101.105 21.4945C101.899 20.7982 103.404 20.9904 104.467 21.9236C105.531 22.8569 105.75 24.1779 104.956 24.8741Z" fill="#9B9B9B"/>
<path d="M47.4967 75.3002C46.7033 75.9964 45.1981 75.8043 44.1347 74.871C43.0712 73.9378 42.8523 72.6168 43.6456 71.9206C44.439 71.2243 45.9442 71.4165 47.0076 72.3497C48.0711 73.283 48.29 74.604 47.4967 75.3002Z" fill="#9B9B9B"/>
<path fill-rule="evenodd" clip-rule="evenodd" d="M46.6103 61.5079L104.793 32.0282L105.7 33.4079L47.518 62.8877L46.6103 61.5079Z" fill="#9B9B9B"/>
<path d="M107.093 34.542C106.29 34.949 105.029 34.3524 104.277 33.2094C103.525 32.0664 103.567 30.8098 104.37 30.4028C105.173 29.9958 106.434 30.5924 107.186 31.7354C107.938 32.8784 107.896 34.1349 107.093 34.542Z" fill="#9B9B9B"/>
<path d="M48.9104 64.0217C48.107 64.4288 46.8462 63.8321 46.0943 62.6891C45.3423 61.5461 45.384 60.2896 46.1873 59.8826C46.9906 59.4755 48.2514 60.0721 49.0034 61.2151C49.7554 62.3581 49.7137 63.6147 48.9104 64.0217Z" fill="#9B9B9B"/>
<path fill-rule="evenodd" clip-rule="evenodd" d="M39.1395 55.841L104.939 40.3683L105.409 41.9071L39.6093 57.3799L39.1395 55.841Z" fill="#9B9B9B"/>
<path d="M106.427 43.3171C105.518 43.5307 104.466 42.6704 104.077 41.3956C103.688 40.1207 104.109 38.914 105.017 38.7004C105.926 38.4868 106.978 39.3471 107.367 40.6219C107.756 41.8968 107.335 43.1034 106.427 43.3171Z" fill="#9B9B9B"/>
<path d="M40.6273 58.7898C39.7188 59.0034 38.6668 58.1432 38.2775 56.8683C37.8883 55.5935 38.3092 54.3868 39.2177 54.1732C40.1263 53.9595 41.1783 54.8198 41.5675 56.0947C41.9568 57.3695 41.5358 58.5762 40.6273 58.7898Z" fill="#9B9B9B"/>
<path fill-rule="evenodd" clip-rule="evenodd" d="M38.9393 47.4842L102.362 47.4842L102.362 49.3105L38.9393 49.3105L38.9393 47.4842Z" fill="#9B9B9B"/>
<path d="M102.89 51.1368C102.015 51.1368 101.305 49.9103 101.305 48.3973C101.305 46.8844 102.015 45.6579 102.89 45.6579C103.766 45.6579 104.476 46.8844 104.476 48.3973C104.476 49.9103 103.766 51.1368 102.89 51.1368Z" fill="#9B9B9B"/>
<path d="M39.4677 51.1368C38.592 51.1368 37.8822 49.9103 37.8822 48.3973C37.8822 46.8844 38.592 45.6579 39.4677 45.6579C40.3434 45.6579 41.0533 46.8844 41.0533 48.3973C41.0533 49.9103 40.3434 51.1368 39.4677 51.1368Z" fill="#9B9B9B"/>
<path fill-rule="evenodd" clip-rule="evenodd" d="M34.5106 38.2161L105.459 54.8994L104.989 56.4383L34.0408 39.7549L34.5106 38.2161Z" fill="#9B9B9B"/>
<path d="M105.11 58.1162C104.13 57.8859 103.652 56.6657 104.041 55.3908C104.43 54.116 105.54 53.2692 106.52 53.4996C107.499 53.7299 107.978 54.9501 107.588 56.225C107.199 57.4998 106.09 58.3466 105.11 58.1162Z" fill="#9B9B9B"/>
<path d="M34.1621 41.4328C33.1825 41.2025 32.7039 39.9823 33.0932 38.7074C33.4824 37.4326 34.5921 36.5858 35.5716 36.8162C36.5512 37.0465 37.0298 38.2667 36.6405 39.5416C36.2513 40.8164 35.1417 41.6632 34.1621 41.4328Z" fill="#9B9B9B"/>
<path fill-rule="evenodd" clip-rule="evenodd" d="M44.5193 32.388L101.17 61.0916L100.262 62.4713L43.6117 33.7678L44.5193 32.388Z" fill="#9B9B9B"/>
<path d="M99.8267 64.0903C99.0445 63.6939 99.02 62.4461 99.772 61.3031C100.524 60.1601 101.768 59.5548 102.55 59.9511C103.332 60.3474 103.356 61.5953 102.605 62.7383C101.853 63.8813 100.609 64.4866 99.8267 64.0903Z" fill="#9B9B9B"/>
<path d="M43.1759 35.3866C42.3938 34.9903 42.3693 33.7425 43.1212 32.5995C43.8732 31.4565 45.1168 30.8512 45.899 31.2475C46.6812 31.6438 46.7057 32.8916 45.9538 34.0346C45.2018 35.1776 43.9581 35.783 43.1759 35.3866Z" fill="#9B9B9B"/>
<path fill-rule="evenodd" clip-rule="evenodd" d="M50.9846 26.8085L103.363 72.7757L102.08 73.9022L49.7009 27.9351L50.9846 26.8085Z" fill="#9B9B9B"/>
<path d="M101.233 75.4118C100.509 74.7771 100.785 73.5061 101.849 72.5728C102.912 71.6395 104.36 71.3975 105.084 72.0322C105.807 72.6668 105.531 73.9379 104.468 74.8712C103.404 75.8044 101.956 76.0465 101.233 75.4118Z" fill="#9B9B9B"/>
<path d="M48.8537 29.4447C48.1305 28.81 48.4063 27.5389 49.4698 26.6057C50.5332 25.6724 51.9815 25.4304 52.7047 26.065C53.4279 26.6997 53.1521 27.9708 52.0887 28.904C51.0253 29.8373 49.5769 30.0793 48.8537 29.4447Z" fill="#9B9B9B"/>
<path fill-rule="evenodd" clip-rule="evenodd" d="M58.1291 22.2216L91.906 73.5636L90.3339 74.3602L56.5569 23.0181L58.1291 22.2216Z" fill="#9B9B9B"/>
<path d="M89.0432 75.5846C88.5769 74.8757 89.2546 73.7661 90.5571 73.1062C91.8595 72.4463 93.2934 72.486 93.7597 73.1949C94.2261 73.9038 93.5483 75.0134 92.2459 75.6733C90.9435 76.3332 89.5096 76.2935 89.0432 75.5846Z" fill="#9B9B9B"/>
<path d="M55.2662 24.2426C54.7999 23.5337 55.4776 22.4241 56.7801 21.7642C58.0825 21.1042 59.5164 21.144 59.9827 21.8528C60.4491 22.5617 59.7713 23.6714 58.4689 24.3313C57.1665 24.9912 55.7326 24.9515 55.2662 24.2426Z" fill="#9B9B9B"/>
<path fill-rule="evenodd" clip-rule="evenodd" d="M66.5653 19.9832L83.0626 74.0155L81.3091 74.4279L64.8117 20.3956L66.5653 19.9832Z" fill="#9B9B9B"/>
<path d="M79.693 75.2904C79.4653 74.5445 80.4583 73.663 81.911 73.3214C83.3637 72.9798 84.7259 73.3075 84.9536 74.0533C85.1813 74.7992 84.1883 75.6807 82.7357 76.0223C81.283 76.3639 79.9208 76.0362 79.693 75.2904Z" fill="#9B9B9B"/>
<path d="M63.1956 21.258C62.9678 20.5122 63.9609 19.6306 65.4135 19.289C66.8662 18.9474 68.2284 19.2751 68.4562 20.021C68.6839 20.7668 67.6909 21.6484 66.2382 21.99C64.7855 22.3316 63.4233 22.0039 63.1956 21.258Z" fill="#9B9B9B"/>
<path fill-rule="evenodd" clip-rule="evenodd" d="M75.2091 12.1464L75.2091 83.4597L73.3937 83.4597L73.3937 12.1464L75.2091 12.1464Z" fill="#9B9B9B"/>
<path d="M71.5783 84.054C71.5783 83.0694 72.7974 82.2712 74.3014 82.2712C75.8053 82.2712 77.0244 83.0694 77.0244 84.054C77.0244 85.0386 75.8053 85.8368 74.3014 85.8368C72.7974 85.8368 71.5783 85.0386 71.5783 84.054Z" fill="#9B9B9B"/>
<path d="M71.5783 12.7407C71.5783 11.7561 72.7974 10.9579 74.3013 10.9579C75.8053 10.9579 77.0244 11.7561 77.0244 12.7407C77.0244 13.7253 75.8053 14.5235 74.3013 14.5235C72.7974 14.5235 71.5783 13.7253 71.5783 12.7407Z" fill="#9B9B9B"/>
<path fill-rule="evenodd" clip-rule="evenodd" d="M82.7231 23.891L66.6697 76.4695L64.9162 76.0572L80.9696 23.4787L82.7231 23.891Z" fill="#9B9B9B"/>
<path d="M63.0287 76.083C63.2504 75.357 64.6077 75.0454 66.0604 75.387C67.513 75.7286 68.511 76.594 68.2893 77.32C68.0677 78.0459 66.7104 78.3575 65.2577 78.0159C63.805 77.6743 62.8071 76.8089 63.0287 76.083Z" fill="#9B9B9B"/>
<path d="M79.0822 23.5045C79.3038 22.7785 80.6612 22.4669 82.1138 22.8085C83.5665 23.1501 84.5644 24.0156 84.3428 24.7415C84.1211 25.4675 82.7638 25.7791 81.3112 25.4375C79.8585 25.0959 78.8605 24.2304 79.0822 23.5045Z" fill="#9B9B9B"/>
<path fill-rule="evenodd" clip-rule="evenodd" d="M90.9103 24.7435L54.9547 79.3973L53.3825 78.6007L89.3382 23.9469L90.9103 24.7435Z" fill="#9B9B9B"/>
<path d="M51.5107 78.2596C52.0072 77.505 53.4655 77.4282 54.7679 78.0881C56.0703 78.748 56.7237 79.8947 56.2273 80.6493C55.7308 81.4039 54.2728 81.4808 52.9704 80.8209C51.6679 80.161 51.0143 79.0142 51.5107 78.2596Z" fill="#9B9B9B"/>
<path d="M87.4664 23.6058C87.9628 22.8511 89.4211 22.7744 90.7235 23.4343C92.026 24.0942 92.6793 25.2409 92.1829 25.9955C91.6865 26.7501 90.2282 26.8269 88.9257 26.167C87.6233 25.5071 86.9699 24.3604 87.4664 23.6058Z" fill="#9B9B9B"/>
<path fill-rule="evenodd" clip-rule="evenodd" d="M104.151 23.3273L46.6915 73.7535L45.4079 72.6269L102.868 22.2008L104.151 23.3273Z" fill="#9B9B9B"/>
<path d="M43.6456 71.9206C44.439 71.2243 45.9442 71.4165 47.0076 72.3497C48.0711 73.283 48.29 74.604 47.4967 75.3002C46.7033 75.9964 45.1981 75.8043 44.1347 74.871C43.0712 73.9378 42.8523 72.6168 43.6456 71.9206Z" fill="#9B9B9B"/>
<path d="M101.105 21.4945C101.899 20.7982 103.404 20.9904 104.467 21.9236C105.531 22.8569 105.75 24.1779 104.956 24.8741C104.163 25.5703 102.658 25.3782 101.594 24.4449C100.531 23.5117 100.312 22.1907 101.105 21.4945Z" fill="#9B9B9B"/>
<path fill-rule="evenodd" clip-rule="evenodd" d="M106.447 33.0295L48.6867 62.2954L47.779 60.9157L105.539 31.6498L106.447 33.0295Z" fill="#9B9B9B"/>
<path d="M46.3901 59.7799C47.1876 59.3758 48.4437 59.9748 49.1957 61.1178C49.9476 62.2608 49.9107 63.515 49.1132 63.919C48.3157 64.3231 47.0596 63.7241 46.3077 62.5811C45.5557 61.4381 45.5926 60.1839 46.3901 59.7799Z" fill="#9B9B9B"/>
<path d="M104.151 30.514C104.948 30.1099 106.204 30.7089 106.956 31.8519C107.708 32.9949 107.671 34.2491 106.874 34.6532C106.076 35.0572 104.82 34.4582 104.068 33.3152C103.316 32.1722 103.353 30.9181 104.151 30.514Z" fill="#9B9B9B"/>
<path fill-rule="evenodd" clip-rule="evenodd" d="M106.52 41.6456L40.8346 57.0916L40.3648 55.5527L106.05 40.1067L106.52 41.6456Z" fill="#9B9B9B"/>
<path d="M39.3475 54.1425C40.2544 53.9293 41.3052 54.7899 41.6944 56.0647C42.0837 57.3396 41.664 58.5459 40.7571 58.7592C39.8502 58.9724 38.7994 58.1119 38.4102 56.837C38.0209 55.5622 38.4406 54.3558 39.3475 54.1425Z" fill="#9B9B9B"/>
<path d="M105.033 38.6966C105.94 38.4833 106.991 39.3439 107.38 40.6187C107.769 41.8936 107.35 43.0999 106.443 43.3132C105.536 43.5265 104.485 42.6659 104.096 41.391C103.707 40.1162 104.126 38.9098 105.033 38.6966Z" fill="#9B9B9B"/>
<path fill-rule="evenodd" clip-rule="evenodd" d="M103.419 49.3105L39.9964 49.3105L39.9964 47.4842L103.419 47.4842L103.419 49.3105Z" fill="#9B9B9B"/>
<path d="M39.4677 45.6579C40.3434 45.6579 41.0533 46.8844 41.0533 48.3973C41.0533 49.9103 40.3434 51.1368 39.4677 51.1368C38.592 51.1368 37.8822 49.9103 37.8822 48.3973C37.8822 46.8844 38.592 45.6579 39.4677 45.6579Z" fill="#9B9B9B"/>
<path d="M102.89 45.6579C103.766 45.6579 104.476 46.8844 104.476 48.3973C104.476 49.9103 103.766 51.1368 102.89 51.1368C102.015 51.1368 101.305 49.9103 101.305 48.3973C101.305 46.8844 102.015 45.6579 102.89 45.6579Z" fill="#9B9B9B"/>
<path fill-rule="evenodd" clip-rule="evenodd" d="M105.767 56.6213L35.21 40.0298L35.6798 38.4909L106.237 55.0824L105.767 56.6213Z" fill="#9B9B9B"/>
<path d="M35.5616 36.8138C36.5358 37.0429 37.01 38.262 36.6207 39.5369C36.2315 40.8117 35.1262 41.6595 34.152 41.4304C33.1779 41.2013 32.7039 39.9823 33.0932 38.7074C33.4824 37.4326 34.5874 36.5847 35.5616 36.8138Z" fill="#9B9B9B"/>
<path d="M106.119 53.4052C107.093 53.6343 107.567 54.8535 107.178 56.1283C106.789 57.4032 105.683 58.251 104.709 58.0219C103.735 57.7928 103.261 56.5736 103.65 55.2988C104.039 54.0239 105.145 53.1762 106.119 53.4052Z" fill="#9B9B9B"/>
<path fill-rule="evenodd" clip-rule="evenodd" d="M101.16 62.9258L44.4137 34.1738L45.3214 32.7941L102.068 61.5461L101.16 62.9258Z" fill="#9B9B9B"/>
<path d="M45.7562 31.1747C46.5397 31.5717 46.5653 32.8201 45.8134 33.9631C45.0614 35.1061 43.8167 35.7109 43.0332 35.3139C42.2497 34.9169 42.2241 33.6685 42.976 32.5255C43.728 31.3825 44.9727 30.7777 45.7562 31.1747Z" fill="#9B9B9B"/>
<path d="M102.503 59.9268C103.286 60.3238 103.312 61.5722 102.56 62.7152C101.808 63.8582 100.563 64.4629 99.7794 64.066C98.9959 63.669 98.9704 62.4206 99.7223 61.2776C100.474 60.1346 101.719 59.5298 102.503 59.9268Z" fill="#9B9B9B"/>
<path fill-rule="evenodd" clip-rule="evenodd" d="M102.95 74.6656L50.3861 28.5361L51.6697 27.4095L104.234 73.5391L102.95 74.6656Z" fill="#9B9B9B"/>
<path d="M52.5153 25.8986C53.241 26.5355 52.9673 27.8083 51.9039 28.7416C50.8405 29.6749 49.39 29.9151 48.6643 29.2782C47.9385 28.6413 48.2123 27.3684 49.2757 26.4351C50.3391 25.5019 51.7895 25.2616 52.5153 25.8986Z" fill="#9B9B9B"/>
<path d="M105.079 72.0281C105.805 72.665 105.531 73.9379 104.468 74.8712C103.404 75.8044 101.954 76.0446 101.228 75.4077C100.502 74.7708 100.776 73.4979 101.84 72.5647C102.903 71.6314 104.353 71.3912 105.079 72.0281Z" fill="#9B9B9B"/>
<path fill-rule="evenodd" clip-rule="evenodd" d="M90.9848 75.3504L57.0099 23.7075L58.5821 22.9109L92.5569 74.5538L90.9848 75.3504Z" fill="#9B9B9B"/>
<path d="M59.8711 21.684C60.3402 22.397 59.6646 23.51 58.3622 24.1699C57.0598 24.8298 55.6237 24.7868 55.1546 24.0737C54.6855 23.3607 55.361 22.2477 56.6635 21.5878C57.9659 20.9279 59.402 20.9709 59.8711 21.684Z" fill="#9B9B9B"/>
<path d="M93.8458 73.3268C94.3149 74.0398 93.6394 75.1528 92.3369 75.8127C91.0345 76.4726 89.5984 76.4296 89.1293 75.7165C88.6602 75.0035 89.3358 73.8905 90.6382 73.2306C91.9406 72.5707 93.3767 72.6138 93.8458 73.3268Z" fill="#9B9B9B"/>
<path fill-rule="evenodd" clip-rule="evenodd" d="M81.5617 75.2555L65.0258 21.0968L66.7793 20.6845L83.3152 74.8432L81.5617 75.2555Z" fill="#9B9B9B"/>
<path d="M68.3954 19.8222C68.6237 20.5699 67.6312 21.453 66.1785 21.7946C64.7258 22.1362 63.3631 21.807 63.1348 21.0592C62.9065 20.3114 63.899 19.4283 65.3517 19.0867C66.8044 18.7451 68.1671 19.0744 68.3954 19.8222Z" fill="#9B9B9B"/>
<path d="M84.9315 73.9808C85.1598 74.7286 84.1672 75.6117 82.7146 75.9533C81.2619 76.2949 79.8992 75.9656 79.6709 75.2179C79.4426 74.4701 80.4351 73.587 81.8878 73.2454C83.3404 72.9038 84.7032 73.2331 84.9315 73.9808Z" fill="#9B9B9B"/>
<path fill-rule="evenodd" clip-rule="evenodd" d="M73.3934 84.6483L73.3934 13.335L75.2088 13.335L75.2088 84.6483L73.3934 84.6483Z" fill="#9B9B9B"/>
<path d="M77.0244 12.7407C77.0244 13.7253 75.8053 14.5235 74.3013 14.5235C72.7974 14.5235 71.5783 13.7253 71.5783 12.7407C71.5783 11.7561 72.7974 10.9579 74.3013 10.9579C75.8053 10.9579 77.0244 11.7561 77.0244 12.7407Z" fill="#9B9B9B"/>
<path d="M77.0244 84.054C77.0244 85.0386 75.8053 85.8368 74.3014 85.8368C72.7974 85.8368 71.5783 85.0386 71.5783 84.054C71.5783 83.0694 72.7974 82.2712 74.3014 82.2712C75.8053 82.2712 77.0244 83.0694 77.0244 84.054Z" fill="#9B9B9B"/>
<path fill-rule="evenodd" clip-rule="evenodd" d="M64.6951 76.7817L80.7301 24.2634L82.4836 24.6758L66.4486 77.1941L64.6951 76.7817Z" fill="#9B9B9B"/>
<path d="M84.3707 24.6505C84.1493 25.3756 82.7922 25.6865 81.3395 25.3449C79.8869 25.0033 78.8887 24.1386 79.1101 23.4135C79.3315 22.6883 80.6886 22.3774 82.1413 22.719C83.594 23.0606 84.5921 23.9254 84.3707 24.6505Z" fill="#9B9B9B"/>
<path d="M68.3356 77.1688C68.1142 77.8939 66.7571 78.2048 65.3044 77.8632C63.8517 77.5216 62.8536 76.6569 63.075 75.9317C63.2964 75.2066 64.6535 74.8957 66.1062 75.2373C67.5588 75.5789 68.557 76.4436 68.3356 77.1688Z" fill="#9B9B9B"/>
<ellipse cx="16.1631" cy="16.0923" rx="16.1631" ry="16.0923" transform="matrix(0.892032 0.451973 -0.549608 0.835423 67.5356 27.248)" fill="#9B9B9B"/>
<g style="mix-blend-mode:multiply">
<path d="M71.7659 0C58.4472 0 55.1175 12.7842 55.1175 19.1763C45.406 18.5675 26.6767 15.5237 21.821 28.3079C18.4913 37.0742 25.983 44.136 30.145 46.571C23.9019 48.3974 12.248 55.1547 15.5776 67.5737C18.9073 79.9926 35.0007 77.0096 42.6312 73.9658C41.9375 80.6623 44.5041 94.4205 60.3201 95.8816C76.1361 97.3426 84.2523 84.9237 86.3333 78.5316C92.5765 84.0105 107.144 89.4895 118.59 78.5316C130.035 66.6605 115.468 52.9632 107.144 48.3974C113.387 46.571 124.208 39.6311 117.549 26.4816C110.89 13.3321 93.9638 16.1325 86.3333 19.1763C87.027 12.7842 85.0847 0 71.7659 0Z" fill="#BF55D0"/>
<path d="M73.2602 0.913237C61.8144 2.73954 62.0872 15.937 62.0872 21.1659C54.2144 20.6679 46.5716 22.2641 41.8429 28.308C36.8418 34.7001 38.4689 41.5839 41.8429 43.5759C36.7818 45.0699 27.3345 50.5976 30.0337 60.7568C32.733 70.916 45.7792 68.4758 51.965 65.9858C51.4026 71.4638 53.4833 82.7185 66.3048 83.9137C79.1262 85.1089 85.7057 74.9497 87.3927 69.7208C92.4538 74.2027 104.263 78.6847 113.542 69.7208C122.82 60.0098 111.011 48.8048 104.263 45.0699C109.324 43.5759 118.097 37.8987 112.698 27.1419C107.3 16.3852 93.5785 18.676 87.3927 21.1659C87.955 15.937 86.7255 -1.23529 73.2602 0.913237Z" fill="#BF55D0"/>
<path fill-rule="evenodd" clip-rule="evenodd" d="M52.7852 79.5088L88.8548 24.6818L90.427 25.4783L54.3574 80.3054L52.7852 79.5088Z" fill="#BF55D0"/>
<path d="M92.2999 25.818C91.8018 26.575 90.3423 26.6537 89.0399 25.9938C87.7374 25.3339 87.0853 24.1853 87.5833 23.4283C88.0814 22.6713 89.5409 22.5925 90.8433 23.2525C92.1458 23.9124 92.7979 25.061 92.2999 25.818Z" fill="#BF55D0"/>
<path d="M56.2304 80.6451C55.7323 81.4021 54.2728 81.4808 52.9704 80.8209C51.6679 80.161 51.0158 79.0123 51.5138 78.2553C52.0119 77.4983 53.4714 77.4196 54.7738 78.0795C56.0763 78.7394 56.7284 79.8881 56.2304 80.6451Z" fill="#BF55D0"/>
<path fill-rule="evenodd" clip-rule="evenodd" d="M44.4504 73.4674L101.91 23.0412L103.194 24.1678L45.7341 74.5939L44.4504 73.4674Z" fill="#BF55D0"/>
<path d="M104.956 24.8741C104.163 25.5703 102.658 25.3782 101.594 24.4449C100.531 23.5117 100.312 22.1907 101.105 21.4945C101.899 20.7982 103.404 20.9904 104.467 21.9236C105.531 22.8569 105.75 24.1779 104.956 24.8741Z" fill="#BF55D0"/>
<path d="M47.4967 75.3002C46.7033 75.9964 45.1981 75.8043 44.1347 74.871C43.0712 73.9378 42.8523 72.6168 43.6456 71.9206C44.439 71.2243 45.9442 71.4165 47.0076 72.3497C48.0711 73.283 48.29 74.604 47.4967 75.3002Z" fill="#BF55D0"/>
<path fill-rule="evenodd" clip-rule="evenodd" d="M46.6103 61.5079L104.793 32.0282L105.7 33.4079L47.518 62.8877L46.6103 61.5079Z" fill="#BF55D0"/>
<path d="M107.093 34.542C106.29 34.949 105.029 34.3524 104.277 33.2094C103.525 32.0664 103.567 30.8098 104.37 30.4028C105.173 29.9958 106.434 30.5924 107.186 31.7354C107.938 32.8784 107.896 34.1349 107.093 34.542Z" fill="#BF55D0"/>
<path d="M48.9104 64.0217C48.107 64.4288 46.8462 63.8321 46.0943 62.6891C45.3423 61.5461 45.384 60.2896 46.1873 59.8826C46.9906 59.4755 48.2514 60.0721 49.0034 61.2151C49.7554 62.3581 49.7137 63.6147 48.9104 64.0217Z" fill="#BF55D0"/>
<path fill-rule="evenodd" clip-rule="evenodd" d="M39.1395 55.841L104.939 40.3683L105.409 41.9071L39.6093 57.3799L39.1395 55.841Z" fill="#BF55D0"/>
<path d="M106.427 43.3171C105.518 43.5307 104.466 42.6704 104.077 41.3956C103.688 40.1207 104.109 38.914 105.017 38.7004C105.926 38.4868 106.978 39.3471 107.367 40.6219C107.756 41.8968 107.335 43.1034 106.427 43.3171Z" fill="#BF55D0"/>
<path d="M40.6273 58.7898C39.7188 59.0034 38.6668 58.1432 38.2775 56.8683C37.8883 55.5935 38.3092 54.3868 39.2177 54.1732C40.1263 53.9595 41.1783 54.8198 41.5675 56.0947C41.9568 57.3695 41.5358 58.5762 40.6273 58.7898Z" fill="#BF55D0"/>
<path fill-rule="evenodd" clip-rule="evenodd" d="M38.9393 47.4842L102.362 47.4842L102.362 49.3105L38.9393 49.3105L38.9393 47.4842Z" fill="#BF55D0"/>
<path d="M102.89 51.1368C102.015 51.1368 101.305 49.9103 101.305 48.3973C101.305 46.8844 102.015 45.6579 102.89 45.6579C103.766 45.6579 104.476 46.8844 104.476 48.3973C104.476 49.9103 103.766 51.1368 102.89 51.1368Z" fill="#BF55D0"/>
<path d="M39.4677 51.1368C38.592 51.1368 37.8822 49.9103 37.8822 48.3973C37.8822 46.8844 38.592 45.6579 39.4677 45.6579C40.3434 45.6579 41.0533 46.8844 41.0533 48.3973C41.0533 49.9103 40.3434 51.1368 39.4677 51.1368Z" fill="#BF55D0"/>
<path fill-rule="evenodd" clip-rule="evenodd" d="M34.5106 38.2161L105.459 54.8994L104.989 56.4383L34.0408 39.7549L34.5106 38.2161Z" fill="#BF55D0"/>
<path d="M105.11 58.1162C104.13 57.8859 103.652 56.6657 104.041 55.3908C104.43 54.116 105.54 53.2692 106.52 53.4996C107.499 53.7299 107.978 54.9501 107.588 56.225C107.199 57.4998 106.09 58.3466 105.11 58.1162Z" fill="#BF55D0"/>
<path d="M34.1621 41.4328C33.1825 41.2025 32.7039 39.9823 33.0932 38.7074C33.4824 37.4326 34.5921 36.5858 35.5716 36.8162C36.5512 37.0465 37.0298 38.2667 36.6405 39.5416C36.2513 40.8164 35.1417 41.6632 34.1621 41.4328Z" fill="#BF55D0"/>
<path fill-rule="evenodd" clip-rule="evenodd" d="M44.5193 32.388L101.17 61.0916L100.262 62.4713L43.6117 33.7678L44.5193 32.388Z" fill="#BF55D0"/>
<path d="M99.8267 64.0903C99.0445 63.6939 99.02 62.4461 99.772 61.3031C100.524 60.1601 101.768 59.5548 102.55 59.9511C103.332 60.3474 103.356 61.5953 102.605 62.7383C101.853 63.8813 100.609 64.4866 99.8267 64.0903Z" fill="#BF55D0"/>
<path d="M43.1759 35.3866C42.3938 34.9903 42.3693 33.7425 43.1212 32.5995C43.8732 31.4565 45.1168 30.8512 45.899 31.2475C46.6812 31.6438 46.7057 32.8916 45.9538 34.0346C45.2018 35.1776 43.9581 35.783 43.1759 35.3866Z" fill="#BF55D0"/>
<path fill-rule="evenodd" clip-rule="evenodd" d="M50.9846 26.8085L103.363 72.7757L102.08 73.9022L49.7009 27.9351L50.9846 26.8085Z" fill="#BF55D0"/>
<path d="M101.233 75.4118C100.509 74.7771 100.785 73.5061 101.849 72.5728C102.912 71.6395 104.36 71.3975 105.084 72.0322C105.807 72.6668 105.531 73.9379 104.468 74.8712C103.404 75.8044 101.956 76.0465 101.233 75.4118Z" fill="#BF55D0"/>
<path d="M48.8537 29.4447C48.1305 28.81 48.4063 27.5389 49.4698 26.6057C50.5332 25.6724 51.9815 25.4304 52.7047 26.065C53.4279 26.6997 53.1521 27.9708 52.0887 28.904C51.0253 29.8373 49.5769 30.0793 48.8537 29.4447Z" fill="#BF55D0"/>
<path fill-rule="evenodd" clip-rule="evenodd" d="M58.1291 22.2216L91.906 73.5636L90.3339 74.3602L56.5569 23.0181L58.1291 22.2216Z" fill="#BF55D0"/>
<path d="M89.0432 75.5846C88.5769 74.8757 89.2546 73.7661 90.5571 73.1062C91.8595 72.4463 93.2934 72.486 93.7597 73.1949C94.2261 73.9038 93.5483 75.0134 92.2459 75.6733C90.9435 76.3332 89.5096 76.2935 89.0432 75.5846Z" fill="#BF55D0"/>
<path d="M55.2662 24.2426C54.7999 23.5337 55.4776 22.4241 56.7801 21.7642C58.0825 21.1042 59.5164 21.144 59.9827 21.8528C60.4491 22.5617 59.7713 23.6714 58.4689 24.3313C57.1665 24.9912 55.7326 24.9515 55.2662 24.2426Z" fill="#BF55D0"/>
<path fill-rule="evenodd" clip-rule="evenodd" d="M66.5653 19.9832L83.0626 74.0155L81.3091 74.4279L64.8117 20.3956L66.5653 19.9832Z" fill="#BF55D0"/>
<path d="M79.693 75.2904C79.4653 74.5445 80.4583 73.663 81.911 73.3214C83.3637 72.9798 84.7259 73.3075 84.9536 74.0533C85.1813 74.7992 84.1883 75.6807 82.7357 76.0223C81.283 76.3639 79.9208 76.0362 79.693 75.2904Z" fill="#BF55D0"/>
<path d="M63.1956 21.258C62.9678 20.5122 63.9609 19.6306 65.4135 19.289C66.8662 18.9474 68.2284 19.2751 68.4562 20.021C68.6839 20.7668 67.6909 21.6484 66.2382 21.99C64.7855 22.3316 63.4233 22.0039 63.1956 21.258Z" fill="#BF55D0"/>
<path fill-rule="evenodd" clip-rule="evenodd" d="M75.2091 12.1464L75.2091 83.4597L73.3937 83.4597L73.3937 12.1464L75.2091 12.1464Z" fill="#BF55D0"/>
<path d="M71.5783 84.054C71.5783 83.0694 72.7974 82.2712 74.3014 82.2712C75.8053 82.2712 77.0244 83.0694 77.0244 84.054C77.0244 85.0386 75.8053 85.8368 74.3014 85.8368C72.7974 85.8368 71.5783 85.0386 71.5783 84.054Z" fill="#BF55D0"/>
<path d="M71.5783 12.7407C71.5783 11.7561 72.7974 10.9579 74.3013 10.9579C75.8053 10.9579 77.0244 11.7561 77.0244 12.7407C77.0244 13.7253 75.8053 14.5235 74.3013 14.5235C72.7974 14.5235 71.5783 13.7253 71.5783 12.7407Z" fill="#BF55D0"/>
<path fill-rule="evenodd" clip-rule="evenodd" d="M82.7231 23.891L66.6697 76.4695L64.9162 76.0572L80.9696 23.4787L82.7231 23.891Z" fill="#BF55D0"/>
<path d="M63.0287 76.083C63.2504 75.357 64.6077 75.0454 66.0604 75.387C67.513 75.7286 68.511 76.594 68.2893 77.32C68.0677 78.0459 66.7104 78.3575 65.2577 78.0159C63.805 77.6743 62.8071 76.8089 63.0287 76.083Z" fill="#BF55D0"/>
<path d="M79.0822 23.5045C79.3038 22.7785 80.6612 22.4669 82.1138 22.8085C83.5665 23.1501 84.5644 24.0156 84.3428 24.7415C84.1211 25.4675 82.7638 25.7791 81.3112 25.4375C79.8585 25.0959 78.8605 24.2304 79.0822 23.5045Z" fill="#BF55D0"/>
<path fill-rule="evenodd" clip-rule="evenodd" d="M90.9103 24.7435L54.9547 79.3973L53.3825 78.6007L89.3382 23.9469L90.9103 24.7435Z" fill="#BF55D0"/>
<path d="M51.5107 78.2596C52.0072 77.505 53.4655 77.4282 54.7679 78.0881C56.0703 78.748 56.7237 79.8947 56.2273 80.6493C55.7308 81.4039 54.2728 81.4808 52.9704 80.8209C51.6679 80.161 51.0143 79.0142 51.5107 78.2596Z" fill="#BF55D0"/>
<path d="M87.4664 23.6058C87.9628 22.8511 89.4211 22.7744 90.7235 23.4343C92.026 24.0942 92.6793 25.2409 92.1829 25.9955C91.6865 26.7501 90.2282 26.8269 88.9257 26.167C87.6233 25.5071 86.9699 24.3604 87.4664 23.6058Z" fill="#BF55D0"/>
<path fill-rule="evenodd" clip-rule="evenodd" d="M104.151 23.3273L46.6915 73.7535L45.4079 72.6269L102.868 22.2008L104.151 23.3273Z" fill="#BF55D0"/>
<path d="M43.6456 71.9206C44.439 71.2243 45.9442 71.4165 47.0076 72.3497C48.0711 73.283 48.29 74.604 47.4967 75.3002C46.7033 75.9964 45.1981 75.8043 44.1347 74.871C43.0712 73.9378 42.8523 72.6168 43.6456 71.9206Z" fill="#BF55D0"/>
<path d="M101.105 21.4945C101.899 20.7982 103.404 20.9904 104.467 21.9236C105.531 22.8569 105.75 24.1779 104.956 24.8741C104.163 25.5703 102.658 25.3782 101.594 24.4449C100.531 23.5117 100.312 22.1907 101.105 21.4945Z" fill="#BF55D0"/>
<path fill-rule="evenodd" clip-rule="evenodd" d="M106.447 33.0295L48.6867 62.2954L47.779 60.9157L105.539 31.6498L106.447 33.0295Z" fill="#BF55D0"/>
<path d="M46.3901 59.7799C47.1876 59.3758 48.4437 59.9748 49.1957 61.1178C49.9476 62.2608 49.9107 63.515 49.1132 63.919C48.3157 64.3231 47.0596 63.7241 46.3077 62.5811C45.5557 61.4381 45.5926 60.1839 46.3901 59.7799Z" fill="#BF55D0"/>
<path d="M104.151 30.514C104.948 30.1099 106.204 30.7089 106.956 31.8519C107.708 32.9949 107.671 34.2491 106.874 34.6532C106.076 35.0572 104.82 34.4582 104.068 33.3152C103.316 32.1722 103.353 30.9181 104.151 30.514Z" fill="#BF55D0"/>
<path fill-rule="evenodd" clip-rule="evenodd" d="M106.52 41.6456L40.8346 57.0916L40.3648 55.5527L106.05 40.1067L106.52 41.6456Z" fill="#BF55D0"/>
<path d="M39.3475 54.1425C40.2544 53.9293 41.3052 54.7899 41.6944 56.0647C42.0837 57.3396 41.664 58.5459 40.7571 58.7592C39.8502 58.9724 38.7994 58.1119 38.4102 56.837C38.0209 55.5622 38.4406 54.3558 39.3475 54.1425Z" fill="#BF55D0"/>
<path d="M105.033 38.6966C105.94 38.4833 106.991 39.3439 107.38 40.6187C107.769 41.8936 107.35 43.0999 106.443 43.3132C105.536 43.5265 104.485 42.6659 104.096 41.391C103.707 40.1162 104.126 38.9098 105.033 38.6966Z" fill="#BF55D0"/>
<path fill-rule="evenodd" clip-rule="evenodd" d="M103.419 49.3105L39.9964 49.3105L39.9964 47.4842L103.419 47.4842L103.419 49.3105Z" fill="#BF55D0"/>
<path d="M39.4677 45.6579C40.3434 45.6579 41.0533 46.8844 41.0533 48.3973C41.0533 49.9103 40.3434 51.1368 39.4677 51.1368C38.592 51.1368 37.8822 49.9103 37.8822 48.3973C37.8822 46.8844 38.592 45.6579 39.4677 45.6579Z" fill="#BF55D0"/>
<path d="M102.89 45.6579C103.766 45.6579 104.476 46.8844 104.476 48.3973C104.476 49.9103 103.766 51.1368 102.89 51.1368C102.015 51.1368 101.305 49.9103 101.305 48.3973C101.305 46.8844 102.015 45.6579 102.89 45.6579Z" fill="#BF55D0"/>
<path fill-rule="evenodd" clip-rule="evenodd" d="M105.767 56.6213L35.21 40.0298L35.6798 38.4909L106.237 55.0824L105.767 56.6213Z" fill="#BF55D0"/>
<path d="M35.5616 36.8138C36.5358 37.0429 37.01 38.262 36.6207 39.5369C36.2315 40.8117 35.1262 41.6595 34.152 41.4304C33.1779 41.2013 32.7039 39.9823 33.0932 38.7074C33.4824 37.4326 34.5874 36.5847 35.5616 36.8138Z" fill="#BF55D0"/>
<path d="M106.119 53.4052C107.093 53.6343 107.567 54.8535 107.178 56.1283C106.789 57.4032 105.683 58.251 104.709 58.0219C103.735 57.7928 103.261 56.5736 103.65 55.2988C104.039 54.0239 105.145 53.1762 106.119 53.4052Z" fill="#BF55D0"/>
<path fill-rule="evenodd" clip-rule="evenodd" d="M101.16 62.9258L44.4137 34.1738L45.3214 32.7941L102.068 61.5461L101.16 62.9258Z" fill="#BF55D0"/>
<path d="M45.7562 31.1747C46.5397 31.5717 46.5653 32.8201 45.8134 33.9631C45.0614 35.1061 43.8167 35.7109 43.0332 35.3139C42.2497 34.9169 42.2241 33.6685 42.976 32.5255C43.728 31.3825 44.9727 30.7777 45.7562 31.1747Z" fill="#BF55D0"/>
<path d="M102.503 59.9268C103.286 60.3238 103.312 61.5722 102.56 62.7152C101.808 63.8582 100.563 64.4629 99.7794 64.066C98.9959 63.669 98.9704 62.4206 99.7223 61.2776C100.474 60.1346 101.719 59.5298 102.503 59.9268Z" fill="#BF55D0"/>
<path fill-rule="evenodd" clip-rule="evenodd" d="M102.95 74.6656L50.3861 28.5361L51.6697 27.4095L104.234 73.5391L102.95 74.6656Z" fill="#BF55D0"/>
<path d="M52.5153 25.8986C53.241 26.5355 52.9673 27.8083 51.9039 28.7416C50.8405 29.6749 49.39 29.9151 48.6643 29.2782C47.9385 28.6413 48.2123 27.3684 49.2757 26.4351C50.3391 25.5019 51.7895 25.2616 52.5153 25.8986Z" fill="#BF55D0"/>
<path d="M105.079 72.0281C105.805 72.665 105.531 73.9379 104.468 74.8712C103.404 75.8044 101.954 76.0446 101.228 75.4077C100.502 74.7708 100.776 73.4979 101.84 72.5647C102.903 71.6314 104.353 71.3912 105.079 72.0281Z" fill="#BF55D0"/>
<path fill-rule="evenodd" clip-rule="evenodd" d="M90.9848 75.3504L57.0099 23.7075L58.5821 22.9109L92.5569 74.5538L90.9848 75.3504Z" fill="#BF55D0"/>
<path d="M59.8711 21.684C60.3402 22.397 59.6646 23.51 58.3622 24.1699C57.0598 24.8298 55.6237 24.7868 55.1546 24.0737C54.6855 23.3607 55.361 22.2477 56.6635 21.5878C57.9659 20.9279 59.402 20.9709 59.8711 21.684Z" fill="#BF55D0"/>
<path d="M93.8458 73.3268C94.3149 74.0398 93.6394 75.1528 92.3369 75.8127C91.0345 76.4726 89.5984 76.4296 89.1293 75.7165C88.6602 75.0035 89.3358 73.8905 90.6382 73.2306C91.9406 72.5707 93.3767 72.6138 93.8458 73.3268Z" fill="#BF55D0"/>
<path fill-rule="evenodd" clip-rule="evenodd" d="M81.5617 75.2555L65.0258 21.0968L66.7793 20.6845L83.3152 74.8432L81.5617 75.2555Z" fill="#BF55D0"/>
<path d="M68.3954 19.8222C68.6237 20.5699 67.6312 21.453 66.1785 21.7946C64.7258 22.1362 63.3631 21.807 63.1348 21.0592C62.9065 20.3114 63.899 19.4283 65.3517 19.0867C66.8044 18.7451 68.1671 19.0744 68.3954 19.8222Z" fill="#BF55D0"/>
<path d="M84.9315 73.9808C85.1598 74.7286 84.1672 75.6117 82.7146 75.9533C81.2619 76.2949 79.8992 75.9656 79.6709 75.2179C79.4426 74.4701 80.4351 73.587 81.8878 73.2454C83.3404 72.9038 84.7032 73.2331 84.9315 73.9808Z" fill="#BF55D0"/>
<path fill-rule="evenodd" clip-rule="evenodd" d="M73.3934 84.6483L73.3934 13.335L75.2088 13.335L75.2088 84.6483L73.3934 84.6483Z" fill="#BF55D0"/>
<path d="M77.0244 12.7407C77.0244 13.7253 75.8053 14.5235 74.3013 14.5235C72.7974 14.5235 71.5783 13.7253 71.5783 12.7407C71.5783 11.7561 72.7974 10.9579 74.3013 10.9579C75.8053 10.9579 77.0244 11.7561 77.0244 12.7407Z" fill="#BF55D0"/>
<path d="M77.0244 84.054C77.0244 85.0386 75.8053 85.8368 74.3014 85.8368C72.7974 85.8368 71.5783 85.0386 71.5783 84.054C71.5783 83.0694 72.7974 82.2712 74.3014 82.2712C75.8053 82.2712 77.0244 83.0694 77.0244 84.054Z" fill="#BF55D0"/>
<path fill-rule="evenodd" clip-rule="evenodd" d="M64.6951 76.7817L80.7301 24.2634L82.4836 24.6758L66.4486 77.1941L64.6951 76.7817Z" fill="#BF55D0"/>
<path d="M84.3707 24.6505C84.1493 25.3756 82.7922 25.6865 81.3395 25.3449C79.8869 25.0033 78.8887 24.1386 79.1101 23.4135C79.3315 22.6883 80.6886 22.3774 82.1413 22.719C83.594 23.0606 84.5921 23.9254 84.3707 24.6505Z" fill="#BF55D0"/>
<path d="M68.3356 77.1688C68.1142 77.8939 66.7571 78.2048 65.3044 77.8632C63.8517 77.5216 62.8536 76.6569 63.075 75.9317C63.2964 75.2066 64.6535 74.8957 66.1062 75.2373C67.5588 75.5789 68.557 76.4436 68.3356 77.1688Z" fill="#BF55D0"/>
<ellipse cx="16.1631" cy="16.0923" rx="16.1631" ry="16.0923" transform="matrix(0.892032 0.451973 -0.549608 0.835423 67.5356 27.248)" fill="#BF55D0"/>
</g>
<g style="mix-blend-mode:soft-light">
<path d="M71.7659 0C58.4472 0 55.1175 12.7842 55.1175 19.1763C45.406 18.5675 26.6767 15.5237 21.821 28.3079C18.4913 37.0742 25.983 44.136 30.145 46.571C23.9019 48.3974 12.248 55.1547 15.5776 67.5737C18.9073 79.9926 35.0007 77.0096 42.6312 73.9658C41.9375 80.6623 44.5041 94.4205 60.3201 95.8816C76.1361 97.3426 84.2523 84.9237 86.3333 78.5316C92.5765 84.0105 107.144 89.4895 118.59 78.5316C130.035 66.6605 115.468 52.9632 107.144 48.3974C113.387 46.571 124.208 39.6311 117.549 26.4816C110.89 13.3321 93.9638 16.1325 86.3333 19.1763C87.027 12.7842 85.0847 0 71.7659 0Z" fill="#BF55D0"/>
<path d="M73.2602 0.913237C61.8144 2.73954 62.0872 15.937 62.0872 21.1659C54.2144 20.6679 46.5716 22.2641 41.8429 28.308C36.8418 34.7001 38.4689 41.5839 41.8429 43.5759C36.7818 45.0699 27.3345 50.5976 30.0337 60.7568C32.733 70.916 45.7792 68.4758 51.965 65.9858C51.4026 71.4638 53.4833 82.7185 66.3048 83.9137C79.1262 85.1089 85.7057 74.9497 87.3927 69.7208C92.4538 74.2027 104.263 78.6847 113.542 69.7208C122.82 60.0098 111.011 48.8048 104.263 45.0699C109.324 43.5759 118.097 37.8987 112.698 27.1419C107.3 16.3852 93.5785 18.676 87.3927 21.1659C87.955 15.937 86.7255 -1.23529 73.2602 0.913237Z" fill="#BF55D0"/>
<path fill-rule="evenodd" clip-rule="evenodd" d="M52.7852 79.5088L88.8548 24.6818L90.427 25.4783L54.3574 80.3054L52.7852 79.5088Z" fill="#BF55D0"/>
<path d="M92.2999 25.818C91.8018 26.575 90.3423 26.6537 89.0399 25.9938C87.7374 25.3339 87.0853 24.1853 87.5833 23.4283C88.0814 22.6713 89.5409 22.5925 90.8433 23.2525C92.1458 23.9124 92.7979 25.061 92.2999 25.818Z" fill="#BF55D0"/>
<path d="M56.2304 80.6451C55.7323 81.4021 54.2728 81.4808 52.9704 80.8209C51.6679 80.161 51.0158 79.0123 51.5138 78.2553C52.0119 77.4983 53.4714 77.4196 54.7738 78.0795C56.0763 78.7394 56.7284 79.8881 56.2304 80.6451Z" fill="#BF55D0"/>
<path fill-rule="evenodd" clip-rule="evenodd" d="M44.4504 73.4674L101.91 23.0412L103.194 24.1678L45.7341 74.5939L44.4504 73.4674Z" fill="#BF55D0"/>
<path d="M104.956 24.8741C104.163 25.5703 102.658 25.3782 101.594 24.4449C100.531 23.5117 100.312 22.1907 101.105 21.4945C101.899 20.7982 103.404 20.9904 104.467 21.9236C105.531 22.8569 105.75 24.1779 104.956 24.8741Z" fill="#BF55D0"/>
<path d="M47.4967 75.3002C46.7033 75.9964 45.1981 75.8043 44.1347 74.871C43.0712 73.9378 42.8523 72.6168 43.6456 71.9206C44.439 71.2243 45.9442 71.4165 47.0076 72.3497C48.0711 73.283 48.29 74.604 47.4967 75.3002Z" fill="#BF55D0"/>
<path fill-rule="evenodd" clip-rule="evenodd" d="M46.6103 61.5079L104.793 32.0282L105.7 33.4079L47.518 62.8877L46.6103 61.5079Z" fill="#BF55D0"/>
<path d="M107.093 34.542C106.29 34.949 105.029 34.3524 104.277 33.2094C103.525 32.0664 103.567 30.8098 104.37 30.4028C105.173 29.9958 106.434 30.5924 107.186 31.7354C107.938 32.8784 107.896 34.1349 107.093 34.542Z" fill="#BF55D0"/>
<path d="M48.9104 64.0217C48.107 64.4288 46.8462 63.8321 46.0943 62.6891C45.3423 61.5461 45.384 60.2896 46.1873 59.8826C46.9906 59.4755 48.2514 60.0721 49.0034 61.2151C49.7554 62.3581 49.7137 63.6147 48.9104 64.0217Z" fill="#BF55D0"/>
<path fill-rule="evenodd" clip-rule="evenodd" d="M39.1395 55.841L104.939 40.3683L105.409 41.9071L39.6093 57.3799L39.1395 55.841Z" fill="#BF55D0"/>
<path d="M106.427 43.3171C105.518 43.5307 104.466 42.6704 104.077 41.3956C103.688 40.1207 104.109 38.914 105.017 38.7004C105.926 38.4868 106.978 39.3471 107.367 40.6219C107.756 41.8968 107.335 43.1034 106.427 43.3171Z" fill="#BF55D0"/>
<path d="M40.6273 58.7898C39.7188 59.0034 38.6668 58.1432 38.2775 56.8683C37.8883 55.5935 38.3092 54.3868 39.2177 54.1732C40.1263 53.9595 41.1783 54.8198 41.5675 56.0947C41.9568 57.3695 41.5358 58.5762 40.6273 58.7898Z" fill="#BF55D0"/>
<path fill-rule="evenodd" clip-rule="evenodd" d="M38.9393 47.4842L102.362 47.4842L102.362 49.3105L38.9393 49.3105L38.9393 47.4842Z" fill="#BF55D0"/>
<path d="M102.89 51.1368C102.015 51.1368 101.305 49.9103 101.305 48.3973C101.305 46.8844 102.015 45.6579 102.89 45.6579C103.766 45.6579 104.476 46.8844 104.476 48.3973C104.476 49.9103 103.766 51.1368 102.89 51.1368Z" fill="#BF55D0"/>
<path d="M39.4677 51.1368C38.592 51.1368 37.8822 49.9103 37.8822 48.3973C37.8822 46.8844 38.592 45.6579 39.4677 45.6579C40.3434 45.6579 41.0533 46.8844 41.0533 48.3973C41.0533 49.9103 40.3434 51.1368 39.4677 51.1368Z" fill="#BF55D0"/>
<path fill-rule="evenodd" clip-rule="evenodd" d="M34.5106 38.2161L105.459 54.8994L104.989 56.4383L34.0408 39.7549L34.5106 38.2161Z" fill="#BF55D0"/>
<path d="M105.11 58.1162C104.13 57.8859 103.652 56.6657 104.041 55.3908C104.43 54.116 105.54 53.2692 106.52 53.4996C107.499 53.7299 107.978 54.9501 107.588 56.225C107.199 57.4998 106.09 58.3466 105.11 58.1162Z" fill="#BF55D0"/>
<path d="M34.1621 41.4328C33.1825 41.2025 32.7039 39.9823 33.0932 38.7074C33.4824 37.4326 34.5921 36.5858 35.5716 36.8162C36.5512 37.0465 37.0298 38.2667 36.6405 39.5416C36.2513 40.8164 35.1417 41.6632 34.1621 41.4328Z" fill="#BF55D0"/>
<path fill-rule="evenodd" clip-rule="evenodd" d="M44.5193 32.388L101.17 61.0916L100.262 62.4713L43.6117 33.7678L44.5193 32.388Z" fill="#BF55D0"/>
<path d="M99.8267 64.0903C99.0445 63.6939 99.02 62.4461 99.772 61.3031C100.524 60.1601 101.768 59.5548 102.55 59.9511C103.332 60.3474 103.356 61.5953 102.605 62.7383C101.853 63.8813 100.609 64.4866 99.8267 64.0903Z" fill="#BF55D0"/>
<path d="M43.1759 35.3866C42.3938 34.9903 42.3693 33.7425 43.1212 32.5995C43.8732 31.4565 45.1168 30.8512 45.899 31.2475C46.6812 31.6438 46.7057 32.8916 45.9538 34.0346C45.2018 35.1776 43.9581 35.783 43.1759 35.3866Z" fill="#BF55D0"/>
<path fill-rule="evenodd" clip-rule="evenodd" d="M50.9846 26.8085L103.363 72.7757L102.08 73.9022L49.7009 27.9351L50.9846 26.8085Z" fill="#BF55D0"/>
<path d="M101.233 75.4118C100.509 74.7771 100.785 73.5061 101.849 72.5728C102.912 71.6395 104.36 71.3975 105.084 72.0322C105.807 72.6668 105.531 73.9379 104.468 74.8712C103.404 75.8044 101.956 76.0465 101.233 75.4118Z" fill="#BF55D0"/>
<path d="M48.8537 29.4447C48.1305 28.81 48.4063 27.5389 49.4698 26.6057C50.5332 25.6724 51.9815 25.4304 52.7047 26.065C53.4279 26.6997 53.1521 27.9708 52.0887 28.904C51.0253 29.8373 49.5769 30.0793 48.8537 29.4447Z" fill="#BF55D0"/>
<path fill-rule="evenodd" clip-rule="evenodd" d="M58.1291 22.2216L91.906 73.5636L90.3339 74.3602L56.5569 23.0181L58.1291 22.2216Z" fill="#BF55D0"/>
<path d="M89.0432 75.5846C88.5769 74.8757 89.2546 73.7661 90.5571 73.1062C91.8595 72.4463 93.2934 72.486 93.7597 73.1949C94.2261 73.9038 93.5483 75.0134 92.2459 75.6733C90.9435 76.3332 89.5096 76.2935 89.0432 75.5846Z" fill="#BF55D0"/>
<path d="M55.2662 24.2426C54.7999 23.5337 55.4776 22.4241 56.7801 21.7642C58.0825 21.1042 59.5164 21.144 59.9827 21.8528C60.4491 22.5617 59.7713 23.6714 58.4689 24.3313C57.1665 24.9912 55.7326 24.9515 55.2662 24.2426Z" fill="#BF55D0"/>
<path fill-rule="evenodd" clip-rule="evenodd" d="M66.5653 19.9832L83.0626 74.0155L81.3091 74.4279L64.8117 20.3956L66.5653 19.9832Z" fill="#BF55D0"/>
<path d="M79.693 75.2904C79.4653 74.5445 80.4583 73.663 81.911 73.3214C83.3637 72.9798 84.7259 73.3075 84.9536 74.0533C85.1813 74.7992 84.1883 75.6807 82.7357 76.0223C81.283 76.3639 79.9208 76.0362 79.693 75.2904Z" fill="#BF55D0"/>
<path d="M63.1956 21.258C62.9678 20.5122 63.9609 19.6306 65.4135 19.289C66.8662 18.9474 68.2284 19.2751 68.4562 20.021C68.6839 20.7668 67.6909 21.6484 66.2382 21.99C64.7855 22.3316 63.4233 22.0039 63.1956 21.258Z" fill="#BF55D0"/>
<path fill-rule="evenodd" clip-rule="evenodd" d="M75.2091 12.1464L75.2091 83.4597L73.3937 83.4597L73.3937 12.1464L75.2091 12.1464Z" fill="#BF55D0"/>
<path d="M71.5783 84.054C71.5783 83.0694 72.7974 82.2712 74.3014 82.2712C75.8053 82.2712 77.0244 83.0694 77.0244 84.054C77.0244 85.0386 75.8053 85.8368 74.3014 85.8368C72.7974 85.8368 71.5783 85.0386 71.5783 84.054Z" fill="#BF55D0"/>
<path d="M71.5783 12.7407C71.5783 11.7561 72.7974 10.9579 74.3013 10.9579C75.8053 10.9579 77.0244 11.7561 77.0244 12.7407C77.0244 13.7253 75.8053 14.5235 74.3013 14.5235C72.7974 14.5235 71.5783 13.7253 71.5783 12.7407Z" fill="#BF55D0"/>
<path fill-rule="evenodd" clip-rule="evenodd" d="M82.7231 23.891L66.6697 76.4695L64.9162 76.0572L80.9696 23.4787L82.7231 23.891Z" fill="#BF55D0"/>
<path d="M63.0287 76.083C63.2504 75.357 64.6077 75.0454 66.0604 75.387C67.513 75.7286 68.511 76.594 68.2893 77.32C68.0677 78.0459 66.7104 78.3575 65.2577 78.0159C63.805 77.6743 62.8071 76.8089 63.0287 76.083Z" fill="#BF55D0"/>
<path d="M79.0822 23.5045C79.3038 22.7785 80.6612 22.4669 82.1138 22.8085C83.5665 23.1501 84.5644 24.0156 84.3428 24.7415C84.1211 25.4675 82.7638 25.7791 81.3112 25.4375C79.8585 25.0959 78.8605 24.2304 79.0822 23.5045Z" fill="#BF55D0"/>
<path fill-rule="evenodd" clip-rule="evenodd" d="M90.9103 24.7435L54.9547 79.3973L53.3825 78.6007L89.3382 23.9469L90.9103 24.7435Z" fill="#BF55D0"/>
<path d="M51.5107 78.2596C52.0072 77.505 53.4655 77.4282 54.7679 78.0881C56.0703 78.748 56.7237 79.8947 56.2273 80.6493C55.7308 81.4039 54.2728 81.4808 52.9704 80.8209C51.6679 80.161 51.0143 79.0142 51.5107 78.2596Z" fill="#BF55D0"/>
<path d="M87.4664 23.6058C87.9628 22.8511 89.4211 22.7744 90.7235 23.4343C92.026 24.0942 92.6793 25.2409 92.1829 25.9955C91.6865 26.7501 90.2282 26.8269 88.9257 26.167C87.6233 25.5071 86.9699 24.3604 87.4664 23.6058Z" fill="#BF55D0"/>
<path fill-rule="evenodd" clip-rule="evenodd" d="M104.151 23.3273L46.6915 73.7535L45.4079 72.6269L102.868 22.2008L104.151 23.3273Z" fill="#BF55D0"/>
<path d="M43.6456 71.9206C44.439 71.2243 45.9442 71.4165 47.0076 72.3497C48.0711 73.283 48.29 74.604 47.4967 75.3002C46.7033 75.9964 45.1981 75.8043 44.1347 74.871C43.0712 73.9378 42.8523 72.6168 43.6456 71.9206Z" fill="#BF55D0"/>
<path d="M101.105 21.4945C101.899 20.7982 103.404 20.9904 104.467 21.9236C105.531 22.8569 105.75 24.1779 104.956 24.8741C104.163 25.5703 102.658 25.3782 101.594 24.4449C100.531 23.5117 100.312 22.1907 101.105 21.4945Z" fill="#BF55D0"/>
<path fill-rule="evenodd" clip-rule="evenodd" d="M106.447 33.0295L48.6867 62.2954L47.779 60.9157L105.539 31.6498L106.447 33.0295Z" fill="#BF55D0"/>
<path d="M46.3901 59.7799C47.1876 59.3758 48.4437 59.9748 49.1957 61.1178C49.9476 62.2608 49.9107 63.515 49.1132 63.919C48.3157 64.3231 47.0596 63.7241 46.3077 62.5811C45.5557 61.4381 45.5926 60.1839 46.3901 59.7799Z" fill="#BF55D0"/>
<path d="M104.151 30.514C104.948 30.1099 106.204 30.7089 106.956 31.8519C107.708 32.9949 107.671 34.2491 106.874 34.6532C106.076 35.0572 104.82 34.4582 104.068 33.3152C103.316 32.1722 103.353 30.9181 104.151 30.514Z" fill="#BF55D0"/>
<path fill-rule="evenodd" clip-rule="evenodd" d="M106.52 41.6456L40.8346 57.0916L40.3648 55.5527L106.05 40.1067L106.52 41.6456Z" fill="#BF55D0"/>
<path d="M39.3475 54.1425C40.2544 53.9293 41.3052 54.7899 41.6944 56.0647C42.0837 57.3396 41.664 58.5459 40.7571 58.7592C39.8502 58.9724 38.7994 58.1119 38.4102 56.837C38.0209 55.5622 38.4406 54.3558 39.3475 54.1425Z" fill="#BF55D0"/>
<path d="M105.033 38.6966C105.94 38.4833 106.991 39.3439 107.38 40.6187C107.769 41.8936 107.35 43.0999 106.443 43.3132C105.536 43.5265 104.485 42.6659 104.096 41.391C103.707 40.1162 104.126 38.9098 105.033 38.6966Z" fill="#BF55D0"/>
<path fill-rule="evenodd" clip-rule="evenodd" d="M103.419 49.3105L39.9964 49.3105L39.9964 47.4842L103.419 47.4842L103.419 49.3105Z" fill="#BF55D0"/>
<path d="M39.4677 45.6579C40.3434 45.6579 41.0533 46.8844 41.0533 48.3973C41.0533 49.9103 40.3434 51.1368 39.4677 51.1368C38.592 51.1368 37.8822 49.9103 37.8822 48.3973C37.8822 46.8844 38.592 45.6579 39.4677 45.6579Z" fill="#BF55D0"/>
<path d="M102.89 45.6579C103.766 45.6579 104.476 46.8844 104.476 48.3973C104.476 49.9103 103.766 51.1368 102.89 51.1368C102.015 51.1368 101.305 49.9103 101.305 48.3973C101.305 46.8844 102.015 45.6579 102.89 45.6579Z" fill="#BF55D0"/>
<path fill-rule="evenodd" clip-rule="evenodd" d="M105.767 56.6213L35.21 40.0298L35.6798 38.4909L106.237 55.0824L105.767 56.6213Z" fill="#BF55D0"/>
<path d="M35.5616 36.8138C36.5358 37.0429 37.01 38.262 36.6207 39.5369C36.2315 40.8117 35.1262 41.6595 34.152 41.4304C33.1779 41.2013 32.7039 39.9823 33.0932 38.7074C33.4824 37.4326 34.5874 36.5847 35.5616 36.8138Z" fill="#BF55D0"/>
<path d="M106.119 53.4052C107.093 53.6343 107.567 54.8535 107.178 56.1283C106.789 57.4032 105.683 58.251 104.709 58.0219C103.735 57.7928 103.261 56.5736 103.65 55.2988C104.039 54.0239 105.145 53.1762 106.119 53.4052Z" fill="#BF55D0"/>
<path fill-rule="evenodd" clip-rule="evenodd" d="M101.16 62.9258L44.4137 34.1738L45.3214 32.7941L102.068 61.5461L101.16 62.9258Z" fill="#BF55D0"/>
<path d="M45.7562 31.1747C46.5397 31.5717 46.5653 32.8201 45.8134 33.9631C45.0614 35.1061 43.8167 35.7109 43.0332 35.3139C42.2497 34.9169 42.2241 33.6685 42.976 32.5255C43.728 31.3825 44.9727 30.7777 45.7562 31.1747Z" fill="#BF55D0"/>
<path d="M102.503 59.9268C103.286 60.3238 103.312 61.5722 102.56 62.7152C101.808 63.8582 100.563 64.4629 99.7794 64.066C98.9959 63.669 98.9704 62.4206 99.7223 61.2776C100.474 60.1346 101.719 59.5298 102.503 59.9268Z" fill="#BF55D0"/>
<path fill-rule="evenodd" clip-rule="evenodd" d="M102.95 74.6656L50.3861 28.5361L51.6697 27.4095L104.234 73.5391L102.95 74.6656Z" fill="#BF55D0"/>
<path d="M52.5153 25.8986C53.241 26.5355 52.9673 27.8083 51.9039 28.7416C50.8405 29.6749 49.39 29.9151 48.6643 29.2782C47.9385 28.6413 48.2123 27.3684 49.2757 26.4351C50.3391 25.5019 51.7895 25.2616 52.5153 25.8986Z" fill="#BF55D0"/>
<path d="M105.079 72.0281C105.805 72.665 105.531 73.9379 104.468 74.8712C103.404 75.8044 101.954 76.0446 101.228 75.4077C100.502 74.7708 100.776 73.4979 101.84 72.5647C102.903 71.6314 104.353 71.3912 105.079 72.0281Z" fill="#BF55D0"/>
<path fill-rule="evenodd" clip-rule="evenodd" d="M90.9848 75.3504L57.0099 23.7075L58.5821 22.9109L92.5569 74.5538L90.9848 75.3504Z" fill="#BF55D0"/>
<path d="M59.8711 21.684C60.3402 22.397 59.6646 23.51 58.3622 24.1699C57.0598 24.8298 55.6237 24.7868 55.1546 24.0737C54.6855 23.3607 55.361 22.2477 56.6635 21.5878C57.9659 20.9279 59.402 20.9709 59.8711 21.684Z" fill="#BF55D0"/>
<path d="M93.8458 73.3268C94.3149 74.0398 93.6394 75.1528 92.3369 75.8127C91.0345 76.4726 89.5984 76.4296 89.1293 75.7165C88.6602 75.0035 89.3358 73.8905 90.6382 73.2306C91.9406 72.5707 93.3767 72.6138 93.8458 73.3268Z" fill="#BF55D0"/>
<path fill-rule="evenodd" clip-rule="evenodd" d="M81.5617 75.2555L65.0258 21.0968L66.7793 20.6845L83.3152 74.8432L81.5617 75.2555Z" fill="#BF55D0"/>
<path d="M68.3954 19.8222C68.6237 20.5699 67.6312 21.453 66.1785 21.7946C64.7258 22.1362 63.3631 21.807 63.1348 21.0592C62.9065 20.3114 63.899 19.4283 65.3517 19.0867C66.8044 18.7451 68.1671 19.0744 68.3954 19.8222Z" fill="#BF55D0"/>
<path d="M84.9315 73.9808C85.1598 74.7286 84.1672 75.6117 82.7146 75.9533C81.2619 76.2949 79.8992 75.9656 79.6709 75.2179C79.4426 74.4701 80.4351 73.587 81.8878 73.2454C83.3404 72.9038 84.7032 73.2331 84.9315 73.9808Z" fill="#BF55D0"/>
<path fill-rule="evenodd" clip-rule="evenodd" d="M73.3934 84.6483L73.3934 13.335L75.2088 13.335L75.2088 84.6483L73.3934 84.6483Z" fill="#BF55D0"/>
<path d="M77.0244 12.7407C77.0244 13.7253 75.8053 14.5235 74.3013 14.5235C72.7974 14.5235 71.5783 13.7253 71.5783 12.7407C71.5783 11.7561 72.7974 10.9579 74.3013 10.9579C75.8053 10.9579 77.0244 11.7561 77.0244 12.7407Z" fill="#BF55D0"/>
<path d="M77.0244 84.054C77.0244 85.0386 75.8053 85.8368 74.3014 85.8368C72.7974 85.8368 71.5783 85.0386 71.5783 84.054C71.5783 83.0694 72.7974 82.2712 74.3014 82.2712C75.8053 82.2712 77.0244 83.0694 77.0244 84.054Z" fill="#BF55D0"/>
<path fill-rule="evenodd" clip-rule="evenodd" d="M64.6951 76.7817L80.7301 24.2634L82.4836 24.6758L66.4486 77.1941L64.6951 76.7817Z" fill="#BF55D0"/>
<path d="M84.3707 24.6505C84.1493 25.3756 82.7922 25.6865 81.3395 25.3449C79.8869 25.0033 78.8887 24.1386 79.1101 23.4135C79.3315 22.6883 80.6886 22.3774 82.1413 22.719C83.594 23.0606 84.5921 23.9254 84.3707 24.6505Z" fill="#BF55D0"/>
<path d="M68.3356 77.1688C68.1142 77.8939 66.7571 78.2048 65.3044 77.8632C63.8517 77.5216 62.8536 76.6569 63.075 75.9317C63.2964 75.2066 64.6535 74.8957 66.1062 75.2373C67.5588 75.5789 68.557 76.4436 68.3356 77.1688Z" fill="#BF55D0"/>
<ellipse cx="16.1631" cy="16.0923" rx="16.1631" ry="16.0923" transform="matrix(0.892032 0.451973 -0.549608 0.835423 67.5356 27.248)" fill="#BF55D0"/>
</g>
<g clip-path="url(#clip0_81_2721)">
<path fill-rule="evenodd" clip-rule="evenodd" d="M114.524 118.452C114.374 118.28 114.093 118.247 113.897 118.379C104.16 124.904 80.3629 143.978 62.9456 168.156C62.8138 168.338 62.8763 168.58 63.0852 168.696C63.2941 168.811 63.5702 168.756 63.7019 168.573C81.0506 144.491 104.767 125.483 114.44 119.001C114.637 118.869 114.674 118.623 114.524 118.452Z" fill="#0A3019"/>
<path d="M136.653 99.7398C118.896 107.948 112.294 118.25 109.632 121.996C116.681 122.349 126.814 115.224 133.444 108.265C141.415 98.7105 138.268 99.4216 136.653 99.7398Z" fill="#51B022"/>
<path d="M119.797 127.552C108.407 123.431 100.027 129.318 97.6403 131.403C102.892 134.34 110.35 133.634 116.372 131.058C120.777 128.816 121.043 127.897 119.797 127.552Z" fill="#51B022"/>
<path d="M113.931 105.766C99.3176 117.725 98.705 126.015 98.2414 130.403C104.734 127.928 112.311 119.543 115.432 111.035C117.456 104.469 115.215 104.843 113.931 105.766Z" fill="#51B022"/>
<path d="M84.3109 131.347C80.6942 140.119 79.4206 147.75 81.4662 148.391C82.4439 146.883 88.102 142.442 91.7187 133.671C95.3354 124.899 95.6701 117.974 93.926 116.766C92.1442 116.847 87.9276 122.575 84.3109 131.347Z" fill="#51B022"/>
</g>
<path d="M56.0187 107.994C63.8907 109.957 68.3729 119.867 70.8329 125.693C68.1386 122.831 61.8433 117.262 58.8843 116.187C54.6672 114.653 50.3417 114.522 44.0702 122.407C42.6645 115.048 46.1788 105.541 56.0187 107.994Z" fill="#BF55D0"/>
<g style="mix-blend-mode:multiply">
<path fill-rule="evenodd" clip-rule="evenodd" d="M59.2418 113.532C64.1248 116.11 68.5544 121.442 71.1407 125.545C71.2342 125.694 71.1722 125.88 71.0021 125.962C70.832 126.044 70.6183 125.989 70.5248 125.841C67.9568 121.767 63.6007 116.55 58.878 114.057C56.5238 112.814 54.1219 112.271 51.8185 112.833C49.5143 113.395 47.2204 115.084 45.1369 118.478C45.0452 118.627 44.8322 118.684 44.6611 118.604C44.49 118.524 44.4257 118.338 44.5173 118.188C46.6509 114.713 49.072 112.866 51.6292 112.242C54.1872 111.618 56.7931 112.24 59.2418 113.532Z" fill="#BF55D0"/>
</g>
<path d="M84.4539 108.245C77.5659 109.962 73.644 118.633 71.4915 123.732C73.849 121.227 79.3574 116.355 81.9465 115.413C85.6365 114.072 89.4213 113.957 94.9089 120.857C96.1389 114.417 93.0639 106.098 84.4539 108.245Z" fill="#BF55D0"/>
<g style="mix-blend-mode:multiply">
<path fill-rule="evenodd" clip-rule="evenodd" d="M81.6338 113.091C77.3611 115.346 73.4852 120.012 71.2223 123.602C71.1404 123.732 71.1947 123.895 71.3435 123.967C71.4923 124.038 71.6793 123.991 71.7611 123.861C74.0081 120.296 77.8198 115.731 81.9521 113.55C84.012 112.463 86.1136 111.987 88.1292 112.479C90.1453 112.97 92.1525 114.449 93.9756 117.418C94.0558 117.549 94.2421 117.598 94.3918 117.528C94.5415 117.458 94.5979 117.296 94.5177 117.165C92.6508 114.124 90.5323 112.507 88.2947 111.962C86.0566 111.416 83.7764 111.96 81.6338 113.091Z" fill="#BF55D0"/>
</g>
<defs>
<clipPath id="clip0_81_2721">
<rect width="106.466" height="94.9071" fill="white" transform="matrix(0.973567 0.228401 -0.292639 0.956223 82.9678 83)"/>
</clipPath>
</defs>
</svg>
