<svg width="144" height="201" viewBox="0 0 144 201" fill="none" xmlns="http://www.w3.org/2000/svg">
<path d="M71.323 55C73.7824 69.6465 77.2256 103.883 71.323 123.655C63.9447 148.371 57.1339 184.072 66.7825 200" stroke="#0A3019" stroke-linecap="round"/>
<path d="M29.0741 136.994C22.3802 124.394 15.1284 129.447 12.3392 133.549C3.86017 145.755 16.244 146.838 23.4958 145.854C21.2645 154.123 31.1195 153.893 36.3259 152.745C34.9872 162.589 42.834 160.456 46.9247 158.159C46.0322 163.278 50.2717 163.902 52.5031 163.573C46.7016 170.661 54.9203 168.824 59.7549 167.019C65.11 159.931 61.9862 159.143 59.7549 159.636C61.9862 146.641 55.85 147.33 52.5031 149.299C53.3956 140.636 46.181 142.08 42.4621 143.885C40.677 136.01 32.793 136.01 29.0741 136.994Z" fill="#87C12F"/>
<mask id="mask0_81_2714" style="mask-type:alpha" maskUnits="userSpaceOnUse" x="9" y="129" width="52" height="38">
<path fill-rule="evenodd" clip-rule="evenodd" d="M22.2773 129.228C22.5172 129.178 22.7575 129.309 22.8141 129.521L26.6043 143.693L15.7796 145.747C15.5387 145.792 15.3013 145.657 15.2495 145.444C15.1977 145.232 15.3511 145.022 15.592 144.977L25.5265 143.092L21.9455 129.701C21.8889 129.49 22.0374 129.278 22.2773 129.228ZM19.5164 129.223C19.7595 129.187 19.9897 129.331 20.0307 129.546L22.3331 141.594L10.7587 143.778C10.5176 143.823 10.2805 143.688 10.2289 143.475C10.1774 143.263 10.331 143.053 10.572 143.008L21.3109 140.982L19.1506 129.676C19.1096 129.462 19.2734 129.259 19.5164 129.223ZM16.7754 129.71C17.0215 129.697 17.2326 129.863 17.247 130.08L17.8223 138.756L10.2388 140.816C10.0032 140.88 9.75351 140.763 9.681 140.555C9.60849 140.348 9.74067 140.127 9.97623 140.063L16.8904 138.185L16.356 130.126C16.3416 129.909 16.5294 129.723 16.7754 129.71ZM14.3884 131.678C14.6349 131.678 14.8347 131.855 14.8347 132.072V136.349L10.7315 136.891C10.4877 136.924 10.2605 136.775 10.224 136.56C10.1875 136.345 10.3555 136.145 10.5992 136.113L13.9422 135.671V132.072C13.9422 131.855 14.142 131.678 14.3884 131.678ZM31.7435 136.615C31.9809 136.557 32.2269 136.679 32.2929 136.889L35.5041 147.086L24.2037 150.655C23.9716 150.728 23.7162 150.621 23.6331 150.416C23.5501 150.212 23.6709 149.986 23.9029 149.913L34.422 146.591L31.433 137.1C31.367 136.89 31.506 136.673 31.7435 136.615ZM29.0198 136.603C29.2644 136.577 29.4869 136.731 29.5168 136.946L30.6746 145.327L23.655 147.698C23.4249 147.776 23.1668 147.674 23.0787 147.471C22.9906 147.268 23.1057 147.041 23.3359 146.963L29.7043 144.811L28.6308 137.042C28.601 136.826 28.7751 136.63 29.0198 136.603ZM36.7925 137.101C37.0337 137.057 37.2701 137.193 37.3203 137.406L40.1871 149.555L28.1167 153.605C27.8864 153.682 27.6286 153.58 27.541 153.377C27.4534 153.174 27.5691 152.946 27.7995 152.869L39.1581 149.058L36.4465 137.567C36.3963 137.354 36.5512 137.145 36.7925 137.101ZM42.4074 143.494C42.6521 143.468 42.8747 143.621 42.9047 143.837L44.0608 152.159L36.5044 155.074C36.2786 155.162 36.0155 155.071 35.9167 154.871C35.818 154.672 35.921 154.44 36.1468 154.353L43.094 151.672L42.0188 143.933C41.9888 143.717 42.1628 143.521 42.4074 143.494ZM45.7598 143.494C46.0048 143.47 46.2253 143.626 46.2523 143.842L47.6488 155.023L36.9781 157.067C36.7372 157.113 36.4996 156.979 36.4473 156.766C36.395 156.554 36.5479 156.344 36.7887 156.298L46.6735 154.404L45.3651 143.928C45.3381 143.712 45.5148 143.517 45.7598 143.494ZM50.2497 147.429C50.4959 147.419 50.7051 147.586 50.7171 147.804L51.2963 158.322L38.0266 159.044C37.7806 159.058 37.5688 158.893 37.5537 158.676C37.5385 158.459 37.7256 158.272 37.9716 158.258L50.3621 157.583L49.8256 147.842C49.8137 147.625 50.0035 147.44 50.2497 147.429ZM54.734 148.413C54.9805 148.413 55.1803 148.59 55.1803 148.807V162.2H47.4822C47.2357 162.2 47.0359 162.024 47.0359 161.807C47.0359 161.589 47.2357 161.413 47.4822 161.413H54.2877V148.807C54.2877 148.59 54.4875 148.413 54.734 148.413ZM59.8255 159.247C60.0688 159.282 60.2343 159.484 60.1951 159.698L58.9654 166.428H51.387C51.1406 166.428 50.9408 166.252 50.9408 166.034C50.9408 165.817 51.1406 165.641 51.387 165.641H58.2053L59.3139 159.573C59.3531 159.358 59.5822 159.212 59.8255 159.247Z" fill="#2E7A48"/>
</mask>
<g mask="url(#mask0_81_2714)">
<g style="mix-blend-mode:multiply">
<path d="M29.0741 136.994C22.3802 124.394 15.1284 129.447 12.3392 133.549C3.86017 145.755 16.244 146.838 23.4958 145.854C21.2645 154.123 31.1195 153.893 36.3259 152.745C34.9872 162.589 42.834 160.456 46.9247 158.159C46.0322 163.278 50.2717 163.902 52.5031 163.573C46.7016 170.661 54.9203 168.824 59.7549 167.019C65.11 159.931 61.9862 159.143 59.7549 159.636C61.9862 146.641 55.85 147.33 52.5031 149.299C53.3956 140.636 46.181 142.08 42.4621 143.885C40.677 136.01 32.793 136.01 29.0741 136.994Z" fill="#87C12F"/>
</g>
</g>
<g style="mix-blend-mode:multiply">
<path fill-rule="evenodd" clip-rule="evenodd" d="M12.0897 133.108C12.3653 132.987 12.7004 133.085 12.8381 133.329C13.4386 134.388 15.1555 136.328 18.3599 138.551C21.5527 140.766 26.1976 143.245 32.619 145.394C39.2107 147.6 45.8361 152.548 51.4172 157.785C57.0087 163.032 61.6046 168.62 64.1321 172.171C64.2959 172.402 64.2172 172.705 63.9563 172.85C63.6954 172.995 63.3511 172.925 63.1873 172.695C60.6942 169.192 56.1417 163.655 50.6045 158.459C45.0569 153.254 38.5732 148.439 32.2233 146.314C25.703 144.132 20.9577 141.606 17.6704 139.325C14.3946 137.053 12.5414 135.006 11.8403 133.769C11.7025 133.526 11.8142 133.23 12.0897 133.108Z" fill="#87C12F"/>
</g>
<path d="M71.7369 0C58.4181 0 55.0884 12.7842 55.0884 19.1763C45.377 18.5675 26.6477 15.5237 21.7919 28.3079C18.4622 37.0742 25.9539 44.136 30.116 46.571C23.8728 48.3974 12.2189 55.1547 15.5486 67.5737C18.8783 79.9926 34.9716 77.0096 42.6021 73.9658C41.9084 80.6623 44.4751 94.4205 60.2911 95.8816C76.1071 97.3426 84.2232 84.9237 86.3043 78.5316C92.5474 84.0105 107.115 89.4895 118.561 78.5316C130.006 66.6605 115.439 52.9632 107.115 48.3974C113.358 46.571 124.179 39.6311 117.52 26.4816C110.861 13.3321 93.9348 16.1325 86.3043 19.1763C86.9979 12.7842 85.0556 0 71.7369 0Z" fill="#CDCDCD"/>
<path d="M73.2314 0.913237C61.7856 2.73954 62.0584 15.937 62.0584 21.1659C54.1856 20.6679 46.5428 22.2641 41.8141 28.308C36.813 34.7001 38.4401 41.5839 41.8141 43.5759C36.753 45.0699 27.3056 50.5976 30.0049 60.7568C32.7042 70.916 45.7504 68.4758 51.9362 65.9858C51.3738 71.4638 53.4545 82.7185 66.276 83.9137C79.0974 85.1089 85.6768 74.9497 87.3639 69.7208C92.425 74.2027 104.234 78.6847 113.513 69.7208C122.792 60.0098 110.982 48.8048 104.234 45.0699C109.295 43.5759 118.068 37.8987 112.669 27.1419C107.271 16.3852 93.5497 18.676 87.3639 21.1659C87.9262 15.937 86.6967 -1.23529 73.2314 0.913237Z" fill="white"/>
<path fill-rule="evenodd" clip-rule="evenodd" d="M52.7564 79.5088L88.826 24.6818L90.3982 25.4783L54.3286 80.3054L52.7564 79.5088Z" fill="#9B9B9B"/>
<path d="M92.2711 25.818C91.773 26.575 90.3135 26.6537 89.0111 25.9938C87.7086 25.3339 87.0565 24.1853 87.5545 23.4283C88.0526 22.6713 89.5121 22.5925 90.8145 23.2525C92.117 23.9124 92.7691 25.061 92.2711 25.818Z" fill="#9B9B9B"/>
<path d="M56.2015 80.6451C55.7035 81.4021 54.244 81.4808 52.9415 80.8209C51.6391 80.161 50.987 79.0123 51.485 78.2553C51.983 77.4983 53.4426 77.4196 54.745 78.0795C56.0475 78.7394 56.6996 79.8881 56.2015 80.6451Z" fill="#9B9B9B"/>
<path fill-rule="evenodd" clip-rule="evenodd" d="M44.4216 73.4674L101.881 23.0412L103.165 24.1678L45.7053 74.5939L44.4216 73.4674Z" fill="#9B9B9B"/>
<path d="M104.927 24.8741C104.134 25.5703 102.629 25.3782 101.565 24.4449C100.502 23.5117 100.283 22.1907 101.076 21.4945C101.87 20.7982 103.375 20.9904 104.438 21.9236C105.502 22.8569 105.721 24.1779 104.927 24.8741Z" fill="#9B9B9B"/>
<path d="M47.4678 75.3002C46.6745 75.9964 45.1693 75.8043 44.1058 74.871C43.0424 73.9378 42.8235 72.6168 43.6168 71.9206C44.4102 71.2243 45.9154 71.4165 46.9788 72.3497C48.0423 73.283 48.2612 74.604 47.4678 75.3002Z" fill="#9B9B9B"/>
<path fill-rule="evenodd" clip-rule="evenodd" d="M46.5815 61.5079L104.764 32.0282L105.672 33.4079L47.4892 62.8877L46.5815 61.5079Z" fill="#9B9B9B"/>
<path d="M107.064 34.542C106.261 34.949 105 34.3524 104.248 33.2094C103.496 32.0664 103.538 30.8098 104.341 30.4028C105.144 29.9958 106.405 30.5924 107.157 31.7354C107.909 32.8784 107.867 34.1349 107.064 34.542Z" fill="#9B9B9B"/>
<path d="M48.8816 64.0217C48.0782 64.4288 46.8174 63.8321 46.0655 62.6891C45.3135 61.5461 45.3552 60.2896 46.1585 59.8826C46.9618 59.4755 48.2226 60.0721 48.9746 61.2151C49.7265 62.3581 49.6849 63.6147 48.8816 64.0217Z" fill="#9B9B9B"/>
<path fill-rule="evenodd" clip-rule="evenodd" d="M39.1107 55.841L104.91 40.3683L105.38 41.9071L39.5805 57.3799L39.1107 55.841Z" fill="#9B9B9B"/>
<path d="M106.398 43.3171C105.49 43.5307 104.438 42.6704 104.048 41.3956C103.659 40.1207 104.08 38.914 104.989 38.7004C105.897 38.4868 106.949 39.3471 107.338 40.6219C107.728 41.8968 107.307 43.1034 106.398 43.3171Z" fill="#9B9B9B"/>
<path d="M40.5985 58.7898C39.69 59.0034 38.638 58.1432 38.2487 56.8683C37.8595 55.5935 38.2804 54.3868 39.1889 54.1732C40.0974 53.9595 41.1495 54.8198 41.5387 56.0947C41.928 57.3695 41.507 58.5762 40.5985 58.7898Z" fill="#9B9B9B"/>
<path fill-rule="evenodd" clip-rule="evenodd" d="M38.9105 47.4842L102.333 47.4842L102.333 49.3105L38.9105 49.3105L38.9105 47.4842Z" fill="#9B9B9B"/>
<path d="M102.862 51.1368C101.986 51.1368 101.276 49.9103 101.276 48.3973C101.276 46.8844 101.986 45.6579 102.862 45.6579C103.737 45.6579 104.447 46.8844 104.447 48.3973C104.447 49.9103 103.737 51.1368 102.862 51.1368Z" fill="#9B9B9B"/>
<path d="M39.4389 51.1368C38.5632 51.1368 37.8533 49.9103 37.8533 48.3973C37.8533 46.8844 38.5632 45.6579 39.4389 45.6579C40.3146 45.6579 41.0245 46.8844 41.0245 48.3973C41.0245 49.9103 40.3146 51.1368 39.4389 51.1368Z" fill="#9B9B9B"/>
<path fill-rule="evenodd" clip-rule="evenodd" d="M34.4818 38.2161L105.43 54.8994L104.96 56.4383L34.0119 39.7549L34.4818 38.2161Z" fill="#9B9B9B"/>
<path d="M105.081 58.1162C104.102 57.8859 103.623 56.6657 104.012 55.3908C104.402 54.116 105.511 53.2692 106.491 53.4996C107.47 53.7299 107.949 54.9501 107.56 56.225C107.17 57.4998 106.061 58.3466 105.081 58.1162Z" fill="#9B9B9B"/>
<path d="M34.1333 41.4328C33.1537 41.2025 32.6751 39.9823 33.0644 38.7074C33.4536 37.4326 34.5632 36.5858 35.5428 36.8162C36.5224 37.0465 37.001 38.2667 36.6117 39.5416C36.2225 40.8164 35.1128 41.6632 34.1333 41.4328Z" fill="#9B9B9B"/>
<path fill-rule="evenodd" clip-rule="evenodd" d="M44.4905 32.388L101.141 61.0916L100.233 62.4713L43.5828 33.7678L44.4905 32.388Z" fill="#9B9B9B"/>
<path d="M99.7979 64.0903C99.0157 63.6939 98.9912 62.4461 99.7432 61.3031C100.495 60.1601 101.739 59.5548 102.521 59.9511C103.303 60.3474 103.328 61.5953 102.576 62.7383C101.824 63.8813 100.58 64.4866 99.7979 64.0903Z" fill="#9B9B9B"/>
<path d="M43.1471 35.3866C42.365 34.9903 42.3405 33.7425 43.0924 32.5995C43.8444 31.4565 45.088 30.8512 45.8702 31.2475C46.6524 31.6438 46.6769 32.8916 45.9249 34.0346C45.173 35.1776 43.9293 35.783 43.1471 35.3866Z" fill="#9B9B9B"/>
<path fill-rule="evenodd" clip-rule="evenodd" d="M50.9558 26.8085L103.335 72.7757L102.051 73.9022L49.6721 27.9351L50.9558 26.8085Z" fill="#9B9B9B"/>
<path d="M101.204 75.4118C100.481 74.7771 100.756 73.5061 101.82 72.5728C102.883 71.6395 104.332 71.3975 105.055 72.0322C105.778 72.6668 105.502 73.9379 104.439 74.8712C103.375 75.8044 101.927 76.0465 101.204 75.4118Z" fill="#9B9B9B"/>
<path d="M48.8249 29.4447C48.1017 28.81 48.3775 27.5389 49.441 26.6057C50.5044 25.6724 51.9527 25.4304 52.6759 26.065C53.3991 26.6997 53.1233 27.9708 52.0599 28.904C50.9965 29.8373 49.5481 30.0793 48.8249 29.4447Z" fill="#9B9B9B"/>
<path fill-rule="evenodd" clip-rule="evenodd" d="M58.1003 22.2216L91.8772 73.5636L90.305 74.3602L56.5281 23.0181L58.1003 22.2216Z" fill="#9B9B9B"/>
<path d="M89.0144 75.5846C88.548 74.8757 89.2258 73.7661 90.5282 73.1062C91.8307 72.4463 93.2646 72.486 93.7309 73.1949C94.1973 73.9038 93.5195 75.0134 92.2171 75.6733C90.9147 76.3332 89.4808 76.2935 89.0144 75.5846Z" fill="#9B9B9B"/>
<path d="M55.2374 24.2426C54.7711 23.5337 55.4488 22.4241 56.7513 21.7642C58.0537 21.1042 59.4876 21.144 59.9539 21.8528C60.4203 22.5617 59.7425 23.6714 58.4401 24.3313C57.1377 24.9912 55.7038 24.9515 55.2374 24.2426Z" fill="#9B9B9B"/>
<path fill-rule="evenodd" clip-rule="evenodd" d="M66.5364 19.9832L83.0338 74.0155L81.2803 74.4279L64.7829 20.3956L66.5364 19.9832Z" fill="#9B9B9B"/>
<path d="M79.6642 75.2904C79.4365 74.5445 80.4295 73.663 81.8822 73.3214C83.3348 72.9798 84.6971 73.3075 84.9248 74.0533C85.1525 74.7992 84.1595 75.6807 82.7068 76.0223C81.2542 76.3639 79.8919 76.0362 79.6642 75.2904Z" fill="#9B9B9B"/>
<path d="M63.1668 21.258C62.939 20.5122 63.932 19.6306 65.3847 19.289C66.8374 18.9474 68.1996 19.2751 68.4273 20.021C68.6551 20.7668 67.6621 21.6484 66.2094 21.99C64.7567 22.3316 63.3945 22.0039 63.1668 21.258Z" fill="#9B9B9B"/>
<path fill-rule="evenodd" clip-rule="evenodd" d="M75.1803 12.1464L75.1803 83.4597L73.3649 83.4597L73.3649 12.1464L75.1803 12.1464Z" fill="#9B9B9B"/>
<path d="M71.5495 84.054C71.5495 83.0694 72.7686 82.2712 74.2725 82.2712C75.7765 82.2712 76.9956 83.0694 76.9956 84.054C76.9956 85.0386 75.7765 85.8368 74.2725 85.8368C72.7686 85.8368 71.5495 85.0386 71.5495 84.054Z" fill="#9B9B9B"/>
<path d="M71.5495 12.7407C71.5495 11.7561 72.7686 10.9579 74.2725 10.9579C75.7765 10.9579 76.9956 11.7561 76.9956 12.7407C76.9956 13.7253 75.7765 14.5235 74.2725 14.5235C72.7686 14.5235 71.5495 13.7253 71.5495 12.7407Z" fill="#9B9B9B"/>
<path fill-rule="evenodd" clip-rule="evenodd" d="M82.6943 23.891L66.6409 76.4695L64.8874 76.0572L80.9408 23.4787L82.6943 23.891Z" fill="#9B9B9B"/>
<path d="M62.9999 76.083C63.2216 75.357 64.5789 75.0454 66.0316 75.387C67.4842 75.7286 68.4822 76.594 68.2605 77.32C68.0389 78.0459 66.6816 78.3575 65.2289 78.0159C63.7762 77.6743 62.7783 76.8089 62.9999 76.083Z" fill="#9B9B9B"/>
<path d="M79.0534 23.5045C79.275 22.7785 80.6323 22.4669 82.085 22.8085C83.5377 23.1501 84.5356 24.0156 84.314 24.7415C84.0923 25.4675 82.735 25.7791 81.2823 25.4375C79.8297 25.0959 78.8317 24.2304 79.0534 23.5045Z" fill="#9B9B9B"/>
<path fill-rule="evenodd" clip-rule="evenodd" d="M90.8815 24.7435L54.9259 79.3973L53.3537 78.6007L89.3094 23.9469L90.8815 24.7435Z" fill="#9B9B9B"/>
<path d="M51.4819 78.2596C51.9784 77.505 53.4367 77.4282 54.7391 78.0881C56.0415 78.748 56.6949 79.8947 56.1985 80.6493C55.702 81.4039 54.244 81.4808 52.9415 80.8209C51.6391 80.161 50.9855 79.0142 51.4819 78.2596Z" fill="#9B9B9B"/>
<path d="M87.4376 23.6058C87.934 22.8511 89.3923 22.7744 90.6947 23.4343C91.9972 24.0942 92.6505 25.2409 92.1541 25.9955C91.6576 26.7501 90.1994 26.8269 88.8969 26.167C87.5945 25.5071 86.9411 24.3604 87.4376 23.6058Z" fill="#9B9B9B"/>
<path fill-rule="evenodd" clip-rule="evenodd" d="M104.122 23.3273L46.6627 73.7535L45.379 72.6269L102.839 22.2008L104.122 23.3273Z" fill="#9B9B9B"/>
<path d="M43.6168 71.9206C44.4102 71.2243 45.9154 71.4165 46.9788 72.3497C48.0423 73.283 48.2612 74.604 47.4678 75.3002C46.6745 75.9964 45.1693 75.8043 44.1058 74.871C43.0424 73.9378 42.8235 72.6168 43.6168 71.9206Z" fill="#9B9B9B"/>
<path d="M101.076 21.4945C101.87 20.7982 103.375 20.9904 104.438 21.9236C105.502 22.8569 105.721 24.1779 104.927 24.8741C104.134 25.5703 102.629 25.3782 101.565 24.4449C100.502 23.5117 100.283 22.1907 101.076 21.4945Z" fill="#9B9B9B"/>
<path fill-rule="evenodd" clip-rule="evenodd" d="M106.418 33.0295L48.6579 62.2954L47.7502 60.9157L105.511 31.6498L106.418 33.0295Z" fill="#9B9B9B"/>
<path d="M46.3613 59.7799C47.1588 59.3758 48.4149 59.9748 49.1669 61.1178C49.9188 62.2608 49.8819 63.515 49.0844 63.919C48.2869 64.3231 47.0308 63.7241 46.2789 62.5811C45.5269 61.4381 45.5638 60.1839 46.3613 59.7799Z" fill="#9B9B9B"/>
<path d="M104.122 30.514C104.919 30.1099 106.175 30.7089 106.927 31.8519C107.679 32.9949 107.642 34.2491 106.845 34.6532C106.047 35.0572 104.791 34.4582 104.039 33.3152C103.287 32.1722 103.324 30.9181 104.122 30.514Z" fill="#9B9B9B"/>
<path fill-rule="evenodd" clip-rule="evenodd" d="M106.491 41.6456L40.8058 57.0916L40.336 55.5527L106.022 40.1067L106.491 41.6456Z" fill="#9B9B9B"/>
<path d="M39.3187 54.1425C40.2256 53.9293 41.2764 54.7899 41.6656 56.0647C42.0549 57.3396 41.6352 58.5459 40.7283 58.7592C39.8213 58.9724 38.7706 58.1119 38.3814 56.837C37.9921 55.5622 38.4118 54.3558 39.3187 54.1425Z" fill="#9B9B9B"/>
<path d="M105.004 38.6966C105.911 38.4833 106.962 39.3439 107.351 40.6187C107.741 41.8936 107.321 43.0999 106.414 43.3132C105.507 43.5265 104.456 42.6659 104.067 41.391C103.678 40.1162 104.098 38.9098 105.004 38.6966Z" fill="#9B9B9B"/>
<path fill-rule="evenodd" clip-rule="evenodd" d="M103.39 49.3105L39.9676 49.3105L39.9676 47.4842L103.39 47.4842L103.39 49.3105Z" fill="#9B9B9B"/>
<path d="M39.4389 45.6579C40.3146 45.6579 41.0245 46.8844 41.0245 48.3973C41.0245 49.9103 40.3146 51.1368 39.4389 51.1368C38.5632 51.1368 37.8533 49.9103 37.8533 48.3973C37.8533 46.8844 38.5632 45.6579 39.4389 45.6579Z" fill="#9B9B9B"/>
<path d="M102.862 45.6579C103.737 45.6579 104.447 46.8844 104.447 48.3973C104.447 49.9103 103.737 51.1368 102.862 51.1368C101.986 51.1368 101.276 49.9103 101.276 48.3973C101.276 46.8844 101.986 45.6579 102.862 45.6579Z" fill="#9B9B9B"/>
<path fill-rule="evenodd" clip-rule="evenodd" d="M105.738 56.6213L35.1812 40.0298L35.651 38.4909L106.208 55.0824L105.738 56.6213Z" fill="#9B9B9B"/>
<path d="M35.5328 36.8138C36.507 37.0429 36.9812 38.262 36.5919 39.5369C36.2027 40.8117 35.0974 41.6595 34.1232 41.4304C33.149 41.2013 32.6751 39.9823 33.0644 38.7074C33.4536 37.4326 34.5586 36.5847 35.5328 36.8138Z" fill="#9B9B9B"/>
<path d="M106.09 53.4052C107.064 53.6343 107.538 54.8535 107.149 56.1283C106.76 57.4032 105.655 58.251 104.68 58.0219C103.706 57.7928 103.232 56.5736 103.621 55.2988C104.01 54.0239 105.116 53.1762 106.09 53.4052Z" fill="#9B9B9B"/>
<path fill-rule="evenodd" clip-rule="evenodd" d="M101.131 62.9258L44.3849 34.1738L45.2926 32.7941L102.039 61.5461L101.131 62.9258Z" fill="#9B9B9B"/>
<path d="M45.7274 31.1747C46.5109 31.5717 46.5365 32.8201 45.7845 33.9631C45.0326 35.1061 43.7878 35.7109 43.0043 35.3139C42.2208 34.9169 42.1953 33.6685 42.9472 32.5255C43.6992 31.3825 44.9439 30.7777 45.7274 31.1747Z" fill="#9B9B9B"/>
<path d="M102.474 59.9268C103.257 60.3238 103.283 61.5722 102.531 62.7152C101.779 63.8582 100.534 64.4629 99.7506 64.066C98.9671 63.669 98.9416 62.4206 99.6935 61.2776C100.445 60.1346 101.69 59.5298 102.474 59.9268Z" fill="#9B9B9B"/>
<path fill-rule="evenodd" clip-rule="evenodd" d="M102.921 74.6656L50.3573 28.5361L51.6409 27.4095L104.205 73.5391L102.921 74.6656Z" fill="#9B9B9B"/>
<path d="M52.4865 25.8986C53.2122 26.5355 52.9385 27.8083 51.8751 28.7416C50.8116 29.6749 49.3612 29.9151 48.6355 29.2782C47.9097 28.6413 48.1834 27.3684 49.2469 26.4351C50.3103 25.5019 51.7607 25.2616 52.4865 25.8986Z" fill="#9B9B9B"/>
<path d="M105.05 72.0281C105.776 72.665 105.502 73.9379 104.439 74.8712C103.375 75.8044 101.925 76.0446 101.199 75.4077C100.474 74.7708 100.747 73.4979 101.811 72.5647C102.874 71.6314 104.325 71.3912 105.05 72.0281Z" fill="#9B9B9B"/>
<path fill-rule="evenodd" clip-rule="evenodd" d="M90.9559 75.3504L56.9811 23.7075L58.5533 22.9109L92.5281 74.5538L90.9559 75.3504Z" fill="#9B9B9B"/>
<path d="M59.8423 21.684C60.3114 22.397 59.6358 23.51 58.3334 24.1699C57.031 24.8298 55.5949 24.7868 55.1258 24.0737C54.6567 23.3607 55.3322 22.2477 56.6347 21.5878C57.9371 20.9279 59.3732 20.9709 59.8423 21.684Z" fill="#9B9B9B"/>
<path d="M93.817 73.3268C94.2861 74.0398 93.6106 75.1528 92.3081 75.8127C91.0057 76.4726 89.5696 76.4296 89.1005 75.7165C88.6314 75.0035 89.307 73.8905 90.6094 73.2306C91.9118 72.5707 93.3479 72.6138 93.817 73.3268Z" fill="#9B9B9B"/>
<path fill-rule="evenodd" clip-rule="evenodd" d="M81.5329 75.2555L64.997 21.0968L66.7505 20.6845L83.2864 74.8432L81.5329 75.2555Z" fill="#9B9B9B"/>
<path d="M68.3666 19.8222C68.5949 20.5699 67.6024 21.453 66.1497 21.7946C64.697 22.1362 63.3343 21.807 63.106 21.0592C62.8777 20.3114 63.8702 19.4283 65.3229 19.0867C66.7756 18.7451 68.1383 19.0744 68.3666 19.8222Z" fill="#9B9B9B"/>
<path d="M84.9027 73.9808C85.131 74.7286 84.1384 75.6117 82.6858 75.9533C81.2331 76.2949 79.8704 75.9656 79.6421 75.2179C79.4138 74.4701 80.4063 73.587 81.859 73.2454C83.3116 72.9038 84.6743 73.2331 84.9027 73.9808Z" fill="#9B9B9B"/>
<path fill-rule="evenodd" clip-rule="evenodd" d="M73.3646 84.6483L73.3646 13.335L75.18 13.335L75.18 84.6483L73.3646 84.6483Z" fill="#9B9B9B"/>
<path d="M76.9956 12.7407C76.9956 13.7253 75.7765 14.5235 74.2725 14.5235C72.7686 14.5235 71.5495 13.7253 71.5495 12.7407C71.5495 11.7561 72.7686 10.9579 74.2725 10.9579C75.7765 10.9579 76.9956 11.7561 76.9956 12.7407Z" fill="#9B9B9B"/>
<path d="M76.9956 84.054C76.9956 85.0386 75.7765 85.8368 74.2725 85.8368C72.7686 85.8368 71.5495 85.0386 71.5495 84.054C71.5495 83.0694 72.7686 82.2712 74.2725 82.2712C75.7765 82.2712 76.9956 83.0694 76.9956 84.054Z" fill="#9B9B9B"/>
<path fill-rule="evenodd" clip-rule="evenodd" d="M64.6663 76.7817L80.7013 24.2634L82.4548 24.6758L66.4198 77.1941L64.6663 76.7817Z" fill="#9B9B9B"/>
<path d="M84.3419 24.6505C84.1205 25.3756 82.7634 25.6865 81.3107 25.3449C79.858 25.0033 78.8599 24.1386 79.0813 23.4135C79.3027 22.6883 80.6598 22.3774 82.1125 22.719C83.5651 23.0606 84.5633 23.9254 84.3419 24.6505Z" fill="#9B9B9B"/>
<path d="M68.3068 77.1688C68.0854 77.8939 66.7283 78.2048 65.2756 77.8632C63.8229 77.5216 62.8248 76.6569 63.0462 75.9317C63.2676 75.2066 64.6247 74.8957 66.0773 75.2373C67.53 75.5789 68.5282 76.4436 68.3068 77.1688Z" fill="#9B9B9B"/>
<ellipse cx="16.1631" cy="16.0923" rx="16.1631" ry="16.0923" transform="matrix(0.892032 0.451973 -0.549608 0.835423 67.5068 27.248)" fill="#9B9B9B"/>
<g style="mix-blend-mode:multiply">
<path d="M71.7369 0C58.4181 0 55.0884 12.7842 55.0884 19.1763C45.377 18.5675 26.6477 15.5237 21.7919 28.3079C18.4622 37.0742 25.9539 44.136 30.116 46.571C23.8728 48.3974 12.2189 55.1547 15.5486 67.5737C18.8783 79.9926 34.9716 77.0096 42.6021 73.9658C41.9084 80.6623 44.4751 94.4205 60.2911 95.8816C76.1071 97.3426 84.2232 84.9237 86.3043 78.5316C92.5474 84.0105 107.115 89.4895 118.561 78.5316C130.006 66.6605 115.439 52.9632 107.115 48.3974C113.358 46.571 124.179 39.6311 117.52 26.4816C110.861 13.3321 93.9348 16.1325 86.3043 19.1763C86.9979 12.7842 85.0556 0 71.7369 0Z" fill="#87C12F"/>
<path d="M73.2314 0.913237C61.7856 2.73954 62.0584 15.937 62.0584 21.1659C54.1856 20.6679 46.5428 22.2641 41.8141 28.308C36.813 34.7001 38.4401 41.5839 41.8141 43.5759C36.753 45.0699 27.3056 50.5976 30.0049 60.7568C32.7042 70.916 45.7504 68.4758 51.9362 65.9858C51.3738 71.4638 53.4545 82.7185 66.276 83.9137C79.0974 85.1089 85.6768 74.9497 87.3639 69.7208C92.425 74.2027 104.234 78.6847 113.513 69.7208C122.792 60.0098 110.982 48.8048 104.234 45.0699C109.295 43.5759 118.068 37.8987 112.669 27.1419C107.271 16.3852 93.5497 18.676 87.3639 21.1659C87.9262 15.937 86.6967 -1.23529 73.2314 0.913237Z" fill="#87C12F"/>
<path fill-rule="evenodd" clip-rule="evenodd" d="M52.7564 79.5088L88.826 24.6818L90.3982 25.4783L54.3286 80.3054L52.7564 79.5088Z" fill="#87C12F"/>
<path d="M92.2711 25.818C91.773 26.575 90.3135 26.6537 89.0111 25.9938C87.7086 25.3339 87.0565 24.1853 87.5545 23.4283C88.0526 22.6713 89.5121 22.5925 90.8145 23.2525C92.117 23.9124 92.7691 25.061 92.2711 25.818Z" fill="#87C12F"/>
<path d="M56.2015 80.6451C55.7035 81.4021 54.244 81.4808 52.9415 80.8209C51.6391 80.161 50.987 79.0123 51.485 78.2553C51.983 77.4983 53.4426 77.4196 54.745 78.0795C56.0475 78.7394 56.6996 79.8881 56.2015 80.6451Z" fill="#87C12F"/>
<path fill-rule="evenodd" clip-rule="evenodd" d="M44.4216 73.4674L101.881 23.0412L103.165 24.1678L45.7053 74.5939L44.4216 73.4674Z" fill="#87C12F"/>
<path d="M104.927 24.8741C104.134 25.5703 102.629 25.3782 101.565 24.4449C100.502 23.5117 100.283 22.1907 101.076 21.4945C101.87 20.7982 103.375 20.9904 104.438 21.9236C105.502 22.8569 105.721 24.1779 104.927 24.8741Z" fill="#87C12F"/>
<path d="M47.4678 75.3002C46.6745 75.9964 45.1693 75.8043 44.1058 74.871C43.0424 73.9378 42.8235 72.6168 43.6168 71.9206C44.4102 71.2243 45.9154 71.4165 46.9788 72.3497C48.0423 73.283 48.2612 74.604 47.4678 75.3002Z" fill="#87C12F"/>
<path fill-rule="evenodd" clip-rule="evenodd" d="M46.5815 61.5079L104.764 32.0282L105.672 33.4079L47.4892 62.8877L46.5815 61.5079Z" fill="#87C12F"/>
<path d="M107.064 34.542C106.261 34.949 105 34.3524 104.248 33.2094C103.496 32.0664 103.538 30.8098 104.341 30.4028C105.144 29.9958 106.405 30.5924 107.157 31.7354C107.909 32.8784 107.867 34.1349 107.064 34.542Z" fill="#87C12F"/>
<path d="M48.8816 64.0217C48.0782 64.4288 46.8174 63.8321 46.0655 62.6891C45.3135 61.5461 45.3552 60.2896 46.1585 59.8826C46.9618 59.4755 48.2226 60.0721 48.9746 61.2151C49.7265 62.3581 49.6849 63.6147 48.8816 64.0217Z" fill="#87C12F"/>
<path fill-rule="evenodd" clip-rule="evenodd" d="M39.1107 55.841L104.91 40.3683L105.38 41.9071L39.5805 57.3799L39.1107 55.841Z" fill="#87C12F"/>
<path d="M106.398 43.3171C105.49 43.5307 104.438 42.6704 104.048 41.3956C103.659 40.1207 104.08 38.914 104.989 38.7004C105.897 38.4868 106.949 39.3471 107.338 40.6219C107.728 41.8968 107.307 43.1034 106.398 43.3171Z" fill="#87C12F"/>
<path d="M40.5985 58.7898C39.69 59.0034 38.638 58.1432 38.2487 56.8683C37.8595 55.5935 38.2804 54.3868 39.1889 54.1732C40.0974 53.9595 41.1495 54.8198 41.5387 56.0947C41.928 57.3695 41.507 58.5762 40.5985 58.7898Z" fill="#87C12F"/>
<path fill-rule="evenodd" clip-rule="evenodd" d="M38.9105 47.4842L102.333 47.4842L102.333 49.3105L38.9105 49.3105L38.9105 47.4842Z" fill="#87C12F"/>
<path d="M102.862 51.1368C101.986 51.1368 101.276 49.9103 101.276 48.3973C101.276 46.8844 101.986 45.6579 102.862 45.6579C103.737 45.6579 104.447 46.8844 104.447 48.3973C104.447 49.9103 103.737 51.1368 102.862 51.1368Z" fill="#87C12F"/>
<path d="M39.4389 51.1368C38.5632 51.1368 37.8533 49.9103 37.8533 48.3973C37.8533 46.8844 38.5632 45.6579 39.4389 45.6579C40.3146 45.6579 41.0245 46.8844 41.0245 48.3973C41.0245 49.9103 40.3146 51.1368 39.4389 51.1368Z" fill="#87C12F"/>
<path fill-rule="evenodd" clip-rule="evenodd" d="M34.4818 38.2161L105.43 54.8994L104.96 56.4383L34.0119 39.7549L34.4818 38.2161Z" fill="#87C12F"/>
<path d="M105.081 58.1162C104.102 57.8859 103.623 56.6657 104.012 55.3908C104.402 54.116 105.511 53.2692 106.491 53.4996C107.47 53.7299 107.949 54.9501 107.56 56.225C107.17 57.4998 106.061 58.3466 105.081 58.1162Z" fill="#87C12F"/>
<path d="M34.1333 41.4328C33.1537 41.2025 32.6751 39.9823 33.0644 38.7074C33.4536 37.4326 34.5632 36.5858 35.5428 36.8162C36.5224 37.0465 37.001 38.2667 36.6117 39.5416C36.2225 40.8164 35.1128 41.6632 34.1333 41.4328Z" fill="#87C12F"/>
<path fill-rule="evenodd" clip-rule="evenodd" d="M44.4905 32.388L101.141 61.0916L100.233 62.4713L43.5828 33.7678L44.4905 32.388Z" fill="#87C12F"/>
<path d="M99.7979 64.0903C99.0157 63.6939 98.9912 62.4461 99.7432 61.3031C100.495 60.1601 101.739 59.5548 102.521 59.9511C103.303 60.3474 103.328 61.5953 102.576 62.7383C101.824 63.8813 100.58 64.4866 99.7979 64.0903Z" fill="#87C12F"/>
<path d="M43.1471 35.3866C42.365 34.9903 42.3405 33.7425 43.0924 32.5995C43.8444 31.4565 45.088 30.8512 45.8702 31.2475C46.6524 31.6438 46.6769 32.8916 45.9249 34.0346C45.173 35.1776 43.9293 35.783 43.1471 35.3866Z" fill="#87C12F"/>
<path fill-rule="evenodd" clip-rule="evenodd" d="M50.9558 26.8085L103.335 72.7757L102.051 73.9022L49.6721 27.9351L50.9558 26.8085Z" fill="#87C12F"/>
<path d="M101.204 75.4118C100.481 74.7771 100.756 73.5061 101.82 72.5728C102.883 71.6395 104.332 71.3975 105.055 72.0322C105.778 72.6668 105.502 73.9379 104.439 74.8712C103.375 75.8044 101.927 76.0465 101.204 75.4118Z" fill="#87C12F"/>
<path d="M48.8249 29.4447C48.1017 28.81 48.3775 27.5389 49.441 26.6057C50.5044 25.6724 51.9527 25.4304 52.6759 26.065C53.3991 26.6997 53.1233 27.9708 52.0599 28.904C50.9965 29.8373 49.5481 30.0793 48.8249 29.4447Z" fill="#87C12F"/>
<path fill-rule="evenodd" clip-rule="evenodd" d="M58.1003 22.2216L91.8772 73.5636L90.305 74.3602L56.5281 23.0181L58.1003 22.2216Z" fill="#87C12F"/>
<path d="M89.0144 75.5846C88.548 74.8757 89.2258 73.7661 90.5282 73.1062C91.8307 72.4463 93.2646 72.486 93.7309 73.1949C94.1973 73.9038 93.5195 75.0134 92.2171 75.6733C90.9147 76.3332 89.4808 76.2935 89.0144 75.5846Z" fill="#87C12F"/>
<path d="M55.2374 24.2426C54.7711 23.5337 55.4488 22.4241 56.7513 21.7642C58.0537 21.1042 59.4876 21.144 59.9539 21.8528C60.4203 22.5617 59.7425 23.6714 58.4401 24.3313C57.1377 24.9912 55.7038 24.9515 55.2374 24.2426Z" fill="#87C12F"/>
<path fill-rule="evenodd" clip-rule="evenodd" d="M66.5364 19.9832L83.0338 74.0155L81.2803 74.4279L64.7829 20.3956L66.5364 19.9832Z" fill="#87C12F"/>
<path d="M79.6642 75.2904C79.4365 74.5445 80.4295 73.663 81.8822 73.3214C83.3348 72.9798 84.6971 73.3075 84.9248 74.0533C85.1525 74.7992 84.1595 75.6807 82.7068 76.0223C81.2542 76.3639 79.8919 76.0362 79.6642 75.2904Z" fill="#87C12F"/>
<path d="M63.1668 21.258C62.939 20.5122 63.932 19.6306 65.3847 19.289C66.8374 18.9474 68.1996 19.2751 68.4273 20.021C68.6551 20.7668 67.6621 21.6484 66.2094 21.99C64.7567 22.3316 63.3945 22.0039 63.1668 21.258Z" fill="#87C12F"/>
<path fill-rule="evenodd" clip-rule="evenodd" d="M75.1803 12.1464L75.1803 83.4597L73.3649 83.4597L73.3649 12.1464L75.1803 12.1464Z" fill="#87C12F"/>
<path d="M71.5495 84.054C71.5495 83.0694 72.7686 82.2712 74.2725 82.2712C75.7765 82.2712 76.9956 83.0694 76.9956 84.054C76.9956 85.0386 75.7765 85.8368 74.2725 85.8368C72.7686 85.8368 71.5495 85.0386 71.5495 84.054Z" fill="#87C12F"/>
<path d="M71.5495 12.7407C71.5495 11.7561 72.7686 10.9579 74.2725 10.9579C75.7765 10.9579 76.9956 11.7561 76.9956 12.7407C76.9956 13.7253 75.7765 14.5235 74.2725 14.5235C72.7686 14.5235 71.5495 13.7253 71.5495 12.7407Z" fill="#87C12F"/>
<path fill-rule="evenodd" clip-rule="evenodd" d="M82.6943 23.891L66.6409 76.4695L64.8874 76.0572L80.9408 23.4787L82.6943 23.891Z" fill="#87C12F"/>
<path d="M62.9999 76.083C63.2216 75.357 64.5789 75.0454 66.0316 75.387C67.4842 75.7286 68.4822 76.594 68.2605 77.32C68.0389 78.0459 66.6816 78.3575 65.2289 78.0159C63.7762 77.6743 62.7783 76.8089 62.9999 76.083Z" fill="#87C12F"/>
<path d="M79.0534 23.5045C79.275 22.7785 80.6323 22.4669 82.085 22.8085C83.5377 23.1501 84.5356 24.0156 84.314 24.7415C84.0923 25.4675 82.735 25.7791 81.2823 25.4375C79.8297 25.0959 78.8317 24.2304 79.0534 23.5045Z" fill="#87C12F"/>
<path fill-rule="evenodd" clip-rule="evenodd" d="M90.8815 24.7435L54.9259 79.3973L53.3537 78.6007L89.3094 23.9469L90.8815 24.7435Z" fill="#87C12F"/>
<path d="M51.4819 78.2596C51.9784 77.505 53.4367 77.4282 54.7391 78.0881C56.0415 78.748 56.6949 79.8947 56.1985 80.6493C55.702 81.4039 54.244 81.4808 52.9415 80.8209C51.6391 80.161 50.9855 79.0142 51.4819 78.2596Z" fill="#87C12F"/>
<path d="M87.4376 23.6058C87.934 22.8511 89.3923 22.7744 90.6947 23.4343C91.9972 24.0942 92.6505 25.2409 92.1541 25.9955C91.6576 26.7501 90.1994 26.8269 88.8969 26.167C87.5945 25.5071 86.9411 24.3604 87.4376 23.6058Z" fill="#87C12F"/>
<path fill-rule="evenodd" clip-rule="evenodd" d="M104.122 23.3273L46.6627 73.7535L45.379 72.6269L102.839 22.2008L104.122 23.3273Z" fill="#87C12F"/>
<path d="M43.6168 71.9206C44.4102 71.2243 45.9154 71.4165 46.9788 72.3497C48.0423 73.283 48.2612 74.604 47.4678 75.3002C46.6745 75.9964 45.1693 75.8043 44.1058 74.871C43.0424 73.9378 42.8235 72.6168 43.6168 71.9206Z" fill="#87C12F"/>
<path d="M101.076 21.4945C101.87 20.7982 103.375 20.9904 104.438 21.9236C105.502 22.8569 105.721 24.1779 104.927 24.8741C104.134 25.5703 102.629 25.3782 101.565 24.4449C100.502 23.5117 100.283 22.1907 101.076 21.4945Z" fill="#87C12F"/>
<path fill-rule="evenodd" clip-rule="evenodd" d="M106.418 33.0295L48.6579 62.2954L47.7502 60.9157L105.511 31.6498L106.418 33.0295Z" fill="#87C12F"/>
<path d="M46.3613 59.7799C47.1588 59.3758 48.4149 59.9748 49.1669 61.1178C49.9188 62.2608 49.8819 63.515 49.0844 63.919C48.2869 64.3231 47.0308 63.7241 46.2789 62.5811C45.5269 61.4381 45.5638 60.1839 46.3613 59.7799Z" fill="#87C12F"/>
<path d="M104.122 30.514C104.919 30.1099 106.175 30.7089 106.927 31.8519C107.679 32.9949 107.642 34.2491 106.845 34.6532C106.047 35.0572 104.791 34.4582 104.039 33.3152C103.287 32.1722 103.324 30.9181 104.122 30.514Z" fill="#87C12F"/>
<path fill-rule="evenodd" clip-rule="evenodd" d="M106.491 41.6456L40.8058 57.0916L40.336 55.5527L106.022 40.1067L106.491 41.6456Z" fill="#87C12F"/>
<path d="M39.3187 54.1425C40.2256 53.9293 41.2764 54.7899 41.6656 56.0647C42.0549 57.3396 41.6352 58.5459 40.7283 58.7592C39.8213 58.9724 38.7706 58.1119 38.3814 56.837C37.9921 55.5622 38.4118 54.3558 39.3187 54.1425Z" fill="#87C12F"/>
<path d="M105.004 38.6966C105.911 38.4833 106.962 39.3439 107.351 40.6187C107.741 41.8936 107.321 43.0999 106.414 43.3132C105.507 43.5265 104.456 42.6659 104.067 41.391C103.678 40.1162 104.098 38.9098 105.004 38.6966Z" fill="#87C12F"/>
<path fill-rule="evenodd" clip-rule="evenodd" d="M103.39 49.3105L39.9676 49.3105L39.9676 47.4842L103.39 47.4842L103.39 49.3105Z" fill="#87C12F"/>
<path d="M39.4389 45.6579C40.3146 45.6579 41.0245 46.8844 41.0245 48.3973C41.0245 49.9103 40.3146 51.1368 39.4389 51.1368C38.5632 51.1368 37.8533 49.9103 37.8533 48.3973C37.8533 46.8844 38.5632 45.6579 39.4389 45.6579Z" fill="#87C12F"/>
<path d="M102.862 45.6579C103.737 45.6579 104.447 46.8844 104.447 48.3973C104.447 49.9103 103.737 51.1368 102.862 51.1368C101.986 51.1368 101.276 49.9103 101.276 48.3973C101.276 46.8844 101.986 45.6579 102.862 45.6579Z" fill="#87C12F"/>
<path fill-rule="evenodd" clip-rule="evenodd" d="M105.738 56.6213L35.1812 40.0298L35.651 38.4909L106.208 55.0824L105.738 56.6213Z" fill="#87C12F"/>
<path d="M35.5328 36.8138C36.507 37.0429 36.9812 38.262 36.5919 39.5369C36.2027 40.8117 35.0974 41.6595 34.1232 41.4304C33.149 41.2013 32.6751 39.9823 33.0644 38.7074C33.4536 37.4326 34.5586 36.5847 35.5328 36.8138Z" fill="#87C12F"/>
<path d="M106.09 53.4052C107.064 53.6343 107.538 54.8535 107.149 56.1283C106.76 57.4032 105.655 58.251 104.68 58.0219C103.706 57.7928 103.232 56.5736 103.621 55.2988C104.01 54.0239 105.116 53.1762 106.09 53.4052Z" fill="#87C12F"/>
<path fill-rule="evenodd" clip-rule="evenodd" d="M101.131 62.9258L44.3849 34.1738L45.2926 32.7941L102.039 61.5461L101.131 62.9258Z" fill="#87C12F"/>
<path d="M45.7274 31.1747C46.5109 31.5717 46.5365 32.8201 45.7845 33.9631C45.0326 35.1061 43.7878 35.7109 43.0043 35.3139C42.2208 34.9169 42.1953 33.6685 42.9472 32.5255C43.6992 31.3825 44.9439 30.7777 45.7274 31.1747Z" fill="#87C12F"/>
<path d="M102.474 59.9268C103.257 60.3238 103.283 61.5722 102.531 62.7152C101.779 63.8582 100.534 64.4629 99.7506 64.066C98.9671 63.669 98.9416 62.4206 99.6935 61.2776C100.445 60.1346 101.69 59.5298 102.474 59.9268Z" fill="#87C12F"/>
<path fill-rule="evenodd" clip-rule="evenodd" d="M102.921 74.6656L50.3573 28.5361L51.6409 27.4095L104.205 73.5391L102.921 74.6656Z" fill="#87C12F"/>
<path d="M52.4865 25.8986C53.2122 26.5355 52.9385 27.8083 51.8751 28.7416C50.8116 29.6749 49.3612 29.9151 48.6355 29.2782C47.9097 28.6413 48.1834 27.3684 49.2469 26.4351C50.3103 25.5019 51.7607 25.2616 52.4865 25.8986Z" fill="#87C12F"/>
<path d="M105.05 72.0281C105.776 72.665 105.502 73.9379 104.439 74.8712C103.375 75.8044 101.925 76.0446 101.199 75.4077C100.474 74.7708 100.747 73.4979 101.811 72.5647C102.874 71.6314 104.325 71.3912 105.05 72.0281Z" fill="#87C12F"/>
<path fill-rule="evenodd" clip-rule="evenodd" d="M90.9559 75.3504L56.9811 23.7075L58.5533 22.9109L92.5281 74.5538L90.9559 75.3504Z" fill="#87C12F"/>
<path d="M59.8423 21.684C60.3114 22.397 59.6358 23.51 58.3334 24.1699C57.031 24.8298 55.5949 24.7868 55.1258 24.0737C54.6567 23.3607 55.3322 22.2477 56.6347 21.5878C57.9371 20.9279 59.3732 20.9709 59.8423 21.684Z" fill="#87C12F"/>
<path d="M93.817 73.3268C94.2861 74.0398 93.6106 75.1528 92.3081 75.8127C91.0057 76.4726 89.5696 76.4296 89.1005 75.7165C88.6314 75.0035 89.307 73.8905 90.6094 73.2306C91.9118 72.5707 93.3479 72.6138 93.817 73.3268Z" fill="#87C12F"/>
<path fill-rule="evenodd" clip-rule="evenodd" d="M81.5329 75.2555L64.997 21.0968L66.7505 20.6845L83.2864 74.8432L81.5329 75.2555Z" fill="#87C12F"/>
<path d="M68.3666 19.8222C68.5949 20.5699 67.6024 21.453 66.1497 21.7946C64.697 22.1362 63.3343 21.807 63.106 21.0592C62.8777 20.3114 63.8702 19.4283 65.3229 19.0867C66.7756 18.7451 68.1383 19.0744 68.3666 19.8222Z" fill="#87C12F"/>
<path d="M84.9027 73.9808C85.131 74.7286 84.1384 75.6117 82.6858 75.9533C81.2331 76.2949 79.8704 75.9656 79.6421 75.2179C79.4138 74.4701 80.4063 73.587 81.859 73.2454C83.3116 72.9038 84.6743 73.2331 84.9027 73.9808Z" fill="#87C12F"/>
<path fill-rule="evenodd" clip-rule="evenodd" d="M73.3646 84.6483L73.3646 13.335L75.18 13.335L75.18 84.6483L73.3646 84.6483Z" fill="#87C12F"/>
<path d="M76.9956 12.7407C76.9956 13.7253 75.7765 14.5235 74.2725 14.5235C72.7686 14.5235 71.5495 13.7253 71.5495 12.7407C71.5495 11.7561 72.7686 10.9579 74.2725 10.9579C75.7765 10.9579 76.9956 11.7561 76.9956 12.7407Z" fill="#87C12F"/>
<path d="M76.9956 84.054C76.9956 85.0386 75.7765 85.8368 74.2725 85.8368C72.7686 85.8368 71.5495 85.0386 71.5495 84.054C71.5495 83.0694 72.7686 82.2712 74.2725 82.2712C75.7765 82.2712 76.9956 83.0694 76.9956 84.054Z" fill="#87C12F"/>
<path fill-rule="evenodd" clip-rule="evenodd" d="M64.6663 76.7817L80.7013 24.2634L82.4548 24.6758L66.4198 77.1941L64.6663 76.7817Z" fill="#87C12F"/>
<path d="M84.3419 24.6505C84.1205 25.3756 82.7634 25.6865 81.3107 25.3449C79.858 25.0033 78.8599 24.1386 79.0813 23.4135C79.3027 22.6883 80.6598 22.3774 82.1125 22.719C83.5651 23.0606 84.5633 23.9254 84.3419 24.6505Z" fill="#87C12F"/>
<path d="M68.3068 77.1688C68.0854 77.8939 66.7283 78.2048 65.2756 77.8632C63.8229 77.5216 62.8248 76.6569 63.0462 75.9317C63.2676 75.2066 64.6247 74.8957 66.0773 75.2373C67.53 75.5789 68.5282 76.4436 68.3068 77.1688Z" fill="#87C12F"/>
<ellipse cx="16.1631" cy="16.0923" rx="16.1631" ry="16.0923" transform="matrix(0.892032 0.451973 -0.549608 0.835423 67.5068 27.248)" fill="#87C12F"/>
</g>
<g style="mix-blend-mode:soft-light">
<path d="M71.7369 0C58.4181 0 55.0884 12.7842 55.0884 19.1763C45.377 18.5675 26.6477 15.5237 21.7919 28.3079C18.4622 37.0742 25.9539 44.136 30.116 46.571C23.8728 48.3974 12.2189 55.1547 15.5486 67.5737C18.8783 79.9926 34.9716 77.0096 42.6021 73.9658C41.9084 80.6623 44.4751 94.4205 60.2911 95.8816C76.1071 97.3426 84.2232 84.9237 86.3043 78.5316C92.5474 84.0105 107.115 89.4895 118.561 78.5316C130.006 66.6605 115.439 52.9632 107.115 48.3974C113.358 46.571 124.179 39.6311 117.52 26.4816C110.861 13.3321 93.9348 16.1325 86.3043 19.1763C86.9979 12.7842 85.0556 0 71.7369 0Z" fill="#87C12F"/>
<path d="M73.2314 0.913237C61.7856 2.73954 62.0584 15.937 62.0584 21.1659C54.1856 20.6679 46.5428 22.2641 41.8141 28.308C36.813 34.7001 38.4401 41.5839 41.8141 43.5759C36.753 45.0699 27.3056 50.5976 30.0049 60.7568C32.7042 70.916 45.7504 68.4758 51.9362 65.9858C51.3738 71.4638 53.4545 82.7185 66.276 83.9137C79.0974 85.1089 85.6768 74.9497 87.3639 69.7208C92.425 74.2027 104.234 78.6847 113.513 69.7208C122.792 60.0098 110.982 48.8048 104.234 45.0699C109.295 43.5759 118.068 37.8987 112.669 27.1419C107.271 16.3852 93.5497 18.676 87.3639 21.1659C87.9262 15.937 86.6967 -1.23529 73.2314 0.913237Z" fill="#87C12F"/>
<path fill-rule="evenodd" clip-rule="evenodd" d="M52.7564 79.5088L88.826 24.6818L90.3982 25.4783L54.3286 80.3054L52.7564 79.5088Z" fill="#87C12F"/>
<path d="M92.2711 25.818C91.773 26.575 90.3135 26.6537 89.0111 25.9938C87.7086 25.3339 87.0565 24.1853 87.5545 23.4283C88.0526 22.6713 89.5121 22.5925 90.8145 23.2525C92.117 23.9124 92.7691 25.061 92.2711 25.818Z" fill="#87C12F"/>
<path d="M56.2015 80.6451C55.7035 81.4021 54.244 81.4808 52.9415 80.8209C51.6391 80.161 50.987 79.0123 51.485 78.2553C51.983 77.4983 53.4426 77.4196 54.745 78.0795C56.0475 78.7394 56.6996 79.8881 56.2015 80.6451Z" fill="#87C12F"/>
<path fill-rule="evenodd" clip-rule="evenodd" d="M44.4216 73.4674L101.881 23.0412L103.165 24.1678L45.7053 74.5939L44.4216 73.4674Z" fill="#87C12F"/>
<path d="M104.927 24.8741C104.134 25.5703 102.629 25.3782 101.565 24.4449C100.502 23.5117 100.283 22.1907 101.076 21.4945C101.87 20.7982 103.375 20.9904 104.438 21.9236C105.502 22.8569 105.721 24.1779 104.927 24.8741Z" fill="#87C12F"/>
<path d="M47.4678 75.3002C46.6745 75.9964 45.1693 75.8043 44.1058 74.871C43.0424 73.9378 42.8235 72.6168 43.6168 71.9206C44.4102 71.2243 45.9154 71.4165 46.9788 72.3497C48.0423 73.283 48.2612 74.604 47.4678 75.3002Z" fill="#87C12F"/>
<path fill-rule="evenodd" clip-rule="evenodd" d="M46.5815 61.5079L104.764 32.0282L105.672 33.4079L47.4892 62.8877L46.5815 61.5079Z" fill="#87C12F"/>
<path d="M107.064 34.542C106.261 34.949 105 34.3524 104.248 33.2094C103.496 32.0664 103.538 30.8098 104.341 30.4028C105.144 29.9958 106.405 30.5924 107.157 31.7354C107.909 32.8784 107.867 34.1349 107.064 34.542Z" fill="#87C12F"/>
<path d="M48.8816 64.0217C48.0782 64.4288 46.8174 63.8321 46.0655 62.6891C45.3135 61.5461 45.3552 60.2896 46.1585 59.8826C46.9618 59.4755 48.2226 60.0721 48.9746 61.2151C49.7265 62.3581 49.6849 63.6147 48.8816 64.0217Z" fill="#87C12F"/>
<path fill-rule="evenodd" clip-rule="evenodd" d="M39.1107 55.841L104.91 40.3683L105.38 41.9071L39.5805 57.3799L39.1107 55.841Z" fill="#87C12F"/>
<path d="M106.398 43.3171C105.49 43.5307 104.438 42.6704 104.048 41.3956C103.659 40.1207 104.08 38.914 104.989 38.7004C105.897 38.4868 106.949 39.3471 107.338 40.6219C107.728 41.8968 107.307 43.1034 106.398 43.3171Z" fill="#87C12F"/>
<path d="M40.5985 58.7898C39.69 59.0034 38.638 58.1432 38.2487 56.8683C37.8595 55.5935 38.2804 54.3868 39.1889 54.1732C40.0974 53.9595 41.1495 54.8198 41.5387 56.0947C41.928 57.3695 41.507 58.5762 40.5985 58.7898Z" fill="#87C12F"/>
<path fill-rule="evenodd" clip-rule="evenodd" d="M38.9105 47.4842L102.333 47.4842L102.333 49.3105L38.9105 49.3105L38.9105 47.4842Z" fill="#87C12F"/>
<path d="M102.862 51.1368C101.986 51.1368 101.276 49.9103 101.276 48.3973C101.276 46.8844 101.986 45.6579 102.862 45.6579C103.737 45.6579 104.447 46.8844 104.447 48.3973C104.447 49.9103 103.737 51.1368 102.862 51.1368Z" fill="#87C12F"/>
<path d="M39.4389 51.1368C38.5632 51.1368 37.8533 49.9103 37.8533 48.3973C37.8533 46.8844 38.5632 45.6579 39.4389 45.6579C40.3146 45.6579 41.0245 46.8844 41.0245 48.3973C41.0245 49.9103 40.3146 51.1368 39.4389 51.1368Z" fill="#87C12F"/>
<path fill-rule="evenodd" clip-rule="evenodd" d="M34.4818 38.2161L105.43 54.8994L104.96 56.4383L34.0119 39.7549L34.4818 38.2161Z" fill="#87C12F"/>
<path d="M105.081 58.1162C104.102 57.8859 103.623 56.6657 104.012 55.3908C104.402 54.116 105.511 53.2692 106.491 53.4996C107.47 53.7299 107.949 54.9501 107.56 56.225C107.17 57.4998 106.061 58.3466 105.081 58.1162Z" fill="#87C12F"/>
<path d="M34.1333 41.4328C33.1537 41.2025 32.6751 39.9823 33.0644 38.7074C33.4536 37.4326 34.5632 36.5858 35.5428 36.8162C36.5224 37.0465 37.001 38.2667 36.6117 39.5416C36.2225 40.8164 35.1128 41.6632 34.1333 41.4328Z" fill="#87C12F"/>
<path fill-rule="evenodd" clip-rule="evenodd" d="M44.4905 32.388L101.141 61.0916L100.233 62.4713L43.5828 33.7678L44.4905 32.388Z" fill="#87C12F"/>
<path d="M99.7979 64.0903C99.0157 63.6939 98.9912 62.4461 99.7432 61.3031C100.495 60.1601 101.739 59.5548 102.521 59.9511C103.303 60.3474 103.328 61.5953 102.576 62.7383C101.824 63.8813 100.58 64.4866 99.7979 64.0903Z" fill="#87C12F"/>
<path d="M43.1471 35.3866C42.365 34.9903 42.3405 33.7425 43.0924 32.5995C43.8444 31.4565 45.088 30.8512 45.8702 31.2475C46.6524 31.6438 46.6769 32.8916 45.9249 34.0346C45.173 35.1776 43.9293 35.783 43.1471 35.3866Z" fill="#87C12F"/>
<path fill-rule="evenodd" clip-rule="evenodd" d="M50.9558 26.8085L103.335 72.7757L102.051 73.9022L49.6721 27.9351L50.9558 26.8085Z" fill="#87C12F"/>
<path d="M101.204 75.4118C100.481 74.7771 100.756 73.5061 101.82 72.5728C102.883 71.6395 104.332 71.3975 105.055 72.0322C105.778 72.6668 105.502 73.9379 104.439 74.8712C103.375 75.8044 101.927 76.0465 101.204 75.4118Z" fill="#87C12F"/>
<path d="M48.8249 29.4447C48.1017 28.81 48.3775 27.5389 49.441 26.6057C50.5044 25.6724 51.9527 25.4304 52.6759 26.065C53.3991 26.6997 53.1233 27.9708 52.0599 28.904C50.9965 29.8373 49.5481 30.0793 48.8249 29.4447Z" fill="#87C12F"/>
<path fill-rule="evenodd" clip-rule="evenodd" d="M58.1003 22.2216L91.8772 73.5636L90.305 74.3602L56.5281 23.0181L58.1003 22.2216Z" fill="#87C12F"/>
<path d="M89.0144 75.5846C88.548 74.8757 89.2258 73.7661 90.5282 73.1062C91.8307 72.4463 93.2646 72.486 93.7309 73.1949C94.1973 73.9038 93.5195 75.0134 92.2171 75.6733C90.9147 76.3332 89.4808 76.2935 89.0144 75.5846Z" fill="#87C12F"/>
<path d="M55.2374 24.2426C54.7711 23.5337 55.4488 22.4241 56.7513 21.7642C58.0537 21.1042 59.4876 21.144 59.9539 21.8528C60.4203 22.5617 59.7425 23.6714 58.4401 24.3313C57.1377 24.9912 55.7038 24.9515 55.2374 24.2426Z" fill="#87C12F"/>
<path fill-rule="evenodd" clip-rule="evenodd" d="M66.5364 19.9832L83.0338 74.0155L81.2803 74.4279L64.7829 20.3956L66.5364 19.9832Z" fill="#87C12F"/>
<path d="M79.6642 75.2904C79.4365 74.5445 80.4295 73.663 81.8822 73.3214C83.3348 72.9798 84.6971 73.3075 84.9248 74.0533C85.1525 74.7992 84.1595 75.6807 82.7068 76.0223C81.2542 76.3639 79.8919 76.0362 79.6642 75.2904Z" fill="#87C12F"/>
<path d="M63.1668 21.258C62.939 20.5122 63.932 19.6306 65.3847 19.289C66.8374 18.9474 68.1996 19.2751 68.4273 20.021C68.6551 20.7668 67.6621 21.6484 66.2094 21.99C64.7567 22.3316 63.3945 22.0039 63.1668 21.258Z" fill="#87C12F"/>
<path fill-rule="evenodd" clip-rule="evenodd" d="M75.1803 12.1464L75.1803 83.4597L73.3649 83.4597L73.3649 12.1464L75.1803 12.1464Z" fill="#87C12F"/>
<path d="M71.5495 84.054C71.5495 83.0694 72.7686 82.2712 74.2725 82.2712C75.7765 82.2712 76.9956 83.0694 76.9956 84.054C76.9956 85.0386 75.7765 85.8368 74.2725 85.8368C72.7686 85.8368 71.5495 85.0386 71.5495 84.054Z" fill="#87C12F"/>
<path d="M71.5495 12.7407C71.5495 11.7561 72.7686 10.9579 74.2725 10.9579C75.7765 10.9579 76.9956 11.7561 76.9956 12.7407C76.9956 13.7253 75.7765 14.5235 74.2725 14.5235C72.7686 14.5235 71.5495 13.7253 71.5495 12.7407Z" fill="#87C12F"/>
<path fill-rule="evenodd" clip-rule="evenodd" d="M82.6943 23.891L66.6409 76.4695L64.8874 76.0572L80.9408 23.4787L82.6943 23.891Z" fill="#87C12F"/>
<path d="M62.9999 76.083C63.2216 75.357 64.5789 75.0454 66.0316 75.387C67.4842 75.7286 68.4822 76.594 68.2605 77.32C68.0389 78.0459 66.6816 78.3575 65.2289 78.0159C63.7762 77.6743 62.7783 76.8089 62.9999 76.083Z" fill="#87C12F"/>
<path d="M79.0534 23.5045C79.275 22.7785 80.6323 22.4669 82.085 22.8085C83.5377 23.1501 84.5356 24.0156 84.314 24.7415C84.0923 25.4675 82.735 25.7791 81.2823 25.4375C79.8297 25.0959 78.8317 24.2304 79.0534 23.5045Z" fill="#87C12F"/>
<path fill-rule="evenodd" clip-rule="evenodd" d="M90.8815 24.7435L54.9259 79.3973L53.3537 78.6007L89.3094 23.9469L90.8815 24.7435Z" fill="#87C12F"/>
<path d="M51.4819 78.2596C51.9784 77.505 53.4367 77.4282 54.7391 78.0881C56.0415 78.748 56.6949 79.8947 56.1985 80.6493C55.702 81.4039 54.244 81.4808 52.9415 80.8209C51.6391 80.161 50.9855 79.0142 51.4819 78.2596Z" fill="#87C12F"/>
<path d="M87.4376 23.6058C87.934 22.8511 89.3923 22.7744 90.6947 23.4343C91.9972 24.0942 92.6505 25.2409 92.1541 25.9955C91.6576 26.7501 90.1994 26.8269 88.8969 26.167C87.5945 25.5071 86.9411 24.3604 87.4376 23.6058Z" fill="#87C12F"/>
<path fill-rule="evenodd" clip-rule="evenodd" d="M104.122 23.3273L46.6627 73.7535L45.379 72.6269L102.839 22.2008L104.122 23.3273Z" fill="#87C12F"/>
<path d="M43.6168 71.9206C44.4102 71.2243 45.9154 71.4165 46.9788 72.3497C48.0423 73.283 48.2612 74.604 47.4678 75.3002C46.6745 75.9964 45.1693 75.8043 44.1058 74.871C43.0424 73.9378 42.8235 72.6168 43.6168 71.9206Z" fill="#87C12F"/>
<path d="M101.076 21.4945C101.87 20.7982 103.375 20.9904 104.438 21.9236C105.502 22.8569 105.721 24.1779 104.927 24.8741C104.134 25.5703 102.629 25.3782 101.565 24.4449C100.502 23.5117 100.283 22.1907 101.076 21.4945Z" fill="#87C12F"/>
<path fill-rule="evenodd" clip-rule="evenodd" d="M106.418 33.0295L48.6579 62.2954L47.7502 60.9157L105.511 31.6498L106.418 33.0295Z" fill="#87C12F"/>
<path d="M46.3613 59.7799C47.1588 59.3758 48.4149 59.9748 49.1669 61.1178C49.9188 62.2608 49.8819 63.515 49.0844 63.919C48.2869 64.3231 47.0308 63.7241 46.2789 62.5811C45.5269 61.4381 45.5638 60.1839 46.3613 59.7799Z" fill="#87C12F"/>
<path d="M104.122 30.514C104.919 30.1099 106.175 30.7089 106.927 31.8519C107.679 32.9949 107.642 34.2491 106.845 34.6532C106.047 35.0572 104.791 34.4582 104.039 33.3152C103.287 32.1722 103.324 30.9181 104.122 30.514Z" fill="#87C12F"/>
<path fill-rule="evenodd" clip-rule="evenodd" d="M106.491 41.6456L40.8058 57.0916L40.336 55.5527L106.022 40.1067L106.491 41.6456Z" fill="#87C12F"/>
<path d="M39.3187 54.1425C40.2256 53.9293 41.2764 54.7899 41.6656 56.0647C42.0549 57.3396 41.6352 58.5459 40.7283 58.7592C39.8213 58.9724 38.7706 58.1119 38.3814 56.837C37.9921 55.5622 38.4118 54.3558 39.3187 54.1425Z" fill="#87C12F"/>
<path d="M105.004 38.6966C105.911 38.4833 106.962 39.3439 107.351 40.6187C107.741 41.8936 107.321 43.0999 106.414 43.3132C105.507 43.5265 104.456 42.6659 104.067 41.391C103.678 40.1162 104.098 38.9098 105.004 38.6966Z" fill="#87C12F"/>
<path fill-rule="evenodd" clip-rule="evenodd" d="M103.39 49.3105L39.9676 49.3105L39.9676 47.4842L103.39 47.4842L103.39 49.3105Z" fill="#87C12F"/>
<path d="M39.4389 45.6579C40.3146 45.6579 41.0245 46.8844 41.0245 48.3973C41.0245 49.9103 40.3146 51.1368 39.4389 51.1368C38.5632 51.1368 37.8533 49.9103 37.8533 48.3973C37.8533 46.8844 38.5632 45.6579 39.4389 45.6579Z" fill="#87C12F"/>
<path d="M102.862 45.6579C103.737 45.6579 104.447 46.8844 104.447 48.3973C104.447 49.9103 103.737 51.1368 102.862 51.1368C101.986 51.1368 101.276 49.9103 101.276 48.3973C101.276 46.8844 101.986 45.6579 102.862 45.6579Z" fill="#87C12F"/>
<path fill-rule="evenodd" clip-rule="evenodd" d="M105.738 56.6213L35.1812 40.0298L35.651 38.4909L106.208 55.0824L105.738 56.6213Z" fill="#87C12F"/>
<path d="M35.5328 36.8138C36.507 37.0429 36.9812 38.262 36.5919 39.5369C36.2027 40.8117 35.0974 41.6595 34.1232 41.4304C33.149 41.2013 32.6751 39.9823 33.0644 38.7074C33.4536 37.4326 34.5586 36.5847 35.5328 36.8138Z" fill="#87C12F"/>
<path d="M106.09 53.4052C107.064 53.6343 107.538 54.8535 107.149 56.1283C106.76 57.4032 105.655 58.251 104.68 58.0219C103.706 57.7928 103.232 56.5736 103.621 55.2988C104.01 54.0239 105.116 53.1762 106.09 53.4052Z" fill="#87C12F"/>
<path fill-rule="evenodd" clip-rule="evenodd" d="M101.131 62.9258L44.3849 34.1738L45.2926 32.7941L102.039 61.5461L101.131 62.9258Z" fill="#87C12F"/>
<path d="M45.7274 31.1747C46.5109 31.5717 46.5365 32.8201 45.7845 33.9631C45.0326 35.1061 43.7878 35.7109 43.0043 35.3139C42.2208 34.9169 42.1953 33.6685 42.9472 32.5255C43.6992 31.3825 44.9439 30.7777 45.7274 31.1747Z" fill="#87C12F"/>
<path d="M102.474 59.9268C103.257 60.3238 103.283 61.5722 102.531 62.7152C101.779 63.8582 100.534 64.4629 99.7506 64.066C98.9671 63.669 98.9416 62.4206 99.6935 61.2776C100.445 60.1346 101.69 59.5298 102.474 59.9268Z" fill="#87C12F"/>
<path fill-rule="evenodd" clip-rule="evenodd" d="M102.921 74.6656L50.3573 28.5361L51.6409 27.4095L104.205 73.5391L102.921 74.6656Z" fill="#87C12F"/>
<path d="M52.4865 25.8986C53.2122 26.5355 52.9385 27.8083 51.8751 28.7416C50.8116 29.6749 49.3612 29.9151 48.6355 29.2782C47.9097 28.6413 48.1834 27.3684 49.2469 26.4351C50.3103 25.5019 51.7607 25.2616 52.4865 25.8986Z" fill="#87C12F"/>
<path d="M105.05 72.0281C105.776 72.665 105.502 73.9379 104.439 74.8712C103.375 75.8044 101.925 76.0446 101.199 75.4077C100.474 74.7708 100.747 73.4979 101.811 72.5647C102.874 71.6314 104.325 71.3912 105.05 72.0281Z" fill="#87C12F"/>
<path fill-rule="evenodd" clip-rule="evenodd" d="M90.9559 75.3504L56.9811 23.7075L58.5533 22.9109L92.5281 74.5538L90.9559 75.3504Z" fill="#87C12F"/>
<path d="M59.8423 21.684C60.3114 22.397 59.6358 23.51 58.3334 24.1699C57.031 24.8298 55.5949 24.7868 55.1258 24.0737C54.6567 23.3607 55.3322 22.2477 56.6347 21.5878C57.9371 20.9279 59.3732 20.9709 59.8423 21.684Z" fill="#87C12F"/>
<path d="M93.817 73.3268C94.2861 74.0398 93.6106 75.1528 92.3081 75.8127C91.0057 76.4726 89.5696 76.4296 89.1005 75.7165C88.6314 75.0035 89.307 73.8905 90.6094 73.2306C91.9118 72.5707 93.3479 72.6138 93.817 73.3268Z" fill="#87C12F"/>
<path fill-rule="evenodd" clip-rule="evenodd" d="M81.5329 75.2555L64.997 21.0968L66.7505 20.6845L83.2864 74.8432L81.5329 75.2555Z" fill="#87C12F"/>
<path d="M68.3666 19.8222C68.5949 20.5699 67.6024 21.453 66.1497 21.7946C64.697 22.1362 63.3343 21.807 63.106 21.0592C62.8777 20.3114 63.8702 19.4283 65.3229 19.0867C66.7756 18.7451 68.1383 19.0744 68.3666 19.8222Z" fill="#87C12F"/>
<path d="M84.9027 73.9808C85.131 74.7286 84.1384 75.6117 82.6858 75.9533C81.2331 76.2949 79.8704 75.9656 79.6421 75.2179C79.4138 74.4701 80.4063 73.587 81.859 73.2454C83.3116 72.9038 84.6743 73.2331 84.9027 73.9808Z" fill="#87C12F"/>
<path fill-rule="evenodd" clip-rule="evenodd" d="M73.3646 84.6483L73.3646 13.335L75.18 13.335L75.18 84.6483L73.3646 84.6483Z" fill="#87C12F"/>
<path d="M76.9956 12.7407C76.9956 13.7253 75.7765 14.5235 74.2725 14.5235C72.7686 14.5235 71.5495 13.7253 71.5495 12.7407C71.5495 11.7561 72.7686 10.9579 74.2725 10.9579C75.7765 10.9579 76.9956 11.7561 76.9956 12.7407Z" fill="#87C12F"/>
<path d="M76.9956 84.054C76.9956 85.0386 75.7765 85.8368 74.2725 85.8368C72.7686 85.8368 71.5495 85.0386 71.5495 84.054C71.5495 83.0694 72.7686 82.2712 74.2725 82.2712C75.7765 82.2712 76.9956 83.0694 76.9956 84.054Z" fill="#87C12F"/>
<path fill-rule="evenodd" clip-rule="evenodd" d="M64.6663 76.7817L80.7013 24.2634L82.4548 24.6758L66.4198 77.1941L64.6663 76.7817Z" fill="#87C12F"/>
<path d="M84.3419 24.6505C84.1205 25.3756 82.7634 25.6865 81.3107 25.3449C79.858 25.0033 78.8599 24.1386 79.0813 23.4135C79.3027 22.6883 80.6598 22.3774 82.1125 22.719C83.5651 23.0606 84.5633 23.9254 84.3419 24.6505Z" fill="#87C12F"/>
<path d="M68.3068 77.1688C68.0854 77.8939 66.7283 78.2048 65.2756 77.8632C63.8229 77.5216 62.8248 76.6569 63.0462 75.9317C63.2676 75.2066 64.6247 74.8957 66.0773 75.2373C67.53 75.5789 68.5282 76.4436 68.3068 77.1688Z" fill="#87C12F"/>
<ellipse cx="16.1631" cy="16.0923" rx="16.1631" ry="16.0923" transform="matrix(0.892032 0.451973 -0.549608 0.835423 67.5068 27.248)" fill="#87C12F"/>
</g>
<path d="M103.277 111.173C105.133 106.683 110.701 98.766 118.125 103.02C127.406 108.338 122.111 116.727 117.609 121.758C119.96 124.896 120.877 132.889 105.734 139.766C107.57 143.686 108.304 152.172 96.5611 154.754C97.2536 159.21 94.6496 168.57 78.6938 170.358C66.7875 171.693 62.6316 172.366 61.6946 172.652L61.6773 172.822C61.4295 172.803 61.3759 172.75 61.6946 172.652L63.54 154.556C63.2137 150.981 64.437 142.566 71.9408 137.507C73.3836 136.635 76.4452 133.979 77.149 130.327C78.0287 125.761 80.7629 124.846 85.0501 124.09C88.4798 123.486 91.9696 117.427 93.2858 114.474C94.4754 112.431 98.139 108.91 103.277 111.173Z" fill="#87C12F"/>
<g style="mix-blend-mode:multiply">
<path fill-rule="evenodd" clip-rule="evenodd" d="M111.583 106.887C112.145 106.956 112.533 107.413 112.45 107.906L112.128 109.831C112.045 110.325 111.523 110.668 110.962 110.599C110.401 110.529 110.013 110.073 110.095 109.579L110.418 107.654C110.5 107.161 111.022 106.817 111.583 106.887ZM119.69 112.182C119.895 112.646 119.632 113.17 119.103 113.353L116.65 114.201C116.12 114.383 115.526 114.156 115.321 113.692C115.116 113.228 115.379 112.704 115.908 112.521L118.361 111.674C118.89 111.491 119.485 111.719 119.69 112.182ZM114.945 110.187C115.402 110.479 115.501 111.044 115.166 111.447L69.2377 166.733C68.9023 167.137 68.2595 167.227 67.802 166.935C67.3445 166.642 67.2455 166.078 67.5809 165.674L113.509 110.389C113.844 109.985 114.487 109.895 114.945 110.187ZM106.769 110.07C107.325 109.968 107.867 110.281 107.98 110.769L108.471 112.897C108.584 113.384 108.225 113.863 107.669 113.965C107.113 114.067 106.571 113.754 106.458 113.266L105.967 111.138C105.854 110.65 106.213 110.172 106.769 110.07ZM116.964 117.595C117.085 118.082 116.734 118.564 116.18 118.674L112.913 119.319C112.359 119.428 111.811 119.123 111.69 118.637C111.569 118.15 111.92 117.668 112.474 117.558L115.741 116.913C116.295 116.804 116.843 117.109 116.964 117.595ZM102.969 113.352C103.528 113.262 104.061 113.587 104.16 114.077L104.771 117.1C104.87 117.59 104.498 118.061 103.939 118.151C103.381 118.241 102.848 117.916 102.749 117.426L102.137 114.403C102.038 113.913 102.411 113.442 102.969 113.352ZM112.937 122.737C113.003 123.232 112.6 123.683 112.037 123.744L108.976 124.076C108.413 124.137 107.903 123.785 107.836 123.291C107.77 122.796 108.173 122.345 108.737 122.284L111.797 121.952C112.361 121.891 112.871 122.243 112.937 122.737ZM98.8513 118.161C99.4099 118.071 99.9431 118.395 100.042 118.885L100.653 121.908C100.753 122.399 100.38 122.869 99.8216 122.959C99.263 123.049 98.7298 122.725 98.6307 122.234L98.0194 119.211C97.9203 118.721 98.2928 118.251 98.8513 118.161ZM109.448 127.613C109.543 128.104 109.166 128.571 108.607 128.658L105.443 129.146C104.884 129.233 104.354 128.905 104.259 128.414C104.164 127.923 104.54 127.455 105.1 127.369L108.263 126.88C108.823 126.794 109.353 127.122 109.448 127.613ZM94.2827 122.945C94.842 122.858 95.3723 123.186 95.4672 123.677L96.0041 126.454C96.0991 126.945 95.7226 127.413 95.1633 127.499C94.604 127.585 94.0737 127.258 93.9788 126.767L93.4418 123.99C93.3469 123.499 93.7234 123.031 94.2827 122.945ZM106.084 132.541C106.076 133.039 105.609 133.44 105.042 133.436L101.271 133.409C100.704 133.405 100.251 132.997 100.259 132.499C100.267 132 100.733 131.6 101.301 131.604L105.071 131.631C105.639 131.635 106.092 132.042 106.084 132.541ZM90.3072 126.396C90.8614 126.286 91.4089 126.592 91.5301 127.078L92.2447 129.945C92.3659 130.431 92.0149 130.914 91.4607 131.023C90.9065 131.133 90.359 130.827 90.2378 130.341L89.5232 127.474C89.402 126.988 89.753 126.505 90.3072 126.396ZM101.089 137.844C101.149 138.339 100.74 138.786 100.176 138.842L96.3765 139.218C95.8124 139.273 95.3064 138.917 95.2463 138.422C95.1862 137.927 95.5948 137.48 96.1589 137.424L99.9587 137.048C100.523 136.992 101.029 137.349 101.089 137.844ZM86.1685 130.948C86.7284 130.865 87.2565 131.196 87.3482 131.687L88.0792 135.606C88.1709 136.097 87.7914 136.563 87.2315 136.647C86.6717 136.73 86.1436 136.4 86.0519 135.908L85.3208 131.989C85.2292 131.498 85.6087 131.032 86.1685 130.948ZM82.1823 135.596C82.7445 135.526 83.2618 135.87 83.3378 136.363L83.9656 140.439C84.0417 140.932 83.6476 141.389 83.0854 141.459C82.5232 141.529 82.0059 141.185 81.9298 140.692L81.302 136.616C81.226 136.123 81.6201 135.666 82.1823 135.596ZM96.5553 143.258C96.6283 143.752 96.2314 144.207 95.6688 144.274L92.3275 144.673C91.7649 144.74 91.2497 144.394 91.1767 143.9C91.1036 143.406 91.5005 142.951 92.0631 142.884L95.4044 142.485C95.967 142.418 96.4822 142.764 96.5553 143.258ZM93.332 148.576C93.3668 149.073 92.936 149.504 92.3698 149.537L88.6733 149.756C88.107 149.79 87.6198 149.414 87.585 148.917C87.5502 148.419 87.981 147.989 88.5472 147.956L92.2438 147.736C92.81 147.703 93.2972 148.079 93.332 148.576ZM78.9105 141.781C79.4531 141.633 80.0271 141.898 80.1924 142.374L81.3365 145.667C81.5019 146.143 81.196 146.649 80.6534 146.797C80.1107 146.945 79.5367 146.679 79.3714 146.203L78.2273 142.911C78.062 142.435 78.3678 141.929 78.9105 141.781ZM74.887 145.774C75.4354 145.643 75.9977 145.928 76.1428 146.409L77.3323 150.351C77.4775 150.832 77.1506 151.327 76.6022 151.458C76.0538 151.588 75.4916 151.304 75.3464 150.823L74.1569 146.881C74.0117 146.4 74.3386 145.904 74.887 145.774ZM87.9006 153.466C87.9956 153.957 87.6191 154.425 87.0598 154.511L83.8961 155C83.3368 155.086 82.8064 154.758 82.7115 154.267C82.6166 153.776 82.993 153.309 83.5523 153.222L86.7161 152.734C87.2754 152.647 87.8057 152.975 87.9006 153.466ZM71.3437 149.929C71.9082 149.877 72.4112 150.237 72.4672 150.732L72.9174 154.718C72.9734 155.214 72.5612 155.658 71.9966 155.71C71.4321 155.762 70.9291 155.403 70.8731 154.907L70.4229 150.921C70.3669 150.426 70.7792 149.982 71.3437 149.929ZM83.8395 159.003C83.8842 159.5 83.462 159.937 82.8965 159.979L79.6584 160.221C79.0929 160.264 78.5982 159.895 78.5535 159.399C78.5088 158.902 78.931 158.465 79.4965 158.423L82.7346 158.181C83.3001 158.138 83.7948 158.507 83.8395 159.003ZM68.1883 156.558C68.7484 156.634 69.1295 157.095 69.0394 157.587C68.7067 159.407 69.1027 161.13 69.3191 161.708C69.4962 162.18 69.2029 162.692 68.664 162.85C68.125 163.009 67.5446 162.754 67.3674 162.282C67.069 161.485 66.6169 159.467 67.0111 157.312C67.1012 156.819 67.6282 156.481 68.1883 156.558ZM80.7104 164.08C80.7704 164.575 80.3619 165.022 79.7978 165.077L75.998 165.453C75.4339 165.509 74.9279 165.153 74.8678 164.657C74.8077 164.162 75.2163 163.715 75.7804 163.66L79.5802 163.284C80.1443 163.228 80.6503 163.584 80.7104 164.08Z" fill="#87C12F"/>
</g>
<path d="M53.7058 113.994C61.5777 115.957 66.0599 125.867 68.5199 131.693C65.8256 128.831 59.5303 123.262 56.5714 122.187C52.3542 120.653 48.0287 120.522 41.7572 128.407C40.3515 121.048 43.8658 111.541 53.7058 113.994Z" fill="#87C12F"/>
<g style="mix-blend-mode:multiply">
<path fill-rule="evenodd" clip-rule="evenodd" d="M56.9288 119.532C61.8119 122.11 66.2414 127.442 68.8277 131.545C68.9212 131.694 68.8592 131.88 68.6891 131.962C68.519 132.044 68.3054 131.989 68.2118 131.841C65.6438 127.767 61.2877 122.55 56.565 120.057C54.2108 118.814 51.809 118.271 49.5055 118.833C47.2013 119.395 44.9074 121.084 42.8239 124.478C42.7322 124.627 42.5192 124.684 42.3481 124.604C42.1771 124.524 42.1127 124.338 42.2043 124.188C44.3379 120.713 46.759 118.866 49.3163 118.242C51.8742 117.618 54.4801 118.24 56.9288 119.532Z" fill="#87C12F"/>
</g>
<path d="M86.7097 92.245C79.8218 93.9623 75.8999 102.633 73.7474 107.732C76.1049 105.227 81.6133 100.355 84.2023 99.4133C87.8923 98.0717 91.6771 97.9566 97.1647 104.857C98.3947 98.4166 95.3197 90.0983 86.7097 92.245Z" fill="#87C12F"/>
<g style="mix-blend-mode:multiply">
<path fill-rule="evenodd" clip-rule="evenodd" d="M83.8896 97.0907C79.617 99.3459 75.7411 104.012 73.4781 107.602C73.3963 107.732 73.4506 107.895 73.5994 107.967C73.7482 108.038 73.9351 107.991 74.017 107.861C76.264 104.296 80.0756 99.731 84.2079 97.5499C86.2678 96.4626 88.3695 95.9869 90.385 96.4785C92.4012 96.9703 94.4084 98.4487 96.2314 101.418C96.3116 101.549 96.498 101.598 96.6477 101.528C96.7974 101.458 96.8537 101.296 96.7736 101.165C94.9066 98.1238 92.7882 96.5075 90.5506 95.9617C88.3124 95.4158 86.0322 95.9598 83.8896 97.0907Z" fill="#87C12F"/>
</g>
</svg>
