<svg width="150" height="217" viewBox="0 0 150 217" fill="none" xmlns="http://www.w3.org/2000/svg">
<path fill-rule="evenodd" clip-rule="evenodd" d="M121.721 105.502C122.035 105.525 122.268 105.767 122.242 106.042C120.671 122.319 113.976 134.592 106.843 142.984C101.585 149.17 96.0791 153.259 92.195 155.288C92.1623 157.314 92.0943 159.392 91.9873 161.522C91.1941 177.308 88.258 195.921 81.6767 216.634C81.5922 216.9 81.2773 217.056 80.9735 216.982C80.6696 216.908 80.4918 216.632 80.5763 216.366C87.094 195.854 90.0211 177.415 90.8316 161.765C87.5757 159.916 83.461 157.233 79.038 153.856C74.3908 150.308 69.3972 145.989 64.698 141.058C63.1269 139.41 61.5883 137.692 60.1065 135.912C53.4413 127.907 47.911 118.618 45.7302 108.594C45.6712 108.322 45.8745 108.061 46.1843 108.009C46.4941 107.957 46.7931 108.135 46.8521 108.406C48.9919 118.242 54.4287 127.395 61.0294 135.323C62.4957 137.085 64.0187 138.785 65.575 140.418C70.2305 145.303 75.1806 149.584 79.7886 153.102C83.9221 156.258 87.7756 158.796 90.8882 160.601C90.9753 158.689 91.0307 156.819 91.0573 154.994C91.3681 133.65 85.6563 104.804 82.5118 97.6462C82.3986 97.3884 82.5455 97.0991 82.8398 97C83.1342 96.9009 83.4646 97.0295 83.5778 97.2872C86.7441 104.495 92.409 133.144 92.2102 154.106C95.9096 152.054 101.015 148.166 105.927 142.387C112.945 134.13 119.552 122.032 121.104 105.958C121.13 105.683 121.406 105.479 121.721 105.502Z" fill="#0A3019"/>
<path fill-rule="evenodd" clip-rule="evenodd" d="M110.871 97.1809C111.093 97.2867 111.174 97.5296 111.053 97.7236C110.251 100.5 110.358 100.639 109.356 106.659C108.505 111.772 107.916 117.528 107.523 123.123C109.303 118.64 111.707 112.871 114.117 107.65C115.586 104.467 114.606 106.513 115.943 104.145C116.612 102.961 117.25 101.926 117.839 101.096C118.423 100.273 118.979 99.6217 119.489 99.231C119.679 99.0855 119.967 99.1024 120.133 99.2686C120.299 99.4349 120.28 99.6876 120.09 99.8331C119.687 100.142 119.189 100.709 118.616 101.518C118.048 102.318 117.424 103.329 116.762 104.5C115.439 106.842 116.429 104.775 114.964 107.95C112.045 114.275 109.131 121.413 107.332 126.076C106.957 132.439 106.827 138.389 106.842 142.685C106.842 142.905 106.638 143.085 106.386 143.086C106.134 143.086 105.929 142.908 105.928 142.687C105.913 138.365 106.044 132.378 106.423 125.979C106.807 119.494 107.447 112.579 108.452 106.543C109.454 100.525 109.109 100.5 110.251 97.3405C110.372 97.1465 110.65 97.0751 110.871 97.1809ZM37.4985 108.153C37.7176 108.043 37.9966 108.11 38.1218 108.302C39.9505 111.103 47.2051 124.222 50.6482 130.511C54.5226 132.846 58.2367 134.434 60.7268 135.243C60.9634 135.32 61.0841 135.55 60.9964 135.757C60.9086 135.964 60.6458 136.07 60.4092 135.993C57.8227 135.153 53.9988 133.513 50.0288 131.109C44.2199 127.59 38.048 122.404 35.0156 115.646C34.9234 115.441 35.039 115.208 35.2738 115.128C35.5087 115.047 35.7738 115.148 35.8661 115.354C38.5601 121.358 43.8325 126.12 49.1053 129.545C45.4534 122.892 39.0186 111.288 37.3285 108.698C37.2033 108.507 37.2794 108.262 37.4985 108.153ZM56.8329 114.205C57.0189 114.056 57.3079 114.067 57.4784 114.23C58.7924 115.485 59.9093 117.358 60.8574 119.533C61.8085 121.715 62.603 124.233 63.2554 126.802C64.5603 131.941 65.3054 137.32 65.5922 140.708C65.6108 140.929 65.422 141.12 65.1703 141.137C64.9187 141.153 64.6996 140.988 64.681 140.767C64.3967 137.41 63.657 132.07 62.3635 126.976C61.7168 124.429 60.9337 121.952 60.0038 119.819C59.0709 117.678 58.0035 115.915 56.8048 114.77C56.6343 114.607 56.6469 114.354 56.8329 114.205ZM71.3937 119.601C71.6457 119.589 71.8609 119.758 71.8746 119.978C72.326 127.29 75.7522 134.602 79.877 140.786C84 146.967 88.7991 151.989 91.9495 154.715C92.129 154.871 92.1307 155.124 91.9533 155.281C91.776 155.438 91.4867 155.44 91.3072 155.284C88.1017 152.511 83.2527 147.433 79.088 141.189C74.9253 134.948 71.4245 127.51 70.9622 120.022C70.9486 119.801 71.1418 119.613 71.3937 119.601ZM120.328 131.763C120.477 131.942 120.433 132.192 120.23 132.323C116.894 134.464 113.957 138.352 111.637 142.392C109.663 145.829 108.157 149.336 107.244 151.882C111.829 148.61 116.745 144.553 121.322 139.744C121.483 139.574 121.771 139.551 121.965 139.693C122.159 139.834 122.185 140.086 122.024 140.256C117.017 145.516 111.613 149.882 106.668 153.313C100.283 157.745 94.6498 160.626 91.6093 161.863C91.3805 161.956 91.1088 161.869 91.0025 161.669C90.8962 161.468 90.9955 161.23 91.2243 161.137C94.1709 159.939 99.6935 157.12 105.986 152.766C106.84 150.154 108.514 146.048 110.82 142.033C113.156 137.965 116.172 133.936 119.689 131.677C119.893 131.547 120.179 131.585 120.328 131.763ZM48.1556 137.842C48.255 137.639 48.5236 137.545 48.7555 137.632C49.6234 137.958 50.9149 138.778 52.401 139.849C53.9029 140.931 55.649 142.302 57.4392 143.767C60.9708 146.656 64.6906 149.924 67.0786 152.089C72.2016 152.96 76.7494 153.163 79.397 153.08C79.6491 153.072 79.8609 153.244 79.8699 153.465C79.879 153.686 79.6819 153.871 79.4298 153.879C76.6848 153.965 72.0078 153.753 66.7617 152.849C61.316 151.912 55.2276 150.226 50.0434 147.337C49.8306 147.219 49.7678 146.972 49.9033 146.785C50.0388 146.599 50.3211 146.544 50.534 146.663C55.1376 149.227 60.4986 150.833 65.4825 151.798C63.1288 149.689 59.8986 146.874 56.8154 144.351C55.0317 142.892 53.3013 141.533 51.8206 140.467C50.324 139.389 49.1266 138.642 48.3955 138.368C48.1636 138.281 48.0562 138.045 48.1556 137.842Z" fill="#0A3019"/>
<ellipse cx="37.8392" cy="108.5" rx="2.85536" ry="2.5" fill="#B756C7"/>
<ellipse cx="56.1137" cy="113.5" rx="2.85536" ry="2.5" fill="#B756C7"/>
<ellipse cx="70.9618" cy="119.5" rx="2.85536" ry="2.5" fill="#B756C7"/>
<ellipse cx="120.074" cy="131.5" rx="2.85536" ry="2.5" fill="#B756C7"/>
<ellipse cx="122.358" cy="139.5" rx="2.85536" ry="2.5" fill="#B756C7"/>
<ellipse cx="49.2606" cy="137.5" rx="2.85536" ry="2.5" fill="#B756C7"/>
<ellipse cx="50.4032" cy="146.5" rx="2.85536" ry="2.5" fill="#B756C7"/>
<ellipse cx="34.984" cy="115" rx="3.42643" ry="3" fill="#B756C7"/>
<ellipse cx="109.794" cy="99.5" rx="2.85536" ry="2.5" fill="#B756C7"/>
<ellipse cx="120.074" cy="100.5" rx="2.85536" ry="2.5" fill="#B756C7"/>
<path d="M82.1013 186.714C77.7829 184.126 74.2899 181.662 71.4974 179.336C70.8475 178.795 70.2356 178.261 69.66 177.735C68.5666 176.736 67.6045 175.764 66.7628 174.822C65.3043 173.188 64.2073 171.641 63.4157 170.188C62.5527 168.603 62.0526 167.129 61.8426 165.773C61.5863 164.119 61.7622 162.641 62.238 161.355C62.8844 159.608 64.0844 158.215 65.5063 157.213C66.5101 156.506 67.6246 155.994 68.7329 155.69C71.5769 155.135 73.9363 155.409 75.8757 156.295C76.9496 156.785 77.8947 157.463 78.7218 158.292C79.2625 158.834 79.7529 159.44 80.1959 160.1C80.9641 161.245 81.59 162.553 82.0896 163.97C82.6328 165.511 83.0267 167.182 83.2916 168.912C83.5377 170.521 83.6725 172.181 83.7123 173.838C83.7469 175.278 83.7099 176.715 83.612 178.113C83.3869 181.331 82.8395 184.345 82.1013 186.714Z" fill="#B756C7"/>
<g style="mix-blend-mode:multiply">
<path d="M65.8956 156.952L70.0197 158.32L75.3943 156.091C75.5575 156.155 75.7179 156.223 75.8755 156.295C75.9986 156.351 76.1201 156.41 76.2398 156.471C76.199 156.536 76.1353 156.591 76.053 156.625L70.0546 159.113L65.3586 157.555C65.2894 157.532 65.2312 157.494 65.1869 157.448C65.292 157.368 65.3984 157.289 65.5062 157.213C65.6343 157.123 65.7641 157.036 65.8956 156.952Z" fill="#B756C7"/>
<path d="M62.1175 161.705C62.1552 161.587 62.1953 161.47 62.2379 161.355C62.2818 161.236 62.3284 161.119 62.3773 161.004L71.5665 162.119L78.4395 158.02C78.5351 158.109 78.6291 158.2 78.7217 158.292C78.8126 158.383 78.9021 158.476 78.9901 158.571C78.9791 158.579 78.9675 158.587 78.9554 158.594L71.7683 162.881L62.1803 161.717C62.1587 161.714 62.1378 161.71 62.1175 161.705Z" fill="#B756C7"/>
<path d="M61.9089 166.156C61.8842 166.027 61.8621 165.9 61.8425 165.774C61.8236 165.652 61.8071 165.531 61.7929 165.411C61.8341 165.407 61.8767 165.408 61.9197 165.415L73.7485 167.353L79.8581 159.888C79.8919 159.847 79.9336 159.813 79.9801 159.789C80.0532 159.891 80.1251 159.995 80.1957 160.1C80.2727 160.215 80.3481 160.331 80.4222 160.449L74.115 168.156L61.9089 166.156Z" fill="#B756C7"/>
<path d="M63.6583 170.62C63.5744 170.475 63.4935 170.331 63.4155 170.188C63.3552 170.077 63.2967 169.967 63.24 169.857C63.3246 169.823 63.4229 169.812 63.5204 169.835L76.0271 172.67L81.7272 163.792C81.781 163.708 81.8668 163.65 81.9635 163.623C82.0063 163.738 82.0483 163.854 82.0894 163.97C82.1461 164.131 82.2011 164.293 82.2545 164.457L76.4374 173.517L63.6583 170.62Z" fill="#B756C7"/>
<path d="M67.2326 175.338C67.0719 175.165 66.9153 174.993 66.7626 174.822C66.6766 174.726 66.5918 174.629 66.5082 174.534C66.6131 174.462 66.7549 174.436 66.8905 174.474L78.1668 177.65L82.9149 168.758C82.9769 168.642 83.0995 168.568 83.2341 168.551C83.2538 168.671 83.2729 168.792 83.2914 168.913C83.3259 169.138 83.3582 169.364 83.3883 169.591L78.6089 178.542L67.2326 175.338Z" fill="#B756C7"/>
<path d="M70.5233 178.506C70.2268 178.248 69.939 177.991 69.6598 177.736C69.5633 177.647 69.4678 177.559 69.3733 177.471C69.4952 177.37 69.6809 177.339 69.8413 177.407L79.9158 181.671L83.3229 173.711C83.3843 173.568 83.5375 173.478 83.7018 173.474C83.7058 173.595 83.7092 173.717 83.7121 173.839C83.7202 174.175 83.7244 174.511 83.7248 174.847L80.374 182.676L70.5233 178.506Z" fill="#B756C7"/>
</g>
<g style="mix-blend-mode:multiply">
<path d="M82.3416 185.895C82.3416 185.895 82.3416 185.895 82.3416 185.895L69.2839 155.592C69.1023 155.621 68.9186 155.653 68.7328 155.69C68.558 155.738 68.3831 155.791 68.2085 155.849L68.214 155.862L81.5798 186.881L85.9547 197.412C86.0596 197.665 86.3779 197.794 86.6657 197.702C86.9536 197.609 87.1019 197.33 86.9971 197.078L82.6222 186.546L82.3416 185.895Z" fill="#B756C7"/>
</g>
<path d="M95.8882 171.683C99.453 170.913 102.441 170.048 104.929 169.122C105.508 168.906 106.06 168.687 106.586 168.466C107.586 168.045 108.491 167.614 109.309 167.176C110.727 166.417 111.882 165.638 112.811 164.853C113.824 163.998 114.567 163.137 115.086 162.292C115.72 161.26 116.019 160.252 116.068 159.304C116.135 158.017 115.738 156.843 115.086 155.879C114.625 155.198 114.037 154.621 113.394 154.182C111.682 153.205 110.055 152.876 108.532 153.04C107.688 153.131 106.877 153.373 106.1 153.739C105.593 153.978 105.1 154.271 104.623 154.609C103.797 155.196 103.018 155.92 102.291 156.743C101.501 157.639 100.772 158.651 100.112 159.731C99.4977 160.735 98.9423 161.796 98.4501 162.877C98.0226 163.815 97.6428 164.767 97.3139 165.707C96.5569 167.87 96.0691 169.968 95.8882 171.683Z" fill="#B756C7"/>
<g style="mix-blend-mode:multiply">
<path d="M114.903 155.623L111.809 155.633L108.905 153.01C108.78 153.017 108.655 153.027 108.532 153.04C108.435 153.051 108.339 153.063 108.243 153.077C108.251 153.129 108.278 153.179 108.322 153.219L111.564 156.146L115.087 156.135C115.139 156.135 115.188 156.123 115.23 156.102C115.183 156.026 115.135 155.952 115.086 155.879C115.027 155.792 114.966 155.707 114.903 155.623Z" fill="#B756C7"/>
<path d="M116.049 159.56C116.058 159.474 116.064 159.389 116.068 159.304C116.073 159.217 116.075 159.13 116.076 159.043L109.725 157.795L106.362 153.621C106.274 153.658 106.187 153.698 106.1 153.739C106.015 153.779 105.93 153.821 105.846 153.864C105.85 153.872 105.856 153.879 105.862 153.887L109.378 158.252L116.005 159.554C116.02 159.557 116.034 159.559 116.049 159.56Z" fill="#B756C7"/>
<path d="M114.935 162.529C114.987 162.45 115.037 162.371 115.086 162.292C115.132 162.216 115.177 162.14 115.22 162.065C115.195 162.053 115.166 162.045 115.136 162.04L106.82 160.764L104.905 154.542C104.894 154.508 104.876 154.477 104.853 154.451C104.776 154.502 104.699 154.555 104.623 154.609C104.541 154.668 104.458 154.728 104.376 154.789L106.353 161.212L114.935 162.529Z" fill="#B756C7"/>
<path d="M112.53 165.085C112.626 165.008 112.72 164.93 112.811 164.853C112.882 164.793 112.951 164.734 113.019 164.674C112.974 164.633 112.912 164.605 112.842 164.599L103.828 163.765L102.579 156.704C102.568 156.637 102.527 156.581 102.472 156.542C102.411 156.608 102.351 156.675 102.291 156.743C102.209 156.837 102.127 156.931 102.046 157.027L103.32 164.234L112.53 165.085Z" fill="#B756C7"/>
<path d="M108.855 167.414C109.01 167.335 109.161 167.256 109.309 167.176C109.393 167.131 109.476 167.087 109.557 167.042C109.508 166.972 109.423 166.925 109.323 166.92L101.021 166.576L100.402 159.711C100.394 159.621 100.335 159.546 100.251 159.506C100.204 159.581 100.158 159.656 100.112 159.731C100.026 159.872 99.9409 160.013 99.8572 160.156L100.48 167.067L108.855 167.414Z" fill="#B756C7"/>
<path d="M105.802 168.786C106.07 168.68 106.331 168.573 106.586 168.466C106.675 168.429 106.762 168.392 106.849 168.354C106.798 168.261 106.684 168.201 106.56 168.211L98.7418 168.841V162.877C98.7418 162.769 98.6664 162.677 98.5595 162.639C98.5227 162.718 98.4862 162.797 98.4501 162.877C98.3502 163.096 98.2529 163.316 98.1582 163.537V169.402L105.802 168.786Z" fill="#B756C7"/>
</g>
<g style="mix-blend-mode:multiply">
<path d="M95.9605 171.093C95.9605 171.093 95.9605 171.093 95.9605 171.093L113.06 153.999C113.171 154.057 113.283 154.118 113.395 154.182C113.496 154.251 113.596 154.324 113.694 154.4L113.687 154.407L96.1838 171.905L90.3484 177.881C90.2085 178.024 89.9629 178.041 89.7998 177.918C89.6367 177.795 89.6178 177.58 89.7576 177.436L95.5931 171.46L95.9605 171.093Z" fill="#B756C7"/>
</g>
<ellipse cx="53.1992" cy="49.1382" rx="53.1992" ry="49.1382" transform="matrix(0.892456 -0.451134 0.550503 0.834833 0.719727 48)" fill="#B756C7"/>
<g style="mix-blend-mode:multiply">
<path d="M59.9198 41.7763L74.4753 59.6861L83.4336 38.9683L79.0466 60.7302L102.153 51.4223L81.393 64.2885L105.112 71.843L80.1401 68.2767L90.5773 88.2682L76.0218 70.3585L67.0635 91.0763L71.4505 69.3144L48.3444 78.6223L69.1041 65.7561L45.3854 58.2016L70.357 61.7679L59.9198 41.7763Z" fill="#B756C7"/>
<ellipse cx="12.4132" cy="11.4656" rx="12.4132" ry="11.4656" transform="matrix(-0.892456 0.451134 0.550503 0.834833 80.0151 49.8505)" fill="#B756C7"/>
<g style="mix-blend-mode:multiply">
<path d="M76.7263 55.8244C76.2462 57.3527 77.1745 58.8925 77.1745 58.8925C77.1745 58.8925 78.8812 57.9545 79.3613 56.4262C79.8414 54.898 80.3041 48.9307 80.3041 48.9307C80.3041 48.9307 77.2065 54.2961 76.7263 55.8244Z" fill="#B756C7"/>
</g>
<g style="mix-blend-mode:multiply">
<path d="M80.6551 56.9762C79.5412 58.235 79.7172 59.9734 79.7172 59.9734C79.7172 59.9734 81.6992 59.6708 82.8131 58.4119C83.927 57.1531 86.9781 51.7678 86.9781 51.7678C86.9781 51.7678 81.769 55.7173 80.6551 56.9762Z" fill="#B756C7"/>
</g>
<g style="mix-blend-mode:multiply">
<path d="M83.7605 59.3529C82.1824 60.1506 81.5793 61.8229 81.5793 61.8229C81.5793 61.8229 83.5349 62.2017 85.1131 61.404C86.6912 60.6062 91.8662 56.6229 91.8662 56.6229C91.8662 56.6229 85.3387 58.5551 83.7605 59.3529Z" fill="#B756C7"/>
</g>
<g style="mix-blend-mode:multiply">
<path d="M85.5701 62.5928C83.768 62.808 82.4777 64.1596 82.4777 64.1596C82.4777 64.1596 84.1091 65.1622 85.9112 64.947C87.7133 64.7318 94.2245 62.7567 94.2245 62.7567C94.2245 62.7567 87.3722 62.3776 85.5701 62.5928Z" fill="#B756C7"/>
</g>
<g style="mix-blend-mode:multiply">
<path d="M85.8082 66.2026C84.0565 65.8025 82.2753 66.6277 82.2753 66.6277C82.2753 66.6277 83.3343 68.1014 85.086 68.5015C86.8377 68.9016 93.6936 69.2356 93.6936 69.2356C93.6936 69.2356 87.5599 66.6027 85.8082 66.2026Z" fill="#B756C7"/>
</g>
<g style="mix-blend-mode:multiply">
<path d="M84.4388 69.6328C83.0042 68.6783 81.0034 68.8514 81.0034 68.8514C81.0034 68.8514 81.3286 70.5719 82.7632 71.5264C84.1979 72.4809 90.3549 75.073 90.3549 75.073C90.3549 75.073 85.8735 70.5873 84.4388 69.6328Z" fill="#B756C7"/>
</g>
<g style="mix-blend-mode:multiply">
<path d="M81.6703 72.3612C80.7711 70.9977 78.8553 70.4923 78.8553 70.4923C78.8553 70.4923 78.3972 72.1977 79.2964 73.5612C80.1955 74.9248 84.7162 79.3805 84.7162 79.3805C84.7162 79.3805 82.5694 73.7248 81.6703 72.3612Z" fill="#B756C7"/>
</g>
<g style="mix-blend-mode:multiply">
<path d="M77.9244 73.9724C77.6977 72.4074 76.1584 71.3005 76.1584 71.3005C76.1584 71.3005 74.9869 72.7311 75.2136 74.2962C75.4404 75.8612 77.6366 81.5021 77.6366 81.5021C77.6366 81.5021 78.1512 75.5375 77.9244 73.9724Z" fill="#B756C7"/>
</g>
<g style="mix-blend-mode:multiply">
<path d="M73.7712 74.2211C74.2513 72.6929 73.3231 71.1531 73.3231 71.1531C73.3231 71.1531 71.6163 72.091 71.1362 73.6193C70.6561 75.1476 70.1935 81.1149 70.1935 81.1149C70.1935 81.1149 73.2911 75.7494 73.7712 74.2211Z" fill="#B756C7"/>
</g>
<g style="mix-blend-mode:multiply">
<path d="M69.8425 73.0694C70.9564 71.8105 70.7804 70.0722 70.7804 70.0722C70.7804 70.0722 68.7984 70.3748 67.6844 71.6336C66.5705 72.8924 63.5194 78.2777 63.5194 78.2777C63.5194 78.2777 68.7286 74.3282 69.8425 73.0694Z" fill="#B756C7"/>
</g>
<g style="mix-blend-mode:multiply">
<path d="M66.737 70.6925C68.3152 69.8948 68.9182 68.2225 68.9182 68.2225C68.9182 68.2225 66.9626 67.8437 65.3845 68.6414C63.8064 69.4392 58.6313 73.4225 58.6313 73.4225C58.6313 73.4225 65.1589 71.4903 66.737 70.6925Z" fill="#B756C7"/>
</g>
<g style="mix-blend-mode:multiply">
<path d="M64.9274 67.4526C66.7295 67.2374 68.0199 65.8858 68.0199 65.8858C68.0199 65.8858 66.3884 64.8832 64.5863 65.0984C62.7842 65.3136 56.2731 67.2887 56.2731 67.2887C56.2731 67.2887 63.1253 67.6678 64.9274 67.4526Z" fill="#B756C7"/>
</g>
<g style="mix-blend-mode:multiply">
<path d="M64.6889 63.8427C66.4406 64.2427 68.2217 63.4176 68.2217 63.4176C68.2217 63.4176 67.1628 61.9439 65.4111 61.5438C63.6594 61.1437 56.8034 60.8097 56.8034 60.8097C56.8034 60.8097 62.9372 63.4426 64.6889 63.8427Z" fill="#B756C7"/>
</g>
<g style="mix-blend-mode:multiply">
<path d="M66.0582 60.4122C67.4929 61.3667 69.4937 61.1937 69.4937 61.1937C69.4937 61.1937 69.1685 59.4731 67.7338 58.5187C66.2992 57.5642 60.1422 54.9721 60.1422 54.9721C60.1422 54.9721 64.6236 59.4578 66.0582 60.4122Z" fill="#B756C7"/>
</g>
<g style="mix-blend-mode:multiply">
<path d="M68.8268 57.6838C69.726 59.0474 71.6418 59.5527 71.6418 59.5527C71.6418 59.5527 72.0999 57.8474 71.2007 56.4838C70.3016 55.1202 65.7808 50.6646 65.7808 50.6646C65.7808 50.6646 67.9277 56.3202 68.8268 57.6838Z" fill="#B756C7"/>
</g>
<g style="mix-blend-mode:multiply">
<path d="M72.5731 56.0731C72.7999 57.6381 74.3391 58.745 74.3391 58.745C74.3391 58.745 75.5107 57.3144 75.2839 55.7494C75.0571 54.1843 72.8609 48.5435 72.8609 48.5435C72.8609 48.5435 72.3463 54.5081 72.5731 56.0731Z" fill="#B756C7"/>
</g>
</g>
</svg>
