<svg width="152" height="201" viewBox="0 0 152 201" fill="none" xmlns="http://www.w3.org/2000/svg">
<path d="M84.9524 55C87.4118 69.6465 90.855 103.883 84.9524 123.655C77.5741 148.371 70.7633 184.072 80.4119 200" stroke="#0A3019" stroke-linecap="round"/>
<path d="M117.855 125.015C125.676 110.291 134.15 116.196 137.409 120.989C147.317 135.252 132.846 136.518 124.373 135.367C126.98 145.03 115.465 144.761 109.381 143.419C110.945 154.922 101.776 152.43 96.9964 149.746C98.0393 155.727 93.0855 156.456 90.4783 156.072C97.2572 164.354 87.6537 162.207 82.0047 160.098C75.7472 151.816 79.3974 150.896 82.0047 151.471C79.3974 136.288 86.5674 137.093 90.4783 139.393C89.4354 129.271 97.8655 130.958 102.211 133.067C104.297 123.865 113.509 123.865 117.855 125.015Z" fill="#F3AC46"/>
<mask id="mask0_81_2693" style="mask-type:alpha" maskUnits="userSpaceOnUse" x="81" y="115" width="60" height="45">
<path fill-rule="evenodd" clip-rule="evenodd" d="M125.796 115.94C125.516 115.882 125.235 116.035 125.169 116.282L120.74 132.843L133.389 135.242C133.67 135.296 133.948 135.137 134.008 134.889C134.069 134.641 133.889 134.396 133.608 134.343L122 132.141L126.184 116.494C126.25 116.246 126.077 115.998 125.796 115.94ZM129.022 115.934C128.738 115.892 128.469 116.061 128.421 116.311L125.731 130.39L139.256 132.942C139.537 132.995 139.814 132.836 139.875 132.588C139.935 132.34 139.755 132.095 139.474 132.042L126.926 129.674L129.45 116.464C129.498 116.214 129.306 115.976 129.022 115.934ZM132.225 116.504C131.938 116.489 131.691 116.683 131.674 116.936L131.002 127.074L139.863 129.481C140.138 129.555 140.43 129.419 140.515 129.176C140.6 128.933 140.445 128.676 140.17 128.601L132.091 126.407L132.715 116.99C132.732 116.736 132.513 116.519 132.225 116.504ZM135.014 118.804C134.726 118.804 134.493 119.01 134.493 119.264V124.261L139.287 124.895C139.572 124.933 139.838 124.759 139.88 124.508C139.923 124.257 139.727 124.022 139.442 123.985L135.536 123.468V119.264C135.536 119.01 135.302 118.804 135.014 118.804ZM114.735 124.572C114.458 124.504 114.17 124.647 114.093 124.892L110.341 136.807L123.545 140.977C123.817 141.063 124.115 140.938 124.212 140.699C124.309 140.46 124.168 140.196 123.897 140.111L111.605 136.229L115.098 125.138C115.175 124.893 115.013 124.64 114.735 124.572ZM117.918 124.558C117.632 124.528 117.372 124.707 117.337 124.959L115.984 134.751L124.186 137.523C124.455 137.613 124.757 137.495 124.86 137.257C124.963 137.02 124.828 136.754 124.559 136.663L117.118 134.149L118.372 125.071C118.407 124.818 118.204 124.589 117.918 124.558ZM108.836 125.14C108.554 125.088 108.278 125.248 108.219 125.496L104.869 139.692L118.973 144.425C119.242 144.515 119.543 144.396 119.646 144.158C119.748 143.921 119.613 143.655 119.344 143.564L106.071 139.111L109.24 125.684C109.299 125.435 109.118 125.191 108.836 125.14ZM102.275 132.61C101.989 132.579 101.729 132.759 101.694 133.011L100.343 142.735L109.172 146.142C109.436 146.243 109.744 146.137 109.859 145.904C109.974 145.671 109.854 145.4 109.59 145.298L101.472 142.166L102.729 133.123C102.764 132.871 102.56 132.641 102.275 132.61ZM98.3574 132.61C98.0711 132.582 97.8135 132.764 97.7819 133.017L96.1502 146.082L108.619 148.47C108.9 148.524 109.178 148.366 109.239 148.118C109.3 147.87 109.121 147.625 108.84 147.571L97.2897 145.358L98.8186 133.117C98.8501 132.865 98.6436 132.637 98.3574 132.61ZM93.111 137.208C92.8234 137.196 92.5789 137.392 92.5649 137.646L91.8881 149.936L107.394 150.78C107.681 150.796 107.928 150.603 107.946 150.349C107.964 150.096 107.745 149.877 107.458 149.862L92.9797 149.073L93.6066 137.69C93.6206 137.437 93.3987 137.221 93.111 137.208ZM87.8712 138.358C87.5832 138.358 87.3498 138.564 87.3498 138.818V154.468H96.3448C96.6328 154.468 96.8663 154.262 96.8663 154.008C96.8663 153.754 96.6328 153.548 96.3448 153.548H88.3927V138.818C88.3927 138.564 88.1592 138.358 87.8712 138.358ZM81.9219 151.017C81.6375 151.058 81.4442 151.294 81.4901 151.545L82.9269 159.408H91.7821C92.0701 159.408 92.3036 159.202 92.3036 158.948C92.3036 158.694 92.0701 158.488 91.7821 158.488H83.8151L82.5197 151.398C82.4738 151.147 82.2062 150.977 81.9219 151.017Z" fill="#2E7A48"/>
</mask>
<g mask="url(#mask0_81_2693)">
<g style="mix-blend-mode:multiply">
<path d="M117.855 125.015C125.677 110.292 134.15 116.196 137.41 120.989C147.317 135.252 132.847 136.518 124.373 135.367C126.98 145.03 115.465 144.761 109.381 143.419C110.946 154.922 101.777 152.43 96.9969 149.746C98.0398 155.727 93.086 156.456 90.4788 156.072C97.2577 164.354 87.6542 162.207 82.0052 160.098C75.7477 151.816 79.3979 150.896 82.0052 151.471C79.3979 136.288 86.5679 137.093 90.4788 139.393C89.4359 129.271 97.866 130.958 102.211 133.067C104.297 123.865 113.51 123.865 117.855 125.015Z" fill="#F3AC46"/>
</g>
</g>
<g style="mix-blend-mode:multiply">
<path fill-rule="evenodd" clip-rule="evenodd" d="M137.701 120.475C137.379 120.332 136.987 120.448 136.826 120.732C136.124 121.97 134.118 124.237 130.374 126.835C126.643 129.423 121.216 132.318 113.713 134.83C106.01 137.408 98.2686 143.189 91.7471 149.309C85.2135 155.44 79.8433 161.969 76.89 166.119C76.6985 166.388 76.7905 166.743 77.0954 166.912C77.4002 167.081 77.8026 167 77.994 166.731C80.907 162.637 86.2266 156.168 92.6968 150.097C99.179 144.014 106.755 138.388 114.175 135.905C121.794 133.355 127.338 130.404 131.18 127.739C135.007 125.083 137.173 122.692 137.992 121.246C138.153 120.962 138.023 120.617 137.701 120.475Z" fill="#F3AC46"/>
</g>
<path d="M98.3835 38.5523C100.996 30.0169 102.297 13.7955 96.4475 12.4233C90.5983 11.0511 82.4615 25.6687 79.8493 34.2042C77.2372 42.7396 76.409 57.4155 82.2583 58.7877C88.1075 60.16 95.7713 47.0878 98.3835 38.5523Z" fill="#F3AC46"/>
<path d="M77.1067 33.8534C72.0604 26.2008 59.8798 13.9251 54.6355 16.576C49.3912 19.227 55.4431 34.6007 60.4894 42.2534C65.5357 49.9061 76.8026 60.7962 82.0469 58.1452C87.2912 55.4943 82.153 41.5061 77.1067 33.8534Z" fill="#F3AC46"/>
<path d="M105.37 72.9061C115.119 75.1932 133.646 76.3323 135.213 71.211C136.78 66.0898 120.085 58.9656 110.336 56.6786C100.587 54.3915 83.8254 53.6664 82.2581 58.7877C80.6908 63.909 95.6211 70.619 105.37 72.9061Z" fill="#F3AC46"/>
<path d="M109.854 54.0701C118.595 49.6518 132.615 38.9871 129.587 34.3954C126.56 29.8038 109.001 35.1026 100.26 39.5209C91.5197 43.9391 79.0817 53.8038 82.1095 58.3954C85.1373 62.987 101.114 58.4884 109.854 54.0701Z" fill="#F3AC46"/>
<path d="M66.1331 79.0231C63.5209 87.5586 62.2199 103.78 68.0691 105.152C73.9183 106.524 82.0551 91.9067 84.6673 83.3713C87.2794 74.8358 88.1076 60.16 82.2583 58.7877C76.4091 57.4155 68.7453 70.4876 66.1331 79.0231Z" fill="#F3AC46"/>
<path d="M86.7639 82.742C91.8102 90.3947 103.991 102.67 109.235 100.019C114.479 97.3685 108.427 81.9947 103.381 74.342C98.3349 66.6894 87.068 55.7993 81.8237 58.4502C76.5794 61.1012 81.7176 75.0893 86.7639 82.742Z" fill="#F3AC46"/>
<path d="M59.1468 44.6693C49.3981 42.3823 30.871 41.2431 29.3037 46.3644C27.7364 51.4857 44.4319 58.6098 54.1806 60.8969C63.9293 63.184 80.6912 63.909 82.2585 58.7877C83.8258 53.6665 68.8955 46.9564 59.1468 44.6693Z" fill="#F3AC46"/>
<path d="M54.0164 62.5256C45.276 66.9439 31.2553 77.6086 34.2831 82.2002C37.3109 86.7918 54.87 81.4931 63.6104 77.0748C72.3509 72.6566 84.7889 62.7919 81.7611 58.2003C78.7333 53.6087 62.7569 58.1073 54.0164 62.5256Z" fill="#F3AC46"/>
<g style="mix-blend-mode:multiply">
<ellipse cx="12.265" cy="10.9334" rx="12.265" ry="10.9334" transform="matrix(0.973567 0.228401 -0.292639 0.956223 73.5171 45.5316)" fill="#F3AC46"/>
<g style="mix-blend-mode:multiply">
<path d="M91.1215 63.2333C89.3982 62.829 88.6769 60.2934 88.6769 60.2934C88.6769 60.2934 90.7496 58.4133 92.4728 58.8176C94.1961 59.2219 99.9098 62.9287 99.9098 62.9287C99.9098 62.9287 92.8447 63.6375 91.1215 63.2333Z" fill="#F3AC46"/>
</g>
<g style="mix-blend-mode:multiply">
<path d="M84.9351 67.4185C84.0431 66.0657 85.5809 63.8262 85.5809 63.8262C85.5809 63.8262 88.5648 63.78 89.4569 65.1328C90.3489 66.4855 91.3954 72.644 91.3954 72.644C91.3954 72.644 85.8272 68.7712 84.9351 67.4185Z" fill="#F3AC46"/>
</g>
<g style="mix-blend-mode:multiply">
<path d="M77.1807 66.548C77.6425 65.0392 80.5385 64.4076 80.5385 64.4076C80.5385 64.4076 82.6858 66.2223 82.2241 67.7311C81.7623 69.2399 77.5286 74.2425 77.5286 74.2425C77.5286 74.2425 76.719 68.0568 77.1807 66.548Z" fill="#F3AC46"/>
</g>
<g style="mix-blend-mode:multiply">
<path d="M72.4007 61.1315C73.9458 60.3505 76.5036 61.6968 76.5036 61.6968C76.5036 61.6968 76.5564 64.3094 75.0114 65.0904C73.4663 65.8715 66.4325 66.7877 66.4325 66.7877C66.4325 66.7877 70.8557 61.9125 72.4007 61.1315Z" fill="#F3AC46"/>
</g>
<g style="mix-blend-mode:multiply">
<path d="M73.3951 54.3419C75.1184 54.7462 75.8397 57.2818 75.8397 57.2818C75.8397 57.2818 73.767 59.1619 72.0438 58.7576C70.3205 58.3533 64.6068 54.6465 64.6068 54.6465C64.6068 54.6465 71.6719 53.9377 73.3951 54.3419Z" fill="#F3AC46"/>
</g>
<g style="mix-blend-mode:multiply">
<path d="M79.5815 50.1569C80.4735 51.5096 78.9358 53.7491 78.9358 53.7491C78.9358 53.7491 75.9518 53.7953 75.0597 52.4426C74.1677 51.0898 73.1212 44.9314 73.1212 44.9314C73.1212 44.9314 78.6894 48.8041 79.5815 50.1569Z" fill="#F3AC46"/>
</g>
<g style="mix-blend-mode:multiply">
<path d="M87.3359 51.0276C86.8741 52.5364 83.9781 53.1679 83.9781 53.1679C83.9781 53.1679 81.8308 51.3532 82.2925 49.8444C82.7543 48.3356 86.988 43.333 86.988 43.333C86.988 43.333 87.7976 49.5188 87.3359 51.0276Z" fill="#F3AC46"/>
</g>
<g style="mix-blend-mode:multiply">
<path d="M92.1159 56.4438C90.5708 57.2249 88.013 55.8785 88.013 55.8785C88.013 55.8785 87.9602 53.2659 89.5052 52.4849C91.0503 51.7039 98.0841 50.7876 98.0841 50.7876C98.0841 50.7876 93.6609 55.6628 92.1159 56.4438Z" fill="#F3AC46"/>
</g>
</g>
<path d="M57.0586 104.48C52.6958 103.153 43.7521 98 42.8795 88C47.6059 89.2111 57.0586 94.2027 57.0586 104.48Z" fill="#F3AC46"/>
<path d="M49.4237 114.217C45.0609 114.773 36.1172 114.154 35.2446 107.231C38.1532 106.279 45.0609 106.344 49.4237 114.217Z" fill="#F3AC46"/>
<path d="M66.1823 107.231C63.6864 105.628 59.7853 100.308 64.1481 91.8462C66.595 95.0513 70.4274 102.615 66.1823 107.231Z" fill="#F3AC46"/>
<path d="M50.5144 123.577C50.3286 127.263 52.5169 134.538 62.7567 134.154C61.4223 127.615 54.0392 124.378 50.5144 123.577Z" fill="#F3AC46"/>
<path d="M83.7807 115.404C81.0539 115.404 72.1201 116.942 76.5755 130.788C84.8714 121.173 83.7807 116.365 83.7807 115.404Z" fill="#F3AC46"/>
<path d="M83.7807 136.558C85.7653 139.763 88.1575 147.423 81.8495 152.423C77.2506 146.654 81.2207 139.442 83.7807 136.558Z" fill="#F3AC46"/>
<path d="M57.0586 141.365C61.2396 141.667 69.6016 145.258 69.6016 157.203C60.4398 156.796 57.4222 146.475 57.0586 141.365Z" fill="#F3AC46"/>
<path fill-rule="evenodd" clip-rule="evenodd" d="M49.7448 94.9686C49.898 94.8601 50.1228 94.8808 50.2468 95.015C53.9106 98.9791 59.3588 106.468 64.4553 116.607C65.0174 115.528 65.6118 113.63 65.8088 110.913C66.045 107.656 65.7086 103.242 64.0794 97.6932C64.0303 97.5261 64.1453 97.3557 64.3362 97.3127C64.5271 97.2698 64.7216 97.3704 64.7707 97.5376C66.4167 103.143 66.7627 107.623 66.5212 110.953C66.2912 114.125 65.5259 116.273 64.8251 117.349C67.7824 123.328 70.6042 130.202 72.8679 137.798C73.5699 136.942 74.5155 135.393 75.416 133.08C76.5139 130.258 77.5372 126.319 77.9715 121.15C77.986 120.978 78.157 120.849 78.3536 120.861C78.5502 120.874 78.6979 121.024 78.6834 121.196C78.2451 126.412 77.211 130.405 76.0917 133.281C75.0343 135.998 73.8938 137.736 73.0932 138.563C75.1933 145.776 76.784 153.628 77.5098 161.974C79.7382 158.434 83.127 150.736 82.3345 142.353C82.3183 142.181 82.4644 142.03 82.6608 142.016C82.8573 142.001 83.0297 142.129 83.0459 142.301C83.9265 151.617 79.7494 160.081 77.5391 163.166L77.3411 163.442L77.0343 163.257C73.5568 161.16 65.6121 155.226 61.6473 148.235C61.5596 148.081 61.6317 147.893 61.8082 147.816C61.9848 147.74 62.199 147.803 62.2867 147.957C65.9586 154.431 73.1495 160.018 76.8272 162.363C76.1188 153.927 74.5204 145.995 72.4005 138.714C70.2215 137.974 66.8216 136.622 63.466 134.892C60.0286 133.12 56.5983 130.93 54.5912 128.571C54.4735 128.433 54.5061 128.237 54.6642 128.134C54.8223 128.031 55.0459 128.06 55.1637 128.198C57.0831 130.454 60.412 132.592 63.8282 134.353C66.9103 135.942 70.0314 137.209 72.18 137.966C69.9291 130.41 67.1233 123.572 64.1826 117.623C61.819 117.444 57.9905 116.912 53.8867 115.872C49.6594 114.801 45.1132 113.186 41.574 110.846C41.4167 110.742 41.3854 110.546 41.5042 110.408C41.623 110.27 41.8469 110.243 42.0042 110.347C45.4454 112.622 49.8988 114.211 54.0851 115.272C57.9254 116.245 61.5184 116.767 63.857 116.969C58.765 106.814 53.3217 99.3354 49.6919 95.4081C49.5678 95.274 49.5915 95.0772 49.7448 94.9686Z" fill="#0A3019"/>
</svg>
