<svg width="138" height="201" viewBox="0 0 138 201" fill="none" xmlns="http://www.w3.org/2000/svg">
<path d="M71.6306 55C74.09 69.6465 77.5332 103.883 71.6306 123.655C64.2523 148.371 57.4415 184.072 67.0901 200" stroke="#0A3019" stroke-linecap="round"/>
<path fill-rule="evenodd" clip-rule="evenodd" d="M17.3192 127.055C17.1962 127.13 17.1659 127.278 17.2515 127.386C22.3127 133.754 28.3955 137.411 33.6061 139.38C37.4469 140.831 40.8206 141.368 42.9688 141.395C43.5316 142.221 44.1233 143.062 44.7451 143.916C49.3532 150.244 55.6098 157.291 63.9353 164.442C64.0422 164.534 64.2139 164.533 64.3188 164.439C64.4237 164.345 64.4221 164.195 64.3152 164.103C56.0703 157.021 49.8648 150.045 45.2863 143.776C46.1241 142.338 47.089 140.379 47.9924 138.07C48.9416 135.644 49.8241 132.83 50.4196 129.824C50.6187 128.819 50.7858 127.793 50.9126 126.753C51.4827 122.074 51.238 117.103 49.416 112.526C49.3667 112.402 49.2121 112.337 49.0706 112.38C48.9291 112.423 48.8544 112.558 48.9037 112.682C50.6914 117.173 50.9377 122.069 50.3731 126.702C50.2477 127.732 50.0823 128.748 49.8851 129.743C49.2951 132.72 48.4204 135.511 47.4792 137.916C46.6349 140.074 45.7382 141.919 44.9475 143.309C44.3929 142.54 43.863 141.783 43.3569 141.037C37.4395 132.322 31.9648 119.269 31.3167 115.671C31.2933 115.541 31.1544 115.453 31.0065 115.473C30.8585 115.494 30.7575 115.615 30.7808 115.745C31.4334 119.368 36.8743 132.331 42.6419 140.912C40.5635 140.837 37.4091 140.299 33.821 138.944C28.6945 137.006 22.6951 133.404 17.6968 127.114C17.6112 127.007 17.4422 126.98 17.3192 127.055Z" fill="#0A3019"/>
<path fill-rule="evenodd" clip-rule="evenodd" d="M19.5251 121.376C19.4626 121.466 19.495 121.583 19.5973 121.638C20.6803 122.613 20.6741 122.692 22.719 124.96C24.4561 126.886 26.2599 129.132 27.9391 131.351C25.9906 129.877 23.437 128.004 21.0297 126.358C19.562 125.354 20.5204 125.992 19.3277 125.296C18.7314 124.948 18.1882 124.655 17.7205 124.436C17.2572 124.219 16.8521 124.066 16.5364 124.012C16.4188 123.991 16.3047 124.058 16.2814 124.161C16.2582 124.264 16.3346 124.364 16.4522 124.384C16.7022 124.428 17.0605 124.557 17.5157 124.771C17.9666 124.982 18.497 125.268 19.087 125.612C20.2666 126.3 19.2985 125.656 20.7625 126.657C23.6791 128.652 26.8135 130.982 28.8184 132.526C30.6989 135.066 32.3662 137.486 33.5253 139.256C33.5849 139.347 33.7175 139.379 33.8215 139.326C33.9254 139.274 33.9614 139.158 33.9018 139.067C32.7355 137.286 31.0578 134.851 29.1662 132.298C27.249 129.71 25.1101 126.998 23.0596 124.724C21.0152 122.457 21.1501 122.375 19.8233 121.313C19.721 121.259 19.5875 121.287 19.5251 121.376ZM52.6825 110.633C52.5626 110.633 52.4659 110.719 52.4664 110.824C52.4742 112.357 53.0484 119.261 53.338 122.564C52.3778 124.33 51.2808 125.756 50.4758 126.606C50.3993 126.687 50.4121 126.807 50.5043 126.874C50.5966 126.941 50.7334 126.93 50.8099 126.849C51.646 125.966 52.7741 124.496 53.7549 122.681C55.19 120.026 56.3221 116.61 55.7364 113.199C55.7185 113.095 55.608 113.024 55.4895 113.04C55.371 113.055 55.2894 113.152 55.3072 113.256C55.8276 116.286 54.9504 119.341 53.7107 121.846C53.4083 118.35 52.9076 112.239 52.9004 110.822C52.8999 110.717 52.8023 110.633 52.6825 110.633ZM46.3711 117.143C46.2541 117.12 46.1382 117.185 46.1122 117.287C45.9122 118.077 45.9609 119.08 46.1609 120.171C46.3616 121.267 46.7176 122.468 47.1462 123.66C48.0033 126.045 49.1559 128.413 49.9569 129.866C50.009 129.961 50.1387 130 50.2467 129.955C50.3546 129.909 50.3999 129.796 50.3478 129.701C49.5539 128.261 48.4098 125.91 47.5602 123.546C47.1354 122.364 46.7856 121.182 46.5894 120.111C46.3926 119.037 46.3534 118.09 46.5359 117.37C46.5619 117.267 46.4881 117.166 46.3711 117.143ZM41.8451 122.39C41.7382 122.437 41.6955 122.552 41.7498 122.645C43.5474 125.747 44.1212 129.467 44.1019 132.868C44.0826 136.268 43.4708 139.332 42.9144 141.108C42.8827 141.21 42.9507 141.314 43.0663 141.342C43.1818 141.37 43.3012 141.31 43.3329 141.209C43.8991 139.401 44.5164 136.304 44.5359 132.87C44.5554 129.437 43.9778 125.65 42.1368 122.473C42.0826 122.38 41.952 122.342 41.8451 122.39ZM25.0155 137.568C25.0024 137.672 25.0884 137.766 25.2076 137.778C27.1608 137.965 29.4231 138.953 31.4736 140.133C33.2176 141.136 34.7881 142.266 35.8548 143.123C33.0808 142.731 29.9585 142.084 26.7714 141.057C26.6589 141.021 26.5342 141.072 26.4928 141.17C26.4514 141.269 26.5091 141.378 26.6215 141.414C30.1077 142.537 33.5148 143.209 36.4795 143.592C40.3083 144.087 43.4068 144.101 44.993 143.978C45.1124 143.968 45.2006 143.876 45.1899 143.772C45.1793 143.667 45.074 143.59 44.9546 143.599C43.4174 143.719 40.3813 143.708 36.612 143.225C35.5519 142.329 33.7495 140.987 31.7119 139.815C29.6476 138.628 27.314 137.597 25.2548 137.4C25.1357 137.388 25.0285 137.464 25.0155 137.568ZM56.352 125.062C56.256 124.999 56.12 125.016 56.0482 125.1C55.7795 125.414 55.4708 126.02 55.1499 126.77C54.8255 127.527 54.4792 128.454 54.1401 129.429C53.4713 131.352 52.8276 133.47 52.4323 134.856C50.5614 136.28 48.7457 137.309 47.6341 137.825C47.5282 137.875 47.4879 137.99 47.544 138.082C47.6002 138.175 47.7316 138.21 47.8374 138.161C48.9899 137.626 50.8561 136.566 52.7691 135.103C54.7549 133.586 56.8019 131.626 58.1509 129.36C58.2063 129.267 58.165 129.152 58.0588 129.104C57.9525 129.055 57.8214 129.091 57.766 129.184C56.5681 131.197 54.7983 132.972 53.0101 134.405C53.4061 133.048 53.9713 131.218 54.5553 129.54C54.8931 128.568 55.2364 127.65 55.5562 126.903C55.8794 126.149 56.1694 125.592 56.3957 125.328C56.4675 125.244 56.4479 125.124 56.352 125.062Z" fill="#0A3019"/>
<ellipse cx="1.31607" cy="1.23181" rx="1.31607" ry="1.23181" transform="matrix(-0.892456 0.451134 0.550503 0.834833 53.1328 109.225)" fill="#FB5D66"/>
<ellipse cx="1.31607" cy="1.23181" rx="1.31607" ry="1.23181" transform="matrix(-0.892456 0.451134 0.550503 0.834833 46.9722 115.081)" fill="#FB5D66"/>
<ellipse cx="1.31607" cy="1.23181" rx="1.31607" ry="1.23181" transform="matrix(-0.892456 0.451134 0.550503 0.834833 42.4917 120.637)" fill="#FB5D66"/>
<ellipse cx="1.31607" cy="1.23181" rx="1.31607" ry="1.23181" transform="matrix(-0.892456 0.451134 0.550503 0.834833 25.5449 135.785)" fill="#FB5D66"/>
<ellipse cx="1.31607" cy="1.23181" rx="1.31607" ry="1.23181" transform="matrix(-0.892456 0.451134 0.550503 0.834833 26.7754 139.551)" fill="#FB5D66"/>
<ellipse cx="1.31607" cy="1.23181" rx="1.31607" ry="1.23181" transform="matrix(-0.892456 0.451134 0.550503 0.834833 56.3008 123.528)" fill="#FB5D66"/>
<ellipse cx="1.31607" cy="1.23181" rx="1.31607" ry="1.23181" transform="matrix(-0.892456 0.451134 0.550503 0.834833 58.272 127.468)" fill="#FB5D66"/>
<ellipse cx="1.57928" cy="1.47817" rx="1.57928" ry="1.47817" transform="matrix(-0.892456 0.451134 0.550503 0.834833 56.1694 110.98)" fill="#FB5D66"/>
<ellipse cx="1.31607" cy="1.23181" rx="1.31607" ry="1.23181" transform="matrix(-0.892456 0.451134 0.550503 0.834833 21.0933 120.484)" fill="#FB5D66"/>
<ellipse cx="1.31607" cy="1.23181" rx="1.31607" ry="1.23181" transform="matrix(-0.892456 0.451134 0.550503 0.834833 17.1362 123.033)" fill="#FB5D66"/>
<path d="M25.5999 61.9101C22.9147 98.893 58.0461 96.9914 75.9474 91.4178C93.8485 99.2865 106.164 94.3458 112.184 88.467C124.057 76.8715 119.215 66.5665 116.225 56.9922C126.295 45.1891 123.903 33.3145 121.819 26.5009C117.661 12.9015 100.803 11.2017 89.3734 12.7307C79.9294 6.36548 79.3037 3.49255 65.8777 3.49255C51.3328 3.49253 47.9149 10.1551 45.7389 15.6814C27.8285 18.0775 20.4123 22.5665 17.1204 32.4024C11.195 50.107 19.7 54.5005 25.5999 61.9101Z" fill="#CDCDCD"/>
<path d="M37.8344 59.8894C35.4543 93.1023 66.5948 91.3946 82.4626 86.3891C98.3302 93.4556 109.247 89.0187 114.583 83.7391C125.107 73.3257 120.815 64.0711 118.165 55.4728C127.091 44.8729 124.97 34.2089 123.124 28.0898C119.438 15.8768 102.442 9.98824 92.3116 11.3614C84.4801 7.42714 75.5298 7.42703 73.537 7.427H73.5368C60.6442 7.42698 57.6145 13.4103 55.6857 18.3733C39.8099 20.5251 33.2361 24.5566 30.3182 33.3898C25.0659 49.2896 32.6048 53.2351 37.8344 59.8894Z" fill="white"/>
<path fill-rule="evenodd" clip-rule="evenodd" d="M36.6043 80.4846L108.375 15.6193L109.979 16.9909L38.2083 81.8563L36.6043 80.4846Z" fill="#9B9B9B"/>
<path fill-rule="evenodd" clip-rule="evenodd" d="M28.508 71.0554L116.93 24.7304L118.075 26.4203L29.6536 72.7452L28.508 71.0554Z" fill="#9B9B9B"/>
<path fill-rule="evenodd" clip-rule="evenodd" d="M23.463 60.1051L122.51 35.4775L123.119 37.3704L24.072 61.998L23.463 60.1051Z" fill="#9B9B9B"/>
<path fill-rule="evenodd" clip-rule="evenodd" d="M21.8145 48.3801L121.829 47.1636L121.86 49.1306L21.8454 50.3471L21.8145 48.3801Z" fill="#9B9B9B"/>
<path fill-rule="evenodd" clip-rule="evenodd" d="M23.6738 36.6795L117.103 57.4741L116.554 59.3812L23.1247 38.5865L23.6738 36.6795Z" fill="#9B9B9B"/>
<path fill-rule="evenodd" clip-rule="evenodd" d="M28.9144 25.8007L118.76 69.9573L117.668 71.6744L27.8225 27.5178L28.9144 25.8007Z" fill="#9B9B9B"/>
<path fill-rule="evenodd" clip-rule="evenodd" d="M37.1791 16.4849L110.963 79.5798L109.403 80.9899L35.6188 17.895L37.1791 16.4849Z" fill="#9B9B9B"/>
<path fill-rule="evenodd" clip-rule="evenodd" d="M47.9047 9.36708L100.599 87.1004L98.6771 88.1075L45.9824 10.3741L47.9047 9.36708Z" fill="#9B9B9B"/>
<path fill-rule="evenodd" clip-rule="evenodd" d="M60.3609 4.93247L88.3748 92.0069L86.2216 92.5423L58.2077 5.46785L60.3609 4.93247Z" fill="#9B9B9B"/>
<path fill-rule="evenodd" clip-rule="evenodd" d="M73.6989 3.48321L75.081 91.2987L72.8435 91.326L71.4614 3.51042L73.6989 3.48321Z" fill="#9B9B9B"/>
<path fill-rule="evenodd" clip-rule="evenodd" d="M87.0085 5.11795L61.7456 92.8404L59.5764 92.3576L84.8393 4.63515L87.0085 5.11795Z" fill="#9B9B9B"/>
<path fill-rule="evenodd" clip-rule="evenodd" d="M99.3836 9.7253L49.1555 88.7105L47.2023 87.7506L97.4305 8.76538L99.3836 9.7253Z" fill="#9B9B9B"/>
<path fill-rule="evenodd" clip-rule="evenodd" d="M109.979 16.9909L38.2083 81.8563L36.6043 80.4846L108.375 15.6193L109.979 16.9909Z" fill="#9B9B9B"/>
<path fill-rule="evenodd" clip-rule="evenodd" d="M118.075 26.4203L29.6536 72.7452L28.508 71.0554L116.93 24.7304L118.075 26.4203Z" fill="#9B9B9B"/>
<path fill-rule="evenodd" clip-rule="evenodd" d="M123.119 37.3704L24.072 61.998L23.463 60.1051L122.51 35.4775L123.119 37.3704Z" fill="#9B9B9B"/>
<path fill-rule="evenodd" clip-rule="evenodd" d="M119.076 49.1645L21.8466 50.3472L21.8157 48.3802L119.045 47.1975L119.076 49.1645Z" fill="#9B9B9B"/>
<path fill-rule="evenodd" clip-rule="evenodd" d="M114.762 59.0658L14.8765 36.8342L15.4709 34.77L115.356 57.0015L114.762 59.0658Z" fill="#9B9B9B"/>
<path fill-rule="evenodd" clip-rule="evenodd" d="M117.669 71.6746L27.8236 27.518L28.9155 25.801L118.761 69.9576L117.669 71.6746Z" fill="#9B9B9B"/>
<path fill-rule="evenodd" clip-rule="evenodd" d="M109.403 80.9899L35.6188 17.895L37.1791 16.4849L110.963 79.5798L109.403 80.9899Z" fill="#9B9B9B"/>
<path fill-rule="evenodd" clip-rule="evenodd" d="M98.6781 88.108L45.9834 10.3746L47.9056 9.36755L100.6 87.1009L98.6781 88.108Z" fill="#9B9B9B"/>
<path fill-rule="evenodd" clip-rule="evenodd" d="M86.2216 92.5423L58.2077 5.46785L60.3609 4.93247L88.3748 92.0069L86.2216 92.5423Z" fill="#9B9B9B"/>
<path fill-rule="evenodd" clip-rule="evenodd" d="M72.822 90.058L71.4599 3.51037L73.6973 3.48315L75.0594 90.0307L72.822 90.058Z" fill="#9B9B9B"/>
<path fill-rule="evenodd" clip-rule="evenodd" d="M59.5753 92.3575L84.8382 4.63506L87.0075 5.11787L61.7445 92.8403L59.5753 92.3575Z" fill="#9B9B9B"/>
<path fill-rule="evenodd" clip-rule="evenodd" d="M47.2013 87.7504L97.4295 8.76516L99.3826 9.72508L49.1545 88.7103L47.2013 87.7504Z" fill="#9B9B9B"/>
<path d="M96.7868 49.7213C96.7868 62.2154 85.2657 72.3438 71.0537 72.3438C56.8416 72.3438 44.2017 62.2154 44.2017 49.7213C44.2017 37.2272 56.8416 27.0988 71.0537 27.0988C85.2657 27.0988 96.7868 37.2272 96.7868 49.7213Z" fill="#9B9B9B"/>
<g style="mix-blend-mode:multiply">
<path d="M25.5999 61.9101C22.9147 98.893 58.0461 96.9914 75.9474 91.4178C93.8485 99.2865 106.164 94.3458 112.184 88.467C124.057 76.8715 119.215 66.5665 116.225 56.9922C126.295 45.1891 123.903 33.3145 121.819 26.5009C117.661 12.9015 100.803 11.2017 89.3734 12.7307C79.9294 6.36548 79.3037 3.49255 65.8777 3.49255C51.3328 3.49253 47.9149 10.1551 45.7389 15.6814C27.8285 18.0775 20.4123 22.5665 17.1204 32.4024C11.195 50.107 19.7 54.5005 25.5999 61.9101Z" fill="#FB5D66"/>
<path d="M37.8344 59.8894C35.4543 93.1023 66.5948 91.3946 82.4626 86.3891C98.3302 93.4556 109.247 89.0187 114.583 83.7391C125.107 73.3257 120.815 64.0711 118.165 55.4728C127.091 44.8729 124.97 34.2089 123.124 28.0898C119.438 15.8768 102.442 9.98824 92.3116 11.3614C84.4801 7.42714 75.5298 7.42703 73.537 7.427H73.5368C60.6442 7.42698 57.6145 13.4103 55.6857 18.3733C39.8099 20.5251 33.2361 24.5566 30.3182 33.3898C25.0659 49.2896 32.6048 53.2351 37.8344 59.8894Z" fill="#FB5D66"/>
<path fill-rule="evenodd" clip-rule="evenodd" d="M36.6043 80.4846L108.375 15.6193L109.979 16.9909L38.2083 81.8563L36.6043 80.4846Z" fill="#FB5D66"/>
<path fill-rule="evenodd" clip-rule="evenodd" d="M28.508 71.0554L116.93 24.7304L118.075 26.4203L29.6536 72.7452L28.508 71.0554Z" fill="#FB5D66"/>
<path fill-rule="evenodd" clip-rule="evenodd" d="M23.463 60.1051L122.51 35.4775L123.119 37.3704L24.072 61.998L23.463 60.1051Z" fill="#FB5D66"/>
<path fill-rule="evenodd" clip-rule="evenodd" d="M21.8145 48.3801L121.829 47.1636L121.86 49.1306L21.8454 50.3471L21.8145 48.3801Z" fill="#FB5D66"/>
<path fill-rule="evenodd" clip-rule="evenodd" d="M23.6738 36.6795L117.103 57.4741L116.554 59.3812L23.1247 38.5865L23.6738 36.6795Z" fill="#FB5D66"/>
<path fill-rule="evenodd" clip-rule="evenodd" d="M28.9144 25.8007L118.76 69.9573L117.668 71.6744L27.8225 27.5178L28.9144 25.8007Z" fill="#FB5D66"/>
<path fill-rule="evenodd" clip-rule="evenodd" d="M37.1791 16.4849L110.963 79.5798L109.403 80.9899L35.6188 17.895L37.1791 16.4849Z" fill="#FB5D66"/>
<path fill-rule="evenodd" clip-rule="evenodd" d="M47.9047 9.36708L100.599 87.1004L98.6771 88.1075L45.9824 10.3741L47.9047 9.36708Z" fill="#FB5D66"/>
<path fill-rule="evenodd" clip-rule="evenodd" d="M60.3609 4.93247L88.3748 92.0069L86.2216 92.5423L58.2077 5.46785L60.3609 4.93247Z" fill="#FB5D66"/>
<path fill-rule="evenodd" clip-rule="evenodd" d="M73.6989 3.48321L75.081 91.2987L72.8435 91.326L71.4614 3.51042L73.6989 3.48321Z" fill="#FB5D66"/>
<path fill-rule="evenodd" clip-rule="evenodd" d="M87.0085 5.11795L61.7456 92.8404L59.5764 92.3576L84.8393 4.63515L87.0085 5.11795Z" fill="#FB5D66"/>
<path fill-rule="evenodd" clip-rule="evenodd" d="M99.3836 9.7253L49.1555 88.7105L47.2023 87.7506L97.4305 8.76538L99.3836 9.7253Z" fill="#FB5D66"/>
<path fill-rule="evenodd" clip-rule="evenodd" d="M109.979 16.9909L38.2083 81.8563L36.6043 80.4846L108.375 15.6193L109.979 16.9909Z" fill="#FB5D66"/>
<path fill-rule="evenodd" clip-rule="evenodd" d="M118.075 26.4203L29.6536 72.7452L28.508 71.0554L116.93 24.7304L118.075 26.4203Z" fill="#FB5D66"/>
<path fill-rule="evenodd" clip-rule="evenodd" d="M123.119 37.3704L24.072 61.998L23.463 60.1051L122.51 35.4775L123.119 37.3704Z" fill="#FB5D66"/>
<path fill-rule="evenodd" clip-rule="evenodd" d="M119.076 49.1645L21.8466 50.3472L21.8157 48.3802L119.045 47.1975L119.076 49.1645Z" fill="#FB5D66"/>
<path fill-rule="evenodd" clip-rule="evenodd" d="M114.762 59.0658L14.8765 36.8342L15.4709 34.77L115.356 57.0015L114.762 59.0658Z" fill="#FB5D66"/>
<path fill-rule="evenodd" clip-rule="evenodd" d="M117.669 71.6746L27.8236 27.518L28.9155 25.801L118.761 69.9576L117.669 71.6746Z" fill="#FB5D66"/>
<path fill-rule="evenodd" clip-rule="evenodd" d="M109.403 80.9899L35.6188 17.895L37.1791 16.4849L110.963 79.5798L109.403 80.9899Z" fill="#FB5D66"/>
<path fill-rule="evenodd" clip-rule="evenodd" d="M98.6781 88.108L45.9834 10.3746L47.9056 9.36755L100.6 87.1009L98.6781 88.108Z" fill="#FB5D66"/>
<path fill-rule="evenodd" clip-rule="evenodd" d="M86.2216 92.5423L58.2077 5.46785L60.3609 4.93247L88.3748 92.0069L86.2216 92.5423Z" fill="#FB5D66"/>
<path fill-rule="evenodd" clip-rule="evenodd" d="M72.822 90.058L71.4599 3.51037L73.6973 3.48315L75.0594 90.0307L72.822 90.058Z" fill="#FB5D66"/>
<path fill-rule="evenodd" clip-rule="evenodd" d="M59.5753 92.3575L84.8382 4.63506L87.0075 5.11787L61.7445 92.8403L59.5753 92.3575Z" fill="#FB5D66"/>
<path fill-rule="evenodd" clip-rule="evenodd" d="M47.2013 87.7504L97.4295 8.76516L99.3826 9.72508L49.1545 88.7103L47.2013 87.7504Z" fill="#FB5D66"/>
<path d="M96.7868 49.7213C96.7868 62.2154 85.2657 72.3438 71.0537 72.3438C56.8416 72.3438 44.2017 62.2154 44.2017 49.7213C44.2017 37.2272 56.8416 27.0988 71.0537 27.0988C85.2657 27.0988 96.7868 37.2272 96.7868 49.7213Z" fill="#FB5D66"/>
</g>
<g style="mix-blend-mode:soft-light">
<path d="M25.5999 61.9101C22.9147 98.893 58.0461 96.9914 75.9474 91.4178C93.8485 99.2865 106.164 94.3458 112.184 88.467C124.057 76.8715 119.215 66.5665 116.225 56.9922C126.295 45.1891 123.903 33.3145 121.819 26.5009C117.661 12.9015 100.803 11.2017 89.3734 12.7307C79.9294 6.36548 79.3037 3.49255 65.8777 3.49255C51.3328 3.49253 47.9149 10.1551 45.7389 15.6814C27.8285 18.0775 20.4123 22.5665 17.1204 32.4024C11.195 50.107 19.7 54.5005 25.5999 61.9101Z" fill="#FB5D66"/>
<path d="M37.8344 59.8894C35.4543 93.1023 66.5948 91.3946 82.4626 86.3891C98.3302 93.4556 109.247 89.0187 114.583 83.7391C125.107 73.3257 120.815 64.0711 118.165 55.4728C127.091 44.8729 124.97 34.2089 123.124 28.0898C119.438 15.8768 102.442 9.98824 92.3116 11.3614C84.4801 7.42714 75.5298 7.42703 73.537 7.427H73.5368C60.6442 7.42698 57.6145 13.4103 55.6857 18.3733C39.8099 20.5251 33.2361 24.5566 30.3182 33.3898C25.0659 49.2896 32.6048 53.2351 37.8344 59.8894Z" fill="#FB5D66"/>
<path fill-rule="evenodd" clip-rule="evenodd" d="M36.6043 80.4846L108.375 15.6193L109.979 16.9909L38.2083 81.8563L36.6043 80.4846Z" fill="#FB5D66"/>
<path fill-rule="evenodd" clip-rule="evenodd" d="M28.508 71.0554L116.93 24.7304L118.075 26.4203L29.6536 72.7452L28.508 71.0554Z" fill="#FB5D66"/>
<path fill-rule="evenodd" clip-rule="evenodd" d="M23.463 60.1051L122.51 35.4775L123.119 37.3704L24.072 61.998L23.463 60.1051Z" fill="#FB5D66"/>
<path fill-rule="evenodd" clip-rule="evenodd" d="M21.8145 48.3801L121.829 47.1636L121.86 49.1306L21.8454 50.3471L21.8145 48.3801Z" fill="#FB5D66"/>
<path fill-rule="evenodd" clip-rule="evenodd" d="M23.6738 36.6795L117.103 57.4741L116.554 59.3812L23.1247 38.5865L23.6738 36.6795Z" fill="#FB5D66"/>
<path fill-rule="evenodd" clip-rule="evenodd" d="M28.9144 25.8007L118.76 69.9573L117.668 71.6744L27.8225 27.5178L28.9144 25.8007Z" fill="#FB5D66"/>
<path fill-rule="evenodd" clip-rule="evenodd" d="M37.1791 16.4849L110.963 79.5798L109.403 80.9899L35.6188 17.895L37.1791 16.4849Z" fill="#FB5D66"/>
<path fill-rule="evenodd" clip-rule="evenodd" d="M47.9047 9.36708L100.599 87.1004L98.6771 88.1075L45.9824 10.3741L47.9047 9.36708Z" fill="#FB5D66"/>
<path fill-rule="evenodd" clip-rule="evenodd" d="M60.3609 4.93247L88.3748 92.0069L86.2216 92.5423L58.2077 5.46785L60.3609 4.93247Z" fill="#FB5D66"/>
<path fill-rule="evenodd" clip-rule="evenodd" d="M73.6989 3.48321L75.081 91.2987L72.8435 91.326L71.4614 3.51042L73.6989 3.48321Z" fill="#FB5D66"/>
<path fill-rule="evenodd" clip-rule="evenodd" d="M87.0085 5.11795L61.7456 92.8404L59.5764 92.3576L84.8393 4.63515L87.0085 5.11795Z" fill="#FB5D66"/>
<path fill-rule="evenodd" clip-rule="evenodd" d="M99.3836 9.7253L49.1555 88.7105L47.2023 87.7506L97.4305 8.76538L99.3836 9.7253Z" fill="#FB5D66"/>
<path fill-rule="evenodd" clip-rule="evenodd" d="M109.979 16.9909L38.2083 81.8563L36.6043 80.4846L108.375 15.6193L109.979 16.9909Z" fill="#FB5D66"/>
<path fill-rule="evenodd" clip-rule="evenodd" d="M118.075 26.4203L29.6536 72.7452L28.508 71.0554L116.93 24.7304L118.075 26.4203Z" fill="#FB5D66"/>
<path fill-rule="evenodd" clip-rule="evenodd" d="M123.119 37.3704L24.072 61.998L23.463 60.1051L122.51 35.4775L123.119 37.3704Z" fill="#FB5D66"/>
<path fill-rule="evenodd" clip-rule="evenodd" d="M119.076 49.1645L21.8466 50.3472L21.8157 48.3802L119.045 47.1975L119.076 49.1645Z" fill="#FB5D66"/>
<path fill-rule="evenodd" clip-rule="evenodd" d="M114.762 59.0658L14.8765 36.8342L15.4709 34.77L115.356 57.0015L114.762 59.0658Z" fill="#FB5D66"/>
<path fill-rule="evenodd" clip-rule="evenodd" d="M117.669 71.6746L27.8236 27.518L28.9155 25.801L118.761 69.9576L117.669 71.6746Z" fill="#FB5D66"/>
<path fill-rule="evenodd" clip-rule="evenodd" d="M109.403 80.9899L35.6188 17.895L37.1791 16.4849L110.963 79.5798L109.403 80.9899Z" fill="#FB5D66"/>
<path fill-rule="evenodd" clip-rule="evenodd" d="M98.6781 88.108L45.9834 10.3746L47.9056 9.36755L100.6 87.1009L98.6781 88.108Z" fill="#FB5D66"/>
<path fill-rule="evenodd" clip-rule="evenodd" d="M86.2216 92.5423L58.2077 5.46785L60.3609 4.93247L88.3748 92.0069L86.2216 92.5423Z" fill="#FB5D66"/>
<path fill-rule="evenodd" clip-rule="evenodd" d="M72.822 90.058L71.4599 3.51037L73.6973 3.48315L75.0594 90.0307L72.822 90.058Z" fill="#FB5D66"/>
<path fill-rule="evenodd" clip-rule="evenodd" d="M59.5753 92.3575L84.8382 4.63506L87.0075 5.11787L61.7445 92.8403L59.5753 92.3575Z" fill="#FB5D66"/>
<path fill-rule="evenodd" clip-rule="evenodd" d="M47.2013 87.7504L97.4295 8.76516L99.3826 9.72508L49.1545 88.7103L47.2013 87.7504Z" fill="#FB5D66"/>
<path d="M96.7868 49.7213C96.7868 62.2154 85.2657 72.3438 71.0537 72.3438C56.8416 72.3438 44.2017 62.2154 44.2017 49.7213C44.2017 37.2272 56.8416 27.0988 71.0537 27.0988C85.2657 27.0988 96.7868 37.2272 96.7868 49.7213Z" fill="#FB5D66"/>
</g>
<path d="M15.2387 117.433C21.279 128.144 30.9217 122.559 34.988 118.427C41.5274 118.049 44.1214 114.898 44.752 112.39C45.9958 107.445 42.7227 105.265 40.1109 103.022C40.8034 98.278 37.9384 95.3071 36.0923 93.7046C32.4075 90.5063 27.2997 92.4572 24.3301 94.5283C20.4729 94.11 19.7663 93.398 15.9475 95.3296C11.8105 97.4222 12.0641 99.7739 12.4619 101.63C7.80835 104.876 6.52481 107.196 7.39808 110.415C8.96996 116.21 12.1974 116.213 15.2387 117.433Z" fill="#CDCDCD"/>
<path d="M18.3469 115.109C23.7804 124.724 32.3236 119.767 35.9161 116.086C41.7294 115.776 44.0181 112.967 44.5645 110.725C45.6422 106.304 42.7188 104.338 40.3831 102.319C40.9717 98.0752 38.4067 95.4031 36.7556 93.9605C33.4603 91.0813 27.5429 91.8824 24.914 93.7233C21.9626 93.7517 19.4168 95.0393 18.85 95.326L18.8499 95.3261C15.1828 97.1809 15.4219 99.2872 15.7864 100.95C11.6666 103.835 10.5385 105.906 11.3337 108.792C12.765 113.987 15.6352 114.004 18.3469 115.109Z" fill="white"/>
<path fill-rule="evenodd" clip-rule="evenodd" d="M21.7862 121.036L30.2663 92.601L30.9749 92.7532L22.4948 121.188L21.7862 121.036Z" fill="#9B9B9B"/>
<path fill-rule="evenodd" clip-rule="evenodd" d="M17.7485 119.568L34.3759 93.9138L35.0127 94.2208L18.3853 119.875L17.7485 119.568Z" fill="#9B9B9B"/>
<path fill-rule="evenodd" clip-rule="evenodd" d="M14.299 117.237L37.9404 96.1112L38.4619 96.5521L14.8204 117.678L14.299 117.237Z" fill="#9B9B9B"/>
<path fill-rule="evenodd" clip-rule="evenodd" d="M11.6729 114.201L39.8966 99.4717L40.2673 100.016L12.0436 114.745L11.6729 114.201Z" fill="#9B9B9B"/>
<path fill-rule="evenodd" clip-rule="evenodd" d="M10.0491 110.666L40.4494 103.03L40.644 103.642L10.2438 111.278L10.0491 110.666Z" fill="#9B9B9B"/>
<path fill-rule="evenodd" clip-rule="evenodd" d="M9.53828 106.875L43.2173 106.277L43.2227 106.913L9.5436 107.512L9.53828 106.875Z" fill="#9B9B9B"/>
<path fill-rule="evenodd" clip-rule="evenodd" d="M10.1751 103.086L42.77 110.085L42.5856 110.703L9.99076 103.704L10.1751 103.086Z" fill="#9B9B9B"/>
<path fill-rule="evenodd" clip-rule="evenodd" d="M11.9163 99.5554L41.2057 113.675L40.8442 114.233L11.5548 100.113L11.9163 99.5554Z" fill="#9B9B9B"/>
<path fill-rule="evenodd" clip-rule="evenodd" d="M14.6434 96.5253L38.6313 116.804L38.1174 117.263L14.1295 96.9845L14.6434 96.5253Z" fill="#9B9B9B"/>
<path fill-rule="evenodd" clip-rule="evenodd" d="M18.1706 94.2017L34.7198 118.519L34.0884 118.848L17.5392 94.5313L18.1706 94.2017Z" fill="#9B9B9B"/>
<path fill-rule="evenodd" clip-rule="evenodd" d="M22.257 92.7433L31.2104 120.868L30.5046 121.045L21.5512 92.9206L22.257 92.7433Z" fill="#9B9B9B"/>
<path fill-rule="evenodd" clip-rule="evenodd" d="M26.6246 92.2491L26.8695 121.526L26.1374 121.539L25.8924 92.2621L26.6246 92.2491Z" fill="#9B9B9B"/>
<path fill-rule="evenodd" clip-rule="evenodd" d="M30.9749 92.7532L22.4948 121.188L21.7862 121.036L30.2663 92.601L30.9749 92.7532Z" fill="#9B9B9B"/>
<path fill-rule="evenodd" clip-rule="evenodd" d="M35.0127 94.2208L18.3853 119.875L17.7485 119.568L34.3759 93.9138L35.0127 94.2208Z" fill="#9B9B9B"/>
<path fill-rule="evenodd" clip-rule="evenodd" d="M38.4619 96.5521L14.8204 117.678L14.299 117.237L37.9404 96.1112L38.4619 96.5521Z" fill="#9B9B9B"/>
<path fill-rule="evenodd" clip-rule="evenodd" d="M39.4818 100.426L12.044 114.745L11.6733 114.2L39.1111 99.8817L39.4818 100.426Z" fill="#9B9B9B"/>
<path fill-rule="evenodd" clip-rule="evenodd" d="M40.0761 103.811L7.57532 111.975L7.36464 111.314L39.8655 103.15L40.0761 103.811Z" fill="#9B9B9B"/>
<path fill-rule="evenodd" clip-rule="evenodd" d="M43.223 106.913L9.54394 107.512L9.53862 106.875L43.2177 106.277L43.223 106.913Z" fill="#9B9B9B"/>
<path fill-rule="evenodd" clip-rule="evenodd" d="M42.5856 110.703L9.99076 103.704L10.1751 103.086L42.77 110.085L42.5856 110.703Z" fill="#9B9B9B"/>
<path fill-rule="evenodd" clip-rule="evenodd" d="M40.8446 114.233L11.5552 100.113L11.9167 99.5554L41.2061 113.675L40.8446 114.233Z" fill="#9B9B9B"/>
<path fill-rule="evenodd" clip-rule="evenodd" d="M38.1174 117.263L14.1295 96.9845L14.6434 96.5253L38.6313 116.804L38.1174 117.263Z" fill="#9B9B9B"/>
<path fill-rule="evenodd" clip-rule="evenodd" d="M33.849 118.498L17.5387 94.5315L18.1701 94.202L34.4804 118.168L33.849 118.498Z" fill="#9B9B9B"/>
<path fill-rule="evenodd" clip-rule="evenodd" d="M30.5043 121.045L21.5509 92.9207L22.2567 92.7434L31.2101 120.868L30.5043 121.045Z" fill="#9B9B9B"/>
<path fill-rule="evenodd" clip-rule="evenodd" d="M26.1371 121.539L25.8921 92.2622L26.6243 92.2492L26.8692 121.526L26.1371 121.539Z" fill="#9B9B9B"/>
<path d="M33.2443 103.789C35.543 107.277 34.1294 111.762 30.087 113.807C26.0446 115.851 20.5859 114.842 18.2873 111.354C15.9887 107.866 17.7205 103.22 21.7629 101.175C25.8053 99.1305 30.9457 100.301 33.2443 103.789Z" fill="#9B9B9B"/>
<g style="mix-blend-mode:multiply">
<path d="M15.2387 117.433C21.279 128.144 30.9217 122.559 34.988 118.427C41.5274 118.049 44.1214 114.898 44.752 112.39C45.9958 107.445 42.7227 105.265 40.1109 103.022C40.8034 98.278 37.9384 95.3071 36.0923 93.7046C32.4075 90.5063 27.2997 92.4572 24.3301 94.5283C20.4729 94.11 19.7663 93.398 15.9475 95.3296C11.8105 97.4222 12.0641 99.7739 12.4619 101.63C7.80835 104.876 6.52481 107.196 7.39808 110.415C8.96996 116.21 12.1974 116.213 15.2387 117.433Z" fill="#FB5D66"/>
<path d="M18.3469 115.109C23.7804 124.724 32.3236 119.767 35.9161 116.086C41.7294 115.776 44.0181 112.967 44.5645 110.725C45.6422 106.304 42.7188 104.338 40.3831 102.319C40.9717 98.0752 38.4067 95.4031 36.7556 93.9605C33.4603 91.0813 27.5429 91.8824 24.914 93.7233C21.9626 93.7517 19.4168 95.0393 18.85 95.326L18.8499 95.3261C15.1828 97.1809 15.4219 99.2872 15.7864 100.95C11.6666 103.835 10.5385 105.906 11.3337 108.792C12.765 113.987 15.6352 114.004 18.3469 115.109Z" fill="#FB5D66"/>
<path fill-rule="evenodd" clip-rule="evenodd" d="M21.7862 121.036L30.2663 92.601L30.9749 92.7532L22.4948 121.188L21.7862 121.036Z" fill="#FB5D66"/>
<path fill-rule="evenodd" clip-rule="evenodd" d="M17.7485 119.568L34.3759 93.9138L35.0127 94.2208L18.3853 119.875L17.7485 119.568Z" fill="#FB5D66"/>
<path fill-rule="evenodd" clip-rule="evenodd" d="M14.299 117.237L37.9404 96.1112L38.4619 96.5521L14.8204 117.678L14.299 117.237Z" fill="#FB5D66"/>
<path fill-rule="evenodd" clip-rule="evenodd" d="M11.6729 114.201L39.8966 99.4717L40.2673 100.016L12.0436 114.745L11.6729 114.201Z" fill="#FB5D66"/>
<path fill-rule="evenodd" clip-rule="evenodd" d="M10.0491 110.666L40.4494 103.03L40.644 103.642L10.2438 111.278L10.0491 110.666Z" fill="#FB5D66"/>
<path fill-rule="evenodd" clip-rule="evenodd" d="M9.53828 106.875L43.2173 106.277L43.2227 106.913L9.5436 107.512L9.53828 106.875Z" fill="#FB5D66"/>
<path fill-rule="evenodd" clip-rule="evenodd" d="M10.1751 103.086L42.77 110.085L42.5856 110.703L9.99076 103.704L10.1751 103.086Z" fill="#FB5D66"/>
<path fill-rule="evenodd" clip-rule="evenodd" d="M11.9163 99.5554L41.2057 113.675L40.8442 114.233L11.5548 100.113L11.9163 99.5554Z" fill="#FB5D66"/>
<path fill-rule="evenodd" clip-rule="evenodd" d="M14.6434 96.5253L38.6313 116.804L38.1174 117.263L14.1295 96.9845L14.6434 96.5253Z" fill="#FB5D66"/>
<path fill-rule="evenodd" clip-rule="evenodd" d="M18.1706 94.2017L34.7198 118.519L34.0884 118.848L17.5392 94.5313L18.1706 94.2017Z" fill="#FB5D66"/>
<path fill-rule="evenodd" clip-rule="evenodd" d="M22.257 92.7433L31.2104 120.868L30.5046 121.045L21.5512 92.9206L22.257 92.7433Z" fill="#FB5D66"/>
<path fill-rule="evenodd" clip-rule="evenodd" d="M26.6246 92.2491L26.8695 121.526L26.1374 121.539L25.8924 92.2621L26.6246 92.2491Z" fill="#FB5D66"/>
<path fill-rule="evenodd" clip-rule="evenodd" d="M30.9749 92.7532L22.4948 121.188L21.7862 121.036L30.2663 92.601L30.9749 92.7532Z" fill="#FB5D66"/>
<path fill-rule="evenodd" clip-rule="evenodd" d="M35.0127 94.2208L18.3853 119.875L17.7485 119.568L34.3759 93.9138L35.0127 94.2208Z" fill="#FB5D66"/>
<path fill-rule="evenodd" clip-rule="evenodd" d="M38.4619 96.5521L14.8204 117.678L14.299 117.237L37.9404 96.1112L38.4619 96.5521Z" fill="#FB5D66"/>
<path fill-rule="evenodd" clip-rule="evenodd" d="M39.4818 100.426L12.044 114.745L11.6733 114.2L39.1111 99.8817L39.4818 100.426Z" fill="#FB5D66"/>
<path fill-rule="evenodd" clip-rule="evenodd" d="M40.0761 103.811L7.57532 111.975L7.36464 111.314L39.8655 103.15L40.0761 103.811Z" fill="#FB5D66"/>
<path fill-rule="evenodd" clip-rule="evenodd" d="M43.223 106.913L9.54394 107.512L9.53862 106.875L43.2177 106.277L43.223 106.913Z" fill="#FB5D66"/>
<path fill-rule="evenodd" clip-rule="evenodd" d="M42.5856 110.703L9.99076 103.704L10.1751 103.086L42.77 110.085L42.5856 110.703Z" fill="#FB5D66"/>
<path fill-rule="evenodd" clip-rule="evenodd" d="M40.8446 114.233L11.5552 100.113L11.9167 99.5554L41.2061 113.675L40.8446 114.233Z" fill="#FB5D66"/>
<path fill-rule="evenodd" clip-rule="evenodd" d="M38.1174 117.263L14.1295 96.9845L14.6434 96.5253L38.6313 116.804L38.1174 117.263Z" fill="#FB5D66"/>
<path fill-rule="evenodd" clip-rule="evenodd" d="M33.849 118.498L17.5387 94.5315L18.1701 94.202L34.4804 118.168L33.849 118.498Z" fill="#FB5D66"/>
<path fill-rule="evenodd" clip-rule="evenodd" d="M30.5043 121.045L21.5509 92.9207L22.2567 92.7434L31.2101 120.868L30.5043 121.045Z" fill="#FB5D66"/>
<path fill-rule="evenodd" clip-rule="evenodd" d="M26.1371 121.539L25.8921 92.2622L26.6243 92.2492L26.8692 121.526L26.1371 121.539Z" fill="#FB5D66"/>
<path d="M33.2443 103.789C35.543 107.277 34.1294 111.762 30.087 113.807C26.0446 115.851 20.5859 114.842 18.2873 111.354C15.9887 107.866 17.7205 103.22 21.7629 101.175C25.8053 99.1305 30.9457 100.301 33.2443 103.789Z" fill="#FB5D66"/>
</g>
<g style="mix-blend-mode:soft-light">
<path d="M15.2387 117.433C21.279 128.144 30.9217 122.559 34.988 118.427C41.5274 118.049 44.1214 114.898 44.752 112.39C45.9958 107.445 42.7227 105.265 40.1109 103.022C40.8034 98.278 37.9384 95.3071 36.0923 93.7046C32.4075 90.5063 27.2997 92.4572 24.3301 94.5283C20.4729 94.11 19.7663 93.398 15.9475 95.3296C11.8105 97.4222 12.0641 99.7739 12.4619 101.63C7.80835 104.876 6.52481 107.196 7.39808 110.415C8.96996 116.21 12.1974 116.213 15.2387 117.433Z" fill="#FB5D66"/>
<path d="M18.3469 115.109C23.7804 124.724 32.3236 119.767 35.9161 116.086C41.7294 115.776 44.0181 112.967 44.5645 110.725C45.6422 106.304 42.7188 104.338 40.3831 102.319C40.9717 98.0752 38.4067 95.4031 36.7556 93.9605C33.4603 91.0813 27.5429 91.8824 24.914 93.7233C21.9626 93.7517 19.4168 95.0393 18.85 95.326L18.8499 95.3261C15.1828 97.1809 15.4219 99.2872 15.7864 100.95C11.6666 103.835 10.5385 105.906 11.3337 108.792C12.765 113.987 15.6352 114.004 18.3469 115.109Z" fill="#FB5D66"/>
<path fill-rule="evenodd" clip-rule="evenodd" d="M21.7862 121.036L30.2663 92.601L30.9749 92.7532L22.4948 121.188L21.7862 121.036Z" fill="#FB5D66"/>
<path fill-rule="evenodd" clip-rule="evenodd" d="M17.7485 119.568L34.3759 93.9138L35.0127 94.2208L18.3853 119.875L17.7485 119.568Z" fill="#FB5D66"/>
<path fill-rule="evenodd" clip-rule="evenodd" d="M14.299 117.237L37.9404 96.1112L38.4619 96.5521L14.8204 117.678L14.299 117.237Z" fill="#FB5D66"/>
<path fill-rule="evenodd" clip-rule="evenodd" d="M11.6729 114.201L39.8966 99.4717L40.2673 100.016L12.0436 114.745L11.6729 114.201Z" fill="#FB5D66"/>
<path fill-rule="evenodd" clip-rule="evenodd" d="M10.0491 110.666L40.4494 103.03L40.644 103.642L10.2438 111.278L10.0491 110.666Z" fill="#FB5D66"/>
<path fill-rule="evenodd" clip-rule="evenodd" d="M9.53828 106.875L43.2173 106.277L43.2227 106.913L9.5436 107.512L9.53828 106.875Z" fill="#FB5D66"/>
<path fill-rule="evenodd" clip-rule="evenodd" d="M10.1751 103.086L42.77 110.085L42.5856 110.703L9.99076 103.704L10.1751 103.086Z" fill="#FB5D66"/>
<path fill-rule="evenodd" clip-rule="evenodd" d="M11.9163 99.5554L41.2057 113.675L40.8442 114.233L11.5548 100.113L11.9163 99.5554Z" fill="#FB5D66"/>
<path fill-rule="evenodd" clip-rule="evenodd" d="M14.6434 96.5253L38.6313 116.804L38.1174 117.263L14.1295 96.9845L14.6434 96.5253Z" fill="#FB5D66"/>
<path fill-rule="evenodd" clip-rule="evenodd" d="M18.1706 94.2017L34.7198 118.519L34.0884 118.848L17.5392 94.5313L18.1706 94.2017Z" fill="#FB5D66"/>
<path fill-rule="evenodd" clip-rule="evenodd" d="M22.257 92.7433L31.2104 120.868L30.5046 121.045L21.5512 92.9206L22.257 92.7433Z" fill="#FB5D66"/>
<path fill-rule="evenodd" clip-rule="evenodd" d="M26.6246 92.2491L26.8695 121.526L26.1374 121.539L25.8924 92.2621L26.6246 92.2491Z" fill="#FB5D66"/>
<path fill-rule="evenodd" clip-rule="evenodd" d="M30.9749 92.7532L22.4948 121.188L21.7862 121.036L30.2663 92.601L30.9749 92.7532Z" fill="#FB5D66"/>
<path fill-rule="evenodd" clip-rule="evenodd" d="M35.0127 94.2208L18.3853 119.875L17.7485 119.568L34.3759 93.9138L35.0127 94.2208Z" fill="#FB5D66"/>
<path fill-rule="evenodd" clip-rule="evenodd" d="M38.4619 96.5521L14.8204 117.678L14.299 117.237L37.9404 96.1112L38.4619 96.5521Z" fill="#FB5D66"/>
<path fill-rule="evenodd" clip-rule="evenodd" d="M39.4818 100.426L12.044 114.745L11.6733 114.2L39.1111 99.8817L39.4818 100.426Z" fill="#FB5D66"/>
<path fill-rule="evenodd" clip-rule="evenodd" d="M40.0761 103.811L7.57532 111.975L7.36464 111.314L39.8655 103.15L40.0761 103.811Z" fill="#FB5D66"/>
<path fill-rule="evenodd" clip-rule="evenodd" d="M43.223 106.913L9.54394 107.512L9.53862 106.875L43.2177 106.277L43.223 106.913Z" fill="#FB5D66"/>
<path fill-rule="evenodd" clip-rule="evenodd" d="M42.5856 110.703L9.99076 103.704L10.1751 103.086L42.77 110.085L42.5856 110.703Z" fill="#FB5D66"/>
<path fill-rule="evenodd" clip-rule="evenodd" d="M40.8446 114.233L11.5552 100.113L11.9167 99.5554L41.2061 113.675L40.8446 114.233Z" fill="#FB5D66"/>
<path fill-rule="evenodd" clip-rule="evenodd" d="M38.1174 117.263L14.1295 96.9845L14.6434 96.5253L38.6313 116.804L38.1174 117.263Z" fill="#FB5D66"/>
<path fill-rule="evenodd" clip-rule="evenodd" d="M33.849 118.498L17.5387 94.5315L18.1701 94.202L34.4804 118.168L33.849 118.498Z" fill="#FB5D66"/>
<path fill-rule="evenodd" clip-rule="evenodd" d="M30.5043 121.045L21.5509 92.9207L22.2567 92.7434L31.2101 120.868L30.5043 121.045Z" fill="#FB5D66"/>
<path fill-rule="evenodd" clip-rule="evenodd" d="M26.1371 121.539L25.8921 92.2622L26.6243 92.2492L26.8692 121.526L26.1371 121.539Z" fill="#FB5D66"/>
<path d="M33.2443 103.789C35.543 107.277 34.1294 111.762 30.087 113.807C26.0446 115.851 20.5859 114.842 18.2873 111.354C15.9887 107.866 17.7205 103.22 21.7629 101.175C25.8053 99.1305 30.9457 100.301 33.2443 103.789Z" fill="#FB5D66"/>
</g>
<path d="M67.6823 147.269C72.0772 150.624 65.0061 160.717 62.7102 165.309L63.2649 165.624C72.3142 155.709 79.1402 156.547 81.3845 156.388C93.2345 155.55 95.063 151.719 94.7298 150.295C92.8131 145.256 83.0144 149.205 78.5873 152.146C84.1495 143.929 89.7163 141.02 91.8045 140.592C97.0233 139.457 106.718 136.187 103.747 132.183C100.775 128.178 92.6701 132.772 88.989 135.57C88.422 131.938 93.6814 124.772 99.4914 123.284C109.324 120.766 110.065 119.062 109.25 117.646C107.35 113.309 97.6849 116.553 93.0897 118.717C99.8801 114.302 108.508 105.172 102.593 102.157C95.8243 98.7069 90.5189 111.349 89.9163 117.603C89.0666 113.326 86.206 105.105 81.5613 106.437C75.7555 108.103 82.634 113.832 85.9264 120.016C88.5603 124.964 86.9195 130.404 85.7698 132.506C84.5155 125.036 80.1572 123.242 78.8089 123.266C72.0676 123.387 75.3417 128.791 78.2212 136.544C80.5249 142.746 75.8175 149.074 73.1759 151.463C73.5948 138.656 66.4324 132.327 62.3999 132.926C53.4391 134.258 62.1886 143.076 67.6823 147.269Z" fill="#2E7A48"/>
</svg>
