<svg width="150" height="203" viewBox="0 0 150 203" fill="none" xmlns="http://www.w3.org/2000/svg">
<path d="M67.8156 147.522C67.7086 145.392 67.6405 143.314 67.6078 141.288L67.5927 140.106C67.3938 119.144 73.0588 90.4949 76.225 83.2872C76.3382 83.0295 76.6687 82.9009 76.963 83C77.2574 83.0991 77.4043 83.3884 77.291 83.6462C74.1465 90.8044 68.4348 119.65 68.7456 140.994C68.7722 142.819 68.8276 144.689 68.9146 146.601L68.9712 147.765C69.7818 163.415 72.7089 181.854 79.2265 202.366C79.3111 202.632 79.1333 202.908 78.8294 202.982C78.5255 203.056 78.2107 202.9 78.1262 202.634C71.5448 181.921 68.6088 163.308 67.8156 147.522Z" fill="#0A3019"/>
<path d="M26.7188 79C29.0284 84.6956 30.5672 88.8413 31.7351 92.1882C33.3224 96.7369 34.2247 99.8103 35.4462 103.294C36.3929 105.994 37.5313 108.941 39.3289 113.012C39.6408 113.718 39.9606 114.412 40.2881 115.094C41.8985 118.446 43.693 121.495 45.6339 124.197C48.678 128.434 52.0824 131.815 55.7012 134.171C59.5195 136.657 63.5767 138 67.7016 138C67.7989 132.259 67.2219 126.985 66.1253 122.154C65.1441 117.831 63.7469 113.864 62.0444 110.235C60.1046 106.101 57.7685 102.407 55.1999 99.1294C52.7059 95.9469 49.9926 93.157 47.2102 90.7379C44.3391 88.2417 41.3944 86.1404 38.5407 84.4099C34.195 81.7747 30.0604 79.9995 26.7188 79Z" fill="#DC8433"/>
<g style="mix-blend-mode:multiply">
<path d="M31.5958 91.7901C31.6398 91.7782 31.6866 91.7718 31.7351 91.7718H36.6677C33.5224 86.9198 30.174 82.5427 27.0662 79.8596C26.9524 79.577 26.8366 79.2905 26.7188 79C27.0792 79.1078 27.4489 79.2247 27.8271 79.3506C30.9026 82.0363 34.1494 86.2588 37.1809 90.8859L38.0711 84.3602C38.0805 84.2914 38.1085 84.2285 38.1501 84.175C38.2801 84.2525 38.4103 84.3308 38.5407 84.4099C38.687 84.4986 38.8335 84.5883 38.9802 84.6789L37.9674 92.1027C40.0516 95.37 42.0244 98.8014 43.7559 102.027L46.7494 90.6439C46.7698 90.5665 46.8134 90.4991 46.8724 90.4463C46.9851 90.5429 47.0977 90.6401 47.2102 90.7379C47.3418 90.8523 47.4733 90.9676 47.6046 91.0837L44.4054 103.249C46.0347 106.342 47.4194 109.198 48.4381 111.471C48.8079 112.296 49.1932 113.109 49.5918 113.909L54.7475 99.008C54.7797 98.9149 54.8456 98.839 54.9299 98.7875C55.0202 98.9009 55.1102 99.0149 55.1999 99.1294C55.3143 99.2754 55.4283 99.4222 55.5418 99.5699L50.1808 115.064C51.8375 118.24 53.6916 121.198 55.5973 123.887L61.6028 110.086C61.651 109.975 61.7471 109.893 61.8623 109.851C61.9234 109.979 61.9841 110.107 62.0444 110.235C62.1322 110.422 62.2192 110.61 62.3053 110.799L56.2281 124.764C58.6862 128.138 61.2014 131.054 63.464 133.401L65.6591 122.084C65.6929 121.909 65.8454 121.779 66.0312 121.746C66.063 121.881 66.0943 122.017 66.1253 122.154C66.213 122.54 66.2974 122.93 66.3784 123.322L64.2648 134.219C65.5301 135.491 66.6979 136.568 67.709 137.43C67.7073 137.619 67.7048 137.809 67.7016 138C67.4685 138 67.2357 137.996 67.0031 137.987C65.9791 137.112 64.8062 136.028 63.5415 134.756L56.3849 134.602C56.1562 134.463 55.9283 134.319 55.7012 134.171C55.5749 134.089 55.4489 134.006 55.3232 133.921C55.4118 133.817 55.5541 133.751 55.7126 133.755L62.7089 133.905C60.429 131.537 57.901 128.602 55.4311 125.213L45.9513 124.634C45.8451 124.489 45.7393 124.343 45.6339 124.197C45.5499 124.08 45.4661 123.962 45.3826 123.844C45.4645 123.799 45.5627 123.775 45.6665 123.781L54.8033 124.339C52.8954 121.649 51.0374 118.689 49.3729 115.511H40.4899C40.4223 115.372 40.355 115.233 40.2881 115.094C40.2268 114.967 40.1658 114.838 40.105 114.71C40.1613 114.689 40.2231 114.678 40.288 114.678H48.9437C48.4628 113.729 47.9998 112.761 47.5584 111.776C46.5593 109.547 45.203 106.748 43.6061 103.711H35.5931C35.5436 103.571 35.4946 103.432 35.4462 103.294C35.3995 103.161 35.3532 103.028 35.3073 102.896C35.3512 102.884 35.3978 102.878 35.4461 102.878H43.1654C41.3952 99.5543 39.3586 95.9911 37.2028 92.6047H31.88C31.8323 92.4673 31.7841 92.3284 31.7351 92.1882C31.6893 92.0568 31.6428 91.9241 31.5958 91.7901Z" fill="#FFC328"/>
</g>
<path d="M101.262 120C99.5006 124.344 98.327 127.506 97.4362 130.059C96.2255 133.528 95.5373 135.872 94.6057 138.529C93.8836 140.589 93.0154 142.836 91.6443 145.941C91.4064 146.48 91.1625 147.009 90.9127 147.529C89.6845 150.086 88.3158 152.412 86.8354 154.472C84.5136 157.704 81.9171 160.283 79.157 162.08C76.2447 163.975 73.1502 165 70.0041 165C69.9299 160.622 70.37 156.599 71.2064 152.914C71.9547 149.617 73.0204 146.591 74.3189 143.824C75.7984 140.67 77.5802 137.853 79.5393 135.353C81.4415 132.926 83.5109 130.798 85.6332 128.953C87.8229 127.049 90.0689 125.446 92.2455 124.126C95.56 122.116 98.7135 120.762 101.262 120Z" fill="#DC8433"/>
<g style="mix-blend-mode:multiply">
<path d="M97.5424 129.755C97.5089 129.746 97.4732 129.741 97.4362 129.741H93.674C96.073 126.041 98.6269 122.702 100.997 120.656C101.084 120.44 101.172 120.222 101.262 120C100.987 120.082 100.705 120.171 100.417 120.267C98.0711 122.316 95.5948 125.536 93.2826 129.066L92.6036 124.088C92.5964 124.036 92.5751 123.988 92.5434 123.947C92.4442 124.006 92.3449 124.066 92.2455 124.126C92.1339 124.194 92.0221 124.262 91.9102 124.331L92.6827 129.994C91.0931 132.486 89.5884 135.103 88.2678 137.563L85.9846 128.881C85.9691 128.822 85.9358 128.771 85.8908 128.73C85.8048 128.804 85.719 128.878 85.6332 128.953C85.5328 129.04 85.4325 129.128 85.3324 129.216L87.7724 138.495C86.5297 140.854 85.4736 143.032 84.6966 144.766C84.4145 145.395 84.1206 146.015 83.8167 146.626L79.8844 135.26C79.8598 135.189 79.8095 135.131 79.7452 135.092C79.6764 135.179 79.6077 135.266 79.5393 135.353C79.452 135.464 79.3651 135.576 79.2786 135.689L83.3674 147.507C82.1039 149.929 80.6897 152.185 79.2362 154.236L74.6557 143.71C74.619 143.625 74.5457 143.563 74.4578 143.53C74.4112 143.628 74.3649 143.725 74.3189 143.824C74.2519 143.966 74.1856 144.11 74.1199 144.254L78.755 154.905C76.8802 157.478 74.9619 159.702 73.2362 161.493L71.5619 152.86C71.5361 152.727 71.4198 152.628 71.2782 152.603C71.2539 152.706 71.23 152.81 71.2064 152.914C71.1394 153.209 71.0751 153.506 71.0133 153.805L72.6254 162.116C71.6604 163.086 70.7696 163.908 69.9984 164.565C69.9998 164.71 70.0017 164.855 70.0041 165C70.1819 165 70.3595 164.997 70.5369 164.99C71.3179 164.323 72.2124 163.496 73.1771 162.526L78.6355 162.409C78.8099 162.302 78.9838 162.192 79.157 162.08C79.2533 162.017 79.3494 161.953 79.4453 161.889C79.3776 161.81 79.2692 161.76 79.1482 161.762L73.8121 161.877C75.551 160.071 77.4791 157.832 79.363 155.247L86.5933 154.805C86.6743 154.695 86.755 154.584 86.8354 154.472C86.8995 154.383 86.9634 154.293 87.0271 154.203C86.9646 154.168 86.8897 154.15 86.8105 154.155L79.8418 154.581C81.2969 152.529 82.7141 150.271 83.9836 147.847H90.7588C90.8103 147.742 90.8616 147.636 90.9127 147.529C90.9594 147.432 91.006 147.334 91.0523 147.236C91.0094 147.221 90.9622 147.212 90.9128 147.212H84.311C84.6778 146.488 85.0309 145.75 85.3676 144.999C86.1296 143.299 87.164 141.164 88.382 138.847H94.4937C94.5314 138.741 94.5687 138.635 94.6057 138.529C94.6413 138.428 94.6766 138.327 94.7116 138.226C94.6781 138.217 94.6426 138.212 94.6057 138.212H88.7182C90.0683 135.677 91.6217 132.959 93.2659 130.376H97.3257C97.362 130.272 97.3988 130.166 97.4362 130.059C97.4711 129.959 97.5066 129.857 97.5424 129.755Z" fill="#FFC328"/>
</g>
<path d="M122.711 40.0763C134.356 42.4035 137.163 53.2068 134.821 62.1902C132.381 71.5494 124.596 79.8407 112.951 77.5136C98.2039 74.5665 89.8011 63.9241 81.5278 53.9912C80.1392 52.8114 80.907 49.8752 82.743 49.3443C95.0491 43.638 108.105 37.1575 122.711 40.0763Z" fill="#FFB54B"/>
<path d="M116.334 72.248C121.516 81.6703 113.619 90.3276 104.138 94.3256C94.2588 98.4908 82.0014 98.3315 76.8188 88.9091C70.2556 76.9765 74.5198 64.5892 78.2312 52.7327C78.4189 51.0466 81.5195 49.7416 83.1384 50.6673C95.9066 55.5334 109.834 60.4301 116.334 72.248Z" fill="#FFB54B"/>
<path d="M83.9431 88.6125C78.7605 98.0348 66.1063 98.0269 56.6243 94.0289C46.7457 89.8637 39.2456 81.3737 44.4281 71.9513C50.9914 60.0187 64.7115 55.2144 77.6129 50.3625C79.2355 49.4398 82.3341 50.7486 82.5168 52.4339C86.1324 64.2081 90.4432 76.7946 83.9431 88.6125Z" fill="#FFB54B"/>
<path d="M49.7859 77.4877C38.1407 79.8148 30.2581 71.1477 27.9162 62.1643C25.4764 52.805 28.3813 42.3776 40.0265 40.0505C54.7739 37.1034 67.6184 43.4997 79.9948 49.306C81.8305 49.8415 82.5938 52.7786 81.2027 53.9544C72.9431 63.7705 64.3916 74.5689 49.7859 77.4877Z" fill="#FFB54B"/>
<path d="M37.8602 45.7811C28.5216 39.2606 31.3462 28.4608 37.908 21.2566C44.7442 13.7511 55.8668 9.23824 65.2054 15.7587C77.032 24.0163 79.3287 36.7968 81.8604 48.8891C82.5268 50.4795 80.38 52.8332 78.4627 52.6141C64.5475 53.0804 49.5731 53.9593 37.8602 45.7811Z" fill="#FFB54B"/>
<path d="M58.501 18.6353C58.501 8.1772 69.906 3.3772 80.4302 3.3772C91.3946 3.3772 102.359 8.1772 102.359 18.6353C102.359 31.8794 92.3787 41.4201 83.1593 50.6925C82.1546 52.1403 78.7143 52.1382 77.7145 50.6892C68.6222 41.4545 58.501 31.7521 58.501 18.6353Z" fill="#FFB54B"/>
<path d="M96.4996 15.9999C105.838 9.47944 117.235 14.2937 123.797 21.4979C130.633 29.0034 133.183 39.5018 123.845 46.0223C112.018 54.2799 97.276 53.3964 83.2479 52.8667C81.3287 53.0816 79.1855 50.7254 79.8561 49.1375C82.4333 37.1558 84.7867 24.1782 96.4996 15.9999Z" fill="#FFB54B"/>
<g style="mix-blend-mode:multiply">
<path d="M78.6542 36.163C78.8659 34.198 82.1415 34.198 82.3532 36.163C82.5215 37.7246 84.868 38.1935 85.7935 36.8505C86.958 35.1605 89.9092 36.4048 89.1262 38.2557C88.504 39.7266 90.3857 41.0404 91.8851 40.182C93.7718 39.1018 95.8141 41.344 94.1914 42.7141C92.9019 43.803 93.9461 45.7015 95.7225 45.4977C97.9576 45.2412 98.6865 48.0372 96.5456 48.6552C94.8442 49.1464 94.8442 51.2536 96.5456 51.7448C98.6865 52.3628 97.9576 55.1588 95.7225 54.9023C93.9461 54.6984 92.9019 56.597 94.1914 57.6859C95.8141 59.056 93.7718 61.2982 91.8851 60.218C90.3857 59.3596 88.504 60.6734 89.1262 62.1443C89.9092 63.9952 86.958 65.2395 85.7935 63.5495C84.868 62.2065 82.5215 62.6754 82.3532 64.237C82.1415 66.202 78.8659 66.202 78.6542 64.237C78.4859 62.6754 76.1394 62.2065 75.2139 63.5495C74.0494 65.2395 71.0982 63.9952 71.8812 62.1443C72.5034 60.6734 70.6217 59.3596 69.1223 60.218C67.2356 61.2982 65.1933 59.056 66.816 57.6859C68.1055 56.597 67.0613 54.6984 65.2849 54.9023C63.0498 55.1588 62.3209 52.3628 64.4618 51.7448C66.1632 51.2536 66.1632 49.1464 64.4618 48.6552C62.3209 48.0372 63.0498 45.2412 65.2849 45.4977C67.0613 45.7015 68.1055 43.803 66.816 42.7141C65.1933 41.344 67.2356 39.1018 69.1223 40.182C70.6217 41.0404 72.5034 39.7266 71.8812 38.2557C71.0982 36.4048 74.0494 35.1605 75.2139 36.8505C76.1394 38.1935 78.4859 37.7246 78.6542 36.163Z" fill="#FFB54B"/>
<g style="mix-blend-mode:multiply">
<path fill-rule="evenodd" clip-rule="evenodd" d="M58.9239 64.8509L101.786 34.9234L102.356 35.5489L59.4936 65.4764L58.9239 64.8509Z" fill="#FFB54B"/>
<path d="M104.277 38.3001C102.502 39.5398 99.915 39.2845 98.4992 37.7301C97.0833 36.1756 97.3748 33.9106 99.1502 32.6709C100.926 31.4313 103.513 31.6865 104.929 33.241C106.344 34.7954 106.053 37.0605 104.277 38.3001Z" fill="#FFB54B"/>
<path d="M62.1296 67.7288C60.3542 68.9685 57.7672 68.7133 56.3513 67.1588C54.9355 65.6043 55.227 63.3393 57.0024 62.0996C58.7778 60.86 61.3648 61.1152 62.7806 62.6697C64.1965 64.2241 63.905 66.4892 62.1296 67.7288Z" fill="#FFB54B"/>
<path fill-rule="evenodd" clip-rule="evenodd" d="M53.8141 55.1505L107.262 44.4695L107.466 45.2495L54.0174 55.9305L53.8141 55.1505Z" fill="#FFB54B"/>
<path d="M107.834 48.4582C105.62 48.9007 103.415 47.688 102.91 45.7496C102.405 43.8112 103.79 41.8812 106.004 41.4388C108.218 40.9963 110.422 42.2091 110.927 44.1474C111.433 46.0858 110.048 48.0158 107.834 48.4582Z" fill="#FFB54B"/>
<path d="M55.2761 58.9612C53.0622 59.4037 50.8578 58.1909 50.3525 56.2526C49.8472 54.3142 51.2323 52.3842 53.4462 51.9418C55.6601 51.4993 57.8645 52.712 58.3698 54.6504C58.8751 56.5888 57.49 58.5188 55.2761 58.9612Z" fill="#FFB54B"/>
<path fill-rule="evenodd" clip-rule="evenodd" d="M54.0174 44.4695L107.466 55.1505L107.262 55.9304L53.8141 45.2494L54.0174 44.4695Z" fill="#FFB54B"/>
<path d="M106.004 58.9612C103.79 58.5188 102.405 56.5887 102.91 54.6504C103.415 52.712 105.62 51.4993 107.834 51.9417C110.048 52.3841 111.433 54.3141 110.927 56.2525C110.422 58.1909 108.218 59.4036 106.004 58.9612Z" fill="#FFB54B"/>
<path d="M53.4462 48.4582C51.2323 48.0158 49.8472 46.0857 50.3525 44.1474C50.8578 42.209 53.0622 40.9963 55.2761 41.4387C57.49 41.8811 58.8751 43.8111 58.3698 45.7495C57.8645 47.6879 55.6601 48.9006 53.4462 48.4582Z" fill="#FFB54B"/>
<path fill-rule="evenodd" clip-rule="evenodd" d="M59.4936 34.9235L102.356 64.851L101.786 65.4765L58.924 35.549L59.4936 34.9235Z" fill="#FFB54B"/>
<path d="M99.1502 67.729C97.3748 66.4893 97.0833 64.2243 98.4992 62.6698C99.915 61.1153 102.502 60.8601 104.277 62.0998C106.053 63.3394 106.344 65.6045 104.929 67.1589C103.513 68.7134 100.926 68.9686 99.1502 67.729Z" fill="#FFB54B"/>
<path d="M57.0024 38.3002C55.227 37.0606 54.9355 34.7955 56.3513 33.2411C57.7672 31.6866 60.3542 31.4314 62.1296 32.6711C63.905 33.9107 64.1965 36.1757 62.7807 37.7302C61.3648 39.2847 58.7778 39.5399 57.0024 38.3002Z" fill="#FFB54B"/>
<path fill-rule="evenodd" clip-rule="evenodd" d="M69.1582 28.4032L92.9449 71.6497L92.1217 71.9968L68.3349 28.7503L69.1582 28.4032Z" fill="#FFB54B"/>
<path d="M88.6306 73.0248C87.6453 71.2335 88.5051 69.082 90.5511 68.2193C92.597 67.3567 95.0543 68.1095 96.0396 69.9008C97.0249 71.6922 96.165 73.8437 94.1191 74.7063C92.0731 75.569 89.6158 74.8161 88.6306 73.0248Z" fill="#FFB54B"/>
<path d="M65.2402 30.4991C64.255 28.7077 65.1148 26.5563 67.1608 25.6936C69.2067 24.8309 71.664 25.5838 72.6493 27.3751C73.6346 29.1664 72.7747 31.3179 70.7288 32.1806C68.6828 33.0432 66.2255 32.2904 65.2402 30.4991Z" fill="#FFB54B"/>
<path fill-rule="evenodd" clip-rule="evenodd" d="M81.0968 26.2L81.0968 74.2H80.1831L80.1831 26.2H81.0968Z" fill="#FFB54B"/>
<path d="M76.5282 73.8C76.5282 71.8118 78.3691 70.2 80.6399 70.2C82.9108 70.2 84.7517 71.8118 84.7517 73.8C84.7517 75.7882 82.9108 77.4 80.6399 77.4C78.3691 77.4 76.5282 75.7882 76.5282 73.8Z" fill="#FFB54B"/>
<path d="M76.5282 26.6C76.5282 24.6118 78.3691 23 80.6399 23C82.9108 23 84.7516 24.6118 84.7516 26.6C84.7516 28.5882 82.9108 30.2 80.6399 30.2C78.3691 30.2 76.5282 28.5882 76.5282 26.6Z" fill="#FFB54B"/>
<path fill-rule="evenodd" clip-rule="evenodd" d="M92.9449 28.7503L69.1582 71.9968L68.3349 71.6497L92.1217 28.4032L92.9449 28.7503Z" fill="#FFB54B"/>
<path d="M65.2403 69.9009C66.2255 68.1096 68.6828 67.3567 70.7288 68.2194C72.7747 69.0821 73.6346 71.2335 72.6493 73.0249C71.664 74.8162 69.2067 75.569 67.1608 74.7064C65.1148 73.8437 64.255 71.6922 65.2403 69.9009Z" fill="#FFB54B"/>
<path d="M88.6306 27.3752C89.6158 25.5838 92.0731 24.831 94.1191 25.6937C96.165 26.5563 97.0249 28.7078 96.0396 30.4991C95.0543 32.2905 92.597 33.0433 90.5511 32.1806C88.5051 31.318 87.6453 29.1665 88.6306 27.3752Z" fill="#FFB54B"/>
<path fill-rule="evenodd" clip-rule="evenodd" d="M102.356 35.5489L59.4936 65.4764L58.9239 64.8509L101.786 34.9234L102.356 35.5489Z" fill="#FFB54B"/>
<path d="M57.0024 62.0996C58.7778 60.86 61.3648 61.1152 62.7806 62.6697C64.1965 64.2241 63.905 66.4892 62.1296 67.7288C60.3542 68.9685 57.7672 68.7133 56.3513 67.1588C54.9355 65.6043 55.227 63.3393 57.0024 62.0996Z" fill="#FFB54B"/>
<path d="M99.1502 32.6709C100.926 31.4313 103.513 31.6865 104.929 33.241C106.344 34.7954 106.053 37.0605 104.277 38.3001C102.502 39.5398 99.915 39.2845 98.4992 37.7301C97.0833 36.1756 97.3748 33.9106 99.1502 32.6709Z" fill="#FFB54B"/>
<path fill-rule="evenodd" clip-rule="evenodd" d="M107.466 45.2495L54.0174 55.9305L53.8141 55.1505L107.262 44.4695L107.466 45.2495Z" fill="#FFB54B"/>
<path d="M53.4462 51.9418C55.6601 51.4993 57.8645 52.712 58.3698 54.6504C58.8751 56.5888 57.49 58.5188 55.2761 58.9612C53.0622 59.4037 50.8578 58.1909 50.3525 56.2526C49.8472 54.3142 51.2323 52.3842 53.4462 51.9418Z" fill="#FFB54B"/>
<path d="M106.004 41.4388C108.218 40.9963 110.422 42.2091 110.927 44.1474C111.433 46.0858 110.048 48.0158 107.834 48.4582C105.62 48.9007 103.415 47.688 102.91 45.7496C102.405 43.8112 103.79 41.8812 106.004 41.4388Z" fill="#FFB54B"/>
<path fill-rule="evenodd" clip-rule="evenodd" d="M107.262 55.9304L53.8141 45.2494L54.0174 44.4695L107.466 55.1505L107.262 55.9304Z" fill="#FFB54B"/>
<path d="M55.2761 41.4387C57.49 41.8811 58.8751 43.8111 58.3698 45.7495C57.8645 47.6879 55.6601 48.9006 53.4462 48.4582C51.2323 48.0158 49.8472 46.0857 50.3525 44.1474C50.8578 42.209 53.0622 40.9963 55.2761 41.4387Z" fill="#FFB54B"/>
<path d="M107.834 51.9417C110.048 52.3841 111.433 54.3141 110.927 56.2525C110.422 58.1909 108.218 59.4036 106.004 58.9612C103.79 58.5188 102.405 56.5887 102.91 54.6504C103.415 52.712 105.62 51.4993 107.834 51.9417Z" fill="#FFB54B"/>
<path fill-rule="evenodd" clip-rule="evenodd" d="M101.786 65.4765L58.924 35.549L59.4936 34.9235L102.356 64.851L101.786 65.4765Z" fill="#FFB54B"/>
<path d="M62.1296 32.6711C63.905 33.9107 64.1965 36.1757 62.7807 37.7302C61.3648 39.2847 58.7778 39.5399 57.0024 38.3002C55.227 37.0606 54.9355 34.7955 56.3513 33.2411C57.7672 31.6866 60.3542 31.4314 62.1296 32.6711Z" fill="#FFB54B"/>
<path d="M104.277 62.0998C106.053 63.3394 106.344 65.6045 104.929 67.1589C103.513 68.7134 100.926 68.9686 99.1502 67.729C97.3748 66.4893 97.0833 64.2243 98.4992 62.6698C99.915 61.1153 102.502 60.8601 104.277 62.0998Z" fill="#FFB54B"/>
<path fill-rule="evenodd" clip-rule="evenodd" d="M92.1217 71.9968L68.3349 28.7503L69.1582 28.4032L92.9449 71.6497L92.1217 71.9968Z" fill="#FFB54B"/>
<path d="M72.6493 27.3751C73.6346 29.1664 72.7747 31.3179 70.7288 32.1806C68.6828 33.0432 66.2255 32.2904 65.2402 30.4991C64.255 28.7077 65.1148 26.5563 67.1608 25.6936C69.2067 24.8309 71.664 25.5838 72.6493 27.3751Z" fill="#FFB54B"/>
<path d="M96.0396 69.9008C97.0249 71.6922 96.165 73.8437 94.1191 74.7063C92.0731 75.569 89.6158 74.8161 88.6306 73.0248C87.6453 71.2335 88.5051 69.082 90.5511 68.2193C92.597 67.3567 95.0543 68.1095 96.0396 69.9008Z" fill="#FFB54B"/>
<path fill-rule="evenodd" clip-rule="evenodd" d="M80.1831 74.2L80.1831 26.2H81.0968L81.0968 74.2H80.1831Z" fill="#FFB54B"/>
<path d="M84.7516 26.6C84.7516 28.5882 82.9108 30.2 80.6399 30.2C78.3691 30.2 76.5282 28.5882 76.5282 26.6C76.5282 24.6118 78.3691 23 80.6399 23C82.9108 23 84.7516 24.6118 84.7516 26.6Z" fill="#FFB54B"/>
<path d="M84.7517 73.8C84.7517 75.7882 82.9108 77.4 80.6399 77.4C78.3691 77.4 76.5282 75.7882 76.5282 73.8C76.5282 71.8118 78.3691 70.2 80.6399 70.2C82.9108 70.2 84.7517 71.8118 84.7517 73.8Z" fill="#FFB54B"/>
<path fill-rule="evenodd" clip-rule="evenodd" d="M68.3349 71.6497L92.1217 28.4032L92.9449 28.7503L69.1582 71.9968L68.3349 71.6497Z" fill="#FFB54B"/>
<path d="M96.0396 30.4991C95.0543 32.2905 92.597 33.0433 90.5511 32.1806C88.5051 31.318 87.6453 29.1665 88.6306 27.3752C89.6158 25.5838 92.0731 24.831 94.1191 25.6937C96.165 26.5563 97.0249 28.7078 96.0396 30.4991Z" fill="#FFB54B"/>
<path d="M72.6493 73.0249C71.664 74.8162 69.2067 75.569 67.1608 74.7064C65.1148 73.8437 64.255 71.6922 65.2403 69.9009C66.2255 68.1096 68.6828 67.3567 70.7288 68.2194C72.7747 69.0821 73.6346 71.2335 72.6493 73.0249Z" fill="#FFB54B"/>
</g>
</g>
</svg>
