<svg width="152" height="201" viewBox="0 0 152 201" fill="none" xmlns="http://www.w3.org/2000/svg">
<path d="M102.368 94.2828C106.149 93.133 113.9 88.6667 114.656 80C110.56 81.0496 102.368 85.3757 102.368 94.2828Z" fill="#87C12F"/>
<path d="M108.984 102.721C112.766 103.203 120.517 102.667 121.273 96.6667C118.752 95.8418 112.766 95.8978 108.984 102.721Z" fill="#87C12F"/>
<path d="M94.4603 96.6667C96.6234 95.2778 100.004 90.6667 96.2233 83.3333C94.1027 86.1111 90.7812 92.6667 94.4603 96.6667Z" fill="#87C12F"/>
<path d="M108.039 110.833C108.2 114.028 106.304 120.333 97.4291 120C98.5857 114.333 104.984 111.528 108.039 110.833Z" fill="#87C12F"/>
<path d="M79.2084 103.75C81.5715 103.75 89.3142 105.083 85.4529 117.083C78.2631 108.75 79.2084 104.583 79.2084 103.75Z" fill="#87C12F"/>
<path d="M79.2084 122.083C77.4884 124.861 75.4151 131.5 80.8821 135.833C84.8678 130.833 81.427 124.583 79.2084 122.083Z" fill="#87C12F"/>
<path d="M102.368 126.25C98.744 126.512 91.4969 129.623 91.4969 139.976C99.4372 139.623 102.052 130.678 102.368 126.25Z" fill="#87C12F"/>
<path fill-rule="evenodd" clip-rule="evenodd" d="M108.706 86.0394C108.574 85.9453 108.379 85.9633 108.271 86.0796C105.096 89.5152 100.374 96.0056 95.9572 104.793C95.4701 103.857 94.955 102.213 94.7842 99.8578C94.5795 97.035 94.871 93.2094 96.283 88.4007C96.3256 88.2559 96.2259 88.1082 96.0605 88.071C95.895 88.0338 95.7264 88.121 95.6839 88.2659C94.2573 93.1239 93.9575 97.0066 94.1668 99.8921C94.3662 102.642 95.0294 104.503 95.6367 105.436C93.0737 110.618 90.6281 116.575 88.6663 123.159C88.0579 122.416 87.2384 121.074 86.4579 119.069C85.5064 116.624 84.6196 113.209 84.2432 108.73C84.2307 108.581 84.0824 108.469 83.912 108.48C83.7416 108.491 83.6137 108.621 83.6262 108.77C84.0061 113.291 84.9023 116.751 85.8723 119.244C86.7888 121.598 87.7772 123.105 88.4711 123.821C86.651 130.073 85.2723 136.877 84.6433 144.11C82.7121 141.043 79.7751 134.371 80.4619 127.106C80.476 126.957 80.3494 126.826 80.1791 126.813C80.0089 126.801 79.8594 126.912 79.8453 127.061C79.0822 135.134 82.7023 142.47 84.6179 145.144L84.7895 145.383L85.0555 145.223C88.0693 143.405 94.9547 138.262 98.3908 132.204C98.4668 132.07 98.4044 131.907 98.2513 131.841C98.0983 131.774 97.9127 131.829 97.8367 131.963C94.6544 137.574 88.4223 142.416 85.2349 144.448C85.8489 137.137 87.2341 130.262 89.0714 123.952C90.9598 123.31 93.9064 122.139 96.8146 120.64C99.7937 119.104 102.767 117.206 104.506 115.162C104.608 115.042 104.58 114.872 104.443 114.783C104.306 114.693 104.112 114.718 104.01 114.838C102.346 116.794 99.4615 118.646 96.5007 120.173C93.8296 121.55 91.1246 122.648 89.2625 123.304C91.2133 116.755 93.645 110.829 96.1936 105.673C98.2421 105.518 101.56 105.057 105.117 104.156C108.78 103.228 112.72 101.827 115.788 99.7994C115.924 99.7093 115.951 99.5395 115.848 99.4201C115.745 99.3007 115.551 99.277 115.415 99.3672C112.432 101.339 108.573 102.717 104.945 103.636C101.616 104.479 98.5025 104.931 96.4758 105.106C100.889 96.3056 105.606 89.824 108.752 86.4203C108.86 86.3041 108.839 86.1335 108.706 86.0394Z" fill="#0A3019"/>
<path d="M80.9421 55C83.4015 69.6465 86.8448 103.883 80.9421 123.655C73.5638 148.371 66.7531 184.072 76.4016 200" stroke="#0A3019" stroke-linecap="round"/>
<path fill-rule="evenodd" clip-rule="evenodd" d="M17.779 126.984C17.6366 127.07 17.6015 127.242 17.7006 127.366C23.5613 134.741 30.6048 138.975 36.6384 141.255C41.0858 142.935 44.9924 143.557 47.4799 143.589C48.1316 144.545 48.8168 145.519 49.5368 146.508C54.8727 153.836 62.1175 161.995 71.758 170.276C71.8818 170.382 72.0806 170.381 72.2021 170.272C72.3236 170.164 72.3217 169.99 72.1979 169.883C62.6507 161.682 55.4652 153.604 50.1634 146.345C51.1335 144.68 52.2509 142.412 53.297 139.739C54.3961 136.93 55.418 133.67 56.1076 130.19C56.3382 129.026 56.5316 127.838 56.6784 126.633C57.3385 121.215 57.0552 115.459 54.9454 110.16C54.8883 110.016 54.7093 109.94 54.5455 109.99C54.3817 110.04 54.2952 110.197 54.3523 110.341C56.4223 115.541 56.7075 121.209 56.0537 126.575C55.9085 127.767 55.717 128.943 55.4887 130.096C54.8055 133.544 53.7926 136.775 52.7027 139.56C51.7251 142.059 50.6867 144.195 49.7711 145.805C49.129 144.915 48.5153 144.037 47.9293 143.174C41.0772 133.083 34.7379 117.968 33.9873 113.801C33.9603 113.651 33.7995 113.549 33.6282 113.573C33.4568 113.596 33.3398 113.737 33.3668 113.887C34.1226 118.083 40.4228 133.093 47.1013 143.029C44.6947 142.942 41.0421 142.32 36.8873 140.75C30.951 138.507 24.004 134.335 18.2162 127.052C18.1171 126.928 17.9214 126.897 17.779 126.984Z" fill="#0A3019"/>
<path fill-rule="evenodd" clip-rule="evenodd" d="M20.3333 120.408C20.261 120.512 20.2984 120.647 20.4169 120.71C21.671 121.84 21.6638 121.932 24.0317 124.557C26.0432 126.788 28.1319 129.388 30.0763 131.958C27.82 130.252 24.8631 128.083 22.0756 126.176C20.376 125.014 21.4858 125.752 20.1047 124.946C19.4143 124.544 18.7853 124.204 18.2437 123.95C17.7072 123.699 17.2382 123.523 16.8725 123.459C16.7364 123.436 16.6042 123.513 16.5773 123.632C16.5504 123.752 16.6389 123.867 16.7751 123.891C17.0645 123.941 17.4795 124.091 18.0066 124.338C18.5286 124.583 19.1429 124.914 19.826 125.313C21.192 126.11 20.071 125.363 21.7662 126.523C25.1434 128.833 28.7729 131.531 31.0944 133.319C33.272 136.259 35.2026 139.062 36.5448 141.112C36.6139 141.217 36.7674 141.254 36.8878 141.193C37.0082 141.133 37.0498 140.998 36.9808 140.893C35.6302 138.831 33.6876 136.011 31.4972 133.054C29.2772 130.057 26.8004 126.918 24.4261 124.285C22.0588 121.66 22.215 121.565 20.6787 120.335C20.5602 120.271 20.4056 120.304 20.3333 120.408ZM58.7278 107.968C58.5891 107.968 58.4771 108.067 58.4777 108.189C58.4867 109.964 59.1516 117.959 59.4869 121.783C58.375 123.829 57.1048 125.479 56.1726 126.464C56.084 126.557 56.0988 126.696 56.2057 126.774C56.3125 126.851 56.4709 126.838 56.5595 126.745C57.5277 125.722 58.834 124.02 59.9696 121.919C61.6314 118.844 62.9424 114.888 62.2641 110.939C62.2434 110.819 62.1155 110.736 61.9782 110.754C61.841 110.772 61.7465 110.884 61.7671 111.005C62.3697 114.513 61.354 118.051 59.9185 120.952C59.5683 116.904 58.9886 109.827 58.9802 108.187C58.9796 108.065 58.8666 107.967 58.7278 107.968ZM51.4196 115.506C51.2841 115.479 51.1499 115.554 51.1199 115.673C50.8882 116.587 50.9446 117.748 51.1762 119.013C51.4085 120.281 51.8209 121.671 52.3171 123.052C53.3096 125.814 54.6442 128.556 55.5718 130.239C55.6321 130.348 55.7823 130.394 55.9073 130.341C56.0323 130.288 56.0847 130.157 56.0244 130.047C55.1051 128.38 53.7803 125.658 52.7965 122.92C52.3046 121.552 51.8996 120.183 51.6724 118.943C51.4445 117.699 51.3991 116.602 51.6105 115.768C51.6405 115.65 51.5551 115.532 51.4196 115.506ZM46.1787 121.582C46.055 121.637 46.0056 121.769 46.0684 121.877C48.1499 125.469 48.8144 129.776 48.792 133.715C48.7697 137.652 48.0612 141.2 47.4169 143.257C47.3802 143.374 47.4589 143.495 47.5928 143.527C47.7266 143.559 47.8648 143.49 47.9016 143.373C48.5572 141.28 49.272 137.694 49.2946 133.717C49.3171 129.742 48.6483 125.356 46.5165 121.678C46.4537 121.57 46.3025 121.527 46.1787 121.582ZM26.6909 139.157C26.6758 139.278 26.7754 139.386 26.9133 139.4C29.175 139.617 31.7947 140.761 34.1691 142.127C36.1885 143.289 38.0071 144.597 39.2423 145.59C36.0302 145.135 32.4147 144.386 28.7241 143.198C28.5939 143.156 28.4495 143.214 28.4016 143.328C28.3537 143.442 28.4204 143.569 28.5506 143.61C32.5874 144.911 36.5327 145.689 39.9657 146.133C44.3992 146.706 47.9871 146.722 49.8239 146.579C49.9621 146.568 50.0642 146.461 50.0519 146.34C50.0396 146.219 49.9176 146.13 49.7793 146.141C47.9994 146.279 44.4837 146.267 40.1191 145.708C38.8915 144.669 36.8044 143.116 34.445 141.759C32.0547 140.384 29.3524 139.191 26.9681 138.962C26.8301 138.949 26.706 139.036 26.6909 139.157ZM62.9769 124.675C62.8658 124.602 62.7083 124.622 62.6252 124.72C62.3141 125.084 61.9566 125.785 61.585 126.653C61.2094 127.53 60.8083 128.603 60.4157 129.732C59.6412 131.959 58.8958 134.411 58.4382 136.017C56.2717 137.666 54.1693 138.857 52.882 139.455C52.7594 139.512 52.7128 139.645 52.7778 139.752C52.8428 139.86 52.9949 139.901 53.1175 139.844C54.4521 139.224 56.613 137.996 58.8281 136.303C61.1276 134.545 63.4979 132.276 65.06 129.652C65.1241 129.545 65.0764 129.412 64.9533 129.356C64.8302 129.299 64.6785 129.341 64.6143 129.449C63.2272 131.779 61.1778 133.835 59.1073 135.495C59.5658 133.923 60.2203 131.805 60.8965 129.86C61.2876 128.736 61.6852 127.672 62.0555 126.808C62.4298 125.934 62.7655 125.29 63.0276 124.983C63.1107 124.886 63.088 124.748 62.9769 124.675Z" fill="#0A3019"/>
<ellipse cx="1.52394" cy="1.42637" rx="1.52394" ry="1.42637" transform="matrix(-0.892456 0.451134 0.550503 0.834833 59.2495 106.337)" fill="#FD6565"/>
<ellipse cx="1.52394" cy="1.42637" rx="1.52394" ry="1.42637" transform="matrix(-0.892456 0.451134 0.550503 0.834833 52.1157 113.118)" fill="#FD6565"/>
<ellipse cx="1.52394" cy="1.42637" rx="1.52394" ry="1.42637" transform="matrix(-0.892456 0.451134 0.550503 0.834833 46.9282 119.551)" fill="#FD6565"/>
<ellipse cx="1.52394" cy="1.42637" rx="1.52394" ry="1.42637" transform="matrix(-0.892456 0.451134 0.550503 0.834833 27.3042 137.092)" fill="#FD6565"/>
<ellipse cx="1.52394" cy="1.42638" rx="1.52394" ry="1.42638" transform="matrix(-0.892456 0.451134 0.550503 0.834833 28.729 141.453)" fill="#FD6565"/>
<ellipse cx="1.52394" cy="1.42638" rx="1.52394" ry="1.42638" transform="matrix(-0.892456 0.451134 0.550503 0.834833 62.918 122.9)" fill="#FD6565"/>
<ellipse cx="1.52394" cy="1.42638" rx="1.52394" ry="1.42638" transform="matrix(-0.892456 0.451134 0.550503 0.834833 65.2007 127.462)" fill="#FD6565"/>
<ellipse cx="1.82872" cy="1.71165" rx="1.82872" ry="1.71165" transform="matrix(-0.892456 0.451134 0.550503 0.834833 62.7661 108.37)" fill="#FD6565"/>
<ellipse cx="1.52394" cy="1.42637" rx="1.52394" ry="1.42637" transform="matrix(-0.892456 0.451134 0.550503 0.834833 22.1494 119.375)" fill="#FD6565"/>
<ellipse cx="1.52394" cy="1.42637" rx="1.52394" ry="1.42637" transform="matrix(-0.892456 0.451134 0.550503 0.834833 17.5674 122.326)" fill="#FD6565"/>
<path fill-rule="evenodd" clip-rule="evenodd" d="M128.345 140.236C128.482 140.33 128.506 140.502 128.399 140.622C122.079 147.7 114.777 151.584 108.608 153.566C104.06 155.027 100.12 155.458 97.6347 155.368C96.9232 156.292 96.1772 157.23 95.3954 158.183C89.6021 165.239 81.8499 173.033 71.6981 180.831C71.5677 180.931 71.3692 180.92 71.2548 180.806C71.1404 180.692 71.1534 180.518 71.2838 180.418C81.3374 172.695 89.0252 164.979 94.7801 157.99C93.9173 156.28 92.9459 153.961 92.0713 151.241C91.1525 148.383 90.3393 145.078 89.872 141.57C89.7157 140.397 89.5981 139.201 89.5281 137.991C89.2133 132.549 89.862 126.816 92.3054 121.627C92.3715 121.487 92.5551 121.42 92.7155 121.478C92.8759 121.536 92.9523 121.697 92.8861 121.837C90.4888 126.928 89.8438 132.574 90.1555 137.963C90.2247 139.16 90.3411 140.344 90.4959 141.506C90.9589 144.982 91.7649 148.258 92.676 151.092C93.4933 153.634 94.3943 155.818 95.2062 157.469C95.9039 156.612 96.5723 155.766 97.2124 154.933C104.695 145.19 111.985 130.408 113 126.284C113.036 126.136 113.203 126.042 113.373 126.074C113.542 126.106 113.65 126.252 113.614 126.4C112.592 130.552 105.348 145.232 98.0482 154.828C100.457 154.859 104.143 154.415 108.391 153.05C114.461 151.1 121.662 147.273 127.904 140.283C128.011 140.164 128.208 140.143 128.345 140.236Z" fill="#0A3019"/>
<path fill-rule="evenodd" clip-rule="evenodd" d="M126.213 133.546C126.278 133.653 126.232 133.787 126.11 133.844C124.786 134.91 124.787 135.003 122.256 137.509C120.106 139.638 117.855 142.133 115.751 144.604C118.112 143.01 121.202 140.988 124.106 139.22C125.877 138.143 124.722 138.826 126.152 138.089C126.867 137.72 127.517 137.412 128.074 137.185C128.625 136.96 129.105 136.807 129.474 136.761C129.611 136.744 129.738 136.828 129.758 136.949C129.777 137.069 129.681 137.18 129.544 137.197C129.252 137.233 128.828 137.363 128.286 137.584C127.749 137.803 127.115 138.103 126.407 138.468C124.993 139.197 126.159 138.507 124.393 139.582C120.874 141.724 117.079 144.241 114.647 145.913C112.286 148.743 110.181 151.447 108.71 153.428C108.635 153.53 108.479 153.559 108.363 153.493C108.246 153.426 108.213 153.29 108.289 153.188C109.768 151.195 111.887 148.474 114.262 145.629C116.669 142.745 119.342 139.731 121.88 137.218C124.41 134.712 124.26 134.609 125.872 133.456C125.995 133.399 126.147 133.439 126.213 133.546ZM88.6682 119.254C88.8067 119.262 88.9122 119.366 88.9039 119.487C88.7821 121.259 87.6101 129.209 87.0322 133.012C88.0124 135.108 89.1757 136.818 90.0439 137.847C90.1264 137.944 90.1028 138.082 89.9912 138.154C89.8796 138.226 89.7222 138.206 89.6397 138.108C88.738 137.04 87.542 135.277 86.5416 133.123C85.0778 129.973 84.0203 125.959 84.9485 122.049C84.9768 121.93 85.1098 121.854 85.2457 121.878C85.3816 121.903 85.4688 122.02 85.4406 122.139C84.6159 125.612 85.4052 129.194 86.6541 132.16C87.2611 128.136 88.2897 121.098 88.4023 119.461C88.4106 119.34 88.5296 119.247 88.6682 119.254ZM95.486 127.137C95.6229 127.117 95.7521 127.198 95.7746 127.318C95.9478 128.242 95.8177 129.399 95.5061 130.65C95.1935 131.905 94.6935 133.274 94.1102 134.628C92.9437 137.337 91.4369 140.01 90.4038 141.645C90.3367 141.751 90.1838 141.789 90.0623 141.731C89.9409 141.672 89.8969 141.538 89.9641 141.432C90.9879 139.811 92.4837 137.158 93.64 134.473C94.2181 133.13 94.7094 131.784 95.0151 130.557C95.3217 129.325 95.4367 128.233 95.2787 127.39C95.2562 127.27 95.349 127.157 95.486 127.137ZM100.333 133.459C100.453 133.52 100.494 133.654 100.424 133.759C98.1174 137.244 97.1801 141.512 96.9521 145.446C96.7242 149.378 97.2061 152.955 97.7187 155.04C97.7479 155.159 97.6616 155.276 97.5259 155.301C97.3902 155.327 97.2566 155.251 97.2274 155.132C96.7058 153.011 96.22 149.395 96.4502 145.424C96.6804 141.454 97.6269 137.107 99.9892 133.539C100.059 133.434 100.213 133.398 100.333 133.459ZM118.673 151.956C118.681 152.078 118.574 152.181 118.436 152.188C116.164 152.294 113.475 153.309 111.018 154.557C108.928 155.619 107.029 156.836 105.732 157.767C108.968 157.47 112.626 156.898 116.386 155.892C116.519 155.856 116.659 155.921 116.7 156.038C116.741 156.154 116.666 156.277 116.533 156.312C112.42 157.414 108.431 157.999 104.976 158.275C100.512 158.631 96.9291 158.472 95.1043 158.24C94.967 158.222 94.8718 158.111 94.8918 157.99C94.9117 157.87 95.0393 157.787 95.1766 157.804C96.945 158.029 100.456 158.188 104.849 157.843C106.141 156.866 108.324 155.417 110.766 154.177C113.24 152.92 116.014 151.861 118.409 151.748C118.547 151.742 118.666 151.835 118.673 151.956ZM83.3638 135.729C83.4793 135.662 83.6353 135.689 83.7121 135.791C83.9996 136.169 84.3119 136.887 84.6279 137.772C84.9471 138.666 85.2793 139.757 85.5996 140.903C86.2314 143.164 86.8197 145.649 87.1746 147.275C89.2329 149.026 91.2564 150.318 92.5036 150.978C92.6224 151.041 92.6606 151.176 92.5888 151.28C92.5171 151.384 92.3626 151.417 92.2438 151.354C90.9507 150.671 88.8712 149.34 86.7671 147.541C84.5829 145.674 82.3604 143.293 80.9676 140.597C80.9104 140.486 80.9665 140.356 81.093 140.306C81.2194 140.256 81.3683 140.305 81.4255 140.416C82.6623 142.81 84.5779 144.962 86.5398 146.72C86.1819 145.129 85.663 142.982 85.1114 141.008C84.7924 139.866 84.463 138.784 84.1482 137.903C83.8301 137.012 83.5358 136.353 83.2936 136.034C83.2168 135.933 83.2482 135.796 83.3638 135.729Z" fill="#0A3019"/>
<ellipse cx="1.51453" cy="1.43636" rx="1.51453" ry="1.43636" transform="matrix(0.867758 0.496986 -0.598519 0.801109 88.251 117.601)" fill="#FD6565"/>
<ellipse cx="1.51453" cy="1.43636" rx="1.51453" ry="1.43636" transform="matrix(0.867758 0.496986 -0.598519 0.801109 94.9429 124.719)" fill="#FD6565"/>
<ellipse cx="1.51453" cy="1.43636" rx="1.51453" ry="1.43636" transform="matrix(0.867758 0.496986 -0.598519 0.801109 99.7139 131.395)" fill="#FD6565"/>
<ellipse cx="1.51453" cy="1.43636" rx="1.51453" ry="1.43636" transform="matrix(0.867758 0.496986 -0.598519 0.801109 118.192 149.865)" fill="#FD6565"/>
<ellipse cx="1.51453" cy="1.43636" rx="1.51453" ry="1.43636" transform="matrix(0.867758 0.496986 -0.598519 0.801109 116.493 154.149)" fill="#FD6565"/>
<ellipse cx="1.51453" cy="1.43636" rx="1.51453" ry="1.43636" transform="matrix(0.867758 0.496986 -0.598519 0.801109 83.5356 133.959)" fill="#FD6565"/>
<ellipse cx="1.51453" cy="1.43636" rx="1.51453" ry="1.43636" transform="matrix(0.867758 0.496986 -0.598519 0.801109 80.9663 138.403)" fill="#FD6565"/>
<ellipse cx="1.81743" cy="1.72363" rx="1.81743" ry="1.72363" transform="matrix(0.867758 0.496986 -0.598519 0.801109 84.6108 119.459)" fill="#FD6565"/>
<ellipse cx="1.51453" cy="1.43636" rx="1.51453" ry="1.43636" transform="matrix(0.867758 0.496986 -0.598519 0.801109 124.465 132.426)" fill="#FD6565"/>
<ellipse cx="1.51453" cy="1.43636" rx="1.51453" ry="1.43636" transform="matrix(0.867758 0.496986 -0.598519 0.801109 128.853 135.596)" fill="#FD6565"/>
<path d="M48.8858 7.80153C34.9394 13.2321 37.2638 28.1662 40.1693 34.9544C34.3584 36.3686 22.9302 42.5912 23.705 56.1676C24.4798 69.7441 42.1064 71.4411 50.8229 70.5926C48.4985 88.9208 66.6417 94.6342 76.0038 95.1999C100.797 94.5211 103.767 77.9465 102.153 69.7441C117.649 79.9264 127.98 72.8553 131.208 68.047C138.956 51.0765 123.46 41.177 114.744 38.3485C127.141 27.4874 119.909 16.8525 114.744 12.8927C96.1486 -0.68373 83.1062 12.327 78.9093 20.5294C74.7125 14.0241 62.8322 2.37096 48.8858 7.80153Z" fill="#CDCDCD"/>
<path d="M63.376 10.6425C51.7963 15.1052 48.5156 31.0751 50.928 36.6534C46.1032 37.8156 36.6144 42.9291 37.2577 54.0859C37.901 65.2426 52.5364 66.6372 59.7737 65.9399C57.8438 81.0015 71.0986 83.9996 78.872 84.4645C96.3049 83.616 99.5822 72.6804 98.2419 65.9399C111.108 74.3075 123.837 67.7994 126.518 63.848C132.951 49.9021 124.927 40.9683 117.69 38.644C127.983 29.7186 120.817 17.6932 117.612 14.8852C104.053 3.00582 88.5569 3.85438 78.872 19.9763C76.935 16.5822 71.124 7.6565 63.376 10.6425Z" fill="white"/>
<path d="M54.7773 85.677L74.1104 56.3391L50.8308 76.735C50.7074 75.8819 50.6361 74.9926 50.6219 74.0661L72.4849 54.9113L41.7205 70.473C40.5679 70.3368 39.4006 70.1501 38.2432 69.9038L71.3388 53.1629L28.6719 63.1793L28.0761 61.2323L70.7431 51.2158L26.571 51.2159L26.5708 49.2004L70.745 49.2004L30.7716 39.8164C31.4653 39.2345 32.179 38.706 32.8973 38.2288L71.3384 47.2531L38.7949 30.7916C38.5918 29.9665 38.4159 29.0993 38.279 28.2032L72.4895 45.508L41.2544 18.1421L41.3216 18.0832L39.4563 16.4489C39.7466 15.7804 40.0849 15.1263 40.4759 14.4919L73.9315 43.8033L52.0292 10.5666L54.0214 9.55885L76.1078 43.0744L65.5775 8.64292C66.571 9.11776 67.5279 9.65181 68.4441 10.2289L78.3296 42.5521L78.3296 19.6688C78.5366 19.964 78.7301 20.2514 78.9094 20.5295C79.3756 19.6184 79.9509 18.648 80.6308 17.6614L80.6308 42.5501L90.9698 8.74382C91.8285 8.35645 92.724 8.02248 93.6551 7.7533L82.8537 43.0711L104.938 9.55842L106.93 10.5661L106.932 10.5669L84.8464 44.081L116.079 16.717L116.08 16.7178L117.707 18.1427L86.4739 45.5071L121.394 27.8433C121.238 28.7336 120.983 29.6426 120.614 30.5659L87.626 47.2524L118.721 39.9525C119.613 40.38 120.524 40.8632 121.435 41.4024L88.2181 49.2004L130.126 49.2004C130.57 49.8456 130.978 50.5174 131.344 51.2159L88.2184 51.2158L130.884 61.232L130.289 63.1789L87.6216 53.1623L125.878 72.5134L125.603 72.9301C125.024 73.2362 124.409 73.5186 123.759 73.7691L86.7903 55.0692L106.223 72.0944C104.909 71.442 103.552 70.6634 102.153 69.7441C102.276 70.3659 102.372 71.0357 102.434 71.7431L84.8449 56.3329L101.171 81.1072C100.869 81.9087 100.509 82.7068 100.086 83.4924L82.8525 57.3409L93.094 90.828C92.4552 91.2246 91.7768 91.6009 91.0569 91.9542L80.6308 57.8634V94.865C79.8876 94.9553 79.1208 95.0292 78.3296 95.0859L78.3296 57.8638L67.4079 93.5751C66.6926 93.3502 65.9731 93.0999 65.2558 92.8226L76.1062 57.3443L56.333 87.3501C55.7851 86.8241 55.2647 86.2668 54.7773 85.677Z" fill="#9B9B9B"/>
<path d="M89.4093 34.0886C94.8296 36.1643 93.9262 41.8724 92.797 44.467C95.0554 45.0075 99.497 47.3859 99.1959 52.5751C98.8948 57.7642 92.0441 58.4129 88.6565 58.0886C89.5598 65.094 82.5085 67.2778 78.8699 67.494C69.2338 67.2345 68.0795 60.8994 68.7069 57.7642C62.6843 61.6561 58.6693 58.9534 57.4146 57.1156C54.4034 50.6291 60.4259 46.8453 63.8136 45.7643C58.9956 41.6129 61.8061 37.548 63.8136 36.0345C71.0406 30.8454 76.1096 35.8183 77.7407 38.9534C79.3718 36.467 83.9891 32.0129 89.4093 34.0886Z" fill="#9B9B9B"/>
<path d="M84.6248 42.306C87.335 43.3438 86.8833 46.1978 86.3187 47.4951C87.4479 47.7654 89.6687 48.9546 89.5181 51.5492C89.3675 54.1438 85.9422 54.4681 84.2484 54.3059C84.7001 57.8086 81.1744 58.9005 79.3551 59.0086C74.5371 58.8789 73.9599 55.7113 74.2736 54.1438C71.2623 56.0897 69.2548 54.7384 68.6275 53.8195C67.1219 50.5762 70.1331 48.6843 71.827 48.1438C69.4179 46.0681 70.8232 44.0357 71.827 43.2789C75.4405 40.6843 77.9749 43.1708 78.7905 44.7384C79.606 43.4951 81.9147 41.2681 84.6248 42.306Z" fill="white"/>
<g style="mix-blend-mode:multiply">
<path d="M48.8858 7.80153C34.9394 13.2321 37.2638 28.1662 40.1693 34.9544C34.3584 36.3686 22.9302 42.5912 23.705 56.1676C24.4798 69.7441 42.1064 71.4411 50.8229 70.5926C48.4985 88.9208 66.6417 94.6342 76.0038 95.1999C100.797 94.5211 103.767 77.9465 102.153 69.7441C117.649 79.9264 127.98 72.8553 131.208 68.047C138.956 51.0765 123.46 41.177 114.744 38.3485C127.141 27.4874 119.909 16.8525 114.744 12.8927C96.1486 -0.68373 83.1062 12.327 78.9093 20.5294C74.7125 14.0241 62.8322 2.37096 48.8858 7.80153Z" fill="#87C12F"/>
<path d="M63.376 10.6425C51.7963 15.1052 48.5156 31.0751 50.928 36.6534C46.1032 37.8156 36.6144 42.9291 37.2577 54.0859C37.901 65.2426 52.5364 66.6372 59.7737 65.9399C57.8438 81.0015 71.0986 83.9996 78.872 84.4645C96.3049 83.616 99.5822 72.6804 98.2419 65.9399C111.108 74.3075 123.837 67.7994 126.518 63.848C132.951 49.9021 124.927 40.9683 117.69 38.644C127.983 29.7186 120.817 17.6932 117.612 14.8852C104.053 3.00582 88.5569 3.85438 78.872 19.9763C76.935 16.5822 71.124 7.6565 63.376 10.6425Z" fill="#87C12F"/>
<path d="M54.7773 85.677L74.1104 56.3391L50.8308 76.735C50.7074 75.8819 50.6361 74.9926 50.6219 74.0661L72.4849 54.9113L41.7205 70.473C40.5679 70.3368 39.4006 70.1501 38.2432 69.9038L71.3388 53.1629L28.6719 63.1793L28.0761 61.2323L70.7431 51.2158L26.571 51.2159L26.5708 49.2004L70.745 49.2004L30.7716 39.8164C31.4653 39.2345 32.179 38.706 32.8973 38.2288L71.3384 47.2531L38.7949 30.7916C38.5918 29.9665 38.4159 29.0993 38.279 28.2032L72.4895 45.508L41.2544 18.1421L41.3216 18.0832L39.4563 16.4489C39.7466 15.7804 40.0849 15.1263 40.4759 14.4919L73.9315 43.8033L52.0292 10.5666L54.0214 9.55885L76.1078 43.0744L65.5775 8.64292C66.571 9.11776 67.5279 9.65181 68.4441 10.2289L78.3296 42.5521L78.3296 19.6688C78.5366 19.964 78.7301 20.2514 78.9094 20.5295C79.3756 19.6184 79.9509 18.648 80.6308 17.6614L80.6308 42.5501L90.9698 8.74382C91.8285 8.35645 92.724 8.02248 93.6551 7.7533L82.8537 43.0711L104.938 9.55842L106.93 10.5661L106.932 10.5669L84.8464 44.081L116.079 16.717L116.08 16.7178L117.707 18.1427L86.4739 45.5071L121.394 27.8433C121.238 28.7336 120.983 29.6426 120.614 30.5659L87.626 47.2524L118.721 39.9525C119.613 40.38 120.524 40.8632 121.435 41.4024L88.2181 49.2004L130.126 49.2004C130.57 49.8456 130.978 50.5174 131.344 51.2159L88.2184 51.2158L130.884 61.232L130.289 63.1789L87.6216 53.1623L125.878 72.5134L125.603 72.9301C125.024 73.2362 124.409 73.5186 123.759 73.7691L86.7903 55.0692L106.223 72.0944C104.909 71.442 103.552 70.6634 102.153 69.7441C102.276 70.3659 102.372 71.0357 102.434 71.7431L84.8449 56.3329L101.171 81.1072C100.869 81.9087 100.509 82.7068 100.086 83.4924L82.8525 57.3409L93.094 90.828C92.4552 91.2246 91.7768 91.6009 91.0569 91.9542L80.6308 57.8634V94.865C79.8876 94.9553 79.1208 95.0292 78.3296 95.0859L78.3296 57.8638L67.4079 93.5751C66.6926 93.3502 65.9731 93.0999 65.2558 92.8226L76.1062 57.3443L56.333 87.3501C55.7851 86.8241 55.2647 86.2668 54.7773 85.677Z" fill="#87C12F"/>
<path d="M89.4093 34.0886C94.8296 36.1643 93.9262 41.8724 92.797 44.467C95.0554 45.0075 99.497 47.3859 99.1959 52.5751C98.8948 57.7642 92.0441 58.4129 88.6565 58.0886C89.5598 65.094 82.5085 67.2778 78.8699 67.494C69.2338 67.2345 68.0795 60.8994 68.7069 57.7642C62.6843 61.6561 58.6693 58.9534 57.4146 57.1156C54.4034 50.6291 60.4259 46.8453 63.8136 45.7643C58.9956 41.6129 61.8061 37.548 63.8136 36.0345C71.0406 30.8454 76.1096 35.8183 77.7407 38.9534C79.3718 36.467 83.9891 32.0129 89.4093 34.0886Z" fill="#87C12F"/>
<path d="M84.6248 42.306C87.335 43.3438 86.8833 46.1978 86.3187 47.4951C87.4479 47.7654 89.6687 48.9546 89.5181 51.5492C89.3675 54.1438 85.9422 54.4681 84.2484 54.3059C84.7001 57.8086 81.1744 58.9005 79.3551 59.0086C74.5371 58.8789 73.9599 55.7113 74.2736 54.1438C71.2623 56.0897 69.2548 54.7384 68.6275 53.8195C67.1219 50.5762 70.1331 48.6843 71.827 48.1438C69.4179 46.0681 70.8232 44.0357 71.827 43.2789C75.4405 40.6843 77.9749 43.1708 78.7905 44.7384C79.606 43.4951 81.9147 41.2681 84.6248 42.306Z" fill="#87C12F"/>
</g>
<g style="mix-blend-mode:soft-light">
<path d="M48.8858 7.80153C34.9394 13.2321 37.2638 28.1662 40.1693 34.9544C34.3584 36.3686 22.9302 42.5912 23.705 56.1676C24.4798 69.7441 42.1064 71.4411 50.8229 70.5926C48.4985 88.9208 66.6417 94.6342 76.0038 95.1999C100.797 94.5211 103.767 77.9465 102.153 69.7441C117.649 79.9264 127.98 72.8553 131.208 68.047C138.956 51.0765 123.46 41.177 114.744 38.3485C127.141 27.4874 119.909 16.8525 114.744 12.8927C96.1486 -0.68373 83.1062 12.327 78.9093 20.5294C74.7125 14.0241 62.8322 2.37096 48.8858 7.80153Z" fill="#87C12F"/>
<path d="M63.376 10.6425C51.7963 15.1052 48.5156 31.0751 50.928 36.6534C46.1032 37.8156 36.6144 42.9291 37.2577 54.0859C37.901 65.2426 52.5364 66.6372 59.7737 65.9399C57.8438 81.0015 71.0986 83.9996 78.872 84.4645C96.3049 83.616 99.5822 72.6804 98.2419 65.9399C111.108 74.3075 123.837 67.7994 126.518 63.848C132.951 49.9021 124.927 40.9683 117.69 38.644C127.983 29.7186 120.817 17.6932 117.612 14.8852C104.053 3.00582 88.5569 3.85438 78.872 19.9763C76.935 16.5822 71.124 7.6565 63.376 10.6425Z" fill="#87C12F"/>
<path d="M54.7773 85.677L74.1104 56.3391L50.8308 76.735C50.7074 75.8819 50.6361 74.9926 50.6219 74.0661L72.4849 54.9113L41.7205 70.473C40.5679 70.3368 39.4006 70.1501 38.2432 69.9038L71.3388 53.1629L28.6719 63.1793L28.0761 61.2323L70.7431 51.2158L26.571 51.2159L26.5708 49.2004L70.745 49.2004L30.7716 39.8164C31.4653 39.2345 32.179 38.706 32.8973 38.2288L71.3384 47.2531L38.7949 30.7916C38.5918 29.9665 38.4159 29.0993 38.279 28.2032L72.4895 45.508L41.2544 18.1421L41.3216 18.0832L39.4563 16.4489C39.7466 15.7804 40.0849 15.1263 40.4759 14.4919L73.9315 43.8033L52.0292 10.5666L54.0214 9.55885L76.1078 43.0744L65.5775 8.64292C66.571 9.11776 67.5279 9.65181 68.4441 10.2289L78.3296 42.5521L78.3296 19.6688C78.5366 19.964 78.7301 20.2514 78.9094 20.5295C79.3756 19.6184 79.9509 18.648 80.6308 17.6614L80.6308 42.5501L90.9698 8.74382C91.8285 8.35645 92.724 8.02248 93.6551 7.7533L82.8537 43.0711L104.938 9.55842L106.93 10.5661L106.932 10.5669L84.8464 44.081L116.079 16.717L116.08 16.7178L117.707 18.1427L86.4739 45.5071L121.394 27.8433C121.238 28.7336 120.983 29.6426 120.614 30.5659L87.626 47.2524L118.721 39.9525C119.613 40.38 120.524 40.8632 121.435 41.4024L88.2181 49.2004L130.126 49.2004C130.57 49.8456 130.978 50.5174 131.344 51.2159L88.2184 51.2158L130.884 61.232L130.289 63.1789L87.6216 53.1623L125.878 72.5134L125.603 72.9301C125.024 73.2362 124.409 73.5186 123.759 73.7691L86.7903 55.0692L106.223 72.0944C104.909 71.442 103.552 70.6634 102.153 69.7441C102.276 70.3659 102.372 71.0357 102.434 71.7431L84.8449 56.3329L101.171 81.1072C100.869 81.9087 100.509 82.7068 100.086 83.4924L82.8525 57.3409L93.094 90.828C92.4552 91.2246 91.7768 91.6009 91.0569 91.9542L80.6308 57.8634V94.865C79.8876 94.9553 79.1208 95.0292 78.3296 95.0859L78.3296 57.8638L67.4079 93.5751C66.6926 93.3502 65.9731 93.0999 65.2558 92.8226L76.1062 57.3443L56.333 87.3501C55.7851 86.8241 55.2647 86.2668 54.7773 85.677Z" fill="#87C12F"/>
<path d="M89.4093 34.0886C94.8296 36.1643 93.9262 41.8724 92.797 44.467C95.0554 45.0075 99.497 47.3859 99.1959 52.5751C98.8948 57.7642 92.0441 58.4129 88.6565 58.0886C89.5598 65.094 82.5085 67.2778 78.8699 67.494C69.2338 67.2345 68.0795 60.8994 68.7069 57.7642C62.6843 61.6561 58.6693 58.9534 57.4146 57.1156C54.4034 50.6291 60.4259 46.8453 63.8136 45.7643C58.9956 41.6129 61.8061 37.548 63.8136 36.0345C71.0406 30.8454 76.1096 35.8183 77.7407 38.9534C79.3718 36.467 83.9891 32.0129 89.4093 34.0886Z" fill="#87C12F"/>
<path d="M84.6248 42.306C87.335 43.3438 86.8833 46.1978 86.3187 47.4951C87.4479 47.7654 89.6687 48.9546 89.5181 51.5492C89.3675 54.1438 85.9422 54.4681 84.2484 54.3059C84.7001 57.8086 81.1744 58.9005 79.3551 59.0086C74.5371 58.8789 73.9599 55.7113 74.2736 54.1438C71.2623 56.0897 69.2548 54.7384 68.6275 53.8195C67.1219 50.5762 70.1331 48.6843 71.827 48.1438C69.4179 46.0681 70.8232 44.0357 71.827 43.2789C75.4405 40.6843 77.9749 43.1708 78.7905 44.7384C79.606 43.4951 81.9147 41.2681 84.6248 42.306Z" fill="#87C12F"/>
</g>
<path d="M37.8756 124.118C42.2777 111.116 38.1069 101.743 35.4712 98.6824C25.4251 84.3603 14.6407 92.5306 13.2381 97.2758C8.56368 113.089 27.8735 121.968 37.8756 124.118Z" fill="#CDCDCD"/>
<path d="M38.1586 123.208C40.7857 111.439 38.1394 103.83 35.9824 100.907C27.6182 87.3287 18.5402 94.2134 18.0916 97.5192C15.4101 111.861 30.483 120.819 38.1586 123.208Z" fill="white"/>
<path d="M23.4924 118.149C24.613 121.81 33.7991 124.07 38.2521 124.742C39.5792 120.752 41.8432 112.421 40.2822 111.021C38.7212 109.621 38.659 113.119 37.8824 114.282C38.154 113.319 36.8319 110.849 36.2335 110.744C35.0366 110.535 34.8076 114.104 35.0624 116.17C34.4787 114.263 32.9168 110.639 31.3381 111.402C29.7594 112.165 31.2364 116.005 32.1723 117.829C31.0656 116.372 28.5773 113.669 27.4773 114.516C26.3773 115.362 28.269 118.336 29.3523 119.717C24.5828 116.715 23.4584 117.421 23.4924 118.149Z" fill="#9B9B9B"/>
<g style="mix-blend-mode:multiply">
<path d="M37.8756 124.118C42.2777 111.116 38.1069 101.743 35.4712 98.6824C25.4251 84.3603 14.6407 92.5306 13.2381 97.2758C8.56368 113.089 27.8735 121.968 37.8756 124.118Z" fill="#FD6565"/>
<path d="M38.1586 123.208C40.7857 111.439 38.1394 103.83 35.9824 100.907C27.6182 87.3287 18.5402 94.2134 18.0916 97.5192C15.4101 111.861 30.483 120.819 38.1586 123.208Z" fill="#FD6565"/>
<path d="M23.4924 118.149C24.613 121.81 33.7991 124.07 38.2521 124.742C39.5792 120.752 41.8432 112.421 40.2822 111.021C38.7212 109.621 38.659 113.119 37.8824 114.282C38.154 113.319 36.8319 110.849 36.2335 110.744C35.0366 110.535 34.8076 114.104 35.0624 116.17C34.4787 114.263 32.9168 110.639 31.3381 111.402C29.7594 112.165 31.2364 116.005 32.1723 117.829C31.0656 116.372 28.5773 113.669 27.4773 114.516C26.3773 115.362 28.269 118.336 29.3523 119.717C24.5828 116.715 23.4584 117.421 23.4924 118.149Z" fill="#FD6565"/>
</g>
<g style="mix-blend-mode:soft-light">
<path d="M37.8756 124.118C42.2777 111.116 38.1069 101.743 35.4712 98.6824C25.4251 84.3603 14.6407 92.5306 13.2381 97.2758C8.56368 113.089 27.8735 121.968 37.8756 124.118Z" fill="#FD6565"/>
<path d="M38.1586 123.208C40.7857 111.439 38.1394 103.83 35.9824 100.907C27.6182 87.3287 18.5402 94.2134 18.0916 97.5192C15.4101 111.861 30.483 120.819 38.1586 123.208Z" fill="#FD6565"/>
<path d="M23.4924 118.149C24.613 121.81 33.7991 124.07 38.2521 124.742C39.5792 120.752 41.8432 112.421 40.2822 111.021C38.7212 109.621 38.659 113.119 37.8824 114.282C38.154 113.319 36.8319 110.849 36.2335 110.744C35.0366 110.535 34.8076 114.104 35.0624 116.17C34.4787 114.263 32.9168 110.639 31.3381 111.402C29.7594 112.165 31.2364 116.005 32.1723 117.829C31.0656 116.372 28.5773 113.669 27.4773 114.516C26.3773 115.362 28.269 118.336 29.3523 119.717C24.5828 116.715 23.4584 117.421 23.4924 118.149Z" fill="#FD6565"/>
</g>
<path d="M109.937 134.958C103.927 125.194 105.475 117.08 106.999 114.243C112.304 101.305 122.499 106.265 124.529 109.859C131.294 121.833 117.533 131.771 109.937 134.958Z" fill="#CDCDCD"/>
<path d="M109.537 134.271C105.183 125.234 105.847 118.755 107.015 116.099C111.115 104.003 119.699 108.184 120.69 110.765C125.579 121.853 115.224 131.233 109.537 134.271Z" fill="white"/>
<path d="M120.31 128.071C120.113 131.167 113.192 134.322 109.755 135.513C107.93 132.513 104.525 126.175 105.507 124.826C106.489 123.477 107.207 126.267 108.051 127.085C107.65 126.354 108.236 124.183 108.695 124.011C109.613 123.668 110.479 126.492 110.67 128.183C110.772 126.571 111.33 123.441 112.74 123.82C114.15 124.2 113.701 127.49 113.301 129.088C113.908 127.759 115.383 125.23 116.426 125.747C117.468 126.263 116.522 128.921 115.919 130.186C119.164 127.084 120.198 127.483 120.31 128.071Z" fill="#9B9B9B"/>
<g style="mix-blend-mode:multiply">
<path d="M109.937 134.958C103.927 125.194 105.475 117.08 106.999 114.243C112.304 101.305 122.499 106.265 124.529 109.859C131.294 121.833 117.533 131.771 109.937 134.958Z" fill="#FD6565"/>
<path d="M109.537 134.271C105.183 125.234 105.847 118.755 107.015 116.099C111.115 104.003 119.699 108.184 120.69 110.765C125.579 121.853 115.224 131.233 109.537 134.271Z" fill="#FD6565"/>
<path d="M120.31 128.071C120.113 131.167 113.192 134.322 109.755 135.513C107.93 132.513 104.525 126.175 105.507 124.826C106.489 123.477 107.207 126.267 108.051 127.085C107.65 126.354 108.236 124.183 108.695 124.011C109.613 123.668 110.479 126.492 110.67 128.183C110.772 126.571 111.33 123.441 112.74 123.82C114.15 124.2 113.701 127.49 113.301 129.088C113.908 127.759 115.383 125.23 116.426 125.747C117.468 126.263 116.522 128.921 115.919 130.186C119.164 127.084 120.198 127.483 120.31 128.071Z" fill="#FD6565"/>
</g>
<g style="mix-blend-mode:soft-light">
<path d="M109.937 134.958C103.927 125.194 105.475 117.08 106.999 114.243C112.304 101.305 122.499 106.265 124.529 109.859C131.294 121.833 117.533 131.771 109.937 134.958Z" fill="#FD6565"/>
<path d="M109.537 134.271C105.183 125.234 105.847 118.755 107.015 116.099C111.115 104.003 119.699 108.184 120.69 110.765C125.579 121.853 115.224 131.233 109.537 134.271Z" fill="#FD6565"/>
<path d="M120.31 128.071C120.113 131.167 113.192 134.322 109.755 135.513C107.93 132.513 104.525 126.175 105.507 124.826C106.489 123.477 107.207 126.267 108.051 127.085C107.65 126.354 108.236 124.183 108.695 124.011C109.613 123.668 110.479 126.492 110.67 128.183C110.772 126.571 111.33 123.441 112.74 123.82C114.15 124.2 113.701 127.49 113.301 129.088C113.908 127.759 115.383 125.23 116.426 125.747C117.468 126.263 116.522 128.921 115.919 130.186C119.164 127.084 120.198 127.483 120.31 128.071Z" fill="#FD6565"/>
</g>
</svg>
