<svg width="138" height="200" viewBox="0 0 138 200" fill="none" xmlns="http://www.w3.org/2000/svg">
<path d="M83.2572 105.249C82.9626 105.163 82.6325 105.276 82.5199 105.5C79.6646 111.5 69.9564 120 68.9286 133L69.4996 136C70.5274 121.5 79.0935 114 83.5868 105.81C83.6994 105.586 83.5519 105.335 83.2572 105.249Z" fill="#0A3019"/>
<path d="M69.3958 144.522C69.5029 142.392 69.5709 140.314 69.6036 138.288L69.6187 137.106C69.8176 116.144 64.1527 87.4949 60.9864 80.2872C60.8732 80.0295 60.5428 79.9009 60.2484 80C59.954 80.0991 59.8072 80.3884 59.9204 80.6462C63.0649 87.8044 68.7767 116.65 68.4659 137.994C68.4393 139.819 68.3838 141.689 68.2968 143.601L68.2402 144.765C67.4297 160.415 64.5025 178.854 57.9849 199.366C57.9004 199.632 58.0782 199.908 58.382 199.982C58.6859 200.056 59.0007 199.9 59.0853 199.634C65.6666 178.921 68.6026 160.308 69.3958 144.522Z" fill="#0A3019"/>
<g style="mix-blend-mode:multiply">
<path d="M84.3305 151.593C83.0104 150.813 81.7817 150.216 80.7657 149.961C80.5037 148.581 79.5481 145.648 77.5548 142.13C76.5354 140.33 75.2445 138.377 73.6362 136.401C71.2254 133.438 71.945 130.389 74.5645 128.056C75.7657 126.986 77.3663 126.067 79.2478 125.375C80.5927 124.881 82.0811 124.503 83.6696 124.269C84.8321 124.099 86.0483 124.005 87.3011 124C88.5704 123.995 89.8774 124.081 91.2043 124.269C92.2699 124.421 93.3483 124.638 94.4305 124.927C95.4655 125.203 96.4562 125.537 97.4012 125.921C98.5465 126.387 99.6247 126.928 100.634 127.535C101.601 128.116 102.505 128.757 103.342 129.448C104.194 130.152 104.978 130.908 105.692 131.707C106.265 132.347 106.792 133.016 107.273 133.707C107.936 134.659 108.511 135.654 108.996 136.681C109.591 137.939 110.05 139.244 110.369 140.573C110.664 141.803 110.838 143.053 110.887 144.305C110.939 145.615 110.855 146.927 110.628 148.221C110.429 149.365 110.118 150.493 109.694 151.593C109.567 151.921 109.431 152.247 109.284 152.569C107.801 155.822 106.162 157.836 104.531 159.027C100.932 161.654 97.3716 160.272 95.6188 159.349C93.3739 158.167 88.4145 154.006 84.3305 151.593Z" fill="#51B022"/>
</g>
<g style="mix-blend-mode:multiply">
<path d="M83.2735 124.331C83.4049 124.309 83.537 124.289 83.6698 124.269C83.7866 124.252 83.904 124.236 84.0219 124.22C84.0305 124.268 84.0269 124.317 84.0088 124.366C82.8192 127.581 82.9146 131.873 83.5371 135.964C84.155 140.025 85.2851 143.845 86.1413 146.13C89.2085 147.443 93.9429 149.231 98.4693 150.45C100.791 151.075 103.046 151.548 104.988 151.732C106.945 151.919 108.517 151.805 109.522 151.319C109.612 151.275 109.715 151.27 109.806 151.296C109.769 151.395 109.732 151.494 109.694 151.593C109.64 151.734 109.584 151.874 109.526 152.013C108.339 152.465 106.719 152.527 104.911 152.355C102.907 152.164 100.604 151.679 98.2602 151.048C93.5718 149.785 88.6742 147.922 85.5938 146.591C85.4277 146.519 85.3535 146.349 85.4176 146.2C84.5552 143.87 83.4436 140.077 82.8304 136.047C82.214 131.996 82.0941 127.663 83.2735 124.331Z" fill="#51B022"/>
<path d="M78.8648 125.521C78.9912 125.471 79.1189 125.423 79.248 125.375C79.3571 125.335 79.4672 125.296 79.5782 125.257C79.6013 125.307 79.6102 125.362 79.6009 125.419C77.9483 135.565 81.3157 144.562 83.2711 147.929C83.2977 147.938 83.3235 147.95 83.3479 147.965C85.9057 149.549 90.1906 151.823 94.7174 153.492C96.9804 154.327 99.2952 155.007 101.479 155.375C103.666 155.744 105.699 155.796 107.41 155.396C107.527 155.368 107.647 155.396 107.733 155.46C107.601 155.667 107.468 155.866 107.335 156.057C105.541 156.428 103.485 156.351 101.344 155.99C99.0971 155.611 96.7332 154.914 94.4413 154.069C89.9123 152.399 85.6305 150.135 83.0295 148.534C82.9057 148.53 82.7877 148.469 82.7261 148.366C80.7413 145.046 77.2358 135.892 78.8648 125.521Z" fill="#51B022"/>
<path d="M74.161 128.436C74.29 128.308 74.4246 128.181 74.5647 128.056C74.6476 127.982 74.7324 127.909 74.819 127.837C74.8922 127.902 74.9321 127.995 74.9187 128.093C74.584 130.545 75.0017 133.372 75.6705 135.923C76.3383 138.471 77.2499 140.72 77.8822 142.006C77.9579 142.159 77.882 142.337 77.7125 142.41C77.6607 142.317 77.6082 142.224 77.555 142.13C77.1585 141.43 76.7211 140.707 76.2399 139.968C75.8018 138.834 75.3508 137.495 74.9757 136.064C74.3354 133.621 73.91 130.887 74.161 128.436Z" fill="#51B022"/>
<path d="M89.2434 154.896C87.613 153.715 85.9067 152.524 84.3307 151.593C84.2312 151.534 84.1322 151.477 84.0338 151.42C84.0373 151.415 84.041 151.411 84.0449 151.406C84.1626 151.267 84.3859 151.239 84.5438 151.342C87.0074 152.954 90.9692 155.259 94.8406 156.93C96.7771 157.766 98.6777 158.438 100.349 158.788C102.034 159.141 103.42 159.154 104.375 158.746C104.523 158.682 104.698 158.717 104.801 158.822C104.711 158.893 104.621 158.961 104.531 159.027C104.231 159.246 103.932 159.436 103.634 159.602C102.626 159.762 101.442 159.661 100.183 159.397C98.4398 159.031 96.486 158.338 94.526 157.491C92.7306 156.716 90.9189 155.808 89.2434 154.896Z" fill="#51B022"/>
<path d="M110.558 148.6C109.442 149.042 107.906 149.143 106.188 149.04C104.329 148.927 102.199 148.571 100.033 148.089C95.7011 147.127 91.1865 145.655 88.3497 144.593L88.1853 144.531L88.1432 144.379C87.5453 142.217 86.7698 138.609 86.3819 134.795C85.9986 131.026 85.9895 127.019 86.9301 124.004C87.0535 124.002 87.1772 124.001 87.3013 124C87.4199 124 87.5387 124 87.6579 124.001C87.6578 124.029 87.6535 124.057 87.6445 124.085C86.7121 126.995 86.7067 130.951 87.092 134.739C87.4674 138.431 88.2098 141.929 88.7942 144.079C91.615 145.127 96.0036 146.548 100.208 147.483C102.352 147.959 104.437 148.306 106.237 148.415C108.05 148.525 109.515 148.388 110.461 147.945C110.531 147.912 110.607 147.902 110.68 147.911C110.664 148.014 110.647 148.118 110.629 148.221C110.607 148.347 110.583 148.474 110.558 148.6Z" fill="#51B022"/>
<path d="M110.873 143.992C110.878 144.097 110.883 144.201 110.888 144.305C110.892 144.426 110.896 144.546 110.898 144.667C110.587 144.811 110.187 144.899 109.745 144.952C109.189 145.018 108.518 145.034 107.769 145.012C106.269 144.969 104.415 144.773 102.46 144.498C98.5473 143.946 94.1901 143.071 91.3712 142.433L91.1622 142.385L91.1131 142.201C90.3408 139.303 89.2132 131.674 90.8519 124.222C90.9692 124.237 91.0868 124.253 91.2045 124.269C91.3215 124.286 91.4386 124.303 91.556 124.322C91.5555 124.324 91.555 124.326 91.5545 124.329C89.9698 131.522 91.0054 138.904 91.7594 141.874C94.5678 142.505 98.7845 143.346 102.573 143.88C104.516 144.153 106.336 144.345 107.792 144.387C108.521 144.408 109.148 144.391 109.649 144.332C110.16 144.271 110.495 144.17 110.677 144.053C110.736 144.015 110.804 143.995 110.873 143.992Z" fill="#51B022"/>
<path d="M110.293 140.268C110.319 140.369 110.344 140.471 110.369 140.573C110.396 140.684 110.421 140.796 110.446 140.907C110.364 140.948 110.276 140.979 110.189 141.004C110.034 141.049 109.853 141.082 109.655 141.106C109.259 141.156 108.76 141.175 108.191 141.173C107.052 141.169 105.591 141.076 104.024 140.937C100.89 140.658 97.2997 140.187 94.9504 139.839L94.6675 139.797L94.6537 139.545C94.5565 137.778 94.5602 134.975 94.8876 132.3C95.0513 130.963 95.2968 129.65 95.6543 128.511C95.9979 127.416 96.4536 126.453 97.0651 125.787C97.1778 125.831 97.2899 125.876 97.4014 125.921C97.5094 125.965 97.6169 126.01 97.7237 126.055C97.7107 126.079 97.694 126.102 97.6735 126.123C97.1292 126.688 96.6876 127.575 96.3417 128.677C95.9979 129.772 95.7578 131.049 95.5965 132.367C95.289 134.88 95.2711 137.513 95.353 139.263C97.6915 139.605 101.106 140.048 104.096 140.314C105.655 140.453 107.089 140.543 108.194 140.547C108.748 140.549 109.208 140.53 109.555 140.487C109.728 140.465 109.865 140.439 109.967 140.409C110.073 140.379 110.117 140.352 110.128 140.343C110.176 140.304 110.233 140.279 110.293 140.268Z" fill="#51B022"/>
<path d="M108.845 136.368C108.896 136.472 108.947 136.576 108.996 136.681C109.042 136.777 109.087 136.874 109.13 136.971C109.089 136.985 109.044 136.994 108.996 136.994H98.4802L100.282 127.483C100.291 127.438 100.31 127.396 100.338 127.36C100.437 127.417 100.536 127.476 100.634 127.535C100.743 127.6 100.851 127.666 100.958 127.733L99.3215 136.368H108.845Z" fill="#51B022"/>
<path d="M107.051 133.394C107.126 133.498 107.2 133.602 107.273 133.707C107.335 133.796 107.396 133.885 107.457 133.975C107.403 134.004 107.34 134.02 107.273 134.02H102.962C102.765 134.02 102.605 133.88 102.605 133.707C102.605 133.649 102.623 133.594 102.655 133.548L102.987 129.426C102.993 129.352 103.028 129.286 103.081 129.236C103.169 129.306 103.256 129.377 103.343 129.448C103.455 129.541 103.567 129.635 103.677 129.73L103.382 133.394H107.051Z" fill="#51B022"/>
</g>
<path d="M103.382 134.078L106.054 132.122C105.935 131.982 105.815 131.844 105.693 131.707C105.571 131.57 105.446 131.435 105.32 131.301L105.312 131.306L102.621 133.277C102.621 133.277 102.621 133.277 102.621 133.277C102.614 133.282 102.608 133.287 102.601 133.292C102.594 133.297 102.588 133.302 102.581 133.306L80.3547 149.583L67.2572 162.126C67.0355 162.338 67.0519 162.668 67.2937 162.863C67.5356 163.058 67.9114 163.043 68.1332 162.831L81.1769 150.339L81.4204 150.161C81.4204 150.161 81.4204 150.161 81.4204 150.161L103.342 134.107C103.349 134.103 103.355 134.098 103.362 134.092C103.369 134.088 103.375 134.083 103.382 134.078Z" fill="#51B022"/>
<g style="mix-blend-mode:multiply">
<path d="M105.319 131.302C105.445 131.436 105.571 131.57 105.693 131.707L106.053 132.123L103.382 134.078C103.376 134.083 103.369 134.088 103.362 134.093C103.356 134.098 103.349 134.103 103.342 134.107L81.4204 150.161L81.4185 150.162C81.1925 150.082 80.9751 150.013 80.7661 149.961C80.7336 149.79 80.6908 149.594 80.6362 149.377L102.581 133.307C102.587 133.302 102.594 133.297 102.601 133.292C102.607 133.287 102.614 133.282 102.621 133.277L105.312 131.307L105.319 131.302Z" fill="#51B022"/>
</g>
<ellipse cx="55.6798" cy="48" rx="54.8229" ry="48" fill="#51B022"/>
<g style="mix-blend-mode:multiply">
<path d="M55.6796 20.8L58.0573 42.9741L77.6467 28.7667L61.4199 45.9182L86.7458 48L61.4199 50.0818L77.6467 67.2333L58.0573 53.0259L55.6796 75.2L53.3019 53.0259L33.7124 67.2333L49.9393 50.0818L24.6133 48L49.9393 45.9182L33.7124 28.7667L53.3019 42.9741L55.6796 20.8Z" fill="#51B022"/>
<ellipse cx="12.792" cy="11.2" rx="12.792" ry="11.2" transform="matrix(-1 0 0 1 68.4717 36.8)" fill="#51B022"/>
<g style="mix-blend-mode:multiply">
<path d="M62.2124 40.5838C60.9239 41.712 60.8484 43.4751 60.8484 43.4751C60.8484 43.4751 62.8622 43.4091 64.1507 42.2809C65.4392 41.1527 69.2477 36.1212 69.2477 36.1212C69.2477 36.1212 63.501 39.4556 62.2124 40.5838Z" fill="#51B022"/>
</g>
<g style="mix-blend-mode:multiply">
<path d="M64.9569 43.3374C63.2733 43.9479 62.433 45.5516 62.433 45.5516C62.433 45.5516 64.3223 46.1652 66.0059 45.5547C67.6895 44.9441 73.4071 41.5716 73.4071 41.5716C73.4071 41.5716 66.6405 42.7268 64.9569 43.3374Z" fill="#51B022"/>
</g>
<g style="mix-blend-mode:multiply">
<path d="M66.2889 46.8007C64.4666 46.8007 62.9894 48.0007 62.9894 48.0007C62.9894 48.0007 64.4666 49.2007 66.2889 49.2007C68.1112 49.2007 74.8677 48.0007 74.8677 48.0007C74.8677 48.0007 68.1112 46.8007 66.2889 46.8007Z" fill="#51B022"/>
</g>
<g style="mix-blend-mode:multiply">
<path d="M66.0056 50.4466C64.322 49.8361 62.4327 50.4498 62.4327 50.4498C62.4327 50.4498 63.273 52.0534 64.9566 52.664C66.6401 53.2745 73.4068 54.4297 73.4068 54.4297C73.4068 54.4297 67.6891 51.0572 66.0056 50.4466Z" fill="#51B022"/>
</g>
<g style="mix-blend-mode:multiply">
<path d="M64.1505 53.7203C62.862 52.5921 60.8482 52.5261 60.8482 52.5261C60.8482 52.5261 60.9237 54.2892 62.2122 55.4174C63.5008 56.5455 69.2475 59.88 69.2475 59.88C69.2475 59.88 65.439 54.8485 64.1505 53.7203Z" fill="#51B022"/>
</g>
<g style="mix-blend-mode:multiply">
<path d="M61.0059 56.123C60.3085 54.649 58.477 53.9133 58.477 53.9133C58.477 53.9133 57.776 55.5674 58.4734 57.0415C59.1708 58.5155 63.0226 63.5216 63.0226 63.5216C63.0226 63.5216 61.7032 57.5971 61.0059 56.123Z" fill="#51B022"/>
</g>
<g style="mix-blend-mode:multiply">
<path d="M57.0502 57.2893C57.0502 55.6938 55.6797 54.4004 55.6797 54.4004C55.6797 54.4004 54.3091 55.6938 54.3091 57.2893C54.3091 58.8848 55.6797 64.8004 55.6797 64.8004C55.6797 64.8004 57.0502 58.8848 57.0502 57.2893Z" fill="#51B022"/>
</g>
<g style="mix-blend-mode:multiply">
<path d="M52.8857 57.0415C53.5831 55.5674 52.8822 53.9133 52.8822 53.9133C52.8822 53.9133 51.0506 54.649 50.3533 56.123C49.6559 57.5971 48.3366 63.5216 48.3366 63.5216C48.3366 63.5216 52.1884 58.5155 52.8857 57.0415Z" fill="#51B022"/>
</g>
<g style="mix-blend-mode:multiply">
<path d="M49.147 55.4171C50.4355 54.289 50.5109 52.5259 50.5109 52.5259C50.5109 52.5259 48.4972 52.5919 47.2087 53.7201C45.9201 54.8483 42.1117 59.8798 42.1117 59.8798C42.1117 59.8798 47.8584 56.5453 49.147 55.4171Z" fill="#51B022"/>
</g>
<g style="mix-blend-mode:multiply">
<path d="M46.4025 52.6636C48.086 52.053 48.9263 50.4494 48.9263 50.4494C48.9263 50.4494 47.037 49.8357 45.3535 50.4463C43.6699 51.0569 37.9522 54.4293 37.9522 54.4293C37.9522 54.4293 44.7189 53.2742 46.4025 52.6636Z" fill="#51B022"/>
</g>
<g style="mix-blend-mode:multiply">
<path d="M45.0705 49.2003C46.8927 49.2003 48.37 48.0003 48.37 48.0003C48.37 48.0003 46.8927 46.8003 45.0705 46.8003C43.2482 46.8003 36.4917 48.0003 36.4917 48.0003C36.4917 48.0003 43.2482 49.2003 45.0705 49.2003Z" fill="#51B022"/>
</g>
<g style="mix-blend-mode:multiply">
<path d="M45.3533 45.5542C47.0369 46.1648 48.9262 45.5511 48.9262 45.5511C48.9262 45.5511 48.0859 43.9475 46.4023 43.3369C44.7187 42.7263 37.9521 41.5712 37.9521 41.5712C37.9521 41.5712 43.6698 44.9436 45.3533 45.5542Z" fill="#51B022"/>
</g>
<g style="mix-blend-mode:multiply">
<path d="M47.2084 42.2806C48.4969 43.4087 50.5106 43.4748 50.5106 43.4748C50.5106 43.4748 50.4352 41.7117 49.1467 40.5835C47.8581 39.4553 42.1114 36.1209 42.1114 36.1209C42.1114 36.1209 45.9198 41.1524 47.2084 42.2806Z" fill="#51B022"/>
</g>
<g style="mix-blend-mode:multiply">
<path d="M50.3535 39.8776C51.0508 41.3516 52.8824 42.0873 52.8824 42.0873C52.8824 42.0873 53.5833 40.4332 52.886 38.9591C52.1886 37.4851 48.3368 32.479 48.3368 32.479C48.3368 32.479 49.6561 38.4035 50.3535 39.8776Z" fill="#51B022"/>
</g>
<g style="mix-blend-mode:multiply">
<path d="M54.3091 38.7112C54.3091 40.3067 55.6797 41.6001 55.6797 41.6001C55.6797 41.6001 57.0503 40.3067 57.0503 38.7112C57.0503 37.1157 55.6797 31.2001 55.6797 31.2001C55.6797 31.2001 54.3091 37.1157 54.3091 38.7112Z" fill="#51B022"/>
</g>
<g style="mix-blend-mode:multiply">
<path d="M58.4731 38.9596C57.7758 40.4337 58.4767 42.0878 58.4767 42.0878C58.4767 42.0878 60.3083 41.3521 61.0056 39.8781C61.703 38.404 63.0223 32.4795 63.0223 32.4795C63.0223 32.4795 59.1705 37.4856 58.4731 38.9596Z" fill="#51B022"/>
</g>
</g>
<path d="M80.5229 109.95C92.9644 110.146 100.451 105.353 102.64 102.933C113.34 93.142 103.905 87.6327 99.4061 87.6982C84.4119 87.9167 80.4166 102.774 80.5229 109.95Z" fill="#CDCDCD"/>
<path d="M81.3886 109.947C92.3764 109.212 98.604 105.818 100.766 103.749C111.145 95.2458 103.196 90.6096 100.168 91.0105C86.8838 92.2551 81.9638 104.283 81.3886 109.947Z" fill="white"/>
<path d="M82.9266 99.0203C79.8989 100.551 79.7432 107.202 80.0439 110.336C83.8574 110.38 91.7168 110.131 92.6459 108.785C93.5749 107.44 90.4545 108.141 89.2642 107.866C90.1747 107.844 92.1026 106.431 92.0751 106.007C92.0202 105.158 88.8023 105.763 87.0179 106.373C88.5948 105.575 91.4995 103.757 90.5033 102.858C89.5071 101.959 86.3932 103.767 84.9608 104.783C86.0325 103.73 87.9326 101.485 86.9583 100.926C85.9841 100.367 83.7231 102.269 82.7144 103.29C84.4199 99.4484 83.5665 98.8429 82.9266 99.0203Z" fill="#9B9B9B"/>
<g style="mix-blend-mode:multiply">
<path d="M80.5229 109.95C92.9644 110.146 100.451 105.353 102.64 102.933C113.34 93.142 103.905 87.6327 99.4061 87.6982C84.4119 87.9167 80.4166 102.774 80.5229 109.95Z" fill="#FD6565"/>
<path d="M81.3886 109.947C92.3764 109.212 98.604 105.818 100.766 103.749C111.145 95.2458 103.196 90.6096 100.168 91.0105C86.8838 92.2551 81.9638 104.283 81.3886 109.947Z" fill="#FD6565"/>
<path d="M82.9266 99.0203C79.8989 100.551 79.7432 107.202 80.0439 110.336C83.8574 110.38 91.7168 110.131 92.6459 108.785C93.5749 107.44 90.4545 108.141 89.2642 107.866C90.1747 107.844 92.1026 106.431 92.0751 106.007C92.0202 105.158 88.8023 105.763 87.0179 106.373C88.5948 105.575 91.4995 103.757 90.5033 102.858C89.5071 101.959 86.3932 103.767 84.9608 104.783C86.0325 103.73 87.9326 101.485 86.9583 100.926C85.9841 100.367 83.7231 102.269 82.7144 103.29C84.4199 99.4484 83.5665 98.8429 82.9266 99.0203Z" fill="#FD6565"/>
</g>
<g style="mix-blend-mode:soft-light">
<path d="M80.5229 109.95C92.9644 110.146 100.451 105.353 102.64 102.933C113.34 93.142 103.905 87.6327 99.4061 87.6982C84.4119 87.9167 80.4166 102.774 80.5229 109.95Z" fill="#FD6565"/>
<path d="M81.3886 109.947C92.3764 109.212 98.604 105.818 100.766 103.749C111.145 95.2458 103.196 90.6096 100.168 91.0105C86.8838 92.2551 81.9638 104.283 81.3886 109.947Z" fill="#FD6565"/>
<path d="M82.9266 99.0203C79.8989 100.551 79.7432 107.202 80.0439 110.336C83.8574 110.38 91.7168 110.131 92.6459 108.785C93.5749 107.44 90.4545 108.141 89.2642 107.866C90.1747 107.844 92.1026 106.431 92.0751 106.007C92.0202 105.158 88.8023 105.763 87.0179 106.373C88.5948 105.575 91.4995 103.757 90.5033 102.858C89.5071 101.959 86.3932 103.767 84.9608 104.783C86.0325 103.73 87.9326 101.485 86.9583 100.926C85.9841 100.367 83.7231 102.269 82.7144 103.29C84.4199 99.4484 83.5665 98.8429 82.9266 99.0203Z" fill="#FD6565"/>
</g>
<g clip-path="url(#clip0_81_2771)">
<path d="M19.6578 106.363C23.0641 104.844 27.9888 103.891 33.6951 104.3C33.5317 104.904 33.3808 105.546 33.25 106.214C32.5119 109.984 32.663 113.15 33.5873 113.285C34.5117 113.42 35.8592 110.472 36.5973 106.702C36.7353 105.997 36.8414 105.314 36.918 104.667C40.8439 105.283 45.0485 106.553 49.3241 108.702C48.6545 109.534 47.9535 110.501 47.2732 111.556C44.956 115.15 43.74 118.387 44.5566 118.786C45.3733 119.186 47.9139 116.597 50.2311 113.003C50.8845 111.99 51.448 111.004 51.9055 110.103C54.6444 111.704 57.3933 113.682 60.1006 116.094C58.8855 116.81 57.4579 117.802 56.006 118.975C52.5372 121.775 50.2402 124.532 50.8751 125.133C51.5104 125.733 54.8372 123.949 58.3057 121.149C59.7643 119.972 61.014 118.8 61.9274 117.795C63.5946 119.417 65.2402 121.211 66.8518 123.192C65.5512 123.718 64.0158 124.463 62.4271 125.37C58.4733 127.625 55.6822 130.009 56.1927 130.694C56.7039 131.379 60.3224 130.107 64.2758 127.851C65.8883 126.931 67.3057 125.987 68.3864 125.149C69.5587 126.703 70.5497 128.184 71.3781 129.594C71.0218 129.778 70.6593 129.974 70.2947 130.182C67.0437 132.037 64.8223 134.096 65.3328 134.781C65.8441 135.466 68.893 134.518 72.1434 132.664C72.3685 132.535 72.5878 132.404 72.8025 132.274C79.2646 145.978 69.289 152.26 62.0527 154.776L67.41 162.901L67.0535 163.158L58.1266 156.761C40.9433 168.412 28.3514 158.413 24.2036 151.958C24.0262 151.724 23.8528 151.489 23.6803 151.256C27.1141 149.529 29.4865 147.665 29.0614 146.987C28.6291 146.298 25.4689 147.086 21.893 148.748C19.9639 145.922 18.3983 143.207 17.1441 140.613C17.7222 140.422 18.316 140.219 18.9179 140.002C24.1605 138.106 28.1224 135.955 27.7685 135.199C27.4128 134.442 22.8733 135.366 17.6295 137.262C17.0448 137.474 16.4762 137.689 15.9276 137.904C14.7054 134.953 13.8925 132.171 13.409 129.569C14.8285 129.546 16.4345 129.461 18.1302 129.305C23.7683 128.787 28.2626 127.707 28.169 126.892C28.0748 126.078 23.4275 125.837 17.789 126.355C16.0603 126.514 14.4392 126.726 13.0248 126.966C12.6654 123.641 12.8491 120.647 13.3855 118.011C13.7595 118.056 14.1427 118.1 14.5332 118.136C18.8833 118.537 22.493 118.202 22.5954 117.387C22.6968 116.573 19.2534 115.587 14.9039 115.186C14.6508 115.163 14.4 115.143 14.1525 115.125C15.4944 111.065 17.6582 108.098 19.6578 106.363Z" fill="#51B022"/>
<g style="mix-blend-mode:multiply">
<path fill-rule="evenodd" clip-rule="evenodd" d="M59.7589 152.807C50.5823 139.684 29.8775 117.407 20.6653 107.903L21.1153 107.569C30.3248 117.07 51.0585 139.375 60.2622 152.537L59.7589 152.807ZM24.4379 113.531C22.4425 112.769 19.5968 112.636 18.4197 112.668L18.4014 112.152C19.6084 112.119 22.5586 112.25 24.674 113.058L24.4379 113.531ZM29.9276 114.018C27.7527 111.128 28.1822 108.144 28.6865 106.984L29.238 107.168C28.7887 108.201 28.3679 111.006 30.4204 113.734L29.9276 114.018ZM31.1388 122.693C25.4176 120.652 19.3505 121.918 17.0469 122.803L16.8098 122.33C19.2052 121.41 25.4454 120.104 31.3615 122.215L31.1388 122.693ZM38.7217 114.976C39.3123 112.975 40.1338 111.262 40.7151 110.291L41.2378 110.531C40.6775 111.467 39.8723 113.142 39.293 115.105C38.7132 117.07 38.3654 119.304 38.7005 121.365L38.1163 121.438C37.766 119.284 38.1315 116.976 38.7217 114.976ZM47.7776 121.89C45.9522 123.595 44.0808 124.958 42.9091 125.695L42.5649 125.275C43.7061 124.557 45.5484 123.217 47.3471 121.536C49.1478 119.854 50.888 117.847 51.8458 115.798L52.392 115.994C51.3953 118.126 49.6009 120.186 47.7776 121.89ZM27.9377 131.419C25.3201 132.163 22.6172 132.61 20.9233 132.795L20.8502 132.283C22.5134 132.101 25.179 131.659 27.7556 130.927C30.3467 130.191 32.787 129.177 34.0602 127.879L34.5079 128.216C33.1206 129.63 30.5408 130.679 27.9377 131.419ZM53.6948 128.732C51.0929 130.188 48.4382 131.215 46.7809 131.716L46.5884 131.227C48.2048 130.739 50.817 129.729 53.3769 128.296C55.9411 126.861 58.4228 125.017 59.8146 122.867L60.328 123.121C58.8671 125.378 56.2923 127.278 53.6948 128.732ZM31.7576 140.325C28.8212 141.445 25.9618 142.043 24.2163 142.25L24.1371 141.738C25.8307 141.537 28.6373 140.952 31.5219 139.852C34.4087 138.751 37.3477 137.143 39.3357 134.91L39.8011 135.227C37.7293 137.555 34.692 139.206 31.7576 140.325ZM40.076 144.396C38.0591 145.601 35.9919 146.343 34.6932 146.659L34.5352 146.161C35.774 145.86 37.7819 145.141 39.7434 143.969C41.7052 142.797 43.5994 141.184 44.6451 139.104L45.1852 139.312C44.0801 141.511 42.0925 143.191 40.076 144.396ZM59.0543 134.546C56.4512 135.677 53.7379 136.416 52.0282 136.752L51.8991 136.248C53.5691 135.92 56.2367 135.194 58.7919 134.083C61.3561 132.969 63.7591 131.488 64.9592 129.672L65.47 129.931C64.1809 131.882 61.6483 133.419 59.0543 134.546ZM47.3552 145.031C45.0202 152.04 37.2946 154.091 33.7366 154.246L33.7072 153.73C37.1456 153.58 44.555 151.591 46.7887 144.887L47.3552 145.031ZM63.4895 142.015C61.0684 142.83 58.688 143.167 57.2253 143.228L57.1974 142.711C58.6012 142.653 60.9193 142.326 63.2778 141.533C65.6379 140.738 68.0101 139.487 69.5596 137.596L70.0391 137.897C68.3976 139.9 65.9091 141.201 63.4895 142.015ZM43.6639 156.08C48.7176 154.418 50.8321 150.778 51.2543 149.198L51.8289 149.315C51.3706 151.031 49.1429 154.831 43.8714 156.564L43.6639 156.08ZM64.9829 146.553C63.0187 147.152 61.0788 147.32 59.8817 147.29L59.8985 146.774C61.0301 146.802 62.898 146.642 64.789 146.066C66.6801 145.489 68.5668 144.506 69.7783 142.907L70.2701 143.192C68.9632 144.918 66.9471 145.955 64.9829 146.553Z" fill="#51B022"/>
</g>
</g>
<defs>
<clipPath id="clip0_81_2771">
<rect width="70.8129" height="62" fill="white" transform="translate(6.56787 104)"/>
</clipPath>
</defs>
</svg>
