<svg width="142" height="181" viewBox="0 0 142 181" fill="none" xmlns="http://www.w3.org/2000/svg">
<rect x="10.6165" y="40.3948" width="63.9634" height="63.9634" rx="31.9817" fill="#66A865"/>
<path d="M58.5891 61.7159C58.5891 52.8844 65.7485 45.7251 74.58 45.7251C74.58 54.5566 67.4206 61.7159 58.5891 61.7159Z" fill="#66A865"/>
<path d="M33.4986 56.0429C25.2986 55.2697 19.2779 47.9955 20.0511 39.7954C28.2512 40.5686 34.2718 47.8429 33.4986 56.0429Z" fill="#66A865"/>
<path d="M21.0117 82.7257C14.7054 88.0238 5.29825 87.2067 7.30807e-05 80.9005C6.30628 75.6023 15.7135 76.4195 21.0117 82.7257Z" fill="#66A865"/>
<path d="M80.3356 87.8193C74.0294 93.1175 64.6222 92.3003 59.324 85.9941C65.6303 80.6959 75.0375 81.5131 80.3356 87.8193Z" fill="#66A865"/>
<rect x="112.959" y="82.0951" width="63.9634" height="63.9634" rx="31.9817" transform="rotate(119.838 112.959 82.0951)" fill="#66A865"/>
<path d="M70.5962 113.1C78.257 117.494 80.9052 127.267 76.5111 134.927C68.8503 130.533 66.2021 120.761 70.5962 113.1Z" fill="#66A865"/>
<path d="M88.0008 94.1583C92.7514 87.43 102.057 85.8267 108.785 90.5773C104.035 97.3057 94.7291 98.9089 88.0008 94.1583Z" fill="#66A865"/>
<path d="M71.0681 70.0507C69.6098 61.9444 74.9992 54.1908 83.1055 52.7326C84.5637 60.8389 79.1744 68.5925 71.0681 70.0507Z" fill="#66A865"/>
<path d="M37.1332 118.976C35.675 110.87 41.0644 103.116 49.1707 101.658C50.6289 109.764 45.2396 117.518 37.1332 118.976Z" fill="#66A865"/>
<rect x="141.436" y="67.4504" width="63.9634" height="63.9634" rx="31.9817" transform="rotate(119.838 141.436 67.4504)" fill="#66A865"/>
<path d="M99.0728 98.4553C106.734 102.849 109.382 112.622 104.988 120.283C97.3269 115.888 94.6787 106.116 99.0728 98.4553Z" fill="#66A865"/>
<path d="M116.477 79.5137C121.228 72.7853 130.533 71.1821 137.262 75.9327C132.511 82.661 123.206 84.2643 116.477 79.5137Z" fill="#66A865"/>
<path d="M65.6098 104.331C64.1516 96.2252 69.541 88.4716 77.6473 87.0134C79.1055 95.1197 73.7161 102.873 65.6098 104.331Z" fill="#66A865"/>
<path d="M95.9316 24.5256C110.273 32.7515 115.23 51.0459 107.005 65.3872C98.7786 79.7286 80.4842 84.6861 66.1429 76.4602C51.8015 68.2342 46.844 49.9399 55.0699 35.5985C63.2959 21.2571 81.5903 16.2996 95.9316 24.5256Z" fill="#66A865"/>
<path d="M83.9265 68.0614C91.0972 72.1743 93.5759 81.3215 89.463 88.4922C82.2923 84.3792 79.8135 75.232 83.9265 68.0614Z" fill="#66A865"/>
<path d="M100.218 50.3314C104.664 44.0335 113.374 42.5328 119.672 46.9795C115.226 53.2774 106.515 54.7781 100.218 50.3314Z" fill="#66A865"/>
<path d="M84.3681 27.766C83.0032 20.1783 88.0478 12.9207 95.6355 11.5558C97.0004 19.1435 91.9558 26.4011 84.3681 27.766Z" fill="#66A865"/>
<path d="M52.6042 73.5615C51.2393 65.9738 56.2839 58.7163 63.8716 57.3514C65.2365 64.9391 60.1919 72.1966 52.6042 73.5615Z" fill="#66A865"/>
<rect x="30.2173" y="20.1659" width="59.8713" height="59.8713" rx="29.9357" transform="rotate(8.46442 30.2173 20.1659)" fill="#66A865"/>
<path d="M71.6943 46.5152C72.9111 38.3388 80.5258 32.6969 88.7023 33.9136C87.4855 42.0901 79.8707 47.732 71.6943 46.5152Z" fill="#66A865"/>
<path d="M49.2465 37.8062C41.7612 35.9605 37.1893 28.3963 39.0349 20.911C46.5203 22.7566 51.0921 30.3209 49.2465 37.8062Z" fill="#66A865"/>
<path d="M34.0092 60.7893C27.4407 64.8257 18.8439 62.773 14.8075 56.2046C21.376 52.1682 29.9728 54.2209 34.0092 60.7893Z" fill="#66A865"/>
<path d="M88.2313 73.6787C81.6629 77.7151 73.066 75.6624 69.0297 69.094C75.5981 65.0576 84.195 67.1103 88.2313 73.6787Z" fill="#66A865"/>
<rect x="114.17" y="58.2107" width="59.8713" height="59.8713" rx="29.9357" transform="rotate(119.838 114.17 58.2107)" fill="#66A865"/>
<path d="M74.5166 87.232C81.6873 91.345 84.166 100.492 80.0531 107.663C72.8824 103.55 70.4036 94.4027 74.5166 87.232Z" fill="#66A865"/>
<path d="M90.8077 69.5022C95.2544 63.2043 103.965 61.7036 110.262 66.1503C105.816 72.4482 97.1056 73.9489 90.8077 69.5022Z" fill="#66A865"/>
<path d="M74.9582 46.9368C73.5933 39.3491 78.6379 32.0915 86.2256 30.7266C87.5905 38.3143 82.5459 45.5719 74.9582 46.9368Z" fill="#66A865"/>
<path d="M43.1943 92.7323C41.8294 85.1446 46.874 77.887 54.4617 76.5221C55.8266 84.1098 50.782 91.3674 43.1943 92.7323Z" fill="#66A865"/>
<path d="M126.397 64.6312C127.785 67.3347 128.781 70.2192 129.357 73.1918C132.163 73.2873 134.973 74.1745 137.437 75.9144C135.507 78.6488 132.823 80.5365 129.867 81.4955C129.543 86.1668 128.185 90.8397 125.699 95.1742C121.45 102.582 114.686 107.645 107.101 109.907C107.628 113.356 107.035 117.002 105.164 120.264C101.552 118.193 99.0553 114.926 97.8845 111.248C97.3824 111.248 96.8797 111.235 96.3767 111.21C92.1049 117.862 85.7248 122.435 78.6248 124.552C79.1509 128.002 78.5572 131.646 76.6863 134.909C73.0749 132.837 70.5767 129.57 69.406 125.893C64.0241 125.885 58.5709 124.518 53.5681 121.649C50.3357 119.795 47.5507 117.46 45.2488 114.789C43.1661 116.89 40.4405 118.395 37.3083 118.958C36.518 114.564 37.7403 110.273 40.3162 107.033C39.8909 106.086 39.5125 105.119 39.1814 104.137C27.9603 102.883 18.495 95.8246 13.8562 86.0316C8.88411 86.7897 3.64753 85.0147 0.175537 80.8822C3.36695 78.201 7.35273 77.0864 11.198 77.4564C11.1175 76.9541 11.05 76.4477 10.9929 75.9379C13.7742 76.9662 16.781 77.5297 19.9197 77.5297C25.1546 77.5297 30.023 75.965 34.0867 73.2806C32.9201 81.49 35.9107 90.0953 42.7546 95.7855C53.2504 104.512 68.8328 103.078 77.5593 92.5824L78.6882 91.224C79.1867 90.6244 79.6514 90.0079 80.0837 89.3773C90.188 94.6778 102.961 92.404 110.55 83.2767L111.678 81.9203C114.845 78.1116 116.671 73.6327 117.215 69.0551C120.588 68.1913 123.697 66.6679 126.397 64.6312Z" fill="#458244"/>
<path d="M63.4842 102.504H73.5206L81.7002 180.631H55.1755L63.4842 102.504Z" fill="#93642D"/>
<path d="M63.4123 102.504H73.5923L77.9025 144.554H59.0771L63.4123 102.504Z" fill="#714D22"/>
<path fill-rule="evenodd" clip-rule="evenodd" d="M72.5204 124.325C88.2165 113.024 90.1244 96.0436 89.0263 88.6312L81.9349 89.6818C82.7484 95.1734 81.3109 109.162 68.3316 118.507L72.5204 124.325Z" fill="#714D22"/>
<rect x="31.7971" y="75.978" width="55.5406" height="55.5406" rx="27.7703" transform="rotate(-37.5969 31.7971 75.978)" fill="#66A865"/>
<path d="M76.0966 65.2327C71.418 59.1567 72.5508 50.4384 78.6268 45.7598C83.3054 51.8358 82.1726 60.5541 76.0966 65.2327Z" fill="#66A865"/>
<path d="M55.8294 74.6217C49.7782 78.4338 41.7825 76.6187 37.9703 70.5676C44.0215 66.7555 52.0172 68.5705 55.8294 74.6217Z" fill="#66A865"/>
<path d="M61.3739 99.5943C59.8421 106.58 52.9372 111.002 45.9513 109.47C47.4831 102.484 54.3881 98.0624 61.3739 99.5943Z" fill="#66A865"/>
<path d="M104.887 71.671C103.355 78.6569 96.4499 83.0783 89.464 81.5465C90.9958 74.5606 97.9008 70.1392 104.887 71.671Z" fill="#66A865"/>
<rect x="33.7861" y="21.1044" width="43.7126" height="43.7126" rx="21.8563" transform="rotate(8.46442 33.7861 21.1044)" fill="#83C082"/>
<path d="M64.0687 40.3422C64.9571 34.3725 70.5166 30.2533 76.4864 31.1417C75.598 37.1114 70.0384 41.2306 64.0687 40.3422Z" fill="#83C082"/>
<path d="M47.6794 33.9836C42.2143 32.6361 38.8763 27.1134 40.2238 21.6483C45.6889 22.9958 49.0269 28.5185 47.6794 33.9836Z" fill="#83C082"/>
<path d="M36.5547 50.7638C31.759 53.7107 25.4823 52.2121 22.5354 47.4164C27.3311 44.4694 33.6077 45.9681 36.5547 50.7638Z" fill="#83C082"/>
<path d="M76.1426 60.1745C71.3469 63.1215 65.0702 61.6228 62.1233 56.8272C66.9189 53.8802 73.1956 55.3789 76.1426 60.1745Z" fill="#83C082"/>
</svg>
