<svg width="60" height="130" viewBox="0 0 60 130" fill="none" xmlns="http://www.w3.org/2000/svg">
<rect y="70" width="60" height="60" fill="#5D7D5F"/>
<path d="M31.0732 27.5C32.1499 34.8232 33.6572 51.9413 31.0732 61.8277C27.8432 74.1856 24.8616 92.036 29.0855 100" stroke="#0A3019" stroke-linecap="round"/>
<path d="M24.2301 79.7096C22.3574 79.248 20.7879 78.7285 19.4806 78.173C19.1764 78.0437 18.8863 77.9124 18.61 77.7795C18.085 77.527 17.6094 77.2685 17.1797 77.0057C16.435 76.5504 15.8279 76.0826 15.34 75.6119C14.8081 75.0988 14.4177 74.5824 14.145 74.0753C13.8121 73.4562 13.6545 72.851 13.6288 72.2825C13.5939 71.5103 13.8022 70.806 14.145 70.2272C14.387 69.8186 14.6959 69.4725 15.0335 69.2093C15.9332 68.623 16.788 68.4258 17.5881 68.5241C18.0312 68.5785 18.4575 68.7235 18.8654 68.9432C19.1321 69.0868 19.3908 69.2624 19.6413 69.4653C20.0755 69.8173 20.4847 70.2519 20.8665 70.7459C21.2816 71.2831 21.6643 71.8906 22.0114 72.5386C22.3339 73.1408 22.6257 73.7779 22.8842 74.426C23.1088 74.9889 23.3083 75.5602 23.4811 76.1241C23.8787 77.4218 24.135 78.6806 24.2301 79.7096Z" fill="#51B022"/>
<g style="mix-blend-mode:multiply">
<path d="M14.2408 70.0739L15.8662 70.0798L17.3919 68.5061C17.4577 68.5101 17.5231 68.5162 17.5881 68.5242C17.6389 68.5304 17.6895 68.5378 17.7398 68.5464C17.7354 68.5773 17.7215 68.6072 17.6981 68.6313L15.9953 70.3876L14.1445 70.3809C14.1172 70.3808 14.0916 70.3735 14.0694 70.3609C14.0938 70.3157 14.119 70.2711 14.145 70.2272C14.1758 70.1751 14.2078 70.124 14.2408 70.0739Z" fill="#51B022"/>
<path d="M13.6389 72.4359C13.6344 72.3845 13.6311 72.3334 13.6288 72.2826C13.6264 72.2301 13.6252 72.1778 13.625 72.126L16.9612 71.3772L18.7278 68.8724C18.7739 68.8951 18.8198 68.9187 18.8654 68.9433C18.9102 68.9674 18.9548 68.9925 18.9992 69.0184C18.9966 69.023 18.9938 69.0276 18.9906 69.032L17.1434 71.6513L13.6623 72.4325C13.6545 72.4343 13.6467 72.4354 13.6389 72.4359Z" fill="#51B022"/>
<path d="M14.2243 74.2174C14.1968 74.17 14.1704 74.1226 14.145 74.0753C14.1205 74.0298 14.0969 73.9843 14.0743 73.9389C14.0879 73.9319 14.1028 73.9267 14.1186 73.924L18.4875 73.1583L19.4933 69.4253C19.4989 69.4047 19.5084 69.3862 19.5208 69.3704C19.5611 69.4013 19.6013 69.433 19.6412 69.4654C19.6847 69.5006 19.7279 69.5367 19.7709 69.5736L18.7325 73.4273L14.2243 74.2174Z" fill="#51B022"/>
<path d="M15.4876 75.7509C15.4372 75.7046 15.388 75.6583 15.3399 75.612C15.3028 75.5761 15.2663 75.5403 15.2305 75.5044C15.2546 75.4797 15.2871 75.463 15.324 75.4591L20.0592 74.9593L20.715 70.7224C20.7212 70.6824 20.7423 70.6484 20.7717 70.6252C20.8034 70.665 20.835 70.7053 20.8664 70.7459C20.9097 70.802 20.9527 70.8587 20.9952 70.9163L20.326 75.2402L15.4876 75.7509Z" fill="#51B022"/>
<path d="M17.418 77.1483C17.3371 77.1009 17.2576 77.0534 17.1796 77.0058C17.1357 76.9789 17.0922 76.952 17.0493 76.925C17.075 76.8834 17.12 76.8548 17.1725 76.8523L21.5334 76.6458L21.8586 72.5266C21.8628 72.4728 21.8942 72.4277 21.9382 72.4037C21.9627 72.4485 21.9871 72.4935 22.0113 72.5387C22.0565 72.623 22.1011 72.708 22.145 72.7937L21.8177 76.94L17.418 77.1483Z" fill="#51B022"/>
<path d="M19.0218 77.9718C18.8813 77.9081 18.744 77.844 18.61 77.7796C18.5636 77.7573 18.5176 77.7349 18.472 77.7125C18.4991 77.6566 18.5586 77.6205 18.624 77.6265L22.731 78.0046V74.4261C22.731 74.3616 22.7706 74.3064 22.8268 74.2836C22.8461 74.331 22.8652 74.3785 22.8842 74.4261C22.9367 74.5576 22.9878 74.6897 23.0375 74.822V78.3414L19.0218 77.9718Z" fill="#51B022"/>
</g>
<g style="mix-blend-mode:multiply">
<path d="M24.192 79.3559C24.192 79.3559 24.192 79.3558 24.192 79.3559L15.2091 69.0993C15.1507 69.1343 15.0922 69.171 15.0334 69.2093C14.9802 69.2508 14.9276 69.2943 14.876 69.3399L14.8798 69.3444L24.0747 79.843L27.1403 83.4285C27.2137 83.5144 27.3428 83.5243 27.4285 83.4507C27.5141 83.377 27.5241 83.2477 27.4506 83.1618L24.3851 79.5763L24.192 79.3559Z" fill="#51B022"/>
</g>
<path d="M31.2545 0C25.4239 0 23.9662 6.3921 23.9662 9.58816C19.7148 9.28377 11.5156 7.76184 9.38989 14.1539C7.93224 18.5371 11.2119 22.068 13.034 23.2855C10.3009 24.1987 5.19909 27.5774 6.65674 33.7868C8.11439 39.9963 15.1596 38.5048 18.5 36.9829C18.1964 40.3311 19.32 47.2103 26.2438 47.9408C33.1676 48.6713 36.7207 42.4618 37.6317 39.2658C40.3648 42.0053 46.742 44.7447 51.7527 39.2658C56.7633 33.3303 50.3861 26.4816 46.742 24.1987C49.4751 23.2855 54.2124 19.8155 51.2971 13.2408C48.3819 6.66605 40.9721 8.06623 37.6317 9.58816C37.9354 6.3921 37.0851 0 31.2545 0Z" fill="#CDCDCD"/>
<path d="M31.909 0.456595C26.8983 1.36975 27.0177 7.96846 27.0177 10.583C23.5712 10.334 20.2254 11.132 18.1553 14.154C15.966 17.35 16.6783 20.7919 18.1553 21.7879C15.9397 22.5349 11.8039 25.2988 12.9855 30.3784C14.1672 35.458 19.8785 34.2379 22.5865 32.9929C22.3403 35.7319 23.2512 41.3592 28.8641 41.9568C34.477 42.5544 37.3573 37.4748 38.0958 34.8604C40.3114 37.1013 45.4812 39.3423 49.5431 34.8604C53.6051 30.0049 48.4353 24.4024 45.4812 22.5349C47.6968 21.7879 51.5372 18.9493 49.1739 13.5709C46.8106 8.19256 40.8038 9.33796 38.0958 10.583C38.342 7.96846 37.8037 -0.617669 31.909 0.456595Z" fill="white"/>
<path fill-rule="evenodd" clip-rule="evenodd" d="M22.9454 39.7544L38.7357 12.3409L39.424 12.7392L23.6337 40.1527L22.9454 39.7544Z" fill="#9B9B9B"/>
<path d="M40.2439 12.909C40.0258 13.2875 39.3869 13.3269 38.8167 12.9969C38.2465 12.667 37.9611 12.0926 38.1791 11.7141C38.3971 11.3356 39.0361 11.2963 39.6062 11.6262C40.1764 11.9562 40.4619 12.5305 40.2439 12.909Z" fill="#9B9B9B"/>
<path d="M24.4536 40.3225C24.2356 40.701 23.5966 40.7404 23.0264 40.4104C22.4563 40.0805 22.1708 39.5062 22.3888 39.1277C22.6068 38.7492 23.2458 38.7098 23.816 39.0398C24.3861 39.3697 24.6716 39.944 24.4536 40.3225Z" fill="#9B9B9B"/>
<path fill-rule="evenodd" clip-rule="evenodd" d="M19.2966 36.7337L44.4509 11.5206L45.0129 12.0839L19.8586 37.297L19.2966 36.7337Z" fill="#9B9B9B"/>
<path d="M45.7845 12.4371C45.4372 12.7852 44.7783 12.6891 44.3127 12.2225C43.8472 11.7559 43.7513 11.0954 44.0986 10.7473C44.446 10.3991 45.1049 10.4952 45.5704 10.9618C46.036 11.4285 46.1318 12.0889 45.7845 12.4371Z" fill="#9B9B9B"/>
<path d="M20.6302 37.6501C20.2829 37.9982 19.6239 37.9022 19.1584 37.4355C18.6929 36.9689 18.597 36.3084 18.9443 35.9603C19.2916 35.6122 19.9506 35.7083 20.4161 36.1749C20.8817 36.6415 20.9775 37.302 20.6302 37.6501Z" fill="#9B9B9B"/>
<path fill-rule="evenodd" clip-rule="evenodd" d="M20.2422 30.754L45.7129 16.0141L46.1103 16.704L20.6396 31.4439L20.2422 30.754Z" fill="#9B9B9B"/>
<path d="M46.7199 17.271C46.3682 17.4745 45.8162 17.1762 45.4871 16.6047C45.1579 16.0332 45.1761 15.4049 45.5278 15.2014C45.8795 14.9979 46.4314 15.2962 46.7606 15.8677C47.0898 16.4392 47.0716 17.0675 46.7199 17.271Z" fill="#9B9B9B"/>
<path d="M21.2491 32.0109C20.8974 32.2144 20.3455 31.9161 20.0163 31.3446C19.6871 30.7731 19.7053 30.1448 20.057 29.9413C20.4087 29.7378 20.9606 30.0361 21.2898 30.6076C21.619 31.1791 21.6008 31.8074 21.2491 32.0109Z" fill="#9B9B9B"/>
<path fill-rule="evenodd" clip-rule="evenodd" d="M16.9716 27.9205L45.7769 20.1841L45.9826 20.9536L17.1773 28.69L16.9716 27.9205Z" fill="#9B9B9B"/>
<path d="M46.4283 21.6585C46.0306 21.7654 45.57 21.3352 45.3996 20.6978C45.2292 20.0604 45.4135 19.457 45.8112 19.3502C46.209 19.2434 46.6695 19.6735 46.8399 20.311C47.0103 20.9484 46.826 21.5517 46.4283 21.6585Z" fill="#9B9B9B"/>
<path d="M17.623 29.3949C17.2253 29.5017 16.7647 29.0716 16.5943 28.4342C16.4239 27.7967 16.6082 27.1934 17.0059 27.0866C17.4036 26.9798 17.8642 27.4099 18.0346 28.0473C18.205 28.6848 18.0207 29.2881 17.623 29.3949Z" fill="#9B9B9B"/>
<path fill-rule="evenodd" clip-rule="evenodd" d="M16.884 23.7421L44.6488 23.7421L44.6488 24.6553L16.884 24.6553L16.884 23.7421Z" fill="#9B9B9B"/>
<path d="M44.8802 25.5684C44.4968 25.5684 44.186 24.9552 44.186 24.1987C44.186 23.4422 44.4968 22.829 44.8802 22.829C45.2635 22.829 45.5743 23.4422 45.5743 24.1987C45.5743 24.9552 45.2635 25.5684 44.8802 25.5684Z" fill="#9B9B9B"/>
<path d="M17.1153 25.5684C16.732 25.5684 16.4212 24.9552 16.4212 24.1987C16.4212 23.4422 16.732 22.829 17.1153 22.829C17.4987 22.829 17.8095 23.4422 17.8095 24.1987C17.8095 24.9552 17.4987 25.5684 17.1153 25.5684Z" fill="#9B9B9B"/>
<path fill-rule="evenodd" clip-rule="evenodd" d="M14.9453 19.108L46.0044 27.4497L45.7987 28.2192L14.7396 19.8775L14.9453 19.108Z" fill="#9B9B9B"/>
<path d="M45.8518 29.0581C45.423 28.943 45.2135 28.3329 45.3839 27.6954C45.5543 27.058 46.04 26.6346 46.4689 26.7498C46.8977 26.865 47.1072 27.4751 46.9368 28.1125C46.7664 28.7499 46.2806 29.1733 45.8518 29.0581Z" fill="#9B9B9B"/>
<path d="M14.7927 20.7164C14.3638 20.6013 14.1543 19.9912 14.3247 19.3537C14.4951 18.7163 14.9809 18.2929 15.4097 18.4081C15.8386 18.5233 16.0481 19.1334 15.8777 19.7708C15.7073 20.4082 15.2215 20.8316 14.7927 20.7164Z" fill="#9B9B9B"/>
<path fill-rule="evenodd" clip-rule="evenodd" d="M19.3268 16.194L44.127 30.5458L43.7296 31.2357L18.9294 16.8839L19.3268 16.194Z" fill="#9B9B9B"/>
<path d="M43.5389 32.0451C43.1965 31.847 43.1858 31.2231 43.515 30.6516C43.8441 30.0801 44.3886 29.7774 44.731 29.9756C45.0734 30.1737 45.0841 30.7976 44.755 31.3691C44.4258 31.9406 43.8813 32.2433 43.5389 32.0451Z" fill="#9B9B9B"/>
<path d="M18.7387 17.6933C18.3963 17.4952 18.3856 16.8713 18.7148 16.2997C19.0439 15.7282 19.5884 15.4256 19.9308 15.6237C20.2732 15.8219 20.2839 16.4458 19.9548 17.0173C19.6256 17.5888 19.0811 17.8915 18.7387 17.6933Z" fill="#9B9B9B"/>
<path fill-rule="evenodd" clip-rule="evenodd" d="M22.1571 13.4043L45.0872 36.3878L44.5252 36.9511L21.5952 13.9676L22.1571 13.4043Z" fill="#9B9B9B"/>
<path d="M44.1544 37.7059C43.8378 37.3886 43.9585 36.753 44.4241 36.2864C44.8896 35.8198 45.5237 35.6988 45.8403 36.0161C46.1569 36.3334 46.0361 36.969 45.5706 37.4356C45.105 37.9022 44.471 38.0232 44.1544 37.7059Z" fill="#9B9B9B"/>
<path d="M21.2243 14.7224C20.9077 14.405 21.0284 13.7695 21.494 13.3029C21.9595 12.8362 22.5936 12.7152 22.9102 13.0325C23.2268 13.3499 23.106 13.9854 22.6405 14.452C22.1749 14.9187 21.5409 15.0397 21.2243 14.7224Z" fill="#9B9B9B"/>
<path fill-rule="evenodd" clip-rule="evenodd" d="M25.2848 11.1108L40.0715 36.7818L39.3832 37.1801L24.5965 11.5091L25.2848 11.1108Z" fill="#9B9B9B"/>
<path d="M38.8182 37.7923C38.614 37.4379 38.9107 36.8831 39.4809 36.5531C40.0511 36.2232 40.6788 36.243 40.883 36.5975C41.0871 36.9519 40.7904 37.5067 40.2202 37.8367C39.6501 38.1666 39.0223 38.1468 38.8182 37.7923Z" fill="#9B9B9B"/>
<path d="M24.0315 12.1213C23.8274 11.7669 24.1241 11.2121 24.6942 10.8821C25.2644 10.5521 25.8921 10.572 26.0963 10.9264C26.3004 11.2809 26.0037 11.8357 25.4336 12.1657C24.8634 12.4956 24.2357 12.4758 24.0315 12.1213Z" fill="#9B9B9B"/>
<path fill-rule="evenodd" clip-rule="evenodd" d="M28.9779 9.99162L36.2 37.0078L35.4324 37.214L28.2103 10.1978L28.9779 9.99162Z" fill="#9B9B9B"/>
<path d="M34.7249 37.6452C34.6252 37.2723 35.0599 36.8315 35.6959 36.6607C36.3318 36.4899 36.9282 36.6538 37.0279 37.0267C37.1276 37.3996 36.6928 37.8404 36.0569 38.0112C35.421 38.182 34.8246 38.0181 34.7249 37.6452Z" fill="#9B9B9B"/>
<path d="M27.5028 10.629C27.4031 10.2561 27.8378 9.81532 28.4737 9.64452C29.1097 9.47372 29.706 9.63758 29.8057 10.0105C29.9054 10.3834 29.4707 10.8242 28.8348 10.995C28.1988 11.1658 27.6025 11.0019 27.5028 10.629Z" fill="#9B9B9B"/>
<path fill-rule="evenodd" clip-rule="evenodd" d="M32.762 6.07323L32.762 41.7299L31.9673 41.7299L31.9672 6.07323L32.762 6.07323Z" fill="#9B9B9B"/>
<path d="M31.1725 42.027C31.1725 41.5347 31.7062 41.1356 32.3646 41.1356C33.023 41.1356 33.5567 41.5347 33.5567 42.027C33.5567 42.5193 33.023 42.9184 32.3646 42.9184C31.7062 42.9184 31.1725 42.5193 31.1725 42.027Z" fill="#9B9B9B"/>
<path d="M31.1725 6.37037C31.1725 5.87806 31.7062 5.47896 32.3646 5.47896C33.023 5.47896 33.5567 5.87806 33.5567 6.37037C33.5567 6.86269 33.023 7.26179 32.3646 7.26179C31.7062 7.26179 31.1725 6.86269 31.1725 6.37037Z" fill="#9B9B9B"/>
<path fill-rule="evenodd" clip-rule="evenodd" d="M36.0514 11.9455L29.0237 38.2348L28.256 38.0286L35.2838 11.7394L36.0514 11.9455Z" fill="#9B9B9B"/>
<path d="M27.4297 38.0415C27.5268 37.6785 28.121 37.5227 28.7569 37.6935C29.3928 37.8643 29.8297 38.297 29.7327 38.66C29.6356 39.023 29.0415 39.1788 28.4055 39.008C27.7696 38.8372 27.3327 38.4045 27.4297 38.0415Z" fill="#9B9B9B"/>
<path d="M34.4575 11.7523C34.5545 11.3893 35.1487 11.2335 35.7847 11.4043C36.4206 11.5751 36.8575 12.0078 36.7605 12.3708C36.6634 12.7337 36.0692 12.8895 35.4333 12.7187C34.7974 12.5479 34.3605 12.1152 34.4575 11.7523Z" fill="#9B9B9B"/>
<path fill-rule="evenodd" clip-rule="evenodd" d="M39.6356 12.3717L23.8951 39.6987L23.2069 39.3004L38.9473 11.9735L39.6356 12.3717Z" fill="#9B9B9B"/>
<path d="M22.3875 39.1298C22.6048 38.7525 23.2432 38.7141 23.8134 39.0441C24.3835 39.374 24.6696 39.9474 24.4522 40.3247C24.2349 40.702 23.5966 40.7404 23.0264 40.4104C22.4563 40.0805 22.1701 39.5071 22.3875 39.1298Z" fill="#9B9B9B"/>
<path d="M38.1279 11.8029C38.3452 11.4256 38.9836 11.3872 39.5538 11.7172C40.124 12.0471 40.41 12.6205 40.1927 12.9978C39.9753 13.3751 39.3369 13.4135 38.7668 13.0835C38.1966 12.7536 37.9106 12.1802 38.1279 11.8029Z" fill="#9B9B9B"/>
<path fill-rule="evenodd" clip-rule="evenodd" d="M45.4321 11.6637L20.2777 36.8767L19.7158 36.3135L44.8701 11.1004L45.4321 11.6637Z" fill="#9B9B9B"/>
<path d="M18.9443 35.9603C19.2916 35.6122 19.9506 35.7083 20.4161 36.1749C20.8817 36.6415 20.9775 37.302 20.6302 37.6501C20.2829 37.9982 19.6239 37.9022 19.1584 37.4355C18.6929 36.9689 18.597 36.3084 18.9443 35.9603Z" fill="#9B9B9B"/>
<path d="M44.0986 10.7473C44.446 10.3991 45.1049 10.4952 45.5704 10.9618C46.036 11.4285 46.1318 12.0889 45.7845 12.4371C45.4372 12.7852 44.7783 12.6891 44.3127 12.2225C43.8472 11.7559 43.7513 11.0954 44.0986 10.7473Z" fill="#9B9B9B"/>
<path fill-rule="evenodd" clip-rule="evenodd" d="M46.4372 16.5148L21.1512 31.1477L20.7538 30.4579L46.0398 15.8249L46.4372 16.5148Z" fill="#9B9B9B"/>
<path d="M20.1458 29.8899C20.4949 29.6879 21.0448 29.9874 21.374 30.5589C21.7032 31.1304 21.687 31.7575 21.3379 31.9595C20.9888 32.1616 20.4389 31.8621 20.1097 31.2906C19.7805 30.7191 19.7967 30.092 20.1458 29.8899Z" fill="#9B9B9B"/>
<path d="M45.4318 15.257C45.7809 15.055 46.3308 15.3545 46.66 15.926C46.9892 16.4975 46.973 17.1246 46.6239 17.3266C46.2747 17.5286 45.7249 17.2291 45.3957 16.6576C45.0665 16.0861 45.0827 15.459 45.4318 15.257Z" fill="#9B9B9B"/>
<path fill-rule="evenodd" clip-rule="evenodd" d="M46.4692 20.8228L17.7137 28.5458L17.5081 27.7764L46.2635 20.0534L46.4692 20.8228Z" fill="#9B9B9B"/>
<path d="M17.0627 27.0713C17.4598 26.9646 17.9197 27.3949 18.0901 28.0324C18.2605 28.6698 18.0768 29.273 17.6798 29.3796C17.2828 29.4862 16.8228 29.0559 16.6524 28.4185C16.482 27.7811 16.6657 27.1779 17.0627 27.0713Z" fill="#9B9B9B"/>
<path d="M45.8182 19.3483C46.2152 19.2417 46.6752 19.672 46.8456 20.3094C47.016 20.9468 46.8323 21.55 46.4353 21.6566C46.0382 21.7632 45.5783 21.333 45.4079 20.6955C45.2375 20.0581 45.4212 19.4549 45.8182 19.3483Z" fill="#9B9B9B"/>
<path fill-rule="evenodd" clip-rule="evenodd" d="M45.1115 24.6553L17.3468 24.6553L17.3468 23.7421L45.1115 23.7421L45.1115 24.6553Z" fill="#9B9B9B"/>
<path d="M17.1153 22.829C17.4987 22.829 17.8095 23.4422 17.8095 24.1987C17.8095 24.9552 17.4987 25.5684 17.1153 25.5684C16.732 25.5684 16.4212 24.9552 16.4212 24.1987C16.4212 23.4422 16.732 22.829 17.1153 22.829Z" fill="#9B9B9B"/>
<path d="M44.8802 22.829C45.2635 22.829 45.5743 23.4422 45.5743 24.1987C45.5743 24.9552 45.2635 25.5684 44.8802 25.5684C44.4968 25.5684 44.186 24.9552 44.186 24.1987C44.186 23.4422 44.4968 22.829 44.8802 22.829Z" fill="#9B9B9B"/>
<path fill-rule="evenodd" clip-rule="evenodd" d="M46.1394 28.3107L15.2514 20.0149L15.4571 19.2455L46.3451 27.5412L46.1394 28.3107Z" fill="#9B9B9B"/>
<path d="M15.4054 18.4069C15.8318 18.5214 16.0394 19.131 15.869 19.7685C15.6986 20.4059 15.2148 20.8298 14.7883 20.7152C14.3618 20.6007 14.1543 19.9912 14.3247 19.3537C14.4951 18.7163 14.9789 18.2924 15.4054 18.4069Z" fill="#9B9B9B"/>
<path d="M46.2934 26.7026C46.7199 26.8172 46.9274 27.4268 46.757 28.0642C46.5866 28.7016 46.1028 29.1255 45.6763 29.011C45.2498 28.8964 45.0423 28.2868 45.2127 27.6494C45.3831 27.012 45.8669 26.5881 46.2934 26.7026Z" fill="#9B9B9B"/>
<path fill-rule="evenodd" clip-rule="evenodd" d="M44.1226 31.4629L19.2806 17.0869L19.6779 16.397L44.5199 30.7731L44.1226 31.4629Z" fill="#9B9B9B"/>
<path d="M19.8683 15.5874C20.2113 15.7859 20.2225 16.4101 19.8933 16.9816C19.5641 17.5531 19.0192 17.8554 18.6762 17.657C18.3332 17.4585 18.322 16.8343 18.6512 16.2628C18.9804 15.6913 19.5253 15.3889 19.8683 15.5874Z" fill="#9B9B9B"/>
<path d="M44.7103 29.9634C45.0533 30.1619 45.0645 30.7861 44.7353 31.3576C44.4061 31.9291 43.8612 32.2315 43.5182 32.033C43.1752 31.8345 43.164 31.2103 43.4932 30.6388C43.8224 30.0673 44.3673 29.7649 44.7103 29.9634Z" fill="#9B9B9B"/>
<path fill-rule="evenodd" clip-rule="evenodd" d="M44.9062 37.3328L21.8951 14.268L22.4571 13.7048L45.4681 36.7696L44.9062 37.3328Z" fill="#9B9B9B"/>
<path d="M22.8272 12.9493C23.1449 13.2678 23.0251 13.9042 22.5596 14.3708C22.094 14.8374 21.4591 14.9576 21.1414 14.6391C20.8236 14.3206 20.9435 13.6842 21.409 13.2176C21.8746 12.7509 22.5095 12.6308 22.8272 12.9493Z" fill="#9B9B9B"/>
<path d="M45.8383 36.0141C46.156 36.3325 46.0361 36.969 45.5706 37.4356C45.105 37.9022 44.4701 38.0223 44.1524 37.7039C43.8347 37.3854 43.9546 36.749 44.4201 36.2823C44.8856 35.8157 45.5206 35.6956 45.8383 36.0141Z" fill="#9B9B9B"/>
<path fill-rule="evenodd" clip-rule="evenodd" d="M39.6681 37.6752L24.7949 11.8538L25.4831 11.4555L40.3564 37.2769L39.6681 37.6752Z" fill="#9B9B9B"/>
<path d="M26.0474 10.842C26.2528 11.1985 25.957 11.755 25.3869 12.085C24.8167 12.4149 24.188 12.3934 23.9826 12.0369C23.7773 11.6804 24.073 11.1239 24.6432 10.7939C25.2134 10.464 25.842 10.4855 26.0474 10.842Z" fill="#9B9B9B"/>
<path d="M40.9206 36.6634C41.126 37.0199 40.8303 37.5764 40.2601 37.9064C39.6899 38.2363 39.0612 38.2148 38.8559 37.8583C38.6505 37.5018 38.9463 36.9453 39.5164 36.6153C40.0866 36.2854 40.7153 36.3069 40.9206 36.6634Z" fill="#9B9B9B"/>
<path fill-rule="evenodd" clip-rule="evenodd" d="M35.543 37.6278L28.304 10.5484L29.0716 10.3423L36.3106 37.4216L35.543 37.6278Z" fill="#9B9B9B"/>
<path d="M29.7791 9.91109C29.8791 10.285 29.4446 10.7265 28.8086 10.8973C28.1727 11.0681 27.5761 10.9035 27.4762 10.5296C27.3762 10.1557 27.8107 9.71416 28.4467 9.54337C29.0826 9.37257 29.6792 9.53721 29.7791 9.91109Z" fill="#9B9B9B"/>
<path d="M37.0182 36.9904C37.1181 37.3643 36.6836 37.8059 36.0477 37.9767C35.4117 38.1475 34.8152 37.9828 34.7152 37.6089C34.6153 37.2351 35.0498 36.7935 35.6857 36.6227C36.3217 36.4519 36.9182 36.6165 37.0182 36.9904Z" fill="#9B9B9B"/>
<path fill-rule="evenodd" clip-rule="evenodd" d="M31.9671 42.3241L31.9671 6.6675L32.7618 6.6675L32.7618 42.3241L31.9671 42.3241Z" fill="#9B9B9B"/>
<path d="M33.5567 6.37037C33.5567 6.86269 33.023 7.26179 32.3646 7.26179C31.7062 7.26179 31.1725 6.86269 31.1725 6.37037C31.1725 5.87806 31.7062 5.47896 32.3646 5.47896C33.023 5.47896 33.5567 5.87806 33.5567 6.37037Z" fill="#9B9B9B"/>
<path d="M33.5567 42.027C33.5567 42.5193 33.023 42.9184 32.3646 42.9184C31.7062 42.9184 31.1725 42.5193 31.1725 42.027C31.1725 41.5347 31.7062 41.1356 32.3646 41.1356C33.023 41.1356 33.5567 41.5347 33.5567 42.027Z" fill="#9B9B9B"/>
<path fill-rule="evenodd" clip-rule="evenodd" d="M28.1592 38.3909L35.1789 12.1317L35.9466 12.3379L28.9269 38.597L28.1592 38.3909Z" fill="#9B9B9B"/>
<path d="M36.7727 12.3253C36.6758 12.6878 36.0817 12.8433 35.4457 12.6725C34.8098 12.5017 34.3728 12.0693 34.4697 11.7067C34.5667 11.3442 35.1608 11.1887 35.7967 11.3595C36.4326 11.5303 36.8696 11.9627 36.7727 12.3253Z" fill="#9B9B9B"/>
<path d="M29.7529 38.5844C29.656 38.947 29.0619 39.1024 28.426 38.9316C27.79 38.7608 27.3531 38.3284 27.45 37.9659C27.5469 37.6033 28.141 37.4479 28.7769 37.6187C29.4129 37.7895 29.8499 38.2218 29.7529 38.5844Z" fill="#9B9B9B"/>
<ellipse cx="7.2925" cy="7.75732" rx="7.2925" ry="7.75732" transform="matrix(0.86552 0.500875 -0.499126 0.86653 29.4028 13.624)" fill="#9B9B9B"/>
<g style="mix-blend-mode:multiply">
<path d="M31.2545 0C25.4239 0 23.9662 6.3921 23.9662 9.58816C19.7148 9.28377 11.5156 7.76184 9.38989 14.1539C7.93224 18.5371 11.2119 22.068 13.034 23.2855C10.3009 24.1987 5.19909 27.5774 6.65674 33.7868C8.11439 39.9963 15.1596 38.5048 18.5 36.9829C18.1964 40.3311 19.32 47.2103 26.2438 47.9408C33.1676 48.6713 36.7207 42.4618 37.6317 39.2658C40.3648 42.0053 46.742 44.7447 51.7527 39.2658C56.7633 33.3303 50.3861 26.4816 46.742 24.1987C49.4751 23.2855 54.2124 19.8155 51.2971 13.2408C48.3819 6.66605 40.9721 8.06623 37.6317 9.58816C37.9354 6.3921 37.0851 0 31.2545 0Z" fill="#BF55D0"/>
<path d="M31.909 0.456595C26.8983 1.36975 27.0177 7.96846 27.0177 10.583C23.5712 10.334 20.2254 11.132 18.1553 14.154C15.966 17.35 16.6783 20.7919 18.1553 21.7879C15.9397 22.5349 11.8039 25.2988 12.9855 30.3784C14.1672 35.458 19.8785 34.2379 22.5865 32.9929C22.3403 35.7319 23.2512 41.3592 28.8641 41.9568C34.477 42.5544 37.3573 37.4748 38.0958 34.8604C40.3114 37.1013 45.4812 39.3423 49.5431 34.8604C53.6051 30.0049 48.4353 24.4024 45.4812 22.5349C47.6968 21.7879 51.5372 18.9493 49.1739 13.5709C46.8106 8.19256 40.8038 9.33796 38.0958 10.583C38.342 7.96846 37.8037 -0.617669 31.909 0.456595Z" fill="#BF55D0"/>
<path fill-rule="evenodd" clip-rule="evenodd" d="M22.9454 39.7544L38.7357 12.3409L39.424 12.7392L23.6337 40.1527L22.9454 39.7544Z" fill="#BF55D0"/>
<path d="M40.2439 12.909C40.0258 13.2875 39.3869 13.3269 38.8167 12.9969C38.2465 12.667 37.9611 12.0926 38.1791 11.7141C38.3971 11.3356 39.0361 11.2963 39.6062 11.6262C40.1764 11.9562 40.4619 12.5305 40.2439 12.909Z" fill="#BF55D0"/>
<path d="M24.4536 40.3225C24.2356 40.701 23.5966 40.7404 23.0264 40.4104C22.4563 40.0805 22.1708 39.5062 22.3888 39.1277C22.6068 38.7492 23.2458 38.7098 23.816 39.0398C24.3861 39.3697 24.6716 39.944 24.4536 40.3225Z" fill="#BF55D0"/>
<path fill-rule="evenodd" clip-rule="evenodd" d="M19.2966 36.7337L44.4509 11.5206L45.0129 12.0839L19.8586 37.297L19.2966 36.7337Z" fill="#BF55D0"/>
<path d="M45.7845 12.4371C45.4372 12.7852 44.7783 12.6891 44.3127 12.2225C43.8472 11.7559 43.7513 11.0954 44.0986 10.7473C44.446 10.3991 45.1049 10.4952 45.5704 10.9618C46.036 11.4285 46.1318 12.0889 45.7845 12.4371Z" fill="#BF55D0"/>
<path d="M20.6302 37.6501C20.2829 37.9982 19.6239 37.9022 19.1584 37.4355C18.6929 36.9689 18.597 36.3084 18.9443 35.9603C19.2916 35.6122 19.9506 35.7083 20.4161 36.1749C20.8817 36.6415 20.9775 37.302 20.6302 37.6501Z" fill="#BF55D0"/>
<path fill-rule="evenodd" clip-rule="evenodd" d="M20.2422 30.754L45.7129 16.0141L46.1103 16.704L20.6396 31.4439L20.2422 30.754Z" fill="#BF55D0"/>
<path d="M46.7199 17.271C46.3682 17.4745 45.8162 17.1762 45.4871 16.6047C45.1579 16.0332 45.1761 15.4049 45.5278 15.2014C45.8795 14.9979 46.4314 15.2962 46.7606 15.8677C47.0898 16.4392 47.0716 17.0675 46.7199 17.271Z" fill="#BF55D0"/>
<path d="M21.2491 32.0109C20.8974 32.2144 20.3455 31.9161 20.0163 31.3446C19.6871 30.7731 19.7053 30.1448 20.057 29.9413C20.4087 29.7378 20.9606 30.0361 21.2898 30.6076C21.619 31.1791 21.6008 31.8074 21.2491 32.0109Z" fill="#BF55D0"/>
<path fill-rule="evenodd" clip-rule="evenodd" d="M16.9716 27.9205L45.7769 20.1841L45.9826 20.9536L17.1773 28.69L16.9716 27.9205Z" fill="#BF55D0"/>
<path d="M46.4283 21.6585C46.0306 21.7654 45.57 21.3352 45.3996 20.6978C45.2292 20.0604 45.4135 19.457 45.8112 19.3502C46.209 19.2434 46.6695 19.6735 46.8399 20.311C47.0103 20.9484 46.826 21.5517 46.4283 21.6585Z" fill="#BF55D0"/>
<path d="M17.623 29.3949C17.2253 29.5017 16.7647 29.0716 16.5943 28.4342C16.4239 27.7967 16.6082 27.1934 17.0059 27.0866C17.4036 26.9798 17.8642 27.4099 18.0346 28.0473C18.205 28.6848 18.0207 29.2881 17.623 29.3949Z" fill="#BF55D0"/>
<path fill-rule="evenodd" clip-rule="evenodd" d="M16.884 23.7421L44.6488 23.7421L44.6488 24.6553L16.884 24.6553L16.884 23.7421Z" fill="#BF55D0"/>
<path d="M44.8802 25.5684C44.4968 25.5684 44.186 24.9552 44.186 24.1987C44.186 23.4422 44.4968 22.829 44.8802 22.829C45.2635 22.829 45.5743 23.4422 45.5743 24.1987C45.5743 24.9552 45.2635 25.5684 44.8802 25.5684Z" fill="#BF55D0"/>
<path d="M17.1153 25.5684C16.732 25.5684 16.4212 24.9552 16.4212 24.1987C16.4212 23.4422 16.732 22.829 17.1153 22.829C17.4987 22.829 17.8095 23.4422 17.8095 24.1987C17.8095 24.9552 17.4987 25.5684 17.1153 25.5684Z" fill="#BF55D0"/>
<path fill-rule="evenodd" clip-rule="evenodd" d="M14.9453 19.108L46.0044 27.4497L45.7987 28.2192L14.7396 19.8775L14.9453 19.108Z" fill="#BF55D0"/>
<path d="M45.8518 29.0581C45.423 28.943 45.2135 28.3329 45.3839 27.6954C45.5543 27.058 46.04 26.6346 46.4689 26.7498C46.8977 26.865 47.1072 27.4751 46.9368 28.1125C46.7664 28.7499 46.2806 29.1733 45.8518 29.0581Z" fill="#BF55D0"/>
<path d="M14.7927 20.7164C14.3638 20.6013 14.1543 19.9912 14.3247 19.3537C14.4951 18.7163 14.9809 18.2929 15.4097 18.4081C15.8386 18.5233 16.0481 19.1334 15.8777 19.7708C15.7073 20.4082 15.2215 20.8316 14.7927 20.7164Z" fill="#BF55D0"/>
<path fill-rule="evenodd" clip-rule="evenodd" d="M19.3268 16.194L44.127 30.5458L43.7296 31.2357L18.9294 16.8839L19.3268 16.194Z" fill="#BF55D0"/>
<path d="M43.5389 32.0451C43.1965 31.847 43.1858 31.2231 43.515 30.6516C43.8441 30.0801 44.3886 29.7774 44.731 29.9756C45.0734 30.1737 45.0841 30.7976 44.755 31.3691C44.4258 31.9406 43.8813 32.2433 43.5389 32.0451Z" fill="#BF55D0"/>
<path d="M18.7387 17.6933C18.3963 17.4952 18.3856 16.8713 18.7148 16.2997C19.0439 15.7282 19.5884 15.4256 19.9308 15.6237C20.2732 15.8219 20.2839 16.4458 19.9548 17.0173C19.6256 17.5888 19.0811 17.8915 18.7387 17.6933Z" fill="#BF55D0"/>
<path fill-rule="evenodd" clip-rule="evenodd" d="M22.1571 13.4043L45.0872 36.3878L44.5252 36.9511L21.5952 13.9676L22.1571 13.4043Z" fill="#BF55D0"/>
<path d="M44.1544 37.7059C43.8378 37.3886 43.9585 36.753 44.4241 36.2864C44.8896 35.8198 45.5237 35.6988 45.8403 36.0161C46.1569 36.3334 46.0361 36.969 45.5706 37.4356C45.105 37.9022 44.471 38.0232 44.1544 37.7059Z" fill="#BF55D0"/>
<path d="M21.2243 14.7224C20.9077 14.405 21.0284 13.7695 21.494 13.3029C21.9595 12.8362 22.5936 12.7152 22.9102 13.0325C23.2268 13.3499 23.106 13.9854 22.6405 14.452C22.1749 14.9187 21.5409 15.0397 21.2243 14.7224Z" fill="#BF55D0"/>
<path fill-rule="evenodd" clip-rule="evenodd" d="M25.2848 11.1108L40.0715 36.7818L39.3832 37.1801L24.5965 11.5091L25.2848 11.1108Z" fill="#BF55D0"/>
<path d="M38.8182 37.7923C38.614 37.4379 38.9107 36.8831 39.4809 36.5531C40.0511 36.2232 40.6788 36.243 40.883 36.5975C41.0871 36.9519 40.7904 37.5067 40.2202 37.8367C39.6501 38.1666 39.0223 38.1468 38.8182 37.7923Z" fill="#BF55D0"/>
<path d="M24.0315 12.1213C23.8274 11.7669 24.1241 11.2121 24.6942 10.8821C25.2644 10.5521 25.8921 10.572 26.0963 10.9264C26.3004 11.2809 26.0037 11.8357 25.4336 12.1657C24.8634 12.4956 24.2357 12.4758 24.0315 12.1213Z" fill="#BF55D0"/>
<path fill-rule="evenodd" clip-rule="evenodd" d="M28.9779 9.99162L36.2 37.0078L35.4324 37.214L28.2103 10.1978L28.9779 9.99162Z" fill="#BF55D0"/>
<path d="M34.7249 37.6452C34.6252 37.2723 35.0599 36.8315 35.6959 36.6607C36.3318 36.4899 36.9282 36.6538 37.0279 37.0267C37.1276 37.3996 36.6928 37.8404 36.0569 38.0112C35.421 38.182 34.8246 38.0181 34.7249 37.6452Z" fill="#BF55D0"/>
<path d="M27.5028 10.629C27.4031 10.2561 27.8378 9.81532 28.4737 9.64452C29.1097 9.47372 29.706 9.63758 29.8057 10.0105C29.9054 10.3834 29.4707 10.8242 28.8348 10.995C28.1988 11.1658 27.6025 11.0019 27.5028 10.629Z" fill="#BF55D0"/>
<path fill-rule="evenodd" clip-rule="evenodd" d="M32.762 6.07323L32.762 41.7299L31.9673 41.7299L31.9672 6.07323L32.762 6.07323Z" fill="#BF55D0"/>
<path d="M31.1725 42.027C31.1725 41.5347 31.7062 41.1356 32.3646 41.1356C33.023 41.1356 33.5567 41.5347 33.5567 42.027C33.5567 42.5193 33.023 42.9184 32.3646 42.9184C31.7062 42.9184 31.1725 42.5193 31.1725 42.027Z" fill="#BF55D0"/>
<path d="M31.1725 6.37037C31.1725 5.87806 31.7062 5.47896 32.3646 5.47896C33.023 5.47896 33.5567 5.87806 33.5567 6.37037C33.5567 6.86269 33.023 7.26179 32.3646 7.26179C31.7062 7.26179 31.1725 6.86269 31.1725 6.37037Z" fill="#BF55D0"/>
<path fill-rule="evenodd" clip-rule="evenodd" d="M36.0514 11.9455L29.0237 38.2348L28.256 38.0286L35.2838 11.7394L36.0514 11.9455Z" fill="#BF55D0"/>
<path d="M27.4297 38.0415C27.5268 37.6785 28.121 37.5227 28.7569 37.6935C29.3928 37.8643 29.8297 38.297 29.7327 38.66C29.6356 39.023 29.0415 39.1788 28.4055 39.008C27.7696 38.8372 27.3327 38.4045 27.4297 38.0415Z" fill="#BF55D0"/>
<path d="M34.4575 11.7523C34.5545 11.3893 35.1487 11.2335 35.7847 11.4043C36.4206 11.5751 36.8575 12.0078 36.7605 12.3708C36.6634 12.7337 36.0692 12.8895 35.4333 12.7187C34.7974 12.5479 34.3605 12.1152 34.4575 11.7523Z" fill="#BF55D0"/>
<path fill-rule="evenodd" clip-rule="evenodd" d="M39.6356 12.3717L23.8951 39.6987L23.2069 39.3004L38.9473 11.9735L39.6356 12.3717Z" fill="#BF55D0"/>
<path d="M22.3875 39.1298C22.6048 38.7525 23.2432 38.7141 23.8134 39.0441C24.3835 39.374 24.6696 39.9474 24.4522 40.3247C24.2349 40.702 23.5966 40.7404 23.0264 40.4104C22.4563 40.0805 22.1701 39.5071 22.3875 39.1298Z" fill="#BF55D0"/>
<path d="M38.1279 11.8029C38.3452 11.4256 38.9836 11.3872 39.5538 11.7172C40.124 12.0471 40.41 12.6205 40.1927 12.9978C39.9753 13.3751 39.3369 13.4135 38.7668 13.0835C38.1966 12.7536 37.9106 12.1802 38.1279 11.8029Z" fill="#BF55D0"/>
<path fill-rule="evenodd" clip-rule="evenodd" d="M45.4321 11.6637L20.2777 36.8767L19.7158 36.3135L44.8701 11.1004L45.4321 11.6637Z" fill="#BF55D0"/>
<path d="M18.9443 35.9603C19.2916 35.6122 19.9506 35.7083 20.4161 36.1749C20.8817 36.6415 20.9775 37.302 20.6302 37.6501C20.2829 37.9982 19.6239 37.9022 19.1584 37.4355C18.6929 36.9689 18.597 36.3084 18.9443 35.9603Z" fill="#BF55D0"/>
<path d="M44.0986 10.7473C44.446 10.3991 45.1049 10.4952 45.5704 10.9618C46.036 11.4285 46.1318 12.0889 45.7845 12.4371C45.4372 12.7852 44.7783 12.6891 44.3127 12.2225C43.8472 11.7559 43.7513 11.0954 44.0986 10.7473Z" fill="#BF55D0"/>
<path fill-rule="evenodd" clip-rule="evenodd" d="M46.4372 16.5148L21.1512 31.1477L20.7538 30.4579L46.0398 15.8249L46.4372 16.5148Z" fill="#BF55D0"/>
<path d="M20.1458 29.8899C20.4949 29.6879 21.0448 29.9874 21.374 30.5589C21.7032 31.1304 21.687 31.7575 21.3379 31.9595C20.9888 32.1616 20.4389 31.8621 20.1097 31.2906C19.7805 30.7191 19.7967 30.092 20.1458 29.8899Z" fill="#BF55D0"/>
<path d="M45.4318 15.257C45.7809 15.055 46.3308 15.3545 46.66 15.926C46.9892 16.4975 46.973 17.1246 46.6239 17.3266C46.2747 17.5286 45.7249 17.2291 45.3957 16.6576C45.0665 16.0861 45.0827 15.459 45.4318 15.257Z" fill="#BF55D0"/>
<path fill-rule="evenodd" clip-rule="evenodd" d="M46.4692 20.8228L17.7137 28.5458L17.5081 27.7764L46.2635 20.0534L46.4692 20.8228Z" fill="#BF55D0"/>
<path d="M17.0627 27.0713C17.4598 26.9646 17.9197 27.3949 18.0901 28.0324C18.2605 28.6698 18.0768 29.273 17.6798 29.3796C17.2828 29.4862 16.8228 29.0559 16.6524 28.4185C16.482 27.7811 16.6657 27.1779 17.0627 27.0713Z" fill="#BF55D0"/>
<path d="M45.8182 19.3483C46.2152 19.2417 46.6752 19.672 46.8456 20.3094C47.016 20.9468 46.8323 21.55 46.4353 21.6566C46.0382 21.7632 45.5783 21.333 45.4079 20.6955C45.2375 20.0581 45.4212 19.4549 45.8182 19.3483Z" fill="#BF55D0"/>
<path fill-rule="evenodd" clip-rule="evenodd" d="M45.1115 24.6553L17.3468 24.6553L17.3468 23.7421L45.1115 23.7421L45.1115 24.6553Z" fill="#BF55D0"/>
<path d="M17.1153 22.829C17.4987 22.829 17.8095 23.4422 17.8095 24.1987C17.8095 24.9552 17.4987 25.5684 17.1153 25.5684C16.732 25.5684 16.4212 24.9552 16.4212 24.1987C16.4212 23.4422 16.732 22.829 17.1153 22.829Z" fill="#BF55D0"/>
<path d="M44.8802 22.829C45.2635 22.829 45.5743 23.4422 45.5743 24.1987C45.5743 24.9552 45.2635 25.5684 44.8802 25.5684C44.4968 25.5684 44.186 24.9552 44.186 24.1987C44.186 23.4422 44.4968 22.829 44.8802 22.829Z" fill="#BF55D0"/>
<path fill-rule="evenodd" clip-rule="evenodd" d="M46.1394 28.3107L15.2514 20.0149L15.4571 19.2455L46.3451 27.5412L46.1394 28.3107Z" fill="#BF55D0"/>
<path d="M15.4054 18.4069C15.8318 18.5214 16.0394 19.131 15.869 19.7685C15.6986 20.4059 15.2148 20.8298 14.7883 20.7152C14.3618 20.6007 14.1543 19.9912 14.3247 19.3537C14.4951 18.7163 14.9789 18.2924 15.4054 18.4069Z" fill="#BF55D0"/>
<path d="M46.2934 26.7026C46.7199 26.8172 46.9274 27.4268 46.757 28.0642C46.5866 28.7016 46.1028 29.1255 45.6763 29.011C45.2498 28.8964 45.0423 28.2868 45.2127 27.6494C45.3831 27.012 45.8669 26.5881 46.2934 26.7026Z" fill="#BF55D0"/>
<path fill-rule="evenodd" clip-rule="evenodd" d="M44.1226 31.4629L19.2806 17.0869L19.6779 16.397L44.5199 30.7731L44.1226 31.4629Z" fill="#BF55D0"/>
<path d="M19.8683 15.5874C20.2113 15.7859 20.2225 16.4101 19.8933 16.9816C19.5641 17.5531 19.0192 17.8554 18.6762 17.657C18.3332 17.4585 18.322 16.8343 18.6512 16.2628C18.9804 15.6913 19.5253 15.3889 19.8683 15.5874Z" fill="#BF55D0"/>
<path d="M44.7103 29.9634C45.0533 30.1619 45.0645 30.7861 44.7353 31.3576C44.4061 31.9291 43.8612 32.2315 43.5182 32.033C43.1752 31.8345 43.164 31.2103 43.4932 30.6388C43.8224 30.0673 44.3673 29.7649 44.7103 29.9634Z" fill="#BF55D0"/>
<path fill-rule="evenodd" clip-rule="evenodd" d="M44.9062 37.3328L21.8951 14.268L22.4571 13.7048L45.4681 36.7696L44.9062 37.3328Z" fill="#BF55D0"/>
<path d="M22.8272 12.9493C23.1449 13.2678 23.0251 13.9042 22.5596 14.3708C22.094 14.8374 21.4591 14.9576 21.1414 14.6391C20.8236 14.3206 20.9435 13.6842 21.409 13.2176C21.8746 12.7509 22.5095 12.6308 22.8272 12.9493Z" fill="#BF55D0"/>
<path d="M45.8383 36.0141C46.156 36.3325 46.0361 36.969 45.5706 37.4356C45.105 37.9022 44.4701 38.0223 44.1524 37.7039C43.8347 37.3854 43.9546 36.749 44.4201 36.2823C44.8856 35.8157 45.5206 35.6956 45.8383 36.0141Z" fill="#BF55D0"/>
<path fill-rule="evenodd" clip-rule="evenodd" d="M39.6681 37.6752L24.7949 11.8538L25.4831 11.4555L40.3564 37.2769L39.6681 37.6752Z" fill="#BF55D0"/>
<path d="M26.0474 10.842C26.2528 11.1985 25.957 11.755 25.3869 12.085C24.8167 12.4149 24.188 12.3934 23.9826 12.0369C23.7773 11.6804 24.073 11.1239 24.6432 10.7939C25.2134 10.464 25.842 10.4855 26.0474 10.842Z" fill="#BF55D0"/>
<path d="M40.9206 36.6634C41.126 37.0199 40.8303 37.5764 40.2601 37.9064C39.6899 38.2363 39.0612 38.2148 38.8559 37.8583C38.6505 37.5018 38.9463 36.9453 39.5164 36.6153C40.0866 36.2854 40.7153 36.3069 40.9206 36.6634Z" fill="#BF55D0"/>
<path fill-rule="evenodd" clip-rule="evenodd" d="M35.543 37.6278L28.304 10.5484L29.0716 10.3423L36.3106 37.4216L35.543 37.6278Z" fill="#BF55D0"/>
<path d="M29.7791 9.91109C29.8791 10.285 29.4446 10.7265 28.8086 10.8973C28.1727 11.0681 27.5761 10.9035 27.4762 10.5296C27.3762 10.1557 27.8107 9.71416 28.4467 9.54337C29.0826 9.37257 29.6792 9.53721 29.7791 9.91109Z" fill="#BF55D0"/>
<path d="M37.0182 36.9904C37.1181 37.3643 36.6836 37.8059 36.0477 37.9767C35.4117 38.1475 34.8152 37.9828 34.7152 37.6089C34.6153 37.2351 35.0498 36.7935 35.6857 36.6227C36.3217 36.4519 36.9182 36.6165 37.0182 36.9904Z" fill="#BF55D0"/>
<path fill-rule="evenodd" clip-rule="evenodd" d="M31.9671 42.3241L31.9671 6.6675L32.7618 6.6675L32.7618 42.3241L31.9671 42.3241Z" fill="#BF55D0"/>
<path d="M33.5567 6.37037C33.5567 6.86269 33.023 7.26179 32.3646 7.26179C31.7062 7.26179 31.1725 6.86269 31.1725 6.37037C31.1725 5.87806 31.7062 5.47896 32.3646 5.47896C33.023 5.47896 33.5567 5.87806 33.5567 6.37037Z" fill="#BF55D0"/>
<path d="M33.5567 42.027C33.5567 42.5193 33.023 42.9184 32.3646 42.9184C31.7062 42.9184 31.1725 42.5193 31.1725 42.027C31.1725 41.5347 31.7062 41.1356 32.3646 41.1356C33.023 41.1356 33.5567 41.5347 33.5567 42.027Z" fill="#BF55D0"/>
<path fill-rule="evenodd" clip-rule="evenodd" d="M28.1592 38.3909L35.1789 12.1317L35.9466 12.3379L28.9269 38.597L28.1592 38.3909Z" fill="#BF55D0"/>
<path d="M36.7727 12.3253C36.6758 12.6878 36.0817 12.8433 35.4457 12.6725C34.8098 12.5017 34.3728 12.0693 34.4697 11.7067C34.5667 11.3442 35.1608 11.1887 35.7967 11.3595C36.4326 11.5303 36.8696 11.9627 36.7727 12.3253Z" fill="#BF55D0"/>
<path d="M29.7529 38.5844C29.656 38.947 29.0619 39.1024 28.426 38.9316C27.79 38.7608 27.3531 38.3284 27.45 37.9659C27.5469 37.6033 28.141 37.4479 28.7769 37.6187C29.4129 37.7895 29.8499 38.2218 29.7529 38.5844Z" fill="#BF55D0"/>
<ellipse cx="7.2925" cy="7.75732" rx="7.2925" ry="7.75732" transform="matrix(0.86552 0.500875 -0.499126 0.86653 29.4028 13.624)" fill="#BF55D0"/>
</g>
<g style="mix-blend-mode:soft-light">
<path d="M31.2545 0C25.4239 0 23.9662 6.3921 23.9662 9.58816C19.7148 9.28377 11.5156 7.76184 9.38989 14.1539C7.93224 18.5371 11.2119 22.068 13.034 23.2855C10.3009 24.1987 5.19909 27.5774 6.65674 33.7868C8.11439 39.9963 15.1596 38.5048 18.5 36.9829C18.1964 40.3311 19.32 47.2103 26.2438 47.9408C33.1676 48.6713 36.7207 42.4618 37.6317 39.2658C40.3648 42.0053 46.742 44.7447 51.7527 39.2658C56.7633 33.3303 50.3861 26.4816 46.742 24.1987C49.4751 23.2855 54.2124 19.8155 51.2971 13.2408C48.3819 6.66605 40.9721 8.06623 37.6317 9.58816C37.9354 6.3921 37.0851 0 31.2545 0Z" fill="#BF55D0"/>
<path d="M31.909 0.456595C26.8983 1.36975 27.0177 7.96846 27.0177 10.583C23.5712 10.334 20.2254 11.132 18.1553 14.154C15.966 17.35 16.6783 20.7919 18.1553 21.7879C15.9397 22.5349 11.8039 25.2988 12.9855 30.3784C14.1672 35.458 19.8785 34.2379 22.5865 32.9929C22.3403 35.7319 23.2512 41.3592 28.8641 41.9568C34.477 42.5544 37.3573 37.4748 38.0958 34.8604C40.3114 37.1013 45.4812 39.3423 49.5431 34.8604C53.6051 30.0049 48.4353 24.4024 45.4812 22.5349C47.6968 21.7879 51.5372 18.9493 49.1739 13.5709C46.8106 8.19256 40.8038 9.33796 38.0958 10.583C38.342 7.96846 37.8037 -0.617669 31.909 0.456595Z" fill="#BF55D0"/>
<path fill-rule="evenodd" clip-rule="evenodd" d="M22.9454 39.7544L38.7357 12.3409L39.424 12.7392L23.6337 40.1527L22.9454 39.7544Z" fill="#BF55D0"/>
<path d="M40.2439 12.909C40.0258 13.2875 39.3869 13.3269 38.8167 12.9969C38.2465 12.667 37.9611 12.0926 38.1791 11.7141C38.3971 11.3356 39.0361 11.2963 39.6062 11.6262C40.1764 11.9562 40.4619 12.5305 40.2439 12.909Z" fill="#BF55D0"/>
<path d="M24.4536 40.3225C24.2356 40.701 23.5966 40.7404 23.0264 40.4104C22.4563 40.0805 22.1708 39.5062 22.3888 39.1277C22.6068 38.7492 23.2458 38.7098 23.816 39.0398C24.3861 39.3697 24.6716 39.944 24.4536 40.3225Z" fill="#BF55D0"/>
<path fill-rule="evenodd" clip-rule="evenodd" d="M19.2966 36.7337L44.4509 11.5206L45.0129 12.0839L19.8586 37.297L19.2966 36.7337Z" fill="#BF55D0"/>
<path d="M45.7845 12.4371C45.4372 12.7852 44.7783 12.6891 44.3127 12.2225C43.8472 11.7559 43.7513 11.0954 44.0986 10.7473C44.446 10.3991 45.1049 10.4952 45.5704 10.9618C46.036 11.4285 46.1318 12.0889 45.7845 12.4371Z" fill="#BF55D0"/>
<path d="M20.6302 37.6501C20.2829 37.9982 19.6239 37.9022 19.1584 37.4355C18.6929 36.9689 18.597 36.3084 18.9443 35.9603C19.2916 35.6122 19.9506 35.7083 20.4161 36.1749C20.8817 36.6415 20.9775 37.302 20.6302 37.6501Z" fill="#BF55D0"/>
<path fill-rule="evenodd" clip-rule="evenodd" d="M20.2422 30.754L45.7129 16.0141L46.1103 16.704L20.6396 31.4439L20.2422 30.754Z" fill="#BF55D0"/>
<path d="M46.7199 17.271C46.3682 17.4745 45.8162 17.1762 45.4871 16.6047C45.1579 16.0332 45.1761 15.4049 45.5278 15.2014C45.8795 14.9979 46.4314 15.2962 46.7606 15.8677C47.0898 16.4392 47.0716 17.0675 46.7199 17.271Z" fill="#BF55D0"/>
<path d="M21.2491 32.0109C20.8974 32.2144 20.3455 31.9161 20.0163 31.3446C19.6871 30.7731 19.7053 30.1448 20.057 29.9413C20.4087 29.7378 20.9606 30.0361 21.2898 30.6076C21.619 31.1791 21.6008 31.8074 21.2491 32.0109Z" fill="#BF55D0"/>
<path fill-rule="evenodd" clip-rule="evenodd" d="M16.9716 27.9205L45.7769 20.1841L45.9826 20.9536L17.1773 28.69L16.9716 27.9205Z" fill="#BF55D0"/>
<path d="M46.4283 21.6585C46.0306 21.7654 45.57 21.3352 45.3996 20.6978C45.2292 20.0604 45.4135 19.457 45.8112 19.3502C46.209 19.2434 46.6695 19.6735 46.8399 20.311C47.0103 20.9484 46.826 21.5517 46.4283 21.6585Z" fill="#BF55D0"/>
<path d="M17.623 29.3949C17.2253 29.5017 16.7647 29.0716 16.5943 28.4342C16.4239 27.7967 16.6082 27.1934 17.0059 27.0866C17.4036 26.9798 17.8642 27.4099 18.0346 28.0473C18.205 28.6848 18.0207 29.2881 17.623 29.3949Z" fill="#BF55D0"/>
<path fill-rule="evenodd" clip-rule="evenodd" d="M16.884 23.7421L44.6488 23.7421L44.6488 24.6553L16.884 24.6553L16.884 23.7421Z" fill="#BF55D0"/>
<path d="M44.8802 25.5684C44.4968 25.5684 44.186 24.9552 44.186 24.1987C44.186 23.4422 44.4968 22.829 44.8802 22.829C45.2635 22.829 45.5743 23.4422 45.5743 24.1987C45.5743 24.9552 45.2635 25.5684 44.8802 25.5684Z" fill="#BF55D0"/>
<path d="M17.1153 25.5684C16.732 25.5684 16.4212 24.9552 16.4212 24.1987C16.4212 23.4422 16.732 22.829 17.1153 22.829C17.4987 22.829 17.8095 23.4422 17.8095 24.1987C17.8095 24.9552 17.4987 25.5684 17.1153 25.5684Z" fill="#BF55D0"/>
<path fill-rule="evenodd" clip-rule="evenodd" d="M14.9453 19.108L46.0044 27.4497L45.7987 28.2192L14.7396 19.8775L14.9453 19.108Z" fill="#BF55D0"/>
<path d="M45.8518 29.0581C45.423 28.943 45.2135 28.3329 45.3839 27.6954C45.5543 27.058 46.04 26.6346 46.4689 26.7498C46.8977 26.865 47.1072 27.4751 46.9368 28.1125C46.7664 28.7499 46.2806 29.1733 45.8518 29.0581Z" fill="#BF55D0"/>
<path d="M14.7927 20.7164C14.3638 20.6013 14.1543 19.9912 14.3247 19.3537C14.4951 18.7163 14.9809 18.2929 15.4097 18.4081C15.8386 18.5233 16.0481 19.1334 15.8777 19.7708C15.7073 20.4082 15.2215 20.8316 14.7927 20.7164Z" fill="#BF55D0"/>
<path fill-rule="evenodd" clip-rule="evenodd" d="M19.3268 16.194L44.127 30.5458L43.7296 31.2357L18.9294 16.8839L19.3268 16.194Z" fill="#BF55D0"/>
<path d="M43.5389 32.0451C43.1965 31.847 43.1858 31.2231 43.515 30.6516C43.8441 30.0801 44.3886 29.7774 44.731 29.9756C45.0734 30.1737 45.0841 30.7976 44.755 31.3691C44.4258 31.9406 43.8813 32.2433 43.5389 32.0451Z" fill="#BF55D0"/>
<path d="M18.7387 17.6933C18.3963 17.4952 18.3856 16.8713 18.7148 16.2997C19.0439 15.7282 19.5884 15.4256 19.9308 15.6237C20.2732 15.8219 20.2839 16.4458 19.9548 17.0173C19.6256 17.5888 19.0811 17.8915 18.7387 17.6933Z" fill="#BF55D0"/>
<path fill-rule="evenodd" clip-rule="evenodd" d="M22.1571 13.4043L45.0872 36.3878L44.5252 36.9511L21.5952 13.9676L22.1571 13.4043Z" fill="#BF55D0"/>
<path d="M44.1544 37.7059C43.8378 37.3886 43.9585 36.753 44.4241 36.2864C44.8896 35.8198 45.5237 35.6988 45.8403 36.0161C46.1569 36.3334 46.0361 36.969 45.5706 37.4356C45.105 37.9022 44.471 38.0232 44.1544 37.7059Z" fill="#BF55D0"/>
<path d="M21.2243 14.7224C20.9077 14.405 21.0284 13.7695 21.494 13.3029C21.9595 12.8362 22.5936 12.7152 22.9102 13.0325C23.2268 13.3499 23.106 13.9854 22.6405 14.452C22.1749 14.9187 21.5409 15.0397 21.2243 14.7224Z" fill="#BF55D0"/>
<path fill-rule="evenodd" clip-rule="evenodd" d="M25.2848 11.1108L40.0715 36.7818L39.3832 37.1801L24.5965 11.5091L25.2848 11.1108Z" fill="#BF55D0"/>
<path d="M38.8182 37.7923C38.614 37.4379 38.9107 36.8831 39.4809 36.5531C40.0511 36.2232 40.6788 36.243 40.883 36.5975C41.0871 36.9519 40.7904 37.5067 40.2202 37.8367C39.6501 38.1666 39.0223 38.1468 38.8182 37.7923Z" fill="#BF55D0"/>
<path d="M24.0315 12.1213C23.8274 11.7669 24.1241 11.2121 24.6942 10.8821C25.2644 10.5521 25.8921 10.572 26.0963 10.9264C26.3004 11.2809 26.0037 11.8357 25.4336 12.1657C24.8634 12.4956 24.2357 12.4758 24.0315 12.1213Z" fill="#BF55D0"/>
<path fill-rule="evenodd" clip-rule="evenodd" d="M28.9779 9.99162L36.2 37.0078L35.4324 37.214L28.2103 10.1978L28.9779 9.99162Z" fill="#BF55D0"/>
<path d="M34.7249 37.6452C34.6252 37.2723 35.0599 36.8315 35.6959 36.6607C36.3318 36.4899 36.9282 36.6538 37.0279 37.0267C37.1276 37.3996 36.6928 37.8404 36.0569 38.0112C35.421 38.182 34.8246 38.0181 34.7249 37.6452Z" fill="#BF55D0"/>
<path d="M27.5028 10.629C27.4031 10.2561 27.8378 9.81532 28.4737 9.64452C29.1097 9.47372 29.706 9.63758 29.8057 10.0105C29.9054 10.3834 29.4707 10.8242 28.8348 10.995C28.1988 11.1658 27.6025 11.0019 27.5028 10.629Z" fill="#BF55D0"/>
<path fill-rule="evenodd" clip-rule="evenodd" d="M32.762 6.07323L32.762 41.7299L31.9673 41.7299L31.9672 6.07323L32.762 6.07323Z" fill="#BF55D0"/>
<path d="M31.1725 42.027C31.1725 41.5347 31.7062 41.1356 32.3646 41.1356C33.023 41.1356 33.5567 41.5347 33.5567 42.027C33.5567 42.5193 33.023 42.9184 32.3646 42.9184C31.7062 42.9184 31.1725 42.5193 31.1725 42.027Z" fill="#BF55D0"/>
<path d="M31.1725 6.37037C31.1725 5.87806 31.7062 5.47896 32.3646 5.47896C33.023 5.47896 33.5567 5.87806 33.5567 6.37037C33.5567 6.86269 33.023 7.26179 32.3646 7.26179C31.7062 7.26179 31.1725 6.86269 31.1725 6.37037Z" fill="#BF55D0"/>
<path fill-rule="evenodd" clip-rule="evenodd" d="M36.0514 11.9455L29.0237 38.2348L28.256 38.0286L35.2838 11.7394L36.0514 11.9455Z" fill="#BF55D0"/>
<path d="M27.4297 38.0415C27.5268 37.6785 28.121 37.5227 28.7569 37.6935C29.3928 37.8643 29.8297 38.297 29.7327 38.66C29.6356 39.023 29.0415 39.1788 28.4055 39.008C27.7696 38.8372 27.3327 38.4045 27.4297 38.0415Z" fill="#BF55D0"/>
<path d="M34.4575 11.7523C34.5545 11.3893 35.1487 11.2335 35.7847 11.4043C36.4206 11.5751 36.8575 12.0078 36.7605 12.3708C36.6634 12.7337 36.0692 12.8895 35.4333 12.7187C34.7974 12.5479 34.3605 12.1152 34.4575 11.7523Z" fill="#BF55D0"/>
<path fill-rule="evenodd" clip-rule="evenodd" d="M39.6356 12.3717L23.8951 39.6987L23.2069 39.3004L38.9473 11.9735L39.6356 12.3717Z" fill="#BF55D0"/>
<path d="M22.3875 39.1298C22.6048 38.7525 23.2432 38.7141 23.8134 39.0441C24.3835 39.374 24.6696 39.9474 24.4522 40.3247C24.2349 40.702 23.5966 40.7404 23.0264 40.4104C22.4563 40.0805 22.1701 39.5071 22.3875 39.1298Z" fill="#BF55D0"/>
<path d="M38.1279 11.8029C38.3452 11.4256 38.9836 11.3872 39.5538 11.7172C40.124 12.0471 40.41 12.6205 40.1927 12.9978C39.9753 13.3751 39.3369 13.4135 38.7668 13.0835C38.1966 12.7536 37.9106 12.1802 38.1279 11.8029Z" fill="#BF55D0"/>
<path fill-rule="evenodd" clip-rule="evenodd" d="M45.4321 11.6637L20.2777 36.8767L19.7158 36.3135L44.8701 11.1004L45.4321 11.6637Z" fill="#BF55D0"/>
<path d="M18.9443 35.9603C19.2916 35.6122 19.9506 35.7083 20.4161 36.1749C20.8817 36.6415 20.9775 37.302 20.6302 37.6501C20.2829 37.9982 19.6239 37.9022 19.1584 37.4355C18.6929 36.9689 18.597 36.3084 18.9443 35.9603Z" fill="#BF55D0"/>
<path d="M44.0986 10.7473C44.446 10.3991 45.1049 10.4952 45.5704 10.9618C46.036 11.4285 46.1318 12.0889 45.7845 12.4371C45.4372 12.7852 44.7783 12.6891 44.3127 12.2225C43.8472 11.7559 43.7513 11.0954 44.0986 10.7473Z" fill="#BF55D0"/>
<path fill-rule="evenodd" clip-rule="evenodd" d="M46.4372 16.5148L21.1512 31.1477L20.7538 30.4579L46.0398 15.8249L46.4372 16.5148Z" fill="#BF55D0"/>
<path d="M20.1458 29.8899C20.4949 29.6879 21.0448 29.9874 21.374 30.5589C21.7032 31.1304 21.687 31.7575 21.3379 31.9595C20.9888 32.1616 20.4389 31.8621 20.1097 31.2906C19.7805 30.7191 19.7967 30.092 20.1458 29.8899Z" fill="#BF55D0"/>
<path d="M45.4318 15.257C45.7809 15.055 46.3308 15.3545 46.66 15.926C46.9892 16.4975 46.973 17.1246 46.6239 17.3266C46.2747 17.5286 45.7249 17.2291 45.3957 16.6576C45.0665 16.0861 45.0827 15.459 45.4318 15.257Z" fill="#BF55D0"/>
<path fill-rule="evenodd" clip-rule="evenodd" d="M46.4692 20.8228L17.7137 28.5458L17.5081 27.7764L46.2635 20.0534L46.4692 20.8228Z" fill="#BF55D0"/>
<path d="M17.0627 27.0713C17.4598 26.9646 17.9197 27.3949 18.0901 28.0324C18.2605 28.6698 18.0768 29.273 17.6798 29.3796C17.2828 29.4862 16.8228 29.0559 16.6524 28.4185C16.482 27.7811 16.6657 27.1779 17.0627 27.0713Z" fill="#BF55D0"/>
<path d="M45.8182 19.3483C46.2152 19.2417 46.6752 19.672 46.8456 20.3094C47.016 20.9468 46.8323 21.55 46.4353 21.6566C46.0382 21.7632 45.5783 21.333 45.4079 20.6955C45.2375 20.0581 45.4212 19.4549 45.8182 19.3483Z" fill="#BF55D0"/>
<path fill-rule="evenodd" clip-rule="evenodd" d="M45.1115 24.6553L17.3468 24.6553L17.3468 23.7421L45.1115 23.7421L45.1115 24.6553Z" fill="#BF55D0"/>
<path d="M17.1153 22.829C17.4987 22.829 17.8095 23.4422 17.8095 24.1987C17.8095 24.9552 17.4987 25.5684 17.1153 25.5684C16.732 25.5684 16.4212 24.9552 16.4212 24.1987C16.4212 23.4422 16.732 22.829 17.1153 22.829Z" fill="#BF55D0"/>
<path d="M44.8802 22.829C45.2635 22.829 45.5743 23.4422 45.5743 24.1987C45.5743 24.9552 45.2635 25.5684 44.8802 25.5684C44.4968 25.5684 44.186 24.9552 44.186 24.1987C44.186 23.4422 44.4968 22.829 44.8802 22.829Z" fill="#BF55D0"/>
<path fill-rule="evenodd" clip-rule="evenodd" d="M46.1394 28.3107L15.2514 20.0149L15.4571 19.2455L46.3451 27.5412L46.1394 28.3107Z" fill="#BF55D0"/>
<path d="M15.4054 18.4069C15.8318 18.5214 16.0394 19.131 15.869 19.7685C15.6986 20.4059 15.2148 20.8298 14.7883 20.7152C14.3618 20.6007 14.1543 19.9912 14.3247 19.3537C14.4951 18.7163 14.9789 18.2924 15.4054 18.4069Z" fill="#BF55D0"/>
<path d="M46.2934 26.7026C46.7199 26.8172 46.9274 27.4268 46.757 28.0642C46.5866 28.7016 46.1028 29.1255 45.6763 29.011C45.2498 28.8964 45.0423 28.2868 45.2127 27.6494C45.3831 27.012 45.8669 26.5881 46.2934 26.7026Z" fill="#BF55D0"/>
<path fill-rule="evenodd" clip-rule="evenodd" d="M44.1226 31.4629L19.2806 17.0869L19.6779 16.397L44.5199 30.7731L44.1226 31.4629Z" fill="#BF55D0"/>
<path d="M19.8683 15.5874C20.2113 15.7859 20.2225 16.4101 19.8933 16.9816C19.5641 17.5531 19.0192 17.8554 18.6762 17.657C18.3332 17.4585 18.322 16.8343 18.6512 16.2628C18.9804 15.6913 19.5253 15.3889 19.8683 15.5874Z" fill="#BF55D0"/>
<path d="M44.7103 29.9634C45.0533 30.1619 45.0645 30.7861 44.7353 31.3576C44.4061 31.9291 43.8612 32.2315 43.5182 32.033C43.1752 31.8345 43.164 31.2103 43.4932 30.6388C43.8224 30.0673 44.3673 29.7649 44.7103 29.9634Z" fill="#BF55D0"/>
<path fill-rule="evenodd" clip-rule="evenodd" d="M44.9062 37.3328L21.8951 14.268L22.4571 13.7048L45.4681 36.7696L44.9062 37.3328Z" fill="#BF55D0"/>
<path d="M22.8272 12.9493C23.1449 13.2678 23.0251 13.9042 22.5596 14.3708C22.094 14.8374 21.4591 14.9576 21.1414 14.6391C20.8236 14.3206 20.9435 13.6842 21.409 13.2176C21.8746 12.7509 22.5095 12.6308 22.8272 12.9493Z" fill="#BF55D0"/>
<path d="M45.8383 36.0141C46.156 36.3325 46.0361 36.969 45.5706 37.4356C45.105 37.9022 44.4701 38.0223 44.1524 37.7039C43.8347 37.3854 43.9546 36.749 44.4201 36.2823C44.8856 35.8157 45.5206 35.6956 45.8383 36.0141Z" fill="#BF55D0"/>
<path fill-rule="evenodd" clip-rule="evenodd" d="M39.6681 37.6752L24.7949 11.8538L25.4831 11.4555L40.3564 37.2769L39.6681 37.6752Z" fill="#BF55D0"/>
<path d="M26.0474 10.842C26.2528 11.1985 25.957 11.755 25.3869 12.085C24.8167 12.4149 24.188 12.3934 23.9826 12.0369C23.7773 11.6804 24.073 11.1239 24.6432 10.7939C25.2134 10.464 25.842 10.4855 26.0474 10.842Z" fill="#BF55D0"/>
<path d="M40.9206 36.6634C41.126 37.0199 40.8303 37.5764 40.2601 37.9064C39.6899 38.2363 39.0612 38.2148 38.8559 37.8583C38.6505 37.5018 38.9463 36.9453 39.5164 36.6153C40.0866 36.2854 40.7153 36.3069 40.9206 36.6634Z" fill="#BF55D0"/>
<path fill-rule="evenodd" clip-rule="evenodd" d="M35.543 37.6278L28.304 10.5484L29.0716 10.3423L36.3106 37.4216L35.543 37.6278Z" fill="#BF55D0"/>
<path d="M29.7791 9.91109C29.8791 10.285 29.4446 10.7265 28.8086 10.8973C28.1727 11.0681 27.5761 10.9035 27.4762 10.5296C27.3762 10.1557 27.8107 9.71416 28.4467 9.54337C29.0826 9.37257 29.6792 9.53721 29.7791 9.91109Z" fill="#BF55D0"/>
<path d="M37.0182 36.9904C37.1181 37.3643 36.6836 37.8059 36.0477 37.9767C35.4117 38.1475 34.8152 37.9828 34.7152 37.6089C34.6153 37.2351 35.0498 36.7935 35.6857 36.6227C36.3217 36.4519 36.9182 36.6165 37.0182 36.9904Z" fill="#BF55D0"/>
<path fill-rule="evenodd" clip-rule="evenodd" d="M31.9671 42.3241L31.9671 6.6675L32.7618 6.6675L32.7618 42.3241L31.9671 42.3241Z" fill="#BF55D0"/>
<path d="M33.5567 6.37037C33.5567 6.86269 33.023 7.26179 32.3646 7.26179C31.7062 7.26179 31.1725 6.86269 31.1725 6.37037C31.1725 5.87806 31.7062 5.47896 32.3646 5.47896C33.023 5.47896 33.5567 5.87806 33.5567 6.37037Z" fill="#BF55D0"/>
<path d="M33.5567 42.027C33.5567 42.5193 33.023 42.9184 32.3646 42.9184C31.7062 42.9184 31.1725 42.5193 31.1725 42.027C31.1725 41.5347 31.7062 41.1356 32.3646 41.1356C33.023 41.1356 33.5567 41.5347 33.5567 42.027Z" fill="#BF55D0"/>
<path fill-rule="evenodd" clip-rule="evenodd" d="M28.1592 38.3909L35.1789 12.1317L35.9466 12.3379L28.9269 38.597L28.1592 38.3909Z" fill="#BF55D0"/>
<path d="M36.7727 12.3253C36.6758 12.6878 36.0817 12.8433 35.4457 12.6725C34.8098 12.5017 34.3728 12.0693 34.4697 11.7067C34.5667 11.3442 35.1608 11.1887 35.7967 11.3595C36.4326 11.5303 36.8696 11.9627 36.7727 12.3253Z" fill="#BF55D0"/>
<path d="M29.7529 38.5844C29.656 38.947 29.0619 39.1024 28.426 38.9316C27.79 38.7608 27.3531 38.3284 27.45 37.9659C27.5469 37.6033 28.141 37.4479 28.7769 37.6187C29.4129 37.7895 29.8499 38.2218 29.7529 38.5844Z" fill="#BF55D0"/>
<ellipse cx="7.2925" cy="7.75732" rx="7.2925" ry="7.75732" transform="matrix(0.86552 0.500875 -0.499126 0.86653 29.4028 13.624)" fill="#BF55D0"/>
</g>
<g clip-path="url(#clip0_295_2165)">
<path fill-rule="evenodd" clip-rule="evenodd" d="M40.9729 63.5201C40.9379 63.4561 40.8656 63.4512 40.8115 63.5092C38.1234 66.3905 31.4808 74.6772 26.3783 84.8127C26.3397 84.8894 26.3503 84.9839 26.4019 85.0238C26.4536 85.0637 26.5267 85.0339 26.5653 84.9572C31.6477 74.8617 38.2679 66.6035 40.9383 63.7412C40.9924 63.6832 41.0079 63.5842 40.9729 63.5201Z" fill="#0A3019"/>
<path d="M47.1732 55.4258C42.3583 59.2092 40.3975 63.5043 39.6165 65.0736C41.4427 65.0104 44.2478 61.8789 46.1375 58.9149C48.437 54.8781 47.6012 55.2523 47.1732 55.4258Z" fill="#51B022"/>
<path d="M42.1312 66.9932C39.2637 65.6807 36.944 68.2684 36.2736 69.168C37.5714 70.1863 39.5292 69.6892 41.1572 68.4888C42.3565 67.4682 42.4473 67.0945 42.1312 66.9932Z" fill="#51B022"/>
<path d="M41.1171 58.4832C37.0321 63.67 36.6775 66.9907 36.4535 68.7521C38.2018 67.5785 40.3711 64.0188 41.3839 60.539C42.065 57.8649 41.473 58.0786 41.1171 58.4832Z" fill="#51B022"/>
<path d="M32.8059 69.5309C31.658 73.13 31.1469 76.2069 31.6642 76.4034C31.9542 75.7741 33.5314 73.8415 34.6792 70.2425C35.827 66.6434 36.0772 63.8751 35.6517 63.4438C35.186 63.5277 33.9537 65.9319 32.8059 69.5309Z" fill="#51B022"/>
</g>
<path d="M24.3609 53.9971C27.807 54.9784 29.7692 59.9333 30.8461 62.8466C29.6666 61.4155 26.9107 58.6313 25.6154 58.0933C23.7692 57.3267 21.8756 57.2609 19.1301 61.2038C18.5147 57.5238 20.0532 52.7705 24.3609 53.9971Z" fill="#BF55D0"/>
<g style="mix-blend-mode:multiply">
<path fill-rule="evenodd" clip-rule="evenodd" d="M25.7719 56.7661C27.9095 58.0548 29.8487 60.7211 30.9809 62.7727C31.0218 62.847 30.9947 62.9402 30.9202 62.981C30.8458 63.0218 30.7522 62.9947 30.7113 62.9205C29.5871 60.8833 27.6801 58.2749 25.6126 57.0285C24.582 56.4072 23.5305 56.1354 22.5221 56.4163C21.5134 56.6973 20.5092 57.5421 19.5971 59.2391C19.557 59.3137 19.4637 59.3418 19.3888 59.3018C19.3139 59.2618 19.2858 59.1689 19.3259 59.0942C20.2599 57.3565 21.3198 56.4329 22.4393 56.121C23.5591 55.809 24.6999 56.1199 25.7719 56.7661Z" fill="#BF55D0"/>
</g>
<path d="M36.8092 54.1225C33.7938 54.9811 32.0769 59.3166 31.1346 61.8658C32.1667 60.6136 34.5781 58.1773 35.7116 57.7067C37.3269 57.0358 38.9838 56.9783 41.3861 60.4283C41.9246 57.2083 40.5784 53.0491 36.8092 54.1225Z" fill="#BF55D0"/>
<g style="mix-blend-mode:multiply">
<path fill-rule="evenodd" clip-rule="evenodd" d="M35.5747 56.5454C33.7043 57.673 32.0075 60.0059 31.0168 61.8011C30.981 61.8661 31.0048 61.9477 31.0699 61.9834C31.1351 62.0191 31.2169 61.9954 31.2528 61.9305C32.2364 60.1479 33.9051 57.8655 35.7141 56.775C36.6159 56.2313 37.5359 55.9935 38.4183 56.2393C39.3009 56.4852 40.1796 57.2244 40.9777 58.7092C41.0128 58.7745 41.0943 58.7991 41.1599 58.7641C41.2254 58.7291 41.2501 58.6478 41.215 58.5825C40.3977 57.0619 39.4703 56.2538 38.4907 55.9809C37.5109 55.7079 36.5127 55.9799 35.5747 56.5454Z" fill="#BF55D0"/>
</g>
<defs>
<clipPath id="clip0_295_2165">
<rect width="27.2402" height="38.1258" fill="white" transform="translate(33.5942 50.3088) rotate(14.2195)"/>
</clipPath>
</defs>
</svg>
