<svg width="60" height="130" viewBox="0 0 60 130" fill="none" xmlns="http://www.w3.org/2000/svg">
<rect y="70" width="60" height="60" fill="#5D7D5F"/>
<path d="M31.0732 28.325C32.1499 35.8679 33.6572 53.4995 31.0732 63.6825C27.8432 76.4112 24.8616 94.7971 29.0855 103" stroke="#0A3019" stroke-linecap="round"/>
<path d="M23.5271 93.9223C23.0275 89.6737 20.3009 86.573 19 85.5538C20.6235 83.1076 24.1515 85.3928 25.7126 86.8412C24.4637 83.2363 24.6719 78.4727 24.932 76.5415C26.5555 77.5715 28.7306 82.4424 29.6152 84.7491C28.6161 78.8268 29.7193 73.3765 30.3958 71.3916C31.8944 72.1641 32.9975 78.0435 33.3618 80.8867C33.3618 76.6381 37.3165 69.7823 39.2938 66.8855C39.6685 67.4005 39.7621 72.2499 39.7621 74.6103C42.3847 68.6879 48.0358 62.9158 50.5335 60.77C50.0339 70.426 47.6195 76.0587 46.4747 77.668C50.8457 73.8056 54.1239 73.1619 55.2167 73.3228C54.3425 76.799 47.8797 82.0669 44.7575 84.2663C49.6281 81.6914 52.3027 82.0132 53.0312 82.496C52.4067 85.4572 46.6308 88.3433 43.8209 89.4162C48.6914 89.2874 51.6783 90.65 52.5629 91.3474C51.0642 93.6648 43.925 94.8879 40.5427 95.2098C45.1634 96.2398 47.8797 100.682 48.6602 102.774C47.5675 101.701 43.9458 99.9734 38.2011 101.647C32.4564 103.321 28.8347 103.096 27.742 102.774C26.5451 101.593 24.0266 98.171 23.5271 93.9223Z" fill="#51B022"/>
<g style="mix-blend-mode:multiply">
<path d="M38.357 82.0132C33.2368 89.3518 30.2916 97.1946 29.459 100.199C31.0721 96.8191 35.2349 88.869 38.9815 84.1054C42.728 79.3417 46.5786 70.2114 48.0356 66.2417C46.9429 68.4412 43.4773 74.6747 38.357 82.0132Z" fill="#51B022"/>
</g>
<path d="M30.0187 97.022C30.3477 94.2241 32.1433 92.1822 33 91.511C31.9309 89.9001 29.6075 91.405 28.5795 92.3589C29.4019 89.9849 29.2649 86.8479 29.0935 85.5761C28.0244 86.2544 26.592 89.4621 26.0095 90.9811C26.6674 87.081 25.9409 83.4918 25.4955 82.1847C24.5086 82.6934 23.7821 86.5653 23.5422 88.4376C23.5422 85.6397 20.9379 81.1249 19.6358 79.2173C19.3891 79.5564 19.3274 82.75 19.3274 84.3043C17.6003 80.4043 13.8789 76.6031 12.2341 75.19C12.563 81.5488 14.153 85.2582 14.9069 86.318C12.0284 83.7744 9.86961 83.3505 9.15 83.4565C9.72569 85.7457 13.9817 89.2148 16.0377 90.6632C12.8303 88.9675 11.069 89.1795 10.5892 89.4974C11.0004 91.4474 14.8041 93.348 16.6545 94.0546C13.4471 93.9698 11.4802 94.8671 10.8976 95.3263C11.8845 96.8525 16.586 97.6579 18.8134 97.8699C15.7704 98.5481 13.9817 101.473 13.4677 102.851C14.1873 102.144 16.5723 101.007 20.3554 102.109C24.1385 103.211 26.5235 103.063 27.2431 102.851C28.0312 102.074 29.6898 99.8199 30.0187 97.022Z" fill="#51B022"/>
<g style="mix-blend-mode:multiply">
<path d="M20.2526 89.1795C23.6245 94.0122 25.564 99.177 26.1123 101.155C25.05 98.9297 22.3086 93.6942 19.8414 90.5572C17.3742 87.4202 14.8384 81.4075 13.8789 78.7934C14.5985 80.2418 16.8807 84.3467 20.2526 89.1795Z" fill="#51B022"/>
</g>
<path d="M26.8102 16.5711C29.0724 13.2821 33.7912 6.68646 34.5686 6.61523C35.3459 6.54399 36.3574 15.7177 36.7659 20.3135C41.3927 19.9327 50.6717 19.453 50.7732 20.5816C50.8748 21.7101 43.5812 27.3177 39.9217 29.9804C43.0035 31.8961 49.4456 36.7105 50.5594 40.6425C47.8811 40.2415 41.5587 38.8038 37.6961 36.2614C39.4249 39.6372 42.6385 46.8119 41.6626 48.5046C41.0584 48.8832 35.3138 43.6041 32.9134 38.7038C32.4235 42.0027 30.6174 48.9866 27.3125 50.5307C25.7953 49.506 24.8822 37.0477 24.8822 37.0477C22.5353 39.3962 17.4261 44.0278 16.3169 43.9743C14.9475 43.9082 20.7056 32.7848 21.9635 32.3445C18.6565 33.1775 10.2022 33.7933 9.34436 31.8126C9.30831 30.5876 11.3544 28.0856 19.1143 24.5817C15.4611 22.8046 8.76609 19.1167 11.2118 18.5823C13.6576 18.0478 18.5094 19.5083 20.6296 20.3053C19.2405 16.8553 17.104 8.05011 19.1046 9.1313C20.9458 10.1263 25.1225 13.8165 26.8102 16.5711Z" fill="#CDCDCD"/>
<path d="M33.0755 27.0045C26.3186 16.7109 22.2238 14.2932 22.5837 15.4886C25.2867 18.4733 28.5902 25.2175 29.5013 28.6897C22.0747 27.7152 14.009 29.0748 14.9693 30.3445C15.3961 30.9088 26.5388 29.0904 29.1585 30.9838C33.0908 36.248 40.2034 42.7077 39.9307 42.1509C39.567 41.4084 34.3201 34.8424 31.9751 31.4369C40.8927 26.6114 44.4215 24.3591 43.7794 24.2135C42.7641 23.9833 36.396 26.1831 33.0755 27.0045Z" fill="#9B9B9B"/>
<path d="M30.0047 14.5814C26.9619 14.0493 26.8437 19.3675 27.1649 22.0931C26.6251 21.2206 24.2499 21.2883 23.3429 22.5571C21.5808 25.0221 23.6771 27.7477 24.9456 28.8024C21.5732 30.6974 23.508 33.7444 24.897 35.0309C29.0303 38.9924 30.729 35.8841 31.2698 33.6529C32.3006 34.472 35.0126 35.432 37.6141 32.719C40.2156 30.006 37.466 27.4429 35.7659 26.5004C36.9463 25.5555 38.8628 23.077 37.0857 20.7218C35.3087 18.3667 33.1134 19.7321 32.238 20.7092C32.7614 18.8883 33.0476 15.1134 30.0047 14.5814Z" fill="white"/>
<path d="M33.0715 28.303C32.5747 29.7054 30.9956 30.4 29.5446 29.8546C28.0937 29.3091 27.3202 27.7302 27.8171 26.3279C28.6695 23.9224 30.7265 24.0899 32.1775 24.6353C33.6284 25.1807 33.5684 26.9007 33.0715 28.303Z" fill="#CDCDCD"/>
<path d="M29.7686 26.2826C29.4716 26.4133 30.0742 26.5994 30.4126 26.6762C31.8427 27.0623 30.2157 28.1165 30.4922 28.2204C30.7688 28.3244 32.0208 27.8864 31.6136 26.8247C31.2063 25.763 30.1399 26.1193 29.7686 26.2826Z" fill="#9B9B9B"/>
<g style="mix-blend-mode:multiply">
<path d="M26.8102 16.5711C29.0724 13.2821 33.7912 6.68646 34.5686 6.61523C35.3459 6.54399 36.3574 15.7177 36.7659 20.3135C41.3927 19.9327 50.6717 19.453 50.7732 20.5816C50.8748 21.7101 43.5812 27.3177 39.9217 29.9804C43.0035 31.8961 49.4456 36.7105 50.5594 40.6425C47.8811 40.2415 41.5587 38.8038 37.6961 36.2614C39.4249 39.6372 42.6385 46.8119 41.6626 48.5046C41.0584 48.8832 35.3138 43.6041 32.9134 38.7038C32.4235 42.0027 30.6174 48.9866 27.3125 50.5307C25.7953 49.506 24.8822 37.0477 24.8822 37.0477C22.5353 39.3962 17.4261 44.0278 16.3169 43.9743C14.9475 43.9082 20.7056 32.7848 21.9635 32.3445C18.6565 33.1775 10.2022 33.7933 9.34436 31.8126C9.30831 30.5876 11.3544 28.0856 19.1143 24.5817C15.4611 22.8046 8.76609 19.1167 11.2118 18.5823C13.6576 18.0478 18.5094 19.5083 20.6296 20.3053C19.2405 16.8553 17.104 8.05011 19.1046 9.1313C20.9458 10.1263 25.1225 13.8165 26.8102 16.5711Z" fill="#FDBC15"/>
<path d="M33.0755 27.0045C26.3186 16.7109 22.2238 14.2932 22.5837 15.4886C25.2867 18.4733 28.5902 25.2175 29.5013 28.6897C22.0747 27.7152 14.009 29.0748 14.9693 30.3445C15.3961 30.9088 26.5388 29.0904 29.1585 30.9838C33.0908 36.248 40.2034 42.7077 39.9307 42.1509C39.567 41.4084 34.3201 34.8424 31.9751 31.4369C40.8927 26.6114 44.4215 24.3591 43.7794 24.2135C42.7641 23.9833 36.396 26.1831 33.0755 27.0045Z" fill="#FDBC15"/>
<path d="M30.0047 14.5814C26.9619 14.0493 26.8437 19.3675 27.1649 22.0931C26.6251 21.2206 24.2499 21.2883 23.3429 22.5571C21.5808 25.0221 23.6771 27.7477 24.9456 28.8024C21.5732 30.6974 23.508 33.7444 24.897 35.0309C29.0303 38.9924 30.729 35.8841 31.2698 33.6529C32.3006 34.472 35.0126 35.432 37.6141 32.719C40.2156 30.006 37.466 27.4429 35.7659 26.5004C36.9463 25.5555 38.8628 23.077 37.0857 20.7218C35.3087 18.3667 33.1134 19.7321 32.238 20.7092C32.7614 18.8883 33.0476 15.1134 30.0047 14.5814Z" fill="#FDBC15"/>
<path d="M33.0715 28.303C32.5747 29.7054 30.9956 30.4 29.5446 29.8546C28.0937 29.3091 27.3202 27.7302 27.8171 26.3279C28.6695 23.9224 30.7265 24.0899 32.1775 24.6353C33.6284 25.1807 33.5684 26.9007 33.0715 28.303Z" fill="#FDBC15"/>
<path d="M29.7686 26.2826C29.4716 26.4133 30.0742 26.5994 30.4126 26.6762C31.8427 27.0623 30.2157 28.1165 30.4922 28.2204C30.7688 28.3244 32.0208 27.8864 31.6136 26.8247C31.2063 25.763 30.1399 26.1193 29.7686 26.2826Z" fill="#FDBC15"/>
</g>
<g style="mix-blend-mode:soft-light">
<path d="M26.8102 16.5711C29.0724 13.2821 33.7912 6.68646 34.5686 6.61523C35.3459 6.54399 36.3574 15.7177 36.7659 20.3135C41.3927 19.9327 50.6717 19.453 50.7732 20.5816C50.8748 21.7101 43.5812 27.3177 39.9217 29.9804C43.0035 31.8961 49.4456 36.7105 50.5594 40.6425C47.8811 40.2415 41.5587 38.8038 37.6961 36.2614C39.4249 39.6372 42.6385 46.8119 41.6626 48.5046C41.0584 48.8832 35.3138 43.6041 32.9134 38.7038C32.4235 42.0027 30.6174 48.9866 27.3125 50.5307C25.7953 49.506 24.8822 37.0477 24.8822 37.0477C22.5353 39.3962 17.4261 44.0278 16.3169 43.9743C14.9475 43.9082 20.7056 32.7848 21.9635 32.3445C18.6565 33.1775 10.2022 33.7933 9.34436 31.8126C9.30831 30.5876 11.3544 28.0856 19.1143 24.5817C15.4611 22.8046 8.76609 19.1167 11.2118 18.5823C13.6576 18.0478 18.5094 19.5083 20.6296 20.3053C19.2405 16.8553 17.104 8.05011 19.1046 9.1313C20.9458 10.1263 25.1225 13.8165 26.8102 16.5711Z" fill="#FDBC15"/>
<path d="M33.0755 27.0045C26.3186 16.7109 22.2238 14.2932 22.5837 15.4886C25.2867 18.4733 28.5902 25.2175 29.5013 28.6897C22.0747 27.7152 14.009 29.0748 14.9693 30.3445C15.3961 30.9088 26.5388 29.0904 29.1585 30.9838C33.0908 36.248 40.2034 42.7077 39.9307 42.1509C39.567 41.4084 34.3201 34.8424 31.9751 31.4369C40.8927 26.6114 44.4215 24.3591 43.7794 24.2135C42.7641 23.9833 36.396 26.1831 33.0755 27.0045Z" fill="#FDBC15"/>
<path d="M30.0047 14.5814C26.9619 14.0493 26.8437 19.3675 27.1649 22.0931C26.6251 21.2206 24.2499 21.2883 23.3429 22.5571C21.5808 25.0221 23.6771 27.7477 24.9456 28.8024C21.5732 30.6974 23.508 33.7444 24.897 35.0309C29.0303 38.9924 30.729 35.8841 31.2698 33.6529C32.3006 34.472 35.0126 35.432 37.6141 32.719C40.2156 30.006 37.466 27.4429 35.7659 26.5004C36.9463 25.5555 38.8628 23.077 37.0857 20.7218C35.3087 18.3667 33.1134 19.7321 32.238 20.7092C32.7614 18.8883 33.0476 15.1134 30.0047 14.5814Z" fill="#FDBC15"/>
<path d="M33.0715 28.303C32.5747 29.7054 30.9956 30.4 29.5446 29.8546C28.0937 29.3091 27.3202 27.7302 27.8171 26.3279C28.6695 23.9224 30.7265 24.0899 32.1775 24.6353C33.6284 25.1807 33.5684 26.9007 33.0715 28.303Z" fill="#FDBC15"/>
<path d="M29.7686 26.2826C29.4716 26.4133 30.0742 26.5994 30.4126 26.6762C31.8427 27.0623 30.2157 28.1165 30.4922 28.2204C30.7688 28.3244 32.0208 27.8864 31.6136 26.8247C31.2063 25.763 30.1399 26.1193 29.7686 26.2826Z" fill="#FDBC15"/>
</g>
<path d="M19.1582 50.0787C25.0453 51.8054 28.3974 60.5239 30.2371 65.6501C28.2222 63.132 23.5141 58.2328 21.3013 57.2863C18.1474 55.9373 14.9125 55.8215 10.2223 62.7594C9.17102 56.2841 11.7992 47.9203 19.1582 50.0787Z" fill="#FDBC15"/>
<g style="mix-blend-mode:multiply">
<path fill-rule="evenodd" clip-rule="evenodd" d="M21.5685 54.951C25.2203 57.2186 28.533 61.91 30.4672 65.5201C30.5372 65.6507 30.4908 65.8147 30.3636 65.8865C30.2364 65.9584 30.0766 65.9107 30.0066 65.7802C28.0861 62.1956 24.8283 57.6058 21.2964 55.4127C19.5358 54.3194 17.7395 53.8412 16.0169 54.3355C14.2937 54.8299 12.5781 56.3164 11.0199 59.3023C10.9514 59.4336 10.7921 59.4831 10.6642 59.4127C10.5362 59.3424 10.488 59.1788 10.5566 59.0475C12.1523 55.9898 13.9629 54.3646 15.8754 53.8158C17.7883 53.2669 19.7372 53.8139 21.5685 54.951Z" fill="#FDBC15"/>
</g>
<path d="M44.742 54.6054C38.9059 54.6993 33.7295 61.8774 30.8067 66.1313C33.2659 64.3241 38.7762 61.0085 41.0411 60.6992C44.2692 60.2584 47.2764 60.9741 49.934 68.5565C52.4538 62.8597 52.0371 54.488 44.742 54.6054Z" fill="#FDBC15"/>
<g style="mix-blend-mode:multiply">
<path fill-rule="evenodd" clip-rule="evenodd" d="M41.3544 58.4803C37.4475 59.6406 33.2722 63.1195 30.6258 65.953C30.53 66.0554 30.5335 66.2183 30.6334 66.3168C30.7333 66.4153 30.8919 66.412 30.9877 66.3096C33.6154 63.4962 37.7158 60.0969 41.4943 58.9747C43.3779 58.4153 45.1469 58.4314 46.6152 59.3246C48.0839 60.2181 49.3078 62.0233 50.0275 65.1695C50.0592 65.3079 50.194 65.3939 50.3288 65.3617C50.4635 65.3294 50.547 65.191 50.5153 65.0526C49.7783 61.8307 48.5 59.8735 46.87 58.8819C45.2396 57.8901 43.3135 57.8985 41.3544 58.4803Z" fill="#FDBC15"/>
</g>
</svg>
