<svg width="60" height="131" viewBox="0 0 60 131" fill="none" xmlns="http://www.w3.org/2000/svg">
<rect y="71" width="60" height="60" fill="#5D7D5F"/>
<path d="M36.0728 46.5182C35.9438 46.4689 35.7993 46.5335 35.75 46.6625C34.5 50.1125 30.25 55 29.8 62.475L30.05 64.2C30.5 55.8625 34.25 51.55 36.217 46.841C36.2663 46.712 36.2017 46.5675 36.0728 46.5182Z" fill="#0A3019"/>
<path d="M30.0046 69.1002C30.0515 67.8754 30.0812 66.6803 30.0956 65.5158L30.1022 64.836C30.1892 52.7831 27.7093 36.3096 26.3232 32.1651C26.2736 32.0169 26.129 31.943 26.0001 32C25.8712 32.057 25.807 32.2234 25.8565 32.3716C27.2331 36.4875 29.7336 53.0735 29.5975 65.3463C29.5859 66.3961 29.5616 67.4712 29.5235 68.5708L29.4987 69.2396C29.1439 78.2387 27.8625 88.8408 25.0092 100.635C24.9722 100.788 25.05 100.947 25.1831 100.99C25.3161 101.032 25.4539 100.943 25.4909 100.79C28.372 88.8797 29.6574 78.1768 30.0046 69.1002Z" fill="#0A3019"/>
<g clip-path="url(#clip0_295_2169)">
<path fill-rule="evenodd" clip-rule="evenodd" d="M42.4751 50.7422C42.4389 50.694 42.3708 50.6851 42.323 50.7223C39.9502 52.5689 34.1479 57.9617 29.8891 64.7844C29.8569 64.836 29.8718 64.904 29.9224 64.9363C29.973 64.9685 30.0401 64.9528 30.0723 64.9012C34.3143 58.1054 40.0971 52.7313 42.4543 50.8967C42.5021 50.8596 42.5114 50.7904 42.4751 50.7422Z" fill="#0A3019"/>
<path d="M47.8718 45.453C43.5491 47.7814 41.9336 50.6877 41.2827 51.7448C42.9943 51.8369 45.4639 49.8211 47.0826 47.8557C49.0298 45.1584 48.2646 45.3617 47.8718 45.453Z" fill="#51B022"/>
<path d="M43.7454 53.2982C40.9836 52.1499 38.9413 53.8155 38.3591 54.4047C39.6312 55.2261 41.4436 55.0196 42.9093 54.2884C43.9819 53.6528 44.0475 53.394 43.7454 53.2982Z" fill="#51B022"/>
<path d="M42.3458 47.1722C38.7824 50.553 38.6239 52.8872 38.5062 54.1226C40.0862 53.4194 41.9362 51.0516 42.7044 48.6536C43.2034 46.8037 42.6587 46.9112 42.3458 47.1722Z" fill="#51B022"/>
<path d="M35.1217 54.4025C34.233 56.8751 33.9148 59.0241 34.4109 59.2027C34.6501 58.777 36.0296 57.5215 36.9183 55.049C37.807 52.5765 37.8964 50.6271 37.4742 50.2886C37.0413 50.3133 36.0104 51.93 35.1217 54.4025Z" fill="#51B022"/>
</g>
<g style="mix-blend-mode:multiply">
<path d="M35.5425 78.7965C34.9645 78.4066 34.4266 78.108 33.9819 77.9806C33.8672 77.2905 33.4488 75.8241 32.5762 74.0648C32.1299 73.1651 31.5649 72.1887 30.8608 71.2005C29.8054 69.719 30.1204 68.1946 31.2672 67.0281C31.793 66.4931 32.4937 66.0334 33.3174 65.6876C33.9061 65.4404 34.5577 65.2514 35.2531 65.1347C35.7621 65.0493 36.2945 65.0026 36.8429 65.0001C37.3986 64.9976 37.9707 65.0406 38.5516 65.1347C39.0181 65.2103 39.4902 65.3188 39.964 65.4634C40.4171 65.6017 40.8507 65.7683 41.2645 65.9606C41.7658 66.1936 42.2379 66.4642 42.6796 66.7673C43.103 67.0578 43.4986 67.3783 43.8654 67.7242C44.2383 68.0759 44.5816 68.4538 44.8941 68.8535C45.1446 69.1737 45.3754 69.5079 45.5861 69.8535C45.8761 70.3294 46.128 70.8271 46.3404 71.3404C46.6008 71.9696 46.8018 72.6222 46.9413 73.2867C47.0704 73.9016 47.1467 74.5266 47.1684 75.1525C47.1911 75.8076 47.154 76.4637 47.055 77.1104C46.9675 77.6823 46.8316 78.2467 46.6458 78.7965C46.5904 78.9606 46.5306 79.1233 46.4663 79.2845C45.8173 80.9112 45.0997 81.9182 44.3856 82.5135C42.8101 83.8268 41.2515 83.1362 40.4842 82.6746C39.5014 82.0834 37.3303 80.0028 35.5425 78.7965Z" fill="#51B022"/>
</g>
<g style="mix-blend-mode:multiply">
<path d="M35.0798 65.1655C35.1373 65.1547 35.1952 65.1444 35.2533 65.1347C35.3044 65.1261 35.3558 65.1179 35.4075 65.1101C35.4112 65.1338 35.4096 65.1586 35.4017 65.183C34.8809 66.7905 34.9227 68.9367 35.1952 70.9821C35.4657 73.0127 35.9605 74.9223 36.3353 76.0648C37.678 76.7214 39.7506 77.6153 41.7321 78.2249C42.7486 78.5376 43.7359 78.7738 44.5857 78.8662C45.4424 78.9593 46.1305 78.9026 46.5707 78.6595C46.6103 78.6376 46.6551 78.6348 46.6949 78.6479C46.679 78.6976 46.6627 78.7471 46.646 78.7965C46.6222 78.8669 46.5977 78.9369 46.5723 79.0067C46.0529 79.2327 45.3438 79.2633 44.5521 79.1773C43.6748 79.0819 42.6665 78.8396 41.6406 78.524C39.5881 77.8926 37.4441 76.9612 36.0956 76.2956C36.0229 76.2597 35.9904 76.1746 36.0184 76.1001C35.6409 74.9351 35.1543 73.0387 34.8858 71.0236C34.616 68.9981 34.5635 66.8314 35.0798 65.1655Z" fill="#51B022"/>
<path d="M33.1498 65.7604C33.2051 65.7356 33.261 65.7113 33.3176 65.6876C33.3653 65.6675 33.4135 65.6479 33.4621 65.6286C33.4722 65.6534 33.4761 65.6812 33.472 65.7097C32.7486 70.7823 34.2227 75.2809 35.0787 76.9644C35.0904 76.969 35.1017 76.975 35.1124 76.9825C36.2321 77.7743 38.1079 78.9116 40.0896 79.7462C41.0803 80.1634 42.0937 80.5033 43.0497 80.6875C44.0071 80.8719 44.897 80.8982 45.646 80.698C45.6974 80.6842 45.7497 80.6979 45.7874 80.73C45.7297 80.8334 45.6717 80.9329 45.6134 81.0287C44.828 81.2139 43.928 81.1754 42.9908 80.9948C42.007 80.8053 40.9721 80.4572 39.9688 80.0347C37.9861 79.1997 36.1117 78.0675 34.973 77.2668C34.9188 77.2649 34.8672 77.2347 34.8402 77.1831C33.9713 75.5229 32.4367 70.9458 33.1498 65.7604Z" fill="#51B022"/>
<path d="M31.0906 67.2182C31.1471 67.1538 31.206 67.0904 31.2673 67.0281C31.3036 66.9911 31.3407 66.9546 31.3787 66.9184C31.4107 66.9511 31.4281 66.9976 31.4223 67.0467C31.2758 68.2726 31.4586 69.686 31.7514 70.9617C32.0438 72.2357 32.4428 73.36 32.7197 74.0028C32.7528 74.0797 32.7195 74.1686 32.6454 74.2052C32.6227 74.1586 32.5997 74.1118 32.5764 74.0648C32.4028 73.7149 32.2113 73.3535 32.0007 72.9842C31.8089 72.4171 31.6115 71.7476 31.4472 71.0319C31.1669 69.8105 30.9807 68.4437 31.0906 67.2182Z" fill="#51B022"/>
<path d="M37.6933 80.4478C36.9795 79.8577 36.2326 79.262 35.5426 78.7965C35.4991 78.7671 35.4557 78.7383 35.4126 78.71C35.4142 78.7076 35.4158 78.7053 35.4175 78.703C35.469 78.6337 35.5668 78.6194 35.6359 78.6711C36.7144 79.4772 38.4488 80.6293 40.1436 81.4649C40.9913 81.8829 41.8234 82.2188 42.555 82.394C43.2927 82.5707 43.8992 82.577 44.3174 82.3728C44.3825 82.341 44.4588 82.3587 44.5039 82.4112C44.4645 82.4466 44.4251 82.4807 44.3857 82.5135C44.2546 82.6228 44.1236 82.7182 43.9931 82.8011C43.5519 82.8808 43.0334 82.8304 42.4825 82.6984C41.7192 82.5155 40.8639 82.1688 40.0059 81.7457C39.2199 81.3582 38.4268 80.9042 37.6933 80.4478Z" fill="#51B022"/>
<path d="M47.0244 77.2998C46.5359 77.5211 45.8634 77.5717 45.111 77.5198C44.2975 77.4636 43.3647 77.2853 42.4167 77.0447C40.5203 76.5634 38.5439 75.8277 37.302 75.2964L37.2301 75.2657L37.2116 75.1894C36.9499 74.1087 36.6104 72.3047 36.4406 70.3975C36.2728 68.5129 36.2688 66.5093 36.6806 65.0021C36.7346 65.001 36.7888 65.0003 36.8431 65.0001C36.895 64.9999 36.947 65 36.9992 65.0006C36.9991 65.0144 36.9972 65.0285 36.9933 65.0425C36.5851 66.4977 36.5828 68.4754 36.7514 70.3697C36.9158 72.2156 37.2408 73.9646 37.4966 75.0393C38.7315 75.5634 40.6527 76.2742 42.4933 76.7413C43.4319 76.9795 44.3448 77.1532 45.1324 77.2076C45.9262 77.2624 46.5675 77.194 46.9817 76.9724C47.0123 76.956 47.0458 76.9509 47.0777 76.9556C47.0706 77.0072 47.0631 77.0589 47.0552 77.1104C47.0455 77.1736 47.0352 77.2368 47.0244 77.2998Z" fill="#51B022"/>
<path d="M47.162 74.9962C47.1645 75.0483 47.1667 75.1004 47.1685 75.1525C47.1706 75.2128 47.1722 75.2731 47.1733 75.3333C47.0371 75.4057 46.8619 75.4496 46.6681 75.4759C46.4249 75.509 46.1313 75.517 45.8032 75.5062C45.1468 75.4845 44.335 75.3865 43.4791 75.2488C41.7663 74.9732 39.8588 74.5355 38.6247 74.2163L38.5333 74.1927L38.5118 74.1004C38.1737 72.6513 37.6801 68.8369 38.3974 65.1108C38.4488 65.1184 38.5003 65.1263 38.5518 65.1347C38.603 65.143 38.6543 65.1517 38.7056 65.1608C38.7054 65.162 38.7052 65.1632 38.705 65.1644C38.0113 68.7612 38.4646 72.4519 38.7947 73.937C40.0241 74.2523 41.8701 74.673 43.5286 74.9398C44.3792 75.0767 45.1761 75.1724 45.8135 75.1934C46.1324 75.204 46.4069 75.1956 46.6262 75.1658C46.8502 75.1354 46.9966 75.085 47.0762 75.0264C47.1022 75.0073 47.1321 74.9974 47.162 74.9962Z" fill="#51B022"/>
<path d="M46.9082 73.1338C46.9197 73.1846 46.9307 73.2356 46.9415 73.2867C46.9531 73.3422 46.9644 73.3978 46.9752 73.4536C46.9394 73.4738 46.9009 73.4895 46.8626 73.502C46.7947 73.5244 46.7155 73.5409 46.6288 73.5532C46.4554 73.5778 46.2369 73.5876 45.9881 73.5865C45.4894 73.5843 44.8497 73.5381 44.164 73.4684C42.7916 73.3289 41.2201 73.0936 40.1916 72.9194L40.0678 72.8984L40.0618 72.7726C40.0192 71.8891 40.0208 70.4877 40.1642 69.1502C40.2358 68.4815 40.3433 67.8249 40.4998 67.2553C40.6502 66.7081 40.8497 66.2267 41.1174 65.8936C41.1668 65.9156 41.2158 65.9379 41.2646 65.9606C41.3119 65.9826 41.359 66.0049 41.4057 66.0275C41.4001 66.0396 41.3927 66.0511 41.3838 66.0617C41.1455 66.3439 40.9521 66.7875 40.8007 67.3385C40.6502 67.8861 40.5451 68.5246 40.4745 69.1836C40.3399 70.4399 40.332 71.7567 40.3679 72.6317C41.3916 72.8027 42.8863 73.0239 44.1955 73.1571C44.8776 73.2264 45.5057 73.2715 45.9894 73.2736C46.2317 73.2747 46.4331 73.2649 46.585 73.2434C46.661 73.2326 46.7208 73.2194 46.7653 73.2047C46.8119 73.1894 46.831 73.176 46.8358 73.1715C46.857 73.152 46.882 73.1395 46.9082 73.1338Z" fill="#51B022"/>
<path d="M46.2743 71.1839C46.2968 71.2359 46.3189 71.288 46.3405 71.3404C46.3605 71.3886 46.3801 71.4369 46.3993 71.4853C46.3812 71.4927 46.3613 71.4968 46.3405 71.4968H41.7369L42.5258 66.7416C42.5296 66.7188 42.5381 66.6979 42.5502 66.6799C42.5937 66.7087 42.6369 66.7379 42.6798 66.7673C42.7274 66.8 42.7746 66.833 42.8215 66.8664L42.1052 71.1839H46.2743Z" fill="#51B022"/>
<path d="M45.489 69.697C45.5219 69.7489 45.5543 69.8011 45.5863 69.8535C45.6134 69.898 45.6402 69.9427 45.6666 69.9876C45.6432 70.0018 45.6157 70.01 45.5863 70.01H43.6987C43.6125 70.01 43.5427 69.9399 43.5427 69.8535C43.5427 69.8244 43.5506 69.7972 43.5643 69.7739L43.7099 67.7131C43.7125 67.6761 43.7277 67.6431 43.751 67.6179C43.7895 67.653 43.8277 67.6885 43.8655 67.7242C43.9149 67.7707 43.9637 67.8177 44.012 67.8652L43.8826 69.697H45.489Z" fill="#51B022"/>
</g>
<path d="M43.8828 70.0392L45.0524 69.0609C45.0006 68.9911 44.948 68.922 44.8944 68.8535C44.8409 68.7851 44.7865 68.7174 44.7313 68.6503L44.7278 68.6532L43.5496 69.6387C43.5496 69.6387 43.5496 69.6387 43.5496 69.6387C43.5467 69.6411 43.5438 69.6436 43.541 69.6461C43.538 69.6484 43.535 69.6508 43.5321 69.6533L33.8021 77.7915L28.0684 84.063C27.9713 84.1692 27.9785 84.3341 28.0843 84.4315C28.1902 84.5288 28.3548 84.5216 28.4518 84.4154L34.162 78.1697L34.2686 78.0805C34.2686 78.0805 34.2686 78.0805 34.2686 78.0805L43.8654 70.0537C43.8683 70.0513 43.8712 70.0488 43.8739 70.0463C43.8769 70.044 43.8799 70.0416 43.8828 70.0392Z" fill="#51B022"/>
<g style="mix-blend-mode:multiply">
<path d="M44.8945 68.8535C44.948 68.9218 45.0001 68.9909 45.0518 69.0605L43.8828 70.039C43.8799 70.0414 43.877 70.0436 43.874 70.0458C43.8712 70.0484 43.8682 70.0512 43.8652 70.0536L34.2686 78.081H34.2676C34.1688 78.041 34.0738 78.0066 33.9824 77.9804C33.9682 77.8948 33.9497 77.797 33.9258 77.6884L43.5322 69.6533C43.5351 69.6509 43.5381 69.6487 43.541 69.6464C43.5438 69.6439 43.5469 69.6411 43.5498 69.6386L44.7275 68.6533L44.7295 68.6513C44.7848 68.7185 44.841 68.785 44.8945 68.8535Z" fill="#51B022"/>
</g>
<path d="M5.46933 11.1991C10.1918 5.11656 16.6196 7.57853 19.2432 9.56983C20.4238 1.74946 24.6544 -0.20556 28.5898 0.880512C45.9056 6.52856 37.1165 34.3706 30.5575 47.5855C11.3724 39.9824 -0.433769 18.8022 5.46933 11.1991Z" fill="#CDCDCD"/>
<path d="M8.42085 14.4576C13.1433 8.37512 18.587 14.6387 21.2106 16.63C22.3912 8.80967 25.3341 8.80722 28.0977 9.56992C39.905 12.8284 37.1161 34.3707 30.5571 47.5857C11.3721 39.9825 2.51775 22.0608 8.42085 14.4576Z" fill="white"/>
<path fill-rule="evenodd" clip-rule="evenodd" d="M28.3626 4.20039C28.1216 4.33876 28.0278 4.66666 28.1531 4.93277C30.6529 10.2399 31.5166 18.4983 31.5534 26.7476C31.5767 31.9555 31.2708 37.1197 30.8568 41.4649C30.6592 36.6525 30.3095 30.9863 29.7548 25.5169C29.3336 21.3634 28.7933 17.3146 28.1095 13.8351C27.4284 10.3694 26.5956 7.41774 25.5701 5.49303C25.4323 5.2345 25.1308 5.14821 24.8967 5.30028C24.6625 5.45235 24.5843 5.78521 24.7221 6.04373C25.6642 7.81197 26.4712 10.6215 27.148 14.0654C27.8221 17.4955 28.3579 21.5046 28.7771 25.6377C29.3453 31.2407 29.6975 37.0552 29.891 41.9356L23.66 8.91611C23.6046 8.62248 23.344 8.43403 23.0781 8.4952C22.8121 8.55638 22.6414 8.844 22.6968 9.13763L28.4625 39.6911L18.2327 6.67876C18.1447 6.39497 17.865 6.24361 17.608 6.3407C17.3509 6.43778 17.2138 6.74654 17.3018 7.03033L27.481 39.8795L15.2583 12.0484C15.1398 11.7785 14.8455 11.6658 14.6011 11.7967C14.3566 11.9275 14.2545 12.2524 14.373 12.5223L26.2341 39.5299C24.1069 35.7303 21.8164 31.5452 19.7178 27.5453C17.8015 23.8926 16.0483 20.4001 14.7263 17.4993C14.0652 16.0486 13.5145 14.7515 13.1058 13.6597C12.6938 12.559 12.4382 11.6983 12.3493 11.1099C12.3047 10.8141 12.0512 10.6142 11.7832 10.6635C11.5153 10.7128 11.3342 10.9926 11.3789 11.2885C11.4868 12.0035 11.7785 12.9576 12.1966 14.0745C12.618 15.2003 13.1803 16.5235 13.8474 17.9874C15.1818 20.9156 16.9458 24.4289 18.8665 28.0897C21.2946 32.7177 23.9778 37.5909 26.3697 41.8315C23.2547 37.6719 19.7909 32.8454 16.8005 28.2864C14.5074 24.7905 12.5014 21.4652 11.1443 18.7251C10.4652 17.354 9.95659 16.1451 9.65418 15.1445C9.34484 14.1211 9.27992 13.4054 9.38716 12.9713C9.45864 12.682 9.30411 12.3834 9.042 12.3045C8.77989 12.2256 8.50946 12.3962 8.43797 12.6855C8.25005 13.4462 8.39933 14.4243 8.72091 15.4883C9.04941 16.5752 9.5884 17.8476 10.2811 19.2462C11.6675 22.0455 13.7014 25.4136 16.0037 28.9235C18.9543 33.4217 22.36 38.1744 25.4415 42.2965C23.1367 39.9328 20.6722 37.3217 18.4133 34.7822C16.2948 32.4004 14.3642 30.0896 12.9172 28.1095C12.1935 27.1192 11.5967 26.2197 11.1591 25.4413C10.7155 24.6522 10.4595 24.029 10.3788 23.5836C10.3255 23.2895 10.0663 23.0987 9.79994 23.1575C9.53353 23.2164 9.36076 23.5025 9.41404 23.7966C9.53011 24.4373 9.86239 25.1945 10.3232 26.0141C10.79 26.8444 11.4138 27.7821 12.1515 28.7915C13.6274 30.8111 15.583 33.1504 17.7114 35.5432C21.0005 39.2409 24.7191 43.0854 27.7556 46.1065C23.9072 43.7695 17.758 38.8829 11.2558 30.3993C11.0803 30.1704 10.7699 30.1418 10.5625 30.3356C10.3551 30.5293 10.3292 30.872 10.5047 31.1009C19.2042 42.4512 27.3429 47.5183 30.4017 48.644L30.7614 48.7764L30.9689 48.426C32.3851 46.0348 34.4205 41.7844 35.9549 36.7618C37.4882 31.7428 38.5349 25.9085 37.9326 20.3669C37.9002 20.0691 37.6553 19.8566 37.3856 19.8924C37.1158 19.9281 36.9234 20.1985 36.9557 20.4963C37.534 25.8163 36.531 31.4773 35.0226 36.4147C34.4458 38.3028 33.7971 40.0787 33.139 41.6815C33.7707 39.2481 34.3544 36.4749 34.7697 33.5217C35.6491 27.2682 35.7801 20.162 33.9786 13.7536C33.8981 13.4672 33.6225 13.307 33.363 13.3959C33.1035 13.4848 32.9585 13.7891 33.039 14.0756C34.7794 20.2667 34.6644 27.1901 33.7975 33.3551C33.2729 37.085 32.4756 40.5205 31.6589 43.3244C32.1624 38.6165 32.5639 32.7097 32.5372 26.7422C32.5003 18.4728 31.6422 9.98612 29.026 4.43166C28.9007 4.16556 28.6037 4.06201 28.3626 4.20039Z" fill="#0A3019"/>
<g style="mix-blend-mode:multiply">
<path d="M5.46933 11.1991C10.1918 5.11656 16.6196 7.57853 19.2432 9.56983C20.4238 1.74946 24.6544 -0.20556 28.5898 0.880512C45.9056 6.52856 37.1165 34.3706 30.5575 47.5855C11.3724 39.9824 -0.433769 18.8022 5.46933 11.1991Z" fill="#FD6565"/>
<path d="M8.42085 14.4576C13.1433 8.37512 18.587 14.6387 21.2106 16.63C22.3912 8.80967 25.3341 8.80722 28.0977 9.56992C39.905 12.8284 37.1161 34.3707 30.5571 47.5857C11.3721 39.9825 2.51775 22.0608 8.42085 14.4576Z" fill="#FD6565"/>
<path fill-rule="evenodd" clip-rule="evenodd" d="M28.3626 4.20039C28.1216 4.33876 28.0278 4.66666 28.1531 4.93277C30.6529 10.2399 31.5166 18.4983 31.5534 26.7476C31.5767 31.9555 31.2708 37.1197 30.8568 41.4649C30.6592 36.6525 30.3095 30.9863 29.7548 25.5169C29.3336 21.3634 28.7933 17.3146 28.1095 13.8351C27.4284 10.3694 26.5956 7.41774 25.5701 5.49303C25.4323 5.2345 25.1308 5.14821 24.8967 5.30028C24.6625 5.45235 24.5843 5.78521 24.7221 6.04373C25.6642 7.81197 26.4712 10.6215 27.148 14.0654C27.8221 17.4955 28.3579 21.5046 28.7771 25.6377C29.3453 31.2407 29.6975 37.0552 29.891 41.9356L23.66 8.91611C23.6046 8.62248 23.344 8.43403 23.0781 8.4952C22.8121 8.55638 22.6414 8.844 22.6968 9.13763L28.4625 39.6911L18.2327 6.67876C18.1447 6.39497 17.865 6.24361 17.608 6.3407C17.3509 6.43778 17.2138 6.74654 17.3018 7.03033L27.481 39.8795L15.2583 12.0484C15.1398 11.7785 14.8455 11.6658 14.6011 11.7967C14.3566 11.9275 14.2545 12.2524 14.373 12.5223L26.2341 39.5299C24.1069 35.7303 21.8164 31.5452 19.7178 27.5453C17.8015 23.8926 16.0483 20.4001 14.7263 17.4993C14.0652 16.0486 13.5145 14.7515 13.1058 13.6597C12.6938 12.559 12.4382 11.6983 12.3493 11.1099C12.3047 10.8141 12.0512 10.6142 11.7832 10.6635C11.5153 10.7128 11.3342 10.9926 11.3789 11.2885C11.4868 12.0035 11.7785 12.9576 12.1966 14.0745C12.618 15.2003 13.1803 16.5235 13.8474 17.9874C15.1818 20.9156 16.9458 24.4289 18.8665 28.0897C21.2946 32.7177 23.9778 37.5909 26.3697 41.8315C23.2547 37.6719 19.7909 32.8454 16.8005 28.2864C14.5074 24.7905 12.5014 21.4652 11.1443 18.7251C10.4652 17.354 9.95659 16.1451 9.65418 15.1445C9.34484 14.1211 9.27992 13.4054 9.38716 12.9713C9.45864 12.682 9.30411 12.3834 9.042 12.3045C8.77989 12.2256 8.50946 12.3962 8.43797 12.6855C8.25005 13.4462 8.39933 14.4243 8.72091 15.4883C9.04941 16.5752 9.5884 17.8476 10.2811 19.2462C11.6675 22.0455 13.7014 25.4136 16.0037 28.9235C18.9543 33.4217 22.36 38.1744 25.4415 42.2965C23.1367 39.9328 20.6722 37.3217 18.4133 34.7822C16.2948 32.4004 14.3642 30.0896 12.9172 28.1095C12.1935 27.1192 11.5967 26.2197 11.1591 25.4413C10.7155 24.6522 10.4595 24.029 10.3788 23.5836C10.3255 23.2895 10.0663 23.0987 9.79994 23.1575C9.53353 23.2164 9.36076 23.5025 9.41404 23.7966C9.53011 24.4373 9.86239 25.1945 10.3232 26.0141C10.79 26.8444 11.4138 27.7821 12.1515 28.7915C13.6274 30.8111 15.583 33.1504 17.7114 35.5432C21.0005 39.2409 24.7191 43.0854 27.7556 46.1065C23.9072 43.7695 17.758 38.8829 11.2558 30.3993C11.0803 30.1704 10.7699 30.1418 10.5625 30.3356C10.3551 30.5293 10.3292 30.872 10.5047 31.1009C19.2042 42.4512 27.3429 47.5183 30.4017 48.644L30.7614 48.7764L30.9689 48.426C32.3851 46.0348 34.4205 41.7844 35.9549 36.7618C37.4882 31.7428 38.5349 25.9085 37.9326 20.3669C37.9002 20.0691 37.6553 19.8566 37.3856 19.8924C37.1158 19.9281 36.9234 20.1985 36.9557 20.4963C37.534 25.8163 36.531 31.4773 35.0226 36.4147C34.4458 38.3028 33.7971 40.0787 33.139 41.6815C33.7707 39.2481 34.3544 36.4749 34.7697 33.5217C35.6491 27.2682 35.7801 20.162 33.9786 13.7536C33.8981 13.4672 33.6225 13.307 33.363 13.3959C33.1035 13.4848 32.9585 13.7891 33.039 14.0756C34.7794 20.2667 34.6644 27.1901 33.7975 33.3551C33.2729 37.085 32.4756 40.5205 31.6589 43.3244C32.1624 38.6165 32.5639 32.7097 32.5372 26.7422C32.5003 18.4728 31.6422 9.98612 29.026 4.43166C28.9007 4.16556 28.6037 4.06201 28.3626 4.20039Z" fill="#FD6565"/>
</g>
<g style="mix-blend-mode:soft-light">
<path d="M5.46933 11.1991C10.1918 5.11656 16.6196 7.57853 19.2432 9.56983C20.4238 1.74946 24.6544 -0.20556 28.5898 0.880512C45.9056 6.52856 37.1165 34.3706 30.5575 47.5855C11.3724 39.9824 -0.433769 18.8022 5.46933 11.1991Z" fill="#FD6565"/>
<path d="M8.42085 14.4576C13.1433 8.37512 18.587 14.6387 21.2106 16.63C22.3912 8.80967 25.3341 8.80722 28.0977 9.56992C39.905 12.8284 37.1161 34.3707 30.5571 47.5857C11.3721 39.9825 2.51775 22.0608 8.42085 14.4576Z" fill="#FD6565"/>
<path fill-rule="evenodd" clip-rule="evenodd" d="M28.3626 4.20039C28.1216 4.33876 28.0278 4.66666 28.1531 4.93277C30.6529 10.2399 31.5166 18.4983 31.5534 26.7476C31.5767 31.9555 31.2708 37.1197 30.8568 41.4649C30.6592 36.6525 30.3095 30.9863 29.7548 25.5169C29.3336 21.3634 28.7933 17.3146 28.1095 13.8351C27.4284 10.3694 26.5956 7.41774 25.5701 5.49303C25.4323 5.2345 25.1308 5.14821 24.8967 5.30028C24.6625 5.45235 24.5843 5.78521 24.7221 6.04373C25.6642 7.81197 26.4712 10.6215 27.148 14.0654C27.8221 17.4955 28.3579 21.5046 28.7771 25.6377C29.3453 31.2407 29.6975 37.0552 29.891 41.9356L23.66 8.91611C23.6046 8.62248 23.344 8.43403 23.0781 8.4952C22.8121 8.55638 22.6414 8.844 22.6968 9.13763L28.4625 39.6911L18.2327 6.67876C18.1447 6.39497 17.865 6.24361 17.608 6.3407C17.3509 6.43778 17.2138 6.74654 17.3018 7.03033L27.481 39.8795L15.2583 12.0484C15.1398 11.7785 14.8455 11.6658 14.6011 11.7967C14.3566 11.9275 14.2545 12.2524 14.373 12.5223L26.2341 39.5299C24.1069 35.7303 21.8164 31.5452 19.7178 27.5453C17.8015 23.8926 16.0483 20.4001 14.7263 17.4993C14.0652 16.0486 13.5145 14.7515 13.1058 13.6597C12.6938 12.559 12.4382 11.6983 12.3493 11.1099C12.3047 10.8141 12.0512 10.6142 11.7832 10.6635C11.5153 10.7128 11.3342 10.9926 11.3789 11.2885C11.4868 12.0035 11.7785 12.9576 12.1966 14.0745C12.618 15.2003 13.1803 16.5235 13.8474 17.9874C15.1818 20.9156 16.9458 24.4289 18.8665 28.0897C21.2946 32.7177 23.9778 37.5909 26.3697 41.8315C23.2547 37.6719 19.7909 32.8454 16.8005 28.2864C14.5074 24.7905 12.5014 21.4652 11.1443 18.7251C10.4652 17.354 9.95659 16.1451 9.65418 15.1445C9.34484 14.1211 9.27992 13.4054 9.38716 12.9713C9.45864 12.682 9.30411 12.3834 9.042 12.3045C8.77989 12.2256 8.50946 12.3962 8.43797 12.6855C8.25005 13.4462 8.39933 14.4243 8.72091 15.4883C9.04941 16.5752 9.5884 17.8476 10.2811 19.2462C11.6675 22.0455 13.7014 25.4136 16.0037 28.9235C18.9543 33.4217 22.36 38.1744 25.4415 42.2965C23.1367 39.9328 20.6722 37.3217 18.4133 34.7822C16.2948 32.4004 14.3642 30.0896 12.9172 28.1095C12.1935 27.1192 11.5967 26.2197 11.1591 25.4413C10.7155 24.6522 10.4595 24.029 10.3788 23.5836C10.3255 23.2895 10.0663 23.0987 9.79994 23.1575C9.53353 23.2164 9.36076 23.5025 9.41404 23.7966C9.53011 24.4373 9.86239 25.1945 10.3232 26.0141C10.79 26.8444 11.4138 27.7821 12.1515 28.7915C13.6274 30.8111 15.583 33.1504 17.7114 35.5432C21.0005 39.2409 24.7191 43.0854 27.7556 46.1065C23.9072 43.7695 17.758 38.8829 11.2558 30.3993C11.0803 30.1704 10.7699 30.1418 10.5625 30.3356C10.3551 30.5293 10.3292 30.872 10.5047 31.1009C19.2042 42.4512 27.3429 47.5183 30.4017 48.644L30.7614 48.7764L30.9689 48.426C32.3851 46.0348 34.4205 41.7844 35.9549 36.7618C37.4882 31.7428 38.5349 25.9085 37.9326 20.3669C37.9002 20.0691 37.6553 19.8566 37.3856 19.8924C37.1158 19.9281 36.9234 20.1985 36.9557 20.4963C37.534 25.8163 36.531 31.4773 35.0226 36.4147C34.4458 38.3028 33.7971 40.0787 33.139 41.6815C33.7707 39.2481 34.3544 36.4749 34.7697 33.5217C35.6491 27.2682 35.7801 20.162 33.9786 13.7536C33.8981 13.4672 33.6225 13.307 33.363 13.3959C33.1035 13.4848 32.9585 13.7891 33.039 14.0756C34.7794 20.2667 34.6644 27.1901 33.7975 33.3551C33.2729 37.085 32.4756 40.5205 31.6589 43.3244C32.1624 38.6165 32.5639 32.7097 32.5372 26.7422C32.5003 18.4728 31.6422 9.98612 29.026 4.43166C28.9007 4.16556 28.6037 4.06201 28.3626 4.20039Z" fill="#FD6565"/>
</g>
<path d="M34.7493 27.8996C26.5995 31.0336 31.9349 42.3353 35.6214 47.5945C47.7207 47.9739 52.3809 41.4599 51.9768 38.8333C51.6535 36.732 49.1272 36.1591 47.9045 36.1352C48.0536 30.898 44.1423 31.0251 42.168 31.7432C39.8382 27.672 36.2515 27.4845 34.7493 27.8996Z" fill="#CDCDCD"/>
<path d="M36.2538 32.7766C39.9769 32.6961 41.4307 36.2825 41.6922 38.0859C44.8039 36.1172 46.3078 37.1776 46.768 38.3694C48.4674 44.0775 39.3485 45.8575 34.8334 45.3912C30.9265 41.5955 31.6 32.8774 36.2538 32.7766Z" fill="white"/>
<path fill-rule="evenodd" clip-rule="evenodd" d="M36.3068 34.5485C36.3931 34.5615 36.4526 34.6423 36.4395 34.7289L36.2506 35.9833C36.2375 36.0699 36.1569 36.1295 36.0706 36.1165C35.9842 36.1035 35.9247 36.0227 35.9378 35.9361L36.1267 34.6817C36.1398 34.5952 36.2204 34.5355 36.3068 34.5485ZM37.8619 35.9053C37.9482 35.9183 38.0077 35.999 37.9946 36.0856L37.7821 37.4968C37.769 37.5834 37.6884 37.6431 37.602 37.63C37.5157 37.617 37.4562 37.5363 37.4693 37.4497L37.6818 36.0385C37.6949 35.9519 37.7755 35.8923 37.8619 35.9053ZM34.5954 36.0608C34.6821 36.0495 34.7614 36.1108 34.7726 36.1976L34.92 37.3423C34.9312 37.4292 34.87 37.5087 34.7834 37.52C34.6968 37.5313 34.6175 37.47 34.6063 37.3832L34.4588 36.2385C34.4476 36.1516 34.5088 36.0721 34.5954 36.0608ZM44.2927 38.3384C44.3613 38.3926 44.3729 38.4923 44.3187 38.5611L43.5277 39.5644C43.4736 39.6331 43.3741 39.6449 43.3056 39.5906C43.237 39.5363 43.2254 39.4366 43.2796 39.3679L44.0705 38.3646C44.1247 38.2958 44.2242 38.2841 44.2927 38.3384ZM36.398 37.128C36.4844 37.141 36.5439 37.2217 36.5308 37.3083L36.3655 38.4059C36.3524 38.4925 36.2718 38.5522 36.1855 38.5391C36.0991 38.5261 36.0396 38.4454 36.0527 38.3588L36.218 37.2612C36.2311 37.1746 36.3117 37.115 36.398 37.128ZM39.6477 38.2719C39.722 38.318 39.7449 38.4157 39.6989 38.4902L39.0643 39.5171C39.0183 39.5915 38.9208 39.6145 38.8466 39.5685C38.7723 39.5224 38.7494 39.4247 38.7954 39.3502L39.43 38.3233C39.476 38.2488 39.5735 38.2258 39.6477 38.2719ZM40.5503 39.6892C40.6257 39.7335 40.6509 39.8306 40.6067 39.9061L40.1758 40.643C40.1316 40.7186 40.0347 40.744 39.9594 40.6997C39.884 40.6555 39.8587 40.5584 39.9029 40.4828L40.3338 39.7459C40.378 39.6704 40.475 39.645 40.5503 39.6892ZM42.7038 40.3398C42.7752 40.3901 42.7923 40.489 42.742 40.5607L41.9275 41.7208C41.8772 41.7925 41.7785 41.8097 41.7071 41.7593C41.6356 41.709 41.6185 41.6101 41.6688 41.5384L42.4834 40.3783C42.5337 40.3067 42.6324 40.2894 42.7038 40.3398ZM34.9079 39.4702C34.9952 39.4735 35.0632 39.5472 35.0597 39.6347L35.0036 41.0694C35.0001 41.157 34.9266 41.2252 34.8393 41.2218C34.752 41.2184 34.684 41.1447 34.6874 41.0572L34.7436 39.6225C34.747 39.535 34.8206 39.4668 34.9079 39.4702ZM36.3329 39.6839C36.4193 39.6969 36.4788 39.7776 36.4657 39.8642L36.2295 41.4322C36.2165 41.5188 36.1359 41.5784 36.0495 41.5654C35.9631 41.5524 35.9037 41.4717 35.9167 41.3851L36.1529 39.8171C36.166 39.7305 36.2466 39.6708 36.3329 39.6839ZM37.9117 40.8838C37.998 40.8968 38.0575 40.9776 38.0444 41.0642L37.8319 42.4754C37.8188 42.5619 37.7382 42.6216 37.6518 42.6086C37.5655 42.5956 37.506 42.5148 37.519 42.4282L37.7316 41.017C37.7447 40.9305 37.8253 40.8708 37.9117 40.8838ZM43.2496 42.0256C43.321 42.0759 43.3382 42.1748 43.2879 42.2465L42.8806 42.8265C42.8303 42.8982 42.7316 42.9154 42.6602 42.8651C42.5887 42.8147 42.5716 42.7158 42.6219 42.6441L43.0292 42.0641C43.0795 41.9924 43.1782 41.9752 43.2496 42.0256ZM41.1372 42.3588C41.2018 42.4176 41.2066 42.5179 41.1478 42.5828L40.3805 43.4293C40.3217 43.4941 40.2217 43.499 40.157 43.4401C40.0924 43.3813 40.0877 43.281 40.1464 43.2161L40.9138 42.3696C40.9725 42.3048 41.0726 42.2999 41.1372 42.3588ZM41.9955 43.1422C42.0519 43.2091 42.0436 43.3091 41.9769 43.3657L40.6931 44.4552C40.6264 44.5118 40.5266 44.5035 40.4702 44.4367C40.4138 44.3699 40.4221 44.2698 40.4888 44.2132L41.7726 43.1237C41.8393 43.0671 41.9391 43.0754 41.9955 43.1422Z" fill="#CDCDCD"/>
<path d="M37.1323 44.3504C35.0006 42.3616 32.706 41.1714 31.9033 40.8366L33.5733 44.616L35.807 47.8389L39.186 47.7065L42.143 47.1898C41.4561 45.8035 38.5163 44.7192 37.1323 44.3504Z" fill="#9B9B9B"/>
<g style="mix-blend-mode:multiply">
<path d="M34.7493 27.8996C26.5995 31.0336 31.9349 42.3353 35.6214 47.5945C47.7207 47.9739 52.3809 41.4599 51.9768 38.8333C51.6535 36.732 49.1272 36.1591 47.9045 36.1352C48.0536 30.898 44.1423 31.0251 42.168 31.7432C39.8382 27.672 36.2515 27.4845 34.7493 27.8996Z" fill="#FD6565"/>
<path d="M36.2538 32.7766C39.9769 32.6961 41.4307 36.2825 41.6922 38.0859C44.8039 36.1172 46.3078 37.1776 46.768 38.3694C48.4674 44.0775 39.3485 45.8575 34.8334 45.3912C30.9265 41.5955 31.6 32.8774 36.2538 32.7766Z" fill="#FD6565"/>
<path fill-rule="evenodd" clip-rule="evenodd" d="M36.3068 34.5485C36.3931 34.5615 36.4526 34.6423 36.4395 34.7289L36.2506 35.9833C36.2375 36.0699 36.1569 36.1295 36.0706 36.1165C35.9842 36.1035 35.9247 36.0227 35.9378 35.9361L36.1267 34.6817C36.1398 34.5952 36.2204 34.5355 36.3068 34.5485ZM37.8619 35.9053C37.9482 35.9183 38.0077 35.999 37.9946 36.0856L37.7821 37.4968C37.769 37.5834 37.6884 37.6431 37.602 37.63C37.5157 37.617 37.4562 37.5363 37.4693 37.4497L37.6818 36.0385C37.6949 35.9519 37.7755 35.8923 37.8619 35.9053ZM34.5954 36.0608C34.6821 36.0495 34.7614 36.1108 34.7726 36.1976L34.92 37.3423C34.9312 37.4292 34.87 37.5087 34.7834 37.52C34.6968 37.5313 34.6175 37.47 34.6063 37.3832L34.4588 36.2385C34.4476 36.1516 34.5088 36.0721 34.5954 36.0608ZM44.2927 38.3384C44.3613 38.3926 44.3729 38.4923 44.3187 38.5611L43.5277 39.5644C43.4736 39.6331 43.3741 39.6449 43.3056 39.5906C43.237 39.5363 43.2254 39.4366 43.2796 39.3679L44.0705 38.3646C44.1247 38.2958 44.2242 38.2841 44.2927 38.3384ZM36.398 37.128C36.4844 37.141 36.5439 37.2217 36.5308 37.3083L36.3655 38.4059C36.3524 38.4925 36.2718 38.5522 36.1855 38.5391C36.0991 38.5261 36.0396 38.4454 36.0527 38.3588L36.218 37.2612C36.2311 37.1746 36.3117 37.115 36.398 37.128ZM39.6477 38.2719C39.722 38.318 39.7449 38.4157 39.6989 38.4902L39.0643 39.5171C39.0183 39.5915 38.9208 39.6145 38.8466 39.5685C38.7723 39.5224 38.7494 39.4247 38.7954 39.3502L39.43 38.3233C39.476 38.2488 39.5735 38.2258 39.6477 38.2719ZM40.5503 39.6892C40.6257 39.7335 40.6509 39.8306 40.6067 39.9061L40.1758 40.643C40.1316 40.7186 40.0347 40.744 39.9594 40.6997C39.884 40.6555 39.8587 40.5584 39.9029 40.4828L40.3338 39.7459C40.378 39.6704 40.475 39.645 40.5503 39.6892ZM42.7038 40.3398C42.7752 40.3901 42.7923 40.489 42.742 40.5607L41.9275 41.7208C41.8772 41.7925 41.7785 41.8097 41.7071 41.7593C41.6356 41.709 41.6185 41.6101 41.6688 41.5384L42.4834 40.3783C42.5337 40.3067 42.6324 40.2894 42.7038 40.3398ZM34.9079 39.4702C34.9952 39.4735 35.0632 39.5472 35.0597 39.6347L35.0036 41.0694C35.0001 41.157 34.9266 41.2252 34.8393 41.2218C34.752 41.2184 34.684 41.1447 34.6874 41.0572L34.7436 39.6225C34.747 39.535 34.8206 39.4668 34.9079 39.4702ZM36.3329 39.6839C36.4193 39.6969 36.4788 39.7776 36.4657 39.8642L36.2295 41.4322C36.2165 41.5188 36.1359 41.5784 36.0495 41.5654C35.9631 41.5524 35.9037 41.4717 35.9167 41.3851L36.1529 39.8171C36.166 39.7305 36.2466 39.6708 36.3329 39.6839ZM37.9117 40.8838C37.998 40.8968 38.0575 40.9776 38.0444 41.0642L37.8319 42.4754C37.8188 42.5619 37.7382 42.6216 37.6518 42.6086C37.5655 42.5956 37.506 42.5148 37.519 42.4282L37.7316 41.017C37.7447 40.9305 37.8253 40.8708 37.9117 40.8838ZM43.2496 42.0256C43.321 42.0759 43.3382 42.1748 43.2879 42.2465L42.8806 42.8265C42.8303 42.8982 42.7316 42.9154 42.6602 42.8651C42.5887 42.8147 42.5716 42.7158 42.6219 42.6441L43.0292 42.0641C43.0795 41.9924 43.1782 41.9752 43.2496 42.0256ZM41.1372 42.3588C41.2018 42.4176 41.2066 42.5179 41.1478 42.5828L40.3805 43.4293C40.3217 43.4941 40.2217 43.499 40.157 43.4401C40.0924 43.3813 40.0877 43.281 40.1464 43.2161L40.9138 42.3696C40.9725 42.3048 41.0726 42.2999 41.1372 42.3588ZM41.9955 43.1422C42.0519 43.2091 42.0436 43.3091 41.9769 43.3657L40.6931 44.4552C40.6264 44.5118 40.5266 44.5035 40.4702 44.4367C40.4138 44.3699 40.4221 44.2698 40.4888 44.2132L41.7726 43.1237C41.8393 43.0671 41.9391 43.0754 41.9955 43.1422Z" fill="#FD6565"/>
<path d="M37.1323 44.3504C35.0006 42.3616 32.706 41.1714 31.9033 40.8366L33.5733 44.616L35.807 47.8389L39.186 47.7065L42.143 47.1898C41.4561 45.8035 38.5163 44.7192 37.1323 44.3504Z" fill="#FD6565"/>
</g>
<g style="mix-blend-mode:soft-light">
<path d="M34.7493 27.8996C26.5995 31.0336 31.9349 42.3353 35.6214 47.5945C47.7207 47.9739 52.3809 41.4599 51.9768 38.8333C51.6535 36.732 49.1272 36.1591 47.9045 36.1352C48.0536 30.898 44.1423 31.0251 42.168 31.7432C39.8382 27.672 36.2515 27.4845 34.7493 27.8996Z" fill="#FD6565"/>
<path d="M36.2538 32.7766C39.9769 32.6961 41.4307 36.2825 41.6922 38.0859C44.8039 36.1172 46.3078 37.1776 46.768 38.3694C48.4674 44.0775 39.3485 45.8575 34.8334 45.3912C30.9265 41.5955 31.6 32.8774 36.2538 32.7766Z" fill="#FD6565"/>
<path fill-rule="evenodd" clip-rule="evenodd" d="M36.3068 34.5485C36.3931 34.5615 36.4526 34.6423 36.4395 34.7289L36.2506 35.9833C36.2375 36.0699 36.1569 36.1295 36.0706 36.1165C35.9842 36.1035 35.9247 36.0227 35.9378 35.9361L36.1267 34.6817C36.1398 34.5952 36.2204 34.5355 36.3068 34.5485ZM37.8619 35.9053C37.9482 35.9183 38.0077 35.999 37.9946 36.0856L37.7821 37.4968C37.769 37.5834 37.6884 37.6431 37.602 37.63C37.5157 37.617 37.4562 37.5363 37.4693 37.4497L37.6818 36.0385C37.6949 35.9519 37.7755 35.8923 37.8619 35.9053ZM34.5954 36.0608C34.6821 36.0495 34.7614 36.1108 34.7726 36.1976L34.92 37.3423C34.9312 37.4292 34.87 37.5087 34.7834 37.52C34.6968 37.5313 34.6175 37.47 34.6063 37.3832L34.4588 36.2385C34.4476 36.1516 34.5088 36.0721 34.5954 36.0608ZM44.2927 38.3384C44.3613 38.3926 44.3729 38.4923 44.3187 38.5611L43.5277 39.5644C43.4736 39.6331 43.3741 39.6449 43.3056 39.5906C43.237 39.5363 43.2254 39.4366 43.2796 39.3679L44.0705 38.3646C44.1247 38.2958 44.2242 38.2841 44.2927 38.3384ZM36.398 37.128C36.4844 37.141 36.5439 37.2217 36.5308 37.3083L36.3655 38.4059C36.3524 38.4925 36.2718 38.5522 36.1855 38.5391C36.0991 38.5261 36.0396 38.4454 36.0527 38.3588L36.218 37.2612C36.2311 37.1746 36.3117 37.115 36.398 37.128ZM39.6477 38.2719C39.722 38.318 39.7449 38.4157 39.6989 38.4902L39.0643 39.5171C39.0183 39.5915 38.9208 39.6145 38.8466 39.5685C38.7723 39.5224 38.7494 39.4247 38.7954 39.3502L39.43 38.3233C39.476 38.2488 39.5735 38.2258 39.6477 38.2719ZM40.5503 39.6892C40.6257 39.7335 40.6509 39.8306 40.6067 39.9061L40.1758 40.643C40.1316 40.7186 40.0347 40.744 39.9594 40.6997C39.884 40.6555 39.8587 40.5584 39.9029 40.4828L40.3338 39.7459C40.378 39.6704 40.475 39.645 40.5503 39.6892ZM42.7038 40.3398C42.7752 40.3901 42.7923 40.489 42.742 40.5607L41.9275 41.7208C41.8772 41.7925 41.7785 41.8097 41.7071 41.7593C41.6356 41.709 41.6185 41.6101 41.6688 41.5384L42.4834 40.3783C42.5337 40.3067 42.6324 40.2894 42.7038 40.3398ZM34.9079 39.4702C34.9952 39.4735 35.0632 39.5472 35.0597 39.6347L35.0036 41.0694C35.0001 41.157 34.9266 41.2252 34.8393 41.2218C34.752 41.2184 34.684 41.1447 34.6874 41.0572L34.7436 39.6225C34.747 39.535 34.8206 39.4668 34.9079 39.4702ZM36.3329 39.6839C36.4193 39.6969 36.4788 39.7776 36.4657 39.8642L36.2295 41.4322C36.2165 41.5188 36.1359 41.5784 36.0495 41.5654C35.9631 41.5524 35.9037 41.4717 35.9167 41.3851L36.1529 39.8171C36.166 39.7305 36.2466 39.6708 36.3329 39.6839ZM37.9117 40.8838C37.998 40.8968 38.0575 40.9776 38.0444 41.0642L37.8319 42.4754C37.8188 42.5619 37.7382 42.6216 37.6518 42.6086C37.5655 42.5956 37.506 42.5148 37.519 42.4282L37.7316 41.017C37.7447 40.9305 37.8253 40.8708 37.9117 40.8838ZM43.2496 42.0256C43.321 42.0759 43.3382 42.1748 43.2879 42.2465L42.8806 42.8265C42.8303 42.8982 42.7316 42.9154 42.6602 42.8651C42.5887 42.8147 42.5716 42.7158 42.6219 42.6441L43.0292 42.0641C43.0795 41.9924 43.1782 41.9752 43.2496 42.0256ZM41.1372 42.3588C41.2018 42.4176 41.2066 42.5179 41.1478 42.5828L40.3805 43.4293C40.3217 43.4941 40.2217 43.499 40.157 43.4401C40.0924 43.3813 40.0877 43.281 40.1464 43.2161L40.9138 42.3696C40.9725 42.3048 41.0726 42.2999 41.1372 42.3588ZM41.9955 43.1422C42.0519 43.2091 42.0436 43.3091 41.9769 43.3657L40.6931 44.4552C40.6264 44.5118 40.5266 44.5035 40.4702 44.4367C40.4138 44.3699 40.4221 44.2698 40.4888 44.2132L41.7726 43.1237C41.8393 43.0671 41.9391 43.0754 41.9955 43.1422Z" fill="#FD6565"/>
<path d="M37.1323 44.3504C35.0006 42.3616 32.706 41.1714 31.9033 40.8366L33.5733 44.616L35.807 47.8389L39.186 47.7065L42.143 47.1898C41.4561 45.8035 38.5163 44.7192 37.1323 44.3504Z" fill="#FD6565"/>
</g>
<path d="M21.2159 54.8118C19.5861 54.1463 16.245 51.5611 15.919 46.5446C17.6846 47.1521 21.2159 49.6562 21.2159 54.8118Z" fill="#51B022"/>
<path d="M18.3637 59.6961C16.7339 59.975 13.3929 59.6646 13.0669 56.1917C14.1534 55.7142 16.7339 55.7466 18.3637 59.6961Z" fill="#51B022"/>
<path d="M24.6242 56.1917C23.6918 55.3877 22.2345 52.7187 23.8643 48.474C24.7783 50.0818 26.21 53.8764 24.6242 56.1917Z" fill="#51B022"/>
<path d="M18.7712 64.3917C18.7018 66.2408 19.5192 69.8906 23.3445 69.6976C22.846 66.4176 20.0879 64.7937 18.7712 64.3917Z" fill="#51B022"/>
<path d="M31.1984 60.2917C30.1797 60.2917 26.8424 61.0635 28.5067 68.0094C31.6058 63.1858 31.1984 60.7741 31.1984 60.2917Z" fill="#51B022"/>
<path d="M31.1984 70.9035C31.9397 72.5114 32.8334 76.3542 30.4769 78.8624C28.7589 75.9683 30.242 72.3506 31.1984 70.9035Z" fill="#51B022"/>
<path d="M21.2159 73.3153C22.7778 73.4668 25.9015 75.268 25.9015 81.2603C22.479 81.0562 21.3517 75.8786 21.2159 73.3153Z" fill="#51B022"/>
<path fill-rule="evenodd" clip-rule="evenodd" d="M18.4833 50.0404C18.5405 49.9859 18.6245 49.9963 18.6708 50.0636C20.0395 52.0522 22.0747 55.809 23.9786 60.8955C24.1886 60.3539 24.4106 59.402 24.4843 58.0388C24.5725 56.4049 24.4468 54.1905 23.8382 51.4071C23.8198 51.3233 23.8628 51.2378 23.9341 51.2163C24.0054 51.1947 24.0781 51.2452 24.0965 51.3291C24.7113 54.141 24.8406 56.3885 24.7504 58.0587C24.6644 59.6503 24.3786 60.7275 24.1168 61.2676C25.2215 64.2671 26.2757 67.7152 27.1213 71.526C27.3835 71.0961 27.7368 70.3195 28.0732 69.1587C28.4833 67.7435 28.8656 65.767 29.0278 63.1743C29.0332 63.088 29.0971 63.0231 29.1706 63.0295C29.244 63.0358 29.2992 63.111 29.2938 63.1973C29.13 65.8141 28.7437 67.817 28.3256 69.2598C27.9306 70.6228 27.5045 71.4947 27.2054 71.9096C27.99 75.528 28.5842 79.4667 28.8554 83.6535C29.6878 81.8779 30.9537 78.016 30.6577 73.8106C30.6516 73.7243 30.7062 73.6486 30.7796 73.6414C30.853 73.6343 30.9174 73.6984 30.9235 73.7847C31.2524 78.4579 29.692 82.7039 28.8663 84.2516L28.7923 84.3903L28.6777 84.2974C27.3786 83.2452 24.4108 80.2683 22.9296 76.7615C22.8969 76.684 22.9238 76.5899 22.9898 76.5514C23.0557 76.5129 23.1357 76.5445 23.1685 76.6221C24.5402 79.8698 27.2265 82.6726 28.6004 83.8486C28.3357 79.617 27.7386 75.6375 26.9467 71.9854C26.1327 71.6138 24.8626 70.9358 23.6091 70.0679C22.3249 69.1788 21.0435 68.0806 20.2937 66.8971C20.2497 66.8277 20.2619 66.7295 20.321 66.6778C20.3801 66.6261 20.4636 66.6404 20.5076 66.7099C21.2246 67.8417 22.4682 68.9141 23.7444 69.7977C24.8957 70.5948 26.0617 71.2302 26.8643 71.61C26.0234 67.8195 24.9753 64.3892 23.8768 61.4049C22.9938 61.3152 21.5636 61.0482 20.0306 60.5267C18.4514 59.9895 16.753 59.1789 15.4309 58.005C15.3722 57.9528 15.3605 57.8545 15.4049 57.7854C15.4492 57.7163 15.5329 57.7026 15.5916 57.7548C16.8772 58.8962 18.5408 59.6935 20.1047 60.2255C21.5393 60.7135 22.8815 60.9755 23.7551 61.0768C21.8529 55.9827 19.8195 52.2309 18.4635 50.2608C18.4172 50.1935 18.426 50.0948 18.4833 50.0404Z" fill="#0A3019"/>
<defs>
<clipPath id="clip0_295_2169">
<rect width="26.0354" height="26.4735" fill="white" transform="translate(34.8516 40.7962) rotate(15)"/>
</clipPath>
</defs>
</svg>
