<svg width="156" height="200" viewBox="0 0 156 200" fill="none" xmlns="http://www.w3.org/2000/svg">
<path d="M55.362 144.522C55.2549 142.392 55.1869 140.314 55.1542 138.288L55.1391 137.106C54.9402 116.144 60.6052 87.4949 63.7714 80.2872C63.8846 80.0295 64.215 79.9009 64.5094 80C64.8038 80.0991 64.9506 80.3884 64.8374 80.6462C61.6929 87.8044 55.9812 116.65 56.292 137.994C56.3185 139.819 56.374 141.689 56.461 143.601L56.5176 144.765C57.3282 160.415 60.2553 178.854 66.7729 199.366C66.8574 199.632 66.6796 199.908 66.3758 199.982C66.0719 200.056 65.7571 199.9 65.6726 199.634C59.0912 178.921 56.1552 160.308 55.362 144.522Z" fill="#0A3019"/>
<path d="M25.1343 82C26.8959 86.3441 28.0695 89.506 28.9603 92.0588C30.171 95.5281 30.8592 97.8723 31.7908 100.529C32.5129 102.589 33.3811 104.836 34.7522 107.941C34.9901 108.48 35.234 109.009 35.4838 109.529C36.712 112.086 38.0807 114.412 39.5611 116.472C41.8829 119.704 44.4794 122.283 47.2395 124.08C50.1518 125.975 53.2462 127 56.3924 127C56.4666 122.622 56.0265 118.599 55.1901 114.914C54.4418 111.617 53.3761 108.591 52.0776 105.824C50.5981 102.67 48.8163 99.8528 46.8572 97.3529C44.955 94.9256 42.8855 92.7977 40.7633 90.9526C38.5736 89.0488 36.3276 87.4461 34.151 86.1262C30.8365 84.1163 27.683 82.7624 25.1343 82Z" fill="#2E7A48"/>
<g style="mix-blend-mode:multiply">
<path d="M28.854 91.7552C28.8876 91.7461 28.9233 91.7412 28.9603 91.7412H32.7225C30.3235 88.0405 27.7696 84.702 25.3993 82.6556C25.3125 82.4401 25.2241 82.2216 25.1343 82C25.4092 82.0822 25.6912 82.1713 25.9796 82.2674C28.3254 84.3159 30.8017 87.5363 33.1138 91.0655L33.7929 86.0883C33.8 86.0358 33.8214 85.9879 33.8531 85.947C33.9522 86.0062 34.0516 86.0659 34.151 86.1262C34.2626 86.1939 34.3743 86.2623 34.4863 86.3314L33.7138 91.9936C35.3034 94.4856 36.8081 97.1027 38.1287 99.563L40.4119 90.8809C40.4274 90.8219 40.4607 90.7705 40.5057 90.7302C40.5916 90.8039 40.6775 90.878 40.7633 90.9526C40.8637 91.0399 40.964 91.1278 41.0641 91.2163L38.6241 100.495C39.8668 102.854 40.9229 105.032 41.6999 106.766C41.982 107.395 42.2758 108.015 42.5798 108.626L46.5121 97.2604C46.5367 97.1893 46.587 97.1314 46.6512 97.0921C46.7201 97.1787 46.7887 97.2656 46.8572 97.3529C46.9445 97.4643 47.0314 97.5763 47.1179 97.6889L43.0291 109.507C44.2926 111.929 45.7068 114.185 47.1603 116.236L51.7407 105.71C51.7775 105.625 51.8508 105.563 51.9387 105.53C51.9853 105.628 52.0316 105.725 52.0776 105.824C52.1445 105.966 52.2109 106.11 52.2766 106.254L47.6414 116.905C49.5162 119.478 51.4346 121.702 53.1603 123.493L54.8346 114.86C54.8604 114.727 54.9766 114.628 55.1183 114.603C55.1426 114.706 55.1665 114.81 55.1901 114.914C55.257 115.209 55.3214 115.506 55.3832 115.805L53.7711 124.116C54.7361 125.086 55.6268 125.908 56.3981 126.565C56.3967 126.71 56.3948 126.855 56.3924 127C56.2146 127 56.037 126.997 55.8596 126.99C55.0786 126.323 54.184 125.496 53.2194 124.526L47.761 124.409C47.5866 124.302 47.4127 124.192 47.2395 124.08C47.1432 124.017 47.0471 123.953 46.9512 123.889C47.0188 123.81 47.1273 123.76 47.2483 123.762L52.5844 123.877C50.8455 122.071 48.9174 119.832 47.0335 117.247L39.8032 116.805C39.7222 116.695 39.6415 116.584 39.5611 116.472C39.497 116.383 39.4331 116.293 39.3694 116.203C39.4318 116.168 39.5068 116.15 39.586 116.155L46.5547 116.581C45.0995 114.529 43.6824 112.271 42.4129 109.847H35.6377C35.5861 109.742 35.5348 109.636 35.4838 109.529C35.437 109.432 35.3905 109.334 35.3441 109.236C35.3871 109.221 35.4342 109.212 35.4837 109.212H42.0855C41.7187 108.488 41.3656 107.75 41.0289 106.999C40.2669 105.299 39.2324 103.164 38.0145 100.847H31.9028C31.8651 100.741 31.8277 100.635 31.7908 100.529C31.7552 100.428 31.7199 100.327 31.6849 100.226C31.7184 100.217 31.7539 100.212 31.7907 100.212H37.6783C36.3282 97.677 34.7748 94.9593 33.1306 92.3765H29.0708C29.0345 92.2716 28.9976 92.1658 28.9603 92.0588C28.9253 91.9586 28.8899 91.8574 28.854 91.7552Z" fill="#2E7A48"/>
</g>
<path d="M87.6665 102C85.9049 106.344 84.7313 109.506 83.8405 112.059C82.6298 115.528 81.9416 117.872 81.01 120.529C80.2879 122.589 79.4197 124.836 78.0486 127.941C77.8107 128.48 77.5668 129.009 77.317 129.529C76.0888 132.086 74.7201 134.412 73.2397 136.472C70.9179 139.704 68.3214 142.283 65.5613 144.08C62.649 145.975 59.5545 147 56.4084 147C56.3342 142.622 56.7743 138.599 57.6106 134.914C58.359 131.617 59.4247 128.591 60.7232 125.824C62.2027 122.67 63.9845 119.853 65.9436 117.353C67.8458 114.926 69.9152 112.798 72.0375 110.953C74.2272 109.049 76.4732 107.446 78.6497 106.126C81.9643 104.116 85.1178 102.762 87.6665 102Z" fill="#2E7A48"/>
<g style="mix-blend-mode:multiply">
<path d="M83.9467 111.755C83.9132 111.746 83.8775 111.741 83.8405 111.741H80.0783C82.4773 108.041 85.0312 104.702 87.4015 102.656C87.4883 102.44 87.5766 102.222 87.6665 102C87.3916 102.082 87.1096 102.171 86.8212 102.267C84.4754 104.316 81.9991 107.536 79.6869 111.066L79.0079 106.088C79.0007 106.036 78.9794 105.988 78.9477 105.947C78.8485 106.006 78.7492 106.066 78.6497 106.126C78.5382 106.194 78.4264 106.262 78.3145 106.331L79.087 111.994C77.4974 114.486 75.9927 117.103 74.6721 119.563L72.3889 110.881C72.3734 110.822 72.34 110.771 72.2951 110.73C72.2091 110.804 72.1233 110.878 72.0375 110.953C71.9371 111.04 71.8368 111.128 71.7367 111.216L74.1767 120.495C72.934 122.854 71.8779 125.032 71.1009 126.766C70.8188 127.395 70.5249 128.015 70.221 128.626L66.2887 117.26C66.2641 117.189 66.2138 117.131 66.1495 117.092C66.0807 117.179 66.012 117.266 65.9436 117.353C65.8563 117.464 65.7694 117.576 65.6828 117.689L69.7717 129.507C68.5082 131.929 67.094 134.185 65.6405 136.236L61.06 125.71C61.0233 125.625 60.95 125.563 60.8621 125.53C60.8155 125.628 60.7692 125.725 60.7232 125.824C60.6562 125.966 60.5899 126.11 60.5242 126.254L65.1593 136.905C63.2845 139.478 61.3662 141.702 59.6405 143.493L57.9662 134.86C57.9404 134.727 57.8241 134.628 57.6825 134.603C57.6582 134.706 57.6343 134.81 57.6107 134.914C57.5437 135.209 57.4794 135.506 57.4176 135.805L59.0297 144.116C58.0647 145.086 57.1739 145.908 56.4027 146.565C56.4041 146.71 56.406 146.855 56.4084 147C56.5862 147 56.7638 146.997 56.9412 146.99C57.7222 146.323 58.6167 145.496 59.5814 144.526L65.0398 144.409C65.2142 144.302 65.3881 144.192 65.5613 144.08C65.6576 144.017 65.7537 143.953 65.8496 143.889C65.7819 143.81 65.6735 143.76 65.5525 143.762L60.2164 143.877C61.9553 142.071 63.8834 139.832 65.7673 137.247L72.9976 136.805C73.0786 136.695 73.1593 136.584 73.2397 136.472C73.3038 136.383 73.3677 136.293 73.4314 136.203C73.3689 136.168 73.294 136.15 73.2148 136.155L66.2461 136.581C67.7012 134.529 69.1184 132.271 70.3879 129.847H77.1631C77.2146 129.742 77.2659 129.636 77.317 129.529C77.3637 129.432 77.4103 129.334 77.4566 129.236C77.4137 129.221 77.3665 129.212 77.3171 129.212H70.7153C71.0821 128.488 71.4352 127.75 71.7719 126.999C72.5339 125.299 73.5683 123.164 74.7863 120.847H80.898C80.9357 120.741 80.973 120.635 81.01 120.529C81.0456 120.428 81.0809 120.327 81.1159 120.226C81.0824 120.217 81.0469 120.212 81.01 120.212H75.1225C76.4726 117.677 78.0259 114.959 79.6702 112.376H83.73C83.7663 112.272 83.8031 112.166 83.8405 112.059C83.8754 111.959 83.9109 111.857 83.9467 111.755Z" fill="#2E7A48"/>
</g>
<path d="M59.976 7.9834C70.9377 -3.00323 76.9406 11.4167 78.5718 20C82.4865 17.425 89.8402 10.4191 99.1252 13.1334C107.934 15.7084 105.65 28.0111 104.019 35.45C109.891 31.4445 123.398 25.15 130.444 32.0167C137.491 38.8833 126.203 53.7611 119.678 60.3416C143.951 52.1016 151.906 55.6848 150.019 63.7749C142.972 93.9881 88.0328 94.1026 61.9335 90.3831C51.1675 72.3582 46.2739 21.7167 59.976 7.9834Z" fill="#CDCDCD"/>
<mask id="mask0_81_2784" style="mask-type:alpha" maskUnits="userSpaceOnUse" x="61" y="-8" width="107" height="95">
<path d="M77.5927 -4.0332C88.5544 -15.0198 94.5573 -0.599883 96.1885 7.98342C100.103 5.40838 107.457 -1.59745 116.742 1.11682C125.55 3.69181 123.267 15.9945 121.635 23.4334C127.508 19.4279 141.014 13.1334 148.061 20.0001C155.108 26.8667 143.82 41.7444 137.295 48.325C161.567 40.085 169.522 43.6682 167.635 51.7583C160.589 81.9715 108.369 96.7163 79.5502 78.3665C48.6671 46.0748 63.8906 9.70008 77.5927 -4.0332Z" fill="#FF91A0"/>
</mask>
<g mask="url(#mask0_81_2784)">
<path d="M59.9755 7.9834C70.9372 -3.00323 76.9401 11.4167 78.5713 20C82.486 17.425 89.8397 10.4191 99.1247 13.1334C107.933 15.7084 105.649 28.0111 104.018 35.45C109.891 31.4445 123.397 25.15 130.444 32.0167C137.491 38.8833 126.203 53.761 119.678 60.3416C143.95 52.1016 151.905 55.6848 150.018 63.7749C142.971 93.9881 88.0323 94.1026 61.933 90.3831C51.167 72.3582 46.2734 21.7167 59.9755 7.9834Z" fill="white"/>
</g>
<path fill-rule="evenodd" clip-rule="evenodd" d="M66.2459 13.2074C66.7398 13.3999 66.9623 13.9071 66.7427 14.3403C62.1345 23.4334 60.4979 37.9375 60.3674 52.4946C60.2798 62.2747 60.8713 72.0118 61.6642 80.0271C62.4788 72.6246 64.0457 63.7759 66.6877 54.9311C70.7231 41.4213 77.3075 27.7784 87.6952 19.3693C88.0924 19.0477 88.7116 19.0695 89.0782 19.4178C89.4448 19.7661 89.4201 20.3092 89.0229 20.6307C79.0531 28.7015 72.5878 41.9529 68.5813 55.3661C65.372 66.1101 63.7667 76.8668 63.1741 84.9539C69.9196 69.4516 83.6209 42.0921 98.3524 25.4814C98.6843 25.1072 99.2992 25.0398 99.7259 25.3308C100.153 25.6219 100.229 26.1611 99.8976 26.5353C83.557 44.9602 68.3962 76.951 62.8559 90.6697L60.9626 90.4929C59.6529 81.5911 58.2791 67.0888 58.41 52.4811C58.5406 37.9122 60.1665 23.0899 64.954 13.6431C65.1735 13.2099 65.7519 13.0148 66.2459 13.2074ZM108.809 35.0661C109.051 35.4901 108.855 36.0057 108.371 36.2177C107.142 36.7569 105.703 37.7612 104.093 39.1985C102.492 40.6274 100.765 42.4447 98.9539 44.5641C95.3314 48.8029 91.4132 54.2008 87.5398 60.0027C81.4974 69.0535 75.5907 79.0472 71.1211 87.0716C79.1508 78.6401 89.5686 67.9723 99.2565 58.6061C105.196 52.8642 110.871 47.6013 115.558 43.6405C117.901 41.6609 120.01 39.9958 121.79 38.7557C123.533 37.5411 125.07 36.6544 126.248 36.3445C126.766 36.2083 127.311 36.4659 127.467 36.92C127.622 37.374 127.328 37.8526 126.81 37.9888C126.031 38.1939 124.754 38.8825 123.007 40.0999C121.296 41.2918 119.238 42.9151 116.916 44.8767C112.275 48.7982 106.634 54.0284 100.706 59.7595C91.2786 68.8742 81.1523 79.2301 73.2201 87.546C80.4363 82.6817 89.0858 76.9115 96.8042 71.8837C102.022 68.4845 106.822 65.4201 110.468 63.2036C112.289 62.0964 113.834 61.1937 115.004 60.5652C115.587 60.2519 116.093 59.9981 116.502 59.8198C116.706 59.731 116.902 59.6537 117.081 59.5969C117.238 59.5473 117.472 59.4832 117.721 59.4832C118.261 59.4832 118.699 59.8675 118.699 60.3415C118.699 60.7941 118.3 61.1648 117.794 61.1975C117.783 61.2004 117.767 61.2049 117.746 61.2116C117.663 61.2377 117.541 61.2839 117.373 61.357C117.039 61.5026 116.589 61.7266 116.026 62.029C114.904 62.6322 113.395 63.5132 111.583 64.6144C107.964 66.8147 103.185 69.8659 97.9713 73.2618C90.2052 78.3207 81.4921 84.1343 74.2496 89.0172C84.3542 84.893 96.9872 79.5726 108.514 74.3841C115.896 71.0616 122.813 67.7981 128.319 64.9406C131.072 63.5117 133.462 62.1894 135.377 61.016C137.305 59.8341 138.701 58.8335 139.504 58.0507C139.866 57.6983 140.484 57.6698 140.886 57.9869C141.288 58.304 141.32 58.8467 140.959 59.1991C140 60.133 138.454 61.2245 136.498 62.4231C134.528 63.6303 132.092 64.9768 129.315 66.418C123.761 69.3006 116.805 72.5818 109.408 75.9114C97.5501 81.2487 84.5312 86.7227 74.2817 90.8973C84.3885 89.1868 97.3205 86.6368 109.641 83.4864C117.494 81.4784 125.082 79.2311 131.523 76.8078C137.986 74.3767 143.212 71.7992 146.412 69.1581C146.805 68.8333 147.425 68.8497 147.795 69.1949C148.166 69.5401 148.147 70.0833 147.753 70.4082C144.298 73.2605 138.814 75.9331 132.295 78.3855C125.754 80.8458 118.086 83.1154 110.189 85.1344C102.526 87.0939 94.6317 88.8216 87.3203 90.2614C92.063 89.7381 97.0015 89.1237 101.827 88.4206C108.241 87.486 114.441 86.3969 119.71 85.1604C125.004 83.9178 129.267 82.5466 131.872 81.0778C132.327 80.8215 132.933 80.9369 133.225 81.3357C133.517 81.7344 133.386 82.2655 132.931 82.5218C130.055 84.143 125.543 85.5685 120.216 86.8187C114.863 88.0749 108.596 89.1745 102.148 90.114C89.251 91.9931 75.568 93.2403 66.9007 93.814L65.2329 93.9244L65.9402 92.5951C70.5164 83.9951 78.0666 70.7949 85.8506 59.1354C89.7417 53.3069 93.7022 47.8469 97.3876 43.5346C99.2302 41.3785 101.014 39.4969 102.697 37.9954C104.369 36.5023 105.985 35.3448 107.496 34.6823C107.979 34.4703 108.567 34.6421 108.809 35.0661Z" fill="#0A3019"/>
<path d="M79.5504 91.9133C77.9845 91.8626 63.6328 82.2888 56.6527 77.5082C53.1931 84.3748 50.1887 95.5331 56.6527 98.9664C63.88 102.805 75.3775 95.1227 79.5504 91.9133Z" fill="#9B9B9B"/>
<g style="mix-blend-mode:multiply">
<path d="M59.976 7.9834C70.9377 -3.00323 76.9406 11.4167 78.5718 20C82.4865 17.425 89.8402 10.4191 99.1252 13.1334C107.934 15.7084 105.65 28.0111 104.019 35.45C109.891 31.4445 123.398 25.15 130.444 32.0167C137.491 38.8833 126.203 53.7611 119.678 60.3416C143.951 52.1016 151.906 55.6848 150.019 63.7749C142.972 93.9881 88.0328 94.1026 61.9335 90.3831C51.1675 72.3582 46.2739 21.7167 59.976 7.9834Z" fill="#FD6565"/>
<mask id="mask1_81_2784" style="mask-type:alpha" maskUnits="userSpaceOnUse" x="61" y="-8" width="107" height="95">
<path d="M77.5927 -4.0332C88.5544 -15.0198 94.5573 -0.599883 96.1885 7.98342C100.103 5.40838 107.457 -1.59745 116.742 1.11682C125.55 3.69181 123.267 15.9945 121.635 23.4334C127.508 19.4279 141.014 13.1334 148.061 20.0001C155.108 26.8667 143.82 41.7444 137.295 48.325C161.567 40.085 169.522 43.6682 167.635 51.7583C160.589 81.9715 108.369 96.7163 79.5502 78.3665C48.6671 46.0748 63.8906 9.70008 77.5927 -4.0332Z" fill="#FF91A0"/>
</mask>
<g mask="url(#mask1_81_2784)">
<path d="M59.9755 7.9834C70.9372 -3.00323 76.9401 11.4167 78.5713 20C82.486 17.425 89.8397 10.4191 99.1247 13.1334C107.933 15.7084 105.649 28.0111 104.018 35.45C109.891 31.4445 123.397 25.15 130.444 32.0167C137.491 38.8833 126.203 53.761 119.678 60.3416C143.95 52.1016 151.905 55.6848 150.018 63.7749C142.971 93.9881 88.0323 94.1026 61.933 90.3831C51.167 72.3582 46.2734 21.7167 59.9755 7.9834Z" fill="#FD6565"/>
</g>
<path fill-rule="evenodd" clip-rule="evenodd" d="M66.2459 13.2074C66.7398 13.3999 66.9623 13.9071 66.7427 14.3403C62.1345 23.4334 60.4979 37.9375 60.3674 52.4946C60.2798 62.2747 60.8713 72.0118 61.6642 80.0271C62.4788 72.6246 64.0457 63.7759 66.6877 54.9311C70.7231 41.4213 77.3075 27.7784 87.6952 19.3693C88.0924 19.0477 88.7116 19.0695 89.0782 19.4178C89.4448 19.7661 89.4201 20.3092 89.0229 20.6307C79.0531 28.7015 72.5878 41.9529 68.5813 55.3661C65.372 66.1101 63.7667 76.8668 63.1741 84.9539C69.9196 69.4516 83.6209 42.0921 98.3524 25.4814C98.6843 25.1072 99.2992 25.0398 99.7259 25.3308C100.153 25.6219 100.229 26.1611 99.8976 26.5353C83.557 44.9602 68.3962 76.951 62.8559 90.6697L60.9626 90.4929C59.6529 81.5911 58.2791 67.0888 58.41 52.4811C58.5406 37.9122 60.1665 23.0899 64.954 13.6431C65.1735 13.2099 65.7519 13.0148 66.2459 13.2074ZM108.809 35.0661C109.051 35.4901 108.855 36.0057 108.371 36.2177C107.142 36.7569 105.703 37.7612 104.093 39.1985C102.492 40.6274 100.765 42.4447 98.9539 44.5641C95.3314 48.8029 91.4132 54.2008 87.5398 60.0027C81.4974 69.0535 75.5907 79.0472 71.1211 87.0716C79.1508 78.6401 89.5686 67.9723 99.2565 58.6061C105.196 52.8642 110.871 47.6013 115.558 43.6405C117.901 41.6609 120.01 39.9958 121.79 38.7557C123.533 37.5411 125.07 36.6544 126.248 36.3445C126.766 36.2083 127.311 36.4659 127.467 36.92C127.622 37.374 127.328 37.8526 126.81 37.9888C126.031 38.1939 124.754 38.8825 123.007 40.0999C121.296 41.2918 119.238 42.9151 116.916 44.8767C112.275 48.7982 106.634 54.0284 100.706 59.7595C91.2786 68.8742 81.1523 79.2301 73.2201 87.546C80.4363 82.6817 89.0858 76.9115 96.8042 71.8837C102.022 68.4845 106.822 65.4201 110.468 63.2036C112.289 62.0964 113.834 61.1937 115.004 60.5652C115.587 60.2519 116.093 59.9981 116.502 59.8198C116.706 59.731 116.902 59.6537 117.081 59.5969C117.238 59.5473 117.472 59.4832 117.721 59.4832C118.261 59.4832 118.699 59.8675 118.699 60.3415C118.699 60.7941 118.3 61.1648 117.794 61.1975C117.783 61.2004 117.767 61.2049 117.746 61.2116C117.663 61.2377 117.541 61.2839 117.373 61.357C117.039 61.5026 116.589 61.7266 116.026 62.029C114.904 62.6322 113.395 63.5132 111.583 64.6144C107.964 66.8147 103.185 69.8659 97.9713 73.2618C90.2052 78.3207 81.4921 84.1343 74.2496 89.0172C84.3542 84.893 96.9872 79.5726 108.514 74.3841C115.896 71.0616 122.813 67.7981 128.319 64.9406C131.072 63.5117 133.462 62.1894 135.377 61.016C137.305 59.8341 138.701 58.8335 139.504 58.0507C139.866 57.6983 140.484 57.6698 140.886 57.9869C141.288 58.304 141.32 58.8467 140.959 59.1991C140 60.133 138.454 61.2245 136.498 62.4231C134.528 63.6303 132.092 64.9768 129.315 66.418C123.761 69.3006 116.805 72.5818 109.408 75.9114C97.5501 81.2487 84.5312 86.7227 74.2817 90.8973C84.3885 89.1868 97.3205 86.6368 109.641 83.4864C117.494 81.4784 125.082 79.2311 131.523 76.8078C137.986 74.3767 143.212 71.7992 146.412 69.1581C146.805 68.8333 147.425 68.8497 147.795 69.1949C148.166 69.5401 148.147 70.0833 147.753 70.4082C144.298 73.2605 138.814 75.9331 132.295 78.3855C125.754 80.8458 118.086 83.1154 110.189 85.1344C102.526 87.0939 94.6317 88.8216 87.3203 90.2614C92.063 89.7381 97.0015 89.1237 101.827 88.4206C108.241 87.486 114.441 86.3969 119.71 85.1604C125.004 83.9178 129.267 82.5466 131.872 81.0778C132.327 80.8215 132.933 80.9369 133.225 81.3357C133.517 81.7344 133.386 82.2655 132.931 82.5218C130.055 84.143 125.543 85.5685 120.216 86.8187C114.863 88.0749 108.596 89.1745 102.148 90.114C89.251 91.9931 75.568 93.2403 66.9007 93.814L65.2329 93.9244L65.9402 92.5951C70.5164 83.9951 78.0666 70.7949 85.8506 59.1354C89.7417 53.3069 93.7022 47.8469 97.3876 43.5346C99.2302 41.3785 101.014 39.4969 102.697 37.9954C104.369 36.5023 105.985 35.3448 107.496 34.6823C107.979 34.4703 108.567 34.6421 108.809 35.0661Z" fill="#FD6565"/>
<path d="M79.5504 91.9133C77.9845 91.8626 63.6328 82.2888 56.6527 77.5082C53.1931 84.3748 50.1887 95.5331 56.6527 98.9664C63.88 102.805 75.3775 95.1227 79.5504 91.9133Z" fill="#FD6565"/>
</g>
<g style="mix-blend-mode:soft-light">
<path d="M59.976 7.9834C70.9377 -3.00323 76.9406 11.4167 78.5718 20C82.4865 17.425 89.8402 10.4191 99.1252 13.1334C107.934 15.7084 105.65 28.0111 104.019 35.45C109.891 31.4445 123.398 25.15 130.444 32.0167C137.491 38.8833 126.203 53.7611 119.678 60.3416C143.951 52.1016 151.906 55.6848 150.019 63.7749C142.972 93.9881 88.0328 94.1026 61.9335 90.3831C51.1675 72.3582 46.2739 21.7167 59.976 7.9834Z" fill="#FD6565"/>
<mask id="mask2_81_2784" style="mask-type:alpha" maskUnits="userSpaceOnUse" x="61" y="-8" width="107" height="95">
<path d="M77.5927 -4.0332C88.5544 -15.0198 94.5573 -0.599883 96.1885 7.98342C100.103 5.40838 107.457 -1.59745 116.742 1.11682C125.55 3.69181 123.267 15.9945 121.635 23.4334C127.508 19.4279 141.014 13.1334 148.061 20.0001C155.108 26.8667 143.82 41.7444 137.295 48.325C161.567 40.085 169.522 43.6682 167.635 51.7583C160.589 81.9715 108.369 96.7163 79.5502 78.3665C48.6671 46.0748 63.8906 9.70008 77.5927 -4.0332Z" fill="#FF91A0"/>
</mask>
<g mask="url(#mask2_81_2784)">
<path d="M59.9755 7.9834C70.9372 -3.00323 76.9401 11.4167 78.5713 20C82.486 17.425 89.8397 10.4191 99.1247 13.1334C107.933 15.7084 105.649 28.0111 104.018 35.45C109.891 31.4445 123.397 25.15 130.444 32.0167C137.491 38.8833 126.203 53.761 119.678 60.3416C143.95 52.1016 151.905 55.6848 150.018 63.7749C142.971 93.9881 88.0323 94.1026 61.933 90.3831C51.167 72.3582 46.2734 21.7167 59.9755 7.9834Z" fill="#FD6565"/>
</g>
<path fill-rule="evenodd" clip-rule="evenodd" d="M66.2459 13.2074C66.7398 13.3999 66.9623 13.9071 66.7427 14.3403C62.1345 23.4334 60.4979 37.9375 60.3674 52.4946C60.2798 62.2747 60.8713 72.0118 61.6642 80.0271C62.4788 72.6246 64.0457 63.7759 66.6877 54.9311C70.7231 41.4213 77.3075 27.7784 87.6952 19.3693C88.0924 19.0477 88.7116 19.0695 89.0782 19.4178C89.4448 19.7661 89.4201 20.3092 89.0229 20.6307C79.0531 28.7015 72.5878 41.9529 68.5813 55.3661C65.372 66.1101 63.7667 76.8668 63.1741 84.9539C69.9196 69.4516 83.6209 42.0921 98.3524 25.4814C98.6843 25.1072 99.2992 25.0398 99.7259 25.3308C100.153 25.6219 100.229 26.1611 99.8976 26.5353C83.557 44.9602 68.3962 76.951 62.8559 90.6697L60.9626 90.4929C59.6529 81.5911 58.2791 67.0888 58.41 52.4811C58.5406 37.9122 60.1665 23.0899 64.954 13.6431C65.1735 13.2099 65.7519 13.0148 66.2459 13.2074ZM108.809 35.0661C109.051 35.4901 108.855 36.0057 108.371 36.2177C107.142 36.7569 105.703 37.7612 104.093 39.1985C102.492 40.6274 100.765 42.4447 98.9539 44.5641C95.3314 48.8029 91.4132 54.2008 87.5398 60.0027C81.4974 69.0535 75.5907 79.0472 71.1211 87.0716C79.1508 78.6401 89.5686 67.9723 99.2565 58.6061C105.196 52.8642 110.871 47.6013 115.558 43.6405C117.901 41.6609 120.01 39.9958 121.79 38.7557C123.533 37.5411 125.07 36.6544 126.248 36.3445C126.766 36.2083 127.311 36.4659 127.467 36.92C127.622 37.374 127.328 37.8526 126.81 37.9888C126.031 38.1939 124.754 38.8825 123.007 40.0999C121.296 41.2918 119.238 42.9151 116.916 44.8767C112.275 48.7982 106.634 54.0284 100.706 59.7595C91.2786 68.8742 81.1523 79.2301 73.2201 87.546C80.4363 82.6817 89.0858 76.9115 96.8042 71.8837C102.022 68.4845 106.822 65.4201 110.468 63.2036C112.289 62.0964 113.834 61.1937 115.004 60.5652C115.587 60.2519 116.093 59.9981 116.502 59.8198C116.706 59.731 116.902 59.6537 117.081 59.5969C117.238 59.5473 117.472 59.4832 117.721 59.4832C118.261 59.4832 118.699 59.8675 118.699 60.3415C118.699 60.7941 118.3 61.1648 117.794 61.1975C117.783 61.2004 117.767 61.2049 117.746 61.2116C117.663 61.2377 117.541 61.2839 117.373 61.357C117.039 61.5026 116.589 61.7266 116.026 62.029C114.904 62.6322 113.395 63.5132 111.583 64.6144C107.964 66.8147 103.185 69.8659 97.9713 73.2618C90.2052 78.3207 81.4921 84.1343 74.2496 89.0172C84.3542 84.893 96.9872 79.5726 108.514 74.3841C115.896 71.0616 122.813 67.7981 128.319 64.9406C131.072 63.5117 133.462 62.1894 135.377 61.016C137.305 59.8341 138.701 58.8335 139.504 58.0507C139.866 57.6983 140.484 57.6698 140.886 57.9869C141.288 58.304 141.32 58.8467 140.959 59.1991C140 60.133 138.454 61.2245 136.498 62.4231C134.528 63.6303 132.092 64.9768 129.315 66.418C123.761 69.3006 116.805 72.5818 109.408 75.9114C97.5501 81.2487 84.5312 86.7227 74.2817 90.8973C84.3885 89.1868 97.3205 86.6368 109.641 83.4864C117.494 81.4784 125.082 79.2311 131.523 76.8078C137.986 74.3767 143.212 71.7992 146.412 69.1581C146.805 68.8333 147.425 68.8497 147.795 69.1949C148.166 69.5401 148.147 70.0833 147.753 70.4082C144.298 73.2605 138.814 75.9331 132.295 78.3855C125.754 80.8458 118.086 83.1154 110.189 85.1344C102.526 87.0939 94.6317 88.8216 87.3203 90.2614C92.063 89.7381 97.0015 89.1237 101.827 88.4206C108.241 87.486 114.441 86.3969 119.71 85.1604C125.004 83.9178 129.267 82.5466 131.872 81.0778C132.327 80.8215 132.933 80.9369 133.225 81.3357C133.517 81.7344 133.386 82.2655 132.931 82.5218C130.055 84.143 125.543 85.5685 120.216 86.8187C114.863 88.0749 108.596 89.1745 102.148 90.114C89.251 91.9931 75.568 93.2403 66.9007 93.814L65.2329 93.9244L65.9402 92.5951C70.5164 83.9951 78.0666 70.7949 85.8506 59.1354C89.7417 53.3069 93.7022 47.8469 97.3876 43.5346C99.2302 41.3785 101.014 39.4969 102.697 37.9954C104.369 36.5023 105.985 35.3448 107.496 34.6823C107.979 34.4703 108.567 34.6421 108.809 35.0661Z" fill="#FD6565"/>
<path d="M79.5504 91.9133C77.9845 91.8626 63.6328 82.2888 56.6527 77.5082C53.1931 84.3748 50.1887 95.5331 56.6527 98.9664C63.88 102.805 75.3775 95.1227 79.5504 91.9133Z" fill="#FD6565"/>
</g>
</svg>
