<svg width="60" height="130" viewBox="0 0 60 130" fill="none" xmlns="http://www.w3.org/2000/svg">
<rect y="70" width="60" height="60" fill="#5D7D5F"/>
<path d="M23.2438 72.261C23.1985 71.196 23.1697 70.1568 23.1558 69.1441L23.1494 68.553C23.0653 58.0722 25.4626 43.7475 26.8025 40.1436C26.8504 40.0147 26.9902 39.9504 27.1148 40C27.2393 40.0496 27.3015 40.1942 27.2536 40.3231C25.9229 43.9022 23.5058 58.3248 23.6373 68.9968C23.6486 69.9097 23.672 70.8445 23.7089 71.8007L23.7328 72.3823C24.0758 80.2076 25.3145 89.4268 28.0726 99.683C28.1084 99.8161 28.0332 99.9539 27.9046 99.9909C27.776 100.028 27.6428 99.9501 27.607 99.817C24.8219 89.4606 23.5794 80.1538 23.2438 72.261Z" fill="#0A3019"/>
<path fill-rule="evenodd" clip-rule="evenodd" d="M27.7871 65.6419C27.7444 65.6218 27.6935 65.6402 27.6734 65.6829C26.4866 68.2085 26.3055 70.5249 26.5126 72.2999C26.6653 73.6084 27.0293 74.625 27.359 75.2157C27.1903 75.5178 27.0216 75.8304 26.8535 76.1535C25.6079 78.5483 24.3983 81.5216 23.4816 85.0782C23.4698 85.1239 23.4973 85.1705 23.543 85.1823C23.5886 85.194 23.6352 85.1666 23.647 85.1209C24.5548 81.5987 25.7506 78.6519 26.9825 76.2758C27.5621 76.2458 28.3243 76.1566 29.1856 75.9878C30.0907 75.8105 31.1064 75.5449 32.1363 75.1669C32.4806 75.0405 32.8266 74.9015 33.1706 74.7489C34.7178 74.063 36.2276 73.1023 37.3663 71.7824C37.3971 71.7467 37.3932 71.6927 37.3574 71.6619C37.3217 71.6311 37.2678 71.6351 37.237 71.6708C36.1197 72.9659 34.6336 73.9134 33.1014 74.5928C32.761 74.7437 32.4185 74.8813 32.0774 75.0065C31.0571 75.381 30.0502 75.6443 29.1528 75.8202C28.3478 75.9779 27.6319 76.0652 27.0745 76.0995C27.2266 75.8101 27.3791 75.5293 27.5316 75.2572C29.3145 72.0762 32.5182 68.2358 33.5369 67.412C33.5736 67.3823 33.5793 67.3285 33.5496 67.2919C33.52 67.2552 33.4662 67.2495 33.4295 67.2791C32.4037 68.1087 29.2228 71.9236 27.4581 75.0397C27.1541 74.4594 26.825 73.5025 26.6823 72.2801C26.4785 70.5337 26.656 68.2497 27.828 65.7555C27.8481 65.7128 27.8298 65.662 27.7871 65.6419Z" fill="#0A3019"/>
<path fill-rule="evenodd" clip-rule="evenodd" d="M29.9032 65.2223C29.8655 65.2213 29.8341 65.2512 29.8332 65.2889C29.7 65.7597 29.6742 65.7722 29.2899 66.7377C28.9634 67.5579 28.548 68.4536 28.121 69.3107C28.2733 68.5143 28.4547 67.481 28.5885 66.5284C28.6701 65.9476 28.6223 66.3237 28.6513 65.8733C28.6658 65.6481 28.6715 65.4473 28.6662 65.2803C28.6609 65.1149 28.6445 64.977 28.6118 64.8811C28.5997 64.8454 28.5608 64.8263 28.5251 64.8384C28.4894 64.8506 28.4703 64.8894 28.4825 64.9252C28.5083 65.0011 28.5244 65.1222 28.5296 65.2847C28.5348 65.4456 28.5292 65.6417 28.5149 65.8645C28.4862 66.31 28.5346 65.9301 28.4532 66.5094C28.291 67.6635 28.0587 68.9374 27.8935 69.7618C27.3986 70.7313 26.9071 71.6213 26.5384 72.2557C26.5194 72.2883 26.5305 72.3302 26.5631 72.3491C26.5958 72.3681 26.6376 72.357 26.6565 72.3244C27.0276 71.6861 27.522 70.7905 28.0195 69.8155C28.5237 68.8273 29.0315 67.7564 29.4169 66.7883C29.8011 65.823 29.8479 65.8451 29.9699 65.2922C29.9708 65.2545 29.9409 65.2232 29.9032 65.2223ZM38.4703 72.3328C38.4512 72.3002 38.4094 72.2892 38.3768 72.3082C37.9006 72.5859 35.8403 73.9842 34.8572 74.6571C34.1558 74.7129 33.5391 74.6701 33.1474 74.6035C33.1102 74.5972 33.0749 74.6222 33.0686 74.6594C33.0623 74.6966 33.0873 74.7319 33.1245 74.7382C33.5313 74.8074 34.1667 74.8507 34.8863 74.7919C35.9393 74.7058 37.1817 74.4001 38.1518 73.6271C38.1813 73.6036 38.1862 73.5606 38.1626 73.5311C38.1391 73.5016 38.0961 73.4967 38.0666 73.5202C37.2048 74.207 36.1151 74.5172 35.1395 74.6297C36.1808 73.9185 38.0055 72.6829 38.4457 72.4262C38.4783 72.4072 38.4893 72.3654 38.4703 72.3328ZM35.4488 71.7823C35.4375 71.7463 35.3991 71.7263 35.3631 71.7376C35.0857 71.825 34.781 72.0187 34.4724 72.2696C34.1628 72.5213 33.8449 72.8343 33.5409 73.1656C32.9329 73.8283 32.3769 74.5684 32.0504 75.0482C32.0291 75.0794 32.0372 75.1219 32.0684 75.1432C32.0996 75.1644 32.1421 75.1563 32.1634 75.1251C32.487 74.6496 33.0389 73.9149 33.6416 73.258C33.9429 72.9296 34.2559 72.6217 34.5586 72.3756C34.8623 72.1287 35.1511 71.9477 35.4042 71.868C35.4402 71.8566 35.4602 71.8182 35.4488 71.7823ZM33.1018 71.4915C33.0702 71.4709 33.0279 71.4799 33.0073 71.5115C32.3243 72.5595 31.2559 73.3849 30.1934 73.9914C29.1314 74.5975 28.0807 74.9816 27.4398 75.1494C27.4033 75.1589 27.3814 75.1962 27.391 75.2328C27.4005 75.2693 27.4379 75.2911 27.4744 75.2816C28.1265 75.1109 29.1883 74.7223 30.2611 74.1101C31.3334 73.4981 32.4223 72.6594 33.1218 71.5861C33.1424 71.5545 33.1335 71.5121 33.1018 71.4915ZM25.7243 69.6314C25.6898 69.6466 25.6741 69.6869 25.6893 69.7214C25.9384 70.2878 25.9868 71.0825 25.9423 71.8538C25.9044 72.5099 25.7998 73.1413 25.7007 73.5864C25.3861 72.7593 25.096 71.7915 24.9139 70.7377C24.9075 70.7005 24.8721 70.6756 24.8349 70.682C24.7977 70.6885 24.7728 70.7238 24.7792 70.761C24.9784 71.9136 25.3055 72.9637 25.6529 73.8412C26.1016 74.9743 26.5851 75.8218 26.8733 76.2322C26.895 76.2631 26.9376 76.2706 26.9685 76.2489C26.9994 76.2272 27.0069 76.1846 26.9852 76.1537C26.7059 75.756 26.2312 74.926 25.7881 73.8113C25.9005 73.3609 26.0344 72.6282 26.0787 71.8617C26.1235 71.0852 26.077 70.2635 25.8144 69.6664C25.7992 69.6319 25.7588 69.6162 25.7243 69.6314ZM34.5538 75.9282C34.5583 75.8908 34.5315 75.8568 34.494 75.8523C34.3538 75.8356 34.1164 75.8604 33.8325 75.9076C33.5455 75.9553 33.2023 76.0276 32.8452 76.1104C32.1409 76.2738 31.38 76.4791 30.8858 76.6207C30.1477 76.3665 29.5413 76.0564 29.2055 75.8461C29.1735 75.8261 29.1313 75.8357 29.1113 75.8677C29.0913 75.8997 29.101 75.9419 29.1329 75.9619C29.4811 76.18 30.1051 76.4983 30.8618 76.757C31.6473 77.0256 32.58 77.2314 33.4982 77.1918C33.5359 77.1902 33.5652 77.1583 33.5635 77.1206C33.5619 77.0829 33.53 77.0536 33.4923 77.0553C32.6769 77.0905 31.8454 76.927 31.1173 76.6971C31.6024 76.5611 32.2612 76.3862 32.8761 76.2435C33.2318 76.161 33.572 76.0895 33.8549 76.0424C34.1408 75.9948 34.3597 75.9739 34.4779 75.988C34.5153 75.9925 34.5493 75.9657 34.5538 75.9282Z" fill="#0A3019"/>
<ellipse cx="0.427084" cy="0.427084" rx="0.427084" ry="0.427084" transform="matrix(-0.866025 -0.5 -0.5 0.866025 38.98 72.2023)" fill="#FD5936"/>
<ellipse cx="0.427083" cy="0.427084" rx="0.427083" ry="0.427084" transform="matrix(-0.866025 -0.5 -0.5 0.866025 36.1855 71.5754)" fill="#FD5936"/>
<ellipse cx="0.427084" cy="0.427083" rx="0.427084" ry="0.427083" transform="matrix(-0.866025 -0.5 -0.5 0.866025 33.75 71.3527)" fill="#FD5936"/>
<ellipse cx="0.427084" cy="0.427084" rx="0.427084" ry="0.427084" transform="matrix(-0.866025 -0.5 -0.5 0.866025 26.3633 69.4551)" fill="#FD5936"/>
<ellipse cx="0.427083" cy="0.427083" rx="0.427083" ry="0.427083" transform="matrix(-0.866025 -0.5 -0.5 0.866025 25.3838 70.4678)" fill="#FD5936"/>
<ellipse cx="0.427084" cy="0.427083" rx="0.427084" ry="0.427083" transform="matrix(-0.866025 -0.5 -0.5 0.866025 35.0234 75.6386)" fill="#FD5936"/>
<ellipse cx="0.427084" cy="0.427083" rx="0.427084" ry="0.427083" transform="matrix(-0.866025 -0.5 -0.5 0.866025 34.1064 76.8847)" fill="#FD5936"/>
<ellipse cx="0.5125" cy="0.5125" rx="0.5125" ry="0.5125" transform="matrix(-0.866025 -0.5 -0.5 0.866025 38.9111 73.3463)" fill="#FD5936"/>
<ellipse cx="0.427083" cy="0.427084" rx="0.427083" ry="0.427084" transform="matrix(-0.866025 -0.5 -0.5 0.866025 30.4277 65.4896)" fill="#FD5936"/>
<ellipse cx="0.427084" cy="0.427084" rx="0.427084" ry="0.427084" transform="matrix(-0.866025 -0.5 -0.5 0.866025 29.0112 64.8688)" fill="#FD5936"/>
<path d="M18.2301 58.7096C16.3574 58.248 14.7879 57.7285 13.4806 57.173C13.1764 57.0437 12.8863 56.9124 12.61 56.7795C12.085 56.527 11.6094 56.2685 11.1797 56.0057C10.435 55.5504 9.82792 55.0826 9.33996 54.6119C8.80805 54.0988 8.41769 53.5824 8.14499 53.0753C7.81211 52.4562 7.65453 51.851 7.62881 51.2825C7.59386 50.5103 7.80223 49.806 8.14499 49.2272C8.38697 48.8186 8.69592 48.4725 9.03351 48.2093C9.93319 47.623 10.788 47.4258 11.5881 47.5241C12.0312 47.5785 12.4575 47.7235 12.8654 47.9432C13.1321 48.0868 13.3908 48.2624 13.6413 48.4653C14.0755 48.8173 14.4847 49.2519 14.8665 49.7459C15.2816 50.2831 15.6643 50.8906 16.0114 51.5386C16.3339 52.1408 16.6257 52.7779 16.8842 53.426C17.1088 53.9889 17.3083 54.5602 17.4811 55.1241C17.8787 56.4218 18.135 57.6806 18.2301 58.7096Z" fill="#87C12F"/>
<g style="mix-blend-mode:multiply">
<path d="M8.24079 49.0739L9.86622 49.0798L11.3919 47.5061C11.4577 47.5101 11.5231 47.5162 11.5881 47.5242C11.6389 47.5304 11.6895 47.5378 11.7398 47.5464C11.7354 47.5773 11.7215 47.6072 11.6981 47.6313L9.99531 49.3876L8.14448 49.3809C8.11718 49.3808 8.09158 49.3735 8.06943 49.3609C8.0938 49.3157 8.119 49.2711 8.14497 49.2272C8.17585 49.1751 8.20781 49.124 8.24079 49.0739Z" fill="#87C12F"/>
<path d="M7.63888 51.4359C7.63444 51.3845 7.63109 51.3334 7.62879 51.2826C7.62641 51.2301 7.62516 51.1778 7.625 51.126L10.9612 50.3772L12.7278 47.8724C12.7739 47.8951 12.8198 47.9187 12.8654 47.9433C12.9102 47.9674 12.9548 47.9925 12.9992 48.0184C12.9966 48.023 12.9938 48.0276 12.9906 48.032L11.1434 50.6513L7.66233 51.4325C7.65449 51.4343 7.64666 51.4354 7.63888 51.4359Z" fill="#87C12F"/>
<path d="M8.22434 53.2174C8.19685 53.17 8.1704 53.1226 8.14497 53.0753C8.12048 53.0298 8.09694 52.9843 8.07434 52.9389C8.08791 52.9319 8.10277 52.9267 8.11864 52.924L12.4875 52.1583L13.4933 48.4253C13.4989 48.4047 13.5084 48.3862 13.5208 48.3704C13.5611 48.4013 13.6013 48.433 13.6412 48.4654C13.6847 48.5006 13.7279 48.5367 13.7709 48.5736L12.7325 52.4273L8.22434 53.2174Z" fill="#87C12F"/>
<path d="M9.48756 54.7509C9.43718 54.7046 9.38798 54.6583 9.33994 54.612C9.30278 54.5761 9.26632 54.5403 9.23053 54.5044C9.25461 54.4797 9.28706 54.463 9.32395 54.4591L14.0592 53.9593L14.715 49.7224C14.7212 49.6824 14.7423 49.6484 14.7717 49.6252C14.8034 49.665 14.835 49.7053 14.8664 49.7459C14.9097 49.802 14.9527 49.8587 14.9952 49.9163L14.326 54.2402L9.48756 54.7509Z" fill="#87C12F"/>
<path d="M11.418 56.1483C11.3371 56.1009 11.2576 56.0534 11.1796 56.0058C11.1357 55.9789 11.0922 55.952 11.0493 55.925C11.075 55.8834 11.12 55.8548 11.1725 55.8523L15.5334 55.6458L15.8586 51.5266C15.8628 51.4728 15.8942 51.4277 15.9382 51.4037C15.9627 51.4485 15.9871 51.4935 16.0113 51.5387C16.0565 51.623 16.1011 51.708 16.145 51.7937L15.8177 55.94L11.418 56.1483Z" fill="#87C12F"/>
<path d="M13.0218 56.9718C12.8813 56.9081 12.744 56.844 12.61 56.7796C12.5636 56.7573 12.5176 56.7349 12.472 56.7125C12.4991 56.6566 12.5586 56.6205 12.624 56.6265L16.731 57.0046V53.4261C16.731 53.3616 16.7706 53.3064 16.8268 53.2836C16.8461 53.331 16.8652 53.3785 16.8842 53.4261C16.9367 53.5576 16.9878 53.6897 17.0375 53.822V57.3414L13.0218 56.9718Z" fill="#87C12F"/>
</g>
<g style="mix-blend-mode:multiply">
<path d="M18.192 58.3559C18.192 58.3559 18.192 58.3558 18.192 58.3559L9.20911 48.0993C9.15074 48.1343 9.09216 48.171 9.0334 48.2093C8.98016 48.2508 8.92764 48.2943 8.87598 48.3399L8.87984 48.3444L18.0747 58.843L21.1403 62.4285C21.2137 62.5144 21.3428 62.5243 21.4285 62.4507C21.5141 62.377 21.5241 62.2477 21.4506 62.1618L18.3851 58.5763L18.192 58.3559Z" fill="#87C12F"/>
</g>
<path d="M21.123 79.9668C19.1164 78.8615 17.4754 77.783 16.1464 76.7438C15.837 76.5019 15.5446 76.2622 15.2684 76.0247C14.7438 75.5736 14.2776 75.1308 13.8653 74.6972C13.1509 73.9459 12.5982 73.2226 12.1831 72.5325C11.7306 71.7804 11.4415 71.0679 11.2845 70.4022C11.0929 69.5896 11.0982 68.8468 11.2434 68.1867C11.4407 67.29 11.8963 66.546 12.4675 65.9873C12.8707 65.5929 13.3316 65.2908 13.7998 65.0926C15.0122 64.6965 16.0535 64.7331 16.9413 65.0918C17.4329 65.2905 17.8775 65.5879 18.2779 65.9654C18.5397 66.2121 18.7826 66.493 19.0075 66.8029C19.3976 67.3402 19.7334 67.9646 20.0195 68.6487C20.3307 69.3927 20.583 70.2073 20.782 71.0575C20.9669 71.8475 21.1058 72.6681 21.2032 73.4912C21.2878 74.2061 21.3411 74.9228 21.366 75.6229C21.4233 77.234 21.3303 78.757 21.123 79.9668Z" fill="#87C12F"/>
<g style="mix-blend-mode:multiply">
<path d="M12.6249 65.8409L14.488 66.3474L16.7222 65.0109C16.7964 65.0357 16.8696 65.0627 16.9417 65.0919C16.9981 65.1147 17.0538 65.1387 17.1089 65.1641C17.0943 65.1982 17.0692 65.2281 17.035 65.2486L14.5414 66.7402L12.42 66.1635C12.3888 66.155 12.3616 66.1388 12.3401 66.1175C12.382 66.0731 12.4246 66.0297 12.4678 65.9873C12.5193 65.937 12.5717 65.8882 12.6249 65.8409Z" fill="#87C12F"/>
<path d="M11.2082 68.3658C11.2189 68.3055 11.2308 68.2458 11.2438 68.1867C11.2572 68.1258 11.2718 68.0655 11.2876 68.0059L15.3454 68.1725L18.1422 65.8417C18.1881 65.8819 18.2335 65.9232 18.2783 65.9654C18.3223 66.0069 18.3658 66.0493 18.4087 66.0927C18.4043 66.0972 18.3996 66.1016 18.3947 66.1057L15.4701 68.5429L11.2362 68.3691C11.2266 68.3687 11.2173 68.3676 11.2082 68.3658Z" fill="#87C12F"/>
<path d="M11.3323 70.5897C11.3153 70.5268 11.2995 70.4643 11.2849 70.4023C11.2708 70.3425 11.2578 70.2831 11.2458 70.2241C11.2635 70.2201 11.2821 70.2188 11.3012 70.2205L16.549 70.6851L18.8505 66.7115C18.8633 66.6895 18.8798 66.6712 18.8989 66.6569C18.9357 66.7048 18.972 66.7535 19.0079 66.8029C19.047 66.8567 19.0855 66.9114 19.1234 66.9669L16.7474 71.0691L11.3323 70.5897Z" fill="#87C12F"/>
<path d="M12.3101 72.7374C12.2666 72.6688 12.2243 72.6005 12.1835 72.5326C12.1519 72.4801 12.121 72.4277 12.091 72.3755C12.1262 72.3547 12.1686 72.3455 12.2121 72.3523L17.7985 73.2346L19.8535 68.5752C19.8728 68.5312 19.9074 68.4987 19.9483 68.4811C19.9725 68.5366 19.9964 68.5925 20.0199 68.6487C20.0524 68.7263 20.0842 68.8047 20.1153 68.8837L18.0182 73.6388L12.3101 72.7374Z" fill="#87C12F"/>
<path d="M14.0954 74.9341C14.017 74.8548 13.9405 74.7759 13.8657 74.6973C13.8235 74.6529 13.7819 74.6087 13.7409 74.5646C13.7832 74.5247 13.8437 74.5057 13.9046 74.519L18.9714 75.6227L20.6108 70.9967C20.6322 70.9363 20.6821 70.8942 20.7399 70.8801C20.7543 70.9391 20.7685 70.9982 20.7823 71.0575C20.8082 71.1682 20.8332 71.2794 20.8573 71.3912L19.2071 76.0477L14.0954 74.9341Z" fill="#87C12F"/>
<path d="M15.6823 76.3719C15.5406 76.2557 15.4028 76.1399 15.2688 76.0247C15.2225 75.9849 15.1766 75.9451 15.1312 75.9054C15.1794 75.8496 15.2588 75.8265 15.332 75.8535L19.9277 77.5498L21.0278 73.4442C21.0476 73.3702 21.11 73.319 21.1815 73.3101C21.1891 73.3705 21.1964 73.4309 21.2036 73.4913C21.2233 73.6584 21.2414 73.8255 21.2578 73.9926L20.1758 78.0305L15.6823 76.3719Z" fill="#87C12F"/>
</g>
<g style="mix-blend-mode:multiply">
<path d="M21.1886 79.5493C21.1886 79.5493 21.1886 79.5493 21.1886 79.5493L14.0355 65.0205C13.9578 65.0427 13.8793 65.0667 13.8001 65.0926C13.7263 65.1238 13.6526 65.1577 13.5794 65.1941L13.5824 65.2005L20.9043 80.0721L23.3191 85.1281C23.377 85.2493 23.5219 85.3003 23.6429 85.2422C23.7639 85.1841 23.815 85.0387 23.7571 84.9176L21.3423 79.8615L21.1886 79.5493Z" fill="#87C12F"/>
</g>
<path d="M25.4874 10.3863C26.7397 5.71272 31.9286 4.804 36.1864 5.94489C40.6224 7.1335 44.4836 10.4672 43.2313 15.1408C41.6454 21.0595 36.4651 24.2412 31.6249 27.3855C31.045 27.9236 29.6534 27.5498 29.4224 26.7938C26.8497 21.6813 23.9167 16.2482 25.4874 10.3863Z" fill="#87C12F"/>
<path d="M12.4665 26.2895C8.25751 23.6138 8.88873 18.5237 11.2538 14.9599C13.7179 11.2471 18.1138 8.76228 22.3228 11.438C27.6531 14.8265 29.2499 20.6472 30.9099 26.1415C31.2668 26.8521 30.4928 28.0166 29.6849 27.9844C23.925 28.7005 17.7456 29.6455 12.4665 26.2895Z" fill="#87C12F"/>
<path d="M24.1545 44.07C20.3009 47.09 15.5021 44.8528 12.706 41.5094C9.79292 38.0262 8.64851 33.1568 12.5021 30.1368C17.3823 26.3124 23.5495 26.728 29.4157 26.9794C30.2161 26.8805 31.1294 27.974 30.861 28.71C29.8739 34.2652 28.9878 40.2823 24.1545 44.07Z" fill="#87C12F"/>
<path d="M44.8598 38.628C46.6872 43.1701 43.0901 46.8776 38.9969 48.375C34.7325 49.9351 29.6293 49.4104 27.8019 44.8683C25.4878 39.1161 27.7025 33.5524 29.668 28.2134C29.8058 27.4416 31.1442 26.953 31.7863 27.4401C36.9362 30.1572 42.5679 32.9311 44.8598 38.628Z" fill="#87C12F"/>
<path d="M45.5635 17.6946C50.5464 17.4818 53.1222 22.0103 53.3885 26.2792C53.666 30.7266 51.6565 35.2718 46.6736 35.4845C40.3631 35.7539 35.5647 31.8997 30.9133 28.3487C30.198 27.9706 30.112 26.5751 30.7771 26.1401C34.947 22.2642 39.3137 17.9614 45.5635 17.6946Z" fill="#87C12F"/>
<g style="mix-blend-mode:multiply">
<path d="M30.9204 34.7038C31.9288 37.2105 34.6494 41.4099 36.1877 40.8472C37.7259 40.2845 36.803 35.4274 35.7946 32.9207C34.7861 30.4141 32.2481 26.6685 30.7099 27.2312C29.1716 27.794 29.912 32.1972 30.9204 34.7038Z" fill="#87C12F"/>
<path d="M23.3184 29.7001C21.1918 31.3667 17.9639 35.1116 19.0147 36.368C20.0655 37.6245 24.5214 35.348 26.648 33.6814C28.7747 32.0148 31.6174 28.5717 30.5666 27.3152C29.5159 26.0587 25.4451 28.0335 23.3184 29.7001Z" fill="#87C12F"/>
<path d="M25.9885 21.0504C23.6658 19.5737 18.9502 17.6888 18.0614 19.0281C17.1726 20.3673 20.8494 23.8175 23.1722 25.2941C25.4949 26.7707 29.7899 28.3883 30.6787 27.049C31.5675 25.7098 28.3113 22.527 25.9885 21.0504Z" fill="#87C12F"/>
<path d="M34.9388 21.0531C35.6299 18.4739 35.9434 13.564 34.3433 13.1353C32.7432 12.7065 30.5597 17.1154 29.8686 19.6946C29.1775 22.2737 28.9892 26.7166 30.5893 27.1454C32.1894 27.5741 34.2478 23.6323 34.9388 21.0531Z" fill="#87C12F"/>
<path d="M38.0237 29.2841C40.7736 29.1667 45.6829 28.0172 45.5828 26.413C45.4827 24.8087 40.4564 24.0834 37.7065 24.2008C34.9567 24.3182 30.5453 25.4464 30.6454 27.0507C30.7455 28.655 35.2738 29.4015 38.0237 29.2841Z" fill="#87C12F"/>
</g>
<g style="mix-blend-mode:multiply" clip-path="url(#clip0_295_2170)">
<ellipse cx="30.4323" cy="27.3939" rx="1.91353" ry="1.85062" transform="rotate(15 30.4323 27.3939)" fill="#87C12F"/>
</g>
<path d="M52.8236 61.464C52.9676 71.013 39.4524 69.9866 32.6767 68.2798C27.4053 56.0723 32.0688 48.7645 34.872 48.1494C37.1145 47.6573 38.7114 50.013 39.2296 51.2523C44.433 49.0507 45.8861 53.0948 45.9622 55.3919C50.9957 56.1782 52.6338 59.7676 52.8236 61.464Z" fill="#CDCDCD"/>
<path d="M47.3136 61.8358C45.8899 58.0022 41.6977 57.9209 39.7796 58.3595C40.5006 54.4114 38.827 53.2906 37.4431 53.2869C31.0193 53.785 32.9158 63.7938 35.2093 68.2222C40.6032 70.7268 49.0933 66.6277 47.3136 61.8358Z" fill="white"/>
<path fill-rule="evenodd" clip-rule="evenodd" d="M45.5114 62.475C45.4634 62.3918 45.3582 62.3627 45.2765 62.4099L44.0921 63.0937C44.0104 63.1409 43.983 63.2466 44.031 63.3297C44.079 63.4128 44.1841 63.4419 44.2659 63.3947L45.4503 62.7109C45.532 62.6637 45.5594 62.5581 45.5114 62.475ZM43.5193 61.4177C43.4713 61.3346 43.3661 61.3055 43.2844 61.3527L41.9519 62.122C41.8702 62.1692 41.8428 62.2748 41.8908 62.358C41.9388 62.4411 42.044 62.4702 42.1257 62.423L43.4581 61.6537C43.5399 61.6065 43.5673 61.5009 43.5193 61.4177ZM44.6831 64.8143C44.6595 64.7214 44.5658 64.6644 44.474 64.687L43.2639 64.9843C43.1721 65.0068 43.1169 65.1004 43.1406 65.1933C43.1643 65.2862 43.2579 65.3432 43.3497 65.3207L44.5598 65.0234C44.6516 65.0008 44.7068 64.9072 44.6831 64.8143ZM38.4748 55.8025C38.3925 55.7538 38.2876 55.7809 38.2405 55.8631L37.5517 57.0635C37.5045 57.1457 37.5329 57.2519 37.6152 57.3006C37.6974 57.3493 37.8023 57.3222 37.8495 57.24L38.5382 56.0397C38.5854 55.9574 38.557 55.8513 38.4748 55.8025ZM42.882 63.391C42.834 63.3079 42.7288 63.2788 42.6471 63.326L41.6108 63.9243C41.529 63.9715 41.5016 64.0772 41.5496 64.1603C41.5976 64.2434 41.7028 64.2725 41.7846 64.2253L42.8209 63.627C42.9026 63.5798 42.93 63.4741 42.882 63.391ZM40.4189 60.52C40.3426 60.4622 40.2351 60.4771 40.1789 60.5532L39.4032 61.603C39.347 61.6791 39.3633 61.7877 39.4396 61.8455C39.5159 61.9033 39.6234 61.8885 39.6796 61.8123L40.4552 60.7625C40.5115 60.6864 40.4952 60.5778 40.4189 60.52ZM38.6296 60.1529C38.5547 60.0932 38.4469 60.1054 38.3888 60.1801L37.8223 60.9085C37.7643 60.9832 37.7779 61.0921 37.8528 61.1518C37.9277 61.2114 38.0356 61.1992 38.0937 61.1245L38.6601 60.3961C38.7182 60.3214 38.7046 60.2125 38.6296 60.1529ZM37.1054 58.2083C37.0259 58.1551 36.9196 58.1763 36.8679 58.2557L36.0311 59.5415C35.9795 59.6209 36.002 59.7284 36.0815 59.7816C36.161 59.8348 36.2673 59.8136 36.319 59.7342L37.1558 58.4484C37.2075 58.369 37.1849 58.2615 37.1054 58.2083ZM41.1302 65.8293C41.0916 65.7414 40.9901 65.7008 40.9035 65.7386L39.4842 66.3573C39.3976 66.3951 39.3588 66.4969 39.3975 66.5847C39.4361 66.6725 39.5377 66.7131 39.6242 66.6754L41.0435 66.0566C41.1301 66.0189 41.1689 65.9171 41.1302 65.8293ZM40.3395 64.4576C40.2915 64.3745 40.1863 64.3454 40.1046 64.3926L38.6241 65.2473C38.5424 65.2945 38.515 65.4002 38.563 65.4833C38.611 65.5664 38.7161 65.5955 38.7979 65.5483L40.2784 64.6936C40.3601 64.6464 40.3875 64.5407 40.3395 64.4576ZM38.4954 63.3149C38.4474 63.2318 38.3423 63.2027 38.2605 63.2499L36.9281 64.0192C36.8463 64.0664 36.8189 64.172 36.8669 64.2551C36.9149 64.3383 37.0201 64.3674 37.1019 64.3202L38.4343 63.5509C38.516 63.5037 38.5434 63.398 38.4954 63.3149ZM35.1905 58.3105C35.111 58.2573 35.0047 58.2785 34.953 58.3579L34.5346 59.0008C34.483 59.0802 34.5055 59.1877 34.585 59.2409C34.6645 59.2942 34.7708 59.273 34.8225 59.1936L35.2409 58.5507C35.2925 58.4713 35.27 58.3638 35.1905 58.3105ZM35.7093 60.5981C35.6241 60.5551 35.5214 60.5895 35.4799 60.6749L34.9392 61.7897C34.8978 61.8751 34.9334 61.9792 35.0187 62.0222C35.104 62.0651 35.2067 62.0307 35.2481 61.9454L35.7888 60.8305C35.8302 60.7451 35.7946 60.6411 35.7093 60.5981ZM34.575 60.0281C34.4851 59.9967 34.3879 60.0443 34.3579 60.1346L33.7818 61.8719C33.7519 61.9622 33.8006 62.0609 33.8905 62.0923C33.9805 62.1238 34.0777 62.0761 34.1076 61.9859L34.6837 60.2486C34.7136 60.1583 34.665 60.0596 34.575 60.0281Z" fill="#CDCDCD"/>
<path d="M35.3263 65.4672C38.1867 66.8659 40.3104 68.7436 40.9712 69.4323L36.4977 69.2057L32.3557 68.1857L31.1232 64.6832L30.4474 61.4613C32.1183 61.6204 34.3962 64.1982 35.3263 65.4672Z" fill="#9B9B9B"/>
<g style="mix-blend-mode:multiply">
<path d="M52.8236 61.464C52.9676 71.013 39.4524 69.9866 32.6767 68.2798C27.4053 56.0723 32.0688 48.7645 34.872 48.1494C37.1145 47.6573 38.7114 50.013 39.2296 51.2523C44.433 49.0507 45.8861 53.0948 45.9622 55.3919C50.9957 56.1782 52.6338 59.7676 52.8236 61.464Z" fill="#FD5936"/>
<path d="M47.3136 61.8358C45.8899 58.0022 41.6977 57.9209 39.7796 58.3595C40.5006 54.4114 38.827 53.2906 37.4431 53.2869C31.0193 53.785 32.9158 63.7938 35.2093 68.2222C40.6032 70.7268 49.0933 66.6277 47.3136 61.8358Z" fill="#FD5936"/>
<path fill-rule="evenodd" clip-rule="evenodd" d="M45.5114 62.475C45.4634 62.3918 45.3582 62.3627 45.2765 62.4099L44.0921 63.0937C44.0104 63.1409 43.983 63.2466 44.031 63.3297C44.079 63.4128 44.1841 63.4419 44.2659 63.3947L45.4503 62.7109C45.532 62.6637 45.5594 62.5581 45.5114 62.475ZM43.5193 61.4177C43.4713 61.3346 43.3661 61.3055 43.2844 61.3527L41.9519 62.122C41.8702 62.1692 41.8428 62.2748 41.8908 62.358C41.9388 62.4411 42.044 62.4702 42.1257 62.423L43.4581 61.6537C43.5399 61.6065 43.5673 61.5009 43.5193 61.4177ZM44.6831 64.8143C44.6595 64.7214 44.5658 64.6644 44.474 64.687L43.2639 64.9843C43.1721 65.0068 43.1169 65.1004 43.1406 65.1933C43.1643 65.2862 43.2579 65.3432 43.3497 65.3207L44.5598 65.0234C44.6516 65.0008 44.7068 64.9072 44.6831 64.8143ZM38.4748 55.8025C38.3925 55.7538 38.2876 55.7809 38.2405 55.8631L37.5517 57.0635C37.5045 57.1457 37.5329 57.2519 37.6152 57.3006C37.6974 57.3493 37.8023 57.3222 37.8495 57.24L38.5382 56.0397C38.5854 55.9574 38.557 55.8513 38.4748 55.8025ZM42.882 63.391C42.834 63.3079 42.7288 63.2788 42.6471 63.326L41.6108 63.9243C41.529 63.9715 41.5016 64.0772 41.5496 64.1603C41.5976 64.2434 41.7028 64.2725 41.7846 64.2253L42.8209 63.627C42.9026 63.5798 42.93 63.4741 42.882 63.391ZM40.4189 60.52C40.3426 60.4622 40.2351 60.4771 40.1789 60.5532L39.4032 61.603C39.347 61.6791 39.3633 61.7877 39.4396 61.8455C39.5159 61.9033 39.6234 61.8885 39.6796 61.8123L40.4552 60.7625C40.5115 60.6864 40.4952 60.5778 40.4189 60.52ZM38.6296 60.1529C38.5547 60.0932 38.4469 60.1054 38.3888 60.1801L37.8223 60.9085C37.7643 60.9832 37.7779 61.0921 37.8528 61.1518C37.9277 61.2114 38.0356 61.1992 38.0937 61.1245L38.6601 60.3961C38.7182 60.3214 38.7046 60.2125 38.6296 60.1529ZM37.1054 58.2083C37.0259 58.1551 36.9196 58.1763 36.8679 58.2557L36.0311 59.5415C35.9795 59.6209 36.002 59.7284 36.0815 59.7816C36.161 59.8348 36.2673 59.8136 36.319 59.7342L37.1558 58.4484C37.2075 58.369 37.1849 58.2615 37.1054 58.2083ZM41.1302 65.8293C41.0916 65.7414 40.9901 65.7008 40.9035 65.7386L39.4842 66.3573C39.3976 66.3951 39.3588 66.4969 39.3975 66.5847C39.4361 66.6725 39.5377 66.7131 39.6242 66.6754L41.0435 66.0566C41.1301 66.0189 41.1689 65.9171 41.1302 65.8293ZM40.3395 64.4576C40.2915 64.3745 40.1863 64.3454 40.1046 64.3926L38.6241 65.2473C38.5424 65.2945 38.515 65.4002 38.563 65.4833C38.611 65.5664 38.7161 65.5955 38.7979 65.5483L40.2784 64.6936C40.3601 64.6464 40.3875 64.5407 40.3395 64.4576ZM38.4954 63.3149C38.4474 63.2318 38.3423 63.2027 38.2605 63.2499L36.9281 64.0192C36.8463 64.0664 36.8189 64.172 36.8669 64.2551C36.9149 64.3383 37.0201 64.3674 37.1019 64.3202L38.4343 63.5509C38.516 63.5037 38.5434 63.398 38.4954 63.3149ZM35.1905 58.3105C35.111 58.2573 35.0047 58.2785 34.953 58.3579L34.5346 59.0008C34.483 59.0802 34.5055 59.1877 34.585 59.2409C34.6645 59.2942 34.7708 59.273 34.8225 59.1936L35.2409 58.5507C35.2925 58.4713 35.27 58.3638 35.1905 58.3105ZM35.7093 60.5981C35.6241 60.5551 35.5214 60.5895 35.4799 60.6749L34.9392 61.7897C34.8978 61.8751 34.9334 61.9792 35.0187 62.0222C35.104 62.0651 35.2067 62.0307 35.2481 61.9454L35.7888 60.8305C35.8302 60.7451 35.7946 60.6411 35.7093 60.5981ZM34.575 60.0281C34.4851 59.9967 34.3879 60.0443 34.3579 60.1346L33.7818 61.8719C33.7519 61.9622 33.8006 62.0609 33.8905 62.0923C33.9805 62.1238 34.0777 62.0761 34.1076 61.9859L34.6837 60.2486C34.7136 60.1583 34.665 60.0596 34.575 60.0281Z" fill="#FD5936"/>
<path d="M35.3263 65.4672C38.1867 66.8659 40.3104 68.7436 40.9712 69.4323L36.4977 69.2057L32.3557 68.1857L31.1232 64.6832L30.4474 61.4613C32.1183 61.6204 34.3962 64.1982 35.3263 65.4672Z" fill="#FD5936"/>
</g>
<g style="mix-blend-mode:soft-light">
<path d="M52.8236 61.464C52.9676 71.013 39.4524 69.9866 32.6767 68.2798C27.4053 56.0723 32.0688 48.7645 34.872 48.1494C37.1145 47.6573 38.7114 50.013 39.2296 51.2523C44.433 49.0507 45.8861 53.0948 45.9622 55.3919C50.9957 56.1782 52.6338 59.7676 52.8236 61.464Z" fill="#FD5936"/>
<path d="M47.3136 61.8358C45.8899 58.0022 41.6977 57.9209 39.7796 58.3595C40.5006 54.4114 38.827 53.2906 37.4431 53.2869C31.0193 53.785 32.9158 63.7938 35.2093 68.2222C40.6032 70.7268 49.0933 66.6277 47.3136 61.8358Z" fill="#FD5936"/>
<path fill-rule="evenodd" clip-rule="evenodd" d="M45.5114 62.475C45.4634 62.3918 45.3582 62.3627 45.2765 62.4099L44.0921 63.0937C44.0104 63.1409 43.983 63.2466 44.031 63.3297C44.079 63.4128 44.1841 63.4419 44.2659 63.3947L45.4503 62.7109C45.532 62.6637 45.5594 62.5581 45.5114 62.475ZM43.5193 61.4177C43.4713 61.3346 43.3661 61.3055 43.2844 61.3527L41.9519 62.122C41.8702 62.1692 41.8428 62.2748 41.8908 62.358C41.9388 62.4411 42.044 62.4702 42.1257 62.423L43.4581 61.6537C43.5399 61.6065 43.5673 61.5009 43.5193 61.4177ZM44.6831 64.8143C44.6595 64.7214 44.5658 64.6644 44.474 64.687L43.2639 64.9843C43.1721 65.0068 43.1169 65.1004 43.1406 65.1933C43.1643 65.2862 43.2579 65.3432 43.3497 65.3207L44.5598 65.0234C44.6516 65.0008 44.7068 64.9072 44.6831 64.8143ZM38.4748 55.8025C38.3925 55.7538 38.2876 55.7809 38.2405 55.8631L37.5517 57.0635C37.5045 57.1457 37.5329 57.2519 37.6152 57.3006C37.6974 57.3493 37.8023 57.3222 37.8495 57.24L38.5382 56.0397C38.5854 55.9574 38.557 55.8513 38.4748 55.8025ZM42.882 63.391C42.834 63.3079 42.7288 63.2788 42.6471 63.326L41.6108 63.9243C41.529 63.9715 41.5016 64.0772 41.5496 64.1603C41.5976 64.2434 41.7028 64.2725 41.7846 64.2253L42.8209 63.627C42.9026 63.5798 42.93 63.4741 42.882 63.391ZM40.4189 60.52C40.3426 60.4622 40.2351 60.4771 40.1789 60.5532L39.4032 61.603C39.347 61.6791 39.3633 61.7877 39.4396 61.8455C39.5159 61.9033 39.6234 61.8885 39.6796 61.8123L40.4552 60.7625C40.5115 60.6864 40.4952 60.5778 40.4189 60.52ZM38.6296 60.1529C38.5547 60.0932 38.4469 60.1054 38.3888 60.1801L37.8223 60.9085C37.7643 60.9832 37.7779 61.0921 37.8528 61.1518C37.9277 61.2114 38.0356 61.1992 38.0937 61.1245L38.6601 60.3961C38.7182 60.3214 38.7046 60.2125 38.6296 60.1529ZM37.1054 58.2083C37.0259 58.1551 36.9196 58.1763 36.8679 58.2557L36.0311 59.5415C35.9795 59.6209 36.002 59.7284 36.0815 59.7816C36.161 59.8348 36.2673 59.8136 36.319 59.7342L37.1558 58.4484C37.2075 58.369 37.1849 58.2615 37.1054 58.2083ZM41.1302 65.8293C41.0916 65.7414 40.9901 65.7008 40.9035 65.7386L39.4842 66.3573C39.3976 66.3951 39.3588 66.4969 39.3975 66.5847C39.4361 66.6725 39.5377 66.7131 39.6242 66.6754L41.0435 66.0566C41.1301 66.0189 41.1689 65.9171 41.1302 65.8293ZM40.3395 64.4576C40.2915 64.3745 40.1863 64.3454 40.1046 64.3926L38.6241 65.2473C38.5424 65.2945 38.515 65.4002 38.563 65.4833C38.611 65.5664 38.7161 65.5955 38.7979 65.5483L40.2784 64.6936C40.3601 64.6464 40.3875 64.5407 40.3395 64.4576ZM38.4954 63.3149C38.4474 63.2318 38.3423 63.2027 38.2605 63.2499L36.9281 64.0192C36.8463 64.0664 36.8189 64.172 36.8669 64.2551C36.9149 64.3383 37.0201 64.3674 37.1019 64.3202L38.4343 63.5509C38.516 63.5037 38.5434 63.398 38.4954 63.3149ZM35.1905 58.3105C35.111 58.2573 35.0047 58.2785 34.953 58.3579L34.5346 59.0008C34.483 59.0802 34.5055 59.1877 34.585 59.2409C34.6645 59.2942 34.7708 59.273 34.8225 59.1936L35.2409 58.5507C35.2925 58.4713 35.27 58.3638 35.1905 58.3105ZM35.7093 60.5981C35.6241 60.5551 35.5214 60.5895 35.4799 60.6749L34.9392 61.7897C34.8978 61.8751 34.9334 61.9792 35.0187 62.0222C35.104 62.0651 35.2067 62.0307 35.2481 61.9454L35.7888 60.8305C35.8302 60.7451 35.7946 60.6411 35.7093 60.5981ZM34.575 60.0281C34.4851 59.9967 34.3879 60.0443 34.3579 60.1346L33.7818 61.8719C33.7519 61.9622 33.8006 62.0609 33.8905 62.0923C33.9805 62.1238 34.0777 62.0761 34.1076 61.9859L34.6837 60.2486C34.7136 60.1583 34.665 60.0596 34.575 60.0281Z" fill="#FD5936"/>
<path d="M35.3263 65.4672C38.1867 66.8659 40.3104 68.7436 40.9712 69.4323L36.4977 69.2057L32.3557 68.1857L31.1232 64.6832L30.4474 61.4613C32.1183 61.6204 34.3962 64.1982 35.3263 65.4672Z" fill="#FD5936"/>
</g>
<defs>
<clipPath id="clip0_295_2170">
<rect width="3.82706" height="3.70125" fill="white" transform="translate(29.063 25.1111) rotate(15)"/>
</clipPath>
</defs>
</svg>
