<svg width="60" height="130" viewBox="0 0 60 130" fill="none" xmlns="http://www.w3.org/2000/svg">
<rect y="70" width="60" height="60" fill="#5D7D5F"/>
<path d="M31.0732 27.5C32.1499 34.8232 33.6572 51.9413 31.0732 61.8277C27.8432 74.1856 24.8616 92.036 29.0855 100" stroke="#0A3019" stroke-linecap="round"/>
<path fill-rule="evenodd" clip-rule="evenodd" d="M7.29672 63.5276C7.24288 63.565 7.22961 63.639 7.26707 63.6929C9.48276 66.8772 12.1456 68.7054 14.4267 69.6898C16.1081 70.4155 17.585 70.684 18.5254 70.6976C18.7718 71.1107 19.0309 71.5311 19.3031 71.9581C21.3203 75.1222 24.0593 78.6453 27.704 82.2211C27.7508 82.267 27.826 82.2663 27.8719 82.2195C27.9178 82.1727 27.9171 82.0975 27.8703 82.0516C24.2609 78.5104 21.5443 75.0224 19.54 71.8878C19.9067 71.169 20.3291 70.1895 20.7246 69.0351C21.1402 67.8222 21.5265 66.4148 21.7872 64.9121C21.8744 64.4097 21.9475 63.8965 22.003 63.3764C22.2526 61.0368 22.1455 58.5515 21.3479 56.263C21.3263 56.2011 21.2586 56.1684 21.1966 56.19C21.1347 56.2115 21.102 56.2792 21.1236 56.3412C21.9062 58.5865 22.014 61.0343 21.7669 63.3512C21.712 63.8658 21.6396 64.3738 21.5532 64.8715C21.2949 66.3602 20.912 67.7555 20.5 68.9582C20.1304 70.037 19.7378 70.9595 19.3916 71.6544C19.1489 71.2702 18.9169 70.8914 18.6953 70.5187C16.1049 66.1611 13.7082 59.6347 13.4244 57.8355C13.4142 57.7707 13.3534 57.7265 13.2886 57.7367C13.2239 57.7469 13.1796 57.8077 13.1899 57.8725C13.4756 59.6841 15.8574 66.1655 18.3823 70.456C17.4725 70.4186 16.0916 70.1497 14.5208 69.4718C12.2765 68.5032 9.65014 66.702 7.46201 63.5572C7.42455 63.5034 7.35055 63.4901 7.29672 63.5276Z" fill="#0A3019"/>
<path fill-rule="evenodd" clip-rule="evenodd" d="M8.26239 60.6882C8.23506 60.733 8.24921 60.7914 8.294 60.8188C8.76813 61.3064 8.76539 61.3461 9.66062 62.48C10.4211 63.4431 11.2107 64.5659 11.9458 65.6757C11.0928 64.9387 9.97492 64.0022 8.92108 63.1789C8.27855 62.6769 8.6981 62.9959 8.17597 62.6479C7.91496 62.474 7.67717 62.3274 7.47242 62.2178C7.26958 62.1092 7.09225 62.0331 6.95402 62.0058C6.90256 61.9956 6.85258 62.0291 6.8424 62.0805C6.83223 62.132 6.8657 62.182 6.91717 62.1922C7.0266 62.2138 7.18348 62.2787 7.38276 62.3853C7.58012 62.491 7.81235 62.6339 8.07061 62.806C8.58703 63.1502 8.16322 62.8279 8.80412 63.3286C10.0809 64.3261 11.4531 65.4911 12.3307 66.2631C13.154 67.5328 13.8839 68.7432 14.3913 69.6281C14.4174 69.6736 14.4755 69.6893 14.521 69.6632C14.5665 69.6371 14.5822 69.5791 14.5561 69.5336C14.0456 68.6432 13.3111 67.4254 12.483 66.1488C11.6437 64.8548 10.7074 63.4991 9.80973 62.3622C8.91475 61.2287 8.9738 61.1877 8.39296 60.6566C8.34817 60.6293 8.28971 60.6434 8.26239 60.6882ZM22.7778 55.3165C22.7254 55.3167 22.683 55.3595 22.6833 55.4119C22.6867 56.1783 22.938 59.6306 23.0648 61.2821C22.6444 62.1652 22.1642 62.878 21.8118 63.3032C21.7783 63.3435 21.7839 63.4034 21.8243 63.4369C21.8647 63.4704 21.9246 63.4648 21.9581 63.4244C22.3241 62.9828 22.8179 62.2479 23.2473 61.3406C23.8756 60.013 24.3712 58.3048 24.1147 56.5996C24.1069 56.5477 24.0586 56.512 24.0067 56.5198C23.9548 56.5276 23.9191 56.576 23.9269 56.6278C24.1547 58.1428 23.7707 59.6703 23.228 60.9231C23.0956 59.175 22.8764 56.1194 22.8732 55.4111C22.873 55.3586 22.8303 55.3163 22.7778 55.3165ZM20.0149 58.5714C19.9637 58.5601 19.9129 58.5924 19.9016 58.6436C19.814 59.0384 19.8353 59.5398 19.9229 60.0857C20.0107 60.6334 20.1666 61.2338 20.3542 61.8301C20.7294 63.0226 21.234 64.2064 21.5846 64.9331C21.6075 64.9803 21.6642 65.0001 21.7115 64.9773C21.7587 64.9545 21.7786 64.8978 21.7558 64.8505C21.4082 64.1303 20.9073 62.9552 20.5354 61.7731C20.3495 61.182 20.1963 60.5911 20.1104 60.0557C20.0243 59.5185 20.0071 59.0449 20.087 58.6848C20.0984 58.6335 20.0661 58.5828 20.0149 58.5714ZM18.0335 61.195C17.9867 61.2187 17.968 61.2759 17.9918 61.3227C18.7787 62.8734 19.0299 64.7334 19.0215 66.4341C19.013 68.1341 18.7452 69.666 18.5016 70.5542C18.4877 70.6048 18.5175 70.6571 18.5681 70.671C18.6187 70.6848 18.671 70.6551 18.6848 70.6045C18.9327 69.7007 19.2029 68.1522 19.2115 66.4351C19.22 64.7187 18.9672 62.8249 18.1612 61.2367C18.1375 61.1899 18.0803 61.1712 18.0335 61.195ZM10.666 68.784C10.6602 68.8362 10.6979 68.8831 10.75 68.8888C11.6051 68.9825 12.5955 69.4767 13.4932 70.0665C14.2566 70.568 14.9441 71.1328 15.4111 71.5616C14.1968 71.3654 12.8299 71.0419 11.4346 70.5287C11.3854 70.5106 11.3308 70.5358 11.3127 70.5851C11.2946 70.6343 11.3198 70.6889 11.369 70.707C12.8952 71.2684 14.3867 71.6045 15.6846 71.7962C17.3608 72.0436 18.7172 72.0506 19.4116 71.9889C19.4638 71.9842 19.5024 71.9381 19.4978 71.8858C19.4932 71.8336 19.447 71.795 19.3948 71.7996C18.7218 71.8594 17.3927 71.854 15.7426 71.6126C15.2785 71.1643 14.4895 70.4937 13.5975 69.9077C12.6938 69.3139 11.6722 68.7987 10.7707 68.7C10.7186 68.6942 10.6717 68.7319 10.666 68.784ZM24.3842 62.5308C24.3422 62.4994 24.2827 62.508 24.2513 62.55C24.1336 62.7072 23.9985 63.0102 23.858 63.3849C23.716 63.7635 23.5644 64.227 23.4159 64.7144C23.1231 65.6759 22.8413 66.7348 22.6683 67.4282C21.8493 68.14 21.0544 68.6546 20.5678 68.9127C20.5214 68.9373 20.5038 68.9948 20.5284 69.0412C20.5529 69.0875 20.6104 69.1051 20.6568 69.0806C21.1613 68.8129 21.9783 68.2829 22.8157 67.5517C23.6851 66.7928 24.5812 65.813 25.1718 64.6799C25.196 64.6334 25.178 64.5761 25.1314 64.5518C25.0849 64.5276 25.0275 64.5456 25.0033 64.5921C24.4789 65.5983 23.7041 66.4858 22.9213 67.2026C23.0946 66.524 23.3421 65.6092 23.5977 64.7698C23.7456 64.2842 23.8959 63.8249 24.0359 63.4516C24.1774 63.0743 24.3043 62.7962 24.4034 62.6638C24.4348 62.6218 24.4262 62.5622 24.3842 62.5308Z" fill="#0A3019"/>
<circle cx="0.593723" cy="0.593723" r="0.593723" transform="matrix(-0.866025 0.5 0.5 0.866025 22.9751 54.6123)" fill="#FB5D66"/>
<ellipse cx="0.593723" cy="0.593723" rx="0.593723" ry="0.593723" transform="matrix(-0.866025 0.5 0.5 0.866025 20.2778 57.5406)" fill="#FB5D66"/>
<circle cx="0.593723" cy="0.593723" r="0.593723" transform="matrix(-0.866025 0.5 0.5 0.866025 18.3169 60.3183)" fill="#FB5D66"/>
<ellipse cx="0.593722" cy="0.593723" rx="0.593722" ry="0.593723" transform="matrix(-0.866025 0.5 0.5 0.866025 10.8979 67.8924)" fill="#FB5D66"/>
<ellipse cx="0.593723" cy="0.593723" rx="0.593723" ry="0.593723" transform="matrix(-0.866025 0.5 0.5 0.866025 11.4365 69.7752)" fill="#FB5D66"/>
<circle cx="0.593723" cy="0.593723" r="0.593723" transform="matrix(-0.866025 0.5 0.5 0.866025 24.3618 61.7643)" fill="#FB5D66"/>
<circle cx="0.593723" cy="0.593723" r="0.593723" transform="matrix(-0.866025 0.5 0.5 0.866025 25.2251 63.734)" fill="#FB5D66"/>
<ellipse cx="0.712467" cy="0.712468" rx="0.712467" ry="0.712468" transform="matrix(-0.866025 0.5 0.5 0.866025 24.3047 55.4901)" fill="#FB5D66"/>
<ellipse cx="0.593722" cy="0.593723" rx="0.593722" ry="0.593723" transform="matrix(-0.866025 0.5 0.5 0.866025 8.94922 60.2422)" fill="#FB5D66"/>
<ellipse cx="0.593722" cy="0.593723" rx="0.593722" ry="0.593723" transform="matrix(-0.866025 0.5 0.5 0.866025 7.2168 61.5166)" fill="#FB5D66"/>
<path d="M10.9219 30.9551C9.74635 49.4465 25.1259 48.4957 32.9627 45.7089C40.7993 49.6432 46.1907 47.1729 48.826 44.2335C54.0238 38.4358 51.9041 33.2833 50.5953 28.4961C55.0034 22.5945 53.9563 16.6573 53.0442 13.2505C51.2238 6.45078 43.8436 5.60085 38.8402 6.36534C34.7059 3.18276 34.432 1.74629 28.5544 1.74629C22.1871 1.74628 20.6908 5.07755 19.7382 7.84072C11.8975 9.03875 8.65086 11.2833 7.20976 16.2012C4.61579 25.0535 8.33904 27.2502 10.9219 30.9551Z" fill="#CDCDCD"/>
<path d="M16.2782 29.9447C15.2362 46.5511 28.8687 45.6973 35.8152 43.1945C42.7616 46.7278 47.5406 44.5093 49.8765 41.8695C54.4839 36.6628 52.605 32.0356 51.4449 27.7364C55.3522 22.4364 54.424 17.1044 53.6156 14.0449C52.0019 7.93839 44.5619 4.9941 40.1269 5.68066C36.6984 3.71355 32.7802 3.71349 31.9078 3.71348H31.9077C26.2637 3.71347 24.9374 6.70514 24.093 9.18664C17.143 10.2625 14.2652 12.2783 12.9878 16.6949C10.6885 24.6448 13.9888 26.6175 16.2782 29.9447Z" fill="white"/>
<path fill-rule="evenodd" clip-rule="evenodd" d="M15.7394 40.2423L47.1586 7.80965L47.8608 8.49547L16.4416 40.9281L15.7394 40.2423Z" fill="#9B9B9B"/>
<path fill-rule="evenodd" clip-rule="evenodd" d="M12.1951 35.5277L50.9038 12.3652L51.4053 13.2102L12.6966 36.3726L12.1951 35.5277Z" fill="#9B9B9B"/>
<path fill-rule="evenodd" clip-rule="evenodd" d="M9.98651 30.0525L53.3468 17.7387L53.6134 18.6852L10.2531 30.999L9.98651 30.0525Z" fill="#9B9B9B"/>
<path fill-rule="evenodd" clip-rule="evenodd" d="M9.26482 24.1901L53.0485 23.5818L53.0621 24.5653L9.27837 25.1736L9.26482 24.1901Z" fill="#9B9B9B"/>
<path fill-rule="evenodd" clip-rule="evenodd" d="M10.0788 18.3398L50.9797 28.7371L50.7393 29.6906L9.83838 19.2933L10.0788 18.3398Z" fill="#9B9B9B"/>
<path fill-rule="evenodd" clip-rule="evenodd" d="M12.373 12.9004L51.7051 34.9787L51.2271 35.8372L11.895 13.7589L12.373 12.9004Z" fill="#9B9B9B"/>
<path fill-rule="evenodd" clip-rule="evenodd" d="M15.991 8.24247L48.2919 39.7899L47.6089 40.495L15.308 8.94753L15.991 8.24247Z" fill="#9B9B9B"/>
<path fill-rule="evenodd" clip-rule="evenodd" d="M20.6864 4.68355L43.7547 43.5502L42.9133 44.0538L19.8449 5.18708L20.6864 4.68355Z" fill="#9B9B9B"/>
<path fill-rule="evenodd" clip-rule="evenodd" d="M26.1394 2.46624L38.4032 46.0035L37.4606 46.2711L25.1968 2.73393L26.1394 2.46624Z" fill="#9B9B9B"/>
<path fill-rule="evenodd" clip-rule="evenodd" d="M31.9784 1.74161L32.5835 45.6494L31.604 45.663L30.9989 1.75522L31.9784 1.74161Z" fill="#9B9B9B"/>
<path fill-rule="evenodd" clip-rule="evenodd" d="M37.805 2.55898L26.7456 46.4202L25.796 46.1788L36.8554 2.31758L37.805 2.55898Z" fill="#9B9B9B"/>
<path fill-rule="evenodd" clip-rule="evenodd" d="M43.2225 4.86266L21.234 44.3553L20.3789 43.8753L42.3675 4.3827L43.2225 4.86266Z" fill="#9B9B9B"/>
<path fill-rule="evenodd" clip-rule="evenodd" d="M47.8608 8.49547L16.4416 40.9281L15.7394 40.2423L47.1586 7.80965L47.8608 8.49547Z" fill="#9B9B9B"/>
<path fill-rule="evenodd" clip-rule="evenodd" d="M51.4053 13.2102L12.6966 36.3726L12.1951 35.5277L50.9038 12.3652L51.4053 13.2102Z" fill="#9B9B9B"/>
<path fill-rule="evenodd" clip-rule="evenodd" d="M53.6134 18.6852L10.2531 30.999L9.98651 30.0525L53.3468 17.7387L53.6134 18.6852Z" fill="#9B9B9B"/>
<path fill-rule="evenodd" clip-rule="evenodd" d="M51.8435 24.5823L9.27889 25.1736L9.26534 24.1901L51.8299 23.5988L51.8435 24.5823Z" fill="#9B9B9B"/>
<path fill-rule="evenodd" clip-rule="evenodd" d="M49.9546 29.5329L6.22754 18.4171L6.48778 17.385L50.2148 28.5008L49.9546 29.5329Z" fill="#9B9B9B"/>
<path fill-rule="evenodd" clip-rule="evenodd" d="M51.2276 35.8373L11.8954 13.759L12.3735 12.9005L51.7056 34.9788L51.2276 35.8373Z" fill="#9B9B9B"/>
<path fill-rule="evenodd" clip-rule="evenodd" d="M47.6089 40.495L15.308 8.94753L15.991 8.24247L48.2919 39.7899L47.6089 40.495Z" fill="#9B9B9B"/>
<path fill-rule="evenodd" clip-rule="evenodd" d="M42.9137 44.054L19.8453 5.18731L20.6868 4.68378L43.7552 43.5505L42.9137 44.054Z" fill="#9B9B9B"/>
<path fill-rule="evenodd" clip-rule="evenodd" d="M37.4606 46.2711L25.1968 2.73393L26.1394 2.46624L38.4032 46.0035L37.4606 46.2711Z" fill="#9B9B9B"/>
<path fill-rule="evenodd" clip-rule="evenodd" d="M31.5945 45.029L30.9983 1.75519L31.9777 1.74158L32.574 45.0154L31.5945 45.029Z" fill="#9B9B9B"/>
<path fill-rule="evenodd" clip-rule="evenodd" d="M25.7955 46.1788L36.855 2.31754L37.8046 2.55894L26.7451 46.4202L25.7955 46.1788Z" fill="#9B9B9B"/>
<path fill-rule="evenodd" clip-rule="evenodd" d="M20.3785 43.8752L42.3671 4.38259L43.2221 4.86255L21.2335 44.3552L20.3785 43.8752Z" fill="#9B9B9B"/>
<path d="M42.0858 24.8606C42.0858 31.1077 37.0422 36.1719 30.8205 36.1719C24.5989 36.1719 19.0654 31.1077 19.0654 24.8606C19.0654 18.6136 24.5989 13.5494 30.8205 13.5494C37.0422 13.5494 42.0858 18.6136 42.0858 24.8606Z" fill="#9B9B9B"/>
<g style="mix-blend-mode:multiply">
<path d="M10.9219 30.9551C9.74635 49.4465 25.1259 48.4957 32.9627 45.7089C40.7993 49.6432 46.1907 47.1729 48.826 44.2335C54.0238 38.4358 51.9041 33.2833 50.5953 28.4961C55.0034 22.5945 53.9563 16.6573 53.0442 13.2505C51.2238 6.45078 43.8436 5.60085 38.8402 6.36534C34.7059 3.18276 34.432 1.74629 28.5544 1.74629C22.1871 1.74628 20.6908 5.07755 19.7382 7.84072C11.8975 9.03875 8.65086 11.2833 7.20976 16.2012C4.61579 25.0535 8.33904 27.2502 10.9219 30.9551Z" fill="#FB5D66"/>
<path d="M16.2782 29.9447C15.2362 46.5511 28.8687 45.6973 35.8152 43.1945C42.7616 46.7278 47.5406 44.5093 49.8765 41.8695C54.4839 36.6628 52.605 32.0356 51.4449 27.7364C55.3522 22.4364 54.424 17.1044 53.6156 14.0449C52.0019 7.93839 44.5619 4.9941 40.1269 5.68066C36.6984 3.71355 32.7802 3.71349 31.9078 3.71348H31.9077C26.2637 3.71347 24.9374 6.70514 24.093 9.18664C17.143 10.2625 14.2652 12.2783 12.9878 16.6949C10.6885 24.6448 13.9888 26.6175 16.2782 29.9447Z" fill="#FB5D66"/>
<path fill-rule="evenodd" clip-rule="evenodd" d="M15.7394 40.2423L47.1586 7.80965L47.8608 8.49547L16.4416 40.9281L15.7394 40.2423Z" fill="#FB5D66"/>
<path fill-rule="evenodd" clip-rule="evenodd" d="M12.1951 35.5277L50.9038 12.3652L51.4053 13.2102L12.6966 36.3726L12.1951 35.5277Z" fill="#FB5D66"/>
<path fill-rule="evenodd" clip-rule="evenodd" d="M9.98651 30.0525L53.3468 17.7387L53.6134 18.6852L10.2531 30.999L9.98651 30.0525Z" fill="#FB5D66"/>
<path fill-rule="evenodd" clip-rule="evenodd" d="M9.26482 24.1901L53.0485 23.5818L53.0621 24.5653L9.27837 25.1736L9.26482 24.1901Z" fill="#FB5D66"/>
<path fill-rule="evenodd" clip-rule="evenodd" d="M10.0788 18.3398L50.9797 28.7371L50.7393 29.6906L9.83838 19.2933L10.0788 18.3398Z" fill="#FB5D66"/>
<path fill-rule="evenodd" clip-rule="evenodd" d="M12.373 12.9004L51.7051 34.9787L51.2271 35.8372L11.895 13.7589L12.373 12.9004Z" fill="#FB5D66"/>
<path fill-rule="evenodd" clip-rule="evenodd" d="M15.991 8.24247L48.2919 39.7899L47.6089 40.495L15.308 8.94753L15.991 8.24247Z" fill="#FB5D66"/>
<path fill-rule="evenodd" clip-rule="evenodd" d="M20.6864 4.68355L43.7547 43.5502L42.9133 44.0538L19.8449 5.18708L20.6864 4.68355Z" fill="#FB5D66"/>
<path fill-rule="evenodd" clip-rule="evenodd" d="M26.1394 2.46624L38.4032 46.0035L37.4606 46.2711L25.1968 2.73393L26.1394 2.46624Z" fill="#FB5D66"/>
<path fill-rule="evenodd" clip-rule="evenodd" d="M31.9784 1.74161L32.5835 45.6494L31.604 45.663L30.9989 1.75522L31.9784 1.74161Z" fill="#FB5D66"/>
<path fill-rule="evenodd" clip-rule="evenodd" d="M37.805 2.55898L26.7456 46.4202L25.796 46.1788L36.8554 2.31758L37.805 2.55898Z" fill="#FB5D66"/>
<path fill-rule="evenodd" clip-rule="evenodd" d="M43.2225 4.86266L21.234 44.3553L20.3789 43.8753L42.3675 4.3827L43.2225 4.86266Z" fill="#FB5D66"/>
<path fill-rule="evenodd" clip-rule="evenodd" d="M47.8608 8.49547L16.4416 40.9281L15.7394 40.2423L47.1586 7.80965L47.8608 8.49547Z" fill="#FB5D66"/>
<path fill-rule="evenodd" clip-rule="evenodd" d="M51.4053 13.2102L12.6966 36.3726L12.1951 35.5277L50.9038 12.3652L51.4053 13.2102Z" fill="#FB5D66"/>
<path fill-rule="evenodd" clip-rule="evenodd" d="M53.6134 18.6852L10.2531 30.999L9.98651 30.0525L53.3468 17.7387L53.6134 18.6852Z" fill="#FB5D66"/>
<path fill-rule="evenodd" clip-rule="evenodd" d="M51.8435 24.5823L9.27889 25.1736L9.26534 24.1901L51.8299 23.5988L51.8435 24.5823Z" fill="#FB5D66"/>
<path fill-rule="evenodd" clip-rule="evenodd" d="M49.9546 29.5329L6.22754 18.4171L6.48778 17.385L50.2148 28.5008L49.9546 29.5329Z" fill="#FB5D66"/>
<path fill-rule="evenodd" clip-rule="evenodd" d="M51.2276 35.8373L11.8954 13.759L12.3735 12.9005L51.7056 34.9788L51.2276 35.8373Z" fill="#FB5D66"/>
<path fill-rule="evenodd" clip-rule="evenodd" d="M47.6089 40.495L15.308 8.94753L15.991 8.24247L48.2919 39.7899L47.6089 40.495Z" fill="#FB5D66"/>
<path fill-rule="evenodd" clip-rule="evenodd" d="M42.9137 44.054L19.8453 5.18731L20.6868 4.68378L43.7552 43.5505L42.9137 44.054Z" fill="#FB5D66"/>
<path fill-rule="evenodd" clip-rule="evenodd" d="M37.4606 46.2711L25.1968 2.73393L26.1394 2.46624L38.4032 46.0035L37.4606 46.2711Z" fill="#FB5D66"/>
<path fill-rule="evenodd" clip-rule="evenodd" d="M31.5945 45.029L30.9983 1.75519L31.9777 1.74158L32.574 45.0154L31.5945 45.029Z" fill="#FB5D66"/>
<path fill-rule="evenodd" clip-rule="evenodd" d="M25.7955 46.1788L36.855 2.31754L37.8046 2.55894L26.7451 46.4202L25.7955 46.1788Z" fill="#FB5D66"/>
<path fill-rule="evenodd" clip-rule="evenodd" d="M20.3785 43.8752L42.3671 4.38259L43.2221 4.86255L21.2335 44.3552L20.3785 43.8752Z" fill="#FB5D66"/>
<path d="M42.0858 24.8606C42.0858 31.1077 37.0422 36.1719 30.8205 36.1719C24.5989 36.1719 19.0654 31.1077 19.0654 24.8606C19.0654 18.6136 24.5989 13.5494 30.8205 13.5494C37.0422 13.5494 42.0858 18.6136 42.0858 24.8606Z" fill="#FB5D66"/>
</g>
<g style="mix-blend-mode:soft-light">
<path d="M10.9219 30.9551C9.74635 49.4465 25.1259 48.4957 32.9627 45.7089C40.7993 49.6432 46.1907 47.1729 48.826 44.2335C54.0238 38.4358 51.9041 33.2833 50.5953 28.4961C55.0034 22.5945 53.9563 16.6573 53.0442 13.2505C51.2238 6.45078 43.8436 5.60085 38.8402 6.36534C34.7059 3.18276 34.432 1.74629 28.5544 1.74629C22.1871 1.74628 20.6908 5.07755 19.7382 7.84072C11.8975 9.03875 8.65086 11.2833 7.20976 16.2012C4.61579 25.0535 8.33904 27.2502 10.9219 30.9551Z" fill="#FB5D66"/>
<path d="M16.2782 29.9447C15.2362 46.5511 28.8687 45.6973 35.8152 43.1945C42.7616 46.7278 47.5406 44.5093 49.8765 41.8695C54.4839 36.6628 52.605 32.0356 51.4449 27.7364C55.3522 22.4364 54.424 17.1044 53.6156 14.0449C52.0019 7.93839 44.5619 4.9941 40.1269 5.68066C36.6984 3.71355 32.7802 3.71349 31.9078 3.71348H31.9077C26.2637 3.71347 24.9374 6.70514 24.093 9.18664C17.143 10.2625 14.2652 12.2783 12.9878 16.6949C10.6885 24.6448 13.9888 26.6175 16.2782 29.9447Z" fill="#FB5D66"/>
<path fill-rule="evenodd" clip-rule="evenodd" d="M15.7394 40.2423L47.1586 7.80965L47.8608 8.49547L16.4416 40.9281L15.7394 40.2423Z" fill="#FB5D66"/>
<path fill-rule="evenodd" clip-rule="evenodd" d="M12.1951 35.5277L50.9038 12.3652L51.4053 13.2102L12.6966 36.3726L12.1951 35.5277Z" fill="#FB5D66"/>
<path fill-rule="evenodd" clip-rule="evenodd" d="M9.98651 30.0525L53.3468 17.7387L53.6134 18.6852L10.2531 30.999L9.98651 30.0525Z" fill="#FB5D66"/>
<path fill-rule="evenodd" clip-rule="evenodd" d="M9.26482 24.1901L53.0485 23.5818L53.0621 24.5653L9.27837 25.1736L9.26482 24.1901Z" fill="#FB5D66"/>
<path fill-rule="evenodd" clip-rule="evenodd" d="M10.0788 18.3398L50.9797 28.7371L50.7393 29.6906L9.83838 19.2933L10.0788 18.3398Z" fill="#FB5D66"/>
<path fill-rule="evenodd" clip-rule="evenodd" d="M12.373 12.9004L51.7051 34.9787L51.2271 35.8372L11.895 13.7589L12.373 12.9004Z" fill="#FB5D66"/>
<path fill-rule="evenodd" clip-rule="evenodd" d="M15.991 8.24247L48.2919 39.7899L47.6089 40.495L15.308 8.94753L15.991 8.24247Z" fill="#FB5D66"/>
<path fill-rule="evenodd" clip-rule="evenodd" d="M20.6864 4.68355L43.7547 43.5502L42.9133 44.0538L19.8449 5.18708L20.6864 4.68355Z" fill="#FB5D66"/>
<path fill-rule="evenodd" clip-rule="evenodd" d="M26.1394 2.46624L38.4032 46.0035L37.4606 46.2711L25.1968 2.73393L26.1394 2.46624Z" fill="#FB5D66"/>
<path fill-rule="evenodd" clip-rule="evenodd" d="M31.9784 1.74161L32.5835 45.6494L31.604 45.663L30.9989 1.75522L31.9784 1.74161Z" fill="#FB5D66"/>
<path fill-rule="evenodd" clip-rule="evenodd" d="M37.805 2.55898L26.7456 46.4202L25.796 46.1788L36.8554 2.31758L37.805 2.55898Z" fill="#FB5D66"/>
<path fill-rule="evenodd" clip-rule="evenodd" d="M43.2225 4.86266L21.234 44.3553L20.3789 43.8753L42.3675 4.3827L43.2225 4.86266Z" fill="#FB5D66"/>
<path fill-rule="evenodd" clip-rule="evenodd" d="M47.8608 8.49547L16.4416 40.9281L15.7394 40.2423L47.1586 7.80965L47.8608 8.49547Z" fill="#FB5D66"/>
<path fill-rule="evenodd" clip-rule="evenodd" d="M51.4053 13.2102L12.6966 36.3726L12.1951 35.5277L50.9038 12.3652L51.4053 13.2102Z" fill="#FB5D66"/>
<path fill-rule="evenodd" clip-rule="evenodd" d="M53.6134 18.6852L10.2531 30.999L9.98651 30.0525L53.3468 17.7387L53.6134 18.6852Z" fill="#FB5D66"/>
<path fill-rule="evenodd" clip-rule="evenodd" d="M51.8435 24.5823L9.27889 25.1736L9.26534 24.1901L51.8299 23.5988L51.8435 24.5823Z" fill="#FB5D66"/>
<path fill-rule="evenodd" clip-rule="evenodd" d="M49.9546 29.5329L6.22754 18.4171L6.48778 17.385L50.2148 28.5008L49.9546 29.5329Z" fill="#FB5D66"/>
<path fill-rule="evenodd" clip-rule="evenodd" d="M51.2276 35.8373L11.8954 13.759L12.3735 12.9005L51.7056 34.9788L51.2276 35.8373Z" fill="#FB5D66"/>
<path fill-rule="evenodd" clip-rule="evenodd" d="M47.6089 40.495L15.308 8.94753L15.991 8.24247L48.2919 39.7899L47.6089 40.495Z" fill="#FB5D66"/>
<path fill-rule="evenodd" clip-rule="evenodd" d="M42.9137 44.054L19.8453 5.18731L20.6868 4.68378L43.7552 43.5505L42.9137 44.054Z" fill="#FB5D66"/>
<path fill-rule="evenodd" clip-rule="evenodd" d="M37.4606 46.2711L25.1968 2.73393L26.1394 2.46624L38.4032 46.0035L37.4606 46.2711Z" fill="#FB5D66"/>
<path fill-rule="evenodd" clip-rule="evenodd" d="M31.5945 45.029L30.9983 1.75519L31.9777 1.74158L32.574 45.0154L31.5945 45.029Z" fill="#FB5D66"/>
<path fill-rule="evenodd" clip-rule="evenodd" d="M25.7955 46.1788L36.855 2.31754L37.8046 2.55894L26.7451 46.4202L25.7955 46.1788Z" fill="#FB5D66"/>
<path fill-rule="evenodd" clip-rule="evenodd" d="M20.3785 43.8752L42.3671 4.38259L43.2221 4.86255L21.2335 44.3552L20.3785 43.8752Z" fill="#FB5D66"/>
<path d="M42.0858 24.8606C42.0858 31.1077 37.0422 36.1719 30.8205 36.1719C24.5989 36.1719 19.0654 31.1077 19.0654 24.8606C19.0654 18.6136 24.5989 13.5494 30.8205 13.5494C37.0422 13.5494 42.0858 18.6136 42.0858 24.8606Z" fill="#FB5D66"/>
</g>
<path d="M7.12105 58.5388C9.66673 63.6838 13.6699 61.031 15.3532 59.0615C18.0771 58.8954 19.1496 57.392 19.4056 56.1925C19.9107 53.8264 18.541 52.7743 17.4466 51.6938C17.7225 49.4231 16.5207 47.9932 15.7471 47.2212C14.2031 45.6805 12.0799 46.603 10.848 47.5881C9.23961 47.3787 8.94329 47.036 7.35718 47.9523C5.63889 48.945 5.75086 50.0721 5.92159 50.9621C3.99119 52.5059 3.46256 53.6143 3.83507 55.1586C4.5056 57.9383 5.85046 57.9473 7.12105 58.5388Z" fill="#CDCDCD"/>
<path d="M8.40992 57.4327C10.6998 62.0511 14.2465 59.6966 15.7336 57.9421C18.1551 57.8072 19.1013 56.4669 19.323 55.3944C19.7602 53.279 18.5368 52.3303 17.5581 51.3576C17.792 49.3263 16.716 48.0403 16.0241 47.3454C14.6432 45.9584 12.1796 46.3282 11.0891 47.2039C9.85934 47.2106 8.80196 47.8214 8.56654 47.9574L8.56652 47.9574C7.04342 48.8373 7.14868 49.8468 7.30501 50.6443C5.59605 52.0165 5.13152 53.0061 5.4706 54.3903C6.08093 56.882 7.27698 56.8968 8.40992 57.4327Z" fill="white"/>
<path fill-rule="evenodd" clip-rule="evenodd" d="M9.85872 60.2798L13.3162 46.6789L13.6119 46.7534L10.1544 60.3543L9.85872 60.2798Z" fill="#9B9B9B"/>
<path fill-rule="evenodd" clip-rule="evenodd" d="M8.17231 59.5673L15.0322 47.3174L15.2983 47.4659L8.43846 59.7158L8.17231 59.5673Z" fill="#9B9B9B"/>
<path fill-rule="evenodd" clip-rule="evenodd" d="M6.72863 58.4424L16.5234 48.3784L16.7418 48.5908L6.94711 58.6548L6.72863 58.4424Z" fill="#9B9B9B"/>
<path fill-rule="evenodd" clip-rule="evenodd" d="M5.62623 56.9819L17.3475 49.9927L17.5034 50.2545L5.78215 57.2437L5.62623 56.9819Z" fill="#9B9B9B"/>
<path fill-rule="evenodd" clip-rule="evenodd" d="M4.94013 55.2852L17.5874 51.6986L17.6701 51.9919L5.02288 55.5785L4.94013 55.2852Z" fill="#9B9B9B"/>
<path fill-rule="evenodd" clip-rule="evenodd" d="M4.7171 53.468L18.7495 53.2603L18.7534 53.5652L4.72102 53.7729L4.7171 53.468Z" fill="#9B9B9B"/>
<path fill-rule="evenodd" clip-rule="evenodd" d="M4.97231 51.6541L18.5733 55.0834L18.4981 55.3791L4.89715 51.9497L4.97231 51.6541Z" fill="#9B9B9B"/>
<path fill-rule="evenodd" clip-rule="evenodd" d="M5.6884 49.9671L17.9311 56.7998L17.7819 57.0661L5.53927 50.2334L5.6884 49.9671Z" fill="#9B9B9B"/>
<path fill-rule="evenodd" clip-rule="evenodd" d="M6.81666 48.522L16.8667 58.2923L16.6538 58.5111L6.60373 48.7408L6.81666 48.522Z" fill="#9B9B9B"/>
<path fill-rule="evenodd" clip-rule="evenodd" d="M8.28018 47.4172L15.2414 59.1046L14.9792 59.261L8.01796 47.5736L8.28018 47.4172Z" fill="#9B9B9B"/>
<path fill-rule="evenodd" clip-rule="evenodd" d="M9.97909 46.7282L13.7853 60.2216L13.4917 60.3049L9.68545 46.8115L9.97909 46.7282Z" fill="#9B9B9B"/>
<path fill-rule="evenodd" clip-rule="evenodd" d="M11.7977 46.5017L11.9783 60.5268L11.6732 60.5313L11.4927 46.5063L11.7977 46.5017Z" fill="#9B9B9B"/>
<path fill-rule="evenodd" clip-rule="evenodd" d="M13.6119 46.7534L10.1544 60.3543L9.85872 60.2798L13.3162 46.6789L13.6119 46.7534Z" fill="#9B9B9B"/>
<path fill-rule="evenodd" clip-rule="evenodd" d="M15.2983 47.4659L8.43846 59.7158L8.17231 59.5673L15.0322 47.3174L15.2983 47.4659Z" fill="#9B9B9B"/>
<path fill-rule="evenodd" clip-rule="evenodd" d="M16.7418 48.5908L6.94711 58.6548L6.72863 58.4424L16.5234 48.3784L16.7418 48.5908Z" fill="#9B9B9B"/>
<path fill-rule="evenodd" clip-rule="evenodd" d="M17.1772 50.4491L5.7823 57.2436L5.62637 56.9818L17.0213 50.1873L17.1772 50.4491Z" fill="#9B9B9B"/>
<path fill-rule="evenodd" clip-rule="evenodd" d="M17.4339 52.0719L3.91281 55.9064L3.82324 55.5888L17.3444 51.7544L17.4339 52.0719Z" fill="#9B9B9B"/>
<path fill-rule="evenodd" clip-rule="evenodd" d="M18.7535 53.5651L4.72117 53.7728L4.71724 53.4679L18.7496 53.2603L18.7535 53.5651Z" fill="#9B9B9B"/>
<path fill-rule="evenodd" clip-rule="evenodd" d="M18.4981 55.3791L4.89715 51.9497L4.97231 51.6541L18.5733 55.0834L18.4981 55.3791Z" fill="#9B9B9B"/>
<path fill-rule="evenodd" clip-rule="evenodd" d="M17.7821 57.0661L5.53943 50.2334L5.68855 49.9671L17.9312 56.7998L17.7821 57.0661Z" fill="#9B9B9B"/>
<path fill-rule="evenodd" clip-rule="evenodd" d="M16.6538 58.5111L6.60373 48.7408L6.81666 48.522L16.8667 58.2923L16.6538 58.5111Z" fill="#9B9B9B"/>
<path fill-rule="evenodd" clip-rule="evenodd" d="M14.8785 59.0923L8.01777 47.5737L8.27999 47.4173L15.1407 58.936L14.8785 59.0923Z" fill="#9B9B9B"/>
<path fill-rule="evenodd" clip-rule="evenodd" d="M13.4915 60.3049L9.68532 46.8115L9.97896 46.7283L13.7852 60.2217L13.4915 60.3049Z" fill="#9B9B9B"/>
<path fill-rule="evenodd" clip-rule="evenodd" d="M11.6731 60.5313L11.4925 46.5063L11.7976 46.5018L11.9781 60.5268L11.6731 60.5313Z" fill="#9B9B9B"/>
<path d="M14.5871 52.045C15.5542 53.7213 14.9772 55.8664 13.2982 56.8364C11.6193 57.8064 9.34196 57.3102 8.37478 55.6339C7.40759 53.9576 8.11679 51.7361 9.79576 50.7661C11.4747 49.7962 13.6199 50.3687 14.5871 52.045Z" fill="#9B9B9B"/>
<g style="mix-blend-mode:multiply">
<path d="M7.12105 58.5388C9.66673 63.6838 13.6699 61.031 15.3532 59.0615C18.0771 58.8954 19.1496 57.392 19.4056 56.1925C19.9107 53.8264 18.541 52.7743 17.4466 51.6938C17.7225 49.4231 16.5207 47.9932 15.7471 47.2212C14.2031 45.6805 12.0799 46.603 10.848 47.5881C9.23961 47.3787 8.94329 47.036 7.35718 47.9523C5.63889 48.945 5.75086 50.0721 5.92159 50.9621C3.99119 52.5059 3.46256 53.6143 3.83507 55.1586C4.5056 57.9383 5.85046 57.9473 7.12105 58.5388Z" fill="#FB5D66"/>
<path d="M8.40992 57.4327C10.6998 62.0511 14.2465 59.6966 15.7336 57.9421C18.1551 57.8072 19.1013 56.4669 19.323 55.3944C19.7602 53.279 18.5368 52.3303 17.5581 51.3576C17.792 49.3263 16.716 48.0403 16.0241 47.3454C14.6432 45.9584 12.1796 46.3282 11.0891 47.2039C9.85934 47.2106 8.80196 47.8214 8.56654 47.9574L8.56652 47.9574C7.04342 48.8373 7.14868 49.8468 7.30501 50.6443C5.59605 52.0165 5.13152 53.0061 5.4706 54.3903C6.08093 56.882 7.27698 56.8968 8.40992 57.4327Z" fill="#FB5D66"/>
<path fill-rule="evenodd" clip-rule="evenodd" d="M9.85872 60.2798L13.3162 46.6789L13.6119 46.7534L10.1544 60.3543L9.85872 60.2798Z" fill="#FB5D66"/>
<path fill-rule="evenodd" clip-rule="evenodd" d="M8.17231 59.5673L15.0322 47.3174L15.2983 47.4659L8.43846 59.7158L8.17231 59.5673Z" fill="#FB5D66"/>
<path fill-rule="evenodd" clip-rule="evenodd" d="M6.72863 58.4424L16.5234 48.3784L16.7418 48.5908L6.94711 58.6548L6.72863 58.4424Z" fill="#FB5D66"/>
<path fill-rule="evenodd" clip-rule="evenodd" d="M5.62623 56.9819L17.3475 49.9927L17.5034 50.2545L5.78215 57.2437L5.62623 56.9819Z" fill="#FB5D66"/>
<path fill-rule="evenodd" clip-rule="evenodd" d="M4.94013 55.2852L17.5874 51.6986L17.6701 51.9919L5.02288 55.5785L4.94013 55.2852Z" fill="#FB5D66"/>
<path fill-rule="evenodd" clip-rule="evenodd" d="M4.7171 53.468L18.7495 53.2603L18.7534 53.5652L4.72102 53.7729L4.7171 53.468Z" fill="#FB5D66"/>
<path fill-rule="evenodd" clip-rule="evenodd" d="M4.97231 51.6541L18.5733 55.0834L18.4981 55.3791L4.89715 51.9497L4.97231 51.6541Z" fill="#FB5D66"/>
<path fill-rule="evenodd" clip-rule="evenodd" d="M5.6884 49.9671L17.9311 56.7998L17.7819 57.0661L5.53927 50.2334L5.6884 49.9671Z" fill="#FB5D66"/>
<path fill-rule="evenodd" clip-rule="evenodd" d="M6.81666 48.522L16.8667 58.2923L16.6538 58.5111L6.60373 48.7408L6.81666 48.522Z" fill="#FB5D66"/>
<path fill-rule="evenodd" clip-rule="evenodd" d="M8.28018 47.4172L15.2414 59.1046L14.9792 59.261L8.01796 47.5736L8.28018 47.4172Z" fill="#FB5D66"/>
<path fill-rule="evenodd" clip-rule="evenodd" d="M9.97909 46.7282L13.7853 60.2216L13.4917 60.3049L9.68545 46.8115L9.97909 46.7282Z" fill="#FB5D66"/>
<path fill-rule="evenodd" clip-rule="evenodd" d="M11.7977 46.5017L11.9783 60.5268L11.6732 60.5313L11.4927 46.5063L11.7977 46.5017Z" fill="#FB5D66"/>
<path fill-rule="evenodd" clip-rule="evenodd" d="M13.6119 46.7534L10.1544 60.3543L9.85872 60.2798L13.3162 46.6789L13.6119 46.7534Z" fill="#FB5D66"/>
<path fill-rule="evenodd" clip-rule="evenodd" d="M15.2983 47.4659L8.43846 59.7158L8.17231 59.5673L15.0322 47.3174L15.2983 47.4659Z" fill="#FB5D66"/>
<path fill-rule="evenodd" clip-rule="evenodd" d="M16.7418 48.5908L6.94711 58.6548L6.72863 58.4424L16.5234 48.3784L16.7418 48.5908Z" fill="#FB5D66"/>
<path fill-rule="evenodd" clip-rule="evenodd" d="M17.1772 50.4491L5.7823 57.2436L5.62637 56.9818L17.0213 50.1873L17.1772 50.4491Z" fill="#FB5D66"/>
<path fill-rule="evenodd" clip-rule="evenodd" d="M17.4339 52.0719L3.91281 55.9064L3.82324 55.5888L17.3444 51.7544L17.4339 52.0719Z" fill="#FB5D66"/>
<path fill-rule="evenodd" clip-rule="evenodd" d="M18.7535 53.5651L4.72117 53.7728L4.71724 53.4679L18.7496 53.2603L18.7535 53.5651Z" fill="#FB5D66"/>
<path fill-rule="evenodd" clip-rule="evenodd" d="M18.4981 55.3791L4.89715 51.9497L4.97231 51.6541L18.5733 55.0834L18.4981 55.3791Z" fill="#FB5D66"/>
<path fill-rule="evenodd" clip-rule="evenodd" d="M17.7821 57.0661L5.53943 50.2334L5.68855 49.9671L17.9312 56.7998L17.7821 57.0661Z" fill="#FB5D66"/>
<path fill-rule="evenodd" clip-rule="evenodd" d="M16.6538 58.5111L6.60373 48.7408L6.81666 48.522L16.8667 58.2923L16.6538 58.5111Z" fill="#FB5D66"/>
<path fill-rule="evenodd" clip-rule="evenodd" d="M14.8785 59.0923L8.01777 47.5737L8.27999 47.4173L15.1407 58.936L14.8785 59.0923Z" fill="#FB5D66"/>
<path fill-rule="evenodd" clip-rule="evenodd" d="M13.4915 60.3049L9.68532 46.8115L9.97896 46.7283L13.7852 60.2217L13.4915 60.3049Z" fill="#FB5D66"/>
<path fill-rule="evenodd" clip-rule="evenodd" d="M11.6731 60.5313L11.4925 46.5063L11.7976 46.5018L11.9781 60.5268L11.6731 60.5313Z" fill="#FB5D66"/>
<path d="M14.5871 52.045C15.5542 53.7213 14.9772 55.8664 13.2982 56.8364C11.6193 57.8064 9.34196 57.3102 8.37478 55.6339C7.40759 53.9576 8.11679 51.7361 9.79576 50.7661C11.4747 49.7962 13.6199 50.3687 14.5871 52.045Z" fill="#FB5D66"/>
</g>
<g style="mix-blend-mode:soft-light">
<path d="M7.12105 58.5388C9.66673 63.6838 13.6699 61.031 15.3532 59.0615C18.0771 58.8954 19.1496 57.392 19.4056 56.1925C19.9107 53.8264 18.541 52.7743 17.4466 51.6938C17.7225 49.4231 16.5207 47.9932 15.7471 47.2212C14.2031 45.6805 12.0799 46.603 10.848 47.5881C9.23961 47.3787 8.94329 47.036 7.35718 47.9523C5.63889 48.945 5.75086 50.0721 5.92159 50.9621C3.99119 52.5059 3.46256 53.6143 3.83507 55.1586C4.5056 57.9383 5.85046 57.9473 7.12105 58.5388Z" fill="#FB5D66"/>
<path d="M8.40992 57.4327C10.6998 62.0511 14.2465 59.6966 15.7336 57.9421C18.1551 57.8072 19.1013 56.4669 19.323 55.3944C19.7602 53.279 18.5368 52.3303 17.5581 51.3576C17.792 49.3263 16.716 48.0403 16.0241 47.3454C14.6432 45.9584 12.1796 46.3282 11.0891 47.2039C9.85934 47.2106 8.80196 47.8214 8.56654 47.9574L8.56652 47.9574C7.04342 48.8373 7.14868 49.8468 7.30501 50.6443C5.59605 52.0165 5.13152 53.0061 5.4706 54.3903C6.08093 56.882 7.27698 56.8968 8.40992 57.4327Z" fill="#FB5D66"/>
<path fill-rule="evenodd" clip-rule="evenodd" d="M9.85872 60.2798L13.3162 46.6789L13.6119 46.7534L10.1544 60.3543L9.85872 60.2798Z" fill="#FB5D66"/>
<path fill-rule="evenodd" clip-rule="evenodd" d="M8.17231 59.5673L15.0322 47.3174L15.2983 47.4659L8.43846 59.7158L8.17231 59.5673Z" fill="#FB5D66"/>
<path fill-rule="evenodd" clip-rule="evenodd" d="M6.72863 58.4424L16.5234 48.3784L16.7418 48.5908L6.94711 58.6548L6.72863 58.4424Z" fill="#FB5D66"/>
<path fill-rule="evenodd" clip-rule="evenodd" d="M5.62623 56.9819L17.3475 49.9927L17.5034 50.2545L5.78215 57.2437L5.62623 56.9819Z" fill="#FB5D66"/>
<path fill-rule="evenodd" clip-rule="evenodd" d="M4.94013 55.2852L17.5874 51.6986L17.6701 51.9919L5.02288 55.5785L4.94013 55.2852Z" fill="#FB5D66"/>
<path fill-rule="evenodd" clip-rule="evenodd" d="M4.7171 53.468L18.7495 53.2603L18.7534 53.5652L4.72102 53.7729L4.7171 53.468Z" fill="#FB5D66"/>
<path fill-rule="evenodd" clip-rule="evenodd" d="M4.97231 51.6541L18.5733 55.0834L18.4981 55.3791L4.89715 51.9497L4.97231 51.6541Z" fill="#FB5D66"/>
<path fill-rule="evenodd" clip-rule="evenodd" d="M5.6884 49.9671L17.9311 56.7998L17.7819 57.0661L5.53927 50.2334L5.6884 49.9671Z" fill="#FB5D66"/>
<path fill-rule="evenodd" clip-rule="evenodd" d="M6.81666 48.522L16.8667 58.2923L16.6538 58.5111L6.60373 48.7408L6.81666 48.522Z" fill="#FB5D66"/>
<path fill-rule="evenodd" clip-rule="evenodd" d="M8.28018 47.4172L15.2414 59.1046L14.9792 59.261L8.01796 47.5736L8.28018 47.4172Z" fill="#FB5D66"/>
<path fill-rule="evenodd" clip-rule="evenodd" d="M9.97909 46.7282L13.7853 60.2216L13.4917 60.3049L9.68545 46.8115L9.97909 46.7282Z" fill="#FB5D66"/>
<path fill-rule="evenodd" clip-rule="evenodd" d="M11.7977 46.5017L11.9783 60.5268L11.6732 60.5313L11.4927 46.5063L11.7977 46.5017Z" fill="#FB5D66"/>
<path fill-rule="evenodd" clip-rule="evenodd" d="M13.6119 46.7534L10.1544 60.3543L9.85872 60.2798L13.3162 46.6789L13.6119 46.7534Z" fill="#FB5D66"/>
<path fill-rule="evenodd" clip-rule="evenodd" d="M15.2983 47.4659L8.43846 59.7158L8.17231 59.5673L15.0322 47.3174L15.2983 47.4659Z" fill="#FB5D66"/>
<path fill-rule="evenodd" clip-rule="evenodd" d="M16.7418 48.5908L6.94711 58.6548L6.72863 58.4424L16.5234 48.3784L16.7418 48.5908Z" fill="#FB5D66"/>
<path fill-rule="evenodd" clip-rule="evenodd" d="M17.1772 50.4491L5.7823 57.2436L5.62637 56.9818L17.0213 50.1873L17.1772 50.4491Z" fill="#FB5D66"/>
<path fill-rule="evenodd" clip-rule="evenodd" d="M17.4339 52.0719L3.91281 55.9064L3.82324 55.5888L17.3444 51.7544L17.4339 52.0719Z" fill="#FB5D66"/>
<path fill-rule="evenodd" clip-rule="evenodd" d="M18.7535 53.5651L4.72117 53.7728L4.71724 53.4679L18.7496 53.2603L18.7535 53.5651Z" fill="#FB5D66"/>
<path fill-rule="evenodd" clip-rule="evenodd" d="M18.4981 55.3791L4.89715 51.9497L4.97231 51.6541L18.5733 55.0834L18.4981 55.3791Z" fill="#FB5D66"/>
<path fill-rule="evenodd" clip-rule="evenodd" d="M17.7821 57.0661L5.53943 50.2334L5.68855 49.9671L17.9312 56.7998L17.7821 57.0661Z" fill="#FB5D66"/>
<path fill-rule="evenodd" clip-rule="evenodd" d="M16.6538 58.5111L6.60373 48.7408L6.81666 48.522L16.8667 58.2923L16.6538 58.5111Z" fill="#FB5D66"/>
<path fill-rule="evenodd" clip-rule="evenodd" d="M14.8785 59.0923L8.01777 47.5737L8.27999 47.4173L15.1407 58.936L14.8785 59.0923Z" fill="#FB5D66"/>
<path fill-rule="evenodd" clip-rule="evenodd" d="M13.4915 60.3049L9.68532 46.8115L9.97896 46.7283L13.7852 60.2217L13.4915 60.3049Z" fill="#FB5D66"/>
<path fill-rule="evenodd" clip-rule="evenodd" d="M11.6731 60.5313L11.4925 46.5063L11.7976 46.5018L11.9781 60.5268L11.6731 60.5313Z" fill="#FB5D66"/>
<path d="M14.5871 52.045C15.5542 53.7213 14.9772 55.8664 13.2982 56.8364C11.6193 57.8064 9.34196 57.3102 8.37478 55.6339C7.40759 53.9576 8.11679 51.7361 9.79576 50.7661C11.4747 49.7962 13.6199 50.3687 14.5871 52.045Z" fill="#FB5D66"/>
</g>
<path d="M29.3447 73.6347C31.2687 75.3121 28.1731 80.3585 27.168 82.6543L27.4109 82.8122C31.3724 77.8548 34.3606 78.2733 35.3431 78.194C40.5308 77.7752 41.3312 75.8597 41.1854 75.1474C40.3463 72.6282 36.0567 74.6024 34.1186 76.073C36.5536 71.9647 38.9906 70.5099 39.9047 70.296C42.1894 69.7288 46.4335 68.0937 45.1327 66.0913C43.8319 64.089 40.2837 66.3861 38.6722 67.7849C38.424 65.969 40.7264 62.3861 43.2698 61.6421C47.5742 60.3831 47.8988 59.5309 47.5421 58.8228C46.7103 56.6547 42.479 58.2765 40.4674 59.3584C43.44 57.1512 47.2172 52.5861 44.6275 51.0784C41.6645 49.3535 39.3419 55.6745 39.0781 58.8016C38.7061 56.6631 37.4539 52.5525 35.4205 53.2186C32.8789 54.0513 35.8902 56.916 37.3315 60.0082C38.4845 62.4818 37.7662 65.2021 37.2629 66.253C36.7138 62.5182 34.8058 61.6209 34.2156 61.633C31.2644 61.6936 32.6977 64.3957 33.9583 68.272C34.9668 71.373 32.9061 74.537 31.7496 75.7314C31.933 69.3281 28.7975 66.1635 27.0322 66.4632C23.1094 67.1291 26.9397 71.5379 29.3447 73.6347Z" fill="#2E7A48"/>
</svg>
