<svg width="60" height="132" viewBox="0 0 60 132" fill="none" xmlns="http://www.w3.org/2000/svg">
<rect y="72" width="60" height="60" fill="#5D7D5F"/>
<path fill-rule="evenodd" clip-rule="evenodd" d="M48.9711 46.2509C49.1087 46.2625 49.2108 46.3835 49.1991 46.5211C48.5114 54.6595 45.5807 60.796 42.4579 64.9921C40.1561 68.0852 37.7459 70.1294 36.0455 71.1441C36.0312 72.1567 36.0014 73.196 35.9546 74.261C35.6073 82.1538 34.322 91.4606 31.4409 101.817C31.4039 101.95 31.266 102.028 31.133 101.991C31 101.954 30.9222 101.816 30.9592 101.683C33.8124 91.4268 35.0938 82.2076 35.4487 74.3823C34.0233 73.4578 32.222 72.1165 30.2857 70.4281C28.2513 68.6541 26.0653 66.4945 24.0081 64.0291C23.3203 63.2048 22.6467 62.3462 21.998 61.4562C19.0802 57.4533 16.6591 52.809 15.7044 47.7968C15.6786 47.6612 15.7676 47.5303 15.9032 47.5044C16.0389 47.4786 16.1698 47.5676 16.1956 47.7032C17.1323 52.621 19.5124 57.1975 22.4021 61.1617C23.0439 62.0423 23.7107 62.8923 24.392 63.7088C26.4301 66.1513 28.597 68.2922 30.6143 70.0512C32.4239 71.6291 34.1108 72.898 35.4734 73.8007C35.5115 72.8445 35.5358 71.9097 35.5475 70.9968C35.6835 60.3248 33.1831 45.9022 31.8065 42.3231C31.7569 42.1942 31.8212 42.0496 31.9501 42C32.0789 41.9504 32.2236 42.0147 32.2732 42.1436C33.6593 45.7475 36.1392 60.0722 36.0522 70.553C37.6717 69.527 39.9065 67.5831 42.0568 64.6936C45.1292 60.5651 48.0217 54.5161 48.7009 46.479C48.7125 46.3414 48.8335 46.2393 48.9711 46.2509Z" fill="#0A3019"/>
<path fill-rule="evenodd" clip-rule="evenodd" d="M44.2214 42.0904C44.3184 42.1433 44.3541 42.2648 44.3012 42.3618C43.9501 43.75 43.9969 43.8195 43.5582 46.8293C43.1856 49.3859 42.9277 52.2642 42.7557 55.0616C43.5351 52.8199 44.5875 49.9355 45.6423 47.3251C46.2854 45.7335 45.8563 46.7567 46.442 45.5726C46.7348 44.9807 47.014 44.4632 47.272 44.0478C47.5275 43.6363 47.7707 43.3108 47.9939 43.1155C48.0771 43.0428 48.2034 43.0512 48.2762 43.1343C48.3489 43.2174 48.3405 43.3438 48.2574 43.4165C48.0806 43.5712 47.8628 43.8546 47.6118 44.2588C47.3631 44.6592 47.0902 45.1643 46.8005 45.75C46.2212 46.9211 46.6547 45.8874 46.0132 47.4749C44.7352 50.6376 43.4598 54.2064 42.6722 56.5379C42.5078 59.7194 42.4511 62.6947 42.4574 64.8423C42.4577 64.9527 42.3684 65.0425 42.258 65.0428C42.1475 65.0432 42.0577 64.9539 42.0574 64.8434C42.0511 62.6826 42.1082 59.689 42.2742 56.4896C42.4424 53.2469 42.7225 49.7893 43.1624 46.7716C43.6009 43.7627 43.4501 43.75 43.9501 42.1702C44.003 42.0733 44.1245 42.0375 44.2214 42.0904ZM12.1008 47.5764C12.1967 47.5215 12.3189 47.5549 12.3737 47.6508C13.1742 49.0517 16.3501 55.6109 17.8574 58.7554C19.5536 59.9232 21.1794 60.7172 22.2696 61.1214C22.3732 61.1598 22.426 61.2749 22.3876 61.3785C22.3492 61.4821 22.2341 61.5349 22.1305 61.4965C20.9982 61.0766 19.3242 60.2566 17.5863 59.0543C15.0433 57.2951 12.3414 54.7022 11.0139 51.3231C10.9735 51.2203 11.0241 51.1042 11.1269 51.0638C11.2297 51.0235 11.3458 51.0741 11.3862 51.1769C12.5656 54.1789 14.8737 56.5598 17.182 58.2726C15.5833 54.9461 12.7663 49.144 12.0264 47.8492C11.9716 47.7533 12.0049 47.6312 12.1008 47.5764ZM20.5649 50.6026C20.6463 50.5279 20.7728 50.5334 20.8475 50.6149C21.4227 51.2424 21.9117 52.1791 22.3268 53.2667C22.7431 54.3577 23.0909 55.6165 23.3765 56.9012C23.9478 59.4706 24.2739 62.1601 24.3995 63.8542C24.4077 63.9643 24.325 64.0602 24.2148 64.0684C24.1047 64.0766 24.0088 63.9939 24.0006 63.8837C23.8762 62.2048 23.5523 59.5349 22.9861 56.988C22.703 55.7146 22.3601 54.4761 21.953 53.4093C21.5447 52.3392 21.0774 51.4576 20.5526 50.8851C20.478 50.8037 20.4835 50.6772 20.5649 50.6026ZM26.9393 53.3003C27.0496 53.2943 27.1438 53.3789 27.1498 53.4892C27.3474 57.1451 28.8473 60.8008 30.653 63.8929C32.4579 66.9835 34.5589 69.4947 35.9381 70.8577C36.0166 70.9354 36.0174 71.062 35.9397 71.1406C35.8621 71.2191 35.7354 71.2199 35.6569 71.1422C34.2536 69.7553 32.1308 67.2165 30.3076 64.0946C28.4853 60.9741 26.9527 57.2549 26.7503 53.5108C26.7444 53.4005 26.829 53.3063 26.9393 53.3003ZM48.3613 59.3817C48.4267 59.4708 48.4074 59.5959 48.3183 59.6613C46.8579 60.7322 45.5724 62.6758 44.5565 64.6961C43.6925 66.4143 43.0334 68.1678 42.6334 69.4412C44.641 67.8051 46.7927 65.7764 48.7964 63.372C48.8671 63.2871 48.9932 63.2756 49.0781 63.3463C49.1629 63.4171 49.1744 63.5432 49.1037 63.628C46.912 66.2581 44.5463 68.4411 42.3816 70.1567C39.586 72.3724 37.1202 73.813 35.7891 74.4314C35.6889 74.4779 35.57 74.4345 35.5235 74.3343C35.4769 74.2341 35.5204 74.1152 35.6206 74.0686C36.9105 73.4693 39.3281 72.0602 42.0827 69.8832C42.4569 68.5772 43.1897 66.5239 44.1991 64.5164C45.2218 62.4825 46.5422 60.4677 48.0818 59.3387C48.1709 59.2734 48.296 59.2926 48.3613 59.3817ZM16.7662 62.4212C16.8097 62.3197 16.9273 62.2726 17.0288 62.3162C17.4088 62.479 17.9742 62.8892 18.6248 63.4244C19.2822 63.9653 20.0466 64.6509 20.8304 65.3833C22.3764 66.8281 24.0048 68.4621 25.0502 69.5443C27.2929 69.98 29.2838 70.0814 30.4429 70.0398C30.5533 70.0358 30.646 70.1221 30.6499 70.2325C30.6539 70.3429 30.5676 70.4356 30.4572 70.4395C29.2556 70.4827 27.2081 70.3763 24.9115 69.9247C22.5275 69.456 19.8622 68.6129 17.5927 67.1687C17.4995 67.1094 17.472 66.9858 17.5313 66.8926C17.5906 66.7994 17.7142 66.772 17.8074 66.8313C19.8228 68.1137 22.1697 68.9163 24.3515 69.3992C23.3211 68.3444 21.907 66.937 20.5572 65.6755C19.7764 64.9458 19.0189 64.2666 18.3706 63.7333C17.7155 63.1944 17.1913 62.821 16.8713 62.6838C16.7697 62.6403 16.7227 62.5227 16.7662 62.4212Z" fill="#0A3019"/>
<circle cx="12.25" cy="47.75" r="1.25" fill="#FD5936"/>
<circle cx="20.25" cy="50.25" r="1.25" fill="#FD5936"/>
<circle cx="26.75" cy="53.25" r="1.25" fill="#FD5936"/>
<circle cx="48.25" cy="59.25" r="1.25" fill="#FD5936"/>
<circle cx="49.25" cy="63.25" r="1.25" fill="#FD5936"/>
<circle cx="17.25" cy="62.25" r="1.25" fill="#FD5936"/>
<circle cx="17.75" cy="66.75" r="1.25" fill="#FD5936"/>
<circle cx="11" cy="51" r="1.5" fill="#FD5936"/>
<circle cx="43.75" cy="43.25" r="1.25" fill="#FD5936"/>
<circle cx="48.25" cy="43.75" r="1.25" fill="#FD5936"/>
<path d="M31.6395 86.8832C29.7462 85.5873 28.2147 84.3535 26.9904 83.1889C26.7054 82.9179 26.4371 82.6507 26.1848 82.3872C25.7054 81.8868 25.2836 81.4003 24.9145 80.9282C24.2751 80.1102 23.7941 79.3357 23.447 78.6077C23.0687 77.8141 22.8494 77.0759 22.7573 76.3971C22.6449 75.5686 22.7221 74.8286 22.9307 74.1847C23.2141 73.3099 23.7402 72.6123 24.3636 72.1106C24.8038 71.7564 25.2924 71.4999 25.7783 71.3476C27.0252 71.0701 28.0597 71.2073 28.91 71.6508C29.3808 71.8964 29.7952 72.2358 30.1578 72.6508C30.3949 72.9221 30.6099 73.2256 30.8041 73.5563C31.1409 74.1296 31.4153 74.7845 31.6344 75.4941C31.8726 76.2659 32.0452 77.1024 32.1614 77.9691C32.2693 78.7744 32.3284 79.6059 32.3458 80.4358C32.361 81.1566 32.3448 81.8763 32.3019 82.5766C32.2032 84.188 31.9632 85.6972 31.6395 86.8832Z" fill="#FD5936"/>
<g style="mix-blend-mode:multiply">
<path d="M24.5339 71.9799L26.3421 72.665L28.6985 71.5488C28.7701 71.5808 28.8404 71.6148 28.9095 71.6508C28.9635 71.679 29.0168 71.7084 29.0693 71.739C29.0514 71.7715 29.0234 71.7989 28.9873 71.816L26.3574 73.0617L24.2985 72.2816C24.2682 72.2701 24.2427 72.2514 24.2232 72.2281C24.2693 72.1878 24.316 72.1487 24.3632 72.1107C24.4194 72.0655 24.4763 72.0219 24.5339 71.9799Z" fill="#FD5936"/>
<path d="M22.8775 74.3598C22.894 74.3007 22.9116 74.2423 22.9303 74.1847C22.9495 74.1252 22.9699 74.0665 22.9914 74.0087L27.0203 74.5673L30.0337 72.5144C30.0756 72.559 30.1168 72.6045 30.1574 72.6509C30.1973 72.6965 30.2365 72.743 30.2751 72.7904C30.2703 72.7945 30.2652 72.7984 30.2599 72.802L27.1088 74.9486L22.905 74.3658C22.8956 74.3644 22.8864 74.3624 22.8775 74.3598Z" fill="#FD5936"/>
<path d="M22.786 76.5886C22.7752 76.5243 22.7655 76.4605 22.7569 76.3972C22.7486 76.3362 22.7414 76.2758 22.7352 76.2158C22.7532 76.2136 22.7719 76.2141 22.7908 76.2176L27.977 77.1884L30.6557 73.45C30.6705 73.4293 30.6888 73.4126 30.7092 73.4002C30.7412 73.4516 30.7727 73.5036 30.8037 73.5563C30.8374 73.6137 30.8705 73.672 30.903 73.731L28.1376 77.5903L22.786 76.5886Z" fill="#FD5936"/>
<path d="M23.553 78.8241C23.5162 78.7515 23.4808 78.6794 23.4466 78.6077C23.4202 78.5523 23.3945 78.4971 23.3696 78.4422C23.4067 78.4248 23.4498 78.4198 23.4926 78.4308L28.976 79.8507L31.4751 75.4048C31.4987 75.3628 31.5363 75.3337 31.5788 75.3202C31.5975 75.3778 31.6159 75.4358 31.6339 75.4942C31.6588 75.5747 31.6829 75.6559 31.7063 75.7377L29.1559 80.2749L23.553 78.8241Z" fill="#FD5936"/>
<path d="M25.1201 81.1866C25.0497 81.1 24.981 81.0139 24.9141 80.9283C24.8764 80.88 24.8392 80.8319 24.8025 80.7839C24.8485 80.7483 24.9107 80.7352 24.9702 80.7543L29.9141 82.3447L31.9959 77.8919C32.023 77.8337 32.0768 77.7966 32.1358 77.7882C32.1445 77.8483 32.1528 77.9087 32.1609 77.9691C32.1761 78.0819 32.1902 78.1952 32.2034 78.3089L30.108 82.7911L25.1201 81.1866Z" fill="#FD5936"/>
<path d="M26.5629 82.7733C26.4329 82.6438 26.3068 82.5151 26.1843 82.3873C26.142 82.3431 26.1001 82.299 26.0587 82.255C26.1122 82.204 26.1936 82.1887 26.2639 82.2227L30.681 84.3582L32.1747 80.3719C32.2017 80.3001 32.2688 80.2552 32.3409 80.2532C32.3426 80.3141 32.3441 80.375 32.3454 80.4359C32.349 80.6044 32.3508 80.7728 32.351 80.9409L30.8818 84.8614L26.5629 82.7733Z" fill="#FD5936"/>
</g>
<g style="mix-blend-mode:multiply">
<path d="M31.7445 86.4733C31.7445 86.4734 31.7445 86.4733 31.7445 86.4733L26.0195 71.2985C25.9399 71.3131 25.8594 71.3295 25.7779 71.3476C25.7013 71.3716 25.6246 71.3983 25.548 71.4274L25.5504 71.4341L31.4105 86.967L33.3287 92.2406C33.3746 92.367 33.5142 92.4319 33.6404 92.3857C33.7666 92.3394 33.8316 92.1995 33.7857 92.0731L31.8676 86.7995L31.7445 86.4733Z" fill="#FD5936"/>
</g>
<path d="M38.1019 80.4623C39.8498 80.0314 41.3146 79.5466 42.5348 79.0281C42.8187 78.9074 43.0894 78.7849 43.3474 78.6609C43.8373 78.4252 44.2812 78.1839 44.6823 77.9387C45.3773 77.5137 45.9439 77.0771 46.3994 76.6378C46.8958 76.1589 47.2602 75.6769 47.5147 75.2036C47.8254 74.6258 47.9724 74.0609 47.9964 73.5303C48.0291 72.8096 47.8346 72.1522 47.5147 71.612C47.2888 71.2306 47.0005 70.9077 46.6854 70.662C45.8457 70.1148 45.0479 69.9308 44.3011 70.0225C43.8875 70.0733 43.4896 70.2086 43.1089 70.4137C42.8601 70.5477 42.6186 70.7115 42.3848 70.901C41.9795 71.2295 41.5976 71.6351 41.2413 72.0962C40.8538 72.5976 40.4967 73.1646 40.1727 73.7694C39.8717 74.3314 39.5994 74.926 39.3581 75.5309C39.1485 76.0563 38.9623 76.5895 38.801 77.1158C38.4298 78.327 38.1906 79.5019 38.1019 80.4623Z" fill="#FD5936"/>
<g style="mix-blend-mode:multiply">
<path d="M47.4253 71.469L45.9082 71.4745L44.4842 70.0057C44.4228 70.0095 44.3618 70.0151 44.3011 70.0225C44.2537 70.0284 44.2065 70.0353 44.1595 70.0433C44.1637 70.0722 44.1766 70.1 44.1985 70.1225L45.7877 71.7618L47.5152 71.7555C47.5406 71.7554 47.5645 71.7486 47.5852 71.7369C47.5624 71.6946 47.5389 71.653 47.5147 71.6121C47.4859 71.5634 47.456 71.5157 47.4253 71.469Z" fill="#FD5936"/>
<path d="M47.987 73.6735C47.9912 73.6256 47.9943 73.5778 47.9965 73.5304C47.9987 73.4814 47.9999 73.4326 48 73.3842L44.8862 72.6854L43.2374 70.3475C43.1944 70.3687 43.1516 70.3908 43.109 70.4137C43.0671 70.4363 43.0255 70.4596 42.9841 70.4838C42.9865 70.4882 42.9892 70.4924 42.9921 70.4965L44.7162 72.9412L47.9652 73.6704C47.9725 73.672 47.9798 73.673 47.987 73.6735Z" fill="#FD5936"/>
<path d="M47.4406 75.3362C47.4663 75.292 47.491 75.2478 47.5147 75.2036C47.5375 75.1611 47.5595 75.1187 47.5806 75.0763C47.568 75.0697 47.5541 75.0649 47.5393 75.0623L43.4617 74.3477L42.5229 70.8636C42.5177 70.8444 42.5088 70.8271 42.4973 70.8124C42.4596 70.8413 42.4221 70.8708 42.3848 70.901C42.3443 70.9339 42.3039 70.9676 42.2638 71.002L43.233 74.5988L47.4406 75.3362Z" fill="#FD5936"/>
<path d="M46.2616 76.7675C46.3086 76.7243 46.3545 76.6811 46.3994 76.6378C46.4341 76.6044 46.4681 76.5709 46.5015 76.5374C46.479 76.5144 46.4487 76.4988 46.4143 76.4952L41.9947 76.0287L41.3826 72.0742C41.3769 72.0369 41.3572 72.0052 41.3298 71.9835C41.3001 72.0207 41.2706 72.0583 41.2413 72.0962C41.2009 72.1485 41.1608 72.2015 41.1211 72.2552L41.7458 76.2908L46.2616 76.7675Z" fill="#FD5936"/>
<path d="M44.4598 78.0718C44.5354 78.0275 44.6096 77.9832 44.6823 77.9387C44.7233 77.9136 44.7639 77.8885 44.804 77.8634C44.78 77.8245 44.738 77.7978 44.689 77.7954L40.6188 77.6028L40.3153 73.7581C40.3113 73.7079 40.2821 73.6658 40.241 73.6434C40.2181 73.6852 40.1953 73.7272 40.1727 73.7694C40.1306 73.8481 40.089 73.9275 40.048 74.0074L40.3535 77.8774L44.4598 78.0718Z" fill="#FD5936"/>
<path d="M42.963 78.8403C43.0941 78.7809 43.2223 78.7211 43.3474 78.6609C43.3906 78.6401 43.4336 78.6193 43.4761 78.5984C43.4509 78.5462 43.3953 78.5125 43.3342 78.5181L39.5011 78.871V75.531C39.5011 75.4708 39.4641 75.4193 39.4117 75.398C39.3937 75.4423 39.3758 75.4866 39.3581 75.531C39.3091 75.6538 39.2614 75.777 39.215 75.9005V79.1853L42.963 78.8403Z" fill="#FD5936"/>
</g>
<g style="mix-blend-mode:multiply">
<path d="M38.137 80.1321C38.137 80.1322 38.137 80.1321 38.137 80.1321L46.5211 70.5594C46.5756 70.592 46.6303 70.6262 46.6851 70.662C46.7348 70.7007 46.7838 70.7414 46.832 70.7839L46.8284 70.7881L38.2465 80.5868L35.3853 83.9332C35.3168 84.0134 35.1964 84.0227 35.1164 83.954C35.0364 83.8852 35.0271 83.7645 35.0957 83.6843L37.9569 80.3379L38.137 80.1321Z" fill="#FD5936"/>
</g>
<path d="M6.37335 17.5921C-2.78223 32.7517 19.8198 43.4668 32.2652 46.9294C52.1163 32.2014 51.4787 16.2345 47.5647 12.6863C44.4335 9.84769 39.6746 12.1596 37.6866 13.6704C31.4117 5.38683 25.305 10.5339 23.0361 14.1429C14.2409 10.7992 8.26292 15.0492 6.37335 17.5921Z" fill="#CDCDCD"/>
<path d="M14.8488 23.2258C20.7117 18.3888 27.5009 22.0921 30.1626 24.5483C32.6981 17.5669 36.4256 17.3024 38.6451 18.562C48.4663 25.2337 36.0746 39.527 28.2629 44.5211C17.2845 43.5995 7.52017 29.272 14.8488 23.2258Z" fill="white"/>
<path fill-rule="evenodd" clip-rule="evenodd" d="M17.1375 25.8974C17.2921 25.8082 17.4877 25.8577 17.5745 26.0081L18.832 28.1861C18.9188 28.3364 18.8639 28.5306 18.7094 28.6199C18.5548 28.7091 18.3592 28.6595 18.2724 28.5092L17.0149 26.3312C16.9281 26.1808 16.983 25.9866 17.1375 25.8974ZM21.3158 26.0261C21.4703 25.9369 21.6659 25.9864 21.7528 26.1368L23.1674 28.587C23.2542 28.7374 23.1993 28.9316 23.0448 29.0208C22.8902 29.11 22.6946 29.0605 22.6078 28.9101L21.1931 26.4599C21.1063 26.3095 21.1612 26.1153 21.3158 26.0261ZM16.2774 30.4009C16.4022 30.2738 16.6054 30.2681 16.7313 30.3882L18.3912 31.9708C18.5171 32.0909 18.5181 32.2913 18.3934 32.4184C18.2686 32.5455 18.0654 32.5512 17.9395 32.4311L16.2796 30.8484C16.1537 30.7284 16.1527 30.528 16.2774 30.4009ZM34.6421 21.647C34.8193 21.6441 34.9619 21.7835 34.9606 21.9583L34.9417 24.5103C34.9404 24.6851 34.7956 24.8291 34.6184 24.832C34.4411 24.8348 34.2985 24.6954 34.2998 24.5206L34.3188 21.9687C34.3201 21.7939 34.4648 21.6498 34.6421 21.647ZM20.4919 29.7687C20.6465 29.6795 20.8421 29.7291 20.9289 29.8794L22.0292 31.7852C22.116 31.9355 22.0611 32.1297 21.9066 32.219C21.752 32.3082 21.5564 32.2586 21.4696 32.1083L20.3693 30.2025C20.2825 30.0522 20.3374 29.8579 20.4919 29.7687ZM27.1196 27.4236C27.2959 27.4008 27.4541 27.5228 27.473 27.6962L27.7338 30.0866C27.7528 30.2599 27.6252 30.4189 27.449 30.4417C27.2728 30.4645 27.1145 30.3424 27.0956 30.1691L26.8348 27.7787C26.8159 27.6053 26.9434 27.4463 27.1196 27.4236ZM30.328 28.4718C30.5037 28.4448 30.665 28.563 30.6882 28.7357L30.9145 30.42C30.9377 30.5928 30.8141 30.7547 30.6384 30.7817C30.4626 30.8087 30.3014 30.6906 30.2782 30.5178L30.0519 28.8335C30.0287 28.6607 30.1523 28.4988 30.328 28.4718ZM34.5863 26.7516C34.7634 26.7391 34.9138 26.8703 34.9223 27.0447L35.0606 29.8688C35.0691 30.0432 34.9325 30.1948 34.7554 30.2073C34.5784 30.2199 34.428 30.0887 34.4194 29.9143L34.2812 27.0901C34.2727 26.9157 34.4093 26.7642 34.5863 26.7516ZM21.0182 35.2751C21.1622 35.1698 21.3628 35.1976 21.4661 35.3372L23.1606 37.6259C23.2639 37.7655 23.2309 37.964 23.0869 38.0693C22.9429 38.1745 22.7424 38.1467 22.6391 38.0071L20.9446 35.7184C20.8413 35.5789 20.8742 35.3804 21.0182 35.2751ZM23.5665 33.8016C23.721 33.7124 23.9167 33.762 24.0035 33.9123L25.5753 36.6348C25.6621 36.7852 25.6072 36.9794 25.4527 37.0686C25.2981 37.1578 25.1025 37.1083 25.0157 36.9579L23.4439 34.2354C23.357 34.0851 23.4119 33.8908 23.5665 33.8016ZM27.5875 33.6581C27.742 33.5689 27.9377 33.6184 28.0245 33.7688L29.4392 36.219C29.526 36.3694 29.4711 36.5636 29.3165 36.6528C29.162 36.742 28.9663 36.6925 28.8795 36.5421L27.4649 34.0919C27.3781 33.9415 27.433 33.7473 27.5875 33.6581ZM37.5572 28.6664C37.7343 28.6538 37.8847 28.785 37.8932 28.9594L37.9623 30.3715C37.9709 30.5459 37.8343 30.6974 37.6572 30.71C37.4802 30.7226 37.3297 30.5914 37.3212 30.417L37.2521 29.0049C37.2436 28.8305 37.3802 28.6789 37.5572 28.6664ZM34.5883 31.8551C34.765 31.8643 34.8973 32.0133 34.8839 32.1879L34.7077 34.4676C34.6942 34.6422 34.54 34.7763 34.3633 34.7671C34.1865 34.758 34.0542 34.609 34.0677 34.4344L34.2438 32.1547C34.2573 31.9801 34.4115 31.846 34.5883 31.8551ZM36.9374 31.9797C37.1109 32.0116 37.222 32.1768 37.1855 32.3487L36.4843 35.6575C36.4479 35.8294 36.2777 35.943 36.1043 35.9111C35.9308 35.8792 35.8197 35.714 35.8562 35.5421L36.5574 32.2333C36.5938 32.0614 36.764 31.9479 36.9374 31.9797Z" fill="#CDCDCD"/>
<path d="M30.6506 40.0026C24.7628 39.6268 19.6072 40.6916 17.9053 41.1902L25.2807 44.918L32.8668 47.0721L38.1141 42.5906L42.2076 38.0492C39.3832 36.7759 33.3261 38.8209 30.6506 40.0026Z" fill="#9B9B9B"/>
<g style="mix-blend-mode:multiply">
<path d="M6.37335 17.5921C-2.78223 32.7517 19.8198 43.4668 32.2652 46.9294C52.1163 32.2014 51.4787 16.2345 47.5647 12.6863C44.4335 9.84769 39.6746 12.1596 37.6866 13.6704C31.4117 5.38683 25.305 10.5339 23.0361 14.1429C14.2409 10.7992 8.26292 15.0492 6.37335 17.5921Z" fill="#FD5936"/>
<path d="M14.8488 23.2258C20.7117 18.3888 27.5009 22.0921 30.1626 24.5483C32.6981 17.5669 36.4256 17.3024 38.6451 18.562C48.4663 25.2337 36.0746 39.527 28.2629 44.5211C17.2845 43.5995 7.52017 29.272 14.8488 23.2258Z" fill="#FD5936"/>
<path fill-rule="evenodd" clip-rule="evenodd" d="M17.1375 25.8974C17.2921 25.8082 17.4877 25.8577 17.5745 26.0081L18.832 28.1861C18.9188 28.3364 18.8639 28.5306 18.7094 28.6199C18.5548 28.7091 18.3592 28.6595 18.2724 28.5092L17.0149 26.3312C16.9281 26.1808 16.983 25.9866 17.1375 25.8974ZM21.3158 26.0261C21.4703 25.9369 21.6659 25.9864 21.7528 26.1368L23.1674 28.587C23.2542 28.7374 23.1993 28.9316 23.0448 29.0208C22.8902 29.11 22.6946 29.0605 22.6078 28.9101L21.1931 26.4599C21.1063 26.3095 21.1612 26.1153 21.3158 26.0261ZM16.2774 30.4009C16.4022 30.2738 16.6054 30.2681 16.7313 30.3882L18.3912 31.9708C18.5171 32.0909 18.5181 32.2913 18.3934 32.4184C18.2686 32.5455 18.0654 32.5512 17.9395 32.4311L16.2796 30.8484C16.1537 30.7284 16.1527 30.528 16.2774 30.4009ZM34.6421 21.647C34.8193 21.6441 34.9619 21.7835 34.9606 21.9583L34.9417 24.5103C34.9404 24.6851 34.7956 24.8291 34.6184 24.832C34.4411 24.8348 34.2985 24.6954 34.2998 24.5206L34.3188 21.9687C34.3201 21.7939 34.4648 21.6498 34.6421 21.647ZM20.4919 29.7687C20.6465 29.6795 20.8421 29.7291 20.9289 29.8794L22.0292 31.7852C22.116 31.9355 22.0611 32.1297 21.9066 32.219C21.752 32.3082 21.5564 32.2586 21.4696 32.1083L20.3693 30.2025C20.2825 30.0522 20.3374 29.8579 20.4919 29.7687ZM27.1196 27.4236C27.2959 27.4008 27.4541 27.5228 27.473 27.6962L27.7338 30.0866C27.7528 30.2599 27.6252 30.4189 27.449 30.4417C27.2728 30.4645 27.1145 30.3424 27.0956 30.1691L26.8348 27.7787C26.8159 27.6053 26.9434 27.4463 27.1196 27.4236ZM30.328 28.4718C30.5037 28.4448 30.665 28.563 30.6882 28.7357L30.9145 30.42C30.9377 30.5928 30.8141 30.7547 30.6384 30.7817C30.4626 30.8087 30.3014 30.6906 30.2782 30.5178L30.0519 28.8335C30.0287 28.6607 30.1523 28.4988 30.328 28.4718ZM34.5863 26.7516C34.7634 26.7391 34.9138 26.8703 34.9223 27.0447L35.0606 29.8688C35.0691 30.0432 34.9325 30.1948 34.7554 30.2073C34.5784 30.2199 34.428 30.0887 34.4194 29.9143L34.2812 27.0901C34.2727 26.9157 34.4093 26.7642 34.5863 26.7516ZM21.0182 35.2751C21.1622 35.1698 21.3628 35.1976 21.4661 35.3372L23.1606 37.6259C23.2639 37.7655 23.2309 37.964 23.0869 38.0693C22.9429 38.1745 22.7424 38.1467 22.6391 38.0071L20.9446 35.7184C20.8413 35.5789 20.8742 35.3804 21.0182 35.2751ZM23.5665 33.8016C23.721 33.7124 23.9167 33.762 24.0035 33.9123L25.5753 36.6348C25.6621 36.7852 25.6072 36.9794 25.4527 37.0686C25.2981 37.1578 25.1025 37.1083 25.0157 36.9579L23.4439 34.2354C23.357 34.0851 23.4119 33.8908 23.5665 33.8016ZM27.5875 33.6581C27.742 33.5689 27.9377 33.6184 28.0245 33.7688L29.4392 36.219C29.526 36.3694 29.4711 36.5636 29.3165 36.6528C29.162 36.742 28.9663 36.6925 28.8795 36.5421L27.4649 34.0919C27.3781 33.9415 27.433 33.7473 27.5875 33.6581ZM37.5572 28.6664C37.7343 28.6538 37.8847 28.785 37.8932 28.9594L37.9623 30.3715C37.9709 30.5459 37.8343 30.6974 37.6572 30.71C37.4802 30.7226 37.3297 30.5914 37.3212 30.417L37.2521 29.0049C37.2436 28.8305 37.3802 28.6789 37.5572 28.6664ZM34.5883 31.8551C34.765 31.8643 34.8973 32.0133 34.8839 32.1879L34.7077 34.4676C34.6942 34.6422 34.54 34.7763 34.3633 34.7671C34.1865 34.758 34.0542 34.609 34.0677 34.4344L34.2438 32.1547C34.2573 31.9801 34.4115 31.846 34.5883 31.8551ZM36.9374 31.9797C37.1109 32.0116 37.222 32.1768 37.1855 32.3487L36.4843 35.6575C36.4479 35.8294 36.2777 35.943 36.1043 35.9111C35.9308 35.8792 35.8197 35.714 35.8562 35.5421L36.5574 32.2333C36.5938 32.0614 36.764 31.9479 36.9374 31.9797Z" fill="#FD5936"/>
<path d="M30.6506 40.0026C24.7628 39.6268 19.6072 40.6916 17.9053 41.1902L25.2807 44.918L32.8668 47.0721L38.1141 42.5906L42.2076 38.0492C39.3832 36.7759 33.3261 38.8209 30.6506 40.0026Z" fill="#FD5936"/>
</g>
<g style="mix-blend-mode:soft-light">
<path d="M6.37335 17.5921C-2.78223 32.7517 19.8198 43.4668 32.2652 46.9294C52.1163 32.2014 51.4787 16.2345 47.5647 12.6863C44.4335 9.84769 39.6746 12.1596 37.6866 13.6704C31.4117 5.38683 25.305 10.5339 23.0361 14.1429C14.2409 10.7992 8.26292 15.0492 6.37335 17.5921Z" fill="#FD5936"/>
<path d="M14.8488 23.2258C20.7117 18.3888 27.5009 22.0921 30.1626 24.5483C32.6981 17.5669 36.4256 17.3024 38.6451 18.562C48.4663 25.2337 36.0746 39.527 28.2629 44.5211C17.2845 43.5995 7.52017 29.272 14.8488 23.2258Z" fill="#FD5936"/>
<path fill-rule="evenodd" clip-rule="evenodd" d="M17.1375 25.8974C17.2921 25.8082 17.4877 25.8577 17.5745 26.0081L18.832 28.1861C18.9188 28.3364 18.8639 28.5306 18.7094 28.6199C18.5548 28.7091 18.3592 28.6595 18.2724 28.5092L17.0149 26.3312C16.9281 26.1808 16.983 25.9866 17.1375 25.8974ZM21.3158 26.0261C21.4703 25.9369 21.6659 25.9864 21.7528 26.1368L23.1674 28.587C23.2542 28.7374 23.1993 28.9316 23.0448 29.0208C22.8902 29.11 22.6946 29.0605 22.6078 28.9101L21.1931 26.4599C21.1063 26.3095 21.1612 26.1153 21.3158 26.0261ZM16.2774 30.4009C16.4022 30.2738 16.6054 30.2681 16.7313 30.3882L18.3912 31.9708C18.5171 32.0909 18.5181 32.2913 18.3934 32.4184C18.2686 32.5455 18.0654 32.5512 17.9395 32.4311L16.2796 30.8484C16.1537 30.7284 16.1527 30.528 16.2774 30.4009ZM34.6421 21.647C34.8193 21.6441 34.9619 21.7835 34.9606 21.9583L34.9417 24.5103C34.9404 24.6851 34.7956 24.8291 34.6184 24.832C34.4411 24.8348 34.2985 24.6954 34.2998 24.5206L34.3188 21.9687C34.3201 21.7939 34.4648 21.6498 34.6421 21.647ZM20.4919 29.7687C20.6465 29.6795 20.8421 29.7291 20.9289 29.8794L22.0292 31.7852C22.116 31.9355 22.0611 32.1297 21.9066 32.219C21.752 32.3082 21.5564 32.2586 21.4696 32.1083L20.3693 30.2025C20.2825 30.0522 20.3374 29.8579 20.4919 29.7687ZM27.1196 27.4236C27.2959 27.4008 27.4541 27.5228 27.473 27.6962L27.7338 30.0866C27.7528 30.2599 27.6252 30.4189 27.449 30.4417C27.2728 30.4645 27.1145 30.3424 27.0956 30.1691L26.8348 27.7787C26.8159 27.6053 26.9434 27.4463 27.1196 27.4236ZM30.328 28.4718C30.5037 28.4448 30.665 28.563 30.6882 28.7357L30.9145 30.42C30.9377 30.5928 30.8141 30.7547 30.6384 30.7817C30.4626 30.8087 30.3014 30.6906 30.2782 30.5178L30.0519 28.8335C30.0287 28.6607 30.1523 28.4988 30.328 28.4718ZM34.5863 26.7516C34.7634 26.7391 34.9138 26.8703 34.9223 27.0447L35.0606 29.8688C35.0691 30.0432 34.9325 30.1948 34.7554 30.2073C34.5784 30.2199 34.428 30.0887 34.4194 29.9143L34.2812 27.0901C34.2727 26.9157 34.4093 26.7642 34.5863 26.7516ZM21.0182 35.2751C21.1622 35.1698 21.3628 35.1976 21.4661 35.3372L23.1606 37.6259C23.2639 37.7655 23.2309 37.964 23.0869 38.0693C22.9429 38.1745 22.7424 38.1467 22.6391 38.0071L20.9446 35.7184C20.8413 35.5789 20.8742 35.3804 21.0182 35.2751ZM23.5665 33.8016C23.721 33.7124 23.9167 33.762 24.0035 33.9123L25.5753 36.6348C25.6621 36.7852 25.6072 36.9794 25.4527 37.0686C25.2981 37.1578 25.1025 37.1083 25.0157 36.9579L23.4439 34.2354C23.357 34.0851 23.4119 33.8908 23.5665 33.8016ZM27.5875 33.6581C27.742 33.5689 27.9377 33.6184 28.0245 33.7688L29.4392 36.219C29.526 36.3694 29.4711 36.5636 29.3165 36.6528C29.162 36.742 28.9663 36.6925 28.8795 36.5421L27.4649 34.0919C27.3781 33.9415 27.433 33.7473 27.5875 33.6581ZM37.5572 28.6664C37.7343 28.6538 37.8847 28.785 37.8932 28.9594L37.9623 30.3715C37.9709 30.5459 37.8343 30.6974 37.6572 30.71C37.4802 30.7226 37.3297 30.5914 37.3212 30.417L37.2521 29.0049C37.2436 28.8305 37.3802 28.6789 37.5572 28.6664ZM34.5883 31.8551C34.765 31.8643 34.8973 32.0133 34.8839 32.1879L34.7077 34.4676C34.6942 34.6422 34.54 34.7763 34.3633 34.7671C34.1865 34.758 34.0542 34.609 34.0677 34.4344L34.2438 32.1547C34.2573 31.9801 34.4115 31.846 34.5883 31.8551ZM36.9374 31.9797C37.1109 32.0116 37.222 32.1768 37.1855 32.3487L36.4843 35.6575C36.4479 35.8294 36.2777 35.943 36.1043 35.9111C35.9308 35.8792 35.8197 35.714 35.8562 35.5421L36.5574 32.2333C36.5938 32.0614 36.764 31.9479 36.9374 31.9797Z" fill="#FD5936"/>
<path d="M30.6506 40.0026C24.7628 39.6268 19.6072 40.6916 17.9053 41.1902L25.2807 44.918L32.8668 47.0721L38.1141 42.5906L42.2076 38.0492C39.3832 36.7759 33.3261 38.8209 30.6506 40.0026Z" fill="#FD5936"/>
</g>
</svg>
