<svg width="60" height="130" viewBox="0 0 60 130" fill="none" xmlns="http://www.w3.org/2000/svg">
<rect y="70" width="60" height="60" fill="#5D7D5F"/>
<path d="M31.0732 27.5C32.1499 34.8232 33.6572 51.9413 31.0732 61.8277C27.8432 74.1856 24.8616 92.036 29.0855 100" stroke="#0A3019" stroke-linecap="round"/>
<path d="M45.477 62.5075C48.9012 55.1457 52.6107 58.0981 54.0374 60.4945C58.3747 67.6262 52.04 68.2588 48.3305 67.6837C49.4719 72.5148 44.4307 72.3806 41.7675 71.7097C42.4523 77.461 38.4384 76.2149 36.3458 74.8729C36.8024 77.8636 34.6338 78.2279 33.4924 78.0362C36.46 82.1771 32.2559 81.1036 29.7828 80.0491C27.0435 75.9082 28.6415 75.448 29.7828 75.7356C28.6415 68.1438 31.7803 68.5464 33.4924 69.6967C33.0358 64.6355 36.7263 65.479 38.6286 66.5334C39.5417 61.9323 43.5747 61.9323 45.477 62.5075Z" fill="#F3AC46"/>
<mask id="mask0_295_2175" style="mask-type:alpha" maskUnits="userSpaceOnUse" x="29" y="57" width="27" height="23">
<path fill-rule="evenodd" clip-rule="evenodd" d="M48.9537 57.97C48.831 57.9409 48.708 58.0174 48.6791 58.1411L46.7403 66.4215L52.2774 67.6211C52.4007 67.6478 52.5221 67.5687 52.5486 67.4445C52.5751 67.3203 52.4966 67.1979 52.3734 67.1712L47.2916 66.0703L49.1234 58.2468C49.1524 58.1231 49.0764 57.9992 48.9537 57.97ZM50.3659 57.9671C50.2416 57.946 50.1238 58.0304 50.1029 58.1557L48.9251 65.1949L54.8458 66.4708C54.9691 66.4974 55.0904 66.4182 55.1168 66.294C55.1431 66.1697 55.0646 66.0475 54.9413 66.0209L49.448 64.8371L50.5531 58.2322C50.574 58.1069 50.4902 57.9882 50.3659 57.9671ZM51.768 58.2518C51.6422 58.2444 51.5342 58.3412 51.5268 58.4681L51.2326 63.5369L55.1117 64.7403C55.2322 64.7777 55.36 64.7096 55.3971 64.5881C55.4342 64.4667 55.3665 64.338 55.246 64.3006L51.7093 63.2034L51.9826 58.4949C51.99 58.3681 51.8939 58.2593 51.768 58.2518ZM52.9891 59.4017C52.863 59.4017 52.7608 59.5047 52.7608 59.6318V62.1305L54.8597 62.4474C54.9844 62.4662 55.1006 62.3796 55.1193 62.254C55.138 62.1283 55.052 62.0112 54.9274 61.9924L53.2173 61.7342V59.6318C53.2173 59.5047 53.1151 59.4017 52.9891 59.4017ZM44.1114 62.2858C43.99 62.2518 43.8641 62.3235 43.8304 62.4459L42.1877 68.4034L47.9683 70.4884C48.087 70.5312 48.2176 70.469 48.2601 70.3493C48.3026 70.2297 48.2408 70.098 48.1221 70.0552L42.7413 68.1143L44.2703 62.5691C44.304 62.4466 44.2329 62.3198 44.1114 62.2858ZM45.5047 62.2791C45.3795 62.2637 45.2657 62.3535 45.2505 62.4796L44.6582 67.3756L48.2489 68.7613C48.3666 68.8067 48.4986 68.7473 48.5437 68.6287C48.5888 68.51 48.5299 68.377 48.4122 68.3316L45.1545 67.0745L45.7037 62.5353C45.7189 62.4092 45.6298 62.2945 45.5047 62.2791ZM41.5287 62.5698C41.4053 62.5439 41.2844 62.6238 41.2587 62.7481L39.7923 69.8462L45.9666 72.2123C46.0845 72.2574 46.2163 72.1978 46.2611 72.079C46.3059 71.9602 46.2467 71.8274 46.1289 71.7822L40.3186 69.5557L41.7057 62.8419C41.7314 62.7175 41.6521 62.5957 41.5287 62.5698ZM38.6565 66.3051C38.5314 66.2896 38.4175 66.3793 38.4021 66.5054L37.8107 71.3673L41.6761 73.0707C41.7916 73.1216 41.9262 73.0685 41.9767 72.9521C42.0272 72.8357 41.9745 72.7001 41.859 72.6492L38.3053 71.083L38.8553 66.5614C38.8706 66.4353 38.7816 66.3205 38.6565 66.3051ZM36.9416 66.3048C36.8163 66.2908 36.7035 66.3819 36.6897 66.5082L35.9754 73.0408L41.4338 74.235C41.557 74.262 41.6785 74.1832 41.7053 74.059C41.732 73.9349 41.6538 73.8124 41.5306 73.7854L36.4742 72.6791L37.1435 66.5586C37.1573 66.4323 37.0669 66.3187 36.9416 66.3048ZM34.6449 68.6042C34.519 68.598 34.412 68.6959 34.4058 68.8228L34.1096 74.9679L40.8974 75.3901C41.0233 75.3979 41.1316 75.3015 41.1393 75.1747C41.1471 75.0478 41.0514 74.9387 40.9256 74.9309L34.5874 74.5366L34.8619 68.8451C34.868 68.7182 34.7708 68.6104 34.6449 68.6042ZM32.3511 69.1791C32.225 69.1791 32.1228 69.2821 32.1228 69.4091V77.234H36.0606C36.1867 77.234 36.2889 77.131 36.2889 77.004C36.2889 76.8769 36.1867 76.7739 36.0606 76.7739H32.5793V69.4091C32.5793 69.2821 32.4771 69.1791 32.3511 69.1791ZM29.7466 75.5085C29.6221 75.5287 29.5375 75.6468 29.5576 75.7722L30.1866 79.7041H34.0631C34.1892 79.7041 34.2914 79.6011 34.2914 79.474C34.2914 79.347 34.1892 79.244 34.0631 79.244H30.5754L30.0083 75.699C29.9882 75.5736 29.8711 75.4883 29.7466 75.5085Z" fill="#2E7A48"/>
</mask>
<g mask="url(#mask0_295_2175)">
<g style="mix-blend-mode:multiply">
<path d="M45.477 62.5075C48.9012 55.1457 52.6107 58.0981 54.0374 60.4945C58.3747 67.6262 52.04 68.2588 48.3305 67.6837C49.4719 72.5148 44.4307 72.3806 41.7675 71.7097C42.4523 77.461 38.4384 76.2149 36.3459 74.8729C36.8024 77.8636 34.6338 78.2279 33.4924 78.0362C36.46 82.1771 32.2559 81.1036 29.7829 80.0491C27.0435 75.9082 28.6415 75.448 29.7829 75.7356C28.6415 68.1438 31.7803 68.5464 33.4924 69.6967C33.0358 64.6355 36.7263 65.479 38.6286 66.5334C39.5417 61.9323 43.5747 61.9323 45.477 62.5075Z" fill="#F3AC46"/>
</g>
</g>
<g style="mix-blend-mode:multiply">
<path fill-rule="evenodd" clip-rule="evenodd" d="M54.165 60.2373C54.024 60.1662 53.8526 60.2238 53.7821 60.3659C53.475 60.9849 52.5967 62.1185 50.9576 63.4173C49.3244 64.7113 46.9484 66.1592 43.6636 67.4148C40.2917 68.7038 36.9027 71.5945 34.0477 74.6543C31.1875 77.7198 28.8366 80.9844 27.5437 83.0595C27.4599 83.194 27.5001 83.3715 27.6336 83.4559C27.7671 83.5404 27.9432 83.4998 28.027 83.3653C29.3023 81.3186 31.631 78.0841 34.4635 75.0483C37.3012 72.0069 40.6178 69.1942 43.866 67.9526C47.2013 66.6776 49.6287 65.2018 51.3103 63.8694C52.9859 62.5417 53.9339 61.346 54.2926 60.6231C54.363 60.481 54.3059 60.3083 54.165 60.2373Z" fill="#F3AC46"/>
</g>
<path d="M36.953 19.2762C38.0965 15.0085 38.6661 6.8978 36.1054 6.21168C33.5448 5.52556 29.9828 12.8344 28.8392 17.1021C27.6957 21.3698 27.3332 28.7078 29.8938 29.3939C32.4544 30.08 35.8095 23.5439 36.953 19.2762Z" fill="#F3AC46"/>
<path d="M27.6387 16.9268C25.4295 13.1004 20.0972 6.96257 17.8014 8.28805C15.5056 9.61353 18.1549 17.3004 20.3641 21.1268C22.5732 24.9531 27.5056 30.3981 29.8014 29.0727C32.0972 27.7472 29.8478 20.7531 27.6387 16.9268Z" fill="#F3AC46"/>
<path d="M40.0116 36.4531C44.2793 37.5966 52.39 38.1662 53.0761 35.6055C53.7623 33.0449 46.4534 29.4828 42.1857 28.3393C37.918 27.1958 30.58 26.8332 29.8939 29.3939C29.2078 31.9545 35.7439 35.3095 40.0116 36.4531Z" fill="#F3AC46"/>
<path d="M41.9744 27.0351C45.8007 24.8259 51.9386 19.4936 50.6131 17.1977C49.2876 14.9019 41.6007 17.5513 37.7744 19.7605C33.9481 21.9696 28.503 26.9019 29.8285 29.1977C31.154 31.4935 38.1481 29.2442 41.9744 27.0351Z" fill="#F3AC46"/>
<path d="M22.8346 39.5115C21.6911 43.7793 21.1215 51.8899 23.6821 52.5761C26.2428 53.2622 29.8048 45.9533 30.9484 41.6856C32.0919 37.4179 32.4544 30.08 29.8938 29.3939C27.3332 28.7077 23.9781 35.2438 22.8346 39.5115Z" fill="#F3AC46"/>
<path d="M31.8662 41.371C34.0753 45.1974 39.4077 51.3352 41.7035 50.0098C43.9993 48.6843 41.35 40.9974 39.1408 37.171C36.9317 33.3447 31.9993 27.8997 29.7035 29.2251C27.4077 30.5506 29.6571 37.5447 31.8662 41.371Z" fill="#F3AC46"/>
<path d="M19.776 22.3347C15.5083 21.1911 7.39759 20.6216 6.71147 23.1822C6.02534 25.7429 13.3342 29.3049 17.6019 30.4485C21.8696 31.592 29.2076 31.9545 29.8937 29.3939C30.5798 26.8333 24.0437 23.4782 19.776 22.3347Z" fill="#F3AC46"/>
<path d="M17.5305 31.2628C13.7041 33.4719 7.56628 38.8043 8.89177 41.1001C10.2172 43.3959 17.9041 40.7465 21.7305 38.5374C25.5568 36.3283 31.0019 31.3959 29.6764 29.1001C28.3509 26.8043 21.3568 29.0537 17.5305 31.2628Z" fill="#F3AC46"/>
<g style="mix-blend-mode:multiply">
<ellipse cx="29.8936" cy="29.3939" rx="5.41176" ry="5.41176" transform="rotate(15 29.8936 29.3939)" fill="#F3AC46"/>
<g style="mix-blend-mode:multiply">
<path d="M33.7739 31.6166C33.0195 31.4145 32.7038 30.1467 32.7038 30.1467C32.7038 30.1467 33.6111 29.2067 34.3655 29.4088C35.1199 29.611 37.6212 31.4644 37.6212 31.4644C37.6212 31.4644 34.5283 31.8188 33.7739 31.6166Z" fill="#F3AC46"/>
</g>
<g style="mix-blend-mode:multiply">
<path d="M31.0654 33.7093C30.6749 33.0329 31.3481 31.9132 31.3481 31.9132C31.3481 31.9132 32.6544 31.89 33.0449 32.5664C33.4354 33.2428 33.8936 36.322 33.8936 36.322C33.8936 36.322 31.4559 34.3857 31.0654 33.7093Z" fill="#F3AC46"/>
</g>
<g style="mix-blend-mode:multiply">
<path d="M27.671 33.274C27.8732 32.5196 29.141 32.2038 29.141 32.2038C29.141 32.2038 30.081 33.1112 29.8789 33.8656C29.6767 34.62 27.8233 37.1213 27.8233 37.1213C27.8233 37.1213 27.4689 34.0284 27.671 33.274Z" fill="#F3AC46"/>
</g>
<g style="mix-blend-mode:multiply">
<path d="M25.5784 30.5658C26.2548 30.1753 27.3745 30.8484 27.3745 30.8484C27.3745 30.8484 27.3977 32.1548 26.7213 32.5453C26.0449 32.9358 22.9657 33.3939 22.9657 33.3939C22.9657 33.3939 24.9021 30.9563 25.5784 30.5658Z" fill="#F3AC46"/>
</g>
<g style="mix-blend-mode:multiply">
<path d="M26.0137 27.171C26.7681 27.3732 27.0838 28.6409 27.0838 28.6409C27.0838 28.6409 26.1765 29.581 25.4221 29.3789C24.6677 29.1767 22.1664 27.3233 22.1664 27.3233C22.1664 27.3233 25.2593 26.9689 26.0137 27.171Z" fill="#F3AC46"/>
</g>
<g style="mix-blend-mode:multiply">
<path d="M28.7217 25.0784C29.1122 25.7548 28.439 26.8746 28.439 26.8746C28.439 26.8746 27.1327 26.8977 26.7422 26.2213C26.3517 25.5449 25.8936 22.4657 25.8936 22.4657C25.8936 22.4657 28.3312 24.4021 28.7217 25.0784Z" fill="#F3AC46"/>
</g>
<g style="mix-blend-mode:multiply">
<path d="M32.1166 25.5138C31.9144 26.2682 30.6466 26.584 30.6466 26.584C30.6466 26.584 29.7066 25.6766 29.9087 24.9222C30.1109 24.1678 31.9643 21.6665 31.9643 21.6665C31.9643 21.6665 32.3187 24.7594 32.1166 25.5138Z" fill="#F3AC46"/>
</g>
<g style="mix-blend-mode:multiply">
<path d="M34.2092 28.222C33.5328 28.6125 32.4131 27.9393 32.4131 27.9393C32.4131 27.9393 32.3899 26.633 33.0663 26.2425C33.7427 25.852 36.8219 25.3938 36.8219 25.3938C36.8219 25.3938 34.8855 27.8314 34.2092 28.222Z" fill="#F3AC46"/>
</g>
</g>
<path d="M21.2159 52.3499C19.5861 51.6777 16.245 49.0667 15.919 44C17.6846 44.6136 21.2159 47.1427 21.2159 52.3499Z" fill="#F3AC46"/>
<path d="M18.3637 57.283C16.7339 57.5648 13.3929 57.2513 13.0669 53.7436C14.1534 53.2613 16.7339 53.2941 18.3637 57.283Z" fill="#F3AC46"/>
<path d="M24.6242 53.7436C23.6918 52.9316 22.2345 50.2359 23.8643 45.9487C24.7783 47.5726 26.21 51.4051 24.6242 53.7436Z" fill="#F3AC46"/>
<path d="M18.7712 62.0256C18.7018 63.8932 19.5192 67.5795 23.3445 67.3846C22.846 64.0718 20.0879 62.4316 18.7712 62.0256Z" fill="#F3AC46"/>
<path d="M31.1984 57.8846C30.1797 57.8846 26.8424 58.6641 28.5067 65.6795C31.6058 60.8077 31.1984 58.3718 31.1984 57.8846Z" fill="#F3AC46"/>
<path d="M31.1984 68.6026C31.9397 70.2265 32.8334 74.1077 30.4769 76.641C28.7589 73.718 30.242 70.0641 31.1984 68.6026Z" fill="#F3AC46"/>
<path d="M21.2159 71.0385C22.7778 71.1915 25.9015 73.0107 25.9015 79.0629C22.479 78.8568 21.3517 73.6274 21.2159 71.0385Z" fill="#F3AC46"/>
<path fill-rule="evenodd" clip-rule="evenodd" d="M18.4833 47.5308C18.5405 47.4757 18.6245 47.4863 18.6708 47.5542C20.0395 49.5627 22.0747 53.3571 23.9786 58.4944C24.1886 57.9474 24.4106 56.9861 24.4843 55.6092C24.5725 53.9589 24.4468 51.7224 23.8382 48.9112C23.8198 48.8265 23.8628 48.7402 23.9341 48.7184C24.0054 48.6967 24.0781 48.7477 24.0965 48.8324C24.7113 51.6724 24.8406 53.9424 24.7504 55.6293C24.6644 57.2368 24.3786 58.3247 24.1168 58.8702C25.2215 61.8997 26.2757 65.3824 27.1213 69.2312C27.3835 68.797 27.7368 68.0126 28.0732 66.8403C28.4833 65.4109 28.8656 63.4147 29.0278 60.7961C29.0332 60.7089 29.0971 60.6434 29.1706 60.6498C29.244 60.6562 29.2992 60.7321 29.2938 60.8193C29.13 63.4622 28.7437 65.4852 28.3256 66.9424C27.9306 68.3191 27.5045 69.1997 27.2054 69.6187C27.99 73.2732 28.5842 77.2514 28.8554 81.48C29.6878 79.6866 30.9537 75.7862 30.6577 71.5387C30.6516 71.4515 30.7062 71.375 30.7796 71.3678C30.853 71.3606 30.9174 71.4254 30.9235 71.5126C31.2524 76.2324 29.692 80.5209 28.8663 82.0841L28.7923 82.2242L28.6777 82.1304C27.3786 81.0676 24.4108 78.061 22.9296 74.5191C22.8969 74.4408 22.9238 74.3458 22.9898 74.3069C23.0557 74.268 23.1357 74.3 23.1685 74.3783C24.5402 77.6585 27.2265 80.4893 28.6004 81.677C28.3357 77.4032 27.7386 73.3839 26.9467 69.6953C26.1327 69.32 24.8626 68.6351 23.6091 67.7585C22.3249 66.8606 21.0435 65.7514 20.2937 64.5561C20.2497 64.486 20.2619 64.3868 20.321 64.3345C20.3801 64.2823 20.4636 64.2968 20.5076 64.3669C21.2246 65.5101 22.4682 66.5932 23.7444 67.4857C24.8957 68.2908 26.0617 68.9325 26.8643 69.3161C26.0234 65.4877 24.9753 62.0231 23.8768 59.0089C22.9938 58.9184 21.5636 58.6487 20.0306 58.122C18.4514 57.5794 16.753 56.7607 15.4309 55.5751C15.3722 55.5224 15.3605 55.4231 15.4049 55.3533C15.4492 55.2835 15.5329 55.2697 15.5916 55.3224C16.8772 56.4752 18.5408 57.2804 20.1047 57.8178C21.5393 58.3107 22.8815 58.5753 23.7551 58.6775C21.8529 53.5325 19.8195 49.7433 18.4635 47.7534C18.4172 47.6855 18.426 47.5858 18.4833 47.5308Z" fill="#0A3019"/>
</svg>
