<svg width="60" height="130" viewBox="0 0 60 130" fill="none" xmlns="http://www.w3.org/2000/svg">
<rect y="70" width="60" height="60" fill="#5D7D5F"/>
<path fill-rule="evenodd" clip-rule="evenodd" d="M48.9711 44.2509C49.1087 44.2625 49.2108 44.3835 49.1991 44.5211C48.5114 52.6595 45.5807 58.796 42.4579 62.9921C40.1561 66.0852 37.7459 68.1294 36.0455 69.1441C36.0312 70.1567 36.0014 71.196 35.9546 72.261C35.6073 80.1538 34.322 89.4606 31.4409 99.817C31.4039 99.9501 31.266 100.028 31.133 99.9909C31 99.9539 30.9222 99.8161 30.9592 99.683C33.8124 89.4268 35.0938 80.2076 35.4487 72.3823C34.0233 71.4578 32.222 70.1165 30.2857 68.4281C28.2513 66.6541 26.0653 64.4945 24.0081 62.0291C23.3203 61.2048 22.6467 60.3462 21.998 59.4562C19.0802 55.4533 16.6591 50.809 15.7044 45.7968C15.6786 45.6612 15.7676 45.5303 15.9032 45.5044C16.0389 45.4786 16.1698 45.5676 16.1956 45.7032C17.1323 50.621 19.5124 55.1975 22.4021 59.1617C23.0439 60.0423 23.7107 60.8923 24.392 61.7088C26.4301 64.1513 28.597 66.2922 30.6143 68.0512C32.4239 69.6291 34.1108 70.898 35.4734 71.8007C35.5115 70.8445 35.5358 69.9097 35.5475 68.9968C35.6835 58.3248 33.1831 43.9022 31.8065 40.3231C31.7569 40.1942 31.8212 40.0496 31.9501 40C32.0789 39.9504 32.2236 40.0147 32.2732 40.1436C33.6593 43.7475 36.1392 58.0722 36.0522 68.553C37.6717 67.527 39.9065 65.5831 42.0568 62.6936C45.1292 58.5651 48.0217 52.5161 48.7009 44.479C48.7125 44.3414 48.8335 44.2393 48.9711 44.2509Z" fill="#0A3019"/>
<path fill-rule="evenodd" clip-rule="evenodd" d="M44.2214 40.0904C44.3184 40.1433 44.3541 40.2648 44.3012 40.3618C43.9501 41.75 43.9969 41.8195 43.5582 44.8293C43.1856 47.3859 42.9277 50.2642 42.7557 53.0616C43.5351 50.8199 44.5875 47.9355 45.6423 45.3251C46.2854 43.7335 45.8563 44.7567 46.442 43.5726C46.7348 42.9807 47.014 42.4632 47.272 42.0478C47.5275 41.6363 47.7707 41.3108 47.9939 41.1155C48.0771 41.0428 48.2034 41.0512 48.2762 41.1343C48.3489 41.2174 48.3405 41.3438 48.2574 41.4165C48.0806 41.5712 47.8628 41.8546 47.6118 42.2588C47.3631 42.6592 47.0902 43.1643 46.8005 43.75C46.2212 44.9211 46.6547 43.8874 46.0132 45.4749C44.7352 48.6376 43.4598 52.2064 42.6722 54.5379C42.5078 57.7194 42.4511 60.6947 42.4574 62.8423C42.4577 62.9527 42.3684 63.0425 42.258 63.0428C42.1475 63.0432 42.0577 62.9539 42.0574 62.8434C42.0511 60.6826 42.1082 57.689 42.2742 54.4896C42.4424 51.2469 42.7225 47.7893 43.1624 44.7716C43.6009 41.7627 43.4501 41.75 43.9501 40.1702C44.003 40.0733 44.1245 40.0375 44.2214 40.0904ZM12.1008 45.5764C12.1967 45.5215 12.3189 45.5549 12.3737 45.6508C13.1742 47.0517 16.3501 53.6109 17.8574 56.7554C19.5536 57.9232 21.1794 58.7172 22.2696 59.1214C22.3732 59.1598 22.426 59.2749 22.3876 59.3785C22.3492 59.4821 22.2341 59.5349 22.1305 59.4965C20.9982 59.0766 19.3242 58.2566 17.5863 57.0543C15.0433 55.2951 12.3414 52.7022 11.0139 49.3231C10.9735 49.2203 11.0241 49.1042 11.1269 49.0638C11.2297 49.0235 11.3458 49.0741 11.3862 49.1769C12.5656 52.1789 14.8737 54.5598 17.182 56.2726C15.5833 52.9461 12.7663 47.144 12.0264 45.8492C11.9716 45.7533 12.0049 45.6312 12.1008 45.5764ZM20.5649 48.6026C20.6463 48.5279 20.7728 48.5334 20.8475 48.6149C21.4227 49.2424 21.9117 50.1791 22.3268 51.2667C22.7431 52.3577 23.0909 53.6165 23.3765 54.9012C23.9478 57.4706 24.2739 60.1601 24.3995 61.8542C24.4077 61.9643 24.325 62.0602 24.2148 62.0684C24.1047 62.0766 24.0088 61.9939 24.0006 61.8837C23.8762 60.2048 23.5523 57.5349 22.9861 54.988C22.703 53.7146 22.3601 52.4761 21.953 51.4093C21.5447 50.3392 21.0774 49.4576 20.5526 48.8851C20.478 48.8037 20.4835 48.6772 20.5649 48.6026ZM26.9393 51.3003C27.0496 51.2943 27.1438 51.3789 27.1498 51.4892C27.3474 55.1451 28.8473 58.8008 30.653 61.8929C32.4579 64.9835 34.5589 67.4947 35.9381 68.8577C36.0166 68.9354 36.0174 69.062 35.9397 69.1406C35.8621 69.2191 35.7354 69.2199 35.6569 69.1422C34.2536 67.7553 32.1308 65.2165 30.3076 62.0946C28.4853 58.9741 26.9527 55.2549 26.7503 51.5108C26.7444 51.4005 26.829 51.3063 26.9393 51.3003ZM48.3613 57.3817C48.4267 57.4708 48.4074 57.5959 48.3183 57.6613C46.8579 58.7322 45.5724 60.6758 44.5565 62.6961C43.6925 64.4143 43.0334 66.1678 42.6334 67.4412C44.641 65.8051 46.7927 63.7764 48.7964 61.372C48.8671 61.2871 48.9932 61.2756 49.0781 61.3463C49.1629 61.4171 49.1744 61.5432 49.1037 61.628C46.912 64.2581 44.5463 66.4411 42.3816 68.1567C39.586 70.3724 37.1202 71.813 35.7891 72.4314C35.6889 72.4779 35.57 72.4345 35.5235 72.3343C35.4769 72.2341 35.5204 72.1152 35.6206 72.0686C36.9105 71.4693 39.3281 70.0602 42.0827 67.8832C42.4569 66.5772 43.1897 64.5239 44.1991 62.5164C45.2218 60.4825 46.5422 58.4677 48.0818 57.3387C48.1709 57.2734 48.296 57.2926 48.3613 57.3817ZM16.7662 60.4212C16.8097 60.3197 16.9273 60.2726 17.0288 60.3162C17.4088 60.479 17.9742 60.8892 18.6248 61.4244C19.2822 61.9653 20.0466 62.6509 20.8304 63.3833C22.3764 64.8281 24.0048 66.4621 25.0502 67.5443C27.2929 67.98 29.2838 68.0814 30.4429 68.0398C30.5533 68.0358 30.646 68.1221 30.6499 68.2325C30.6539 68.3429 30.5676 68.4356 30.4572 68.4395C29.2556 68.4827 27.2081 68.3763 24.9115 67.9247C22.5275 67.456 19.8622 66.6129 17.5927 65.1687C17.4995 65.1094 17.472 64.9858 17.5313 64.8926C17.5906 64.7994 17.7142 64.772 17.8074 64.8313C19.8228 66.1137 22.1697 66.9163 24.3515 67.3992C23.3211 66.3444 21.907 64.937 20.5572 63.6755C19.7764 62.9458 19.0189 62.2666 18.3706 61.7333C17.7155 61.1944 17.1913 60.821 16.8713 60.6838C16.7697 60.6403 16.7227 60.5227 16.7662 60.4212Z" fill="#0A3019"/>
<circle cx="12.25" cy="45.75" r="1.25" fill="#B756C7"/>
<circle cx="20.25" cy="48.25" r="1.25" fill="#B756C7"/>
<circle cx="26.75" cy="51.25" r="1.25" fill="#B756C7"/>
<circle cx="48.25" cy="57.25" r="1.25" fill="#B756C7"/>
<circle cx="49.25" cy="61.25" r="1.25" fill="#B756C7"/>
<circle cx="17.25" cy="60.25" r="1.25" fill="#B756C7"/>
<circle cx="17.75" cy="64.75" r="1.25" fill="#B756C7"/>
<circle cx="11" cy="49" r="1.5" fill="#B756C7"/>
<circle cx="43.75" cy="41.25" r="1.25" fill="#B756C7"/>
<circle cx="48.25" cy="41.75" r="1.25" fill="#B756C7"/>
<path d="M31.6267 84.8569C29.7363 83.5629 28.2071 82.3309 26.9846 81.1682C26.7001 80.8976 26.4322 80.6307 26.1803 80.3677C25.7016 79.868 25.2804 79.3822 24.9119 78.9109C24.2734 78.0941 23.7932 77.3207 23.4467 76.5938C23.0689 75.8015 22.85 75.0644 22.758 74.3867C22.6458 73.5594 22.7228 72.8205 22.9311 72.1776C23.2141 71.3041 23.7394 70.6076 24.3619 70.1067C24.8013 69.753 25.2892 69.4969 25.7744 69.3448C27.0194 69.0677 28.0523 69.2047 28.9013 69.6475C29.3715 69.8927 29.7852 70.2317 30.1473 70.6461C30.384 70.9169 30.5987 71.22 30.7926 71.5501C31.1289 72.1226 31.4029 72.7765 31.6216 73.485C31.8594 74.2556 32.0319 75.0908 32.1478 75.9562C32.2556 76.7604 32.3146 77.5906 32.332 78.4193C32.3471 79.139 32.3309 79.8575 32.2881 80.5567C32.1895 82.1658 31.9499 83.6727 31.6267 84.8569Z" fill="#B756C7"/>
<g style="mix-blend-mode:multiply">
<path d="M24.5319 69.9761L26.3374 70.6602L28.6902 69.5457C28.7617 69.5776 28.8319 69.6116 28.9009 69.6476C28.9548 69.6757 29.008 69.705 29.0604 69.7356C29.0425 69.7681 29.0146 69.7954 28.9786 69.8125L26.3526 71.0563L24.2969 70.2774C24.2666 70.2659 24.2411 70.2472 24.2217 70.2239C24.2677 70.1837 24.3143 70.1447 24.3615 70.1067C24.4175 70.0616 24.4744 70.0181 24.5319 69.9761Z" fill="#B756C7"/>
<path d="M22.878 72.3524C22.8945 72.2934 22.9121 72.2351 22.9307 72.1776C22.9499 72.1182 22.9703 72.0596 22.9917 72.0018L27.0145 72.5596L30.0234 70.5099C30.0652 70.5543 30.1064 70.5997 30.1469 70.6461C30.1867 70.6916 30.2258 70.7381 30.2644 70.7854C30.2596 70.7895 30.2545 70.7933 30.2492 70.797L27.1029 72.9403L22.9055 72.3584C22.896 72.3571 22.8869 72.355 22.878 72.3524Z" fill="#B756C7"/>
<path d="M22.7867 74.5778C22.7759 74.5136 22.7662 74.4499 22.7576 74.3867C22.7493 74.3259 22.7421 74.2655 22.7359 74.2056C22.7539 74.2034 22.7726 74.2039 22.7914 74.2074L27.9698 75.1767L30.6444 71.444C30.6591 71.4233 30.6774 71.4067 30.6978 71.3943C30.7298 71.4456 30.7612 71.4975 30.7922 71.5502C30.8258 71.6075 30.8589 71.6656 30.8913 71.7246L28.1302 75.5781L22.7867 74.5778Z" fill="#B756C7"/>
<path d="M23.5525 76.81C23.5158 76.7375 23.4804 76.6655 23.4462 76.5939C23.4198 76.5385 23.3942 76.4835 23.3694 76.4287C23.4064 76.4113 23.4495 76.4062 23.4921 76.4173L28.9672 77.835L31.4626 73.3958C31.4861 73.3539 31.5237 73.3249 31.5661 73.3113C31.5848 73.3689 31.6032 73.4268 31.6212 73.4851C31.646 73.5655 31.6701 73.6465 31.6935 73.7282L29.1469 78.2585L23.5525 76.81Z" fill="#B756C7"/>
<path d="M25.1172 79.1688C25.0469 79.0824 24.9783 78.9964 24.9115 78.9109C24.8738 78.8627 24.8367 78.8147 24.8001 78.7668C24.8461 78.7312 24.9081 78.7181 24.9675 78.7372L29.9039 80.3252L31.9826 75.8791C32.0097 75.8211 32.0634 75.784 32.1223 75.7756C32.1309 75.8357 32.1393 75.8959 32.1474 75.9563C32.1625 76.0689 32.1766 76.182 32.1898 76.2956L30.0975 80.7709L25.1172 79.1688Z" fill="#B756C7"/>
<path d="M26.5578 80.7532C26.428 80.6238 26.3021 80.4953 26.1798 80.3677C26.1376 80.3236 26.0958 80.2796 26.0544 80.2357C26.1078 80.1848 26.1891 80.1694 26.2593 80.2034L30.6696 82.3356L32.1612 78.3554C32.188 78.2837 32.2551 78.2388 32.3271 78.2369C32.3288 78.2977 32.3303 78.3585 32.3316 78.4193C32.3351 78.5875 32.3369 78.7557 32.3371 78.9235L30.8702 82.8381L26.5578 80.7532Z" fill="#B756C7"/>
</g>
<g style="mix-blend-mode:multiply">
<path d="M31.7319 84.4476C31.7319 84.4476 31.7319 84.4476 31.7319 84.4476L26.0155 69.2958C25.936 69.3104 25.8556 69.3267 25.7743 69.3448C25.6978 69.3688 25.6212 69.3954 25.5448 69.4245L25.5472 69.4312L31.3984 84.9405L33.3136 90.2061C33.3595 90.3323 33.4988 90.3971 33.6249 90.3509C33.7509 90.3047 33.8158 90.165 33.7699 90.0388L31.8547 84.7732L31.7319 84.4476Z" fill="#B756C7"/>
</g>
<path d="M37.6624 77.3414C39.223 76.9566 40.5309 76.5238 41.6203 76.0608C41.8739 75.9531 42.1156 75.8437 42.3459 75.7329C42.7833 75.5225 43.1796 75.307 43.5378 75.0881C44.1583 74.7087 44.6642 74.3188 45.0709 73.9266C45.5141 73.499 45.8394 73.0687 46.0667 72.6461C46.3441 72.1302 46.4754 71.6258 46.4968 71.1521C46.526 70.5086 46.3523 69.9216 46.0667 69.4393C45.865 69.0988 45.6076 68.8104 45.3262 68.591C44.5765 68.1025 43.8642 67.9382 43.1974 68.0201C42.8282 68.0654 42.4729 68.1863 42.133 68.3694C41.9108 68.489 41.6951 68.6353 41.4865 68.8045C41.1246 69.0978 40.7836 69.4599 40.4655 69.8716C40.1195 70.3193 39.8006 70.8255 39.5114 71.3655C39.2426 71.8673 38.9994 72.3982 38.784 72.9383C38.5968 73.4075 38.4306 73.8835 38.2866 74.3534C37.9552 75.4348 37.7416 76.4838 37.6624 77.3414Z" fill="#B756C7"/>
<g style="mix-blend-mode:multiply">
<path d="M45.9868 69.3116L44.6323 69.3165L43.3609 68.0051C43.3061 68.0084 43.2516 68.0135 43.1974 68.0201C43.1551 68.0253 43.1129 68.0315 43.071 68.0387C43.0747 68.0644 43.0863 68.0893 43.1058 68.1094L44.5247 69.573L46.0671 69.5674C46.0898 69.5673 46.1112 69.5613 46.1296 69.5508C46.1093 69.513 46.0883 69.4759 46.0667 69.4394C46.041 69.3959 46.0143 69.3533 45.9868 69.3116Z" fill="#B756C7"/>
<path d="M46.4884 71.2799C46.4921 71.2371 46.4949 71.1945 46.4968 71.1521C46.4988 71.1084 46.4999 71.0649 46.5 71.0216L43.7198 70.3977L42.2477 68.3103C42.2093 68.3292 42.171 68.3489 42.133 68.3694C42.0956 68.3895 42.0585 68.4104 42.0215 68.432C42.0237 68.4359 42.026 68.4396 42.0286 68.4433L43.568 70.6261L46.4689 71.2771C46.4754 71.2786 46.482 71.2795 46.4884 71.2799Z" fill="#B756C7"/>
<path d="M46.0005 72.7645C46.0235 72.725 46.0455 72.6855 46.0667 72.6461C46.0871 72.6081 46.1067 72.5703 46.1256 72.5324C46.1142 72.5265 46.1019 72.5223 46.0886 72.52L42.4479 71.8819L41.6097 68.7711C41.6051 68.7539 41.5972 68.7385 41.5869 68.7253C41.5532 68.7511 41.5198 68.7775 41.4865 68.8045C41.4502 68.8339 41.4142 68.8639 41.3784 68.8946L42.2437 72.1061L46.0005 72.7645Z" fill="#B756C7"/>
<path d="M44.9479 74.0424C44.9898 74.0038 45.0308 73.9652 45.0709 73.9266C45.1018 73.8968 45.1322 73.8669 45.1621 73.837C45.142 73.8164 45.115 73.8025 45.0842 73.7993L41.1382 73.3828L40.5916 69.852C40.5865 69.8187 40.5689 69.7903 40.5445 69.771C40.518 69.8042 40.4916 69.8377 40.4655 69.8716C40.4294 69.9183 40.3936 69.9656 40.3581 70.0135L40.9159 73.6168L44.9479 74.0424Z" fill="#B756C7"/>
<path d="M43.3391 75.2069C43.4066 75.1674 43.4728 75.1278 43.5378 75.0881C43.5744 75.0657 43.6106 75.0433 43.6464 75.0209C43.625 74.9862 43.5875 74.9623 43.5438 74.9602L39.9097 74.7882L39.6387 71.3555C39.6351 71.3106 39.609 71.2731 39.5724 71.253C39.5519 71.2904 39.5316 71.3279 39.5114 71.3656C39.4737 71.4358 39.4366 71.5067 39.4 71.578L39.6728 75.0334L43.3391 75.2069Z" fill="#B756C7"/>
<path d="M42.0026 75.8932C42.1198 75.8401 42.2342 75.7867 42.3459 75.733C42.3845 75.7144 42.4228 75.6958 42.4608 75.6771C42.4383 75.6305 42.3886 75.6004 42.3341 75.6054L38.9117 75.9205V72.9384C38.9117 72.8847 38.8787 72.8387 38.8319 72.8197C38.8158 72.8592 38.7998 72.8988 38.784 72.9384C38.7403 73.048 38.6977 73.1581 38.6562 73.2683V76.2012L42.0026 75.8932Z" fill="#B756C7"/>
</g>
<g style="mix-blend-mode:multiply">
<path d="M37.6941 77.0466C37.6941 77.0466 37.6941 77.0465 37.6941 77.0466L45.1799 68.4994C45.2286 68.5286 45.2774 68.5591 45.3263 68.591C45.3707 68.6256 45.4145 68.6619 45.4575 68.6999L45.4543 68.7037L37.7919 77.4525L35.2373 80.4404C35.1761 80.512 35.0685 80.5203 34.9971 80.4589C34.9257 80.3975 34.9174 80.2897 34.9787 80.2181L37.5333 77.2302L37.6941 77.0466Z" fill="#B756C7"/>
</g>
<ellipse cx="30.4504" cy="27.3326" rx="20.2045" ry="19.8959" transform="rotate(-30 30.4504 27.3326)" fill="#B756C7"/>
<g style="mix-blend-mode:multiply">
<path d="M24.8133 17.5687L30.1677 25.0903L33.4755 16.3806L31.8511 25.5275L40.3657 21.608L32.714 27.0221L41.4477 30.1888L32.2509 28.6986L36.0876 37.0965L30.7332 29.5749L27.4253 38.2846L29.0498 29.1377L20.5351 33.0572L28.1869 27.6431L19.4532 24.4764L28.6499 25.9666L24.8133 17.5687Z" fill="#B756C7"/>
<ellipse cx="4.71438" cy="4.64238" rx="4.71438" ry="4.64238" transform="matrix(-0.866025 0.5 0.5 0.866025 32.2119 20.955)" fill="#B756C7"/>
<g style="mix-blend-mode:multiply">
<path d="M30.9985 23.4667C30.821 24.1091 31.1624 24.7559 31.1624 24.7559C31.1624 24.7559 31.7914 24.3611 31.9688 23.7187C32.1463 23.0763 32.319 20.5683 32.319 20.5683C32.319 20.5683 31.1759 22.8242 30.9985 23.4667Z" fill="#B756C7"/>
</g>
<g style="mix-blend-mode:multiply">
<path d="M32.4451 23.9494C32.0343 24.4788 32.0984 25.2093 32.0984 25.2093C32.0984 25.2093 32.8286 25.0814 33.2394 24.552C33.6502 24.0226 34.7762 21.7584 34.7762 21.7584C34.7762 21.7584 32.8559 23.42 32.4451 23.9494Z" fill="#B756C7"/>
</g>
<g style="mix-blend-mode:multiply">
<path d="M33.5878 24.9471C33.0062 25.2829 32.7834 25.9859 32.7834 25.9859C32.7834 25.9859 33.5036 26.1444 34.0852 25.8086C34.6668 25.4728 36.5745 23.797 36.5745 23.797C36.5745 23.797 34.1694 24.6113 33.5878 24.9471Z" fill="#B756C7"/>
</g>
<g style="mix-blend-mode:multiply">
<path d="M34.2529 26.3081C33.589 26.3991 33.1132 26.9676 33.1132 26.9676C33.1132 26.9676 33.7137 27.3884 34.3776 27.2973C35.0415 27.2062 37.4406 26.374 37.4406 26.374C37.4406 26.374 34.9167 26.217 34.2529 26.3081Z" fill="#B756C7"/>
</g>
<g style="mix-blend-mode:multiply">
<path d="M34.3395 27.8251C33.6944 27.6575 33.038 28.0049 33.038 28.0049C33.038 28.0049 33.4275 28.6239 34.0725 28.7914C34.7176 28.9589 37.2428 29.0969 37.2428 29.0969C37.2428 29.0969 34.9845 27.9926 34.3395 27.8251Z" fill="#B756C7"/>
</g>
<g style="mix-blend-mode:multiply">
<path d="M33.8336 29.267C33.3056 28.8664 32.5685 28.9398 32.5685 28.9398C32.5685 28.9398 32.6876 29.6628 33.2157 30.0634C33.7437 30.464 36.0106 31.5513 36.0106 31.5513C36.0106 31.5513 34.3617 29.6677 33.8336 29.267Z" fill="#B756C7"/>
</g>
<g style="mix-blend-mode:multiply">
<path d="M32.8128 30.4146C32.4822 29.8419 31.7767 29.6301 31.7767 29.6301C31.7767 29.6301 31.6073 30.347 31.938 30.9197C32.2686 31.4924 33.9321 33.3634 33.9321 33.3634C33.9321 33.3634 33.1435 30.9873 32.8128 30.4146Z" fill="#B756C7"/>
</g>
<g style="mix-blend-mode:multiply">
<path d="M31.4325 31.093C31.3496 30.4353 30.783 29.9707 30.783 29.9707C30.783 29.9707 30.3509 30.5723 30.4338 31.2299C30.5168 31.8876 31.3235 34.2574 31.3235 34.2574C31.3235 34.2574 31.5154 31.7506 31.4325 31.093Z" fill="#B756C7"/>
</g>
<g style="mix-blend-mode:multiply">
<path d="M29.9024 31.1989C30.0798 30.5565 29.7385 29.9097 29.7385 29.9097C29.7385 29.9097 29.1095 30.3045 28.932 30.9469C28.7546 31.5893 28.5819 34.0972 28.5819 34.0972C28.5819 34.0972 29.7249 31.8413 29.9024 31.1989Z" fill="#B756C7"/>
</g>
<g style="mix-blend-mode:multiply">
<path d="M28.4558 30.7162C28.8666 30.1868 28.8024 29.4563 28.8024 29.4563C28.8024 29.4563 28.0723 29.5841 27.6615 30.1136C27.2507 30.643 26.1247 32.9072 26.1247 32.9072C26.1247 32.9072 28.045 31.2456 28.4558 30.7162Z" fill="#B756C7"/>
</g>
<g style="mix-blend-mode:multiply">
<path d="M27.3131 29.7184C27.8947 29.3826 28.1175 28.6796 28.1175 28.6796C28.1175 28.6796 27.3973 28.5211 26.8157 28.8569C26.2341 29.1927 24.3263 30.8684 24.3263 30.8684C24.3263 30.8684 26.7315 30.0542 27.3131 29.7184Z" fill="#B756C7"/>
</g>
<g style="mix-blend-mode:multiply">
<path d="M26.6475 28.3574C27.3114 28.2664 27.7872 27.6979 27.7872 27.6979C27.7872 27.6979 27.1867 27.2771 26.5228 27.3682C25.8589 27.4593 23.4598 28.2915 23.4598 28.2915C23.4598 28.2915 25.9837 28.4485 26.6475 28.3574Z" fill="#B756C7"/>
</g>
<g style="mix-blend-mode:multiply">
<path d="M26.5614 26.8404C27.2065 27.008 27.8629 26.6606 27.8629 26.6606C27.8629 26.6606 27.4734 26.0416 26.8283 25.8741C26.1833 25.7065 23.658 25.5685 23.658 25.5685C23.658 25.5685 25.9163 26.6729 26.5614 26.8404Z" fill="#B756C7"/>
</g>
<g style="mix-blend-mode:multiply">
<path d="M27.0668 25.3984C27.5948 25.799 28.3319 25.7256 28.3319 25.7256C28.3319 25.7256 28.2128 25.0026 27.6847 24.602C27.1566 24.2014 24.8898 23.1141 24.8898 23.1141C24.8898 23.1141 26.5387 24.9977 27.0668 25.3984Z" fill="#B756C7"/>
</g>
<g style="mix-blend-mode:multiply">
<path d="M28.0876 24.2508C28.4182 24.8235 29.1237 25.0352 29.1237 25.0352C29.1237 25.0352 29.2931 24.3184 28.9624 23.7456C28.6318 23.1729 26.9683 21.302 26.9683 21.302C26.9683 21.302 27.7569 23.678 28.0876 24.2508Z" fill="#B756C7"/>
</g>
<g style="mix-blend-mode:multiply">
<path d="M29.4684 23.5726C29.5513 24.2302 30.1179 24.6949 30.1179 24.6949C30.1179 24.6949 30.55 24.0933 30.467 23.4356C30.3841 22.778 29.5773 20.4082 29.5773 20.4082C29.5773 20.4082 29.3855 22.915 29.4684 23.5726Z" fill="#B756C7"/>
</g>
</g>
</svg>
